<?xml version="1.0" encoding="utf-8" standalone="no"?>
<!DOCTYPE svg PUBLIC "-//W3C//DTD SVG 1.1//EN"
  "http://www.w3.org/Graphics/SVG/1.1/DTD/svg11.dtd">
<svg xmlns:xlink="http://www.w3.org/1999/xlink" width="857.43875pt" height="683.737812pt" viewBox="0 0 857.43875 683.737812" xmlns="http://www.w3.org/2000/svg" version="1.1">
 <metadata>
  <rdf:RDF xmlns:dc="http://purl.org/dc/elements/1.1/" xmlns:cc="http://creativecommons.org/ns#" xmlns:rdf="http://www.w3.org/1999/02/22-rdf-syntax-ns#">
   <cc:Work>
    <dc:type rdf:resource="http://purl.org/dc/dcmitype/StillImage"/>
    <dc:date>2025-12-03T15:38:08.611889</dc:date>
    <dc:format>image/svg+xml</dc:format>
    <dc:creator>
     <cc:Agent>
      <dc:title>Matplotlib v3.10.7, https://matplotlib.org/</dc:title>
     </cc:Agent>
    </dc:creator>
   </cc:Work>
  </rdf:RDF>
 </metadata>
 <defs>
  <style type="text/css">*{stroke-linejoin: round; stroke-linecap: butt}</style>
 </defs>
 <g id="figure_1">
  <g id="patch_1">
   <path d="M 0 683.737812 
L 857.43875 683.737812 
L 857.43875 0 
L 0 0 
z
" style="fill: #ffffff"/>
  </g>
  <g id="axes_1">
   <g id="patch_2">
    <path d="M 69.03875 320.243478 
L 408.690924 320.243478 
L 408.690924 79.2 
L 69.03875 79.2 
z
" style="fill: #ffffff"/>
   </g>
   <g id="matplotlib.axis_1">
    <g id="xtick_1">
     <g id="line2d_1">
      <defs>
       <path id="me0a13bedf1" d="M 0 0 
L 0 3.5 
" style="stroke: #000000; stroke-width: 0.8"/>
      </defs>
      <g>
       <use xlink:href="#me0a13bedf1" x="87.398327" y="320.243478" style="stroke: #000000; stroke-width: 0.8"/>
      </g>
     </g>
     <g id="text_1">
      <!-- 0 -->
      <g transform="translate(82.626452 338.641135) scale(0.15 -0.15)">
       <defs>
        <path id="DejaVuSans-30" d="M 2034 4250 
Q 1547 4250 1301 3770 
Q 1056 3291 1056 2328 
Q 1056 1369 1301 889 
Q 1547 409 2034 409 
Q 2525 409 2770 889 
Q 3016 1369 3016 2328 
Q 3016 3291 2770 3770 
Q 2525 4250 2034 4250 
z
M 2034 4750 
Q 2819 4750 3233 4129 
Q 3647 3509 3647 2328 
Q 3647 1150 3233 529 
Q 2819 -91 2034 -91 
Q 1250 -91 836 529 
Q 422 1150 422 2328 
Q 422 3509 836 4129 
Q 1250 4750 2034 4750 
z
" transform="scale(0.015625)"/>
       </defs>
       <use xlink:href="#DejaVuSans-30"/>
      </g>
     </g>
    </g>
    <g id="xtick_2">
     <g id="line2d_2">
      <g>
       <use xlink:href="#me0a13bedf1" x="179.196212" y="320.243478" style="stroke: #000000; stroke-width: 0.8"/>
      </g>
     </g>
     <g id="text_2">
      <!-- 10 -->
      <g transform="translate(169.652462 338.641135) scale(0.15 -0.15)">
       <defs>
        <path id="DejaVuSans-31" d="M 794 531 
L 1825 531 
L 1825 4091 
L 703 3866 
L 703 4441 
L 1819 4666 
L 2450 4666 
L 2450 531 
L 3481 531 
L 3481 0 
L 794 0 
L 794 531 
z
" transform="scale(0.015625)"/>
       </defs>
       <use xlink:href="#DejaVuSans-31"/>
       <use xlink:href="#DejaVuSans-30" transform="translate(63.623047 0)"/>
      </g>
     </g>
    </g>
    <g id="xtick_3">
     <g id="line2d_3">
      <g>
       <use xlink:href="#me0a13bedf1" x="270.994097" y="320.243478" style="stroke: #000000; stroke-width: 0.8"/>
      </g>
     </g>
     <g id="text_3">
      <!-- 20 -->
      <g transform="translate(261.450347 338.641135) scale(0.15 -0.15)">
       <defs>
        <path id="DejaVuSans-32" d="M 1228 531 
L 3431 531 
L 3431 0 
L 469 0 
L 469 531 
Q 828 903 1448 1529 
Q 2069 2156 2228 2338 
Q 2531 2678 2651 2914 
Q 2772 3150 2772 3378 
Q 2772 3750 2511 3984 
Q 2250 4219 1831 4219 
Q 1534 4219 1204 4116 
Q 875 4013 500 3803 
L 500 4441 
Q 881 4594 1212 4672 
Q 1544 4750 1819 4750 
Q 2544 4750 2975 4387 
Q 3406 4025 3406 3419 
Q 3406 3131 3298 2873 
Q 3191 2616 2906 2266 
Q 2828 2175 2409 1742 
Q 1991 1309 1228 531 
z
" transform="scale(0.015625)"/>
       </defs>
       <use xlink:href="#DejaVuSans-32"/>
       <use xlink:href="#DejaVuSans-30" transform="translate(63.623047 0)"/>
      </g>
     </g>
    </g>
    <g id="xtick_4">
     <g id="line2d_4">
      <g>
       <use xlink:href="#me0a13bedf1" x="362.791981" y="320.243478" style="stroke: #000000; stroke-width: 0.8"/>
      </g>
     </g>
     <g id="text_4">
      <!-- 30 -->
      <g transform="translate(353.248231 338.641135) scale(0.15 -0.15)">
       <defs>
        <path id="DejaVuSans-33" d="M 2597 2516 
Q 3050 2419 3304 2112 
Q 3559 1806 3559 1356 
Q 3559 666 3084 287 
Q 2609 -91 1734 -91 
Q 1441 -91 1130 -33 
Q 819 25 488 141 
L 488 750 
Q 750 597 1062 519 
Q 1375 441 1716 441 
Q 2309 441 2620 675 
Q 2931 909 2931 1356 
Q 2931 1769 2642 2001 
Q 2353 2234 1838 2234 
L 1294 2234 
L 1294 2753 
L 1863 2753 
Q 2328 2753 2575 2939 
Q 2822 3125 2822 3475 
Q 2822 3834 2567 4026 
Q 2313 4219 1838 4219 
Q 1578 4219 1281 4162 
Q 984 4106 628 3988 
L 628 4550 
Q 988 4650 1302 4700 
Q 1616 4750 1894 4750 
Q 2613 4750 3031 4423 
Q 3450 4097 3450 3541 
Q 3450 3153 3228 2886 
Q 3006 2619 2597 2516 
z
" transform="scale(0.015625)"/>
       </defs>
       <use xlink:href="#DejaVuSans-33"/>
       <use xlink:href="#DejaVuSans-30" transform="translate(63.623047 0)"/>
      </g>
     </g>
    </g>
    <g id="text_5">
     <!-- Time [hr] -->
     <g transform="translate(191.952337 359.437853) scale(0.18 -0.18)">
      <defs>
       <path id="DejaVuSans-Bold-54" d="M 31 4666 
L 4331 4666 
L 4331 3756 
L 2784 3756 
L 2784 0 
L 1581 0 
L 1581 3756 
L 31 3756 
L 31 4666 
z
" transform="scale(0.015625)"/>
       <path id="DejaVuSans-Bold-69" d="M 538 3500 
L 1656 3500 
L 1656 0 
L 538 0 
L 538 3500 
z
M 538 4863 
L 1656 4863 
L 1656 3950 
L 538 3950 
L 538 4863 
z
" transform="scale(0.015625)"/>
       <path id="DejaVuSans-Bold-6d" d="M 3781 2919 
Q 3994 3244 4286 3414 
Q 4578 3584 4928 3584 
Q 5531 3584 5847 3212 
Q 6163 2841 6163 2131 
L 6163 0 
L 5038 0 
L 5038 1825 
Q 5041 1866 5042 1909 
Q 5044 1953 5044 2034 
Q 5044 2406 4934 2573 
Q 4825 2741 4581 2741 
Q 4263 2741 4089 2478 
Q 3916 2216 3909 1719 
L 3909 0 
L 2784 0 
L 2784 1825 
Q 2784 2406 2684 2573 
Q 2584 2741 2328 2741 
Q 2006 2741 1831 2477 
Q 1656 2213 1656 1722 
L 1656 0 
L 531 0 
L 531 3500 
L 1656 3500 
L 1656 2988 
Q 1863 3284 2130 3434 
Q 2397 3584 2719 3584 
Q 3081 3584 3359 3409 
Q 3638 3234 3781 2919 
z
" transform="scale(0.015625)"/>
       <path id="DejaVuSans-Bold-65" d="M 4031 1759 
L 4031 1441 
L 1416 1441 
Q 1456 1047 1700 850 
Q 1944 653 2381 653 
Q 2734 653 3104 758 
Q 3475 863 3866 1075 
L 3866 213 
Q 3469 63 3072 -14 
Q 2675 -91 2278 -91 
Q 1328 -91 801 392 
Q 275 875 275 1747 
Q 275 2603 792 3093 
Q 1309 3584 2216 3584 
Q 3041 3584 3536 3087 
Q 4031 2591 4031 1759 
z
M 2881 2131 
Q 2881 2450 2695 2645 
Q 2509 2841 2209 2841 
Q 1884 2841 1681 2658 
Q 1478 2475 1428 2131 
L 2881 2131 
z
" transform="scale(0.015625)"/>
       <path id="DejaVuSans-Bold-20" transform="scale(0.015625)"/>
       <path id="DejaVuSans-Bold-5b" d="M 550 4863 
L 2491 4863 
L 2491 4159 
L 1613 4159 
L 1613 -141 
L 2491 -141 
L 2491 -844 
L 550 -844 
L 550 4863 
z
" transform="scale(0.015625)"/>
       <path id="DejaVuSans-Bold-68" d="M 4056 2131 
L 4056 0 
L 2931 0 
L 2931 347 
L 2931 1625 
Q 2931 2084 2911 2256 
Q 2891 2428 2841 2509 
Q 2775 2619 2662 2680 
Q 2550 2741 2406 2741 
Q 2056 2741 1856 2470 
Q 1656 2200 1656 1722 
L 1656 0 
L 538 0 
L 538 4863 
L 1656 4863 
L 1656 2988 
Q 1909 3294 2193 3439 
Q 2478 3584 2822 3584 
Q 3428 3584 3742 3212 
Q 4056 2841 4056 2131 
z
" transform="scale(0.015625)"/>
       <path id="DejaVuSans-Bold-72" d="M 3138 2547 
Q 2991 2616 2845 2648 
Q 2700 2681 2553 2681 
Q 2122 2681 1889 2404 
Q 1656 2128 1656 1613 
L 1656 0 
L 538 0 
L 538 3500 
L 1656 3500 
L 1656 2925 
Q 1872 3269 2151 3426 
Q 2431 3584 2822 3584 
Q 2878 3584 2943 3579 
Q 3009 3575 3134 3559 
L 3138 2547 
z
" transform="scale(0.015625)"/>
       <path id="DejaVuSans-Bold-5d" d="M 2375 -844 
L 434 -844 
L 434 -141 
L 1313 -141 
L 1313 4159 
L 434 4159 
L 434 4863 
L 2375 4863 
L 2375 -844 
z
" transform="scale(0.015625)"/>
      </defs>
      <use xlink:href="#DejaVuSans-Bold-54"/>
      <use xlink:href="#DejaVuSans-Bold-69" transform="translate(68.212891 0)"/>
      <use xlink:href="#DejaVuSans-Bold-6d" transform="translate(102.490234 0)"/>
      <use xlink:href="#DejaVuSans-Bold-65" transform="translate(206.689453 0)"/>
      <use xlink:href="#DejaVuSans-Bold-20" transform="translate(274.511719 0)"/>
      <use xlink:href="#DejaVuSans-Bold-5b" transform="translate(309.326172 0)"/>
      <use xlink:href="#DejaVuSans-Bold-68" transform="translate(355.029297 0)"/>
      <use xlink:href="#DejaVuSans-Bold-72" transform="translate(426.220703 0)"/>
      <use xlink:href="#DejaVuSans-Bold-5d" transform="translate(475.537109 0)"/>
     </g>
    </g>
   </g>
   <g id="matplotlib.axis_2">
    <g id="ytick_1">
     <g id="line2d_5">
      <defs>
       <path id="md45321602c" d="M 0 0 
L -3.5 0 
" style="stroke: #000000; stroke-width: 0.8"/>
      </defs>
      <g>
       <use xlink:href="#md45321602c" x="69.03875" y="309.286957" style="stroke: #000000; stroke-width: 0.8"/>
      </g>
     </g>
     <g id="text_6">
      <!-- 0 -->
      <g transform="translate(52.495 314.985785) scale(0.15 -0.15)">
       <use xlink:href="#DejaVuSans-30"/>
      </g>
     </g>
    </g>
    <g id="ytick_2">
     <g id="line2d_6">
      <g>
       <use xlink:href="#md45321602c" x="69.03875" y="255.939144" style="stroke: #000000; stroke-width: 0.8"/>
      </g>
     </g>
     <g id="text_7">
      <!-- 100 -->
      <g transform="translate(33.4075 261.637972) scale(0.15 -0.15)">
       <use xlink:href="#DejaVuSans-31"/>
       <use xlink:href="#DejaVuSans-30" transform="translate(63.623047 0)"/>
       <use xlink:href="#DejaVuSans-30" transform="translate(127.246094 0)"/>
      </g>
     </g>
    </g>
    <g id="ytick_3">
     <g id="line2d_7">
      <g>
       <use xlink:href="#md45321602c" x="69.03875" y="202.591331" style="stroke: #000000; stroke-width: 0.8"/>
      </g>
     </g>
     <g id="text_8">
      <!-- 200 -->
      <g transform="translate(33.4075 208.290159) scale(0.15 -0.15)">
       <use xlink:href="#DejaVuSans-32"/>
       <use xlink:href="#DejaVuSans-30" transform="translate(63.623047 0)"/>
       <use xlink:href="#DejaVuSans-30" transform="translate(127.246094 0)"/>
      </g>
     </g>
    </g>
    <g id="ytick_4">
     <g id="line2d_8">
      <g>
       <use xlink:href="#md45321602c" x="69.03875" y="149.243518" style="stroke: #000000; stroke-width: 0.8"/>
      </g>
     </g>
     <g id="text_9">
      <!-- 300 -->
      <g transform="translate(33.4075 154.942346) scale(0.15 -0.15)">
       <use xlink:href="#DejaVuSans-33"/>
       <use xlink:href="#DejaVuSans-30" transform="translate(63.623047 0)"/>
       <use xlink:href="#DejaVuSans-30" transform="translate(127.246094 0)"/>
      </g>
     </g>
    </g>
    <g id="ytick_5">
     <g id="line2d_9">
      <g>
       <use xlink:href="#md45321602c" x="69.03875" y="95.895705" style="stroke: #000000; stroke-width: 0.8"/>
      </g>
     </g>
     <g id="text_10">
      <!-- 400 -->
      <g transform="translate(33.4075 101.594533) scale(0.15 -0.15)">
       <defs>
        <path id="DejaVuSans-34" d="M 2419 4116 
L 825 1625 
L 2419 1625 
L 2419 4116 
z
M 2253 4666 
L 3047 4666 
L 3047 1625 
L 3713 1625 
L 3713 1100 
L 3047 1100 
L 3047 0 
L 2419 0 
L 2419 1100 
L 313 1100 
L 313 1709 
L 2253 4666 
z
" transform="scale(0.015625)"/>
       </defs>
       <use xlink:href="#DejaVuSans-34"/>
       <use xlink:href="#DejaVuSans-30" transform="translate(63.623047 0)"/>
       <use xlink:href="#DejaVuSans-30" transform="translate(127.246094 0)"/>
      </g>
     </g>
    </g>
    <g id="text_11">
     <!-- Losartan [nM] -->
     <g transform="translate(25.664063 271.012989) rotate(-90) scale(0.18 -0.18)">
      <defs>
       <path id="DejaVuSans-Bold-4c" d="M 588 4666 
L 1791 4666 
L 1791 909 
L 3903 909 
L 3903 0 
L 588 0 
L 588 4666 
z
" transform="scale(0.015625)"/>
       <path id="DejaVuSans-Bold-6f" d="M 2203 2784 
Q 1831 2784 1636 2517 
Q 1441 2250 1441 1747 
Q 1441 1244 1636 976 
Q 1831 709 2203 709 
Q 2569 709 2762 976 
Q 2956 1244 2956 1747 
Q 2956 2250 2762 2517 
Q 2569 2784 2203 2784 
z
M 2203 3584 
Q 3106 3584 3614 3096 
Q 4122 2609 4122 1747 
Q 4122 884 3614 396 
Q 3106 -91 2203 -91 
Q 1297 -91 786 396 
Q 275 884 275 1747 
Q 275 2609 786 3096 
Q 1297 3584 2203 3584 
z
" transform="scale(0.015625)"/>
       <path id="DejaVuSans-Bold-73" d="M 3272 3391 
L 3272 2541 
Q 2913 2691 2578 2766 
Q 2244 2841 1947 2841 
Q 1628 2841 1473 2761 
Q 1319 2681 1319 2516 
Q 1319 2381 1436 2309 
Q 1553 2238 1856 2203 
L 2053 2175 
Q 2913 2066 3209 1816 
Q 3506 1566 3506 1031 
Q 3506 472 3093 190 
Q 2681 -91 1863 -91 
Q 1516 -91 1145 -36 
Q 775 19 384 128 
L 384 978 
Q 719 816 1070 734 
Q 1422 653 1784 653 
Q 2113 653 2278 743 
Q 2444 834 2444 1013 
Q 2444 1163 2330 1236 
Q 2216 1309 1875 1350 
L 1678 1375 
Q 931 1469 631 1722 
Q 331 1975 331 2491 
Q 331 3047 712 3315 
Q 1094 3584 1881 3584 
Q 2191 3584 2531 3537 
Q 2872 3491 3272 3391 
z
" transform="scale(0.015625)"/>
       <path id="DejaVuSans-Bold-61" d="M 2106 1575 
Q 1756 1575 1579 1456 
Q 1403 1338 1403 1106 
Q 1403 894 1545 773 
Q 1688 653 1941 653 
Q 2256 653 2472 879 
Q 2688 1106 2688 1447 
L 2688 1575 
L 2106 1575 
z
M 3816 1997 
L 3816 0 
L 2688 0 
L 2688 519 
Q 2463 200 2181 54 
Q 1900 -91 1497 -91 
Q 953 -91 614 226 
Q 275 544 275 1050 
Q 275 1666 698 1953 
Q 1122 2241 2028 2241 
L 2688 2241 
L 2688 2328 
Q 2688 2594 2478 2717 
Q 2269 2841 1825 2841 
Q 1466 2841 1156 2769 
Q 847 2697 581 2553 
L 581 3406 
Q 941 3494 1303 3539 
Q 1666 3584 2028 3584 
Q 2975 3584 3395 3211 
Q 3816 2838 3816 1997 
z
" transform="scale(0.015625)"/>
       <path id="DejaVuSans-Bold-74" d="M 1759 4494 
L 1759 3500 
L 2913 3500 
L 2913 2700 
L 1759 2700 
L 1759 1216 
Q 1759 972 1856 886 
Q 1953 800 2241 800 
L 2816 800 
L 2816 0 
L 1856 0 
Q 1194 0 917 276 
Q 641 553 641 1216 
L 641 2700 
L 84 2700 
L 84 3500 
L 641 3500 
L 641 4494 
L 1759 4494 
z
" transform="scale(0.015625)"/>
       <path id="DejaVuSans-Bold-6e" d="M 4056 2131 
L 4056 0 
L 2931 0 
L 2931 347 
L 2931 1631 
Q 2931 2084 2911 2256 
Q 2891 2428 2841 2509 
Q 2775 2619 2662 2680 
Q 2550 2741 2406 2741 
Q 2056 2741 1856 2470 
Q 1656 2200 1656 1722 
L 1656 0 
L 538 0 
L 538 3500 
L 1656 3500 
L 1656 2988 
Q 1909 3294 2193 3439 
Q 2478 3584 2822 3584 
Q 3428 3584 3742 3212 
Q 4056 2841 4056 2131 
z
" transform="scale(0.015625)"/>
       <path id="DejaVuSans-Bold-4d" d="M 588 4666 
L 2119 4666 
L 3181 2169 
L 4250 4666 
L 5778 4666 
L 5778 0 
L 4641 0 
L 4641 3413 
L 3566 897 
L 2803 897 
L 1728 3413 
L 1728 0 
L 588 0 
L 588 4666 
z
" transform="scale(0.015625)"/>
      </defs>
      <use xlink:href="#DejaVuSans-Bold-4c"/>
      <use xlink:href="#DejaVuSans-Bold-6f" transform="translate(63.720703 0)"/>
      <use xlink:href="#DejaVuSans-Bold-73" transform="translate(132.421875 0)"/>
      <use xlink:href="#DejaVuSans-Bold-61" transform="translate(191.943359 0)"/>
      <use xlink:href="#DejaVuSans-Bold-72" transform="translate(259.423828 0)"/>
      <use xlink:href="#DejaVuSans-Bold-74" transform="translate(308.740234 0)"/>
      <use xlink:href="#DejaVuSans-Bold-61" transform="translate(356.542969 0)"/>
      <use xlink:href="#DejaVuSans-Bold-6e" transform="translate(424.023438 0)"/>
      <use xlink:href="#DejaVuSans-Bold-20" transform="translate(495.214844 0)"/>
      <use xlink:href="#DejaVuSans-Bold-5b" transform="translate(530.029297 0)"/>
      <use xlink:href="#DejaVuSans-Bold-6e" transform="translate(575.732422 0)"/>
      <use xlink:href="#DejaVuSans-Bold-4d" transform="translate(646.923828 0)"/>
      <use xlink:href="#DejaVuSans-Bold-5d" transform="translate(746.435547 0)"/>
     </g>
    </g>
   </g>
   <g id="line2d_10">
    <path d="M 87.398327 309.286957 
L 89.234285 283.440366 
L 91.070242 217.995343 
L 92.9062 159.263316 
L 94.742158 125.330505 
L 96.578115 115.316056 
L 98.414073 122.065623 
L 100.250031 138.237247 
L 105.757904 198.178976 
L 107.593862 215.186391 
L 109.429819 229.739866 
L 111.265777 241.925729 
L 113.101735 251.979952 
L 114.937692 260.191289 
L 116.77365 266.850201 
L 118.609608 272.22424 
L 120.445566 276.548125 
L 122.281523 280.021624 
L 124.117481 282.811342 
L 125.953439 285.05424 
L 127.789396 286.861722 
L 129.625354 288.323673 
L 131.461312 289.512153 
L 133.297269 290.484642 
L 135.133227 291.2868 
L 138.805142 292.517093 
L 142.477058 293.409865 
L 146.148973 294.093024 
L 151.656846 294.887978 
L 160.836635 295.910071 
L 173.688339 297.083038 
L 192.047916 298.532615 
L 214.079408 300.038562 
L 237.946858 301.432373 
L 263.650266 302.699379 
L 291.189631 303.83098 
L 322.400912 304.880326 
L 357.284108 305.816168 
L 395.83922 306.621096 
L 439.902205 307.31509 
L 491.30902 307.899907 
L 553.731582 308.382125 
L 632.677763 308.759805 
L 739.163309 309.032592 
L 858.43875 309.174505 
L 858.43875 309.174505 
" clip-path="url(#p6d528a6bb0)" style="fill: none; stroke: #1f77b4; stroke-width: 2; stroke-linecap: square"/>
   </g>
   <g id="line2d_11">
    <path d="M 87.398327 309.286957 
L 89.541387 255.966795 
L 91.775329 102.307795 
L 94.308886 102.283246 
L 96.55153 147.654901 
L 98.736701 90.156522 
L 100.982568 143.398906 
L 103.540296 177.7374 
L 105.766289 188.765864 
L 115.015962 245.013519 
L 124.216755 254.485269 
L 133.295727 276.381529 
L 142.529285 288.802671 
L 151.270614 294.247635 
L 160.655537 299.275479 
L 179.261128 304.591593 
" clip-path="url(#p6d528a6bb0)" style="fill: none; stroke-dasharray: 3.7,1.6; stroke-dashoffset: 0; stroke: #1f77b4"/>
    <defs>
     <path id="m3265437dc9" d="M -3 3 
L 3 3 
L 3 -3 
L -3 -3 
z
" style="stroke: #000000; stroke-linejoin: miter"/>
    </defs>
    <g clip-path="url(#p6d528a6bb0)">
     <use xlink:href="#m3265437dc9" x="87.398327" y="309.286957" style="fill: #1f77b4; stroke: #000000; stroke-linejoin: miter"/>
     <use xlink:href="#m3265437dc9" x="89.541387" y="255.966795" style="fill: #1f77b4; stroke: #000000; stroke-linejoin: miter"/>
     <use xlink:href="#m3265437dc9" x="91.775329" y="102.307795" style="fill: #1f77b4; stroke: #000000; stroke-linejoin: miter"/>
     <use xlink:href="#m3265437dc9" x="94.308886" y="102.283246" style="fill: #1f77b4; stroke: #000000; stroke-linejoin: miter"/>
     <use xlink:href="#m3265437dc9" x="96.55153" y="147.654901" style="fill: #1f77b4; stroke: #000000; stroke-linejoin: miter"/>
     <use xlink:href="#m3265437dc9" x="98.736701" y="90.156522" style="fill: #1f77b4; stroke: #000000; stroke-linejoin: miter"/>
     <use xlink:href="#m3265437dc9" x="100.982568" y="143.398906" style="fill: #1f77b4; stroke: #000000; stroke-linejoin: miter"/>
     <use xlink:href="#m3265437dc9" x="103.540296" y="177.7374" style="fill: #1f77b4; stroke: #000000; stroke-linejoin: miter"/>
     <use xlink:href="#m3265437dc9" x="105.766289" y="188.765864" style="fill: #1f77b4; stroke: #000000; stroke-linejoin: miter"/>
     <use xlink:href="#m3265437dc9" x="115.015962" y="245.013519" style="fill: #1f77b4; stroke: #000000; stroke-linejoin: miter"/>
     <use xlink:href="#m3265437dc9" x="124.216755" y="254.485269" style="fill: #1f77b4; stroke: #000000; stroke-linejoin: miter"/>
     <use xlink:href="#m3265437dc9" x="133.295727" y="276.381529" style="fill: #1f77b4; stroke: #000000; stroke-linejoin: miter"/>
     <use xlink:href="#m3265437dc9" x="142.529285" y="288.802671" style="fill: #1f77b4; stroke: #000000; stroke-linejoin: miter"/>
     <use xlink:href="#m3265437dc9" x="151.270614" y="294.247635" style="fill: #1f77b4; stroke: #000000; stroke-linejoin: miter"/>
     <use xlink:href="#m3265437dc9" x="160.655537" y="299.275479" style="fill: #1f77b4; stroke: #000000; stroke-linejoin: miter"/>
     <use xlink:href="#m3265437dc9" x="179.261128" y="304.591593" style="fill: #1f77b4; stroke: #000000; stroke-linejoin: miter"/>
    </g>
   </g>
   <g id="patch_3">
    <path d="M 69.03875 320.243478 
L 69.03875 79.2 
" style="fill: none; stroke: #000000; stroke-width: 0.8; stroke-linejoin: miter; stroke-linecap: square"/>
   </g>
   <g id="patch_4">
    <path d="M 408.690924 320.243478 
L 408.690924 79.2 
" style="fill: none; stroke: #000000; stroke-width: 0.8; stroke-linejoin: miter; stroke-linecap: square"/>
   </g>
   <g id="patch_5">
    <path d="M 69.03875 320.243478 
L 408.690924 320.243478 
" style="fill: none; stroke: #000000; stroke-width: 0.8; stroke-linejoin: miter; stroke-linecap: square"/>
   </g>
   <g id="patch_6">
    <path d="M 69.03875 79.2 
L 408.690924 79.2 
" style="fill: none; stroke: #000000; stroke-width: 0.8; stroke-linejoin: miter; stroke-linecap: square"/>
   </g>
   <g id="legend_1">
    <g id="patch_7">
     <path d="M 285.211236 116.55625 
L 401.690924 116.55625 
Q 403.690924 116.55625 403.690924 114.55625 
L 403.690924 86.2 
Q 403.690924 84.2 401.690924 84.2 
L 285.211236 84.2 
Q 283.211236 84.2 283.211236 86.2 
L 283.211236 114.55625 
Q 283.211236 116.55625 285.211236 116.55625 
z
" style="fill: #ffffff; opacity: 0.8; stroke: #cccccc; stroke-linejoin: miter"/>
    </g>
    <g id="line2d_12">
     <path d="M 287.211236 92.298437 
L 307.211236 92.298437 
" style="fill: none; stroke: #1f77b4; stroke-width: 2; stroke-linecap: square"/>
    </g>
    <g id="line2d_13"/>
    <g id="text_12">
     <!-- Sim LOS50PO -->
     <g transform="translate(315.211236 95.798437) scale(0.1 -0.1)">
      <defs>
       <path id="DejaVuSans-53" d="M 3425 4513 
L 3425 3897 
Q 3066 4069 2747 4153 
Q 2428 4238 2131 4238 
Q 1616 4238 1336 4038 
Q 1056 3838 1056 3469 
Q 1056 3159 1242 3001 
Q 1428 2844 1947 2747 
L 2328 2669 
Q 3034 2534 3370 2195 
Q 3706 1856 3706 1288 
Q 3706 609 3251 259 
Q 2797 -91 1919 -91 
Q 1588 -91 1214 -16 
Q 841 59 441 206 
L 441 856 
Q 825 641 1194 531 
Q 1563 422 1919 422 
Q 2459 422 2753 634 
Q 3047 847 3047 1241 
Q 3047 1584 2836 1778 
Q 2625 1972 2144 2069 
L 1759 2144 
Q 1053 2284 737 2584 
Q 422 2884 422 3419 
Q 422 4038 858 4394 
Q 1294 4750 2059 4750 
Q 2388 4750 2728 4690 
Q 3069 4631 3425 4513 
z
" transform="scale(0.015625)"/>
       <path id="DejaVuSans-69" d="M 603 3500 
L 1178 3500 
L 1178 0 
L 603 0 
L 603 3500 
z
M 603 4863 
L 1178 4863 
L 1178 4134 
L 603 4134 
L 603 4863 
z
" transform="scale(0.015625)"/>
       <path id="DejaVuSans-6d" d="M 3328 2828 
Q 3544 3216 3844 3400 
Q 4144 3584 4550 3584 
Q 5097 3584 5394 3201 
Q 5691 2819 5691 2113 
L 5691 0 
L 5113 0 
L 5113 2094 
Q 5113 2597 4934 2840 
Q 4756 3084 4391 3084 
Q 3944 3084 3684 2787 
Q 3425 2491 3425 1978 
L 3425 0 
L 2847 0 
L 2847 2094 
Q 2847 2600 2669 2842 
Q 2491 3084 2119 3084 
Q 1678 3084 1418 2786 
Q 1159 2488 1159 1978 
L 1159 0 
L 581 0 
L 581 3500 
L 1159 3500 
L 1159 2956 
Q 1356 3278 1631 3431 
Q 1906 3584 2284 3584 
Q 2666 3584 2933 3390 
Q 3200 3197 3328 2828 
z
" transform="scale(0.015625)"/>
       <path id="DejaVuSans-20" transform="scale(0.015625)"/>
       <path id="DejaVuSans-4c" d="M 628 4666 
L 1259 4666 
L 1259 531 
L 3531 531 
L 3531 0 
L 628 0 
L 628 4666 
z
" transform="scale(0.015625)"/>
       <path id="DejaVuSans-4f" d="M 2522 4238 
Q 1834 4238 1429 3725 
Q 1025 3213 1025 2328 
Q 1025 1447 1429 934 
Q 1834 422 2522 422 
Q 3209 422 3611 934 
Q 4013 1447 4013 2328 
Q 4013 3213 3611 3725 
Q 3209 4238 2522 4238 
z
M 2522 4750 
Q 3503 4750 4090 4092 
Q 4678 3434 4678 2328 
Q 4678 1225 4090 567 
Q 3503 -91 2522 -91 
Q 1538 -91 948 565 
Q 359 1222 359 2328 
Q 359 3434 948 4092 
Q 1538 4750 2522 4750 
z
" transform="scale(0.015625)"/>
       <path id="DejaVuSans-35" d="M 691 4666 
L 3169 4666 
L 3169 4134 
L 1269 4134 
L 1269 2991 
Q 1406 3038 1543 3061 
Q 1681 3084 1819 3084 
Q 2600 3084 3056 2656 
Q 3513 2228 3513 1497 
Q 3513 744 3044 326 
Q 2575 -91 1722 -91 
Q 1428 -91 1123 -41 
Q 819 9 494 109 
L 494 744 
Q 775 591 1075 516 
Q 1375 441 1709 441 
Q 2250 441 2565 725 
Q 2881 1009 2881 1497 
Q 2881 1984 2565 2268 
Q 2250 2553 1709 2553 
Q 1456 2553 1204 2497 
Q 953 2441 691 2322 
L 691 4666 
z
" transform="scale(0.015625)"/>
       <path id="DejaVuSans-50" d="M 1259 4147 
L 1259 2394 
L 2053 2394 
Q 2494 2394 2734 2622 
Q 2975 2850 2975 3272 
Q 2975 3691 2734 3919 
Q 2494 4147 2053 4147 
L 1259 4147 
z
M 628 4666 
L 2053 4666 
Q 2838 4666 3239 4311 
Q 3641 3956 3641 3272 
Q 3641 2581 3239 2228 
Q 2838 1875 2053 1875 
L 1259 1875 
L 1259 0 
L 628 0 
L 628 4666 
z
" transform="scale(0.015625)"/>
      </defs>
      <use xlink:href="#DejaVuSans-53"/>
      <use xlink:href="#DejaVuSans-69" transform="translate(63.476562 0)"/>
      <use xlink:href="#DejaVuSans-6d" transform="translate(91.259766 0)"/>
      <use xlink:href="#DejaVuSans-20" transform="translate(188.671875 0)"/>
      <use xlink:href="#DejaVuSans-4c" transform="translate(220.458984 0)"/>
      <use xlink:href="#DejaVuSans-4f" transform="translate(272.546875 0)"/>
      <use xlink:href="#DejaVuSans-53" transform="translate(351.257812 0)"/>
      <use xlink:href="#DejaVuSans-35" transform="translate(414.734375 0)"/>
      <use xlink:href="#DejaVuSans-30" transform="translate(478.357422 0)"/>
      <use xlink:href="#DejaVuSans-50" transform="translate(541.980469 0)"/>
      <use xlink:href="#DejaVuSans-4f" transform="translate(602.283203 0)"/>
     </g>
    </g>
    <g id="line2d_14">
     <path d="M 287.211236 106.976562 
L 307.211236 106.976562 
" style="fill: none; stroke-dasharray: 3.7,1.6; stroke-dashoffset: 0; stroke: #1f77b4"/>
    </g>
    <g id="line2d_15">
     <g>
      <use xlink:href="#m3265437dc9" x="297.211236" y="106.976562" style="fill: #1f77b4; stroke: #000000; stroke-linejoin: miter"/>
     </g>
    </g>
    <g id="text_13">
     <!-- LOS50PO (n=12) -->
     <g transform="translate(315.211236 110.476562) scale(0.1 -0.1)">
      <defs>
       <path id="DejaVuSans-28" d="M 1984 4856 
Q 1566 4138 1362 3434 
Q 1159 2731 1159 2009 
Q 1159 1288 1364 580 
Q 1569 -128 1984 -844 
L 1484 -844 
Q 1016 -109 783 600 
Q 550 1309 550 2009 
Q 550 2706 781 3412 
Q 1013 4119 1484 4856 
L 1984 4856 
z
" transform="scale(0.015625)"/>
       <path id="DejaVuSans-6e" d="M 3513 2113 
L 3513 0 
L 2938 0 
L 2938 2094 
Q 2938 2591 2744 2837 
Q 2550 3084 2163 3084 
Q 1697 3084 1428 2787 
Q 1159 2491 1159 1978 
L 1159 0 
L 581 0 
L 581 3500 
L 1159 3500 
L 1159 2956 
Q 1366 3272 1645 3428 
Q 1925 3584 2291 3584 
Q 2894 3584 3203 3211 
Q 3513 2838 3513 2113 
z
" transform="scale(0.015625)"/>
       <path id="DejaVuSans-3d" d="M 678 2906 
L 4684 2906 
L 4684 2381 
L 678 2381 
L 678 2906 
z
M 678 1631 
L 4684 1631 
L 4684 1100 
L 678 1100 
L 678 1631 
z
" transform="scale(0.015625)"/>
       <path id="DejaVuSans-29" d="M 513 4856 
L 1013 4856 
Q 1481 4119 1714 3412 
Q 1947 2706 1947 2009 
Q 1947 1309 1714 600 
Q 1481 -109 1013 -844 
L 513 -844 
Q 928 -128 1133 580 
Q 1338 1288 1338 2009 
Q 1338 2731 1133 3434 
Q 928 4138 513 4856 
z
" transform="scale(0.015625)"/>
      </defs>
      <use xlink:href="#DejaVuSans-4c"/>
      <use xlink:href="#DejaVuSans-4f" transform="translate(52.087891 0)"/>
      <use xlink:href="#DejaVuSans-53" transform="translate(130.798828 0)"/>
      <use xlink:href="#DejaVuSans-35" transform="translate(194.275391 0)"/>
      <use xlink:href="#DejaVuSans-30" transform="translate(257.898438 0)"/>
      <use xlink:href="#DejaVuSans-50" transform="translate(321.521484 0)"/>
      <use xlink:href="#DejaVuSans-4f" transform="translate(381.824219 0)"/>
      <use xlink:href="#DejaVuSans-20" transform="translate(460.535156 0)"/>
      <use xlink:href="#DejaVuSans-28" transform="translate(492.322266 0)"/>
      <use xlink:href="#DejaVuSans-6e" transform="translate(531.335938 0)"/>
      <use xlink:href="#DejaVuSans-3d" transform="translate(594.714844 0)"/>
      <use xlink:href="#DejaVuSans-31" transform="translate(678.503906 0)"/>
      <use xlink:href="#DejaVuSans-32" transform="translate(742.126953 0)"/>
      <use xlink:href="#DejaVuSans-29" transform="translate(805.75 0)"/>
     </g>
    </g>
   </g>
  </g>
  <g id="axes_2">
   <g id="patch_8">
    <path d="M 510.586576 320.243478 
L 850.23875 320.243478 
L 850.23875 79.2 
L 510.586576 79.2 
z
" style="fill: #ffffff"/>
   </g>
   <g id="matplotlib.axis_3">
    <g id="xtick_5">
     <g id="line2d_16">
      <g>
       <use xlink:href="#me0a13bedf1" x="528.946153" y="320.243478" style="stroke: #000000; stroke-width: 0.8"/>
      </g>
     </g>
     <g id="text_14">
      <!-- 0 -->
      <g transform="translate(524.174278 338.641135) scale(0.15 -0.15)">
       <use xlink:href="#DejaVuSans-30"/>
      </g>
     </g>
    </g>
    <g id="xtick_6">
     <g id="line2d_17">
      <g>
       <use xlink:href="#me0a13bedf1" x="620.744038" y="320.243478" style="stroke: #000000; stroke-width: 0.8"/>
      </g>
     </g>
     <g id="text_15">
      <!-- 10 -->
      <g transform="translate(611.200288 338.641135) scale(0.15 -0.15)">
       <use xlink:href="#DejaVuSans-31"/>
       <use xlink:href="#DejaVuSans-30" transform="translate(63.623047 0)"/>
      </g>
     </g>
    </g>
    <g id="xtick_7">
     <g id="line2d_18">
      <g>
       <use xlink:href="#me0a13bedf1" x="712.541923" y="320.243478" style="stroke: #000000; stroke-width: 0.8"/>
      </g>
     </g>
     <g id="text_16">
      <!-- 20 -->
      <g transform="translate(702.998173 338.641135) scale(0.15 -0.15)">
       <use xlink:href="#DejaVuSans-32"/>
       <use xlink:href="#DejaVuSans-30" transform="translate(63.623047 0)"/>
      </g>
     </g>
    </g>
    <g id="xtick_8">
     <g id="line2d_19">
      <g>
       <use xlink:href="#me0a13bedf1" x="804.339808" y="320.243478" style="stroke: #000000; stroke-width: 0.8"/>
      </g>
     </g>
     <g id="text_17">
      <!-- 30 -->
      <g transform="translate(794.796058 338.641135) scale(0.15 -0.15)">
       <use xlink:href="#DejaVuSans-33"/>
       <use xlink:href="#DejaVuSans-30" transform="translate(63.623047 0)"/>
      </g>
     </g>
    </g>
    <g id="text_18">
     <!-- Time [hr] -->
     <g transform="translate(633.500163 359.437853) scale(0.18 -0.18)">
      <use xlink:href="#DejaVuSans-Bold-54"/>
      <use xlink:href="#DejaVuSans-Bold-69" transform="translate(68.212891 0)"/>
      <use xlink:href="#DejaVuSans-Bold-6d" transform="translate(102.490234 0)"/>
      <use xlink:href="#DejaVuSans-Bold-65" transform="translate(206.689453 0)"/>
      <use xlink:href="#DejaVuSans-Bold-20" transform="translate(274.511719 0)"/>
      <use xlink:href="#DejaVuSans-Bold-5b" transform="translate(309.326172 0)"/>
      <use xlink:href="#DejaVuSans-Bold-68" transform="translate(355.029297 0)"/>
      <use xlink:href="#DejaVuSans-Bold-72" transform="translate(426.220703 0)"/>
      <use xlink:href="#DejaVuSans-Bold-5d" transform="translate(475.537109 0)"/>
     </g>
    </g>
   </g>
   <g id="matplotlib.axis_4">
    <g id="ytick_6">
     <g id="line2d_20">
      <g>
       <use xlink:href="#md45321602c" x="510.586576" y="309.286957" style="stroke: #000000; stroke-width: 0.8"/>
      </g>
     </g>
     <g id="text_19">
      <!-- 0 -->
      <g transform="translate(494.042826 314.985785) scale(0.15 -0.15)">
       <use xlink:href="#DejaVuSans-30"/>
      </g>
     </g>
    </g>
    <g id="ytick_7">
     <g id="line2d_21">
      <g>
       <use xlink:href="#md45321602c" x="510.586576" y="264.036323" style="stroke: #000000; stroke-width: 0.8"/>
      </g>
     </g>
     <g id="text_20">
      <!-- 100 -->
      <g transform="translate(474.955326 269.735151) scale(0.15 -0.15)">
       <use xlink:href="#DejaVuSans-31"/>
       <use xlink:href="#DejaVuSans-30" transform="translate(63.623047 0)"/>
       <use xlink:href="#DejaVuSans-30" transform="translate(127.246094 0)"/>
      </g>
     </g>
    </g>
    <g id="ytick_8">
     <g id="line2d_22">
      <g>
       <use xlink:href="#md45321602c" x="510.586576" y="218.78569" style="stroke: #000000; stroke-width: 0.8"/>
      </g>
     </g>
     <g id="text_21">
      <!-- 200 -->
      <g transform="translate(474.955326 224.484518) scale(0.15 -0.15)">
       <use xlink:href="#DejaVuSans-32"/>
       <use xlink:href="#DejaVuSans-30" transform="translate(63.623047 0)"/>
       <use xlink:href="#DejaVuSans-30" transform="translate(127.246094 0)"/>
      </g>
     </g>
    </g>
    <g id="ytick_9">
     <g id="line2d_23">
      <g>
       <use xlink:href="#md45321602c" x="510.586576" y="173.535057" style="stroke: #000000; stroke-width: 0.8"/>
      </g>
     </g>
     <g id="text_22">
      <!-- 300 -->
      <g transform="translate(474.955326 179.233885) scale(0.15 -0.15)">
       <use xlink:href="#DejaVuSans-33"/>
       <use xlink:href="#DejaVuSans-30" transform="translate(63.623047 0)"/>
       <use xlink:href="#DejaVuSans-30" transform="translate(127.246094 0)"/>
      </g>
     </g>
    </g>
    <g id="ytick_10">
     <g id="line2d_24">
      <g>
       <use xlink:href="#md45321602c" x="510.586576" y="128.284423" style="stroke: #000000; stroke-width: 0.8"/>
      </g>
     </g>
     <g id="text_23">
      <!-- 400 -->
      <g transform="translate(474.955326 133.983251) scale(0.15 -0.15)">
       <use xlink:href="#DejaVuSans-34"/>
       <use xlink:href="#DejaVuSans-30" transform="translate(63.623047 0)"/>
       <use xlink:href="#DejaVuSans-30" transform="translate(127.246094 0)"/>
      </g>
     </g>
    </g>
    <g id="ytick_11">
     <g id="line2d_25">
      <g>
       <use xlink:href="#md45321602c" x="510.586576" y="83.03379" style="stroke: #000000; stroke-width: 0.8"/>
      </g>
     </g>
     <g id="text_24">
      <!-- 500 -->
      <g transform="translate(474.955326 88.732618) scale(0.15 -0.15)">
       <use xlink:href="#DejaVuSans-35"/>
       <use xlink:href="#DejaVuSans-30" transform="translate(63.623047 0)"/>
       <use xlink:href="#DejaVuSans-30" transform="translate(127.246094 0)"/>
      </g>
     </g>
    </g>
    <g id="text_25">
     <!-- E3174 [nM] -->
     <g transform="translate(467.211889 257.640958) rotate(-90) scale(0.18 -0.18)">
      <defs>
       <path id="DejaVuSans-Bold-45" d="M 588 4666 
L 3834 4666 
L 3834 3756 
L 1791 3756 
L 1791 2888 
L 3713 2888 
L 3713 1978 
L 1791 1978 
L 1791 909 
L 3903 909 
L 3903 0 
L 588 0 
L 588 4666 
z
" transform="scale(0.015625)"/>
       <path id="DejaVuSans-Bold-33" d="M 2981 2516 
Q 3453 2394 3698 2092 
Q 3944 1791 3944 1325 
Q 3944 631 3412 270 
Q 2881 -91 1863 -91 
Q 1503 -91 1142 -33 
Q 781 25 428 141 
L 428 1069 
Q 766 900 1098 814 
Q 1431 728 1753 728 
Q 2231 728 2486 893 
Q 2741 1059 2741 1369 
Q 2741 1688 2480 1852 
Q 2219 2016 1709 2016 
L 1228 2016 
L 1228 2791 
L 1734 2791 
Q 2188 2791 2409 2933 
Q 2631 3075 2631 3366 
Q 2631 3634 2415 3781 
Q 2200 3928 1806 3928 
Q 1516 3928 1219 3862 
Q 922 3797 628 3669 
L 628 4550 
Q 984 4650 1334 4700 
Q 1684 4750 2022 4750 
Q 2931 4750 3382 4451 
Q 3834 4153 3834 3553 
Q 3834 3144 3618 2883 
Q 3403 2622 2981 2516 
z
" transform="scale(0.015625)"/>
       <path id="DejaVuSans-Bold-31" d="M 750 831 
L 1813 831 
L 1813 3847 
L 722 3622 
L 722 4441 
L 1806 4666 
L 2950 4666 
L 2950 831 
L 4013 831 
L 4013 0 
L 750 0 
L 750 831 
z
" transform="scale(0.015625)"/>
       <path id="DejaVuSans-Bold-37" d="M 428 4666 
L 3944 4666 
L 3944 3988 
L 2125 0 
L 953 0 
L 2675 3781 
L 428 3781 
L 428 4666 
z
" transform="scale(0.015625)"/>
       <path id="DejaVuSans-Bold-34" d="M 2356 3675 
L 1038 1722 
L 2356 1722 
L 2356 3675 
z
M 2156 4666 
L 3494 4666 
L 3494 1722 
L 4159 1722 
L 4159 850 
L 3494 850 
L 3494 0 
L 2356 0 
L 2356 850 
L 288 850 
L 288 1881 
L 2156 4666 
z
" transform="scale(0.015625)"/>
      </defs>
      <use xlink:href="#DejaVuSans-Bold-45"/>
      <use xlink:href="#DejaVuSans-Bold-33" transform="translate(68.310547 0)"/>
      <use xlink:href="#DejaVuSans-Bold-31" transform="translate(137.890625 0)"/>
      <use xlink:href="#DejaVuSans-Bold-37" transform="translate(207.470703 0)"/>
      <use xlink:href="#DejaVuSans-Bold-34" transform="translate(277.050781 0)"/>
      <use xlink:href="#DejaVuSans-Bold-20" transform="translate(346.630859 0)"/>
      <use xlink:href="#DejaVuSans-Bold-5b" transform="translate(381.445312 0)"/>
      <use xlink:href="#DejaVuSans-Bold-6e" transform="translate(427.148438 0)"/>
      <use xlink:href="#DejaVuSans-Bold-4d" transform="translate(498.339844 0)"/>
      <use xlink:href="#DejaVuSans-Bold-5d" transform="translate(597.851562 0)"/>
     </g>
    </g>
   </g>
   <g id="line2d_26">
    <path d="M 528.946153 309.286957 
L 530.782111 308.798154 
L 532.618068 303.396438 
L 534.454026 289.029422 
L 536.289984 266.553439 
L 541.797857 184.114495 
L 543.633815 160.480019 
L 545.469772 140.911535 
L 547.30573 125.63027 
L 549.141688 114.456177 
L 550.977645 106.982256 
L 552.813603 102.69864 
L 554.649561 101.073488 
L 556.485519 101.601027 
L 558.321476 103.826636 
L 560.157434 107.356993 
L 561.993392 111.861153 
L 563.829349 117.066593 
L 567.501265 128.744103 
L 576.681053 159.417014 
L 580.352969 170.884862 
L 584.024884 181.569664 
L 587.696799 191.41885 
L 591.368715 200.437009 
L 595.04063 208.660099 
L 598.712546 216.139824 
L 602.384461 222.934369 
L 606.056376 229.103055 
L 609.728292 234.703371 
L 613.400207 239.789444 
L 617.072123 244.411335 
L 620.744038 248.614838 
L 624.415953 252.441544 
L 628.087869 255.929048 
L 631.759784 259.111234 
L 635.431699 262.018578 
L 639.103615 264.678457 
L 642.77553 267.115443 
L 646.447446 269.351583 
L 651.955319 272.371891 
L 657.463192 275.042643 
L 662.971065 277.413386 
L 668.478938 279.526204 
L 673.986811 281.41686 
L 679.494684 283.115757 
L 686.838515 285.126797 
L 694.182346 286.89341 
L 701.526177 288.456751 
L 710.705965 290.175196 
L 719.885754 291.679167 
L 730.9015 293.256228 
L 743.753204 294.846551 
L 758.440865 296.407069 
L 774.964484 297.908847 
L 793.324061 299.332933 
L 813.519596 300.66654 
L 835.551088 301.900475 
L 858.43875 302.985297 
L 858.43875 302.985297 
" clip-path="url(#pcc007e5984)" style="fill: none; stroke: #1f77b4; stroke-width: 2; stroke-linecap: square"/>
   </g>
   <g id="line2d_27">
    <path d="M 528.946153 309.286957 
L 535.831144 298.898597 
L 538.095167 279.075582 
L 540.255092 257.095201 
L 542.586794 230.027846 
L 544.774113 204.026216 
L 547.284036 177.2013 
L 556.42843 115.749551 
L 565.758028 90.156522 
L 574.79564 113.575012 
L 583.989988 131.764352 
L 593.187559 153.168938 
L 602.552608 183.514882 
L 620.805516 225.958195 
L 639.37297 252.927079 
L 694.272853 289.955296 
L 749.437866 298.408528 
L 804.464942 304.254742 
" clip-path="url(#pcc007e5984)" style="fill: none; stroke-dasharray: 3.7,1.6; stroke-dashoffset: 0; stroke: #1f77b4"/>
    <g clip-path="url(#pcc007e5984)">
     <use xlink:href="#m3265437dc9" x="528.946153" y="309.286957" style="fill: #1f77b4; stroke: #000000; stroke-linejoin: miter"/>
     <use xlink:href="#m3265437dc9" x="535.831144" y="298.898597" style="fill: #1f77b4; stroke: #000000; stroke-linejoin: miter"/>
     <use xlink:href="#m3265437dc9" x="538.095167" y="279.075582" style="fill: #1f77b4; stroke: #000000; stroke-linejoin: miter"/>
     <use xlink:href="#m3265437dc9" x="540.255092" y="257.095201" style="fill: #1f77b4; stroke: #000000; stroke-linejoin: miter"/>
     <use xlink:href="#m3265437dc9" x="542.586794" y="230.027846" style="fill: #1f77b4; stroke: #000000; stroke-linejoin: miter"/>
     <use xlink:href="#m3265437dc9" x="544.774113" y="204.026216" style="fill: #1f77b4; stroke: #000000; stroke-linejoin: miter"/>
     <use xlink:href="#m3265437dc9" x="547.284036" y="177.2013" style="fill: #1f77b4; stroke: #000000; stroke-linejoin: miter"/>
     <use xlink:href="#m3265437dc9" x="556.42843" y="115.749551" style="fill: #1f77b4; stroke: #000000; stroke-linejoin: miter"/>
     <use xlink:href="#m3265437dc9" x="565.758028" y="90.156522" style="fill: #1f77b4; stroke: #000000; stroke-linejoin: miter"/>
     <use xlink:href="#m3265437dc9" x="574.79564" y="113.575012" style="fill: #1f77b4; stroke: #000000; stroke-linejoin: miter"/>
     <use xlink:href="#m3265437dc9" x="583.989988" y="131.764352" style="fill: #1f77b4; stroke: #000000; stroke-linejoin: miter"/>
     <use xlink:href="#m3265437dc9" x="593.187559" y="153.168938" style="fill: #1f77b4; stroke: #000000; stroke-linejoin: miter"/>
     <use xlink:href="#m3265437dc9" x="602.552608" y="183.514882" style="fill: #1f77b4; stroke: #000000; stroke-linejoin: miter"/>
     <use xlink:href="#m3265437dc9" x="620.805516" y="225.958195" style="fill: #1f77b4; stroke: #000000; stroke-linejoin: miter"/>
     <use xlink:href="#m3265437dc9" x="639.37297" y="252.927079" style="fill: #1f77b4; stroke: #000000; stroke-linejoin: miter"/>
     <use xlink:href="#m3265437dc9" x="694.272853" y="289.955296" style="fill: #1f77b4; stroke: #000000; stroke-linejoin: miter"/>
     <use xlink:href="#m3265437dc9" x="749.437866" y="298.408528" style="fill: #1f77b4; stroke: #000000; stroke-linejoin: miter"/>
     <use xlink:href="#m3265437dc9" x="804.464942" y="304.254742" style="fill: #1f77b4; stroke: #000000; stroke-linejoin: miter"/>
    </g>
   </g>
   <g id="patch_9">
    <path d="M 510.586576 320.243478 
L 510.586576 79.2 
" style="fill: none; stroke: #000000; stroke-width: 0.8; stroke-linejoin: miter; stroke-linecap: square"/>
   </g>
   <g id="patch_10">
    <path d="M 850.23875 320.243478 
L 850.23875 79.2 
" style="fill: none; stroke: #000000; stroke-width: 0.8; stroke-linejoin: miter; stroke-linecap: square"/>
   </g>
   <g id="patch_11">
    <path d="M 510.586576 320.243478 
L 850.23875 320.243478 
" style="fill: none; stroke: #000000; stroke-width: 0.8; stroke-linejoin: miter; stroke-linecap: square"/>
   </g>
   <g id="patch_12">
    <path d="M 510.586576 79.2 
L 850.23875 79.2 
" style="fill: none; stroke: #000000; stroke-width: 0.8; stroke-linejoin: miter; stroke-linecap: square"/>
   </g>
   <g id="legend_2">
    <g id="patch_13">
     <path d="M 726.759063 116.55625 
L 843.23875 116.55625 
Q 845.23875 116.55625 845.23875 114.55625 
L 845.23875 86.2 
Q 845.23875 84.2 843.23875 84.2 
L 726.759063 84.2 
Q 724.759063 84.2 724.759063 86.2 
L 724.759063 114.55625 
Q 724.759063 116.55625 726.759063 116.55625 
z
" style="fill: #ffffff; opacity: 0.8; stroke: #cccccc; stroke-linejoin: miter"/>
    </g>
    <g id="line2d_28">
     <path d="M 728.759063 92.298437 
L 748.759063 92.298437 
" style="fill: none; stroke: #1f77b4; stroke-width: 2; stroke-linecap: square"/>
    </g>
    <g id="line2d_29"/>
    <g id="text_26">
     <!-- Sim LOS50PO -->
     <g transform="translate(756.759063 95.798437) scale(0.1 -0.1)">
      <use xlink:href="#DejaVuSans-53"/>
      <use xlink:href="#DejaVuSans-69" transform="translate(63.476562 0)"/>
      <use xlink:href="#DejaVuSans-6d" transform="translate(91.259766 0)"/>
      <use xlink:href="#DejaVuSans-20" transform="translate(188.671875 0)"/>
      <use xlink:href="#DejaVuSans-4c" transform="translate(220.458984 0)"/>
      <use xlink:href="#DejaVuSans-4f" transform="translate(272.546875 0)"/>
      <use xlink:href="#DejaVuSans-53" transform="translate(351.257812 0)"/>
      <use xlink:href="#DejaVuSans-35" transform="translate(414.734375 0)"/>
      <use xlink:href="#DejaVuSans-30" transform="translate(478.357422 0)"/>
      <use xlink:href="#DejaVuSans-50" transform="translate(541.980469 0)"/>
      <use xlink:href="#DejaVuSans-4f" transform="translate(602.283203 0)"/>
     </g>
    </g>
    <g id="line2d_30">
     <path d="M 728.759063 106.976562 
L 748.759063 106.976562 
" style="fill: none; stroke-dasharray: 3.7,1.6; stroke-dashoffset: 0; stroke: #1f77b4"/>
    </g>
    <g id="line2d_31">
     <g>
      <use xlink:href="#m3265437dc9" x="738.759063" y="106.976562" style="fill: #1f77b4; stroke: #000000; stroke-linejoin: miter"/>
     </g>
    </g>
    <g id="text_27">
     <!-- LOS50PO (n=12) -->
     <g transform="translate(756.759063 110.476562) scale(0.1 -0.1)">
      <use xlink:href="#DejaVuSans-4c"/>
      <use xlink:href="#DejaVuSans-4f" transform="translate(52.087891 0)"/>
      <use xlink:href="#DejaVuSans-53" transform="translate(130.798828 0)"/>
      <use xlink:href="#DejaVuSans-35" transform="translate(194.275391 0)"/>
      <use xlink:href="#DejaVuSans-30" transform="translate(257.898438 0)"/>
      <use xlink:href="#DejaVuSans-50" transform="translate(321.521484 0)"/>
      <use xlink:href="#DejaVuSans-4f" transform="translate(381.824219 0)"/>
      <use xlink:href="#DejaVuSans-20" transform="translate(460.535156 0)"/>
      <use xlink:href="#DejaVuSans-28" transform="translate(492.322266 0)"/>
      <use xlink:href="#DejaVuSans-6e" transform="translate(531.335938 0)"/>
      <use xlink:href="#DejaVuSans-3d" transform="translate(594.714844 0)"/>
      <use xlink:href="#DejaVuSans-31" transform="translate(678.503906 0)"/>
      <use xlink:href="#DejaVuSans-32" transform="translate(742.126953 0)"/>
      <use xlink:href="#DejaVuSans-29" transform="translate(805.75 0)"/>
     </g>
    </g>
   </g>
  </g>
  <g id="axes_3">
   <g id="patch_14">
    <path d="M 69.03875 633.6 
L 408.690924 633.6 
L 408.690924 392.556522 
L 69.03875 392.556522 
z
" style="fill: #ffffff"/>
   </g>
   <g id="matplotlib.axis_5">
    <g id="xtick_9">
     <g id="line2d_32">
      <g>
       <use xlink:href="#me0a13bedf1" x="84.477485" y="633.6" style="stroke: #000000; stroke-width: 0.8"/>
      </g>
     </g>
     <g id="text_28">
      <!-- 0 -->
      <g transform="translate(79.70561 651.997656) scale(0.15 -0.15)">
       <use xlink:href="#DejaVuSans-30"/>
      </g>
     </g>
    </g>
    <g id="xtick_10">
     <g id="line2d_33">
      <g>
       <use xlink:href="#me0a13bedf1" x="146.232426" y="633.6" style="stroke: #000000; stroke-width: 0.8"/>
      </g>
     </g>
     <g id="text_29">
      <!-- 20 -->
      <g transform="translate(136.688676 651.997656) scale(0.15 -0.15)">
       <use xlink:href="#DejaVuSans-32"/>
       <use xlink:href="#DejaVuSans-30" transform="translate(63.623047 0)"/>
      </g>
     </g>
    </g>
    <g id="xtick_11">
     <g id="line2d_34">
      <g>
       <use xlink:href="#me0a13bedf1" x="207.987367" y="633.6" style="stroke: #000000; stroke-width: 0.8"/>
      </g>
     </g>
     <g id="text_30">
      <!-- 40 -->
      <g transform="translate(198.443617 651.997656) scale(0.15 -0.15)">
       <use xlink:href="#DejaVuSans-34"/>
       <use xlink:href="#DejaVuSans-30" transform="translate(63.623047 0)"/>
      </g>
     </g>
    </g>
    <g id="xtick_12">
     <g id="line2d_35">
      <g>
       <use xlink:href="#me0a13bedf1" x="269.742307" y="633.6" style="stroke: #000000; stroke-width: 0.8"/>
      </g>
     </g>
     <g id="text_31">
      <!-- 60 -->
      <g transform="translate(260.198557 651.997656) scale(0.15 -0.15)">
       <defs>
        <path id="DejaVuSans-36" d="M 2113 2584 
Q 1688 2584 1439 2293 
Q 1191 2003 1191 1497 
Q 1191 994 1439 701 
Q 1688 409 2113 409 
Q 2538 409 2786 701 
Q 3034 994 3034 1497 
Q 3034 2003 2786 2293 
Q 2538 2584 2113 2584 
z
M 3366 4563 
L 3366 3988 
Q 3128 4100 2886 4159 
Q 2644 4219 2406 4219 
Q 1781 4219 1451 3797 
Q 1122 3375 1075 2522 
Q 1259 2794 1537 2939 
Q 1816 3084 2150 3084 
Q 2853 3084 3261 2657 
Q 3669 2231 3669 1497 
Q 3669 778 3244 343 
Q 2819 -91 2113 -91 
Q 1303 -91 875 529 
Q 447 1150 447 2328 
Q 447 3434 972 4092 
Q 1497 4750 2381 4750 
Q 2619 4750 2861 4703 
Q 3103 4656 3366 4563 
z
" transform="scale(0.015625)"/>
       </defs>
       <use xlink:href="#DejaVuSans-36"/>
       <use xlink:href="#DejaVuSans-30" transform="translate(63.623047 0)"/>
      </g>
     </g>
    </g>
    <g id="xtick_13">
     <g id="line2d_36">
      <g>
       <use xlink:href="#me0a13bedf1" x="331.497248" y="633.6" style="stroke: #000000; stroke-width: 0.8"/>
      </g>
     </g>
     <g id="text_32">
      <!-- 80 -->
      <g transform="translate(321.953498 651.997656) scale(0.15 -0.15)">
       <defs>
        <path id="DejaVuSans-38" d="M 2034 2216 
Q 1584 2216 1326 1975 
Q 1069 1734 1069 1313 
Q 1069 891 1326 650 
Q 1584 409 2034 409 
Q 2484 409 2743 651 
Q 3003 894 3003 1313 
Q 3003 1734 2745 1975 
Q 2488 2216 2034 2216 
z
M 1403 2484 
Q 997 2584 770 2862 
Q 544 3141 544 3541 
Q 544 4100 942 4425 
Q 1341 4750 2034 4750 
Q 2731 4750 3128 4425 
Q 3525 4100 3525 3541 
Q 3525 3141 3298 2862 
Q 3072 2584 2669 2484 
Q 3125 2378 3379 2068 
Q 3634 1759 3634 1313 
Q 3634 634 3220 271 
Q 2806 -91 2034 -91 
Q 1263 -91 848 271 
Q 434 634 434 1313 
Q 434 1759 690 2068 
Q 947 2378 1403 2484 
z
M 1172 3481 
Q 1172 3119 1398 2916 
Q 1625 2713 2034 2713 
Q 2441 2713 2670 2916 
Q 2900 3119 2900 3481 
Q 2900 3844 2670 4047 
Q 2441 4250 2034 4250 
Q 1625 4250 1398 4047 
Q 1172 3844 1172 3481 
z
" transform="scale(0.015625)"/>
       </defs>
       <use xlink:href="#DejaVuSans-38"/>
       <use xlink:href="#DejaVuSans-30" transform="translate(63.623047 0)"/>
      </g>
     </g>
    </g>
    <g id="xtick_14">
     <g id="line2d_37">
      <g>
       <use xlink:href="#me0a13bedf1" x="393.252189" y="633.6" style="stroke: #000000; stroke-width: 0.8"/>
      </g>
     </g>
     <g id="text_33">
      <!-- 100 -->
      <g transform="translate(378.936564 651.997656) scale(0.15 -0.15)">
       <use xlink:href="#DejaVuSans-31"/>
       <use xlink:href="#DejaVuSans-30" transform="translate(63.623047 0)"/>
       <use xlink:href="#DejaVuSans-30" transform="translate(127.246094 0)"/>
      </g>
     </g>
    </g>
    <g id="text_34">
     <!-- Time [hr] -->
     <g transform="translate(191.952337 672.794375) scale(0.18 -0.18)">
      <use xlink:href="#DejaVuSans-Bold-54"/>
      <use xlink:href="#DejaVuSans-Bold-69" transform="translate(68.212891 0)"/>
      <use xlink:href="#DejaVuSans-Bold-6d" transform="translate(102.490234 0)"/>
      <use xlink:href="#DejaVuSans-Bold-65" transform="translate(206.689453 0)"/>
      <use xlink:href="#DejaVuSans-Bold-20" transform="translate(274.511719 0)"/>
      <use xlink:href="#DejaVuSans-Bold-5b" transform="translate(309.326172 0)"/>
      <use xlink:href="#DejaVuSans-Bold-68" transform="translate(355.029297 0)"/>
      <use xlink:href="#DejaVuSans-Bold-72" transform="translate(426.220703 0)"/>
      <use xlink:href="#DejaVuSans-Bold-5d" transform="translate(475.537109 0)"/>
     </g>
    </g>
   </g>
   <g id="matplotlib.axis_6">
    <g id="ytick_12">
     <g id="line2d_38">
      <g>
       <use xlink:href="#md45321602c" x="69.03875" y="622.643478" style="stroke: #000000; stroke-width: 0.8"/>
      </g>
     </g>
     <g id="text_35">
      <!-- 0.0 -->
      <g transform="translate(38.184063 628.342306) scale(0.15 -0.15)">
       <defs>
        <path id="DejaVuSans-2e" d="M 684 794 
L 1344 794 
L 1344 0 
L 684 0 
L 684 794 
z
" transform="scale(0.015625)"/>
       </defs>
       <use xlink:href="#DejaVuSans-30"/>
       <use xlink:href="#DejaVuSans-2e" transform="translate(63.623047 0)"/>
       <use xlink:href="#DejaVuSans-30" transform="translate(95.410156 0)"/>
      </g>
     </g>
    </g>
    <g id="ytick_13">
     <g id="line2d_39">
      <g>
       <use xlink:href="#md45321602c" x="69.03875" y="586.042344" style="stroke: #000000; stroke-width: 0.8"/>
      </g>
     </g>
     <g id="text_36">
      <!-- 2.5 -->
      <g transform="translate(38.184063 591.741172) scale(0.15 -0.15)">
       <use xlink:href="#DejaVuSans-32"/>
       <use xlink:href="#DejaVuSans-2e" transform="translate(63.623047 0)"/>
       <use xlink:href="#DejaVuSans-35" transform="translate(95.410156 0)"/>
      </g>
     </g>
    </g>
    <g id="ytick_14">
     <g id="line2d_40">
      <g>
       <use xlink:href="#md45321602c" x="69.03875" y="549.44121" style="stroke: #000000; stroke-width: 0.8"/>
      </g>
     </g>
     <g id="text_37">
      <!-- 5.0 -->
      <g transform="translate(38.184063 555.140038) scale(0.15 -0.15)">
       <use xlink:href="#DejaVuSans-35"/>
       <use xlink:href="#DejaVuSans-2e" transform="translate(63.623047 0)"/>
       <use xlink:href="#DejaVuSans-30" transform="translate(95.410156 0)"/>
      </g>
     </g>
    </g>
    <g id="ytick_15">
     <g id="line2d_41">
      <g>
       <use xlink:href="#md45321602c" x="69.03875" y="512.840076" style="stroke: #000000; stroke-width: 0.8"/>
      </g>
     </g>
     <g id="text_38">
      <!-- 7.5 -->
      <g transform="translate(38.184063 518.538904) scale(0.15 -0.15)">
       <defs>
        <path id="DejaVuSans-37" d="M 525 4666 
L 3525 4666 
L 3525 4397 
L 1831 0 
L 1172 0 
L 2766 4134 
L 525 4134 
L 525 4666 
z
" transform="scale(0.015625)"/>
       </defs>
       <use xlink:href="#DejaVuSans-37"/>
       <use xlink:href="#DejaVuSans-2e" transform="translate(63.623047 0)"/>
       <use xlink:href="#DejaVuSans-35" transform="translate(95.410156 0)"/>
      </g>
     </g>
    </g>
    <g id="ytick_16">
     <g id="line2d_42">
      <g>
       <use xlink:href="#md45321602c" x="69.03875" y="476.238941" style="stroke: #000000; stroke-width: 0.8"/>
      </g>
     </g>
     <g id="text_39">
      <!-- 10.0 -->
      <g transform="translate(28.640313 481.93777) scale(0.15 -0.15)">
       <use xlink:href="#DejaVuSans-31"/>
       <use xlink:href="#DejaVuSans-30" transform="translate(63.623047 0)"/>
       <use xlink:href="#DejaVuSans-2e" transform="translate(127.246094 0)"/>
       <use xlink:href="#DejaVuSans-30" transform="translate(159.033203 0)"/>
      </g>
     </g>
    </g>
    <g id="ytick_17">
     <g id="line2d_43">
      <g>
       <use xlink:href="#md45321602c" x="69.03875" y="439.637807" style="stroke: #000000; stroke-width: 0.8"/>
      </g>
     </g>
     <g id="text_40">
      <!-- 12.5 -->
      <g transform="translate(28.640313 445.336635) scale(0.15 -0.15)">
       <use xlink:href="#DejaVuSans-31"/>
       <use xlink:href="#DejaVuSans-32" transform="translate(63.623047 0)"/>
       <use xlink:href="#DejaVuSans-2e" transform="translate(127.246094 0)"/>
       <use xlink:href="#DejaVuSans-35" transform="translate(159.033203 0)"/>
      </g>
     </g>
    </g>
    <g id="ytick_18">
     <g id="line2d_44">
      <g>
       <use xlink:href="#md45321602c" x="69.03875" y="403.036673" style="stroke: #000000; stroke-width: 0.8"/>
      </g>
     </g>
     <g id="text_41">
      <!-- 15.0 -->
      <g transform="translate(28.640313 408.735501) scale(0.15 -0.15)">
       <use xlink:href="#DejaVuSans-31"/>
       <use xlink:href="#DejaVuSans-35" transform="translate(63.623047 0)"/>
       <use xlink:href="#DejaVuSans-2e" transform="translate(127.246094 0)"/>
       <use xlink:href="#DejaVuSans-30" transform="translate(159.033203 0)"/>
      </g>
     </g>
    </g>
    <g id="text_42">
     <!-- Losartan urine [mole] -->
     <g transform="translate(20.877187 629.954511) rotate(-90) scale(0.18 -0.18)">
      <defs>
       <path id="DejaVuSans-Bold-75" d="M 500 1363 
L 500 3500 
L 1625 3500 
L 1625 3150 
Q 1625 2866 1622 2436 
Q 1619 2006 1619 1863 
Q 1619 1441 1641 1255 
Q 1663 1069 1716 984 
Q 1784 875 1895 815 
Q 2006 756 2150 756 
Q 2500 756 2700 1025 
Q 2900 1294 2900 1772 
L 2900 3500 
L 4019 3500 
L 4019 0 
L 2900 0 
L 2900 506 
Q 2647 200 2364 54 
Q 2081 -91 1741 -91 
Q 1134 -91 817 281 
Q 500 653 500 1363 
z
" transform="scale(0.015625)"/>
       <path id="DejaVuSans-Bold-b5" d="M 544 -1338 
L 544 3500 
L 1672 3500 
L 1672 1466 
Q 1672 1103 1828 926 
Q 1984 750 2303 750 
Q 2625 750 2781 926 
Q 2938 1103 2938 1466 
L 2938 3500 
L 4063 3500 
L 4063 1159 
Q 4063 938 4114 850 
Q 4166 763 4288 763 
Q 4344 763 4395 778 
Q 4447 794 4506 831 
L 4506 50 
Q 4341 -22 4195 -56 
Q 4050 -91 3909 -91 
Q 3631 -91 3454 26 
Q 3278 144 3169 403 
Q 3022 156 2811 32 
Q 2600 -91 2322 -91 
Q 2091 -91 1928 -17 
Q 1766 56 1672 206 
L 1672 -1338 
L 544 -1338 
z
" transform="scale(0.015625)"/>
       <path id="DejaVuSans-Bold-6c" d="M 538 4863 
L 1656 4863 
L 1656 0 
L 538 0 
L 538 4863 
z
" transform="scale(0.015625)"/>
      </defs>
      <use xlink:href="#DejaVuSans-Bold-4c"/>
      <use xlink:href="#DejaVuSans-Bold-6f" transform="translate(63.720703 0)"/>
      <use xlink:href="#DejaVuSans-Bold-73" transform="translate(132.421875 0)"/>
      <use xlink:href="#DejaVuSans-Bold-61" transform="translate(191.943359 0)"/>
      <use xlink:href="#DejaVuSans-Bold-72" transform="translate(259.423828 0)"/>
      <use xlink:href="#DejaVuSans-Bold-74" transform="translate(308.740234 0)"/>
      <use xlink:href="#DejaVuSans-Bold-61" transform="translate(356.542969 0)"/>
      <use xlink:href="#DejaVuSans-Bold-6e" transform="translate(424.023438 0)"/>
      <use xlink:href="#DejaVuSans-Bold-20" transform="translate(495.214844 0)"/>
      <use xlink:href="#DejaVuSans-Bold-75" transform="translate(530.029297 0)"/>
      <use xlink:href="#DejaVuSans-Bold-72" transform="translate(601.220703 0)"/>
      <use xlink:href="#DejaVuSans-Bold-69" transform="translate(650.537109 0)"/>
      <use xlink:href="#DejaVuSans-Bold-6e" transform="translate(684.814453 0)"/>
      <use xlink:href="#DejaVuSans-Bold-65" transform="translate(756.005859 0)"/>
      <use xlink:href="#DejaVuSans-Bold-20" transform="translate(823.828125 0)"/>
      <use xlink:href="#DejaVuSans-Bold-5b" transform="translate(858.642578 0)"/>
      <use xlink:href="#DejaVuSans-Bold-b5" transform="translate(904.345703 0)"/>
      <use xlink:href="#DejaVuSans-Bold-6d" transform="translate(977.929688 0)"/>
      <use xlink:href="#DejaVuSans-Bold-6f" transform="translate(1082.128906 0)"/>
      <use xlink:href="#DejaVuSans-Bold-6c" transform="translate(1150.830078 0)"/>
      <use xlink:href="#DejaVuSans-Bold-65" transform="translate(1185.107422 0)"/>
      <use xlink:href="#DejaVuSans-Bold-5d" transform="translate(1252.929688 0)"/>
     </g>
    </g>
   </g>
   <g id="LineCollection_1">
    <path clip-path="url(#p5446496def)" style="fill: none; stroke: #1f77b4"/>
    <path d="M 232.689343 582.945936 
L 232.689343 528.957278 
" clip-path="url(#p5446496def)" style="fill: none; stroke: #1f77b4"/>
   </g>
   <g id="LineCollection_2">
    <path clip-path="url(#p5446496def)" style="fill: none; stroke: #8c564b"/>
    <path d="M 380.901201 536.896786 
L 380.901201 403.513043 
" clip-path="url(#p5446496def)" style="fill: none; stroke: #8c564b"/>
   </g>
   <g id="line2d_45">
    <path d="M 84.477485 622.643478 
L 85.095035 622.585337 
L 85.712584 622.135311 
L 86.330133 621.157076 
L 87.565232 618.240043 
L 88.800331 615.206484 
L 90.03543 612.733275 
L 91.270529 610.903301 
L 92.505627 609.590656 
L 93.740726 608.644934 
L 94.975825 607.945322 
L 96.828473 607.178688 
L 99.298671 606.437448 
L 103.003967 605.58027 
L 109.179461 604.399437 
L 117.207604 603.094734 
L 125.853295 601.910393 
L 135.734086 600.789001 
L 146.232426 599.820412 
L 157.965865 598.956587 
L 171.551952 598.182873 
L 186.990687 597.527834 
L 205.517169 596.970426 
L 228.366497 596.517745 
L 257.391319 596.176631 
L 298.14958 595.937778 
L 364.227367 595.801058 
L 393.252189 595.779557 
L 393.252189 595.779557 
" clip-path="url(#p5446496def)" style="fill: none; stroke: #1f77b4; stroke-width: 2; stroke-linecap: square"/>
   </g>
   <g id="line2d_46">
    <path d="M 84.477485 622.643478 
L 232.689343 555.951607 
" clip-path="url(#p5446496def)" style="fill: none; stroke-dasharray: 3.7,1.6; stroke-dashoffset: 0; stroke: #1f77b4"/>
    <g clip-path="url(#p5446496def)">
     <use xlink:href="#m3265437dc9" x="84.477485" y="622.643478" style="fill: #1f77b4; stroke: #000000; stroke-linejoin: miter"/>
     <use xlink:href="#m3265437dc9" x="232.689343" y="555.951607" style="fill: #1f77b4; stroke: #000000; stroke-linejoin: miter"/>
    </g>
   </g>
   <g id="line2d_47">
    <path d="M 84.477485 622.643478 
L 85.095035 622.522445 
L 85.712584 621.579151 
L 86.330133 619.496915 
L 87.565232 613.136847 
L 88.800331 606.428908 
L 90.03543 600.993831 
L 91.270529 597.039206 
L 92.505627 594.251247 
L 93.740726 592.269112 
L 94.975825 590.815459 
L 96.210924 589.701338 
L 98.063572 588.41118 
L 100.53377 587.068127 
L 103.621517 585.66817 
L 107.944363 583.946388 
L 113.502307 581.97283 
L 119.677801 580.027688 
L 125.853295 578.308889 
L 132.646339 576.647822 
L 140.056932 575.075274 
L 148.085074 573.614971 
L 156.730766 572.283433 
L 165.994007 571.090293 
L 175.874797 570.038952 
L 186.990687 569.079583 
L 199.341675 568.235979 
L 213.545311 567.491274 
L 230.219145 566.848274 
L 249.980726 566.317711 
L 274.682703 565.890805 
L 306.795272 565.573978 
L 352.493928 565.363094 
L 393.252189 565.284346 
L 393.252189 565.284346 
" clip-path="url(#p5446496def)" style="fill: none; stroke: #8c564b; stroke-width: 2; stroke-linecap: square"/>
   </g>
   <g id="line2d_48">
    <path d="M 84.477485 622.643478 
L 380.901201 470.204915 
" clip-path="url(#p5446496def)" style="fill: none; stroke-dasharray: 3.7,1.6; stroke-dashoffset: 0; stroke: #8c564b"/>
    <defs>
     <path id="me3826330e9" d="M -3 3 
L 3 3 
L 3 -3 
L -3 -3 
z
" style="stroke: #000000; stroke-linejoin: miter"/>
    </defs>
    <g clip-path="url(#p5446496def)">
     <use xlink:href="#me3826330e9" x="84.477485" y="622.643478" style="fill: #8c564b; stroke: #000000; stroke-linejoin: miter"/>
     <use xlink:href="#me3826330e9" x="380.901201" y="470.204915" style="fill: #8c564b; stroke: #000000; stroke-linejoin: miter"/>
    </g>
   </g>
   <g id="patch_15">
    <path d="M 69.03875 633.6 
L 69.03875 392.556522 
" style="fill: none; stroke: #000000; stroke-width: 0.8; stroke-linejoin: miter; stroke-linecap: square"/>
   </g>
   <g id="patch_16">
    <path d="M 408.690924 633.6 
L 408.690924 392.556522 
" style="fill: none; stroke: #000000; stroke-width: 0.8; stroke-linejoin: miter; stroke-linecap: square"/>
   </g>
   <g id="patch_17">
    <path d="M 69.03875 633.6 
L 408.690924 633.6 
" style="fill: none; stroke: #000000; stroke-width: 0.8; stroke-linejoin: miter; stroke-linecap: square"/>
   </g>
   <g id="patch_18">
    <path d="M 69.03875 392.556522 
L 408.690924 392.556522 
" style="fill: none; stroke: #000000; stroke-width: 0.8; stroke-linejoin: miter; stroke-linecap: square"/>
   </g>
   <g id="legend_3">
    <g id="patch_19">
     <path d="M 262.783111 459.269022 
L 401.690924 459.269022 
Q 403.690924 459.269022 403.690924 457.269022 
L 403.690924 399.556522 
Q 403.690924 397.556522 401.690924 397.556522 
L 262.783111 397.556522 
Q 260.783111 397.556522 260.783111 399.556522 
L 260.783111 457.269022 
Q 260.783111 459.269022 262.783111 459.269022 
z
" style="fill: #ffffff; opacity: 0.8; stroke: #cccccc; stroke-linejoin: miter"/>
    </g>
    <g id="line2d_49">
     <path d="M 264.783111 405.654959 
L 284.783111 405.654959 
" style="fill: none; stroke: #1f77b4; stroke-width: 2; stroke-linecap: square"/>
    </g>
    <g id="line2d_50"/>
    <g id="text_43">
     <!-- Sim LOS50PO -->
     <g transform="translate(292.783111 409.154959) scale(0.1 -0.1)">
      <use xlink:href="#DejaVuSans-53"/>
      <use xlink:href="#DejaVuSans-69" transform="translate(63.476562 0)"/>
      <use xlink:href="#DejaVuSans-6d" transform="translate(91.259766 0)"/>
      <use xlink:href="#DejaVuSans-20" transform="translate(188.671875 0)"/>
      <use xlink:href="#DejaVuSans-4c" transform="translate(220.458984 0)"/>
      <use xlink:href="#DejaVuSans-4f" transform="translate(272.546875 0)"/>
      <use xlink:href="#DejaVuSans-53" transform="translate(351.257812 0)"/>
      <use xlink:href="#DejaVuSans-35" transform="translate(414.734375 0)"/>
      <use xlink:href="#DejaVuSans-30" transform="translate(478.357422 0)"/>
      <use xlink:href="#DejaVuSans-50" transform="translate(541.980469 0)"/>
      <use xlink:href="#DejaVuSans-4f" transform="translate(602.283203 0)"/>
     </g>
    </g>
    <g id="LineCollection_3">
     <path d="M 274.783111 425.333084 
L 274.783111 415.333084 
" style="fill: none; stroke: #1f77b4"/>
    </g>
    <g id="line2d_51">
     <path d="M 264.783111 420.333084 
L 284.783111 420.333084 
" style="fill: none; stroke-dasharray: 3.7,1.6; stroke-dashoffset: 0; stroke: #1f77b4"/>
    </g>
    <g id="line2d_52">
     <g>
      <use xlink:href="#m3265437dc9" x="274.783111" y="420.333084" style="fill: #1f77b4; stroke: #000000; stroke-linejoin: miter"/>
     </g>
    </g>
    <g id="text_44">
     <!-- LOS50POSD (n=12) -->
     <g transform="translate(292.783111 423.833084) scale(0.1 -0.1)">
      <defs>
       <path id="DejaVuSans-b1" d="M 2944 4013 
L 2944 2803 
L 4684 2803 
L 4684 2272 
L 2944 2272 
L 2944 1063 
L 2419 1063 
L 2419 2272 
L 678 2272 
L 678 2803 
L 2419 2803 
L 2419 4013 
L 2944 4013 
z
M 678 531 
L 4684 531 
L 4684 0 
L 678 0 
L 678 531 
z
" transform="scale(0.015625)"/>
       <path id="DejaVuSans-44" d="M 1259 4147 
L 1259 519 
L 2022 519 
Q 2988 519 3436 956 
Q 3884 1394 3884 2338 
Q 3884 3275 3436 3711 
Q 2988 4147 2022 4147 
L 1259 4147 
z
M 628 4666 
L 1925 4666 
Q 3281 4666 3915 4102 
Q 4550 3538 4550 2338 
Q 4550 1131 3912 565 
Q 3275 0 1925 0 
L 628 0 
L 628 4666 
z
" transform="scale(0.015625)"/>
      </defs>
      <use xlink:href="#DejaVuSans-4c"/>
      <use xlink:href="#DejaVuSans-4f" transform="translate(52.087891 0)"/>
      <use xlink:href="#DejaVuSans-53" transform="translate(130.798828 0)"/>
      <use xlink:href="#DejaVuSans-35" transform="translate(194.275391 0)"/>
      <use xlink:href="#DejaVuSans-30" transform="translate(257.898438 0)"/>
      <use xlink:href="#DejaVuSans-50" transform="translate(321.521484 0)"/>
      <use xlink:href="#DejaVuSans-4f" transform="translate(381.824219 0)"/>
      <use xlink:href="#DejaVuSans-b1" transform="translate(460.535156 0)"/>
      <use xlink:href="#DejaVuSans-53" transform="translate(544.324219 0)"/>
      <use xlink:href="#DejaVuSans-44" transform="translate(607.800781 0)"/>
      <use xlink:href="#DejaVuSans-20" transform="translate(684.802734 0)"/>
      <use xlink:href="#DejaVuSans-28" transform="translate(716.589844 0)"/>
      <use xlink:href="#DejaVuSans-6e" transform="translate(755.603516 0)"/>
      <use xlink:href="#DejaVuSans-3d" transform="translate(818.982422 0)"/>
      <use xlink:href="#DejaVuSans-31" transform="translate(902.771484 0)"/>
      <use xlink:href="#DejaVuSans-32" transform="translate(966.394531 0)"/>
      <use xlink:href="#DejaVuSans-29" transform="translate(1030.017578 0)"/>
     </g>
    </g>
    <g id="line2d_53">
     <path d="M 264.783111 435.011209 
L 284.783111 435.011209 
" style="fill: none; stroke: #8c564b; stroke-width: 2; stroke-linecap: square"/>
    </g>
    <g id="line2d_54"/>
    <g id="text_45">
     <!-- Sim LOS100PO -->
     <g transform="translate(292.783111 438.511209) scale(0.1 -0.1)">
      <use xlink:href="#DejaVuSans-53"/>
      <use xlink:href="#DejaVuSans-69" transform="translate(63.476562 0)"/>
      <use xlink:href="#DejaVuSans-6d" transform="translate(91.259766 0)"/>
      <use xlink:href="#DejaVuSans-20" transform="translate(188.671875 0)"/>
      <use xlink:href="#DejaVuSans-4c" transform="translate(220.458984 0)"/>
      <use xlink:href="#DejaVuSans-4f" transform="translate(272.546875 0)"/>
      <use xlink:href="#DejaVuSans-53" transform="translate(351.257812 0)"/>
      <use xlink:href="#DejaVuSans-31" transform="translate(414.734375 0)"/>
      <use xlink:href="#DejaVuSans-30" transform="translate(478.357422 0)"/>
      <use xlink:href="#DejaVuSans-30" transform="translate(541.980469 0)"/>
      <use xlink:href="#DejaVuSans-50" transform="translate(605.603516 0)"/>
      <use xlink:href="#DejaVuSans-4f" transform="translate(665.90625 0)"/>
     </g>
    </g>
    <g id="LineCollection_4">
     <path d="M 274.783111 454.689334 
L 274.783111 444.689334 
" style="fill: none; stroke: #8c564b"/>
    </g>
    <g id="line2d_55">
     <path d="M 264.783111 449.689334 
L 284.783111 449.689334 
" style="fill: none; stroke-dasharray: 3.7,1.6; stroke-dashoffset: 0; stroke: #8c564b"/>
    </g>
    <g id="line2d_56">
     <g>
      <use xlink:href="#me3826330e9" x="274.783111" y="449.689334" style="fill: #8c564b; stroke: #000000; stroke-linejoin: miter"/>
     </g>
    </g>
    <g id="text_46">
     <!-- LOS100POSD (n=6) -->
     <g transform="translate(292.783111 453.189334) scale(0.1 -0.1)">
      <use xlink:href="#DejaVuSans-4c"/>
      <use xlink:href="#DejaVuSans-4f" transform="translate(52.087891 0)"/>
      <use xlink:href="#DejaVuSans-53" transform="translate(130.798828 0)"/>
      <use xlink:href="#DejaVuSans-31" transform="translate(194.275391 0)"/>
      <use xlink:href="#DejaVuSans-30" transform="translate(257.898438 0)"/>
      <use xlink:href="#DejaVuSans-30" transform="translate(321.521484 0)"/>
      <use xlink:href="#DejaVuSans-50" transform="translate(385.144531 0)"/>
      <use xlink:href="#DejaVuSans-4f" transform="translate(445.447266 0)"/>
      <use xlink:href="#DejaVuSans-b1" transform="translate(524.158203 0)"/>
      <use xlink:href="#DejaVuSans-53" transform="translate(607.947266 0)"/>
      <use xlink:href="#DejaVuSans-44" transform="translate(671.423828 0)"/>
      <use xlink:href="#DejaVuSans-20" transform="translate(748.425781 0)"/>
      <use xlink:href="#DejaVuSans-28" transform="translate(780.212891 0)"/>
      <use xlink:href="#DejaVuSans-6e" transform="translate(819.226562 0)"/>
      <use xlink:href="#DejaVuSans-3d" transform="translate(882.605469 0)"/>
      <use xlink:href="#DejaVuSans-36" transform="translate(966.394531 0)"/>
      <use xlink:href="#DejaVuSans-29" transform="translate(1030.017578 0)"/>
     </g>
    </g>
   </g>
  </g>
  <g id="axes_4">
   <g id="patch_20">
    <path d="M 510.586576 633.6 
L 850.23875 633.6 
L 850.23875 392.556522 
L 510.586576 392.556522 
z
" style="fill: #ffffff"/>
   </g>
   <g id="matplotlib.axis_7">
    <g id="xtick_15">
     <g id="line2d_57">
      <g>
       <use xlink:href="#me0a13bedf1" x="526.025311" y="633.6" style="stroke: #000000; stroke-width: 0.8"/>
      </g>
     </g>
     <g id="text_47">
      <!-- 0 -->
      <g transform="translate(521.253436 651.997656) scale(0.15 -0.15)">
       <use xlink:href="#DejaVuSans-30"/>
      </g>
     </g>
    </g>
    <g id="xtick_16">
     <g id="line2d_58">
      <g>
       <use xlink:href="#me0a13bedf1" x="587.780252" y="633.6" style="stroke: #000000; stroke-width: 0.8"/>
      </g>
     </g>
     <g id="text_48">
      <!-- 20 -->
      <g transform="translate(578.236502 651.997656) scale(0.15 -0.15)">
       <use xlink:href="#DejaVuSans-32"/>
       <use xlink:href="#DejaVuSans-30" transform="translate(63.623047 0)"/>
      </g>
     </g>
    </g>
    <g id="xtick_17">
     <g id="line2d_59">
      <g>
       <use xlink:href="#me0a13bedf1" x="649.535193" y="633.6" style="stroke: #000000; stroke-width: 0.8"/>
      </g>
     </g>
     <g id="text_49">
      <!-- 40 -->
      <g transform="translate(639.991443 651.997656) scale(0.15 -0.15)">
       <use xlink:href="#DejaVuSans-34"/>
       <use xlink:href="#DejaVuSans-30" transform="translate(63.623047 0)"/>
      </g>
     </g>
    </g>
    <g id="xtick_18">
     <g id="line2d_60">
      <g>
       <use xlink:href="#me0a13bedf1" x="711.290133" y="633.6" style="stroke: #000000; stroke-width: 0.8"/>
      </g>
     </g>
     <g id="text_50">
      <!-- 60 -->
      <g transform="translate(701.746383 651.997656) scale(0.15 -0.15)">
       <use xlink:href="#DejaVuSans-36"/>
       <use xlink:href="#DejaVuSans-30" transform="translate(63.623047 0)"/>
      </g>
     </g>
    </g>
    <g id="xtick_19">
     <g id="line2d_61">
      <g>
       <use xlink:href="#me0a13bedf1" x="773.045074" y="633.6" style="stroke: #000000; stroke-width: 0.8"/>
      </g>
     </g>
     <g id="text_51">
      <!-- 80 -->
      <g transform="translate(763.501324 651.997656) scale(0.15 -0.15)">
       <use xlink:href="#DejaVuSans-38"/>
       <use xlink:href="#DejaVuSans-30" transform="translate(63.623047 0)"/>
      </g>
     </g>
    </g>
    <g id="xtick_20">
     <g id="line2d_62">
      <g>
       <use xlink:href="#me0a13bedf1" x="834.800015" y="633.6" style="stroke: #000000; stroke-width: 0.8"/>
      </g>
     </g>
     <g id="text_52">
      <!-- 100 -->
      <g transform="translate(820.48439 651.997656) scale(0.15 -0.15)">
       <use xlink:href="#DejaVuSans-31"/>
       <use xlink:href="#DejaVuSans-30" transform="translate(63.623047 0)"/>
       <use xlink:href="#DejaVuSans-30" transform="translate(127.246094 0)"/>
      </g>
     </g>
    </g>
    <g id="text_53">
     <!-- Time [hr] -->
     <g transform="translate(633.500163 672.794375) scale(0.18 -0.18)">
      <use xlink:href="#DejaVuSans-Bold-54"/>
      <use xlink:href="#DejaVuSans-Bold-69" transform="translate(68.212891 0)"/>
      <use xlink:href="#DejaVuSans-Bold-6d" transform="translate(102.490234 0)"/>
      <use xlink:href="#DejaVuSans-Bold-65" transform="translate(206.689453 0)"/>
      <use xlink:href="#DejaVuSans-Bold-20" transform="translate(274.511719 0)"/>
      <use xlink:href="#DejaVuSans-Bold-5b" transform="translate(309.326172 0)"/>
      <use xlink:href="#DejaVuSans-Bold-68" transform="translate(355.029297 0)"/>
      <use xlink:href="#DejaVuSans-Bold-72" transform="translate(426.220703 0)"/>
      <use xlink:href="#DejaVuSans-Bold-5d" transform="translate(475.537109 0)"/>
     </g>
    </g>
   </g>
   <g id="matplotlib.axis_8">
    <g id="ytick_19">
     <g id="line2d_63">
      <g>
       <use xlink:href="#md45321602c" x="510.586576" y="622.643478" style="stroke: #000000; stroke-width: 0.8"/>
      </g>
     </g>
     <g id="text_54">
      <!-- 0 -->
      <g transform="translate(494.042826 628.342306) scale(0.15 -0.15)">
       <use xlink:href="#DejaVuSans-30"/>
      </g>
     </g>
    </g>
    <g id="ytick_20">
     <g id="line2d_64">
      <g>
       <use xlink:href="#md45321602c" x="510.586576" y="573.124297" style="stroke: #000000; stroke-width: 0.8"/>
      </g>
     </g>
     <g id="text_55">
      <!-- 5 -->
      <g transform="translate(494.042826 578.823125) scale(0.15 -0.15)">
       <use xlink:href="#DejaVuSans-35"/>
      </g>
     </g>
    </g>
    <g id="ytick_21">
     <g id="line2d_65">
      <g>
       <use xlink:href="#md45321602c" x="510.586576" y="523.605115" style="stroke: #000000; stroke-width: 0.8"/>
      </g>
     </g>
     <g id="text_56">
      <!-- 10 -->
      <g transform="translate(484.499076 529.303943) scale(0.15 -0.15)">
       <use xlink:href="#DejaVuSans-31"/>
       <use xlink:href="#DejaVuSans-30" transform="translate(63.623047 0)"/>
      </g>
     </g>
    </g>
    <g id="ytick_22">
     <g id="line2d_66">
      <g>
       <use xlink:href="#md45321602c" x="510.586576" y="474.085934" style="stroke: #000000; stroke-width: 0.8"/>
      </g>
     </g>
     <g id="text_57">
      <!-- 15 -->
      <g transform="translate(484.499076 479.784762) scale(0.15 -0.15)">
       <use xlink:href="#DejaVuSans-31"/>
       <use xlink:href="#DejaVuSans-35" transform="translate(63.623047 0)"/>
      </g>
     </g>
    </g>
    <g id="ytick_23">
     <g id="line2d_67">
      <g>
       <use xlink:href="#md45321602c" x="510.586576" y="424.566752" style="stroke: #000000; stroke-width: 0.8"/>
      </g>
     </g>
     <g id="text_58">
      <!-- 20 -->
      <g transform="translate(484.499076 430.26558) scale(0.15 -0.15)">
       <use xlink:href="#DejaVuSans-32"/>
       <use xlink:href="#DejaVuSans-30" transform="translate(63.623047 0)"/>
      </g>
     </g>
    </g>
    <g id="text_59">
     <!-- E3174 urine [mole] -->
     <g transform="translate(476.735951 616.58248) rotate(-90) scale(0.18 -0.18)">
      <use xlink:href="#DejaVuSans-Bold-45"/>
      <use xlink:href="#DejaVuSans-Bold-33" transform="translate(68.310547 0)"/>
      <use xlink:href="#DejaVuSans-Bold-31" transform="translate(137.890625 0)"/>
      <use xlink:href="#DejaVuSans-Bold-37" transform="translate(207.470703 0)"/>
      <use xlink:href="#DejaVuSans-Bold-34" transform="translate(277.050781 0)"/>
      <use xlink:href="#DejaVuSans-Bold-20" transform="translate(346.630859 0)"/>
      <use xlink:href="#DejaVuSans-Bold-75" transform="translate(381.445312 0)"/>
      <use xlink:href="#DejaVuSans-Bold-72" transform="translate(452.636719 0)"/>
      <use xlink:href="#DejaVuSans-Bold-69" transform="translate(501.953125 0)"/>
      <use xlink:href="#DejaVuSans-Bold-6e" transform="translate(536.230469 0)"/>
      <use xlink:href="#DejaVuSans-Bold-65" transform="translate(607.421875 0)"/>
      <use xlink:href="#DejaVuSans-Bold-20" transform="translate(675.244141 0)"/>
      <use xlink:href="#DejaVuSans-Bold-5b" transform="translate(710.058594 0)"/>
      <use xlink:href="#DejaVuSans-Bold-b5" transform="translate(755.761719 0)"/>
      <use xlink:href="#DejaVuSans-Bold-6d" transform="translate(829.345703 0)"/>
      <use xlink:href="#DejaVuSans-Bold-6f" transform="translate(933.544922 0)"/>
      <use xlink:href="#DejaVuSans-Bold-6c" transform="translate(1002.246094 0)"/>
      <use xlink:href="#DejaVuSans-Bold-65" transform="translate(1036.523438 0)"/>
      <use xlink:href="#DejaVuSans-Bold-5d" transform="translate(1104.345703 0)"/>
     </g>
    </g>
   </g>
   <g id="LineCollection_5">
    <path clip-path="url(#p8b1d727fef)" style="fill: none; stroke: #1f77b4"/>
    <path d="M 674.237169 579.676726 
L 674.237169 534.561637 
" clip-path="url(#p8b1d727fef)" style="fill: none; stroke: #1f77b4"/>
   </g>
   <g id="LineCollection_6">
    <path clip-path="url(#p8b1d727fef)" style="fill: none; stroke: #8c564b"/>
    <path d="M 822.449027 515.226598 
L 822.449027 403.513043 
" clip-path="url(#p8b1d727fef)" style="fill: none; stroke: #8c564b"/>
   </g>
   <g id="line2d_68">
    <path d="M 526.025311 622.643478 
L 528.495509 622.532507 
L 529.730608 622.190025 
L 530.965707 621.579239 
L 532.818355 620.290416 
L 540.228948 614.519604 
L 542.699145 612.984548 
L 545.169343 611.674354 
L 548.25709 610.30556 
L 551.344837 609.178924 
L 555.050133 608.074843 
L 559.372979 607.043596 
L 564.313375 606.109886 
L 570.488869 605.197639 
L 577.899461 604.352925 
L 587.162703 603.544895 
L 598.278592 602.809286 
L 611.864679 602.137447 
L 628.538513 601.542609 
L 648.917643 601.046674 
L 674.854718 600.651793 
L 709.437485 600.36486 
L 760.694086 600.182862 
L 834.800015 600.105727 
L 834.800015 600.105727 
" clip-path="url(#p8b1d727fef)" style="fill: none; stroke: #1f77b4; stroke-width: 2; stroke-linecap: square"/>
   </g>
   <g id="line2d_69">
    <path d="M 526.025311 622.643478 
L 674.237169 557.119182 
" clip-path="url(#p8b1d727fef)" style="fill: none; stroke-dasharray: 3.7,1.6; stroke-dashoffset: 0; stroke: #1f77b4"/>
    <g clip-path="url(#p8b1d727fef)">
     <use xlink:href="#m3265437dc9" x="526.025311" y="622.643478" style="fill: #1f77b4; stroke: #000000; stroke-linejoin: miter"/>
     <use xlink:href="#m3265437dc9" x="674.237169" y="557.119182" style="fill: #1f77b4; stroke: #000000; stroke-linejoin: miter"/>
    </g>
   </g>
   <g id="line2d_70">
    <path d="M 526.025311 622.643478 
L 527.877959 622.572864 
L 528.495509 622.428278 
L 529.113058 622.168463 
L 530.348157 621.264919 
L 531.583256 619.896131 
L 533.435904 617.262273 
L 538.993849 608.745288 
L 541.464046 605.53185 
L 543.934244 602.768139 
L 546.404442 600.406112 
L 548.874639 598.384834 
L 551.344837 596.646937 
L 553.815035 595.143177 
L 556.902782 593.531324 
L 559.990529 592.158581 
L 563.695825 590.75881 
L 568.018671 589.388642 
L 572.959066 588.082932 
L 578.517011 586.859218 
L 584.692505 585.723944 
L 592.103098 584.59168 
L 600.74879 583.506367 
L 610.62958 582.499241 
L 621.745469 581.592545 
L 634.714007 580.766041 
L 649.535193 580.051984 
L 666.826576 579.447332 
L 687.823256 578.945345 
L 713.760331 578.555762 
L 748.343098 578.269449 
L 800.217248 578.083839 
L 834.800015 578.032927 
L 834.800015 578.032927 
" clip-path="url(#p8b1d727fef)" style="fill: none; stroke: #8c564b; stroke-width: 2; stroke-linecap: square"/>
   </g>
   <g id="line2d_71">
    <path d="M 526.025311 622.643478 
L 822.449027 459.369821 
" clip-path="url(#p8b1d727fef)" style="fill: none; stroke-dasharray: 3.7,1.6; stroke-dashoffset: 0; stroke: #8c564b"/>
    <g clip-path="url(#p8b1d727fef)">
     <use xlink:href="#me3826330e9" x="526.025311" y="622.643478" style="fill: #8c564b; stroke: #000000; stroke-linejoin: miter"/>
     <use xlink:href="#me3826330e9" x="822.449027" y="459.369821" style="fill: #8c564b; stroke: #000000; stroke-linejoin: miter"/>
    </g>
   </g>
   <g id="patch_21">
    <path d="M 510.586576 633.6 
L 510.586576 392.556522 
" style="fill: none; stroke: #000000; stroke-width: 0.8; stroke-linejoin: miter; stroke-linecap: square"/>
   </g>
   <g id="patch_22">
    <path d="M 850.23875 633.6 
L 850.23875 392.556522 
" style="fill: none; stroke: #000000; stroke-width: 0.8; stroke-linejoin: miter; stroke-linecap: square"/>
   </g>
   <g id="patch_23">
    <path d="M 510.586576 633.6 
L 850.23875 633.6 
" style="fill: none; stroke: #000000; stroke-width: 0.8; stroke-linejoin: miter; stroke-linecap: square"/>
   </g>
   <g id="patch_24">
    <path d="M 510.586576 392.556522 
L 850.23875 392.556522 
" style="fill: none; stroke: #000000; stroke-width: 0.8; stroke-linejoin: miter; stroke-linecap: square"/>
   </g>
   <g id="legend_4">
    <g id="patch_25">
     <path d="M 704.330938 459.269022 
L 843.23875 459.269022 
Q 845.23875 459.269022 845.23875 457.269022 
L 845.23875 399.556522 
Q 845.23875 397.556522 843.23875 397.556522 
L 704.330938 397.556522 
Q 702.330938 397.556522 702.330938 399.556522 
L 702.330938 457.269022 
Q 702.330938 459.269022 704.330938 459.269022 
z
" style="fill: #ffffff; opacity: 0.8; stroke: #cccccc; stroke-linejoin: miter"/>
    </g>
    <g id="line2d_72">
     <path d="M 706.330938 405.654959 
L 726.330938 405.654959 
" style="fill: none; stroke: #1f77b4; stroke-width: 2; stroke-linecap: square"/>
    </g>
    <g id="line2d_73"/>
    <g id="text_60">
     <!-- Sim LOS50PO -->
     <g transform="translate(734.330938 409.154959) scale(0.1 -0.1)">
      <use xlink:href="#DejaVuSans-53"/>
      <use xlink:href="#DejaVuSans-69" transform="translate(63.476562 0)"/>
      <use xlink:href="#DejaVuSans-6d" transform="translate(91.259766 0)"/>
      <use xlink:href="#DejaVuSans-20" transform="translate(188.671875 0)"/>
      <use xlink:href="#DejaVuSans-4c" transform="translate(220.458984 0)"/>
      <use xlink:href="#DejaVuSans-4f" transform="translate(272.546875 0)"/>
      <use xlink:href="#DejaVuSans-53" transform="translate(351.257812 0)"/>
      <use xlink:href="#DejaVuSans-35" transform="translate(414.734375 0)"/>
      <use xlink:href="#DejaVuSans-30" transform="translate(478.357422 0)"/>
      <use xlink:href="#DejaVuSans-50" transform="translate(541.980469 0)"/>
      <use xlink:href="#DejaVuSans-4f" transform="translate(602.283203 0)"/>
     </g>
    </g>
    <g id="LineCollection_7">
     <path d="M 716.330938 425.333084 
L 716.330938 415.333084 
" style="fill: none; stroke: #1f77b4"/>
    </g>
    <g id="line2d_74">
     <path d="M 706.330938 420.333084 
L 726.330938 420.333084 
" style="fill: none; stroke-dasharray: 3.7,1.6; stroke-dashoffset: 0; stroke: #1f77b4"/>
    </g>
    <g id="line2d_75">
     <g>
      <use xlink:href="#m3265437dc9" x="716.330938" y="420.333084" style="fill: #1f77b4; stroke: #000000; stroke-linejoin: miter"/>
     </g>
    </g>
    <g id="text_61">
     <!-- LOS50POSD (n=12) -->
     <g transform="translate(734.330938 423.833084) scale(0.1 -0.1)">
      <use xlink:href="#DejaVuSans-4c"/>
      <use xlink:href="#DejaVuSans-4f" transform="translate(52.087891 0)"/>
      <use xlink:href="#DejaVuSans-53" transform="translate(130.798828 0)"/>
      <use xlink:href="#DejaVuSans-35" transform="translate(194.275391 0)"/>
      <use xlink:href="#DejaVuSans-30" transform="translate(257.898438 0)"/>
      <use xlink:href="#DejaVuSans-50" transform="translate(321.521484 0)"/>
      <use xlink:href="#DejaVuSans-4f" transform="translate(381.824219 0)"/>
      <use xlink:href="#DejaVuSans-b1" transform="translate(460.535156 0)"/>
      <use xlink:href="#DejaVuSans-53" transform="translate(544.324219 0)"/>
      <use xlink:href="#DejaVuSans-44" transform="translate(607.800781 0)"/>
      <use xlink:href="#DejaVuSans-20" transform="translate(684.802734 0)"/>
      <use xlink:href="#DejaVuSans-28" transform="translate(716.589844 0)"/>
      <use xlink:href="#DejaVuSans-6e" transform="translate(755.603516 0)"/>
      <use xlink:href="#DejaVuSans-3d" transform="translate(818.982422 0)"/>
      <use xlink:href="#DejaVuSans-31" transform="translate(902.771484 0)"/>
      <use xlink:href="#DejaVuSans-32" transform="translate(966.394531 0)"/>
      <use xlink:href="#DejaVuSans-29" transform="translate(1030.017578 0)"/>
     </g>
    </g>
    <g id="line2d_76">
     <path d="M 706.330938 435.011209 
L 726.330938 435.011209 
" style="fill: none; stroke: #8c564b; stroke-width: 2; stroke-linecap: square"/>
    </g>
    <g id="line2d_77"/>
    <g id="text_62">
     <!-- Sim LOS100PO -->
     <g transform="translate(734.330938 438.511209) scale(0.1 -0.1)">
      <use xlink:href="#DejaVuSans-53"/>
      <use xlink:href="#DejaVuSans-69" transform="translate(63.476562 0)"/>
      <use xlink:href="#DejaVuSans-6d" transform="translate(91.259766 0)"/>
      <use xlink:href="#DejaVuSans-20" transform="translate(188.671875 0)"/>
      <use xlink:href="#DejaVuSans-4c" transform="translate(220.458984 0)"/>
      <use xlink:href="#DejaVuSans-4f" transform="translate(272.546875 0)"/>
      <use xlink:href="#DejaVuSans-53" transform="translate(351.257812 0)"/>
      <use xlink:href="#DejaVuSans-31" transform="translate(414.734375 0)"/>
      <use xlink:href="#DejaVuSans-30" transform="translate(478.357422 0)"/>
      <use xlink:href="#DejaVuSans-30" transform="translate(541.980469 0)"/>
      <use xlink:href="#DejaVuSans-50" transform="translate(605.603516 0)"/>
      <use xlink:href="#DejaVuSans-4f" transform="translate(665.90625 0)"/>
     </g>
    </g>
    <g id="LineCollection_8">
     <path d="M 716.330938 454.689334 
L 716.330938 444.689334 
" style="fill: none; stroke: #8c564b"/>
    </g>
    <g id="line2d_78">
     <path d="M 706.330938 449.689334 
L 726.330938 449.689334 
" style="fill: none; stroke-dasharray: 3.7,1.6; stroke-dashoffset: 0; stroke: #8c564b"/>
    </g>
    <g id="line2d_79">
     <g>
      <use xlink:href="#me3826330e9" x="716.330938" y="449.689334" style="fill: #8c564b; stroke: #000000; stroke-linejoin: miter"/>
     </g>
    </g>
    <g id="text_63">
     <!-- LOS100POSD (n=6) -->
     <g transform="translate(734.330938 453.189334) scale(0.1 -0.1)">
      <use xlink:href="#DejaVuSans-4c"/>
      <use xlink:href="#DejaVuSans-4f" transform="translate(52.087891 0)"/>
      <use xlink:href="#DejaVuSans-53" transform="translate(130.798828 0)"/>
      <use xlink:href="#DejaVuSans-31" transform="translate(194.275391 0)"/>
      <use xlink:href="#DejaVuSans-30" transform="translate(257.898438 0)"/>
      <use xlink:href="#DejaVuSans-30" transform="translate(321.521484 0)"/>
      <use xlink:href="#DejaVuSans-50" transform="translate(385.144531 0)"/>
      <use xlink:href="#DejaVuSans-4f" transform="translate(445.447266 0)"/>
      <use xlink:href="#DejaVuSans-b1" transform="translate(524.158203 0)"/>
      <use xlink:href="#DejaVuSans-53" transform="translate(607.947266 0)"/>
      <use xlink:href="#DejaVuSans-44" transform="translate(671.423828 0)"/>
      <use xlink:href="#DejaVuSans-20" transform="translate(748.425781 0)"/>
      <use xlink:href="#DejaVuSans-28" transform="translate(780.212891 0)"/>
      <use xlink:href="#DejaVuSans-6e" transform="translate(819.226562 0)"/>
      <use xlink:href="#DejaVuSans-3d" transform="translate(882.605469 0)"/>
      <use xlink:href="#DejaVuSans-36" transform="translate(966.394531 0)"/>
      <use xlink:href="#DejaVuSans-29" transform="translate(1030.017578 0)"/>
     </g>
    </g>
   </g>
  </g>
  <g id="text_64">
   <!-- Lo1995 (healthy) -->
   <g transform="translate(326.800469 26.196094) scale(0.25 -0.25)">
    <defs>
     <path id="DejaVuSans-Bold-39" d="M 641 103 
L 641 966 
Q 928 831 1190 764 
Q 1453 697 1709 697 
Q 2247 697 2547 995 
Q 2847 1294 2900 1881 
Q 2688 1725 2447 1647 
Q 2206 1569 1925 1569 
Q 1209 1569 770 1986 
Q 331 2403 331 3084 
Q 331 3838 820 4291 
Q 1309 4744 2131 4744 
Q 3044 4744 3544 4128 
Q 4044 3513 4044 2388 
Q 4044 1231 3459 570 
Q 2875 -91 1856 -91 
Q 1528 -91 1228 -42 
Q 928 6 641 103 
z
M 2125 2350 
Q 2441 2350 2600 2554 
Q 2759 2759 2759 3169 
Q 2759 3575 2600 3781 
Q 2441 3988 2125 3988 
Q 1809 3988 1650 3781 
Q 1491 3575 1491 3169 
Q 1491 2759 1650 2554 
Q 1809 2350 2125 2350 
z
" transform="scale(0.015625)"/>
     <path id="DejaVuSans-Bold-35" d="M 678 4666 
L 3669 4666 
L 3669 3781 
L 1638 3781 
L 1638 3059 
Q 1775 3097 1914 3117 
Q 2053 3138 2203 3138 
Q 3056 3138 3531 2711 
Q 4006 2284 4006 1522 
Q 4006 766 3489 337 
Q 2972 -91 2053 -91 
Q 1656 -91 1267 -14 
Q 878 63 494 219 
L 494 1166 
Q 875 947 1217 837 
Q 1559 728 1863 728 
Q 2300 728 2551 942 
Q 2803 1156 2803 1522 
Q 2803 1891 2551 2103 
Q 2300 2316 1863 2316 
Q 1603 2316 1309 2248 
Q 1016 2181 678 2041 
L 678 4666 
z
" transform="scale(0.015625)"/>
     <path id="DejaVuSans-Bold-28" d="M 2413 -844 
L 1484 -844 
Q 1006 -72 778 623 
Q 550 1319 550 2003 
Q 550 2688 779 3389 
Q 1009 4091 1484 4856 
L 2413 4856 
Q 2013 4116 1813 3408 
Q 1613 2700 1613 2009 
Q 1613 1319 1811 609 
Q 2009 -100 2413 -844 
z
" transform="scale(0.015625)"/>
     <path id="DejaVuSans-Bold-79" d="M 78 3500 
L 1197 3500 
L 2138 1125 
L 2938 3500 
L 4056 3500 
L 2584 -331 
Q 2363 -916 2067 -1148 
Q 1772 -1381 1288 -1381 
L 641 -1381 
L 641 -647 
L 991 -647 
Q 1275 -647 1404 -556 
Q 1534 -466 1606 -231 
L 1638 -134 
L 78 3500 
z
" transform="scale(0.015625)"/>
     <path id="DejaVuSans-Bold-29" d="M 513 -844 
Q 913 -100 1113 609 
Q 1313 1319 1313 2009 
Q 1313 2700 1113 3408 
Q 913 4116 513 4856 
L 1441 4856 
Q 1916 4091 2145 3389 
Q 2375 2688 2375 2003 
Q 2375 1319 2147 623 
Q 1919 -72 1441 -844 
L 513 -844 
z
" transform="scale(0.015625)"/>
    </defs>
    <use xlink:href="#DejaVuSans-Bold-4c"/>
    <use xlink:href="#DejaVuSans-Bold-6f" transform="translate(63.720703 0)"/>
    <use xlink:href="#DejaVuSans-Bold-31" transform="translate(132.421875 0)"/>
    <use xlink:href="#DejaVuSans-Bold-39" transform="translate(202.001953 0)"/>
    <use xlink:href="#DejaVuSans-Bold-39" transform="translate(271.582031 0)"/>
    <use xlink:href="#DejaVuSans-Bold-35" transform="translate(341.162109 0)"/>
    <use xlink:href="#DejaVuSans-Bold-20" transform="translate(410.742188 0)"/>
    <use xlink:href="#DejaVuSans-Bold-28" transform="translate(445.556641 0)"/>
    <use xlink:href="#DejaVuSans-Bold-68" transform="translate(491.259766 0)"/>
    <use xlink:href="#DejaVuSans-Bold-65" transform="translate(562.451172 0)"/>
    <use xlink:href="#DejaVuSans-Bold-61" transform="translate(630.273438 0)"/>
    <use xlink:href="#DejaVuSans-Bold-6c" transform="translate(697.753906 0)"/>
    <use xlink:href="#DejaVuSans-Bold-74" transform="translate(732.03125 0)"/>
    <use xlink:href="#DejaVuSans-Bold-68" transform="translate(779.833984 0)"/>
    <use xlink:href="#DejaVuSans-Bold-79" transform="translate(851.025391 0)"/>
    <use xlink:href="#DejaVuSans-Bold-29" transform="translate(916.210938 0)"/>
   </g>
  </g>
 </g>
 <defs>
  <clipPath id="p6d528a6bb0">
   <rect x="69.03875" y="79.2" width="339.652174" height="241.043478"/>
  </clipPath>
  <clipPath id="pcc007e5984">
   <rect x="510.586576" y="79.2" width="339.652174" height="241.043478"/>
  </clipPath>
  <clipPath id="p5446496def">
   <rect x="69.03875" y="392.556522" width="339.652174" height="241.043478"/>
  </clipPath>
  <clipPath id="p8b1d727fef">
   <rect x="510.586576" y="392.556522" width="339.652174" height="241.043478"/>
  </clipPath>
 </defs>
</svg>
