<?xml version="1.0" encoding="utf-8" standalone="no"?>
<!DOCTYPE svg PUBLIC "-//W3C//DTD SVG 1.1//EN"
  "http://www.w3.org/Graphics/SVG/1.1/DTD/svg11.dtd">
<svg xmlns:xlink="http://www.w3.org/1999/xlink" width="474.621406pt" height="683.737812pt" viewBox="0 0 474.621406 683.737812" xmlns="http://www.w3.org/2000/svg" version="1.1">
 <metadata>
  <rdf:RDF xmlns:dc="http://purl.org/dc/elements/1.1/" xmlns:cc="http://creativecommons.org/ns#" xmlns:rdf="http://www.w3.org/1999/02/22-rdf-syntax-ns#">
   <cc:Work>
    <dc:type rdf:resource="http://purl.org/dc/dcmitype/StillImage"/>
    <dc:date>2025-12-03T15:38:02.977113</dc:date>
    <dc:format>image/svg+xml</dc:format>
    <dc:creator>
     <cc:Agent>
      <dc:title>Matplotlib v3.10.7, https://matplotlib.org/</dc:title>
     </cc:Agent>
    </dc:creator>
   </cc:Work>
  </rdf:RDF>
 </metadata>
 <defs>
  <style type="text/css">*{stroke-linejoin: round; stroke-linecap: butt}</style>
 </defs>
 <g id="figure_1">
  <g id="patch_1">
   <path d="M 0 683.737812 
L 474.621406 683.737812 
L 474.621406 0 
L 0 0 
z
" style="fill: #ffffff"/>
  </g>
  <g id="axes_1">
   <g id="patch_2">
    <path d="M 76.821406 320.243478 
L 467.421406 320.243478 
L 467.421406 79.2 
L 76.821406 79.2 
z
" style="fill: #ffffff"/>
   </g>
   <g id="matplotlib.axis_1">
    <g id="xtick_1">
     <g id="line2d_1">
      <defs>
       <path id="m9d55c5e2ca" d="M 0 0 
L 0 3.5 
" style="stroke: #000000; stroke-width: 0.8"/>
      </defs>
      <g>
       <use xlink:href="#m9d55c5e2ca" x="94.575952" y="320.243478" style="stroke: #000000; stroke-width: 0.8"/>
      </g>
     </g>
     <g id="text_1">
      <!-- 0 -->
      <g transform="translate(89.804077 338.641135) scale(0.15 -0.15)">
       <defs>
        <path id="DejaVuSans-30" d="M 2034 4250 
Q 1547 4250 1301 3770 
Q 1056 3291 1056 2328 
Q 1056 1369 1301 889 
Q 1547 409 2034 409 
Q 2525 409 2770 889 
Q 3016 1369 3016 2328 
Q 3016 3291 2770 3770 
Q 2525 4250 2034 4250 
z
M 2034 4750 
Q 2819 4750 3233 4129 
Q 3647 3509 3647 2328 
Q 3647 1150 3233 529 
Q 2819 -91 2034 -91 
Q 1250 -91 836 529 
Q 422 1150 422 2328 
Q 422 3509 836 4129 
Q 1250 4750 2034 4750 
z
" transform="scale(0.015625)"/>
       </defs>
       <use xlink:href="#DejaVuSans-30"/>
      </g>
     </g>
    </g>
    <g id="xtick_2">
     <g id="line2d_2">
      <g>
       <use xlink:href="#m9d55c5e2ca" x="183.348679" y="320.243478" style="stroke: #000000; stroke-width: 0.8"/>
      </g>
     </g>
     <g id="text_2">
      <!-- 10 -->
      <g transform="translate(173.804929 338.641135) scale(0.15 -0.15)">
       <defs>
        <path id="DejaVuSans-31" d="M 794 531 
L 1825 531 
L 1825 4091 
L 703 3866 
L 703 4441 
L 1819 4666 
L 2450 4666 
L 2450 531 
L 3481 531 
L 3481 0 
L 794 0 
L 794 531 
z
" transform="scale(0.015625)"/>
       </defs>
       <use xlink:href="#DejaVuSans-31"/>
       <use xlink:href="#DejaVuSans-30" transform="translate(63.623047 0)"/>
      </g>
     </g>
    </g>
    <g id="xtick_3">
     <g id="line2d_3">
      <g>
       <use xlink:href="#m9d55c5e2ca" x="272.121406" y="320.243478" style="stroke: #000000; stroke-width: 0.8"/>
      </g>
     </g>
     <g id="text_3">
      <!-- 20 -->
      <g transform="translate(262.577656 338.641135) scale(0.15 -0.15)">
       <defs>
        <path id="DejaVuSans-32" d="M 1228 531 
L 3431 531 
L 3431 0 
L 469 0 
L 469 531 
Q 828 903 1448 1529 
Q 2069 2156 2228 2338 
Q 2531 2678 2651 2914 
Q 2772 3150 2772 3378 
Q 2772 3750 2511 3984 
Q 2250 4219 1831 4219 
Q 1534 4219 1204 4116 
Q 875 4013 500 3803 
L 500 4441 
Q 881 4594 1212 4672 
Q 1544 4750 1819 4750 
Q 2544 4750 2975 4387 
Q 3406 4025 3406 3419 
Q 3406 3131 3298 2873 
Q 3191 2616 2906 2266 
Q 2828 2175 2409 1742 
Q 1991 1309 1228 531 
z
" transform="scale(0.015625)"/>
       </defs>
       <use xlink:href="#DejaVuSans-32"/>
       <use xlink:href="#DejaVuSans-30" transform="translate(63.623047 0)"/>
      </g>
     </g>
    </g>
    <g id="xtick_4">
     <g id="line2d_4">
      <g>
       <use xlink:href="#m9d55c5e2ca" x="360.894134" y="320.243478" style="stroke: #000000; stroke-width: 0.8"/>
      </g>
     </g>
     <g id="text_4">
      <!-- 30 -->
      <g transform="translate(351.350384 338.641135) scale(0.15 -0.15)">
       <defs>
        <path id="DejaVuSans-33" d="M 2597 2516 
Q 3050 2419 3304 2112 
Q 3559 1806 3559 1356 
Q 3559 666 3084 287 
Q 2609 -91 1734 -91 
Q 1441 -91 1130 -33 
Q 819 25 488 141 
L 488 750 
Q 750 597 1062 519 
Q 1375 441 1716 441 
Q 2309 441 2620 675 
Q 2931 909 2931 1356 
Q 2931 1769 2642 2001 
Q 2353 2234 1838 2234 
L 1294 2234 
L 1294 2753 
L 1863 2753 
Q 2328 2753 2575 2939 
Q 2822 3125 2822 3475 
Q 2822 3834 2567 4026 
Q 2313 4219 1838 4219 
Q 1578 4219 1281 4162 
Q 984 4106 628 3988 
L 628 4550 
Q 988 4650 1302 4700 
Q 1616 4750 1894 4750 
Q 2613 4750 3031 4423 
Q 3450 4097 3450 3541 
Q 3450 3153 3228 2886 
Q 3006 2619 2597 2516 
z
" transform="scale(0.015625)"/>
       </defs>
       <use xlink:href="#DejaVuSans-33"/>
       <use xlink:href="#DejaVuSans-30" transform="translate(63.623047 0)"/>
      </g>
     </g>
    </g>
    <g id="xtick_5">
     <g id="line2d_5">
      <g>
       <use xlink:href="#m9d55c5e2ca" x="449.666861" y="320.243478" style="stroke: #000000; stroke-width: 0.8"/>
      </g>
     </g>
     <g id="text_5">
      <!-- 40 -->
      <g transform="translate(440.123111 338.641135) scale(0.15 -0.15)">
       <defs>
        <path id="DejaVuSans-34" d="M 2419 4116 
L 825 1625 
L 2419 1625 
L 2419 4116 
z
M 2253 4666 
L 3047 4666 
L 3047 1625 
L 3713 1625 
L 3713 1100 
L 3047 1100 
L 3047 0 
L 2419 0 
L 2419 1100 
L 313 1100 
L 313 1709 
L 2253 4666 
z
" transform="scale(0.015625)"/>
       </defs>
       <use xlink:href="#DejaVuSans-34"/>
       <use xlink:href="#DejaVuSans-30" transform="translate(63.623047 0)"/>
      </g>
     </g>
    </g>
    <g id="text_6">
     <!-- Time [hr] -->
     <g transform="translate(225.208906 359.437853) scale(0.18 -0.18)">
      <defs>
       <path id="DejaVuSans-Bold-54" d="M 31 4666 
L 4331 4666 
L 4331 3756 
L 2784 3756 
L 2784 0 
L 1581 0 
L 1581 3756 
L 31 3756 
L 31 4666 
z
" transform="scale(0.015625)"/>
       <path id="DejaVuSans-Bold-69" d="M 538 3500 
L 1656 3500 
L 1656 0 
L 538 0 
L 538 3500 
z
M 538 4863 
L 1656 4863 
L 1656 3950 
L 538 3950 
L 538 4863 
z
" transform="scale(0.015625)"/>
       <path id="DejaVuSans-Bold-6d" d="M 3781 2919 
Q 3994 3244 4286 3414 
Q 4578 3584 4928 3584 
Q 5531 3584 5847 3212 
Q 6163 2841 6163 2131 
L 6163 0 
L 5038 0 
L 5038 1825 
Q 5041 1866 5042 1909 
Q 5044 1953 5044 2034 
Q 5044 2406 4934 2573 
Q 4825 2741 4581 2741 
Q 4263 2741 4089 2478 
Q 3916 2216 3909 1719 
L 3909 0 
L 2784 0 
L 2784 1825 
Q 2784 2406 2684 2573 
Q 2584 2741 2328 2741 
Q 2006 2741 1831 2477 
Q 1656 2213 1656 1722 
L 1656 0 
L 531 0 
L 531 3500 
L 1656 3500 
L 1656 2988 
Q 1863 3284 2130 3434 
Q 2397 3584 2719 3584 
Q 3081 3584 3359 3409 
Q 3638 3234 3781 2919 
z
" transform="scale(0.015625)"/>
       <path id="DejaVuSans-Bold-65" d="M 4031 1759 
L 4031 1441 
L 1416 1441 
Q 1456 1047 1700 850 
Q 1944 653 2381 653 
Q 2734 653 3104 758 
Q 3475 863 3866 1075 
L 3866 213 
Q 3469 63 3072 -14 
Q 2675 -91 2278 -91 
Q 1328 -91 801 392 
Q 275 875 275 1747 
Q 275 2603 792 3093 
Q 1309 3584 2216 3584 
Q 3041 3584 3536 3087 
Q 4031 2591 4031 1759 
z
M 2881 2131 
Q 2881 2450 2695 2645 
Q 2509 2841 2209 2841 
Q 1884 2841 1681 2658 
Q 1478 2475 1428 2131 
L 2881 2131 
z
" transform="scale(0.015625)"/>
       <path id="DejaVuSans-Bold-20" transform="scale(0.015625)"/>
       <path id="DejaVuSans-Bold-5b" d="M 550 4863 
L 2491 4863 
L 2491 4159 
L 1613 4159 
L 1613 -141 
L 2491 -141 
L 2491 -844 
L 550 -844 
L 550 4863 
z
" transform="scale(0.015625)"/>
       <path id="DejaVuSans-Bold-68" d="M 4056 2131 
L 4056 0 
L 2931 0 
L 2931 347 
L 2931 1625 
Q 2931 2084 2911 2256 
Q 2891 2428 2841 2509 
Q 2775 2619 2662 2680 
Q 2550 2741 2406 2741 
Q 2056 2741 1856 2470 
Q 1656 2200 1656 1722 
L 1656 0 
L 538 0 
L 538 4863 
L 1656 4863 
L 1656 2988 
Q 1909 3294 2193 3439 
Q 2478 3584 2822 3584 
Q 3428 3584 3742 3212 
Q 4056 2841 4056 2131 
z
" transform="scale(0.015625)"/>
       <path id="DejaVuSans-Bold-72" d="M 3138 2547 
Q 2991 2616 2845 2648 
Q 2700 2681 2553 2681 
Q 2122 2681 1889 2404 
Q 1656 2128 1656 1613 
L 1656 0 
L 538 0 
L 538 3500 
L 1656 3500 
L 1656 2925 
Q 1872 3269 2151 3426 
Q 2431 3584 2822 3584 
Q 2878 3584 2943 3579 
Q 3009 3575 3134 3559 
L 3138 2547 
z
" transform="scale(0.015625)"/>
       <path id="DejaVuSans-Bold-5d" d="M 2375 -844 
L 434 -844 
L 434 -141 
L 1313 -141 
L 1313 4159 
L 434 4159 
L 434 4863 
L 2375 4863 
L 2375 -844 
z
" transform="scale(0.015625)"/>
      </defs>
      <use xlink:href="#DejaVuSans-Bold-54"/>
      <use xlink:href="#DejaVuSans-Bold-69" transform="translate(68.212891 0)"/>
      <use xlink:href="#DejaVuSans-Bold-6d" transform="translate(102.490234 0)"/>
      <use xlink:href="#DejaVuSans-Bold-65" transform="translate(206.689453 0)"/>
      <use xlink:href="#DejaVuSans-Bold-20" transform="translate(274.511719 0)"/>
      <use xlink:href="#DejaVuSans-Bold-5b" transform="translate(309.326172 0)"/>
      <use xlink:href="#DejaVuSans-Bold-68" transform="translate(355.029297 0)"/>
      <use xlink:href="#DejaVuSans-Bold-72" transform="translate(426.220703 0)"/>
      <use xlink:href="#DejaVuSans-Bold-5d" transform="translate(475.537109 0)"/>
     </g>
    </g>
   </g>
   <g id="matplotlib.axis_2">
    <g id="ytick_1">
     <g id="line2d_6">
      <defs>
       <path id="mcc96fb6367" d="M 0 0 
L -3.5 0 
" style="stroke: #000000; stroke-width: 0.8"/>
      </defs>
      <g>
       <use xlink:href="#mcc96fb6367" x="76.821406" y="286.18071" style="stroke: #000000; stroke-width: 0.8"/>
      </g>
     </g>
     <g id="text_7">
      <!-- −200 -->
      <g transform="translate(28.620625 291.879538) scale(0.15 -0.15)">
       <defs>
        <path id="DejaVuSans-2212" d="M 678 2272 
L 4684 2272 
L 4684 1741 
L 678 1741 
L 678 2272 
z
" transform="scale(0.015625)"/>
       </defs>
       <use xlink:href="#DejaVuSans-2212"/>
       <use xlink:href="#DejaVuSans-32" transform="translate(83.789062 0)"/>
       <use xlink:href="#DejaVuSans-30" transform="translate(147.412109 0)"/>
       <use xlink:href="#DejaVuSans-30" transform="translate(211.035156 0)"/>
      </g>
     </g>
    </g>
    <g id="ytick_2">
     <g id="line2d_7">
      <g>
       <use xlink:href="#mcc96fb6367" x="76.821406" y="251.964136" style="stroke: #000000; stroke-width: 0.8"/>
      </g>
     </g>
     <g id="text_8">
      <!-- 0 -->
      <g transform="translate(60.277656 257.662965) scale(0.15 -0.15)">
       <use xlink:href="#DejaVuSans-30"/>
      </g>
     </g>
    </g>
    <g id="ytick_3">
     <g id="line2d_8">
      <g>
       <use xlink:href="#mcc96fb6367" x="76.821406" y="217.747563" style="stroke: #000000; stroke-width: 0.8"/>
      </g>
     </g>
     <g id="text_9">
      <!-- 200 -->
      <g transform="translate(41.190156 223.446391) scale(0.15 -0.15)">
       <use xlink:href="#DejaVuSans-32"/>
       <use xlink:href="#DejaVuSans-30" transform="translate(63.623047 0)"/>
       <use xlink:href="#DejaVuSans-30" transform="translate(127.246094 0)"/>
      </g>
     </g>
    </g>
    <g id="ytick_4">
     <g id="line2d_9">
      <g>
       <use xlink:href="#mcc96fb6367" x="76.821406" y="183.530989" style="stroke: #000000; stroke-width: 0.8"/>
      </g>
     </g>
     <g id="text_10">
      <!-- 400 -->
      <g transform="translate(41.190156 189.229817) scale(0.15 -0.15)">
       <use xlink:href="#DejaVuSans-34"/>
       <use xlink:href="#DejaVuSans-30" transform="translate(63.623047 0)"/>
       <use xlink:href="#DejaVuSans-30" transform="translate(127.246094 0)"/>
      </g>
     </g>
    </g>
    <g id="ytick_5">
     <g id="line2d_10">
      <g>
       <use xlink:href="#mcc96fb6367" x="76.821406" y="149.314415" style="stroke: #000000; stroke-width: 0.8"/>
      </g>
     </g>
     <g id="text_11">
      <!-- 600 -->
      <g transform="translate(41.190156 155.013243) scale(0.15 -0.15)">
       <defs>
        <path id="DejaVuSans-36" d="M 2113 2584 
Q 1688 2584 1439 2293 
Q 1191 2003 1191 1497 
Q 1191 994 1439 701 
Q 1688 409 2113 409 
Q 2538 409 2786 701 
Q 3034 994 3034 1497 
Q 3034 2003 2786 2293 
Q 2538 2584 2113 2584 
z
M 3366 4563 
L 3366 3988 
Q 3128 4100 2886 4159 
Q 2644 4219 2406 4219 
Q 1781 4219 1451 3797 
Q 1122 3375 1075 2522 
Q 1259 2794 1537 2939 
Q 1816 3084 2150 3084 
Q 2853 3084 3261 2657 
Q 3669 2231 3669 1497 
Q 3669 778 3244 343 
Q 2819 -91 2113 -91 
Q 1303 -91 875 529 
Q 447 1150 447 2328 
Q 447 3434 972 4092 
Q 1497 4750 2381 4750 
Q 2619 4750 2861 4703 
Q 3103 4656 3366 4563 
z
" transform="scale(0.015625)"/>
       </defs>
       <use xlink:href="#DejaVuSans-36"/>
       <use xlink:href="#DejaVuSans-30" transform="translate(63.623047 0)"/>
       <use xlink:href="#DejaVuSans-30" transform="translate(127.246094 0)"/>
      </g>
     </g>
    </g>
    <g id="ytick_6">
     <g id="line2d_11">
      <g>
       <use xlink:href="#mcc96fb6367" x="76.821406" y="115.097842" style="stroke: #000000; stroke-width: 0.8"/>
      </g>
     </g>
     <g id="text_12">
      <!-- 800 -->
      <g transform="translate(41.190156 120.79667) scale(0.15 -0.15)">
       <defs>
        <path id="DejaVuSans-38" d="M 2034 2216 
Q 1584 2216 1326 1975 
Q 1069 1734 1069 1313 
Q 1069 891 1326 650 
Q 1584 409 2034 409 
Q 2484 409 2743 651 
Q 3003 894 3003 1313 
Q 3003 1734 2745 1975 
Q 2488 2216 2034 2216 
z
M 1403 2484 
Q 997 2584 770 2862 
Q 544 3141 544 3541 
Q 544 4100 942 4425 
Q 1341 4750 2034 4750 
Q 2731 4750 3128 4425 
Q 3525 4100 3525 3541 
Q 3525 3141 3298 2862 
Q 3072 2584 2669 2484 
Q 3125 2378 3379 2068 
Q 3634 1759 3634 1313 
Q 3634 634 3220 271 
Q 2806 -91 2034 -91 
Q 1263 -91 848 271 
Q 434 634 434 1313 
Q 434 1759 690 2068 
Q 947 2378 1403 2484 
z
M 1172 3481 
Q 1172 3119 1398 2916 
Q 1625 2713 2034 2713 
Q 2441 2713 2670 2916 
Q 2900 3119 2900 3481 
Q 2900 3844 2670 4047 
Q 2441 4250 2034 4250 
Q 1625 4250 1398 4047 
Q 1172 3844 1172 3481 
z
" transform="scale(0.015625)"/>
       </defs>
       <use xlink:href="#DejaVuSans-38"/>
       <use xlink:href="#DejaVuSans-30" transform="translate(63.623047 0)"/>
       <use xlink:href="#DejaVuSans-30" transform="translate(127.246094 0)"/>
      </g>
     </g>
    </g>
    <g id="ytick_7">
     <g id="line2d_12">
      <g>
       <use xlink:href="#mcc96fb6367" x="76.821406" y="80.881268" style="stroke: #000000; stroke-width: 0.8"/>
      </g>
     </g>
     <g id="text_13">
      <!-- 1000 -->
      <g transform="translate(31.646406 86.580096) scale(0.15 -0.15)">
       <use xlink:href="#DejaVuSans-31"/>
       <use xlink:href="#DejaVuSans-30" transform="translate(63.623047 0)"/>
       <use xlink:href="#DejaVuSans-30" transform="translate(127.246094 0)"/>
       <use xlink:href="#DejaVuSans-30" transform="translate(190.869141 0)"/>
      </g>
     </g>
    </g>
    <g id="text_14">
     <!-- Losartan [nM] -->
     <g transform="translate(20.877187 271.012989) rotate(-90) scale(0.18 -0.18)">
      <defs>
       <path id="DejaVuSans-Bold-4c" d="M 588 4666 
L 1791 4666 
L 1791 909 
L 3903 909 
L 3903 0 
L 588 0 
L 588 4666 
z
" transform="scale(0.015625)"/>
       <path id="DejaVuSans-Bold-6f" d="M 2203 2784 
Q 1831 2784 1636 2517 
Q 1441 2250 1441 1747 
Q 1441 1244 1636 976 
Q 1831 709 2203 709 
Q 2569 709 2762 976 
Q 2956 1244 2956 1747 
Q 2956 2250 2762 2517 
Q 2569 2784 2203 2784 
z
M 2203 3584 
Q 3106 3584 3614 3096 
Q 4122 2609 4122 1747 
Q 4122 884 3614 396 
Q 3106 -91 2203 -91 
Q 1297 -91 786 396 
Q 275 884 275 1747 
Q 275 2609 786 3096 
Q 1297 3584 2203 3584 
z
" transform="scale(0.015625)"/>
       <path id="DejaVuSans-Bold-73" d="M 3272 3391 
L 3272 2541 
Q 2913 2691 2578 2766 
Q 2244 2841 1947 2841 
Q 1628 2841 1473 2761 
Q 1319 2681 1319 2516 
Q 1319 2381 1436 2309 
Q 1553 2238 1856 2203 
L 2053 2175 
Q 2913 2066 3209 1816 
Q 3506 1566 3506 1031 
Q 3506 472 3093 190 
Q 2681 -91 1863 -91 
Q 1516 -91 1145 -36 
Q 775 19 384 128 
L 384 978 
Q 719 816 1070 734 
Q 1422 653 1784 653 
Q 2113 653 2278 743 
Q 2444 834 2444 1013 
Q 2444 1163 2330 1236 
Q 2216 1309 1875 1350 
L 1678 1375 
Q 931 1469 631 1722 
Q 331 1975 331 2491 
Q 331 3047 712 3315 
Q 1094 3584 1881 3584 
Q 2191 3584 2531 3537 
Q 2872 3491 3272 3391 
z
" transform="scale(0.015625)"/>
       <path id="DejaVuSans-Bold-61" d="M 2106 1575 
Q 1756 1575 1579 1456 
Q 1403 1338 1403 1106 
Q 1403 894 1545 773 
Q 1688 653 1941 653 
Q 2256 653 2472 879 
Q 2688 1106 2688 1447 
L 2688 1575 
L 2106 1575 
z
M 3816 1997 
L 3816 0 
L 2688 0 
L 2688 519 
Q 2463 200 2181 54 
Q 1900 -91 1497 -91 
Q 953 -91 614 226 
Q 275 544 275 1050 
Q 275 1666 698 1953 
Q 1122 2241 2028 2241 
L 2688 2241 
L 2688 2328 
Q 2688 2594 2478 2717 
Q 2269 2841 1825 2841 
Q 1466 2841 1156 2769 
Q 847 2697 581 2553 
L 581 3406 
Q 941 3494 1303 3539 
Q 1666 3584 2028 3584 
Q 2975 3584 3395 3211 
Q 3816 2838 3816 1997 
z
" transform="scale(0.015625)"/>
       <path id="DejaVuSans-Bold-74" d="M 1759 4494 
L 1759 3500 
L 2913 3500 
L 2913 2700 
L 1759 2700 
L 1759 1216 
Q 1759 972 1856 886 
Q 1953 800 2241 800 
L 2816 800 
L 2816 0 
L 1856 0 
Q 1194 0 917 276 
Q 641 553 641 1216 
L 641 2700 
L 84 2700 
L 84 3500 
L 641 3500 
L 641 4494 
L 1759 4494 
z
" transform="scale(0.015625)"/>
       <path id="DejaVuSans-Bold-6e" d="M 4056 2131 
L 4056 0 
L 2931 0 
L 2931 347 
L 2931 1631 
Q 2931 2084 2911 2256 
Q 2891 2428 2841 2509 
Q 2775 2619 2662 2680 
Q 2550 2741 2406 2741 
Q 2056 2741 1856 2470 
Q 1656 2200 1656 1722 
L 1656 0 
L 538 0 
L 538 3500 
L 1656 3500 
L 1656 2988 
Q 1909 3294 2193 3439 
Q 2478 3584 2822 3584 
Q 3428 3584 3742 3212 
Q 4056 2841 4056 2131 
z
" transform="scale(0.015625)"/>
       <path id="DejaVuSans-Bold-4d" d="M 588 4666 
L 2119 4666 
L 3181 2169 
L 4250 4666 
L 5778 4666 
L 5778 0 
L 4641 0 
L 4641 3413 
L 3566 897 
L 2803 897 
L 1728 3413 
L 1728 0 
L 588 0 
L 588 4666 
z
" transform="scale(0.015625)"/>
      </defs>
      <use xlink:href="#DejaVuSans-Bold-4c"/>
      <use xlink:href="#DejaVuSans-Bold-6f" transform="translate(63.720703 0)"/>
      <use xlink:href="#DejaVuSans-Bold-73" transform="translate(132.421875 0)"/>
      <use xlink:href="#DejaVuSans-Bold-61" transform="translate(191.943359 0)"/>
      <use xlink:href="#DejaVuSans-Bold-72" transform="translate(259.423828 0)"/>
      <use xlink:href="#DejaVuSans-Bold-74" transform="translate(308.740234 0)"/>
      <use xlink:href="#DejaVuSans-Bold-61" transform="translate(356.542969 0)"/>
      <use xlink:href="#DejaVuSans-Bold-6e" transform="translate(424.023438 0)"/>
      <use xlink:href="#DejaVuSans-Bold-20" transform="translate(495.214844 0)"/>
      <use xlink:href="#DejaVuSans-Bold-5b" transform="translate(530.029297 0)"/>
      <use xlink:href="#DejaVuSans-Bold-6e" transform="translate(575.732422 0)"/>
      <use xlink:href="#DejaVuSans-Bold-4d" transform="translate(646.923828 0)"/>
      <use xlink:href="#DejaVuSans-Bold-5d" transform="translate(746.435547 0)"/>
     </g>
    </g>
   </g>
   <g id="LineCollection_1">
    <path clip-path="url(#pddaf7a4318)" style="fill: none; stroke: #000000"/>
    <path d="M 96.085088 257.036262 
L 96.085088 244.08001 
" clip-path="url(#pddaf7a4318)" style="fill: none; stroke: #000000"/>
    <path d="M 97.505452 275.346479 
L 97.505452 185.496635 
" clip-path="url(#pddaf7a4318)" style="fill: none; stroke: #000000"/>
    <path d="M 99.014588 271.264783 
L 99.014588 185.921701 
" clip-path="url(#pddaf7a4318)" style="fill: none; stroke: #000000"/>
    <path d="M 99.547224 259.156178 
L 99.547224 170.714109 
" clip-path="url(#pddaf7a4318)" style="fill: none; stroke: #000000"/>
    <path d="M 103.453224 249.724954 
L 103.453224 159.874933 
" clip-path="url(#pddaf7a4318)" style="fill: none; stroke: #000000"/>
    <path d="M 106.382724 236.350647 
L 106.382724 119.461121 
" clip-path="url(#pddaf7a4318)" style="fill: none; stroke: #000000"/>
    <path d="M 109.400997 228.328175 
L 109.400997 147.209483 
" clip-path="url(#pddaf7a4318)" style="fill: none; stroke: #000000"/>
    <path d="M 112.330497 222.277067 
L 112.330497 171.859479 
" clip-path="url(#pddaf7a4318)" style="fill: none; stroke: #000000"/>
    <path d="M 116.769134 223.692296 
L 116.769134 160.88178 
" clip-path="url(#pddaf7a4318)" style="fill: none; stroke: #000000"/>
    <path d="M 121.20777 232.853305 
L 121.20777 178.774473 
" clip-path="url(#pddaf7a4318)" style="fill: none; stroke: #000000"/>
    <path d="M 130.085043 241.458357 
L 130.085043 203.715538 
" clip-path="url(#pddaf7a4318)" style="fill: none; stroke: #000000"/>
    <path d="M 147.839588 256.27354 
L 147.839588 220.502528 
" clip-path="url(#pddaf7a4318)" style="fill: none; stroke: #000000"/>
    <path d="M 165.594134 247.260371 
L 165.594134 245.063341 
" clip-path="url(#pddaf7a4318)" style="fill: none; stroke: #000000"/>
    <path d="M 201.103224 253.119091 
L 201.103224 248.612329 
" clip-path="url(#pddaf7a4318)" style="fill: none; stroke: #000000"/>
    <path clip-path="url(#pddaf7a4318)" style="fill: none; stroke: #000000"/>
    <path clip-path="url(#pddaf7a4318)" style="fill: none; stroke: #000000"/>
   </g>
   <g id="LineCollection_2">
    <path clip-path="url(#pddaf7a4318)" style="fill: none; stroke: #1f77b4"/>
    <path d="M 96.085088 271.682927 
L 96.085088 215.350448 
" clip-path="url(#pddaf7a4318)" style="fill: none; stroke: #1f77b4"/>
    <path d="M 97.505452 309.286957 
L 97.505452 135.220145 
" clip-path="url(#pddaf7a4318)" style="fill: none; stroke: #1f77b4"/>
    <path d="M 99.014588 294.924793 
L 99.014588 90.156522 
" clip-path="url(#pddaf7a4318)" style="fill: none; stroke: #1f77b4"/>
    <path d="M 99.547224 238.313137 
L 99.547224 90.159006 
" clip-path="url(#pddaf7a4318)" style="fill: none; stroke: #1f77b4"/>
    <path d="M 103.453224 240.430302 
L 103.453224 102.979308 
" clip-path="url(#pddaf7a4318)" style="fill: none; stroke: #1f77b4"/>
    <path d="M 106.382724 227.196825 
L 106.382724 119.32029 
" clip-path="url(#pddaf7a4318)" style="fill: none; stroke: #1f77b4"/>
    <path d="M 109.400997 199.457959 
L 109.400997 151.012002 
" clip-path="url(#pddaf7a4318)" style="fill: none; stroke: #1f77b4"/>
    <path d="M 112.330497 213.123068 
L 112.330497 140.73606 
" clip-path="url(#pddaf7a4318)" style="fill: none; stroke: #1f77b4"/>
    <path d="M 116.769134 223.411078 
L 116.769134 177.49972 
" clip-path="url(#pddaf7a4318)" style="fill: none; stroke: #1f77b4"/>
    <path d="M 121.20777 232.994402 
L 121.20777 196.378229 
" clip-path="url(#pddaf7a4318)" style="fill: none; stroke: #1f77b4"/>
    <path d="M 130.085043 238.078331 
L 130.085043 214.700248 
" clip-path="url(#pddaf7a4318)" style="fill: none; stroke: #1f77b4"/>
    <path d="M 147.839588 249.091083 
L 147.839588 237.261299 
" clip-path="url(#pddaf7a4318)" style="fill: none; stroke: #1f77b4"/>
    <path d="M 165.594134 264.188104 
L 165.594134 216.305825 
" clip-path="url(#pddaf7a4318)" style="fill: none; stroke: #1f77b4"/>
    <path d="M 201.103224 252.837518 
L 201.103224 248.612063 
" clip-path="url(#pddaf7a4318)" style="fill: none; stroke: #1f77b4"/>
    <path clip-path="url(#pddaf7a4318)" style="fill: none; stroke: #1f77b4"/>
    <path clip-path="url(#pddaf7a4318)" style="fill: none; stroke: #1f77b4"/>
   </g>
   <g id="line2d_13">
    <path d="M 94.575952 251.964136 
L 95.286134 251.040968 
L 95.996315 246.85698 
L 96.706497 239.685006 
L 100.257406 195.533884 
L 100.967588 189.457507 
L 101.67777 184.796481 
L 102.387952 181.502841 
L 103.098134 179.466994 
L 103.808315 178.543866 
L 104.518497 178.572459 
L 105.228679 179.389815 
L 105.938861 180.840418 
L 106.649043 182.782003 
L 108.069406 187.651924 
L 114.461043 211.788207 
L 115.881406 216.11864 
L 117.30177 219.937011 
L 118.722134 223.267984 
L 120.142497 226.151354 
L 121.562861 228.633356 
L 122.983224 230.761404 
L 124.403588 232.581074 
L 125.823952 234.134497 
L 127.954497 236.047275 
L 130.085043 237.555272 
L 132.215588 238.747682 
L 134.346134 239.695584 
L 137.186861 240.673922 
L 140.027588 241.415137 
L 143.578497 242.113678 
L 148.54977 242.823313 
L 154.941406 243.481277 
L 164.883952 244.245651 
L 180.507952 245.2001 
L 202.523588 246.314943 
L 227.379952 247.350955 
L 255.077043 248.283086 
L 286.325043 249.110707 
L 322.544315 249.840124 
L 364.445043 250.454659 
L 414.867952 250.963404 
L 449.666861 251.210577 
L 449.666861 251.210577 
" clip-path="url(#pddaf7a4318)" style="fill: none; stroke: #000000; stroke-width: 2; stroke-linecap: square"/>
   </g>
   <g id="line2d_14">
    <path d="M 94.575952 251.964136 
L 96.085088 250.558136 
L 97.505452 230.421557 
L 99.014588 228.593242 
L 99.547224 214.935143 
L 103.453224 204.799943 
L 106.382724 177.905884 
L 109.400997 187.768829 
L 112.330497 197.068273 
L 116.769134 192.287038 
L 121.20777 205.813889 
L 130.085043 222.586948 
L 147.839588 238.388034 
L 165.594134 246.161856 
L 201.103224 250.86571 
L 307.630497 251.964136 
L 414.15777 251.964136 
" clip-path="url(#pddaf7a4318)" style="fill: none; stroke-dasharray: 3.7,1.6; stroke-dashoffset: 0; stroke: #000000"/>
    <defs>
     <path id="m3231576d1f" d="M -3 3 
L 3 3 
L 3 -3 
L -3 -3 
z
" style="stroke: #000000; stroke-linejoin: miter"/>
    </defs>
    <g clip-path="url(#pddaf7a4318)">
     <use xlink:href="#m3231576d1f" x="94.575952" y="251.964136" style="stroke: #000000; stroke-linejoin: miter"/>
     <use xlink:href="#m3231576d1f" x="96.085088" y="250.558136" style="stroke: #000000; stroke-linejoin: miter"/>
     <use xlink:href="#m3231576d1f" x="97.505452" y="230.421557" style="stroke: #000000; stroke-linejoin: miter"/>
     <use xlink:href="#m3231576d1f" x="99.014588" y="228.593242" style="stroke: #000000; stroke-linejoin: miter"/>
     <use xlink:href="#m3231576d1f" x="99.547224" y="214.935143" style="stroke: #000000; stroke-linejoin: miter"/>
     <use xlink:href="#m3231576d1f" x="103.453224" y="204.799943" style="stroke: #000000; stroke-linejoin: miter"/>
     <use xlink:href="#m3231576d1f" x="106.382724" y="177.905884" style="stroke: #000000; stroke-linejoin: miter"/>
     <use xlink:href="#m3231576d1f" x="109.400997" y="187.768829" style="stroke: #000000; stroke-linejoin: miter"/>
     <use xlink:href="#m3231576d1f" x="112.330497" y="197.068273" style="stroke: #000000; stroke-linejoin: miter"/>
     <use xlink:href="#m3231576d1f" x="116.769134" y="192.287038" style="stroke: #000000; stroke-linejoin: miter"/>
     <use xlink:href="#m3231576d1f" x="121.20777" y="205.813889" style="stroke: #000000; stroke-linejoin: miter"/>
     <use xlink:href="#m3231576d1f" x="130.085043" y="222.586948" style="stroke: #000000; stroke-linejoin: miter"/>
     <use xlink:href="#m3231576d1f" x="147.839588" y="238.388034" style="stroke: #000000; stroke-linejoin: miter"/>
     <use xlink:href="#m3231576d1f" x="165.594134" y="246.161856" style="stroke: #000000; stroke-linejoin: miter"/>
     <use xlink:href="#m3231576d1f" x="201.103224" y="250.86571" style="stroke: #000000; stroke-linejoin: miter"/>
     <use xlink:href="#m3231576d1f" x="307.630497" y="251.964136" style="stroke: #000000; stroke-linejoin: miter"/>
     <use xlink:href="#m3231576d1f" x="414.15777" y="251.964136" style="stroke: #000000; stroke-linejoin: miter"/>
    </g>
   </g>
   <g id="line2d_15">
    <path d="M 94.575952 251.964136 
L 96.085088 243.516687 
L 97.505452 222.253551 
L 99.014588 192.540657 
L 99.547224 164.236072 
L 103.453224 171.704805 
L 106.382724 173.258558 
L 109.400997 175.23498 
L 112.330497 176.929564 
L 116.769134 200.455399 
L 121.20777 214.686316 
L 130.085043 226.389289 
L 147.839588 243.176191 
L 165.594134 240.246964 
L 201.103224 250.72479 
L 307.630497 251.964136 
L 414.15777 251.964136 
" clip-path="url(#pddaf7a4318)" style="fill: none; stroke-dasharray: 3.7,1.6; stroke-dashoffset: 0; stroke: #1f77b4"/>
    <defs>
     <path id="m3c827ee7ad" d="M 0 3 
C 0.795609 3 1.55874 2.683901 2.12132 2.12132 
C 2.683901 1.55874 3 0.795609 3 0 
C 3 -0.795609 2.683901 -1.55874 2.12132 -2.12132 
C 1.55874 -2.683901 0.795609 -3 0 -3 
C -0.795609 -3 -1.55874 -2.683901 -2.12132 -2.12132 
C -2.683901 -1.55874 -3 -0.795609 -3 0 
C -3 0.795609 -2.683901 1.55874 -2.12132 2.12132 
C -1.55874 2.683901 -0.795609 3 0 3 
z
" style="stroke: #000000"/>
    </defs>
    <g clip-path="url(#pddaf7a4318)">
     <use xlink:href="#m3c827ee7ad" x="94.575952" y="251.964136" style="fill: #1f77b4; stroke: #000000"/>
     <use xlink:href="#m3c827ee7ad" x="96.085088" y="243.516687" style="fill: #1f77b4; stroke: #000000"/>
     <use xlink:href="#m3c827ee7ad" x="97.505452" y="222.253551" style="fill: #1f77b4; stroke: #000000"/>
     <use xlink:href="#m3c827ee7ad" x="99.014588" y="192.540657" style="fill: #1f77b4; stroke: #000000"/>
     <use xlink:href="#m3c827ee7ad" x="99.547224" y="164.236072" style="fill: #1f77b4; stroke: #000000"/>
     <use xlink:href="#m3c827ee7ad" x="103.453224" y="171.704805" style="fill: #1f77b4; stroke: #000000"/>
     <use xlink:href="#m3c827ee7ad" x="106.382724" y="173.258558" style="fill: #1f77b4; stroke: #000000"/>
     <use xlink:href="#m3c827ee7ad" x="109.400997" y="175.23498" style="fill: #1f77b4; stroke: #000000"/>
     <use xlink:href="#m3c827ee7ad" x="112.330497" y="176.929564" style="fill: #1f77b4; stroke: #000000"/>
     <use xlink:href="#m3c827ee7ad" x="116.769134" y="200.455399" style="fill: #1f77b4; stroke: #000000"/>
     <use xlink:href="#m3c827ee7ad" x="121.20777" y="214.686316" style="fill: #1f77b4; stroke: #000000"/>
     <use xlink:href="#m3c827ee7ad" x="130.085043" y="226.389289" style="fill: #1f77b4; stroke: #000000"/>
     <use xlink:href="#m3c827ee7ad" x="147.839588" y="243.176191" style="fill: #1f77b4; stroke: #000000"/>
     <use xlink:href="#m3c827ee7ad" x="165.594134" y="240.246964" style="fill: #1f77b4; stroke: #000000"/>
     <use xlink:href="#m3c827ee7ad" x="201.103224" y="250.72479" style="fill: #1f77b4; stroke: #000000"/>
     <use xlink:href="#m3c827ee7ad" x="307.630497" y="251.964136" style="fill: #1f77b4; stroke: #000000"/>
     <use xlink:href="#m3c827ee7ad" x="414.15777" y="251.964136" style="fill: #1f77b4; stroke: #000000"/>
    </g>
   </g>
   <g id="patch_3">
    <path d="M 76.821406 320.243478 
L 76.821406 79.2 
" style="fill: none; stroke: #000000; stroke-width: 0.8; stroke-linejoin: miter; stroke-linecap: square"/>
   </g>
   <g id="patch_4">
    <path d="M 467.421406 320.243478 
L 467.421406 79.2 
" style="fill: none; stroke: #000000; stroke-width: 0.8; stroke-linejoin: miter; stroke-linecap: square"/>
   </g>
   <g id="patch_5">
    <path d="M 76.821406 320.243478 
L 467.421406 320.243478 
" style="fill: none; stroke: #000000; stroke-width: 0.8; stroke-linejoin: miter; stroke-linecap: square"/>
   </g>
   <g id="patch_6">
    <path d="M 76.821406 79.2 
L 467.421406 79.2 
" style="fill: none; stroke: #000000; stroke-width: 0.8; stroke-linejoin: miter; stroke-linecap: square"/>
   </g>
   <g id="legend_1">
    <g id="patch_7">
     <path d="M 268.862031 131.234375 
L 460.421406 131.234375 
Q 462.421406 131.234375 462.421406 129.234375 
L 462.421406 86.2 
Q 462.421406 84.2 460.421406 84.2 
L 268.862031 84.2 
Q 266.862031 84.2 266.862031 86.2 
L 266.862031 129.234375 
Q 266.862031 131.234375 268.862031 131.234375 
z
" style="fill: #ffffff; opacity: 0.8; stroke: #cccccc; stroke-linejoin: miter"/>
    </g>
    <g id="line2d_16">
     <path d="M 270.862031 92.298437 
L 290.862031 92.298437 
" style="fill: none; stroke: #000000; stroke-width: 2; stroke-linecap: square"/>
    </g>
    <g id="line2d_17"/>
    <g id="text_15">
     <!-- Sim 50 mg -->
     <g transform="translate(298.862031 95.798437) scale(0.1 -0.1)">
      <defs>
       <path id="DejaVuSans-53" d="M 3425 4513 
L 3425 3897 
Q 3066 4069 2747 4153 
Q 2428 4238 2131 4238 
Q 1616 4238 1336 4038 
Q 1056 3838 1056 3469 
Q 1056 3159 1242 3001 
Q 1428 2844 1947 2747 
L 2328 2669 
Q 3034 2534 3370 2195 
Q 3706 1856 3706 1288 
Q 3706 609 3251 259 
Q 2797 -91 1919 -91 
Q 1588 -91 1214 -16 
Q 841 59 441 206 
L 441 856 
Q 825 641 1194 531 
Q 1563 422 1919 422 
Q 2459 422 2753 634 
Q 3047 847 3047 1241 
Q 3047 1584 2836 1778 
Q 2625 1972 2144 2069 
L 1759 2144 
Q 1053 2284 737 2584 
Q 422 2884 422 3419 
Q 422 4038 858 4394 
Q 1294 4750 2059 4750 
Q 2388 4750 2728 4690 
Q 3069 4631 3425 4513 
z
" transform="scale(0.015625)"/>
       <path id="DejaVuSans-69" d="M 603 3500 
L 1178 3500 
L 1178 0 
L 603 0 
L 603 3500 
z
M 603 4863 
L 1178 4863 
L 1178 4134 
L 603 4134 
L 603 4863 
z
" transform="scale(0.015625)"/>
       <path id="DejaVuSans-6d" d="M 3328 2828 
Q 3544 3216 3844 3400 
Q 4144 3584 4550 3584 
Q 5097 3584 5394 3201 
Q 5691 2819 5691 2113 
L 5691 0 
L 5113 0 
L 5113 2094 
Q 5113 2597 4934 2840 
Q 4756 3084 4391 3084 
Q 3944 3084 3684 2787 
Q 3425 2491 3425 1978 
L 3425 0 
L 2847 0 
L 2847 2094 
Q 2847 2600 2669 2842 
Q 2491 3084 2119 3084 
Q 1678 3084 1418 2786 
Q 1159 2488 1159 1978 
L 1159 0 
L 581 0 
L 581 3500 
L 1159 3500 
L 1159 2956 
Q 1356 3278 1631 3431 
Q 1906 3584 2284 3584 
Q 2666 3584 2933 3390 
Q 3200 3197 3328 2828 
z
" transform="scale(0.015625)"/>
       <path id="DejaVuSans-20" transform="scale(0.015625)"/>
       <path id="DejaVuSans-35" d="M 691 4666 
L 3169 4666 
L 3169 4134 
L 1269 4134 
L 1269 2991 
Q 1406 3038 1543 3061 
Q 1681 3084 1819 3084 
Q 2600 3084 3056 2656 
Q 3513 2228 3513 1497 
Q 3513 744 3044 326 
Q 2575 -91 1722 -91 
Q 1428 -91 1123 -41 
Q 819 9 494 109 
L 494 744 
Q 775 591 1075 516 
Q 1375 441 1709 441 
Q 2250 441 2565 725 
Q 2881 1009 2881 1497 
Q 2881 1984 2565 2268 
Q 2250 2553 1709 2553 
Q 1456 2553 1204 2497 
Q 953 2441 691 2322 
L 691 4666 
z
" transform="scale(0.015625)"/>
       <path id="DejaVuSans-67" d="M 2906 1791 
Q 2906 2416 2648 2759 
Q 2391 3103 1925 3103 
Q 1463 3103 1205 2759 
Q 947 2416 947 1791 
Q 947 1169 1205 825 
Q 1463 481 1925 481 
Q 2391 481 2648 825 
Q 2906 1169 2906 1791 
z
M 3481 434 
Q 3481 -459 3084 -895 
Q 2688 -1331 1869 -1331 
Q 1566 -1331 1297 -1286 
Q 1028 -1241 775 -1147 
L 775 -588 
Q 1028 -725 1275 -790 
Q 1522 -856 1778 -856 
Q 2344 -856 2625 -561 
Q 2906 -266 2906 331 
L 2906 616 
Q 2728 306 2450 153 
Q 2172 0 1784 0 
Q 1141 0 747 490 
Q 353 981 353 1791 
Q 353 2603 747 3093 
Q 1141 3584 1784 3584 
Q 2172 3584 2450 3431 
Q 2728 3278 2906 2969 
L 2906 3500 
L 3481 3500 
L 3481 434 
z
" transform="scale(0.015625)"/>
      </defs>
      <use xlink:href="#DejaVuSans-53"/>
      <use xlink:href="#DejaVuSans-69" transform="translate(63.476562 0)"/>
      <use xlink:href="#DejaVuSans-6d" transform="translate(91.259766 0)"/>
      <use xlink:href="#DejaVuSans-20" transform="translate(188.671875 0)"/>
      <use xlink:href="#DejaVuSans-35" transform="translate(220.458984 0)"/>
      <use xlink:href="#DejaVuSans-30" transform="translate(284.082031 0)"/>
      <use xlink:href="#DejaVuSans-20" transform="translate(347.705078 0)"/>
      <use xlink:href="#DejaVuSans-6d" transform="translate(379.492188 0)"/>
      <use xlink:href="#DejaVuSans-67" transform="translate(476.904297 0)"/>
     </g>
    </g>
    <g id="LineCollection_3">
     <path d="M 280.862031 111.976562 
L 280.862031 101.976562 
" style="fill: none; stroke: #000000"/>
    </g>
    <g id="line2d_18">
     <path d="M 270.862031 106.976562 
L 290.862031 106.976562 
" style="fill: none; stroke-dasharray: 3.7,1.6; stroke-dashoffset: 0; stroke: #000000"/>
    </g>
    <g id="line2d_19">
     <g>
      <use xlink:href="#m3231576d1f" x="280.862031" y="106.976562" style="stroke: #000000; stroke-linejoin: miter"/>
     </g>
    </g>
    <g id="text_16">
     <!-- placebo 50 mg±SD (n=11) -->
     <g transform="translate(298.862031 110.476562) scale(0.1 -0.1)">
      <defs>
       <path id="DejaVuSans-70" d="M 1159 525 
L 1159 -1331 
L 581 -1331 
L 581 3500 
L 1159 3500 
L 1159 2969 
Q 1341 3281 1617 3432 
Q 1894 3584 2278 3584 
Q 2916 3584 3314 3078 
Q 3713 2572 3713 1747 
Q 3713 922 3314 415 
Q 2916 -91 2278 -91 
Q 1894 -91 1617 61 
Q 1341 213 1159 525 
z
M 3116 1747 
Q 3116 2381 2855 2742 
Q 2594 3103 2138 3103 
Q 1681 3103 1420 2742 
Q 1159 2381 1159 1747 
Q 1159 1113 1420 752 
Q 1681 391 2138 391 
Q 2594 391 2855 752 
Q 3116 1113 3116 1747 
z
" transform="scale(0.015625)"/>
       <path id="DejaVuSans-6c" d="M 603 4863 
L 1178 4863 
L 1178 0 
L 603 0 
L 603 4863 
z
" transform="scale(0.015625)"/>
       <path id="DejaVuSans-61" d="M 2194 1759 
Q 1497 1759 1228 1600 
Q 959 1441 959 1056 
Q 959 750 1161 570 
Q 1363 391 1709 391 
Q 2188 391 2477 730 
Q 2766 1069 2766 1631 
L 2766 1759 
L 2194 1759 
z
M 3341 1997 
L 3341 0 
L 2766 0 
L 2766 531 
Q 2569 213 2275 61 
Q 1981 -91 1556 -91 
Q 1019 -91 701 211 
Q 384 513 384 1019 
Q 384 1609 779 1909 
Q 1175 2209 1959 2209 
L 2766 2209 
L 2766 2266 
Q 2766 2663 2505 2880 
Q 2244 3097 1772 3097 
Q 1472 3097 1187 3025 
Q 903 2953 641 2809 
L 641 3341 
Q 956 3463 1253 3523 
Q 1550 3584 1831 3584 
Q 2591 3584 2966 3190 
Q 3341 2797 3341 1997 
z
" transform="scale(0.015625)"/>
       <path id="DejaVuSans-63" d="M 3122 3366 
L 3122 2828 
Q 2878 2963 2633 3030 
Q 2388 3097 2138 3097 
Q 1578 3097 1268 2742 
Q 959 2388 959 1747 
Q 959 1106 1268 751 
Q 1578 397 2138 397 
Q 2388 397 2633 464 
Q 2878 531 3122 666 
L 3122 134 
Q 2881 22 2623 -34 
Q 2366 -91 2075 -91 
Q 1284 -91 818 406 
Q 353 903 353 1747 
Q 353 2603 823 3093 
Q 1294 3584 2113 3584 
Q 2378 3584 2631 3529 
Q 2884 3475 3122 3366 
z
" transform="scale(0.015625)"/>
       <path id="DejaVuSans-65" d="M 3597 1894 
L 3597 1613 
L 953 1613 
Q 991 1019 1311 708 
Q 1631 397 2203 397 
Q 2534 397 2845 478 
Q 3156 559 3463 722 
L 3463 178 
Q 3153 47 2828 -22 
Q 2503 -91 2169 -91 
Q 1331 -91 842 396 
Q 353 884 353 1716 
Q 353 2575 817 3079 
Q 1281 3584 2069 3584 
Q 2775 3584 3186 3129 
Q 3597 2675 3597 1894 
z
M 3022 2063 
Q 3016 2534 2758 2815 
Q 2500 3097 2075 3097 
Q 1594 3097 1305 2825 
Q 1016 2553 972 2059 
L 3022 2063 
z
" transform="scale(0.015625)"/>
       <path id="DejaVuSans-62" d="M 3116 1747 
Q 3116 2381 2855 2742 
Q 2594 3103 2138 3103 
Q 1681 3103 1420 2742 
Q 1159 2381 1159 1747 
Q 1159 1113 1420 752 
Q 1681 391 2138 391 
Q 2594 391 2855 752 
Q 3116 1113 3116 1747 
z
M 1159 2969 
Q 1341 3281 1617 3432 
Q 1894 3584 2278 3584 
Q 2916 3584 3314 3078 
Q 3713 2572 3713 1747 
Q 3713 922 3314 415 
Q 2916 -91 2278 -91 
Q 1894 -91 1617 61 
Q 1341 213 1159 525 
L 1159 0 
L 581 0 
L 581 4863 
L 1159 4863 
L 1159 2969 
z
" transform="scale(0.015625)"/>
       <path id="DejaVuSans-6f" d="M 1959 3097 
Q 1497 3097 1228 2736 
Q 959 2375 959 1747 
Q 959 1119 1226 758 
Q 1494 397 1959 397 
Q 2419 397 2687 759 
Q 2956 1122 2956 1747 
Q 2956 2369 2687 2733 
Q 2419 3097 1959 3097 
z
M 1959 3584 
Q 2709 3584 3137 3096 
Q 3566 2609 3566 1747 
Q 3566 888 3137 398 
Q 2709 -91 1959 -91 
Q 1206 -91 779 398 
Q 353 888 353 1747 
Q 353 2609 779 3096 
Q 1206 3584 1959 3584 
z
" transform="scale(0.015625)"/>
       <path id="DejaVuSans-b1" d="M 2944 4013 
L 2944 2803 
L 4684 2803 
L 4684 2272 
L 2944 2272 
L 2944 1063 
L 2419 1063 
L 2419 2272 
L 678 2272 
L 678 2803 
L 2419 2803 
L 2419 4013 
L 2944 4013 
z
M 678 531 
L 4684 531 
L 4684 0 
L 678 0 
L 678 531 
z
" transform="scale(0.015625)"/>
       <path id="DejaVuSans-44" d="M 1259 4147 
L 1259 519 
L 2022 519 
Q 2988 519 3436 956 
Q 3884 1394 3884 2338 
Q 3884 3275 3436 3711 
Q 2988 4147 2022 4147 
L 1259 4147 
z
M 628 4666 
L 1925 4666 
Q 3281 4666 3915 4102 
Q 4550 3538 4550 2338 
Q 4550 1131 3912 565 
Q 3275 0 1925 0 
L 628 0 
L 628 4666 
z
" transform="scale(0.015625)"/>
       <path id="DejaVuSans-28" d="M 1984 4856 
Q 1566 4138 1362 3434 
Q 1159 2731 1159 2009 
Q 1159 1288 1364 580 
Q 1569 -128 1984 -844 
L 1484 -844 
Q 1016 -109 783 600 
Q 550 1309 550 2009 
Q 550 2706 781 3412 
Q 1013 4119 1484 4856 
L 1984 4856 
z
" transform="scale(0.015625)"/>
       <path id="DejaVuSans-6e" d="M 3513 2113 
L 3513 0 
L 2938 0 
L 2938 2094 
Q 2938 2591 2744 2837 
Q 2550 3084 2163 3084 
Q 1697 3084 1428 2787 
Q 1159 2491 1159 1978 
L 1159 0 
L 581 0 
L 581 3500 
L 1159 3500 
L 1159 2956 
Q 1366 3272 1645 3428 
Q 1925 3584 2291 3584 
Q 2894 3584 3203 3211 
Q 3513 2838 3513 2113 
z
" transform="scale(0.015625)"/>
       <path id="DejaVuSans-3d" d="M 678 2906 
L 4684 2906 
L 4684 2381 
L 678 2381 
L 678 2906 
z
M 678 1631 
L 4684 1631 
L 4684 1100 
L 678 1100 
L 678 1631 
z
" transform="scale(0.015625)"/>
       <path id="DejaVuSans-29" d="M 513 4856 
L 1013 4856 
Q 1481 4119 1714 3412 
Q 1947 2706 1947 2009 
Q 1947 1309 1714 600 
Q 1481 -109 1013 -844 
L 513 -844 
Q 928 -128 1133 580 
Q 1338 1288 1338 2009 
Q 1338 2731 1133 3434 
Q 928 4138 513 4856 
z
" transform="scale(0.015625)"/>
      </defs>
      <use xlink:href="#DejaVuSans-70"/>
      <use xlink:href="#DejaVuSans-6c" transform="translate(63.476562 0)"/>
      <use xlink:href="#DejaVuSans-61" transform="translate(91.259766 0)"/>
      <use xlink:href="#DejaVuSans-63" transform="translate(152.539062 0)"/>
      <use xlink:href="#DejaVuSans-65" transform="translate(207.519531 0)"/>
      <use xlink:href="#DejaVuSans-62" transform="translate(269.042969 0)"/>
      <use xlink:href="#DejaVuSans-6f" transform="translate(332.519531 0)"/>
      <use xlink:href="#DejaVuSans-20" transform="translate(393.701172 0)"/>
      <use xlink:href="#DejaVuSans-35" transform="translate(425.488281 0)"/>
      <use xlink:href="#DejaVuSans-30" transform="translate(489.111328 0)"/>
      <use xlink:href="#DejaVuSans-20" transform="translate(552.734375 0)"/>
      <use xlink:href="#DejaVuSans-6d" transform="translate(584.521484 0)"/>
      <use xlink:href="#DejaVuSans-67" transform="translate(681.933594 0)"/>
      <use xlink:href="#DejaVuSans-b1" transform="translate(745.410156 0)"/>
      <use xlink:href="#DejaVuSans-53" transform="translate(829.199219 0)"/>
      <use xlink:href="#DejaVuSans-44" transform="translate(892.675781 0)"/>
      <use xlink:href="#DejaVuSans-20" transform="translate(969.677734 0)"/>
      <use xlink:href="#DejaVuSans-28" transform="translate(1001.464844 0)"/>
      <use xlink:href="#DejaVuSans-6e" transform="translate(1040.478516 0)"/>
      <use xlink:href="#DejaVuSans-3d" transform="translate(1103.857422 0)"/>
      <use xlink:href="#DejaVuSans-31" transform="translate(1187.646484 0)"/>
      <use xlink:href="#DejaVuSans-31" transform="translate(1251.269531 0)"/>
      <use xlink:href="#DejaVuSans-29" transform="translate(1314.892578 0)"/>
     </g>
    </g>
    <g id="LineCollection_4">
     <path d="M 280.862031 126.654687 
L 280.862031 116.654687 
" style="fill: none; stroke: #1f77b4"/>
    </g>
    <g id="line2d_20">
     <path d="M 270.862031 121.654687 
L 290.862031 121.654687 
" style="fill: none; stroke-dasharray: 3.7,1.6; stroke-dashoffset: 0; stroke: #1f77b4"/>
    </g>
    <g id="line2d_21">
     <g>
      <use xlink:href="#m3c827ee7ad" x="280.862031" y="121.654687" style="fill: #1f77b4; stroke: #000000"/>
     </g>
    </g>
    <g id="text_17">
     <!-- breviscapine 50 mg±SD (n=11) -->
     <g transform="translate(298.862031 125.154687) scale(0.1 -0.1)">
      <defs>
       <path id="DejaVuSans-72" d="M 2631 2963 
Q 2534 3019 2420 3045 
Q 2306 3072 2169 3072 
Q 1681 3072 1420 2755 
Q 1159 2438 1159 1844 
L 1159 0 
L 581 0 
L 581 3500 
L 1159 3500 
L 1159 2956 
Q 1341 3275 1631 3429 
Q 1922 3584 2338 3584 
Q 2397 3584 2469 3576 
Q 2541 3569 2628 3553 
L 2631 2963 
z
" transform="scale(0.015625)"/>
       <path id="DejaVuSans-76" d="M 191 3500 
L 800 3500 
L 1894 563 
L 2988 3500 
L 3597 3500 
L 2284 0 
L 1503 0 
L 191 3500 
z
" transform="scale(0.015625)"/>
       <path id="DejaVuSans-73" d="M 2834 3397 
L 2834 2853 
Q 2591 2978 2328 3040 
Q 2066 3103 1784 3103 
Q 1356 3103 1142 2972 
Q 928 2841 928 2578 
Q 928 2378 1081 2264 
Q 1234 2150 1697 2047 
L 1894 2003 
Q 2506 1872 2764 1633 
Q 3022 1394 3022 966 
Q 3022 478 2636 193 
Q 2250 -91 1575 -91 
Q 1294 -91 989 -36 
Q 684 19 347 128 
L 347 722 
Q 666 556 975 473 
Q 1284 391 1588 391 
Q 1994 391 2212 530 
Q 2431 669 2431 922 
Q 2431 1156 2273 1281 
Q 2116 1406 1581 1522 
L 1381 1569 
Q 847 1681 609 1914 
Q 372 2147 372 2553 
Q 372 3047 722 3315 
Q 1072 3584 1716 3584 
Q 2034 3584 2315 3537 
Q 2597 3491 2834 3397 
z
" transform="scale(0.015625)"/>
      </defs>
      <use xlink:href="#DejaVuSans-62"/>
      <use xlink:href="#DejaVuSans-72" transform="translate(63.476562 0)"/>
      <use xlink:href="#DejaVuSans-65" transform="translate(102.339844 0)"/>
      <use xlink:href="#DejaVuSans-76" transform="translate(163.863281 0)"/>
      <use xlink:href="#DejaVuSans-69" transform="translate(223.042969 0)"/>
      <use xlink:href="#DejaVuSans-73" transform="translate(250.826172 0)"/>
      <use xlink:href="#DejaVuSans-63" transform="translate(302.925781 0)"/>
      <use xlink:href="#DejaVuSans-61" transform="translate(357.90625 0)"/>
      <use xlink:href="#DejaVuSans-70" transform="translate(419.185547 0)"/>
      <use xlink:href="#DejaVuSans-69" transform="translate(482.662109 0)"/>
      <use xlink:href="#DejaVuSans-6e" transform="translate(510.445312 0)"/>
      <use xlink:href="#DejaVuSans-65" transform="translate(573.824219 0)"/>
      <use xlink:href="#DejaVuSans-20" transform="translate(635.347656 0)"/>
      <use xlink:href="#DejaVuSans-35" transform="translate(667.134766 0)"/>
      <use xlink:href="#DejaVuSans-30" transform="translate(730.757812 0)"/>
      <use xlink:href="#DejaVuSans-20" transform="translate(794.380859 0)"/>
      <use xlink:href="#DejaVuSans-6d" transform="translate(826.167969 0)"/>
      <use xlink:href="#DejaVuSans-67" transform="translate(923.580078 0)"/>
      <use xlink:href="#DejaVuSans-b1" transform="translate(987.056641 0)"/>
      <use xlink:href="#DejaVuSans-53" transform="translate(1070.845703 0)"/>
      <use xlink:href="#DejaVuSans-44" transform="translate(1134.322266 0)"/>
      <use xlink:href="#DejaVuSans-20" transform="translate(1211.324219 0)"/>
      <use xlink:href="#DejaVuSans-28" transform="translate(1243.111328 0)"/>
      <use xlink:href="#DejaVuSans-6e" transform="translate(1282.125 0)"/>
      <use xlink:href="#DejaVuSans-3d" transform="translate(1345.503906 0)"/>
      <use xlink:href="#DejaVuSans-31" transform="translate(1429.292969 0)"/>
      <use xlink:href="#DejaVuSans-31" transform="translate(1492.916016 0)"/>
      <use xlink:href="#DejaVuSans-29" transform="translate(1556.539062 0)"/>
     </g>
    </g>
   </g>
  </g>
  <g id="axes_2">
   <g id="patch_8">
    <path d="M 76.821406 633.6 
L 467.421406 633.6 
L 467.421406 392.556522 
L 76.821406 392.556522 
z
" style="fill: #ffffff"/>
   </g>
   <g id="matplotlib.axis_3">
    <g id="xtick_6">
     <g id="line2d_22">
      <g>
       <use xlink:href="#m9d55c5e2ca" x="94.575952" y="633.6" style="stroke: #000000; stroke-width: 0.8"/>
      </g>
     </g>
     <g id="text_18">
      <!-- 0 -->
      <g transform="translate(89.804077 651.997656) scale(0.15 -0.15)">
       <use xlink:href="#DejaVuSans-30"/>
      </g>
     </g>
    </g>
    <g id="xtick_7">
     <g id="line2d_23">
      <g>
       <use xlink:href="#m9d55c5e2ca" x="183.348679" y="633.6" style="stroke: #000000; stroke-width: 0.8"/>
      </g>
     </g>
     <g id="text_19">
      <!-- 10 -->
      <g transform="translate(173.804929 651.997656) scale(0.15 -0.15)">
       <use xlink:href="#DejaVuSans-31"/>
       <use xlink:href="#DejaVuSans-30" transform="translate(63.623047 0)"/>
      </g>
     </g>
    </g>
    <g id="xtick_8">
     <g id="line2d_24">
      <g>
       <use xlink:href="#m9d55c5e2ca" x="272.121406" y="633.6" style="stroke: #000000; stroke-width: 0.8"/>
      </g>
     </g>
     <g id="text_20">
      <!-- 20 -->
      <g transform="translate(262.577656 651.997656) scale(0.15 -0.15)">
       <use xlink:href="#DejaVuSans-32"/>
       <use xlink:href="#DejaVuSans-30" transform="translate(63.623047 0)"/>
      </g>
     </g>
    </g>
    <g id="xtick_9">
     <g id="line2d_25">
      <g>
       <use xlink:href="#m9d55c5e2ca" x="360.894134" y="633.6" style="stroke: #000000; stroke-width: 0.8"/>
      </g>
     </g>
     <g id="text_21">
      <!-- 30 -->
      <g transform="translate(351.350384 651.997656) scale(0.15 -0.15)">
       <use xlink:href="#DejaVuSans-33"/>
       <use xlink:href="#DejaVuSans-30" transform="translate(63.623047 0)"/>
      </g>
     </g>
    </g>
    <g id="xtick_10">
     <g id="line2d_26">
      <g>
       <use xlink:href="#m9d55c5e2ca" x="449.666861" y="633.6" style="stroke: #000000; stroke-width: 0.8"/>
      </g>
     </g>
     <g id="text_22">
      <!-- 40 -->
      <g transform="translate(440.123111 651.997656) scale(0.15 -0.15)">
       <use xlink:href="#DejaVuSans-34"/>
       <use xlink:href="#DejaVuSans-30" transform="translate(63.623047 0)"/>
      </g>
     </g>
    </g>
    <g id="text_23">
     <!-- Time [hr] -->
     <g transform="translate(225.208906 672.794375) scale(0.18 -0.18)">
      <use xlink:href="#DejaVuSans-Bold-54"/>
      <use xlink:href="#DejaVuSans-Bold-69" transform="translate(68.212891 0)"/>
      <use xlink:href="#DejaVuSans-Bold-6d" transform="translate(102.490234 0)"/>
      <use xlink:href="#DejaVuSans-Bold-65" transform="translate(206.689453 0)"/>
      <use xlink:href="#DejaVuSans-Bold-20" transform="translate(274.511719 0)"/>
      <use xlink:href="#DejaVuSans-Bold-5b" transform="translate(309.326172 0)"/>
      <use xlink:href="#DejaVuSans-Bold-68" transform="translate(355.029297 0)"/>
      <use xlink:href="#DejaVuSans-Bold-72" transform="translate(426.220703 0)"/>
      <use xlink:href="#DejaVuSans-Bold-5d" transform="translate(475.537109 0)"/>
     </g>
    </g>
   </g>
   <g id="matplotlib.axis_4">
    <g id="ytick_8">
     <g id="line2d_27">
      <g>
       <use xlink:href="#mcc96fb6367" x="76.821406" y="617.819852" style="stroke: #000000; stroke-width: 0.8"/>
      </g>
     </g>
     <g id="text_24">
      <!-- −200 -->
      <g transform="translate(28.620625 623.518681) scale(0.15 -0.15)">
       <use xlink:href="#DejaVuSans-2212"/>
       <use xlink:href="#DejaVuSans-32" transform="translate(83.789062 0)"/>
       <use xlink:href="#DejaVuSans-30" transform="translate(147.412109 0)"/>
       <use xlink:href="#DejaVuSans-30" transform="translate(211.035156 0)"/>
      </g>
     </g>
    </g>
    <g id="ytick_9">
     <g id="line2d_28">
      <g>
       <use xlink:href="#mcc96fb6367" x="76.821406" y="585.208453" style="stroke: #000000; stroke-width: 0.8"/>
      </g>
     </g>
     <g id="text_25">
      <!-- 0 -->
      <g transform="translate(60.277656 590.907281) scale(0.15 -0.15)">
       <use xlink:href="#DejaVuSans-30"/>
      </g>
     </g>
    </g>
    <g id="ytick_10">
     <g id="line2d_29">
      <g>
       <use xlink:href="#mcc96fb6367" x="76.821406" y="552.597053" style="stroke: #000000; stroke-width: 0.8"/>
      </g>
     </g>
     <g id="text_26">
      <!-- 200 -->
      <g transform="translate(41.190156 558.295881) scale(0.15 -0.15)">
       <use xlink:href="#DejaVuSans-32"/>
       <use xlink:href="#DejaVuSans-30" transform="translate(63.623047 0)"/>
       <use xlink:href="#DejaVuSans-30" transform="translate(127.246094 0)"/>
      </g>
     </g>
    </g>
    <g id="ytick_11">
     <g id="line2d_30">
      <g>
       <use xlink:href="#mcc96fb6367" x="76.821406" y="519.985653" style="stroke: #000000; stroke-width: 0.8"/>
      </g>
     </g>
     <g id="text_27">
      <!-- 400 -->
      <g transform="translate(41.190156 525.684481) scale(0.15 -0.15)">
       <use xlink:href="#DejaVuSans-34"/>
       <use xlink:href="#DejaVuSans-30" transform="translate(63.623047 0)"/>
       <use xlink:href="#DejaVuSans-30" transform="translate(127.246094 0)"/>
      </g>
     </g>
    </g>
    <g id="ytick_12">
     <g id="line2d_31">
      <g>
       <use xlink:href="#mcc96fb6367" x="76.821406" y="487.374253" style="stroke: #000000; stroke-width: 0.8"/>
      </g>
     </g>
     <g id="text_28">
      <!-- 600 -->
      <g transform="translate(41.190156 493.073081) scale(0.15 -0.15)">
       <use xlink:href="#DejaVuSans-36"/>
       <use xlink:href="#DejaVuSans-30" transform="translate(63.623047 0)"/>
       <use xlink:href="#DejaVuSans-30" transform="translate(127.246094 0)"/>
      </g>
     </g>
    </g>
    <g id="ytick_13">
     <g id="line2d_32">
      <g>
       <use xlink:href="#mcc96fb6367" x="76.821406" y="454.762853" style="stroke: #000000; stroke-width: 0.8"/>
      </g>
     </g>
     <g id="text_29">
      <!-- 800 -->
      <g transform="translate(41.190156 460.461681) scale(0.15 -0.15)">
       <use xlink:href="#DejaVuSans-38"/>
       <use xlink:href="#DejaVuSans-30" transform="translate(63.623047 0)"/>
       <use xlink:href="#DejaVuSans-30" transform="translate(127.246094 0)"/>
      </g>
     </g>
    </g>
    <g id="ytick_14">
     <g id="line2d_33">
      <g>
       <use xlink:href="#mcc96fb6367" x="76.821406" y="422.151453" style="stroke: #000000; stroke-width: 0.8"/>
      </g>
     </g>
     <g id="text_30">
      <!-- 1000 -->
      <g transform="translate(31.646406 427.850281) scale(0.15 -0.15)">
       <use xlink:href="#DejaVuSans-31"/>
       <use xlink:href="#DejaVuSans-30" transform="translate(63.623047 0)"/>
       <use xlink:href="#DejaVuSans-30" transform="translate(127.246094 0)"/>
       <use xlink:href="#DejaVuSans-30" transform="translate(190.869141 0)"/>
      </g>
     </g>
    </g>
    <g id="text_31">
     <!-- E3174 [nM] -->
     <g transform="translate(20.877187 570.99748) rotate(-90) scale(0.18 -0.18)">
      <defs>
       <path id="DejaVuSans-Bold-45" d="M 588 4666 
L 3834 4666 
L 3834 3756 
L 1791 3756 
L 1791 2888 
L 3713 2888 
L 3713 1978 
L 1791 1978 
L 1791 909 
L 3903 909 
L 3903 0 
L 588 0 
L 588 4666 
z
" transform="scale(0.015625)"/>
       <path id="DejaVuSans-Bold-33" d="M 2981 2516 
Q 3453 2394 3698 2092 
Q 3944 1791 3944 1325 
Q 3944 631 3412 270 
Q 2881 -91 1863 -91 
Q 1503 -91 1142 -33 
Q 781 25 428 141 
L 428 1069 
Q 766 900 1098 814 
Q 1431 728 1753 728 
Q 2231 728 2486 893 
Q 2741 1059 2741 1369 
Q 2741 1688 2480 1852 
Q 2219 2016 1709 2016 
L 1228 2016 
L 1228 2791 
L 1734 2791 
Q 2188 2791 2409 2933 
Q 2631 3075 2631 3366 
Q 2631 3634 2415 3781 
Q 2200 3928 1806 3928 
Q 1516 3928 1219 3862 
Q 922 3797 628 3669 
L 628 4550 
Q 984 4650 1334 4700 
Q 1684 4750 2022 4750 
Q 2931 4750 3382 4451 
Q 3834 4153 3834 3553 
Q 3834 3144 3618 2883 
Q 3403 2622 2981 2516 
z
" transform="scale(0.015625)"/>
       <path id="DejaVuSans-Bold-31" d="M 750 831 
L 1813 831 
L 1813 3847 
L 722 3622 
L 722 4441 
L 1806 4666 
L 2950 4666 
L 2950 831 
L 4013 831 
L 4013 0 
L 750 0 
L 750 831 
z
" transform="scale(0.015625)"/>
       <path id="DejaVuSans-Bold-37" d="M 428 4666 
L 3944 4666 
L 3944 3988 
L 2125 0 
L 953 0 
L 2675 3781 
L 428 3781 
L 428 4666 
z
" transform="scale(0.015625)"/>
       <path id="DejaVuSans-Bold-34" d="M 2356 3675 
L 1038 1722 
L 2356 1722 
L 2356 3675 
z
M 2156 4666 
L 3494 4666 
L 3494 1722 
L 4159 1722 
L 4159 850 
L 3494 850 
L 3494 0 
L 2356 0 
L 2356 850 
L 288 850 
L 288 1881 
L 2156 4666 
z
" transform="scale(0.015625)"/>
      </defs>
      <use xlink:href="#DejaVuSans-Bold-45"/>
      <use xlink:href="#DejaVuSans-Bold-33" transform="translate(68.310547 0)"/>
      <use xlink:href="#DejaVuSans-Bold-31" transform="translate(137.890625 0)"/>
      <use xlink:href="#DejaVuSans-Bold-37" transform="translate(207.470703 0)"/>
      <use xlink:href="#DejaVuSans-Bold-34" transform="translate(277.050781 0)"/>
      <use xlink:href="#DejaVuSans-Bold-20" transform="translate(346.630859 0)"/>
      <use xlink:href="#DejaVuSans-Bold-5b" transform="translate(381.445312 0)"/>
      <use xlink:href="#DejaVuSans-Bold-6e" transform="translate(427.148438 0)"/>
      <use xlink:href="#DejaVuSans-Bold-4d" transform="translate(498.339844 0)"/>
      <use xlink:href="#DejaVuSans-Bold-5d" transform="translate(597.851562 0)"/>
     </g>
    </g>
   </g>
   <g id="LineCollection_5">
    <path clip-path="url(#paa4e12753b)" style="fill: none; stroke: #000000"/>
    <path clip-path="url(#paa4e12753b)" style="fill: none; stroke: #000000"/>
    <path clip-path="url(#paa4e12753b)" style="fill: none; stroke: #000000"/>
    <path clip-path="url(#paa4e12753b)" style="fill: none; stroke: #000000"/>
    <path d="M 99.547224 588.124088 
L 99.547224 579.807052 
" clip-path="url(#paa4e12753b)" style="fill: none; stroke: #000000"/>
    <path d="M 103.453224 598.730117 
L 103.453224 546.334143 
" clip-path="url(#paa4e12753b)" style="fill: none; stroke: #000000"/>
    <path d="M 106.382724 608.92086 
L 106.382724 526.999695 
" clip-path="url(#paa4e12753b)" style="fill: none; stroke: #000000"/>
    <path d="M 109.400997 607.051799 
L 109.400997 486.873306 
" clip-path="url(#paa4e12753b)" style="fill: none; stroke: #000000"/>
    <path d="M 112.330497 589.796656 
L 112.330497 466.707266 
" clip-path="url(#paa4e12753b)" style="fill: none; stroke: #000000"/>
    <path d="M 116.769134 561.106773 
L 116.769134 456.730668 
" clip-path="url(#paa4e12753b)" style="fill: none; stroke: #000000"/>
    <path d="M 121.20777 535.327973 
L 121.20777 448.832912 
" clip-path="url(#paa4e12753b)" style="fill: none; stroke: #000000"/>
    <path d="M 130.085043 520.572717 
L 130.085043 449.879486 
" clip-path="url(#paa4e12753b)" style="fill: none; stroke: #000000"/>
    <path d="M 147.839588 536.596497 
L 147.839588 487.111236 
" clip-path="url(#paa4e12753b)" style="fill: none; stroke: #000000"/>
    <path d="M 165.594134 558.234152 
L 165.594134 516.649899 
" clip-path="url(#paa4e12753b)" style="fill: none; stroke: #000000"/>
    <path d="M 201.103224 577.390501 
L 201.103224 554.93519 
" clip-path="url(#paa4e12753b)" style="fill: none; stroke: #000000"/>
    <path d="M 307.630497 584.127225 
L 307.630497 578.305615 
" clip-path="url(#paa4e12753b)" style="fill: none; stroke: #000000"/>
    <path d="M 414.15777 585.873838 
L 414.15777 582.547097 
" clip-path="url(#paa4e12753b)" style="fill: none; stroke: #000000"/>
   </g>
   <g id="LineCollection_6">
    <path clip-path="url(#paa4e12753b)" style="fill: none; stroke: #1f77b4"/>
    <path clip-path="url(#paa4e12753b)" style="fill: none; stroke: #1f77b4"/>
    <path clip-path="url(#paa4e12753b)" style="fill: none; stroke: #1f77b4"/>
    <path d="M 99.014588 588.747109 
L 99.014588 576.687118 
" clip-path="url(#paa4e12753b)" style="fill: none; stroke: #1f77b4"/>
    <path d="M 99.547224 597.688374 
L 99.547224 562.341758 
" clip-path="url(#paa4e12753b)" style="fill: none; stroke: #1f77b4"/>
    <path d="M 103.453224 618.274995 
L 103.453224 515.14586 
" clip-path="url(#paa4e12753b)" style="fill: none; stroke: #1f77b4"/>
    <path d="M 106.382724 622.643478 
L 106.382724 476.682749 
" clip-path="url(#paa4e12753b)" style="fill: none; stroke: #1f77b4"/>
    <path d="M 109.400997 600.398318 
L 109.400997 461.922754 
" clip-path="url(#paa4e12753b)" style="fill: none; stroke: #1f77b4"/>
    <path d="M 112.330497 574.618218 
L 112.330497 443.628005 
" clip-path="url(#paa4e12753b)" style="fill: none; stroke: #1f77b4"/>
    <path d="M 116.769134 549.671289 
L 116.769134 430.324482 
" clip-path="url(#paa4e12753b)" style="fill: none; stroke: #1f77b4"/>
    <path d="M 121.20777 529.714285 
L 121.20777 438.64477 
" clip-path="url(#paa4e12753b)" style="fill: none; stroke: #1f77b4"/>
    <path d="M 130.085043 522.028166 
L 130.085043 403.513043 
" clip-path="url(#paa4e12753b)" style="fill: none; stroke: #1f77b4"/>
    <path d="M 147.839588 542.626214 
L 147.839588 466.942873 
" clip-path="url(#paa4e12753b)" style="fill: none; stroke: #1f77b4"/>
    <path d="M 165.594134 558.857916 
L 165.594134 511.036024 
" clip-path="url(#paa4e12753b)" style="fill: none; stroke: #1f77b4"/>
    <path d="M 201.103224 571.776813 
L 201.103224 550.153001 
" clip-path="url(#paa4e12753b)" style="fill: none; stroke: #1f77b4"/>
    <path d="M 307.630497 584.54316 
L 307.630497 577.88968 
" clip-path="url(#paa4e12753b)" style="fill: none; stroke: #1f77b4"/>
    <path d="M 414.15777 584.626403 
L 414.15777 583.794532 
" clip-path="url(#paa4e12753b)" style="fill: none; stroke: #1f77b4"/>
   </g>
   <g id="line2d_34">
    <path d="M 94.575952 585.208453 
L 95.996315 585.132614 
L 96.706497 584.839074 
L 97.416679 584.14929 
L 98.126861 582.92569 
L 98.837043 581.08999 
L 99.547224 578.623159 
L 100.257406 575.554522 
L 101.67777 567.886982 
L 103.808315 553.932012 
L 107.359224 529.800442 
L 108.779588 521.229249 
L 110.199952 513.66182 
L 111.620315 507.197008 
L 113.040679 501.853666 
L 114.461043 497.594621 
L 115.881406 494.346387 
L 117.30177 492.014497 
L 118.011952 491.159787 
L 118.722134 490.494848 
L 119.432315 490.00647 
L 120.142497 489.681689 
L 120.852679 489.507895 
L 121.562861 489.472926 
L 122.273043 489.565128 
L 123.693406 490.087209 
L 125.11377 490.992363 
L 126.534134 492.208341 
L 127.954497 493.672216 
L 130.085043 496.216553 
L 132.92577 500.035939 
L 137.897043 507.215378 
L 143.578497 515.335854 
L 147.839588 521.030248 
L 151.390497 525.434898 
L 154.941406 529.512838 
L 158.492315 533.268076 
L 162.043224 536.714957 
L 165.594134 539.873104 
L 169.145043 542.764346 
L 172.695952 545.410903 
L 176.957043 548.294082 
L 181.218134 550.890862 
L 185.479224 553.233114 
L 190.450497 555.682098 
L 195.42177 557.863681 
L 200.393043 559.812737 
L 206.074497 561.794001 
L 211.755952 563.549289 
L 218.147588 565.294107 
L 225.249406 566.992161 
L 233.061406 568.617053 
L 241.583588 570.15168 
L 250.815952 571.586908 
L 261.468679 573.007808 
L 273.54177 574.377793 
L 287.035224 575.673673 
L 301.949043 576.882481 
L 318.993406 578.042371 
L 338.878497 579.165661 
L 361.604315 580.216434 
L 387.170861 581.170116 
L 416.288315 582.029897 
L 449.666861 582.789531 
L 449.666861 582.789531 
" clip-path="url(#paa4e12753b)" style="fill: none; stroke: #000000; stroke-width: 2; stroke-linecap: square"/>
   </g>
   <g id="line2d_35">
    <path d="M 94.575952 585.208453 
L 96.085088 585.208453 
L 97.505452 585.208453 
L 99.014588 585.208453 
L 99.547224 583.96557 
L 103.453224 572.53213 
L 106.382724 567.960278 
L 109.400997 546.962552 
L 112.330497 528.251961 
L 116.769134 508.918721 
L 121.20777 492.080443 
L 130.085043 485.226102 
L 147.839588 511.853867 
L 165.594134 537.442025 
L 201.103224 566.162846 
L 307.630497 581.21642 
L 414.15777 584.210468 
" clip-path="url(#paa4e12753b)" style="fill: none; stroke-dasharray: 3.7,1.6; stroke-dashoffset: 0; stroke: #000000"/>
    <g clip-path="url(#paa4e12753b)">
     <use xlink:href="#m3231576d1f" x="94.575952" y="585.208453" style="stroke: #000000; stroke-linejoin: miter"/>
     <use xlink:href="#m3231576d1f" x="96.085088" y="585.208453" style="stroke: #000000; stroke-linejoin: miter"/>
     <use xlink:href="#m3231576d1f" x="97.505452" y="585.208453" style="stroke: #000000; stroke-linejoin: miter"/>
     <use xlink:href="#m3231576d1f" x="99.014588" y="585.208453" style="stroke: #000000; stroke-linejoin: miter"/>
     <use xlink:href="#m3231576d1f" x="99.547224" y="583.96557" style="stroke: #000000; stroke-linejoin: miter"/>
     <use xlink:href="#m3231576d1f" x="103.453224" y="572.53213" style="stroke: #000000; stroke-linejoin: miter"/>
     <use xlink:href="#m3231576d1f" x="106.382724" y="567.960278" style="stroke: #000000; stroke-linejoin: miter"/>
     <use xlink:href="#m3231576d1f" x="109.400997" y="546.962552" style="stroke: #000000; stroke-linejoin: miter"/>
     <use xlink:href="#m3231576d1f" x="112.330497" y="528.251961" style="stroke: #000000; stroke-linejoin: miter"/>
     <use xlink:href="#m3231576d1f" x="116.769134" y="508.918721" style="stroke: #000000; stroke-linejoin: miter"/>
     <use xlink:href="#m3231576d1f" x="121.20777" y="492.080443" style="stroke: #000000; stroke-linejoin: miter"/>
     <use xlink:href="#m3231576d1f" x="130.085043" y="485.226102" style="stroke: #000000; stroke-linejoin: miter"/>
     <use xlink:href="#m3231576d1f" x="147.839588" y="511.853867" style="stroke: #000000; stroke-linejoin: miter"/>
     <use xlink:href="#m3231576d1f" x="165.594134" y="537.442025" style="stroke: #000000; stroke-linejoin: miter"/>
     <use xlink:href="#m3231576d1f" x="201.103224" y="566.162846" style="stroke: #000000; stroke-linejoin: miter"/>
     <use xlink:href="#m3231576d1f" x="307.630497" y="581.21642" style="stroke: #000000; stroke-linejoin: miter"/>
     <use xlink:href="#m3231576d1f" x="414.15777" y="584.210468" style="stroke: #000000; stroke-linejoin: miter"/>
    </g>
   </g>
   <g id="line2d_36">
    <path d="M 94.575952 585.208453 
L 96.085088 585.208453 
L 97.505452 585.208453 
L 99.014588 582.717114 
L 99.547224 580.015066 
L 103.453224 566.710428 
L 106.382724 549.663113 
L 109.400997 531.160536 
L 112.330497 509.123112 
L 116.769134 489.997885 
L 121.20777 484.179527 
L 130.085043 462.770605 
L 147.839588 504.784544 
L 165.594134 534.94697 
L 201.103224 560.964907 
L 307.630497 581.21642 
L 414.15777 584.210468 
" clip-path="url(#paa4e12753b)" style="fill: none; stroke-dasharray: 3.7,1.6; stroke-dashoffset: 0; stroke: #1f77b4"/>
    <g clip-path="url(#paa4e12753b)">
     <use xlink:href="#m3c827ee7ad" x="94.575952" y="585.208453" style="fill: #1f77b4; stroke: #000000"/>
     <use xlink:href="#m3c827ee7ad" x="96.085088" y="585.208453" style="fill: #1f77b4; stroke: #000000"/>
     <use xlink:href="#m3c827ee7ad" x="97.505452" y="585.208453" style="fill: #1f77b4; stroke: #000000"/>
     <use xlink:href="#m3c827ee7ad" x="99.014588" y="582.717114" style="fill: #1f77b4; stroke: #000000"/>
     <use xlink:href="#m3c827ee7ad" x="99.547224" y="580.015066" style="fill: #1f77b4; stroke: #000000"/>
     <use xlink:href="#m3c827ee7ad" x="103.453224" y="566.710428" style="fill: #1f77b4; stroke: #000000"/>
     <use xlink:href="#m3c827ee7ad" x="106.382724" y="549.663113" style="fill: #1f77b4; stroke: #000000"/>
     <use xlink:href="#m3c827ee7ad" x="109.400997" y="531.160536" style="fill: #1f77b4; stroke: #000000"/>
     <use xlink:href="#m3c827ee7ad" x="112.330497" y="509.123112" style="fill: #1f77b4; stroke: #000000"/>
     <use xlink:href="#m3c827ee7ad" x="116.769134" y="489.997885" style="fill: #1f77b4; stroke: #000000"/>
     <use xlink:href="#m3c827ee7ad" x="121.20777" y="484.179527" style="fill: #1f77b4; stroke: #000000"/>
     <use xlink:href="#m3c827ee7ad" x="130.085043" y="462.770605" style="fill: #1f77b4; stroke: #000000"/>
     <use xlink:href="#m3c827ee7ad" x="147.839588" y="504.784544" style="fill: #1f77b4; stroke: #000000"/>
     <use xlink:href="#m3c827ee7ad" x="165.594134" y="534.94697" style="fill: #1f77b4; stroke: #000000"/>
     <use xlink:href="#m3c827ee7ad" x="201.103224" y="560.964907" style="fill: #1f77b4; stroke: #000000"/>
     <use xlink:href="#m3c827ee7ad" x="307.630497" y="581.21642" style="fill: #1f77b4; stroke: #000000"/>
     <use xlink:href="#m3c827ee7ad" x="414.15777" y="584.210468" style="fill: #1f77b4; stroke: #000000"/>
    </g>
   </g>
   <g id="patch_9">
    <path d="M 76.821406 633.6 
L 76.821406 392.556522 
" style="fill: none; stroke: #000000; stroke-width: 0.8; stroke-linejoin: miter; stroke-linecap: square"/>
   </g>
   <g id="patch_10">
    <path d="M 467.421406 633.6 
L 467.421406 392.556522 
" style="fill: none; stroke: #000000; stroke-width: 0.8; stroke-linejoin: miter; stroke-linecap: square"/>
   </g>
   <g id="patch_11">
    <path d="M 76.821406 633.6 
L 467.421406 633.6 
" style="fill: none; stroke: #000000; stroke-width: 0.8; stroke-linejoin: miter; stroke-linecap: square"/>
   </g>
   <g id="patch_12">
    <path d="M 76.821406 392.556522 
L 467.421406 392.556522 
" style="fill: none; stroke: #000000; stroke-width: 0.8; stroke-linejoin: miter; stroke-linecap: square"/>
   </g>
   <g id="legend_2">
    <g id="patch_13">
     <path d="M 268.862031 444.590897 
L 460.421406 444.590897 
Q 462.421406 444.590897 462.421406 442.590897 
L 462.421406 399.556522 
Q 462.421406 397.556522 460.421406 397.556522 
L 268.862031 397.556522 
Q 266.862031 397.556522 266.862031 399.556522 
L 266.862031 442.590897 
Q 266.862031 444.590897 268.862031 444.590897 
z
" style="fill: #ffffff; opacity: 0.8; stroke: #cccccc; stroke-linejoin: miter"/>
    </g>
    <g id="line2d_37">
     <path d="M 270.862031 405.654959 
L 290.862031 405.654959 
" style="fill: none; stroke: #000000; stroke-width: 2; stroke-linecap: square"/>
    </g>
    <g id="line2d_38"/>
    <g id="text_32">
     <!-- Sim 50 mg -->
     <g transform="translate(298.862031 409.154959) scale(0.1 -0.1)">
      <use xlink:href="#DejaVuSans-53"/>
      <use xlink:href="#DejaVuSans-69" transform="translate(63.476562 0)"/>
      <use xlink:href="#DejaVuSans-6d" transform="translate(91.259766 0)"/>
      <use xlink:href="#DejaVuSans-20" transform="translate(188.671875 0)"/>
      <use xlink:href="#DejaVuSans-35" transform="translate(220.458984 0)"/>
      <use xlink:href="#DejaVuSans-30" transform="translate(284.082031 0)"/>
      <use xlink:href="#DejaVuSans-20" transform="translate(347.705078 0)"/>
      <use xlink:href="#DejaVuSans-6d" transform="translate(379.492188 0)"/>
      <use xlink:href="#DejaVuSans-67" transform="translate(476.904297 0)"/>
     </g>
    </g>
    <g id="LineCollection_7">
     <path d="M 280.862031 425.333084 
L 280.862031 415.333084 
" style="fill: none; stroke: #000000"/>
    </g>
    <g id="line2d_39">
     <path d="M 270.862031 420.333084 
L 290.862031 420.333084 
" style="fill: none; stroke-dasharray: 3.7,1.6; stroke-dashoffset: 0; stroke: #000000"/>
    </g>
    <g id="line2d_40">
     <g>
      <use xlink:href="#m3231576d1f" x="280.862031" y="420.333084" style="stroke: #000000; stroke-linejoin: miter"/>
     </g>
    </g>
    <g id="text_33">
     <!-- placebo 50 mg±SD (n=11) -->
     <g transform="translate(298.862031 423.833084) scale(0.1 -0.1)">
      <use xlink:href="#DejaVuSans-70"/>
      <use xlink:href="#DejaVuSans-6c" transform="translate(63.476562 0)"/>
      <use xlink:href="#DejaVuSans-61" transform="translate(91.259766 0)"/>
      <use xlink:href="#DejaVuSans-63" transform="translate(152.539062 0)"/>
      <use xlink:href="#DejaVuSans-65" transform="translate(207.519531 0)"/>
      <use xlink:href="#DejaVuSans-62" transform="translate(269.042969 0)"/>
      <use xlink:href="#DejaVuSans-6f" transform="translate(332.519531 0)"/>
      <use xlink:href="#DejaVuSans-20" transform="translate(393.701172 0)"/>
      <use xlink:href="#DejaVuSans-35" transform="translate(425.488281 0)"/>
      <use xlink:href="#DejaVuSans-30" transform="translate(489.111328 0)"/>
      <use xlink:href="#DejaVuSans-20" transform="translate(552.734375 0)"/>
      <use xlink:href="#DejaVuSans-6d" transform="translate(584.521484 0)"/>
      <use xlink:href="#DejaVuSans-67" transform="translate(681.933594 0)"/>
      <use xlink:href="#DejaVuSans-b1" transform="translate(745.410156 0)"/>
      <use xlink:href="#DejaVuSans-53" transform="translate(829.199219 0)"/>
      <use xlink:href="#DejaVuSans-44" transform="translate(892.675781 0)"/>
      <use xlink:href="#DejaVuSans-20" transform="translate(969.677734 0)"/>
      <use xlink:href="#DejaVuSans-28" transform="translate(1001.464844 0)"/>
      <use xlink:href="#DejaVuSans-6e" transform="translate(1040.478516 0)"/>
      <use xlink:href="#DejaVuSans-3d" transform="translate(1103.857422 0)"/>
      <use xlink:href="#DejaVuSans-31" transform="translate(1187.646484 0)"/>
      <use xlink:href="#DejaVuSans-31" transform="translate(1251.269531 0)"/>
      <use xlink:href="#DejaVuSans-29" transform="translate(1314.892578 0)"/>
     </g>
    </g>
    <g id="LineCollection_8">
     <path d="M 280.862031 440.011209 
L 280.862031 430.011209 
" style="fill: none; stroke: #1f77b4"/>
    </g>
    <g id="line2d_41">
     <path d="M 270.862031 435.011209 
L 290.862031 435.011209 
" style="fill: none; stroke-dasharray: 3.7,1.6; stroke-dashoffset: 0; stroke: #1f77b4"/>
    </g>
    <g id="line2d_42">
     <g>
      <use xlink:href="#m3c827ee7ad" x="280.862031" y="435.011209" style="fill: #1f77b4; stroke: #000000"/>
     </g>
    </g>
    <g id="text_34">
     <!-- breviscapine 50 mg±SD (n=11) -->
     <g transform="translate(298.862031 438.511209) scale(0.1 -0.1)">
      <use xlink:href="#DejaVuSans-62"/>
      <use xlink:href="#DejaVuSans-72" transform="translate(63.476562 0)"/>
      <use xlink:href="#DejaVuSans-65" transform="translate(102.339844 0)"/>
      <use xlink:href="#DejaVuSans-76" transform="translate(163.863281 0)"/>
      <use xlink:href="#DejaVuSans-69" transform="translate(223.042969 0)"/>
      <use xlink:href="#DejaVuSans-73" transform="translate(250.826172 0)"/>
      <use xlink:href="#DejaVuSans-63" transform="translate(302.925781 0)"/>
      <use xlink:href="#DejaVuSans-61" transform="translate(357.90625 0)"/>
      <use xlink:href="#DejaVuSans-70" transform="translate(419.185547 0)"/>
      <use xlink:href="#DejaVuSans-69" transform="translate(482.662109 0)"/>
      <use xlink:href="#DejaVuSans-6e" transform="translate(510.445312 0)"/>
      <use xlink:href="#DejaVuSans-65" transform="translate(573.824219 0)"/>
      <use xlink:href="#DejaVuSans-20" transform="translate(635.347656 0)"/>
      <use xlink:href="#DejaVuSans-35" transform="translate(667.134766 0)"/>
      <use xlink:href="#DejaVuSans-30" transform="translate(730.757812 0)"/>
      <use xlink:href="#DejaVuSans-20" transform="translate(794.380859 0)"/>
      <use xlink:href="#DejaVuSans-6d" transform="translate(826.167969 0)"/>
      <use xlink:href="#DejaVuSans-67" transform="translate(923.580078 0)"/>
      <use xlink:href="#DejaVuSans-b1" transform="translate(987.056641 0)"/>
      <use xlink:href="#DejaVuSans-53" transform="translate(1070.845703 0)"/>
      <use xlink:href="#DejaVuSans-44" transform="translate(1134.322266 0)"/>
      <use xlink:href="#DejaVuSans-20" transform="translate(1211.324219 0)"/>
      <use xlink:href="#DejaVuSans-28" transform="translate(1243.111328 0)"/>
      <use xlink:href="#DejaVuSans-6e" transform="translate(1282.125 0)"/>
      <use xlink:href="#DejaVuSans-3d" transform="translate(1345.503906 0)"/>
      <use xlink:href="#DejaVuSans-31" transform="translate(1429.292969 0)"/>
      <use xlink:href="#DejaVuSans-31" transform="translate(1492.916016 0)"/>
      <use xlink:href="#DejaVuSans-29" transform="translate(1556.539062 0)"/>
     </g>
    </g>
   </g>
  </g>
  <g id="text_35">
   <!-- Huang2021 (healthy) -->
   <g transform="translate(116.495234 26.196094) scale(0.25 -0.25)">
    <defs>
     <path id="DejaVuSans-Bold-48" d="M 588 4666 
L 1791 4666 
L 1791 2888 
L 3566 2888 
L 3566 4666 
L 4769 4666 
L 4769 0 
L 3566 0 
L 3566 1978 
L 1791 1978 
L 1791 0 
L 588 0 
L 588 4666 
z
" transform="scale(0.015625)"/>
     <path id="DejaVuSans-Bold-75" d="M 500 1363 
L 500 3500 
L 1625 3500 
L 1625 3150 
Q 1625 2866 1622 2436 
Q 1619 2006 1619 1863 
Q 1619 1441 1641 1255 
Q 1663 1069 1716 984 
Q 1784 875 1895 815 
Q 2006 756 2150 756 
Q 2500 756 2700 1025 
Q 2900 1294 2900 1772 
L 2900 3500 
L 4019 3500 
L 4019 0 
L 2900 0 
L 2900 506 
Q 2647 200 2364 54 
Q 2081 -91 1741 -91 
Q 1134 -91 817 281 
Q 500 653 500 1363 
z
" transform="scale(0.015625)"/>
     <path id="DejaVuSans-Bold-67" d="M 2919 594 
Q 2688 288 2409 144 
Q 2131 0 1766 0 
Q 1125 0 706 504 
Q 288 1009 288 1791 
Q 288 2575 706 3076 
Q 1125 3578 1766 3578 
Q 2131 3578 2409 3434 
Q 2688 3291 2919 2981 
L 2919 3500 
L 4044 3500 
L 4044 353 
Q 4044 -491 3511 -936 
Q 2978 -1381 1966 -1381 
Q 1638 -1381 1331 -1331 
Q 1025 -1281 716 -1178 
L 716 -306 
Q 1009 -475 1290 -558 
Q 1572 -641 1856 -641 
Q 2406 -641 2662 -400 
Q 2919 -159 2919 353 
L 2919 594 
z
M 2181 2772 
Q 1834 2772 1640 2515 
Q 1447 2259 1447 1791 
Q 1447 1309 1634 1061 
Q 1822 813 2181 813 
Q 2531 813 2725 1069 
Q 2919 1325 2919 1791 
Q 2919 2259 2725 2515 
Q 2531 2772 2181 2772 
z
" transform="scale(0.015625)"/>
     <path id="DejaVuSans-Bold-32" d="M 1844 884 
L 3897 884 
L 3897 0 
L 506 0 
L 506 884 
L 2209 2388 
Q 2438 2594 2547 2791 
Q 2656 2988 2656 3200 
Q 2656 3528 2436 3728 
Q 2216 3928 1850 3928 
Q 1569 3928 1234 3808 
Q 900 3688 519 3450 
L 519 4475 
Q 925 4609 1322 4679 
Q 1719 4750 2100 4750 
Q 2938 4750 3402 4381 
Q 3866 4013 3866 3353 
Q 3866 2972 3669 2642 
Q 3472 2313 2841 1759 
L 1844 884 
z
" transform="scale(0.015625)"/>
     <path id="DejaVuSans-Bold-30" d="M 2944 2338 
Q 2944 3213 2780 3570 
Q 2616 3928 2228 3928 
Q 1841 3928 1675 3570 
Q 1509 3213 1509 2338 
Q 1509 1453 1675 1090 
Q 1841 728 2228 728 
Q 2613 728 2778 1090 
Q 2944 1453 2944 2338 
z
M 4147 2328 
Q 4147 1169 3647 539 
Q 3147 -91 2228 -91 
Q 1306 -91 806 539 
Q 306 1169 306 2328 
Q 306 3491 806 4120 
Q 1306 4750 2228 4750 
Q 3147 4750 3647 4120 
Q 4147 3491 4147 2328 
z
" transform="scale(0.015625)"/>
     <path id="DejaVuSans-Bold-28" d="M 2413 -844 
L 1484 -844 
Q 1006 -72 778 623 
Q 550 1319 550 2003 
Q 550 2688 779 3389 
Q 1009 4091 1484 4856 
L 2413 4856 
Q 2013 4116 1813 3408 
Q 1613 2700 1613 2009 
Q 1613 1319 1811 609 
Q 2009 -100 2413 -844 
z
" transform="scale(0.015625)"/>
     <path id="DejaVuSans-Bold-6c" d="M 538 4863 
L 1656 4863 
L 1656 0 
L 538 0 
L 538 4863 
z
" transform="scale(0.015625)"/>
     <path id="DejaVuSans-Bold-79" d="M 78 3500 
L 1197 3500 
L 2138 1125 
L 2938 3500 
L 4056 3500 
L 2584 -331 
Q 2363 -916 2067 -1148 
Q 1772 -1381 1288 -1381 
L 641 -1381 
L 641 -647 
L 991 -647 
Q 1275 -647 1404 -556 
Q 1534 -466 1606 -231 
L 1638 -134 
L 78 3500 
z
" transform="scale(0.015625)"/>
     <path id="DejaVuSans-Bold-29" d="M 513 -844 
Q 913 -100 1113 609 
Q 1313 1319 1313 2009 
Q 1313 2700 1113 3408 
Q 913 4116 513 4856 
L 1441 4856 
Q 1916 4091 2145 3389 
Q 2375 2688 2375 2003 
Q 2375 1319 2147 623 
Q 1919 -72 1441 -844 
L 513 -844 
z
" transform="scale(0.015625)"/>
    </defs>
    <use xlink:href="#DejaVuSans-Bold-48"/>
    <use xlink:href="#DejaVuSans-Bold-75" transform="translate(83.691406 0)"/>
    <use xlink:href="#DejaVuSans-Bold-61" transform="translate(154.882812 0)"/>
    <use xlink:href="#DejaVuSans-Bold-6e" transform="translate(222.363281 0)"/>
    <use xlink:href="#DejaVuSans-Bold-67" transform="translate(293.554688 0)"/>
    <use xlink:href="#DejaVuSans-Bold-32" transform="translate(365.136719 0)"/>
    <use xlink:href="#DejaVuSans-Bold-30" transform="translate(434.716797 0)"/>
    <use xlink:href="#DejaVuSans-Bold-32" transform="translate(504.296875 0)"/>
    <use xlink:href="#DejaVuSans-Bold-31" transform="translate(573.876953 0)"/>
    <use xlink:href="#DejaVuSans-Bold-20" transform="translate(643.457031 0)"/>
    <use xlink:href="#DejaVuSans-Bold-28" transform="translate(678.271484 0)"/>
    <use xlink:href="#DejaVuSans-Bold-68" transform="translate(723.974609 0)"/>
    <use xlink:href="#DejaVuSans-Bold-65" transform="translate(795.166016 0)"/>
    <use xlink:href="#DejaVuSans-Bold-61" transform="translate(862.988281 0)"/>
    <use xlink:href="#DejaVuSans-Bold-6c" transform="translate(930.46875 0)"/>
    <use xlink:href="#DejaVuSans-Bold-74" transform="translate(964.746094 0)"/>
    <use xlink:href="#DejaVuSans-Bold-68" transform="translate(1012.548828 0)"/>
    <use xlink:href="#DejaVuSans-Bold-79" transform="translate(1083.740234 0)"/>
    <use xlink:href="#DejaVuSans-Bold-29" transform="translate(1148.925781 0)"/>
   </g>
  </g>
 </g>
 <defs>
  <clipPath id="pddaf7a4318">
   <rect x="76.821406" y="79.2" width="390.6" height="241.043478"/>
  </clipPath>
  <clipPath id="paa4e12753b">
   <rect x="76.821406" y="392.556522" width="390.6" height="241.043478"/>
  </clipPath>
 </defs>
</svg>
