<?xml version="1.0" encoding="utf-8" standalone="no"?>
<!DOCTYPE svg PUBLIC "-//W3C//DTD SVG 1.1//EN"
  "http://www.w3.org/Graphics/SVG/1.1/DTD/svg11.dtd">
<svg xmlns:xlink="http://www.w3.org/1999/xlink" width="452.759844pt" height="683.737812pt" viewBox="0 0 452.759844 683.737812" xmlns="http://www.w3.org/2000/svg" version="1.1">
 <metadata>
  <rdf:RDF xmlns:dc="http://purl.org/dc/elements/1.1/" xmlns:cc="http://creativecommons.org/ns#" xmlns:rdf="http://www.w3.org/1999/02/22-rdf-syntax-ns#">
   <cc:Work>
    <dc:type rdf:resource="http://purl.org/dc/dcmitype/StillImage"/>
    <dc:date>2025-12-03T15:38:22.384421</dc:date>
    <dc:format>image/svg+xml</dc:format>
    <dc:creator>
     <cc:Agent>
      <dc:title>Matplotlib v3.10.7, https://matplotlib.org/</dc:title>
     </cc:Agent>
    </dc:creator>
   </cc:Work>
  </rdf:RDF>
 </metadata>
 <defs>
  <style type="text/css">*{stroke-linejoin: round; stroke-linecap: butt}</style>
 </defs>
 <g id="figure_1">
  <g id="patch_1">
   <path d="M 0 683.737812 
L 452.759844 683.737812 
L 452.759844 0 
L 0 0 
z
" style="fill: #ffffff"/>
  </g>
  <g id="axes_1">
   <g id="patch_2">
    <path d="M 54.727813 320.243478 
L 445.327813 320.243478 
L 445.327813 79.2 
L 54.727813 79.2 
z
" style="fill: #ffffff"/>
   </g>
   <g id="matplotlib.axis_1">
    <g id="xtick_1">
     <g id="line2d_1">
      <defs>
       <path id="m03f749aa8f" d="M 0 0 
L 0 3.5 
" style="stroke: #000000; stroke-width: 0.8"/>
      </defs>
      <g>
       <use xlink:href="#m03f749aa8f" x="70.43822" y="320.243478" style="stroke: #000000; stroke-width: 0.8"/>
      </g>
     </g>
     <g id="text_1">
      <!-- −20 -->
      <g transform="translate(54.609704 338.641135) scale(0.15 -0.15)">
       <defs>
        <path id="DejaVuSans-2212" d="M 678 2272 
L 4684 2272 
L 4684 1741 
L 678 1741 
L 678 2272 
z
" transform="scale(0.015625)"/>
        <path id="DejaVuSans-32" d="M 1228 531 
L 3431 531 
L 3431 0 
L 469 0 
L 469 531 
Q 828 903 1448 1529 
Q 2069 2156 2228 2338 
Q 2531 2678 2651 2914 
Q 2772 3150 2772 3378 
Q 2772 3750 2511 3984 
Q 2250 4219 1831 4219 
Q 1534 4219 1204 4116 
Q 875 4013 500 3803 
L 500 4441 
Q 881 4594 1212 4672 
Q 1544 4750 1819 4750 
Q 2544 4750 2975 4387 
Q 3406 4025 3406 3419 
Q 3406 3131 3298 2873 
Q 3191 2616 2906 2266 
Q 2828 2175 2409 1742 
Q 1991 1309 1228 531 
z
" transform="scale(0.015625)"/>
        <path id="DejaVuSans-30" d="M 2034 4250 
Q 1547 4250 1301 3770 
Q 1056 3291 1056 2328 
Q 1056 1369 1301 889 
Q 1547 409 2034 409 
Q 2525 409 2770 889 
Q 3016 1369 3016 2328 
Q 3016 3291 2770 3770 
Q 2525 4250 2034 4250 
z
M 2034 4750 
Q 2819 4750 3233 4129 
Q 3647 3509 3647 2328 
Q 3647 1150 3233 529 
Q 2819 -91 2034 -91 
Q 1250 -91 836 529 
Q 422 1150 422 2328 
Q 422 3509 836 4129 
Q 1250 4750 2034 4750 
z
" transform="scale(0.015625)"/>
       </defs>
       <use xlink:href="#DejaVuSans-2212"/>
       <use xlink:href="#DejaVuSans-32" transform="translate(83.789062 0)"/>
       <use xlink:href="#DejaVuSans-30" transform="translate(147.412109 0)"/>
      </g>
     </g>
    </g>
    <g id="xtick_2">
     <g id="line2d_2">
      <g>
       <use xlink:href="#m03f749aa8f" x="148.990256" y="320.243478" style="stroke: #000000; stroke-width: 0.8"/>
      </g>
     </g>
     <g id="text_2">
      <!-- 0 -->
      <g transform="translate(144.218381 338.641135) scale(0.15 -0.15)">
       <use xlink:href="#DejaVuSans-30"/>
      </g>
     </g>
    </g>
    <g id="xtick_3">
     <g id="line2d_3">
      <g>
       <use xlink:href="#m03f749aa8f" x="227.542292" y="320.243478" style="stroke: #000000; stroke-width: 0.8"/>
      </g>
     </g>
     <g id="text_3">
      <!-- 20 -->
      <g transform="translate(217.998542 338.641135) scale(0.15 -0.15)">
       <use xlink:href="#DejaVuSans-32"/>
       <use xlink:href="#DejaVuSans-30" transform="translate(63.623047 0)"/>
      </g>
     </g>
    </g>
    <g id="xtick_4">
     <g id="line2d_4">
      <g>
       <use xlink:href="#m03f749aa8f" x="306.094328" y="320.243478" style="stroke: #000000; stroke-width: 0.8"/>
      </g>
     </g>
     <g id="text_4">
      <!-- 40 -->
      <g transform="translate(296.550578 338.641135) scale(0.15 -0.15)">
       <defs>
        <path id="DejaVuSans-34" d="M 2419 4116 
L 825 1625 
L 2419 1625 
L 2419 4116 
z
M 2253 4666 
L 3047 4666 
L 3047 1625 
L 3713 1625 
L 3713 1100 
L 3047 1100 
L 3047 0 
L 2419 0 
L 2419 1100 
L 313 1100 
L 313 1709 
L 2253 4666 
z
" transform="scale(0.015625)"/>
       </defs>
       <use xlink:href="#DejaVuSans-34"/>
       <use xlink:href="#DejaVuSans-30" transform="translate(63.623047 0)"/>
      </g>
     </g>
    </g>
    <g id="xtick_5">
     <g id="line2d_5">
      <g>
       <use xlink:href="#m03f749aa8f" x="384.646365" y="320.243478" style="stroke: #000000; stroke-width: 0.8"/>
      </g>
     </g>
     <g id="text_5">
      <!-- 60 -->
      <g transform="translate(375.102615 338.641135) scale(0.15 -0.15)">
       <defs>
        <path id="DejaVuSans-36" d="M 2113 2584 
Q 1688 2584 1439 2293 
Q 1191 2003 1191 1497 
Q 1191 994 1439 701 
Q 1688 409 2113 409 
Q 2538 409 2786 701 
Q 3034 994 3034 1497 
Q 3034 2003 2786 2293 
Q 2538 2584 2113 2584 
z
M 3366 4563 
L 3366 3988 
Q 3128 4100 2886 4159 
Q 2644 4219 2406 4219 
Q 1781 4219 1451 3797 
Q 1122 3375 1075 2522 
Q 1259 2794 1537 2939 
Q 1816 3084 2150 3084 
Q 2853 3084 3261 2657 
Q 3669 2231 3669 1497 
Q 3669 778 3244 343 
Q 2819 -91 2113 -91 
Q 1303 -91 875 529 
Q 447 1150 447 2328 
Q 447 3434 972 4092 
Q 1497 4750 2381 4750 
Q 2619 4750 2861 4703 
Q 3103 4656 3366 4563 
z
" transform="scale(0.015625)"/>
       </defs>
       <use xlink:href="#DejaVuSans-36"/>
       <use xlink:href="#DejaVuSans-30" transform="translate(63.623047 0)"/>
      </g>
     </g>
    </g>
    <g id="text_6">
     <!-- Time [hr] -->
     <g transform="translate(203.115313 359.437853) scale(0.18 -0.18)">
      <defs>
       <path id="DejaVuSans-Bold-54" d="M 31 4666 
L 4331 4666 
L 4331 3756 
L 2784 3756 
L 2784 0 
L 1581 0 
L 1581 3756 
L 31 3756 
L 31 4666 
z
" transform="scale(0.015625)"/>
       <path id="DejaVuSans-Bold-69" d="M 538 3500 
L 1656 3500 
L 1656 0 
L 538 0 
L 538 3500 
z
M 538 4863 
L 1656 4863 
L 1656 3950 
L 538 3950 
L 538 4863 
z
" transform="scale(0.015625)"/>
       <path id="DejaVuSans-Bold-6d" d="M 3781 2919 
Q 3994 3244 4286 3414 
Q 4578 3584 4928 3584 
Q 5531 3584 5847 3212 
Q 6163 2841 6163 2131 
L 6163 0 
L 5038 0 
L 5038 1825 
Q 5041 1866 5042 1909 
Q 5044 1953 5044 2034 
Q 5044 2406 4934 2573 
Q 4825 2741 4581 2741 
Q 4263 2741 4089 2478 
Q 3916 2216 3909 1719 
L 3909 0 
L 2784 0 
L 2784 1825 
Q 2784 2406 2684 2573 
Q 2584 2741 2328 2741 
Q 2006 2741 1831 2477 
Q 1656 2213 1656 1722 
L 1656 0 
L 531 0 
L 531 3500 
L 1656 3500 
L 1656 2988 
Q 1863 3284 2130 3434 
Q 2397 3584 2719 3584 
Q 3081 3584 3359 3409 
Q 3638 3234 3781 2919 
z
" transform="scale(0.015625)"/>
       <path id="DejaVuSans-Bold-65" d="M 4031 1759 
L 4031 1441 
L 1416 1441 
Q 1456 1047 1700 850 
Q 1944 653 2381 653 
Q 2734 653 3104 758 
Q 3475 863 3866 1075 
L 3866 213 
Q 3469 63 3072 -14 
Q 2675 -91 2278 -91 
Q 1328 -91 801 392 
Q 275 875 275 1747 
Q 275 2603 792 3093 
Q 1309 3584 2216 3584 
Q 3041 3584 3536 3087 
Q 4031 2591 4031 1759 
z
M 2881 2131 
Q 2881 2450 2695 2645 
Q 2509 2841 2209 2841 
Q 1884 2841 1681 2658 
Q 1478 2475 1428 2131 
L 2881 2131 
z
" transform="scale(0.015625)"/>
       <path id="DejaVuSans-Bold-20" transform="scale(0.015625)"/>
       <path id="DejaVuSans-Bold-5b" d="M 550 4863 
L 2491 4863 
L 2491 4159 
L 1613 4159 
L 1613 -141 
L 2491 -141 
L 2491 -844 
L 550 -844 
L 550 4863 
z
" transform="scale(0.015625)"/>
       <path id="DejaVuSans-Bold-68" d="M 4056 2131 
L 4056 0 
L 2931 0 
L 2931 347 
L 2931 1625 
Q 2931 2084 2911 2256 
Q 2891 2428 2841 2509 
Q 2775 2619 2662 2680 
Q 2550 2741 2406 2741 
Q 2056 2741 1856 2470 
Q 1656 2200 1656 1722 
L 1656 0 
L 538 0 
L 538 4863 
L 1656 4863 
L 1656 2988 
Q 1909 3294 2193 3439 
Q 2478 3584 2822 3584 
Q 3428 3584 3742 3212 
Q 4056 2841 4056 2131 
z
" transform="scale(0.015625)"/>
       <path id="DejaVuSans-Bold-72" d="M 3138 2547 
Q 2991 2616 2845 2648 
Q 2700 2681 2553 2681 
Q 2122 2681 1889 2404 
Q 1656 2128 1656 1613 
L 1656 0 
L 538 0 
L 538 3500 
L 1656 3500 
L 1656 2925 
Q 1872 3269 2151 3426 
Q 2431 3584 2822 3584 
Q 2878 3584 2943 3579 
Q 3009 3575 3134 3559 
L 3138 2547 
z
" transform="scale(0.015625)"/>
       <path id="DejaVuSans-Bold-5d" d="M 2375 -844 
L 434 -844 
L 434 -141 
L 1313 -141 
L 1313 4159 
L 434 4159 
L 434 4863 
L 2375 4863 
L 2375 -844 
z
" transform="scale(0.015625)"/>
      </defs>
      <use xlink:href="#DejaVuSans-Bold-54"/>
      <use xlink:href="#DejaVuSans-Bold-69" transform="translate(68.212891 0)"/>
      <use xlink:href="#DejaVuSans-Bold-6d" transform="translate(102.490234 0)"/>
      <use xlink:href="#DejaVuSans-Bold-65" transform="translate(206.689453 0)"/>
      <use xlink:href="#DejaVuSans-Bold-20" transform="translate(274.511719 0)"/>
      <use xlink:href="#DejaVuSans-Bold-5b" transform="translate(309.326172 0)"/>
      <use xlink:href="#DejaVuSans-Bold-68" transform="translate(355.029297 0)"/>
      <use xlink:href="#DejaVuSans-Bold-72" transform="translate(426.220703 0)"/>
      <use xlink:href="#DejaVuSans-Bold-5d" transform="translate(475.537109 0)"/>
     </g>
    </g>
   </g>
   <g id="matplotlib.axis_2">
    <g id="ytick_1">
     <g id="line2d_6">
      <defs>
       <path id="m03bbb595ac" d="M 0 0 
L -3.5 0 
" style="stroke: #000000; stroke-width: 0.8"/>
      </defs>
      <g>
       <use xlink:href="#m03bbb595ac" x="54.727813" y="309.286957" style="stroke: #000000; stroke-width: 0.8"/>
      </g>
     </g>
     <g id="text_7">
      <!-- 0 -->
      <g transform="translate(38.184063 314.985785) scale(0.15 -0.15)">
       <use xlink:href="#DejaVuSans-30"/>
      </g>
     </g>
    </g>
    <g id="ytick_2">
     <g id="line2d_7">
      <g>
       <use xlink:href="#m03bbb595ac" x="54.727813" y="278.204147" style="stroke: #000000; stroke-width: 0.8"/>
      </g>
     </g>
     <g id="text_8">
      <!-- 1 -->
      <g transform="translate(38.184063 283.902975) scale(0.15 -0.15)">
       <defs>
        <path id="DejaVuSans-31" d="M 794 531 
L 1825 531 
L 1825 4091 
L 703 3866 
L 703 4441 
L 1819 4666 
L 2450 4666 
L 2450 531 
L 3481 531 
L 3481 0 
L 794 0 
L 794 531 
z
" transform="scale(0.015625)"/>
       </defs>
       <use xlink:href="#DejaVuSans-31"/>
      </g>
     </g>
    </g>
    <g id="ytick_3">
     <g id="line2d_8">
      <g>
       <use xlink:href="#m03bbb595ac" x="54.727813" y="247.121338" style="stroke: #000000; stroke-width: 0.8"/>
      </g>
     </g>
     <g id="text_9">
      <!-- 2 -->
      <g transform="translate(38.184063 252.820166) scale(0.15 -0.15)">
       <use xlink:href="#DejaVuSans-32"/>
      </g>
     </g>
    </g>
    <g id="ytick_4">
     <g id="line2d_9">
      <g>
       <use xlink:href="#m03bbb595ac" x="54.727813" y="216.038528" style="stroke: #000000; stroke-width: 0.8"/>
      </g>
     </g>
     <g id="text_10">
      <!-- 3 -->
      <g transform="translate(38.184063 221.737357) scale(0.15 -0.15)">
       <defs>
        <path id="DejaVuSans-33" d="M 2597 2516 
Q 3050 2419 3304 2112 
Q 3559 1806 3559 1356 
Q 3559 666 3084 287 
Q 2609 -91 1734 -91 
Q 1441 -91 1130 -33 
Q 819 25 488 141 
L 488 750 
Q 750 597 1062 519 
Q 1375 441 1716 441 
Q 2309 441 2620 675 
Q 2931 909 2931 1356 
Q 2931 1769 2642 2001 
Q 2353 2234 1838 2234 
L 1294 2234 
L 1294 2753 
L 1863 2753 
Q 2328 2753 2575 2939 
Q 2822 3125 2822 3475 
Q 2822 3834 2567 4026 
Q 2313 4219 1838 4219 
Q 1578 4219 1281 4162 
Q 984 4106 628 3988 
L 628 4550 
Q 988 4650 1302 4700 
Q 1616 4750 1894 4750 
Q 2613 4750 3031 4423 
Q 3450 4097 3450 3541 
Q 3450 3153 3228 2886 
Q 3006 2619 2597 2516 
z
" transform="scale(0.015625)"/>
       </defs>
       <use xlink:href="#DejaVuSans-33"/>
      </g>
     </g>
    </g>
    <g id="ytick_5">
     <g id="line2d_10">
      <g>
       <use xlink:href="#m03bbb595ac" x="54.727813" y="184.955719" style="stroke: #000000; stroke-width: 0.8"/>
      </g>
     </g>
     <g id="text_11">
      <!-- 4 -->
      <g transform="translate(38.184063 190.654547) scale(0.15 -0.15)">
       <use xlink:href="#DejaVuSans-34"/>
      </g>
     </g>
    </g>
    <g id="ytick_6">
     <g id="line2d_11">
      <g>
       <use xlink:href="#m03bbb595ac" x="54.727813" y="153.87291" style="stroke: #000000; stroke-width: 0.8"/>
      </g>
     </g>
     <g id="text_12">
      <!-- 5 -->
      <g transform="translate(38.184063 159.571738) scale(0.15 -0.15)">
       <defs>
        <path id="DejaVuSans-35" d="M 691 4666 
L 3169 4666 
L 3169 4134 
L 1269 4134 
L 1269 2991 
Q 1406 3038 1543 3061 
Q 1681 3084 1819 3084 
Q 2600 3084 3056 2656 
Q 3513 2228 3513 1497 
Q 3513 744 3044 326 
Q 2575 -91 1722 -91 
Q 1428 -91 1123 -41 
Q 819 9 494 109 
L 494 744 
Q 775 591 1075 516 
Q 1375 441 1709 441 
Q 2250 441 2565 725 
Q 2881 1009 2881 1497 
Q 2881 1984 2565 2268 
Q 2250 2553 1709 2553 
Q 1456 2553 1204 2497 
Q 953 2441 691 2322 
L 691 4666 
z
" transform="scale(0.015625)"/>
       </defs>
       <use xlink:href="#DejaVuSans-35"/>
      </g>
     </g>
    </g>
    <g id="ytick_7">
     <g id="line2d_12">
      <g>
       <use xlink:href="#m03bbb595ac" x="54.727813" y="122.7901" style="stroke: #000000; stroke-width: 0.8"/>
      </g>
     </g>
     <g id="text_13">
      <!-- 6 -->
      <g transform="translate(38.184063 128.488928) scale(0.15 -0.15)">
       <use xlink:href="#DejaVuSans-36"/>
      </g>
     </g>
    </g>
    <g id="ytick_8">
     <g id="line2d_13">
      <g>
       <use xlink:href="#m03bbb595ac" x="54.727813" y="91.707291" style="stroke: #000000; stroke-width: 0.8"/>
      </g>
     </g>
     <g id="text_14">
      <!-- 7 -->
      <g transform="translate(38.184063 97.406119) scale(0.15 -0.15)">
       <defs>
        <path id="DejaVuSans-37" d="M 525 4666 
L 3525 4666 
L 3525 4397 
L 1831 0 
L 1172 0 
L 2766 4134 
L 525 4134 
L 525 4666 
z
" transform="scale(0.015625)"/>
       </defs>
       <use xlink:href="#DejaVuSans-37"/>
      </g>
     </g>
    </g>
    <g id="text_15">
     <!-- Losartan urine [µmole] -->
     <g transform="translate(30.420938 316.597989) rotate(-90) scale(0.18 -0.18)">
      <defs>
       <path id="DejaVuSans-Bold-4c" d="M 588 4666 
L 1791 4666 
L 1791 909 
L 3903 909 
L 3903 0 
L 588 0 
L 588 4666 
z
" transform="scale(0.015625)"/>
       <path id="DejaVuSans-Bold-6f" d="M 2203 2784 
Q 1831 2784 1636 2517 
Q 1441 2250 1441 1747 
Q 1441 1244 1636 976 
Q 1831 709 2203 709 
Q 2569 709 2762 976 
Q 2956 1244 2956 1747 
Q 2956 2250 2762 2517 
Q 2569 2784 2203 2784 
z
M 2203 3584 
Q 3106 3584 3614 3096 
Q 4122 2609 4122 1747 
Q 4122 884 3614 396 
Q 3106 -91 2203 -91 
Q 1297 -91 786 396 
Q 275 884 275 1747 
Q 275 2609 786 3096 
Q 1297 3584 2203 3584 
z
" transform="scale(0.015625)"/>
       <path id="DejaVuSans-Bold-73" d="M 3272 3391 
L 3272 2541 
Q 2913 2691 2578 2766 
Q 2244 2841 1947 2841 
Q 1628 2841 1473 2761 
Q 1319 2681 1319 2516 
Q 1319 2381 1436 2309 
Q 1553 2238 1856 2203 
L 2053 2175 
Q 2913 2066 3209 1816 
Q 3506 1566 3506 1031 
Q 3506 472 3093 190 
Q 2681 -91 1863 -91 
Q 1516 -91 1145 -36 
Q 775 19 384 128 
L 384 978 
Q 719 816 1070 734 
Q 1422 653 1784 653 
Q 2113 653 2278 743 
Q 2444 834 2444 1013 
Q 2444 1163 2330 1236 
Q 2216 1309 1875 1350 
L 1678 1375 
Q 931 1469 631 1722 
Q 331 1975 331 2491 
Q 331 3047 712 3315 
Q 1094 3584 1881 3584 
Q 2191 3584 2531 3537 
Q 2872 3491 3272 3391 
z
" transform="scale(0.015625)"/>
       <path id="DejaVuSans-Bold-61" d="M 2106 1575 
Q 1756 1575 1579 1456 
Q 1403 1338 1403 1106 
Q 1403 894 1545 773 
Q 1688 653 1941 653 
Q 2256 653 2472 879 
Q 2688 1106 2688 1447 
L 2688 1575 
L 2106 1575 
z
M 3816 1997 
L 3816 0 
L 2688 0 
L 2688 519 
Q 2463 200 2181 54 
Q 1900 -91 1497 -91 
Q 953 -91 614 226 
Q 275 544 275 1050 
Q 275 1666 698 1953 
Q 1122 2241 2028 2241 
L 2688 2241 
L 2688 2328 
Q 2688 2594 2478 2717 
Q 2269 2841 1825 2841 
Q 1466 2841 1156 2769 
Q 847 2697 581 2553 
L 581 3406 
Q 941 3494 1303 3539 
Q 1666 3584 2028 3584 
Q 2975 3584 3395 3211 
Q 3816 2838 3816 1997 
z
" transform="scale(0.015625)"/>
       <path id="DejaVuSans-Bold-74" d="M 1759 4494 
L 1759 3500 
L 2913 3500 
L 2913 2700 
L 1759 2700 
L 1759 1216 
Q 1759 972 1856 886 
Q 1953 800 2241 800 
L 2816 800 
L 2816 0 
L 1856 0 
Q 1194 0 917 276 
Q 641 553 641 1216 
L 641 2700 
L 84 2700 
L 84 3500 
L 641 3500 
L 641 4494 
L 1759 4494 
z
" transform="scale(0.015625)"/>
       <path id="DejaVuSans-Bold-6e" d="M 4056 2131 
L 4056 0 
L 2931 0 
L 2931 347 
L 2931 1631 
Q 2931 2084 2911 2256 
Q 2891 2428 2841 2509 
Q 2775 2619 2662 2680 
Q 2550 2741 2406 2741 
Q 2056 2741 1856 2470 
Q 1656 2200 1656 1722 
L 1656 0 
L 538 0 
L 538 3500 
L 1656 3500 
L 1656 2988 
Q 1909 3294 2193 3439 
Q 2478 3584 2822 3584 
Q 3428 3584 3742 3212 
Q 4056 2841 4056 2131 
z
" transform="scale(0.015625)"/>
       <path id="DejaVuSans-Bold-75" d="M 500 1363 
L 500 3500 
L 1625 3500 
L 1625 3150 
Q 1625 2866 1622 2436 
Q 1619 2006 1619 1863 
Q 1619 1441 1641 1255 
Q 1663 1069 1716 984 
Q 1784 875 1895 815 
Q 2006 756 2150 756 
Q 2500 756 2700 1025 
Q 2900 1294 2900 1772 
L 2900 3500 
L 4019 3500 
L 4019 0 
L 2900 0 
L 2900 506 
Q 2647 200 2364 54 
Q 2081 -91 1741 -91 
Q 1134 -91 817 281 
Q 500 653 500 1363 
z
" transform="scale(0.015625)"/>
       <path id="DejaVuSans-Bold-b5" d="M 544 -1338 
L 544 3500 
L 1672 3500 
L 1672 1466 
Q 1672 1103 1828 926 
Q 1984 750 2303 750 
Q 2625 750 2781 926 
Q 2938 1103 2938 1466 
L 2938 3500 
L 4063 3500 
L 4063 1159 
Q 4063 938 4114 850 
Q 4166 763 4288 763 
Q 4344 763 4395 778 
Q 4447 794 4506 831 
L 4506 50 
Q 4341 -22 4195 -56 
Q 4050 -91 3909 -91 
Q 3631 -91 3454 26 
Q 3278 144 3169 403 
Q 3022 156 2811 32 
Q 2600 -91 2322 -91 
Q 2091 -91 1928 -17 
Q 1766 56 1672 206 
L 1672 -1338 
L 544 -1338 
z
" transform="scale(0.015625)"/>
       <path id="DejaVuSans-Bold-6c" d="M 538 4863 
L 1656 4863 
L 1656 0 
L 538 0 
L 538 4863 
z
" transform="scale(0.015625)"/>
      </defs>
      <use xlink:href="#DejaVuSans-Bold-4c"/>
      <use xlink:href="#DejaVuSans-Bold-6f" transform="translate(63.720703 0)"/>
      <use xlink:href="#DejaVuSans-Bold-73" transform="translate(132.421875 0)"/>
      <use xlink:href="#DejaVuSans-Bold-61" transform="translate(191.943359 0)"/>
      <use xlink:href="#DejaVuSans-Bold-72" transform="translate(259.423828 0)"/>
      <use xlink:href="#DejaVuSans-Bold-74" transform="translate(308.740234 0)"/>
      <use xlink:href="#DejaVuSans-Bold-61" transform="translate(356.542969 0)"/>
      <use xlink:href="#DejaVuSans-Bold-6e" transform="translate(424.023438 0)"/>
      <use xlink:href="#DejaVuSans-Bold-20" transform="translate(495.214844 0)"/>
      <use xlink:href="#DejaVuSans-Bold-75" transform="translate(530.029297 0)"/>
      <use xlink:href="#DejaVuSans-Bold-72" transform="translate(601.220703 0)"/>
      <use xlink:href="#DejaVuSans-Bold-69" transform="translate(650.537109 0)"/>
      <use xlink:href="#DejaVuSans-Bold-6e" transform="translate(684.814453 0)"/>
      <use xlink:href="#DejaVuSans-Bold-65" transform="translate(756.005859 0)"/>
      <use xlink:href="#DejaVuSans-Bold-20" transform="translate(823.828125 0)"/>
      <use xlink:href="#DejaVuSans-Bold-5b" transform="translate(858.642578 0)"/>
      <use xlink:href="#DejaVuSans-Bold-b5" transform="translate(904.345703 0)"/>
      <use xlink:href="#DejaVuSans-Bold-6d" transform="translate(977.929688 0)"/>
      <use xlink:href="#DejaVuSans-Bold-6f" transform="translate(1082.128906 0)"/>
      <use xlink:href="#DejaVuSans-Bold-6c" transform="translate(1150.830078 0)"/>
      <use xlink:href="#DejaVuSans-Bold-65" transform="translate(1185.107422 0)"/>
      <use xlink:href="#DejaVuSans-Bold-5d" transform="translate(1252.929688 0)"/>
     </g>
    </g>
   </g>
   <g id="line2d_14">
    <path d="M 54.539288 192.447339 
L 54.727813 192.394458 
L 54.727813 309.286957 
L 55.293387 309.0451 
L 55.670437 308.542168 
L 56.047487 307.538902 
L 56.613061 304.957625 
L 57.178636 301.184614 
L 58.12126 293.088052 
L 60.760609 269.226136 
L 61.891758 261.286152 
L 63.022908 254.9817 
L 64.154057 250.048572 
L 65.285206 246.181966 
L 66.416355 243.113937 
L 67.547505 240.632252 
L 68.867179 238.266939 
L 70.375378 236.044824 
L 72.072102 233.946074 
L 74.145876 231.737935 
L 76.785224 229.259282 
L 80.178672 226.380006 
L 84.514745 223.002142 
L 89.416392 219.474798 
L 94.506564 216.086836 
L 99.78526 212.840434 
L 105.252482 209.741231 
L 110.908229 206.794238 
L 116.7525 204.003021 
L 122.785297 201.369607 
L 129.006618 198.894569 
L 135.604989 196.512322 
L 142.391885 194.29819 
L 148.990256 192.353134 
L 148.990256 309.286957 
L 149.500844 309.086227 
L 150.011432 308.378254 
L 150.522021 306.722495 
L 151.032609 304.018361 
L 152.053785 296.099382 
L 155.117315 268.497319 
L 156.138491 261.383277 
L 157.159668 255.607148 
L 158.180844 250.976634 
L 159.202021 247.265315 
L 160.223197 244.266217 
L 161.244374 241.80849 
L 162.776138 238.852284 
L 164.307903 236.493716 
L 165.839668 234.521364 
L 167.882021 232.267327 
L 170.434962 229.807171 
L 174.009079 226.728537 
L 178.093785 223.511957 
L 182.689079 220.159568 
L 187.794962 216.708825 
L 192.900844 213.517199 
L 198.517315 210.280612 
L 204.133785 207.308135 
L 209.750256 204.578142 
L 215.877315 201.853298 
L 222.004374 199.36999 
L 228.642021 196.92751 
L 235.279668 194.718671 
L 242.427903 192.575615 
L 250.086727 190.522911 
L 257.74555 188.695035 
L 265.914962 186.96541 
L 274.594962 185.347695 
L 284.296138 183.774313 
L 294.507903 182.3498 
L 305.740844 181.017422 
L 317.994962 179.800455 
L 331.270256 178.713535 
L 346.077315 177.733018 
L 362.416138 176.877976 
L 381.307903 176.12016 
L 403.263197 175.472966 
L 404.284374 175.447786 
L 404.284374 175.447786 
" clip-path="url(#p65eac35c5e)" style="fill: none; stroke: #000000; stroke-width: 2; stroke-linecap: square"/>
   </g>
   <g id="line2d_15">
    <path d="M 148.990256 309.286957 
L 243.252699 90.156522 
" clip-path="url(#p65eac35c5e)" style="fill: none; stroke-dasharray: 3.7,1.6; stroke-dashoffset: 0; stroke: #000000"/>
    <defs>
     <path id="mb544ee6e63" d="M -3 3 
L 3 3 
L 3 -3 
L -3 -3 
z
" style="stroke: #000000; stroke-linejoin: miter"/>
    </defs>
    <g clip-path="url(#p65eac35c5e)">
     <use xlink:href="#mb544ee6e63" x="148.990256" y="309.286957" style="stroke: #000000; stroke-linejoin: miter"/>
     <use xlink:href="#mb544ee6e63" x="243.252699" y="90.156522" style="stroke: #000000; stroke-linejoin: miter"/>
    </g>
   </g>
   <g id="line2d_16">
    <path d="M 54.539288 245.29422 
L 54.727813 245.26419 
L 54.727813 309.286957 
L 55.481912 309.058215 
L 55.858962 308.693913 
L 56.236012 308.058212 
L 56.801586 306.5657 
L 57.555686 303.714569 
L 58.87536 297.45969 
L 60.572084 289.555674 
L 61.703233 285.216794 
L 62.834383 281.720499 
L 63.965532 278.953002 
L 65.096681 276.761954 
L 66.227831 275.007174 
L 67.547505 273.361668 
L 69.055704 271.850272 
L 70.752428 270.460113 
L 73.014727 268.918636 
L 75.8426 267.274239 
L 79.801622 265.246273 
L 84.891794 262.898191 
L 90.736066 260.449081 
L 96.957387 258.083379 
L 103.555758 255.816354 
L 110.342654 253.718347 
L 117.5066 251.73455 
L 125.047595 249.875021 
L 133.154165 248.108062 
L 141.82631 246.452067 
L 148.990256 245.245064 
L 148.990256 309.286957 
L 149.500844 309.178434 
L 150.011432 308.826152 
L 150.522021 308.008698 
L 151.032609 306.664614 
L 152.053785 302.674776 
L 155.117315 288.389434 
L 156.138491 284.629253 
L 157.159668 281.548246 
L 158.180844 279.054907 
L 159.202021 277.036328 
L 160.223197 275.387616 
L 161.754962 273.422205 
L 163.286727 271.877445 
L 165.329079 270.227098 
L 167.882021 268.544945 
L 170.94555 266.821278 
L 175.030256 264.780083 
L 180.136138 262.467618 
L 186.263197 259.946405 
L 192.390256 257.660906 
L 199.027903 255.422564 
L 206.176138 253.260437 
L 213.324374 251.328989 
L 220.983197 249.487644 
L 229.152609 247.754013 
L 237.832609 246.141205 
L 247.023197 244.657981 
L 257.234962 243.243603 
L 267.957315 241.984485 
L 279.700844 240.829187 
L 292.976138 239.756728 
L 307.272609 238.827304 
L 323.611432 237.992639 
L 342.503197 237.261081 
L 364.458491 236.644323 
L 390.498491 236.142396 
L 404.284374 235.949299 
L 404.284374 235.949299 
" clip-path="url(#p65eac35c5e)" style="fill: none; stroke: #66c2a4; stroke-width: 2; stroke-linecap: square"/>
   </g>
   <g id="line2d_17">
    <path d="M 148.990256 309.286957 
L 243.252699 219.61204 
" clip-path="url(#p65eac35c5e)" style="fill: none; stroke-dasharray: 3.7,1.6; stroke-dashoffset: 0; stroke: #66c2a4"/>
    <defs>
     <path id="mf463d3e040" d="M -3 3 
L 3 3 
L 3 -3 
L -3 -3 
z
" style="stroke: #000000; stroke-linejoin: miter"/>
    </defs>
    <g clip-path="url(#p65eac35c5e)">
     <use xlink:href="#mf463d3e040" x="148.990256" y="309.286957" style="fill: #66c2a4; stroke: #000000; stroke-linejoin: miter"/>
     <use xlink:href="#mf463d3e040" x="243.252699" y="219.61204" style="fill: #66c2a4; stroke: #000000; stroke-linejoin: miter"/>
    </g>
   </g>
   <g id="line2d_18">
    <path d="M 54.539288 290.68589 
L 54.727813 290.676994 
L 54.727813 309.286957 
L 55.670437 309.177209 
L 56.236012 308.934442 
L 56.990111 308.326934 
L 57.932736 307.207203 
L 61.514708 302.560062 
L 62.834383 301.359051 
L 64.154057 300.44286 
L 65.662256 299.656848 
L 67.547505 298.938165 
L 69.998328 298.263996 
L 73.580301 297.540528 
L 79.424573 296.619868 
L 88.662292 295.403947 
L 99.78526 294.165757 
L 112.039378 293.029979 
L 125.61317 292.001842 
L 140.695161 291.08861 
L 148.990256 290.671002 
L 148.990256 309.286957 
L 150.011432 309.154045 
L 150.522021 308.920281 
L 151.543197 308.01599 
L 153.074962 305.984503 
L 155.117315 303.283975 
L 156.649079 301.73113 
L 158.180844 300.588375 
L 159.712609 299.753592 
L 161.754962 298.95573 
L 164.307903 298.252501 
L 167.882021 297.533077 
L 174.009079 296.57311 
L 183.199668 295.369856 
L 194.432609 294.125717 
L 206.686727 292.996609 
L 220.472609 291.9602 
L 235.790256 291.042828 
L 253.150256 290.237246 
L 273.063197 289.546356 
L 296.550256 288.965251 
L 325.143197 288.493383 
L 361.394962 288.131427 
L 404.284374 287.899706 
L 404.284374 287.899706 
" clip-path="url(#p65eac35c5e)" style="fill: none; stroke: #006d2c; stroke-width: 2; stroke-linecap: square"/>
   </g>
   <g id="line2d_19">
    <path d="M 148.990256 309.286957 
L 243.252699 291.082274 
" clip-path="url(#p65eac35c5e)" style="fill: none; stroke-dasharray: 3.7,1.6; stroke-dashoffset: 0; stroke: #006d2c"/>
    <defs>
     <path id="mec7aa350f7" d="M -3 3 
L 3 3 
L 3 -3 
L -3 -3 
z
" style="stroke: #000000; stroke-linejoin: miter"/>
    </defs>
    <g clip-path="url(#p65eac35c5e)">
     <use xlink:href="#mec7aa350f7" x="148.990256" y="309.286957" style="fill: #006d2c; stroke: #000000; stroke-linejoin: miter"/>
     <use xlink:href="#mec7aa350f7" x="243.252699" y="291.082274" style="fill: #006d2c; stroke: #000000; stroke-linejoin: miter"/>
    </g>
   </g>
   <g id="patch_3">
    <path d="M 54.727813 320.243478 
L 54.727813 79.2 
" style="fill: none; stroke: #000000; stroke-width: 0.8; stroke-linejoin: miter; stroke-linecap: square"/>
   </g>
   <g id="patch_4">
    <path d="M 445.327813 320.243478 
L 445.327813 79.2 
" style="fill: none; stroke: #000000; stroke-width: 0.8; stroke-linejoin: miter; stroke-linecap: square"/>
   </g>
   <g id="patch_5">
    <path d="M 54.727813 320.243478 
L 445.327813 320.243478 
" style="fill: none; stroke: #000000; stroke-width: 0.8; stroke-linejoin: miter; stroke-linecap: square"/>
   </g>
   <g id="patch_6">
    <path d="M 54.727813 79.2 
L 445.327813 79.2 
" style="fill: none; stroke: #000000; stroke-width: 0.8; stroke-linejoin: miter; stroke-linecap: square"/>
   </g>
   <g id="legend_1">
    <g id="patch_7">
     <path d="M 338.865313 175.26875 
L 438.327813 175.26875 
Q 440.327813 175.26875 440.327813 173.26875 
L 440.327813 86.2 
Q 440.327813 84.2 438.327813 84.2 
L 338.865313 84.2 
Q 336.865313 84.2 336.865313 86.2 
L 336.865313 173.26875 
Q 336.865313 175.26875 338.865313 175.26875 
z
" style="fill: #ffffff; opacity: 0.8; stroke: #cccccc; stroke-linejoin: miter"/>
    </g>
    <g id="line2d_20">
     <path d="M 340.865313 92.298437 
L 360.865313 92.298437 
" style="fill: none; stroke: #000000; stroke-width: 2; stroke-linecap: square"/>
    </g>
    <g id="line2d_21"/>
    <g id="text_16">
     <!-- Sim group1 -->
     <g transform="translate(368.865313 95.798437) scale(0.1 -0.1)">
      <defs>
       <path id="DejaVuSans-53" d="M 3425 4513 
L 3425 3897 
Q 3066 4069 2747 4153 
Q 2428 4238 2131 4238 
Q 1616 4238 1336 4038 
Q 1056 3838 1056 3469 
Q 1056 3159 1242 3001 
Q 1428 2844 1947 2747 
L 2328 2669 
Q 3034 2534 3370 2195 
Q 3706 1856 3706 1288 
Q 3706 609 3251 259 
Q 2797 -91 1919 -91 
Q 1588 -91 1214 -16 
Q 841 59 441 206 
L 441 856 
Q 825 641 1194 531 
Q 1563 422 1919 422 
Q 2459 422 2753 634 
Q 3047 847 3047 1241 
Q 3047 1584 2836 1778 
Q 2625 1972 2144 2069 
L 1759 2144 
Q 1053 2284 737 2584 
Q 422 2884 422 3419 
Q 422 4038 858 4394 
Q 1294 4750 2059 4750 
Q 2388 4750 2728 4690 
Q 3069 4631 3425 4513 
z
" transform="scale(0.015625)"/>
       <path id="DejaVuSans-69" d="M 603 3500 
L 1178 3500 
L 1178 0 
L 603 0 
L 603 3500 
z
M 603 4863 
L 1178 4863 
L 1178 4134 
L 603 4134 
L 603 4863 
z
" transform="scale(0.015625)"/>
       <path id="DejaVuSans-6d" d="M 3328 2828 
Q 3544 3216 3844 3400 
Q 4144 3584 4550 3584 
Q 5097 3584 5394 3201 
Q 5691 2819 5691 2113 
L 5691 0 
L 5113 0 
L 5113 2094 
Q 5113 2597 4934 2840 
Q 4756 3084 4391 3084 
Q 3944 3084 3684 2787 
Q 3425 2491 3425 1978 
L 3425 0 
L 2847 0 
L 2847 2094 
Q 2847 2600 2669 2842 
Q 2491 3084 2119 3084 
Q 1678 3084 1418 2786 
Q 1159 2488 1159 1978 
L 1159 0 
L 581 0 
L 581 3500 
L 1159 3500 
L 1159 2956 
Q 1356 3278 1631 3431 
Q 1906 3584 2284 3584 
Q 2666 3584 2933 3390 
Q 3200 3197 3328 2828 
z
" transform="scale(0.015625)"/>
       <path id="DejaVuSans-20" transform="scale(0.015625)"/>
       <path id="DejaVuSans-67" d="M 2906 1791 
Q 2906 2416 2648 2759 
Q 2391 3103 1925 3103 
Q 1463 3103 1205 2759 
Q 947 2416 947 1791 
Q 947 1169 1205 825 
Q 1463 481 1925 481 
Q 2391 481 2648 825 
Q 2906 1169 2906 1791 
z
M 3481 434 
Q 3481 -459 3084 -895 
Q 2688 -1331 1869 -1331 
Q 1566 -1331 1297 -1286 
Q 1028 -1241 775 -1147 
L 775 -588 
Q 1028 -725 1275 -790 
Q 1522 -856 1778 -856 
Q 2344 -856 2625 -561 
Q 2906 -266 2906 331 
L 2906 616 
Q 2728 306 2450 153 
Q 2172 0 1784 0 
Q 1141 0 747 490 
Q 353 981 353 1791 
Q 353 2603 747 3093 
Q 1141 3584 1784 3584 
Q 2172 3584 2450 3431 
Q 2728 3278 2906 2969 
L 2906 3500 
L 3481 3500 
L 3481 434 
z
" transform="scale(0.015625)"/>
       <path id="DejaVuSans-72" d="M 2631 2963 
Q 2534 3019 2420 3045 
Q 2306 3072 2169 3072 
Q 1681 3072 1420 2755 
Q 1159 2438 1159 1844 
L 1159 0 
L 581 0 
L 581 3500 
L 1159 3500 
L 1159 2956 
Q 1341 3275 1631 3429 
Q 1922 3584 2338 3584 
Q 2397 3584 2469 3576 
Q 2541 3569 2628 3553 
L 2631 2963 
z
" transform="scale(0.015625)"/>
       <path id="DejaVuSans-6f" d="M 1959 3097 
Q 1497 3097 1228 2736 
Q 959 2375 959 1747 
Q 959 1119 1226 758 
Q 1494 397 1959 397 
Q 2419 397 2687 759 
Q 2956 1122 2956 1747 
Q 2956 2369 2687 2733 
Q 2419 3097 1959 3097 
z
M 1959 3584 
Q 2709 3584 3137 3096 
Q 3566 2609 3566 1747 
Q 3566 888 3137 398 
Q 2709 -91 1959 -91 
Q 1206 -91 779 398 
Q 353 888 353 1747 
Q 353 2609 779 3096 
Q 1206 3584 1959 3584 
z
" transform="scale(0.015625)"/>
       <path id="DejaVuSans-75" d="M 544 1381 
L 544 3500 
L 1119 3500 
L 1119 1403 
Q 1119 906 1312 657 
Q 1506 409 1894 409 
Q 2359 409 2629 706 
Q 2900 1003 2900 1516 
L 2900 3500 
L 3475 3500 
L 3475 0 
L 2900 0 
L 2900 538 
Q 2691 219 2414 64 
Q 2138 -91 1772 -91 
Q 1169 -91 856 284 
Q 544 659 544 1381 
z
M 1991 3584 
L 1991 3584 
z
" transform="scale(0.015625)"/>
       <path id="DejaVuSans-70" d="M 1159 525 
L 1159 -1331 
L 581 -1331 
L 581 3500 
L 1159 3500 
L 1159 2969 
Q 1341 3281 1617 3432 
Q 1894 3584 2278 3584 
Q 2916 3584 3314 3078 
Q 3713 2572 3713 1747 
Q 3713 922 3314 415 
Q 2916 -91 2278 -91 
Q 1894 -91 1617 61 
Q 1341 213 1159 525 
z
M 3116 1747 
Q 3116 2381 2855 2742 
Q 2594 3103 2138 3103 
Q 1681 3103 1420 2742 
Q 1159 2381 1159 1747 
Q 1159 1113 1420 752 
Q 1681 391 2138 391 
Q 2594 391 2855 752 
Q 3116 1113 3116 1747 
z
" transform="scale(0.015625)"/>
      </defs>
      <use xlink:href="#DejaVuSans-53"/>
      <use xlink:href="#DejaVuSans-69" transform="translate(63.476562 0)"/>
      <use xlink:href="#DejaVuSans-6d" transform="translate(91.259766 0)"/>
      <use xlink:href="#DejaVuSans-20" transform="translate(188.671875 0)"/>
      <use xlink:href="#DejaVuSans-67" transform="translate(220.458984 0)"/>
      <use xlink:href="#DejaVuSans-72" transform="translate(283.935547 0)"/>
      <use xlink:href="#DejaVuSans-6f" transform="translate(322.798828 0)"/>
      <use xlink:href="#DejaVuSans-75" transform="translate(383.980469 0)"/>
      <use xlink:href="#DejaVuSans-70" transform="translate(447.359375 0)"/>
      <use xlink:href="#DejaVuSans-31" transform="translate(510.835938 0)"/>
     </g>
    </g>
    <g id="line2d_22">
     <path d="M 340.865313 106.976562 
L 360.865313 106.976562 
" style="fill: none; stroke-dasharray: 3.7,1.6; stroke-dashoffset: 0; stroke: #000000"/>
    </g>
    <g id="line2d_23">
     <g>
      <use xlink:href="#mb544ee6e63" x="350.865313" y="106.976562" style="stroke: #000000; stroke-linejoin: miter"/>
     </g>
    </g>
    <g id="text_17">
     <!-- group1 (n=6) -->
     <g transform="translate(368.865313 110.476562) scale(0.1 -0.1)">
      <defs>
       <path id="DejaVuSans-28" d="M 1984 4856 
Q 1566 4138 1362 3434 
Q 1159 2731 1159 2009 
Q 1159 1288 1364 580 
Q 1569 -128 1984 -844 
L 1484 -844 
Q 1016 -109 783 600 
Q 550 1309 550 2009 
Q 550 2706 781 3412 
Q 1013 4119 1484 4856 
L 1984 4856 
z
" transform="scale(0.015625)"/>
       <path id="DejaVuSans-6e" d="M 3513 2113 
L 3513 0 
L 2938 0 
L 2938 2094 
Q 2938 2591 2744 2837 
Q 2550 3084 2163 3084 
Q 1697 3084 1428 2787 
Q 1159 2491 1159 1978 
L 1159 0 
L 581 0 
L 581 3500 
L 1159 3500 
L 1159 2956 
Q 1366 3272 1645 3428 
Q 1925 3584 2291 3584 
Q 2894 3584 3203 3211 
Q 3513 2838 3513 2113 
z
" transform="scale(0.015625)"/>
       <path id="DejaVuSans-3d" d="M 678 2906 
L 4684 2906 
L 4684 2381 
L 678 2381 
L 678 2906 
z
M 678 1631 
L 4684 1631 
L 4684 1100 
L 678 1100 
L 678 1631 
z
" transform="scale(0.015625)"/>
       <path id="DejaVuSans-29" d="M 513 4856 
L 1013 4856 
Q 1481 4119 1714 3412 
Q 1947 2706 1947 2009 
Q 1947 1309 1714 600 
Q 1481 -109 1013 -844 
L 513 -844 
Q 928 -128 1133 580 
Q 1338 1288 1338 2009 
Q 1338 2731 1133 3434 
Q 928 4138 513 4856 
z
" transform="scale(0.015625)"/>
      </defs>
      <use xlink:href="#DejaVuSans-67"/>
      <use xlink:href="#DejaVuSans-72" transform="translate(63.476562 0)"/>
      <use xlink:href="#DejaVuSans-6f" transform="translate(102.339844 0)"/>
      <use xlink:href="#DejaVuSans-75" transform="translate(163.521484 0)"/>
      <use xlink:href="#DejaVuSans-70" transform="translate(226.900391 0)"/>
      <use xlink:href="#DejaVuSans-31" transform="translate(290.376953 0)"/>
      <use xlink:href="#DejaVuSans-20" transform="translate(354 0)"/>
      <use xlink:href="#DejaVuSans-28" transform="translate(385.787109 0)"/>
      <use xlink:href="#DejaVuSans-6e" transform="translate(424.800781 0)"/>
      <use xlink:href="#DejaVuSans-3d" transform="translate(488.179688 0)"/>
      <use xlink:href="#DejaVuSans-36" transform="translate(571.96875 0)"/>
      <use xlink:href="#DejaVuSans-29" transform="translate(635.591797 0)"/>
     </g>
    </g>
    <g id="line2d_24">
     <path d="M 340.865313 121.654688 
L 360.865313 121.654688 
" style="fill: none; stroke: #66c2a4; stroke-width: 2; stroke-linecap: square"/>
    </g>
    <g id="line2d_25"/>
    <g id="text_18">
     <!-- Sim group2 -->
     <g transform="translate(368.865313 125.154688) scale(0.1 -0.1)">
      <use xlink:href="#DejaVuSans-53"/>
      <use xlink:href="#DejaVuSans-69" transform="translate(63.476562 0)"/>
      <use xlink:href="#DejaVuSans-6d" transform="translate(91.259766 0)"/>
      <use xlink:href="#DejaVuSans-20" transform="translate(188.671875 0)"/>
      <use xlink:href="#DejaVuSans-67" transform="translate(220.458984 0)"/>
      <use xlink:href="#DejaVuSans-72" transform="translate(283.935547 0)"/>
      <use xlink:href="#DejaVuSans-6f" transform="translate(322.798828 0)"/>
      <use xlink:href="#DejaVuSans-75" transform="translate(383.980469 0)"/>
      <use xlink:href="#DejaVuSans-70" transform="translate(447.359375 0)"/>
      <use xlink:href="#DejaVuSans-32" transform="translate(510.835938 0)"/>
     </g>
    </g>
    <g id="line2d_26">
     <path d="M 340.865313 136.332812 
L 360.865313 136.332812 
" style="fill: none; stroke-dasharray: 3.7,1.6; stroke-dashoffset: 0; stroke: #66c2a4"/>
    </g>
    <g id="line2d_27">
     <g>
      <use xlink:href="#mf463d3e040" x="350.865313" y="136.332812" style="fill: #66c2a4; stroke: #000000; stroke-linejoin: miter"/>
     </g>
    </g>
    <g id="text_19">
     <!-- group2 (n=6) -->
     <g transform="translate(368.865313 139.832812) scale(0.1 -0.1)">
      <use xlink:href="#DejaVuSans-67"/>
      <use xlink:href="#DejaVuSans-72" transform="translate(63.476562 0)"/>
      <use xlink:href="#DejaVuSans-6f" transform="translate(102.339844 0)"/>
      <use xlink:href="#DejaVuSans-75" transform="translate(163.521484 0)"/>
      <use xlink:href="#DejaVuSans-70" transform="translate(226.900391 0)"/>
      <use xlink:href="#DejaVuSans-32" transform="translate(290.376953 0)"/>
      <use xlink:href="#DejaVuSans-20" transform="translate(354 0)"/>
      <use xlink:href="#DejaVuSans-28" transform="translate(385.787109 0)"/>
      <use xlink:href="#DejaVuSans-6e" transform="translate(424.800781 0)"/>
      <use xlink:href="#DejaVuSans-3d" transform="translate(488.179688 0)"/>
      <use xlink:href="#DejaVuSans-36" transform="translate(571.96875 0)"/>
      <use xlink:href="#DejaVuSans-29" transform="translate(635.591797 0)"/>
     </g>
    </g>
    <g id="line2d_28">
     <path d="M 340.865313 151.010937 
L 360.865313 151.010937 
" style="fill: none; stroke: #006d2c; stroke-width: 2; stroke-linecap: square"/>
    </g>
    <g id="line2d_29"/>
    <g id="text_20">
     <!-- Sim group3 -->
     <g transform="translate(368.865313 154.510937) scale(0.1 -0.1)">
      <use xlink:href="#DejaVuSans-53"/>
      <use xlink:href="#DejaVuSans-69" transform="translate(63.476562 0)"/>
      <use xlink:href="#DejaVuSans-6d" transform="translate(91.259766 0)"/>
      <use xlink:href="#DejaVuSans-20" transform="translate(188.671875 0)"/>
      <use xlink:href="#DejaVuSans-67" transform="translate(220.458984 0)"/>
      <use xlink:href="#DejaVuSans-72" transform="translate(283.935547 0)"/>
      <use xlink:href="#DejaVuSans-6f" transform="translate(322.798828 0)"/>
      <use xlink:href="#DejaVuSans-75" transform="translate(383.980469 0)"/>
      <use xlink:href="#DejaVuSans-70" transform="translate(447.359375 0)"/>
      <use xlink:href="#DejaVuSans-33" transform="translate(510.835938 0)"/>
     </g>
    </g>
    <g id="line2d_30">
     <path d="M 340.865313 165.689062 
L 360.865313 165.689062 
" style="fill: none; stroke-dasharray: 3.7,1.6; stroke-dashoffset: 0; stroke: #006d2c"/>
    </g>
    <g id="line2d_31">
     <g>
      <use xlink:href="#mec7aa350f7" x="350.865313" y="165.689062" style="fill: #006d2c; stroke: #000000; stroke-linejoin: miter"/>
     </g>
    </g>
    <g id="text_21">
     <!-- group3 (n=6) -->
     <g transform="translate(368.865313 169.189062) scale(0.1 -0.1)">
      <use xlink:href="#DejaVuSans-67"/>
      <use xlink:href="#DejaVuSans-72" transform="translate(63.476562 0)"/>
      <use xlink:href="#DejaVuSans-6f" transform="translate(102.339844 0)"/>
      <use xlink:href="#DejaVuSans-75" transform="translate(163.521484 0)"/>
      <use xlink:href="#DejaVuSans-70" transform="translate(226.900391 0)"/>
      <use xlink:href="#DejaVuSans-33" transform="translate(290.376953 0)"/>
      <use xlink:href="#DejaVuSans-20" transform="translate(354 0)"/>
      <use xlink:href="#DejaVuSans-28" transform="translate(385.787109 0)"/>
      <use xlink:href="#DejaVuSans-6e" transform="translate(424.800781 0)"/>
      <use xlink:href="#DejaVuSans-3d" transform="translate(488.179688 0)"/>
      <use xlink:href="#DejaVuSans-36" transform="translate(571.96875 0)"/>
      <use xlink:href="#DejaVuSans-29" transform="translate(635.591797 0)"/>
     </g>
    </g>
   </g>
  </g>
  <g id="axes_2">
   <g id="patch_8">
    <path d="M 54.727813 633.6 
L 445.327813 633.6 
L 445.327813 392.556522 
L 54.727813 392.556522 
z
" style="fill: #ffffff"/>
   </g>
   <g id="matplotlib.axis_3">
    <g id="xtick_6">
     <g id="line2d_32">
      <g>
       <use xlink:href="#m03f749aa8f" x="70.43822" y="633.6" style="stroke: #000000; stroke-width: 0.8"/>
      </g>
     </g>
     <g id="text_22">
      <!-- −20 -->
      <g transform="translate(54.609704 651.997656) scale(0.15 -0.15)">
       <use xlink:href="#DejaVuSans-2212"/>
       <use xlink:href="#DejaVuSans-32" transform="translate(83.789062 0)"/>
       <use xlink:href="#DejaVuSans-30" transform="translate(147.412109 0)"/>
      </g>
     </g>
    </g>
    <g id="xtick_7">
     <g id="line2d_33">
      <g>
       <use xlink:href="#m03f749aa8f" x="148.990256" y="633.6" style="stroke: #000000; stroke-width: 0.8"/>
      </g>
     </g>
     <g id="text_23">
      <!-- 0 -->
      <g transform="translate(144.218381 651.997656) scale(0.15 -0.15)">
       <use xlink:href="#DejaVuSans-30"/>
      </g>
     </g>
    </g>
    <g id="xtick_8">
     <g id="line2d_34">
      <g>
       <use xlink:href="#m03f749aa8f" x="227.542292" y="633.6" style="stroke: #000000; stroke-width: 0.8"/>
      </g>
     </g>
     <g id="text_24">
      <!-- 20 -->
      <g transform="translate(217.998542 651.997656) scale(0.15 -0.15)">
       <use xlink:href="#DejaVuSans-32"/>
       <use xlink:href="#DejaVuSans-30" transform="translate(63.623047 0)"/>
      </g>
     </g>
    </g>
    <g id="xtick_9">
     <g id="line2d_35">
      <g>
       <use xlink:href="#m03f749aa8f" x="306.094328" y="633.6" style="stroke: #000000; stroke-width: 0.8"/>
      </g>
     </g>
     <g id="text_25">
      <!-- 40 -->
      <g transform="translate(296.550578 651.997656) scale(0.15 -0.15)">
       <use xlink:href="#DejaVuSans-34"/>
       <use xlink:href="#DejaVuSans-30" transform="translate(63.623047 0)"/>
      </g>
     </g>
    </g>
    <g id="xtick_10">
     <g id="line2d_36">
      <g>
       <use xlink:href="#m03f749aa8f" x="384.646365" y="633.6" style="stroke: #000000; stroke-width: 0.8"/>
      </g>
     </g>
     <g id="text_26">
      <!-- 60 -->
      <g transform="translate(375.102615 651.997656) scale(0.15 -0.15)">
       <use xlink:href="#DejaVuSans-36"/>
       <use xlink:href="#DejaVuSans-30" transform="translate(63.623047 0)"/>
      </g>
     </g>
    </g>
    <g id="text_27">
     <!-- Time [hr] -->
     <g transform="translate(203.115313 672.794375) scale(0.18 -0.18)">
      <use xlink:href="#DejaVuSans-Bold-54"/>
      <use xlink:href="#DejaVuSans-Bold-69" transform="translate(68.212891 0)"/>
      <use xlink:href="#DejaVuSans-Bold-6d" transform="translate(102.490234 0)"/>
      <use xlink:href="#DejaVuSans-Bold-65" transform="translate(206.689453 0)"/>
      <use xlink:href="#DejaVuSans-Bold-20" transform="translate(274.511719 0)"/>
      <use xlink:href="#DejaVuSans-Bold-5b" transform="translate(309.326172 0)"/>
      <use xlink:href="#DejaVuSans-Bold-68" transform="translate(355.029297 0)"/>
      <use xlink:href="#DejaVuSans-Bold-72" transform="translate(426.220703 0)"/>
      <use xlink:href="#DejaVuSans-Bold-5d" transform="translate(475.537109 0)"/>
     </g>
    </g>
   </g>
   <g id="matplotlib.axis_4">
    <g id="ytick_9">
     <g id="line2d_37">
      <g>
       <use xlink:href="#m03bbb595ac" x="54.727813" y="622.643478" style="stroke: #000000; stroke-width: 0.8"/>
      </g>
     </g>
     <g id="text_28">
      <!-- 0 -->
      <g transform="translate(38.184063 628.342306) scale(0.15 -0.15)">
       <use xlink:href="#DejaVuSans-30"/>
      </g>
     </g>
    </g>
    <g id="ytick_10">
     <g id="line2d_38">
      <g>
       <use xlink:href="#m03bbb595ac" x="54.727813" y="577.139365" style="stroke: #000000; stroke-width: 0.8"/>
      </g>
     </g>
     <g id="text_29">
      <!-- 2 -->
      <g transform="translate(38.184063 582.838194) scale(0.15 -0.15)">
       <use xlink:href="#DejaVuSans-32"/>
      </g>
     </g>
    </g>
    <g id="ytick_11">
     <g id="line2d_39">
      <g>
       <use xlink:href="#m03bbb595ac" x="54.727813" y="531.635253" style="stroke: #000000; stroke-width: 0.8"/>
      </g>
     </g>
     <g id="text_30">
      <!-- 4 -->
      <g transform="translate(38.184063 537.334081) scale(0.15 -0.15)">
       <use xlink:href="#DejaVuSans-34"/>
      </g>
     </g>
    </g>
    <g id="ytick_12">
     <g id="line2d_40">
      <g>
       <use xlink:href="#m03bbb595ac" x="54.727813" y="486.13114" style="stroke: #000000; stroke-width: 0.8"/>
      </g>
     </g>
     <g id="text_31">
      <!-- 6 -->
      <g transform="translate(38.184063 491.829968) scale(0.15 -0.15)">
       <use xlink:href="#DejaVuSans-36"/>
      </g>
     </g>
    </g>
    <g id="ytick_13">
     <g id="line2d_41">
      <g>
       <use xlink:href="#m03bbb595ac" x="54.727813" y="440.627027" style="stroke: #000000; stroke-width: 0.8"/>
      </g>
     </g>
     <g id="text_32">
      <!-- 8 -->
      <g transform="translate(38.184063 446.325855) scale(0.15 -0.15)">
       <defs>
        <path id="DejaVuSans-38" d="M 2034 2216 
Q 1584 2216 1326 1975 
Q 1069 1734 1069 1313 
Q 1069 891 1326 650 
Q 1584 409 2034 409 
Q 2484 409 2743 651 
Q 3003 894 3003 1313 
Q 3003 1734 2745 1975 
Q 2488 2216 2034 2216 
z
M 1403 2484 
Q 997 2584 770 2862 
Q 544 3141 544 3541 
Q 544 4100 942 4425 
Q 1341 4750 2034 4750 
Q 2731 4750 3128 4425 
Q 3525 4100 3525 3541 
Q 3525 3141 3298 2862 
Q 3072 2584 2669 2484 
Q 3125 2378 3379 2068 
Q 3634 1759 3634 1313 
Q 3634 634 3220 271 
Q 2806 -91 2034 -91 
Q 1263 -91 848 271 
Q 434 634 434 1313 
Q 434 1759 690 2068 
Q 947 2378 1403 2484 
z
M 1172 3481 
Q 1172 3119 1398 2916 
Q 1625 2713 2034 2713 
Q 2441 2713 2670 2916 
Q 2900 3119 2900 3481 
Q 2900 3844 2670 4047 
Q 2441 4250 2034 4250 
Q 1625 4250 1398 4047 
Q 1172 3844 1172 3481 
z
" transform="scale(0.015625)"/>
       </defs>
       <use xlink:href="#DejaVuSans-38"/>
      </g>
     </g>
    </g>
    <g id="ytick_14">
     <g id="line2d_42">
      <g>
       <use xlink:href="#m03bbb595ac" x="54.727813" y="395.122914" style="stroke: #000000; stroke-width: 0.8"/>
      </g>
     </g>
     <g id="text_33">
      <!-- 10 -->
      <g transform="translate(28.640313 400.821742) scale(0.15 -0.15)">
       <use xlink:href="#DejaVuSans-31"/>
       <use xlink:href="#DejaVuSans-30" transform="translate(63.623047 0)"/>
      </g>
     </g>
    </g>
    <g id="text_34">
     <!-- E3174 urine [µmole] -->
     <g transform="translate(20.877188 616.58248) rotate(-90) scale(0.18 -0.18)">
      <defs>
       <path id="DejaVuSans-Bold-45" d="M 588 4666 
L 3834 4666 
L 3834 3756 
L 1791 3756 
L 1791 2888 
L 3713 2888 
L 3713 1978 
L 1791 1978 
L 1791 909 
L 3903 909 
L 3903 0 
L 588 0 
L 588 4666 
z
" transform="scale(0.015625)"/>
       <path id="DejaVuSans-Bold-33" d="M 2981 2516 
Q 3453 2394 3698 2092 
Q 3944 1791 3944 1325 
Q 3944 631 3412 270 
Q 2881 -91 1863 -91 
Q 1503 -91 1142 -33 
Q 781 25 428 141 
L 428 1069 
Q 766 900 1098 814 
Q 1431 728 1753 728 
Q 2231 728 2486 893 
Q 2741 1059 2741 1369 
Q 2741 1688 2480 1852 
Q 2219 2016 1709 2016 
L 1228 2016 
L 1228 2791 
L 1734 2791 
Q 2188 2791 2409 2933 
Q 2631 3075 2631 3366 
Q 2631 3634 2415 3781 
Q 2200 3928 1806 3928 
Q 1516 3928 1219 3862 
Q 922 3797 628 3669 
L 628 4550 
Q 984 4650 1334 4700 
Q 1684 4750 2022 4750 
Q 2931 4750 3382 4451 
Q 3834 4153 3834 3553 
Q 3834 3144 3618 2883 
Q 3403 2622 2981 2516 
z
" transform="scale(0.015625)"/>
       <path id="DejaVuSans-Bold-31" d="M 750 831 
L 1813 831 
L 1813 3847 
L 722 3622 
L 722 4441 
L 1806 4666 
L 2950 4666 
L 2950 831 
L 4013 831 
L 4013 0 
L 750 0 
L 750 831 
z
" transform="scale(0.015625)"/>
       <path id="DejaVuSans-Bold-37" d="M 428 4666 
L 3944 4666 
L 3944 3988 
L 2125 0 
L 953 0 
L 2675 3781 
L 428 3781 
L 428 4666 
z
" transform="scale(0.015625)"/>
       <path id="DejaVuSans-Bold-34" d="M 2356 3675 
L 1038 1722 
L 2356 1722 
L 2356 3675 
z
M 2156 4666 
L 3494 4666 
L 3494 1722 
L 4159 1722 
L 4159 850 
L 3494 850 
L 3494 0 
L 2356 0 
L 2356 850 
L 288 850 
L 288 1881 
L 2156 4666 
z
" transform="scale(0.015625)"/>
      </defs>
      <use xlink:href="#DejaVuSans-Bold-45"/>
      <use xlink:href="#DejaVuSans-Bold-33" transform="translate(68.310547 0)"/>
      <use xlink:href="#DejaVuSans-Bold-31" transform="translate(137.890625 0)"/>
      <use xlink:href="#DejaVuSans-Bold-37" transform="translate(207.470703 0)"/>
      <use xlink:href="#DejaVuSans-Bold-34" transform="translate(277.050781 0)"/>
      <use xlink:href="#DejaVuSans-Bold-20" transform="translate(346.630859 0)"/>
      <use xlink:href="#DejaVuSans-Bold-75" transform="translate(381.445312 0)"/>
      <use xlink:href="#DejaVuSans-Bold-72" transform="translate(452.636719 0)"/>
      <use xlink:href="#DejaVuSans-Bold-69" transform="translate(501.953125 0)"/>
      <use xlink:href="#DejaVuSans-Bold-6e" transform="translate(536.230469 0)"/>
      <use xlink:href="#DejaVuSans-Bold-65" transform="translate(607.421875 0)"/>
      <use xlink:href="#DejaVuSans-Bold-20" transform="translate(675.244141 0)"/>
      <use xlink:href="#DejaVuSans-Bold-5b" transform="translate(710.058594 0)"/>
      <use xlink:href="#DejaVuSans-Bold-b5" transform="translate(755.761719 0)"/>
      <use xlink:href="#DejaVuSans-Bold-6d" transform="translate(829.345703 0)"/>
      <use xlink:href="#DejaVuSans-Bold-6f" transform="translate(933.544922 0)"/>
      <use xlink:href="#DejaVuSans-Bold-6c" transform="translate(1002.246094 0)"/>
      <use xlink:href="#DejaVuSans-Bold-65" transform="translate(1036.523438 0)"/>
      <use xlink:href="#DejaVuSans-Bold-5d" transform="translate(1104.345703 0)"/>
     </g>
    </g>
   </g>
   <g id="line2d_43">
    <path d="M 54.539288 522.926515 
L 54.727813 522.877801 
L 54.727813 622.643478 
L 56.801586 622.022004 
L 57.744211 621.461892 
L 58.49831 620.758373 
L 59.440935 619.508919 
L 60.383559 617.849176 
L 61.514708 615.377031 
L 63.022908 611.458623 
L 65.285206 604.840909 
L 69.998328 590.951581 
L 72.449152 584.456156 
L 74.711451 579.035328 
L 76.973749 574.151969 
L 79.236048 569.763158 
L 81.686871 565.506714 
L 84.137695 561.70458 
L 86.588518 558.296713 
L 89.227867 555.007025 
L 92.05574 551.857182 
L 94.883613 549.037543 
L 97.900012 546.338631 
L 101.104935 543.76644 
L 104.498383 541.322274 
L 108.26888 538.888549 
L 112.227903 536.599455 
L 116.563975 534.352129 
L 121.277098 532.164741 
L 126.36727 530.049896 
L 131.834491 528.016314 
L 137.867288 526.010961 
L 144.465659 524.057937 
L 148.990256 522.84354 
L 148.990256 622.643478 
L 151.032609 622.035424 
L 152.053785 621.424678 
L 153.074962 620.387836 
L 154.096138 618.864737 
L 155.117315 616.876489 
L 156.649079 613.180813 
L 158.691432 607.403336 
L 164.818491 589.415727 
L 167.371432 582.815234 
L 169.924374 576.91736 
L 172.477315 571.682996 
L 175.030256 567.042693 
L 177.583197 562.921524 
L 180.136138 559.249128 
L 182.689079 555.963074 
L 185.242021 553.009392 
L 188.30555 549.839318 
L 191.369079 547.015274 
L 194.432609 544.482706 
L 198.006727 541.837301 
L 201.580844 539.470844 
L 205.66555 537.049882 
L 209.750256 534.88054 
L 214.34555 532.689404 
L 219.451432 530.511712 
L 225.067903 528.374628 
L 231.194962 526.299086 
L 237.832609 524.301542 
L 244.980844 522.395332 
L 252.639668 520.591482 
L 260.809079 518.899056 
L 269.489079 517.325167 
L 279.190256 515.800132 
L 289.402021 514.422559 
L 300.634962 513.135724 
L 312.889079 511.961094 
L 326.164374 510.91222 
L 340.971432 509.966018 
L 357.820844 509.118155 
L 377.223197 508.375394 
L 399.689079 507.748121 
L 404.284374 507.644056 
L 404.284374 507.644056 
" clip-path="url(#p603b7db66f)" style="fill: none; stroke: #000000; stroke-width: 2; stroke-linecap: square"/>
   </g>
   <g id="line2d_44">
    <path d="M 148.990256 622.643478 
L 243.252699 403.513043 
" clip-path="url(#p603b7db66f)" style="fill: none; stroke-dasharray: 3.7,1.6; stroke-dashoffset: 0; stroke: #000000"/>
    <g clip-path="url(#p603b7db66f)">
     <use xlink:href="#mb544ee6e63" x="148.990256" y="622.643478" style="stroke: #000000; stroke-linejoin: miter"/>
     <use xlink:href="#mb544ee6e63" x="243.252699" y="403.513043" style="stroke: #000000; stroke-linejoin: miter"/>
    </g>
   </g>
   <g id="line2d_45">
    <path d="M 54.539288 557.670909 
L 54.727813 557.633759 
L 54.727813 622.643478 
L 57.367161 622.012082 
L 58.49831 621.459828 
L 59.62946 620.611496 
L 60.760609 619.461883 
L 62.080283 617.790462 
L 63.777007 615.260366 
L 66.60488 610.575944 
L 71.129478 603.118346 
L 74.145876 598.599974 
L 76.973749 594.766507 
L 79.801622 591.306845 
L 82.629496 588.186862 
L 85.645894 585.190784 
L 88.850817 582.335485 
L 92.05574 579.77307 
L 95.449188 577.335227 
L 99.031161 575.02615 
L 102.990184 572.743687 
L 107.137731 570.610595 
L 111.662328 568.537898 
L 116.563975 566.544302 
L 121.842672 564.642542 
L 127.498419 562.840637 
L 133.71974 561.09337 
L 140.506636 559.42095 
L 147.859107 557.838198 
L 148.990256 557.613255 
L 148.990256 622.643478 
L 151.543197 622.043377 
L 152.564374 621.575561 
L 153.58555 620.871322 
L 154.606727 619.917807 
L 156.138491 618.068499 
L 157.670256 615.837515 
L 160.223197 611.663787 
L 165.329079 603.215672 
L 168.392609 598.620772 
L 171.456138 594.482599 
L 174.519668 590.780212 
L 177.583197 587.469356 
L 180.646727 584.502296 
L 183.710256 581.834692 
L 187.284374 579.049156 
L 190.858491 576.565381 
L 194.432609 574.339275 
L 198.517315 572.063929 
L 202.602021 570.032447 
L 207.197315 567.993265 
L 212.303197 565.98465 
L 217.919668 564.035814 
L 224.046727 562.168041 
L 230.684374 560.396195 
L 237.832609 558.730247 
L 245.491432 557.17658 
L 254.171432 555.655745 
L 263.362021 554.276223 
L 273.573785 552.973963 
L 284.806727 551.772916 
L 297.060844 550.689329 
L 310.846727 549.699338 
L 326.164374 548.826197 
L 343.524374 548.0617 
L 363.947903 547.393575 
L 387.94555 546.839734 
L 404.284374 546.566286 
L 404.284374 546.566286 
" clip-path="url(#p603b7db66f)" style="fill: none; stroke: #66c2a4; stroke-width: 2; stroke-linecap: square"/>
   </g>
   <g id="line2d_46">
    <path d="M 148.990256 622.643478 
L 243.252699 531.33913 
" clip-path="url(#p603b7db66f)" style="fill: none; stroke-dasharray: 3.7,1.6; stroke-dashoffset: 0; stroke: #66c2a4"/>
    <g clip-path="url(#p603b7db66f)">
     <use xlink:href="#mf463d3e040" x="148.990256" y="622.643478" style="fill: #66c2a4; stroke: #000000; stroke-linejoin: miter"/>
     <use xlink:href="#mf463d3e040" x="243.252699" y="531.33913" style="fill: #66c2a4; stroke: #000000; stroke-linejoin: miter"/>
    </g>
   </g>
   <g id="line2d_47">
    <path d="M 54.539288 600.060297 
L 54.727813 600.04551 
L 54.727813 622.643478 
L 58.309785 622.261014 
L 60.195034 621.79295 
L 62.268808 621.015975 
L 64.908156 619.764684 
L 75.8426 614.328321 
L 80.367197 612.453527 
L 85.080319 610.749039 
L 90.170491 609.151684 
L 95.637713 607.670818 
L 101.670509 606.268607 
L 108.457405 604.9269 
L 115.998401 603.670424 
L 124.482021 602.489754 
L 134.09679 601.384324 
L 145.031233 600.358973 
L 148.990256 600.037172 
L 148.990256 622.643478 
L 152.564374 622.262313 
L 154.606727 621.745311 
L 156.649079 620.964848 
L 159.712609 619.48748 
L 168.392609 615.103577 
L 172.987903 613.104364 
L 177.583197 611.357053 
L 182.689079 609.672066 
L 188.30555 608.079063 
L 194.432609 606.59587 
L 201.070256 605.231379 
L 208.218491 603.987868 
L 216.387903 602.794539 
L 225.578491 601.680268 
L 236.300844 600.616661 
L 248.554962 599.639246 
L 262.340844 598.769029 
L 278.169079 597.993934 
L 297.060844 597.299459 
L 319.526727 596.707296 
L 346.587903 596.224968 
L 380.797315 595.846903 
L 404.284374 595.682851 
L 404.284374 595.682851 
" clip-path="url(#p603b7db66f)" style="fill: none; stroke: #006d2c; stroke-width: 2; stroke-linecap: square"/>
   </g>
   <g id="line2d_48">
    <path d="M 148.990256 622.643478 
L 243.252699 610.79859 
" clip-path="url(#p603b7db66f)" style="fill: none; stroke-dasharray: 3.7,1.6; stroke-dashoffset: 0; stroke: #006d2c"/>
    <g clip-path="url(#p603b7db66f)">
     <use xlink:href="#mec7aa350f7" x="148.990256" y="622.643478" style="fill: #006d2c; stroke: #000000; stroke-linejoin: miter"/>
     <use xlink:href="#mec7aa350f7" x="243.252699" y="610.79859" style="fill: #006d2c; stroke: #000000; stroke-linejoin: miter"/>
    </g>
   </g>
   <g id="patch_9">
    <path d="M 54.727813 633.6 
L 54.727813 392.556522 
" style="fill: none; stroke: #000000; stroke-width: 0.8; stroke-linejoin: miter; stroke-linecap: square"/>
   </g>
   <g id="patch_10">
    <path d="M 445.327813 633.6 
L 445.327813 392.556522 
" style="fill: none; stroke: #000000; stroke-width: 0.8; stroke-linejoin: miter; stroke-linecap: square"/>
   </g>
   <g id="patch_11">
    <path d="M 54.727813 633.6 
L 445.327813 633.6 
" style="fill: none; stroke: #000000; stroke-width: 0.8; stroke-linejoin: miter; stroke-linecap: square"/>
   </g>
   <g id="patch_12">
    <path d="M 54.727813 392.556522 
L 445.327813 392.556522 
" style="fill: none; stroke: #000000; stroke-width: 0.8; stroke-linejoin: miter; stroke-linecap: square"/>
   </g>
   <g id="legend_2">
    <g id="patch_13">
     <path d="M 338.865313 488.625272 
L 438.327813 488.625272 
Q 440.327813 488.625272 440.327813 486.625272 
L 440.327813 399.556522 
Q 440.327813 397.556522 438.327813 397.556522 
L 338.865313 397.556522 
Q 336.865313 397.556522 336.865313 399.556522 
L 336.865313 486.625272 
Q 336.865313 488.625272 338.865313 488.625272 
z
" style="fill: #ffffff; opacity: 0.8; stroke: #cccccc; stroke-linejoin: miter"/>
    </g>
    <g id="line2d_49">
     <path d="M 340.865313 405.654959 
L 360.865313 405.654959 
" style="fill: none; stroke: #000000; stroke-width: 2; stroke-linecap: square"/>
    </g>
    <g id="line2d_50"/>
    <g id="text_35">
     <!-- Sim group1 -->
     <g transform="translate(368.865313 409.154959) scale(0.1 -0.1)">
      <use xlink:href="#DejaVuSans-53"/>
      <use xlink:href="#DejaVuSans-69" transform="translate(63.476562 0)"/>
      <use xlink:href="#DejaVuSans-6d" transform="translate(91.259766 0)"/>
      <use xlink:href="#DejaVuSans-20" transform="translate(188.671875 0)"/>
      <use xlink:href="#DejaVuSans-67" transform="translate(220.458984 0)"/>
      <use xlink:href="#DejaVuSans-72" transform="translate(283.935547 0)"/>
      <use xlink:href="#DejaVuSans-6f" transform="translate(322.798828 0)"/>
      <use xlink:href="#DejaVuSans-75" transform="translate(383.980469 0)"/>
      <use xlink:href="#DejaVuSans-70" transform="translate(447.359375 0)"/>
      <use xlink:href="#DejaVuSans-31" transform="translate(510.835938 0)"/>
     </g>
    </g>
    <g id="line2d_51">
     <path d="M 340.865313 420.333084 
L 360.865313 420.333084 
" style="fill: none; stroke-dasharray: 3.7,1.6; stroke-dashoffset: 0; stroke: #000000"/>
    </g>
    <g id="line2d_52">
     <g>
      <use xlink:href="#mb544ee6e63" x="350.865313" y="420.333084" style="stroke: #000000; stroke-linejoin: miter"/>
     </g>
    </g>
    <g id="text_36">
     <!-- group1 (n=6) -->
     <g transform="translate(368.865313 423.833084) scale(0.1 -0.1)">
      <use xlink:href="#DejaVuSans-67"/>
      <use xlink:href="#DejaVuSans-72" transform="translate(63.476562 0)"/>
      <use xlink:href="#DejaVuSans-6f" transform="translate(102.339844 0)"/>
      <use xlink:href="#DejaVuSans-75" transform="translate(163.521484 0)"/>
      <use xlink:href="#DejaVuSans-70" transform="translate(226.900391 0)"/>
      <use xlink:href="#DejaVuSans-31" transform="translate(290.376953 0)"/>
      <use xlink:href="#DejaVuSans-20" transform="translate(354 0)"/>
      <use xlink:href="#DejaVuSans-28" transform="translate(385.787109 0)"/>
      <use xlink:href="#DejaVuSans-6e" transform="translate(424.800781 0)"/>
      <use xlink:href="#DejaVuSans-3d" transform="translate(488.179688 0)"/>
      <use xlink:href="#DejaVuSans-36" transform="translate(571.96875 0)"/>
      <use xlink:href="#DejaVuSans-29" transform="translate(635.591797 0)"/>
     </g>
    </g>
    <g id="line2d_53">
     <path d="M 340.865313 435.011209 
L 360.865313 435.011209 
" style="fill: none; stroke: #66c2a4; stroke-width: 2; stroke-linecap: square"/>
    </g>
    <g id="line2d_54"/>
    <g id="text_37">
     <!-- Sim group2 -->
     <g transform="translate(368.865313 438.511209) scale(0.1 -0.1)">
      <use xlink:href="#DejaVuSans-53"/>
      <use xlink:href="#DejaVuSans-69" transform="translate(63.476562 0)"/>
      <use xlink:href="#DejaVuSans-6d" transform="translate(91.259766 0)"/>
      <use xlink:href="#DejaVuSans-20" transform="translate(188.671875 0)"/>
      <use xlink:href="#DejaVuSans-67" transform="translate(220.458984 0)"/>
      <use xlink:href="#DejaVuSans-72" transform="translate(283.935547 0)"/>
      <use xlink:href="#DejaVuSans-6f" transform="translate(322.798828 0)"/>
      <use xlink:href="#DejaVuSans-75" transform="translate(383.980469 0)"/>
      <use xlink:href="#DejaVuSans-70" transform="translate(447.359375 0)"/>
      <use xlink:href="#DejaVuSans-32" transform="translate(510.835938 0)"/>
     </g>
    </g>
    <g id="line2d_55">
     <path d="M 340.865313 449.689334 
L 360.865313 449.689334 
" style="fill: none; stroke-dasharray: 3.7,1.6; stroke-dashoffset: 0; stroke: #66c2a4"/>
    </g>
    <g id="line2d_56">
     <g>
      <use xlink:href="#mf463d3e040" x="350.865313" y="449.689334" style="fill: #66c2a4; stroke: #000000; stroke-linejoin: miter"/>
     </g>
    </g>
    <g id="text_38">
     <!-- group2 (n=6) -->
     <g transform="translate(368.865313 453.189334) scale(0.1 -0.1)">
      <use xlink:href="#DejaVuSans-67"/>
      <use xlink:href="#DejaVuSans-72" transform="translate(63.476562 0)"/>
      <use xlink:href="#DejaVuSans-6f" transform="translate(102.339844 0)"/>
      <use xlink:href="#DejaVuSans-75" transform="translate(163.521484 0)"/>
      <use xlink:href="#DejaVuSans-70" transform="translate(226.900391 0)"/>
      <use xlink:href="#DejaVuSans-32" transform="translate(290.376953 0)"/>
      <use xlink:href="#DejaVuSans-20" transform="translate(354 0)"/>
      <use xlink:href="#DejaVuSans-28" transform="translate(385.787109 0)"/>
      <use xlink:href="#DejaVuSans-6e" transform="translate(424.800781 0)"/>
      <use xlink:href="#DejaVuSans-3d" transform="translate(488.179688 0)"/>
      <use xlink:href="#DejaVuSans-36" transform="translate(571.96875 0)"/>
      <use xlink:href="#DejaVuSans-29" transform="translate(635.591797 0)"/>
     </g>
    </g>
    <g id="line2d_57">
     <path d="M 340.865313 464.367459 
L 360.865313 464.367459 
" style="fill: none; stroke: #006d2c; stroke-width: 2; stroke-linecap: square"/>
    </g>
    <g id="line2d_58"/>
    <g id="text_39">
     <!-- Sim group3 -->
     <g transform="translate(368.865313 467.867459) scale(0.1 -0.1)">
      <use xlink:href="#DejaVuSans-53"/>
      <use xlink:href="#DejaVuSans-69" transform="translate(63.476562 0)"/>
      <use xlink:href="#DejaVuSans-6d" transform="translate(91.259766 0)"/>
      <use xlink:href="#DejaVuSans-20" transform="translate(188.671875 0)"/>
      <use xlink:href="#DejaVuSans-67" transform="translate(220.458984 0)"/>
      <use xlink:href="#DejaVuSans-72" transform="translate(283.935547 0)"/>
      <use xlink:href="#DejaVuSans-6f" transform="translate(322.798828 0)"/>
      <use xlink:href="#DejaVuSans-75" transform="translate(383.980469 0)"/>
      <use xlink:href="#DejaVuSans-70" transform="translate(447.359375 0)"/>
      <use xlink:href="#DejaVuSans-33" transform="translate(510.835938 0)"/>
     </g>
    </g>
    <g id="line2d_59">
     <path d="M 340.865313 479.045584 
L 360.865313 479.045584 
" style="fill: none; stroke-dasharray: 3.7,1.6; stroke-dashoffset: 0; stroke: #006d2c"/>
    </g>
    <g id="line2d_60">
     <g>
      <use xlink:href="#mec7aa350f7" x="350.865313" y="479.045584" style="fill: #006d2c; stroke: #000000; stroke-linejoin: miter"/>
     </g>
    </g>
    <g id="text_40">
     <!-- group3 (n=6) -->
     <g transform="translate(368.865313 482.545584) scale(0.1 -0.1)">
      <use xlink:href="#DejaVuSans-67"/>
      <use xlink:href="#DejaVuSans-72" transform="translate(63.476562 0)"/>
      <use xlink:href="#DejaVuSans-6f" transform="translate(102.339844 0)"/>
      <use xlink:href="#DejaVuSans-75" transform="translate(163.521484 0)"/>
      <use xlink:href="#DejaVuSans-70" transform="translate(226.900391 0)"/>
      <use xlink:href="#DejaVuSans-33" transform="translate(290.376953 0)"/>
      <use xlink:href="#DejaVuSans-20" transform="translate(354 0)"/>
      <use xlink:href="#DejaVuSans-28" transform="translate(385.787109 0)"/>
      <use xlink:href="#DejaVuSans-6e" transform="translate(424.800781 0)"/>
      <use xlink:href="#DejaVuSans-3d" transform="translate(488.179688 0)"/>
      <use xlink:href="#DejaVuSans-36" transform="translate(571.96875 0)"/>
      <use xlink:href="#DejaVuSans-29" transform="translate(635.591797 0)"/>
     </g>
    </g>
   </g>
  </g>
  <g id="text_41">
   <!-- Sica1995 (renal impairment) -->
   <g transform="translate(41.895781 26.196094) scale(0.25 -0.25)">
    <defs>
     <path id="DejaVuSans-Bold-53" d="M 3834 4519 
L 3834 3531 
Q 3450 3703 3084 3790 
Q 2719 3878 2394 3878 
Q 1963 3878 1756 3759 
Q 1550 3641 1550 3391 
Q 1550 3203 1689 3098 
Q 1828 2994 2194 2919 
L 2706 2816 
Q 3484 2659 3812 2340 
Q 4141 2022 4141 1434 
Q 4141 663 3683 286 
Q 3225 -91 2284 -91 
Q 1841 -91 1394 -6 
Q 947 78 500 244 
L 500 1259 
Q 947 1022 1364 901 
Q 1781 781 2169 781 
Q 2563 781 2772 912 
Q 2981 1044 2981 1288 
Q 2981 1506 2839 1625 
Q 2697 1744 2272 1838 
L 1806 1941 
Q 1106 2091 782 2419 
Q 459 2747 459 3303 
Q 459 4000 909 4375 
Q 1359 4750 2203 4750 
Q 2588 4750 2994 4692 
Q 3400 4634 3834 4519 
z
" transform="scale(0.015625)"/>
     <path id="DejaVuSans-Bold-63" d="M 3366 3391 
L 3366 2478 
Q 3138 2634 2908 2709 
Q 2678 2784 2431 2784 
Q 1963 2784 1702 2511 
Q 1441 2238 1441 1747 
Q 1441 1256 1702 982 
Q 1963 709 2431 709 
Q 2694 709 2930 787 
Q 3166 866 3366 1019 
L 3366 103 
Q 3103 6 2833 -42 
Q 2563 -91 2291 -91 
Q 1344 -91 809 395 
Q 275 881 275 1747 
Q 275 2613 809 3098 
Q 1344 3584 2291 3584 
Q 2566 3584 2833 3536 
Q 3100 3488 3366 3391 
z
" transform="scale(0.015625)"/>
     <path id="DejaVuSans-Bold-39" d="M 641 103 
L 641 966 
Q 928 831 1190 764 
Q 1453 697 1709 697 
Q 2247 697 2547 995 
Q 2847 1294 2900 1881 
Q 2688 1725 2447 1647 
Q 2206 1569 1925 1569 
Q 1209 1569 770 1986 
Q 331 2403 331 3084 
Q 331 3838 820 4291 
Q 1309 4744 2131 4744 
Q 3044 4744 3544 4128 
Q 4044 3513 4044 2388 
Q 4044 1231 3459 570 
Q 2875 -91 1856 -91 
Q 1528 -91 1228 -42 
Q 928 6 641 103 
z
M 2125 2350 
Q 2441 2350 2600 2554 
Q 2759 2759 2759 3169 
Q 2759 3575 2600 3781 
Q 2441 3988 2125 3988 
Q 1809 3988 1650 3781 
Q 1491 3575 1491 3169 
Q 1491 2759 1650 2554 
Q 1809 2350 2125 2350 
z
" transform="scale(0.015625)"/>
     <path id="DejaVuSans-Bold-35" d="M 678 4666 
L 3669 4666 
L 3669 3781 
L 1638 3781 
L 1638 3059 
Q 1775 3097 1914 3117 
Q 2053 3138 2203 3138 
Q 3056 3138 3531 2711 
Q 4006 2284 4006 1522 
Q 4006 766 3489 337 
Q 2972 -91 2053 -91 
Q 1656 -91 1267 -14 
Q 878 63 494 219 
L 494 1166 
Q 875 947 1217 837 
Q 1559 728 1863 728 
Q 2300 728 2551 942 
Q 2803 1156 2803 1522 
Q 2803 1891 2551 2103 
Q 2300 2316 1863 2316 
Q 1603 2316 1309 2248 
Q 1016 2181 678 2041 
L 678 4666 
z
" transform="scale(0.015625)"/>
     <path id="DejaVuSans-Bold-28" d="M 2413 -844 
L 1484 -844 
Q 1006 -72 778 623 
Q 550 1319 550 2003 
Q 550 2688 779 3389 
Q 1009 4091 1484 4856 
L 2413 4856 
Q 2013 4116 1813 3408 
Q 1613 2700 1613 2009 
Q 1613 1319 1811 609 
Q 2009 -100 2413 -844 
z
" transform="scale(0.015625)"/>
     <path id="DejaVuSans-Bold-70" d="M 1656 506 
L 1656 -1331 
L 538 -1331 
L 538 3500 
L 1656 3500 
L 1656 2988 
Q 1888 3294 2169 3439 
Q 2450 3584 2816 3584 
Q 3463 3584 3878 3070 
Q 4294 2556 4294 1747 
Q 4294 938 3878 423 
Q 3463 -91 2816 -91 
Q 2450 -91 2169 54 
Q 1888 200 1656 506 
z
M 2400 2772 
Q 2041 2772 1848 2508 
Q 1656 2244 1656 1747 
Q 1656 1250 1848 986 
Q 2041 722 2400 722 
Q 2759 722 2948 984 
Q 3138 1247 3138 1747 
Q 3138 2247 2948 2509 
Q 2759 2772 2400 2772 
z
" transform="scale(0.015625)"/>
     <path id="DejaVuSans-Bold-29" d="M 513 -844 
Q 913 -100 1113 609 
Q 1313 1319 1313 2009 
Q 1313 2700 1113 3408 
Q 913 4116 513 4856 
L 1441 4856 
Q 1916 4091 2145 3389 
Q 2375 2688 2375 2003 
Q 2375 1319 2147 623 
Q 1919 -72 1441 -844 
L 513 -844 
z
" transform="scale(0.015625)"/>
    </defs>
    <use xlink:href="#DejaVuSans-Bold-53"/>
    <use xlink:href="#DejaVuSans-Bold-69" transform="translate(72.021484 0)"/>
    <use xlink:href="#DejaVuSans-Bold-63" transform="translate(106.298828 0)"/>
    <use xlink:href="#DejaVuSans-Bold-61" transform="translate(165.576172 0)"/>
    <use xlink:href="#DejaVuSans-Bold-31" transform="translate(233.056641 0)"/>
    <use xlink:href="#DejaVuSans-Bold-39" transform="translate(302.636719 0)"/>
    <use xlink:href="#DejaVuSans-Bold-39" transform="translate(372.216797 0)"/>
    <use xlink:href="#DejaVuSans-Bold-35" transform="translate(441.796875 0)"/>
    <use xlink:href="#DejaVuSans-Bold-20" transform="translate(511.376953 0)"/>
    <use xlink:href="#DejaVuSans-Bold-28" transform="translate(546.191406 0)"/>
    <use xlink:href="#DejaVuSans-Bold-72" transform="translate(591.894531 0)"/>
    <use xlink:href="#DejaVuSans-Bold-65" transform="translate(641.210938 0)"/>
    <use xlink:href="#DejaVuSans-Bold-6e" transform="translate(709.033203 0)"/>
    <use xlink:href="#DejaVuSans-Bold-61" transform="translate(780.224609 0)"/>
    <use xlink:href="#DejaVuSans-Bold-6c" transform="translate(847.705078 0)"/>
    <use xlink:href="#DejaVuSans-Bold-20" transform="translate(881.982422 0)"/>
    <use xlink:href="#DejaVuSans-Bold-69" transform="translate(916.796875 0)"/>
    <use xlink:href="#DejaVuSans-Bold-6d" transform="translate(951.074219 0)"/>
    <use xlink:href="#DejaVuSans-Bold-70" transform="translate(1055.273438 0)"/>
    <use xlink:href="#DejaVuSans-Bold-61" transform="translate(1126.855469 0)"/>
    <use xlink:href="#DejaVuSans-Bold-69" transform="translate(1194.335938 0)"/>
    <use xlink:href="#DejaVuSans-Bold-72" transform="translate(1228.613281 0)"/>
    <use xlink:href="#DejaVuSans-Bold-6d" transform="translate(1277.929688 0)"/>
    <use xlink:href="#DejaVuSans-Bold-65" transform="translate(1382.128906 0)"/>
    <use xlink:href="#DejaVuSans-Bold-6e" transform="translate(1449.951172 0)"/>
    <use xlink:href="#DejaVuSans-Bold-74" transform="translate(1521.142578 0)"/>
    <use xlink:href="#DejaVuSans-Bold-29" transform="translate(1568.945312 0)"/>
   </g>
  </g>
 </g>
 <defs>
  <clipPath id="p65eac35c5e">
   <rect x="54.727813" y="79.2" width="390.6" height="241.043478"/>
  </clipPath>
  <clipPath id="p603b7db66f">
   <rect x="54.727813" y="392.556522" width="390.6" height="241.043478"/>
  </clipPath>
 </defs>
</svg>
