<?xml version="1.0" encoding="utf-8" standalone="no"?>
<!DOCTYPE svg PUBLIC "-//W3C//DTD SVG 1.1//EN"
  "http://www.w3.org/Graphics/SVG/1.1/DTD/svg11.dtd">
<svg xmlns:xlink="http://www.w3.org/1999/xlink" width="471.595625pt" height="683.737812pt" viewBox="0 0 471.595625 683.737812" xmlns="http://www.w3.org/2000/svg" version="1.1">
 <metadata>
  <rdf:RDF xmlns:dc="http://purl.org/dc/elements/1.1/" xmlns:cc="http://creativecommons.org/ns#" xmlns:rdf="http://www.w3.org/1999/02/22-rdf-syntax-ns#">
   <cc:Work>
    <dc:type rdf:resource="http://purl.org/dc/dcmitype/StillImage"/>
    <dc:date>2025-10-07T16:17:57.324646</dc:date>
    <dc:format>image/svg+xml</dc:format>
    <dc:creator>
     <cc:Agent>
      <dc:title>Matplotlib v3.10.6, https://matplotlib.org/</dc:title>
     </cc:Agent>
    </dc:creator>
   </cc:Work>
  </rdf:RDF>
 </metadata>
 <defs>
  <style type="text/css">*{stroke-linejoin: round; stroke-linecap: butt}</style>
 </defs>
 <g id="figure_1">
  <g id="patch_1">
   <path d="M 0 683.737812 
L 471.595625 683.737812 
L 471.595625 0 
L 0 0 
z
" style="fill: #ffffff"/>
  </g>
  <g id="axes_1">
   <g id="patch_2">
    <path d="M 73.795625 320.243478 
L 464.395625 320.243478 
L 464.395625 79.2 
L 73.795625 79.2 
z
" style="fill: #ffffff"/>
   </g>
   <g id="matplotlib.axis_1">
    <g id="xtick_1">
     <g id="line2d_1">
      <defs>
       <path id="m2ddcef1989" d="M 0 0 
L 0 3.5 
" style="stroke: #000000; stroke-width: 0.8"/>
      </defs>
      <g>
       <use xlink:href="#m2ddcef1989" x="91.55017" y="320.243478" style="stroke: #000000; stroke-width: 0.8"/>
      </g>
     </g>
     <g id="text_1">
      <!-- 0 -->
      <g transform="translate(86.778295 338.641135) scale(0.15 -0.15)">
       <defs>
        <path id="DejaVuSans-30" d="M 2034 4250 
Q 1547 4250 1301 3770 
Q 1056 3291 1056 2328 
Q 1056 1369 1301 889 
Q 1547 409 2034 409 
Q 2525 409 2770 889 
Q 3016 1369 3016 2328 
Q 3016 3291 2770 3770 
Q 2525 4250 2034 4250 
z
M 2034 4750 
Q 2819 4750 3233 4129 
Q 3647 3509 3647 2328 
Q 3647 1150 3233 529 
Q 2819 -91 2034 -91 
Q 1250 -91 836 529 
Q 422 1150 422 2328 
Q 422 3509 836 4129 
Q 1250 4750 2034 4750 
z
" transform="scale(0.015625)"/>
       </defs>
       <use xlink:href="#DejaVuSans-30"/>
      </g>
     </g>
    </g>
    <g id="xtick_2">
     <g id="line2d_2">
      <g>
       <use xlink:href="#m2ddcef1989" x="162.568352" y="320.243478" style="stroke: #000000; stroke-width: 0.8"/>
      </g>
     </g>
     <g id="text_2">
      <!-- 5 -->
      <g transform="translate(157.796477 338.641135) scale(0.15 -0.15)">
       <defs>
        <path id="DejaVuSans-35" d="M 691 4666 
L 3169 4666 
L 3169 4134 
L 1269 4134 
L 1269 2991 
Q 1406 3038 1543 3061 
Q 1681 3084 1819 3084 
Q 2600 3084 3056 2656 
Q 3513 2228 3513 1497 
Q 3513 744 3044 326 
Q 2575 -91 1722 -91 
Q 1428 -91 1123 -41 
Q 819 9 494 109 
L 494 744 
Q 775 591 1075 516 
Q 1375 441 1709 441 
Q 2250 441 2565 725 
Q 2881 1009 2881 1497 
Q 2881 1984 2565 2268 
Q 2250 2553 1709 2553 
Q 1456 2553 1204 2497 
Q 953 2441 691 2322 
L 691 4666 
z
" transform="scale(0.015625)"/>
       </defs>
       <use xlink:href="#DejaVuSans-35"/>
      </g>
     </g>
    </g>
    <g id="xtick_3">
     <g id="line2d_3">
      <g>
       <use xlink:href="#m2ddcef1989" x="233.586534" y="320.243478" style="stroke: #000000; stroke-width: 0.8"/>
      </g>
     </g>
     <g id="text_3">
      <!-- 10 -->
      <g transform="translate(224.042784 338.641135) scale(0.15 -0.15)">
       <defs>
        <path id="DejaVuSans-31" d="M 794 531 
L 1825 531 
L 1825 4091 
L 703 3866 
L 703 4441 
L 1819 4666 
L 2450 4666 
L 2450 531 
L 3481 531 
L 3481 0 
L 794 0 
L 794 531 
z
" transform="scale(0.015625)"/>
       </defs>
       <use xlink:href="#DejaVuSans-31"/>
       <use xlink:href="#DejaVuSans-30" transform="translate(63.623047 0)"/>
      </g>
     </g>
    </g>
    <g id="xtick_4">
     <g id="line2d_4">
      <g>
       <use xlink:href="#m2ddcef1989" x="304.604716" y="320.243478" style="stroke: #000000; stroke-width: 0.8"/>
      </g>
     </g>
     <g id="text_4">
      <!-- 15 -->
      <g transform="translate(295.060966 338.641135) scale(0.15 -0.15)">
       <use xlink:href="#DejaVuSans-31"/>
       <use xlink:href="#DejaVuSans-35" transform="translate(63.623047 0)"/>
      </g>
     </g>
    </g>
    <g id="xtick_5">
     <g id="line2d_5">
      <g>
       <use xlink:href="#m2ddcef1989" x="375.622898" y="320.243478" style="stroke: #000000; stroke-width: 0.8"/>
      </g>
     </g>
     <g id="text_5">
      <!-- 20 -->
      <g transform="translate(366.079148 338.641135) scale(0.15 -0.15)">
       <defs>
        <path id="DejaVuSans-32" d="M 1228 531 
L 3431 531 
L 3431 0 
L 469 0 
L 469 531 
Q 828 903 1448 1529 
Q 2069 2156 2228 2338 
Q 2531 2678 2651 2914 
Q 2772 3150 2772 3378 
Q 2772 3750 2511 3984 
Q 2250 4219 1831 4219 
Q 1534 4219 1204 4116 
Q 875 4013 500 3803 
L 500 4441 
Q 881 4594 1212 4672 
Q 1544 4750 1819 4750 
Q 2544 4750 2975 4387 
Q 3406 4025 3406 3419 
Q 3406 3131 3298 2873 
Q 3191 2616 2906 2266 
Q 2828 2175 2409 1742 
Q 1991 1309 1228 531 
z
" transform="scale(0.015625)"/>
       </defs>
       <use xlink:href="#DejaVuSans-32"/>
       <use xlink:href="#DejaVuSans-30" transform="translate(63.623047 0)"/>
      </g>
     </g>
    </g>
    <g id="xtick_6">
     <g id="line2d_6">
      <g>
       <use xlink:href="#m2ddcef1989" x="446.64108" y="320.243478" style="stroke: #000000; stroke-width: 0.8"/>
      </g>
     </g>
     <g id="text_6">
      <!-- 25 -->
      <g transform="translate(437.09733 338.641135) scale(0.15 -0.15)">
       <use xlink:href="#DejaVuSans-32"/>
       <use xlink:href="#DejaVuSans-35" transform="translate(63.623047 0)"/>
      </g>
     </g>
    </g>
    <g id="text_7">
     <!-- Time [hr] -->
     <g transform="translate(222.183125 359.437853) scale(0.18 -0.18)">
      <defs>
       <path id="DejaVuSans-Bold-54" d="M 31 4666 
L 4331 4666 
L 4331 3756 
L 2784 3756 
L 2784 0 
L 1581 0 
L 1581 3756 
L 31 3756 
L 31 4666 
z
" transform="scale(0.015625)"/>
       <path id="DejaVuSans-Bold-69" d="M 538 3500 
L 1656 3500 
L 1656 0 
L 538 0 
L 538 3500 
z
M 538 4863 
L 1656 4863 
L 1656 3950 
L 538 3950 
L 538 4863 
z
" transform="scale(0.015625)"/>
       <path id="DejaVuSans-Bold-6d" d="M 3781 2919 
Q 3994 3244 4286 3414 
Q 4578 3584 4928 3584 
Q 5531 3584 5847 3212 
Q 6163 2841 6163 2131 
L 6163 0 
L 5038 0 
L 5038 1825 
Q 5041 1866 5042 1909 
Q 5044 1953 5044 2034 
Q 5044 2406 4934 2573 
Q 4825 2741 4581 2741 
Q 4263 2741 4089 2478 
Q 3916 2216 3909 1719 
L 3909 0 
L 2784 0 
L 2784 1825 
Q 2784 2406 2684 2573 
Q 2584 2741 2328 2741 
Q 2006 2741 1831 2477 
Q 1656 2213 1656 1722 
L 1656 0 
L 531 0 
L 531 3500 
L 1656 3500 
L 1656 2988 
Q 1863 3284 2130 3434 
Q 2397 3584 2719 3584 
Q 3081 3584 3359 3409 
Q 3638 3234 3781 2919 
z
" transform="scale(0.015625)"/>
       <path id="DejaVuSans-Bold-65" d="M 4031 1759 
L 4031 1441 
L 1416 1441 
Q 1456 1047 1700 850 
Q 1944 653 2381 653 
Q 2734 653 3104 758 
Q 3475 863 3866 1075 
L 3866 213 
Q 3469 63 3072 -14 
Q 2675 -91 2278 -91 
Q 1328 -91 801 392 
Q 275 875 275 1747 
Q 275 2603 792 3093 
Q 1309 3584 2216 3584 
Q 3041 3584 3536 3087 
Q 4031 2591 4031 1759 
z
M 2881 2131 
Q 2881 2450 2695 2645 
Q 2509 2841 2209 2841 
Q 1884 2841 1681 2658 
Q 1478 2475 1428 2131 
L 2881 2131 
z
" transform="scale(0.015625)"/>
       <path id="DejaVuSans-Bold-20" transform="scale(0.015625)"/>
       <path id="DejaVuSans-Bold-5b" d="M 550 4863 
L 2491 4863 
L 2491 4159 
L 1613 4159 
L 1613 -141 
L 2491 -141 
L 2491 -844 
L 550 -844 
L 550 4863 
z
" transform="scale(0.015625)"/>
       <path id="DejaVuSans-Bold-68" d="M 4056 2131 
L 4056 0 
L 2931 0 
L 2931 347 
L 2931 1625 
Q 2931 2084 2911 2256 
Q 2891 2428 2841 2509 
Q 2775 2619 2662 2680 
Q 2550 2741 2406 2741 
Q 2056 2741 1856 2470 
Q 1656 2200 1656 1722 
L 1656 0 
L 538 0 
L 538 4863 
L 1656 4863 
L 1656 2988 
Q 1909 3294 2193 3439 
Q 2478 3584 2822 3584 
Q 3428 3584 3742 3212 
Q 4056 2841 4056 2131 
z
" transform="scale(0.015625)"/>
       <path id="DejaVuSans-Bold-72" d="M 3138 2547 
Q 2991 2616 2845 2648 
Q 2700 2681 2553 2681 
Q 2122 2681 1889 2404 
Q 1656 2128 1656 1613 
L 1656 0 
L 538 0 
L 538 3500 
L 1656 3500 
L 1656 2925 
Q 1872 3269 2151 3426 
Q 2431 3584 2822 3584 
Q 2878 3584 2943 3579 
Q 3009 3575 3134 3559 
L 3138 2547 
z
" transform="scale(0.015625)"/>
       <path id="DejaVuSans-Bold-5d" d="M 2375 -844 
L 434 -844 
L 434 -141 
L 1313 -141 
L 1313 4159 
L 434 4159 
L 434 4863 
L 2375 4863 
L 2375 -844 
z
" transform="scale(0.015625)"/>
      </defs>
      <use xlink:href="#DejaVuSans-Bold-54"/>
      <use xlink:href="#DejaVuSans-Bold-69" transform="translate(68.212891 0)"/>
      <use xlink:href="#DejaVuSans-Bold-6d" transform="translate(102.490234 0)"/>
      <use xlink:href="#DejaVuSans-Bold-65" transform="translate(206.689453 0)"/>
      <use xlink:href="#DejaVuSans-Bold-20" transform="translate(274.511719 0)"/>
      <use xlink:href="#DejaVuSans-Bold-5b" transform="translate(309.326172 0)"/>
      <use xlink:href="#DejaVuSans-Bold-68" transform="translate(355.029297 0)"/>
      <use xlink:href="#DejaVuSans-Bold-72" transform="translate(426.220703 0)"/>
      <use xlink:href="#DejaVuSans-Bold-5d" transform="translate(475.537109 0)"/>
     </g>
    </g>
   </g>
   <g id="matplotlib.axis_2">
    <g id="ytick_1">
     <g id="line2d_7">
      <defs>
       <path id="m6eb4e82550" d="M 0 0 
L -3.5 0 
" style="stroke: #000000; stroke-width: 0.8"/>
      </defs>
      <g>
       <use xlink:href="#m6eb4e82550" x="73.795625" y="300.282389" style="stroke: #000000; stroke-width: 0.8"/>
      </g>
     </g>
     <g id="text_8">
      <!-- 0 -->
      <g transform="translate(57.251875 305.981217) scale(0.15 -0.15)">
       <use xlink:href="#DejaVuSans-30"/>
      </g>
     </g>
    </g>
    <g id="ytick_2">
     <g id="line2d_8">
      <g>
       <use xlink:href="#m6eb4e82550" x="73.795625" y="262.594578" style="stroke: #000000; stroke-width: 0.8"/>
      </g>
     </g>
     <g id="text_9">
      <!-- 100 -->
      <g transform="translate(38.164375 268.293406) scale(0.15 -0.15)">
       <use xlink:href="#DejaVuSans-31"/>
       <use xlink:href="#DejaVuSans-30" transform="translate(63.623047 0)"/>
       <use xlink:href="#DejaVuSans-30" transform="translate(127.246094 0)"/>
      </g>
     </g>
    </g>
    <g id="ytick_3">
     <g id="line2d_9">
      <g>
       <use xlink:href="#m6eb4e82550" x="73.795625" y="224.906768" style="stroke: #000000; stroke-width: 0.8"/>
      </g>
     </g>
     <g id="text_10">
      <!-- 200 -->
      <g transform="translate(38.164375 230.605596) scale(0.15 -0.15)">
       <use xlink:href="#DejaVuSans-32"/>
       <use xlink:href="#DejaVuSans-30" transform="translate(63.623047 0)"/>
       <use xlink:href="#DejaVuSans-30" transform="translate(127.246094 0)"/>
      </g>
     </g>
    </g>
    <g id="ytick_4">
     <g id="line2d_10">
      <g>
       <use xlink:href="#m6eb4e82550" x="73.795625" y="187.218958" style="stroke: #000000; stroke-width: 0.8"/>
      </g>
     </g>
     <g id="text_11">
      <!-- 300 -->
      <g transform="translate(38.164375 192.917786) scale(0.15 -0.15)">
       <defs>
        <path id="DejaVuSans-33" d="M 2597 2516 
Q 3050 2419 3304 2112 
Q 3559 1806 3559 1356 
Q 3559 666 3084 287 
Q 2609 -91 1734 -91 
Q 1441 -91 1130 -33 
Q 819 25 488 141 
L 488 750 
Q 750 597 1062 519 
Q 1375 441 1716 441 
Q 2309 441 2620 675 
Q 2931 909 2931 1356 
Q 2931 1769 2642 2001 
Q 2353 2234 1838 2234 
L 1294 2234 
L 1294 2753 
L 1863 2753 
Q 2328 2753 2575 2939 
Q 2822 3125 2822 3475 
Q 2822 3834 2567 4026 
Q 2313 4219 1838 4219 
Q 1578 4219 1281 4162 
Q 984 4106 628 3988 
L 628 4550 
Q 988 4650 1302 4700 
Q 1616 4750 1894 4750 
Q 2613 4750 3031 4423 
Q 3450 4097 3450 3541 
Q 3450 3153 3228 2886 
Q 3006 2619 2597 2516 
z
" transform="scale(0.015625)"/>
       </defs>
       <use xlink:href="#DejaVuSans-33"/>
       <use xlink:href="#DejaVuSans-30" transform="translate(63.623047 0)"/>
       <use xlink:href="#DejaVuSans-30" transform="translate(127.246094 0)"/>
      </g>
     </g>
    </g>
    <g id="ytick_5">
     <g id="line2d_11">
      <g>
       <use xlink:href="#m6eb4e82550" x="73.795625" y="149.531148" style="stroke: #000000; stroke-width: 0.8"/>
      </g>
     </g>
     <g id="text_12">
      <!-- 400 -->
      <g transform="translate(38.164375 155.229976) scale(0.15 -0.15)">
       <defs>
        <path id="DejaVuSans-34" d="M 2419 4116 
L 825 1625 
L 2419 1625 
L 2419 4116 
z
M 2253 4666 
L 3047 4666 
L 3047 1625 
L 3713 1625 
L 3713 1100 
L 3047 1100 
L 3047 0 
L 2419 0 
L 2419 1100 
L 313 1100 
L 313 1709 
L 2253 4666 
z
" transform="scale(0.015625)"/>
       </defs>
       <use xlink:href="#DejaVuSans-34"/>
       <use xlink:href="#DejaVuSans-30" transform="translate(63.623047 0)"/>
       <use xlink:href="#DejaVuSans-30" transform="translate(127.246094 0)"/>
      </g>
     </g>
    </g>
    <g id="ytick_6">
     <g id="line2d_12">
      <g>
       <use xlink:href="#m6eb4e82550" x="73.795625" y="111.843337" style="stroke: #000000; stroke-width: 0.8"/>
      </g>
     </g>
     <g id="text_13">
      <!-- 500 -->
      <g transform="translate(38.164375 117.542165) scale(0.15 -0.15)">
       <use xlink:href="#DejaVuSans-35"/>
       <use xlink:href="#DejaVuSans-30" transform="translate(63.623047 0)"/>
       <use xlink:href="#DejaVuSans-30" transform="translate(127.246094 0)"/>
      </g>
     </g>
    </g>
    <g id="text_14">
     <!-- Losartan [nM] -->
     <g transform="translate(30.420938 271.012989) rotate(-90) scale(0.18 -0.18)">
      <defs>
       <path id="DejaVuSans-Bold-4c" d="M 588 4666 
L 1791 4666 
L 1791 909 
L 3903 909 
L 3903 0 
L 588 0 
L 588 4666 
z
" transform="scale(0.015625)"/>
       <path id="DejaVuSans-Bold-6f" d="M 2203 2784 
Q 1831 2784 1636 2517 
Q 1441 2250 1441 1747 
Q 1441 1244 1636 976 
Q 1831 709 2203 709 
Q 2569 709 2762 976 
Q 2956 1244 2956 1747 
Q 2956 2250 2762 2517 
Q 2569 2784 2203 2784 
z
M 2203 3584 
Q 3106 3584 3614 3096 
Q 4122 2609 4122 1747 
Q 4122 884 3614 396 
Q 3106 -91 2203 -91 
Q 1297 -91 786 396 
Q 275 884 275 1747 
Q 275 2609 786 3096 
Q 1297 3584 2203 3584 
z
" transform="scale(0.015625)"/>
       <path id="DejaVuSans-Bold-73" d="M 3272 3391 
L 3272 2541 
Q 2913 2691 2578 2766 
Q 2244 2841 1947 2841 
Q 1628 2841 1473 2761 
Q 1319 2681 1319 2516 
Q 1319 2381 1436 2309 
Q 1553 2238 1856 2203 
L 2053 2175 
Q 2913 2066 3209 1816 
Q 3506 1566 3506 1031 
Q 3506 472 3093 190 
Q 2681 -91 1863 -91 
Q 1516 -91 1145 -36 
Q 775 19 384 128 
L 384 978 
Q 719 816 1070 734 
Q 1422 653 1784 653 
Q 2113 653 2278 743 
Q 2444 834 2444 1013 
Q 2444 1163 2330 1236 
Q 2216 1309 1875 1350 
L 1678 1375 
Q 931 1469 631 1722 
Q 331 1975 331 2491 
Q 331 3047 712 3315 
Q 1094 3584 1881 3584 
Q 2191 3584 2531 3537 
Q 2872 3491 3272 3391 
z
" transform="scale(0.015625)"/>
       <path id="DejaVuSans-Bold-61" d="M 2106 1575 
Q 1756 1575 1579 1456 
Q 1403 1338 1403 1106 
Q 1403 894 1545 773 
Q 1688 653 1941 653 
Q 2256 653 2472 879 
Q 2688 1106 2688 1447 
L 2688 1575 
L 2106 1575 
z
M 3816 1997 
L 3816 0 
L 2688 0 
L 2688 519 
Q 2463 200 2181 54 
Q 1900 -91 1497 -91 
Q 953 -91 614 226 
Q 275 544 275 1050 
Q 275 1666 698 1953 
Q 1122 2241 2028 2241 
L 2688 2241 
L 2688 2328 
Q 2688 2594 2478 2717 
Q 2269 2841 1825 2841 
Q 1466 2841 1156 2769 
Q 847 2697 581 2553 
L 581 3406 
Q 941 3494 1303 3539 
Q 1666 3584 2028 3584 
Q 2975 3584 3395 3211 
Q 3816 2838 3816 1997 
z
" transform="scale(0.015625)"/>
       <path id="DejaVuSans-Bold-74" d="M 1759 4494 
L 1759 3500 
L 2913 3500 
L 2913 2700 
L 1759 2700 
L 1759 1216 
Q 1759 972 1856 886 
Q 1953 800 2241 800 
L 2816 800 
L 2816 0 
L 1856 0 
Q 1194 0 917 276 
Q 641 553 641 1216 
L 641 2700 
L 84 2700 
L 84 3500 
L 641 3500 
L 641 4494 
L 1759 4494 
z
" transform="scale(0.015625)"/>
       <path id="DejaVuSans-Bold-6e" d="M 4056 2131 
L 4056 0 
L 2931 0 
L 2931 347 
L 2931 1631 
Q 2931 2084 2911 2256 
Q 2891 2428 2841 2509 
Q 2775 2619 2662 2680 
Q 2550 2741 2406 2741 
Q 2056 2741 1856 2470 
Q 1656 2200 1656 1722 
L 1656 0 
L 538 0 
L 538 3500 
L 1656 3500 
L 1656 2988 
Q 1909 3294 2193 3439 
Q 2478 3584 2822 3584 
Q 3428 3584 3742 3212 
Q 4056 2841 4056 2131 
z
" transform="scale(0.015625)"/>
       <path id="DejaVuSans-Bold-4d" d="M 588 4666 
L 2119 4666 
L 3181 2169 
L 4250 4666 
L 5778 4666 
L 5778 0 
L 4641 0 
L 4641 3413 
L 3566 897 
L 2803 897 
L 1728 3413 
L 1728 0 
L 588 0 
L 588 4666 
z
" transform="scale(0.015625)"/>
      </defs>
      <use xlink:href="#DejaVuSans-Bold-4c"/>
      <use xlink:href="#DejaVuSans-Bold-6f" transform="translate(63.720703 0)"/>
      <use xlink:href="#DejaVuSans-Bold-73" transform="translate(132.421875 0)"/>
      <use xlink:href="#DejaVuSans-Bold-61" transform="translate(191.943359 0)"/>
      <use xlink:href="#DejaVuSans-Bold-72" transform="translate(259.423828 0)"/>
      <use xlink:href="#DejaVuSans-Bold-74" transform="translate(308.740234 0)"/>
      <use xlink:href="#DejaVuSans-Bold-61" transform="translate(356.542969 0)"/>
      <use xlink:href="#DejaVuSans-Bold-6e" transform="translate(424.023438 0)"/>
      <use xlink:href="#DejaVuSans-Bold-20" transform="translate(495.214844 0)"/>
      <use xlink:href="#DejaVuSans-Bold-5b" transform="translate(530.029297 0)"/>
      <use xlink:href="#DejaVuSans-Bold-6e" transform="translate(575.732422 0)"/>
      <use xlink:href="#DejaVuSans-Bold-4d" transform="translate(646.923828 0)"/>
      <use xlink:href="#DejaVuSans-Bold-5d" transform="translate(746.435547 0)"/>
     </g>
    </g>
   </g>
   <g id="LineCollection_1">
    <path clip-path="url(#p24408d0a9a)" style="fill: none; stroke: #000000"/>
    <path d="M 95.10108 293.974288 
L 95.10108 240.65971 
" clip-path="url(#p24408d0a9a)" style="fill: none; stroke: #000000"/>
    <path d="M 98.651989 239.221651 
L 98.651989 160.652745 
" clip-path="url(#p24408d0a9a)" style="fill: none; stroke: #000000"/>
    <path d="M 105.753807 235.599064 
L 105.753807 157.030185 
" clip-path="url(#p24408d0a9a)" style="fill: none; stroke: #000000"/>
    <path d="M 112.855625 193.209115 
L 112.855625 92.192048 
" clip-path="url(#p24408d0a9a)" style="fill: none; stroke: #000000"/>
    <path d="M 119.957443 196.245215 
L 119.957443 103.646226 
" clip-path="url(#p24408d0a9a)" style="fill: none; stroke: #000000"/>
    <path d="M 134.16108 240.090005 
L 134.16108 192.387509 
" clip-path="url(#p24408d0a9a)" style="fill: none; stroke: #000000"/>
    <path d="M 148.364716 262.918057 
L 148.364716 237.663783 
" clip-path="url(#p24408d0a9a)" style="fill: none; stroke: #000000"/>
    <path d="M 162.568352 276.637812 
L 162.568352 248.577501 
" clip-path="url(#p24408d0a9a)" style="fill: none; stroke: #000000"/>
    <path d="M 176.771989 291.898621 
L 176.771989 266.644341 
" clip-path="url(#p24408d0a9a)" style="fill: none; stroke: #000000"/>
    <path d="M 205.179261 302.133842 
L 205.179261 282.491626 
" clip-path="url(#p24408d0a9a)" style="fill: none; stroke: #000000"/>
    <path d="M 233.586534 304.715654 
L 233.586534 287.879469 
" clip-path="url(#p24408d0a9a)" style="fill: none; stroke: #000000"/>
    <path d="M 261.993807 306.52694 
L 261.993807 289.690753 
" clip-path="url(#p24408d0a9a)" style="fill: none; stroke: #000000"/>
   </g>
   <g id="LineCollection_2">
    <path clip-path="url(#p24408d0a9a)" style="fill: none; stroke: #1f77b4"/>
    <path d="M 95.10108 296.418073 
L 95.10108 237.491414 
" clip-path="url(#p24408d0a9a)" style="fill: none; stroke: #1f77b4"/>
    <path d="M 98.651989 240.30842 
L 98.651989 161.739514 
" clip-path="url(#p24408d0a9a)" style="fill: none; stroke: #1f77b4"/>
    <path d="M 105.753807 234.920552 
L 105.753807 159.157718 
" clip-path="url(#p24408d0a9a)" style="fill: none; stroke: #1f77b4"/>
    <path d="M 112.855625 199.591735 
L 112.855625 90.156522 
" clip-path="url(#p24408d0a9a)" style="fill: none; stroke: #1f77b4"/>
    <path d="M 119.957443 197.33195 
L 119.957443 104.733029 
" clip-path="url(#p24408d0a9a)" style="fill: none; stroke: #1f77b4"/>
    <path d="M 134.16108 237.283968 
L 134.16108 195.193546 
" clip-path="url(#p24408d0a9a)" style="fill: none; stroke: #1f77b4"/>
    <path d="M 148.364716 268.938394 
L 148.364716 235.266016 
" clip-path="url(#p24408d0a9a)" style="fill: none; stroke: #1f77b4"/>
    <path d="M 162.568352 273.515543 
L 162.568352 253.873316 
" clip-path="url(#p24408d0a9a)" style="fill: none; stroke: #1f77b4"/>
    <path d="M 176.771989 293.663893 
L 176.771989 265.603582 
" clip-path="url(#p24408d0a9a)" style="fill: none; stroke: #1f77b4"/>
    <path d="M 205.179261 305.664389 
L 205.179261 280.410108 
" clip-path="url(#p24408d0a9a)" style="fill: none; stroke: #1f77b4"/>
    <path d="M 233.586534 309.286957 
L 233.586534 284.03268 
" clip-path="url(#p24408d0a9a)" style="fill: none; stroke: #1f77b4"/>
    <path d="M 261.993807 307.929955 
L 261.993807 288.287738 
" clip-path="url(#p24408d0a9a)" style="fill: none; stroke: #1f77b4"/>
   </g>
   <g id="line2d_13">
    <path d="M 91.55017 300.282389 
L 92.260352 299.709118 
L 92.970534 296.659747 
L 93.680716 290.617979 
L 94.390898 282.011381 
L 95.811261 259.924119 
L 98.651989 212.991696 
L 100.072352 193.997048 
L 101.492716 179.584805 
L 102.202898 174.14862 
L 102.91308 169.850423 
L 103.623261 166.630505 
L 104.333443 164.414704 
L 105.043625 163.119744 
L 105.753807 162.657503 
L 106.463989 162.938362 
L 107.17417 163.873779 
L 107.884352 165.3782 
L 108.594534 167.370434 
L 110.014898 172.520568 
L 111.435261 178.788636 
L 113.565807 189.355091 
L 118.53708 214.604819 
L 120.667625 224.423093 
L 122.79817 233.311348 
L 124.928716 241.2184 
L 127.059261 248.163612 
L 129.189807 254.206529 
L 131.320352 259.426979 
L 133.450898 263.912487 
L 135.581443 267.750629 
L 137.711989 271.024627 
L 139.842534 273.811033 
L 141.97308 276.178723 
L 144.103625 278.188697 
L 146.23417 279.894349 
L 148.364716 281.341993 
L 150.495261 282.571524 
L 153.335989 283.929926 
L 156.176716 285.028079 
L 159.727625 286.116127 
L 163.278534 286.963552 
L 167.539625 287.748638 
L 172.510898 288.440273 
L 178.902534 289.09886 
L 187.424716 289.741446 
L 200.207989 290.458213 
L 221.513443 291.397774 
L 254.891989 292.629942 
L 293.951989 293.848701 
L 337.27308 294.97436 
L 384.855261 295.985111 
L 438.118898 296.890036 
L 446.64108 297.015982 
L 446.64108 297.015982 
" clip-path="url(#p24408d0a9a)" style="fill: none; stroke: #000000; stroke-width: 2; stroke-linecap: square"/>
   </g>
   <g id="line2d_14">
    <path d="M 91.55017 300.282389 
L 95.10108 267.316999 
L 98.651989 199.937198 
L 105.753807 196.314625 
L 112.855625 142.700581 
L 119.957443 149.945721 
L 134.16108 216.238757 
L 148.364716 250.29092 
L 162.568352 262.607657 
L 176.771989 279.271481 
L 205.179261 292.312734 
L 233.586534 296.297561 
L 261.993807 298.108846 
" clip-path="url(#p24408d0a9a)" style="fill: none; stroke-dasharray: 3.7,1.6; stroke-dashoffset: 0; stroke: #000000"/>
    <defs>
     <path id="m3a069fa22e" d="M -3 3 
L 3 3 
L 3 -3 
L -3 -3 
z
" style="stroke: #000000; stroke-linejoin: miter"/>
    </defs>
    <g clip-path="url(#p24408d0a9a)">
     <use xlink:href="#m3a069fa22e" x="91.55017" y="300.282389" style="stroke: #000000; stroke-linejoin: miter"/>
     <use xlink:href="#m3a069fa22e" x="95.10108" y="267.316999" style="stroke: #000000; stroke-linejoin: miter"/>
     <use xlink:href="#m3a069fa22e" x="98.651989" y="199.937198" style="stroke: #000000; stroke-linejoin: miter"/>
     <use xlink:href="#m3a069fa22e" x="105.753807" y="196.314625" style="stroke: #000000; stroke-linejoin: miter"/>
     <use xlink:href="#m3a069fa22e" x="112.855625" y="142.700581" style="stroke: #000000; stroke-linejoin: miter"/>
     <use xlink:href="#m3a069fa22e" x="119.957443" y="149.945721" style="stroke: #000000; stroke-linejoin: miter"/>
     <use xlink:href="#m3a069fa22e" x="134.16108" y="216.238757" style="stroke: #000000; stroke-linejoin: miter"/>
     <use xlink:href="#m3a069fa22e" x="148.364716" y="250.29092" style="stroke: #000000; stroke-linejoin: miter"/>
     <use xlink:href="#m3a069fa22e" x="162.568352" y="262.607657" style="stroke: #000000; stroke-linejoin: miter"/>
     <use xlink:href="#m3a069fa22e" x="176.771989" y="279.271481" style="stroke: #000000; stroke-linejoin: miter"/>
     <use xlink:href="#m3a069fa22e" x="205.179261" y="292.312734" style="stroke: #000000; stroke-linejoin: miter"/>
     <use xlink:href="#m3a069fa22e" x="233.586534" y="296.297561" style="stroke: #000000; stroke-linejoin: miter"/>
     <use xlink:href="#m3a069fa22e" x="261.993807" y="298.108846" style="stroke: #000000; stroke-linejoin: miter"/>
    </g>
   </g>
   <g id="line2d_15">
    <path d="M 91.55017 300.282389 
L 95.10108 266.954743 
L 98.651989 201.023967 
L 105.753807 197.039135 
L 112.855625 144.874128 
L 119.957443 151.03249 
L 134.16108 216.238757 
L 148.364716 252.102205 
L 162.568352 263.69443 
L 176.771989 279.633738 
L 205.179261 293.037248 
L 233.586534 296.659818 
L 261.993807 298.108846 
" clip-path="url(#p24408d0a9a)" style="fill: none; stroke-dasharray: 3.7,1.6; stroke-dashoffset: 0; stroke: #1f77b4"/>
    <defs>
     <path id="mbb78597751" d="M -3 3 
L 3 3 
L 3 -3 
L -3 -3 
z
" style="stroke: #000000; stroke-linejoin: miter"/>
    </defs>
    <g clip-path="url(#p24408d0a9a)">
     <use xlink:href="#mbb78597751" x="91.55017" y="300.282389" style="fill: #1f77b4; stroke: #000000; stroke-linejoin: miter"/>
     <use xlink:href="#mbb78597751" x="95.10108" y="266.954743" style="fill: #1f77b4; stroke: #000000; stroke-linejoin: miter"/>
     <use xlink:href="#mbb78597751" x="98.651989" y="201.023967" style="fill: #1f77b4; stroke: #000000; stroke-linejoin: miter"/>
     <use xlink:href="#mbb78597751" x="105.753807" y="197.039135" style="fill: #1f77b4; stroke: #000000; stroke-linejoin: miter"/>
     <use xlink:href="#mbb78597751" x="112.855625" y="144.874128" style="fill: #1f77b4; stroke: #000000; stroke-linejoin: miter"/>
     <use xlink:href="#mbb78597751" x="119.957443" y="151.03249" style="fill: #1f77b4; stroke: #000000; stroke-linejoin: miter"/>
     <use xlink:href="#mbb78597751" x="134.16108" y="216.238757" style="fill: #1f77b4; stroke: #000000; stroke-linejoin: miter"/>
     <use xlink:href="#mbb78597751" x="148.364716" y="252.102205" style="fill: #1f77b4; stroke: #000000; stroke-linejoin: miter"/>
     <use xlink:href="#mbb78597751" x="162.568352" y="263.69443" style="fill: #1f77b4; stroke: #000000; stroke-linejoin: miter"/>
     <use xlink:href="#mbb78597751" x="176.771989" y="279.633738" style="fill: #1f77b4; stroke: #000000; stroke-linejoin: miter"/>
     <use xlink:href="#mbb78597751" x="205.179261" y="293.037248" style="fill: #1f77b4; stroke: #000000; stroke-linejoin: miter"/>
     <use xlink:href="#mbb78597751" x="233.586534" y="296.659818" style="fill: #1f77b4; stroke: #000000; stroke-linejoin: miter"/>
     <use xlink:href="#mbb78597751" x="261.993807" y="298.108846" style="fill: #1f77b4; stroke: #000000; stroke-linejoin: miter"/>
    </g>
   </g>
   <g id="patch_3">
    <path d="M 73.795625 320.243478 
L 73.795625 79.2 
" style="fill: none; stroke: #000000; stroke-width: 0.8; stroke-linejoin: miter; stroke-linecap: square"/>
   </g>
   <g id="patch_4">
    <path d="M 464.395625 320.243478 
L 464.395625 79.2 
" style="fill: none; stroke: #000000; stroke-width: 0.8; stroke-linejoin: miter; stroke-linecap: square"/>
   </g>
   <g id="patch_5">
    <path d="M 73.795625 320.243478 
L 464.395625 320.243478 
" style="fill: none; stroke: #000000; stroke-width: 0.8; stroke-linejoin: miter; stroke-linecap: square"/>
   </g>
   <g id="patch_6">
    <path d="M 73.795625 79.2 
L 464.395625 79.2 
" style="fill: none; stroke: #000000; stroke-width: 0.8; stroke-linejoin: miter; stroke-linecap: square"/>
   </g>
   <g id="legend_1">
    <g id="patch_7">
     <path d="M 324.768125 120.8275 
L 458.795625 120.8275 
Q 460.395625 120.8275 460.395625 119.2275 
L 460.395625 84.8 
Q 460.395625 83.2 458.795625 83.2 
L 324.768125 83.2 
Q 323.168125 83.2 323.168125 84.8 
L 323.168125 119.2275 
Q 323.168125 120.8275 324.768125 120.8275 
z
" style="fill: #ffffff; opacity: 0.8; stroke: #cccccc; stroke-linejoin: miter"/>
    </g>
    <g id="line2d_16">
     <path d="M 326.368125 89.67875 
L 342.368125 89.67875 
" style="fill: none; stroke: #000000; stroke-width: 2; stroke-linecap: square"/>
    </g>
    <g id="line2d_17"/>
    <g id="text_15">
     <!-- Sim 50 mg -->
     <g transform="translate(348.768125 92.47875) scale(0.08 -0.08)">
      <defs>
       <path id="DejaVuSans-53" d="M 3425 4513 
L 3425 3897 
Q 3066 4069 2747 4153 
Q 2428 4238 2131 4238 
Q 1616 4238 1336 4038 
Q 1056 3838 1056 3469 
Q 1056 3159 1242 3001 
Q 1428 2844 1947 2747 
L 2328 2669 
Q 3034 2534 3370 2195 
Q 3706 1856 3706 1288 
Q 3706 609 3251 259 
Q 2797 -91 1919 -91 
Q 1588 -91 1214 -16 
Q 841 59 441 206 
L 441 856 
Q 825 641 1194 531 
Q 1563 422 1919 422 
Q 2459 422 2753 634 
Q 3047 847 3047 1241 
Q 3047 1584 2836 1778 
Q 2625 1972 2144 2069 
L 1759 2144 
Q 1053 2284 737 2584 
Q 422 2884 422 3419 
Q 422 4038 858 4394 
Q 1294 4750 2059 4750 
Q 2388 4750 2728 4690 
Q 3069 4631 3425 4513 
z
" transform="scale(0.015625)"/>
       <path id="DejaVuSans-69" d="M 603 3500 
L 1178 3500 
L 1178 0 
L 603 0 
L 603 3500 
z
M 603 4863 
L 1178 4863 
L 1178 4134 
L 603 4134 
L 603 4863 
z
" transform="scale(0.015625)"/>
       <path id="DejaVuSans-6d" d="M 3328 2828 
Q 3544 3216 3844 3400 
Q 4144 3584 4550 3584 
Q 5097 3584 5394 3201 
Q 5691 2819 5691 2113 
L 5691 0 
L 5113 0 
L 5113 2094 
Q 5113 2597 4934 2840 
Q 4756 3084 4391 3084 
Q 3944 3084 3684 2787 
Q 3425 2491 3425 1978 
L 3425 0 
L 2847 0 
L 2847 2094 
Q 2847 2600 2669 2842 
Q 2491 3084 2119 3084 
Q 1678 3084 1418 2786 
Q 1159 2488 1159 1978 
L 1159 0 
L 581 0 
L 581 3500 
L 1159 3500 
L 1159 2956 
Q 1356 3278 1631 3431 
Q 1906 3584 2284 3584 
Q 2666 3584 2933 3390 
Q 3200 3197 3328 2828 
z
" transform="scale(0.015625)"/>
       <path id="DejaVuSans-20" transform="scale(0.015625)"/>
       <path id="DejaVuSans-67" d="M 2906 1791 
Q 2906 2416 2648 2759 
Q 2391 3103 1925 3103 
Q 1463 3103 1205 2759 
Q 947 2416 947 1791 
Q 947 1169 1205 825 
Q 1463 481 1925 481 
Q 2391 481 2648 825 
Q 2906 1169 2906 1791 
z
M 3481 434 
Q 3481 -459 3084 -895 
Q 2688 -1331 1869 -1331 
Q 1566 -1331 1297 -1286 
Q 1028 -1241 775 -1147 
L 775 -588 
Q 1028 -725 1275 -790 
Q 1522 -856 1778 -856 
Q 2344 -856 2625 -561 
Q 2906 -266 2906 331 
L 2906 616 
Q 2728 306 2450 153 
Q 2172 0 1784 0 
Q 1141 0 747 490 
Q 353 981 353 1791 
Q 353 2603 747 3093 
Q 1141 3584 1784 3584 
Q 2172 3584 2450 3431 
Q 2728 3278 2906 2969 
L 2906 3500 
L 3481 3500 
L 3481 434 
z
" transform="scale(0.015625)"/>
      </defs>
      <use xlink:href="#DejaVuSans-53"/>
      <use xlink:href="#DejaVuSans-69" transform="translate(63.476562 0)"/>
      <use xlink:href="#DejaVuSans-6d" transform="translate(91.259766 0)"/>
      <use xlink:href="#DejaVuSans-20" transform="translate(188.671875 0)"/>
      <use xlink:href="#DejaVuSans-35" transform="translate(220.458984 0)"/>
      <use xlink:href="#DejaVuSans-30" transform="translate(284.082031 0)"/>
      <use xlink:href="#DejaVuSans-20" transform="translate(347.705078 0)"/>
      <use xlink:href="#DejaVuSans-6d" transform="translate(379.492188 0)"/>
      <use xlink:href="#DejaVuSans-67" transform="translate(476.904297 0)"/>
     </g>
    </g>
    <g id="LineCollection_3">
     <path d="M 334.368125 105.42125 
L 334.368125 97.42125 
" style="fill: none; stroke: #000000"/>
    </g>
    <g id="line2d_18">
     <path d="M 326.368125 101.42125 
L 342.368125 101.42125 
" style="fill: none; stroke-dasharray: 3.7,1.6; stroke-dashoffset: 0; stroke: #000000"/>
    </g>
    <g id="line2d_19">
     <g>
      <use xlink:href="#m3a069fa22e" x="334.368125" y="101.42125" style="stroke: #000000; stroke-linejoin: miter"/>
     </g>
    </g>
    <g id="text_16">
     <!-- control 50 mg±SD (n=15) -->
     <g transform="translate(348.768125 104.22125) scale(0.08 -0.08)">
      <defs>
       <path id="DejaVuSans-63" d="M 3122 3366 
L 3122 2828 
Q 2878 2963 2633 3030 
Q 2388 3097 2138 3097 
Q 1578 3097 1268 2742 
Q 959 2388 959 1747 
Q 959 1106 1268 751 
Q 1578 397 2138 397 
Q 2388 397 2633 464 
Q 2878 531 3122 666 
L 3122 134 
Q 2881 22 2623 -34 
Q 2366 -91 2075 -91 
Q 1284 -91 818 406 
Q 353 903 353 1747 
Q 353 2603 823 3093 
Q 1294 3584 2113 3584 
Q 2378 3584 2631 3529 
Q 2884 3475 3122 3366 
z
" transform="scale(0.015625)"/>
       <path id="DejaVuSans-6f" d="M 1959 3097 
Q 1497 3097 1228 2736 
Q 959 2375 959 1747 
Q 959 1119 1226 758 
Q 1494 397 1959 397 
Q 2419 397 2687 759 
Q 2956 1122 2956 1747 
Q 2956 2369 2687 2733 
Q 2419 3097 1959 3097 
z
M 1959 3584 
Q 2709 3584 3137 3096 
Q 3566 2609 3566 1747 
Q 3566 888 3137 398 
Q 2709 -91 1959 -91 
Q 1206 -91 779 398 
Q 353 888 353 1747 
Q 353 2609 779 3096 
Q 1206 3584 1959 3584 
z
" transform="scale(0.015625)"/>
       <path id="DejaVuSans-6e" d="M 3513 2113 
L 3513 0 
L 2938 0 
L 2938 2094 
Q 2938 2591 2744 2837 
Q 2550 3084 2163 3084 
Q 1697 3084 1428 2787 
Q 1159 2491 1159 1978 
L 1159 0 
L 581 0 
L 581 3500 
L 1159 3500 
L 1159 2956 
Q 1366 3272 1645 3428 
Q 1925 3584 2291 3584 
Q 2894 3584 3203 3211 
Q 3513 2838 3513 2113 
z
" transform="scale(0.015625)"/>
       <path id="DejaVuSans-74" d="M 1172 4494 
L 1172 3500 
L 2356 3500 
L 2356 3053 
L 1172 3053 
L 1172 1153 
Q 1172 725 1289 603 
Q 1406 481 1766 481 
L 2356 481 
L 2356 0 
L 1766 0 
Q 1100 0 847 248 
Q 594 497 594 1153 
L 594 3053 
L 172 3053 
L 172 3500 
L 594 3500 
L 594 4494 
L 1172 4494 
z
" transform="scale(0.015625)"/>
       <path id="DejaVuSans-72" d="M 2631 2963 
Q 2534 3019 2420 3045 
Q 2306 3072 2169 3072 
Q 1681 3072 1420 2755 
Q 1159 2438 1159 1844 
L 1159 0 
L 581 0 
L 581 3500 
L 1159 3500 
L 1159 2956 
Q 1341 3275 1631 3429 
Q 1922 3584 2338 3584 
Q 2397 3584 2469 3576 
Q 2541 3569 2628 3553 
L 2631 2963 
z
" transform="scale(0.015625)"/>
       <path id="DejaVuSans-6c" d="M 603 4863 
L 1178 4863 
L 1178 0 
L 603 0 
L 603 4863 
z
" transform="scale(0.015625)"/>
       <path id="DejaVuSans-b1" d="M 2944 4013 
L 2944 2803 
L 4684 2803 
L 4684 2272 
L 2944 2272 
L 2944 1063 
L 2419 1063 
L 2419 2272 
L 678 2272 
L 678 2803 
L 2419 2803 
L 2419 4013 
L 2944 4013 
z
M 678 531 
L 4684 531 
L 4684 0 
L 678 0 
L 678 531 
z
" transform="scale(0.015625)"/>
       <path id="DejaVuSans-44" d="M 1259 4147 
L 1259 519 
L 2022 519 
Q 2988 519 3436 956 
Q 3884 1394 3884 2338 
Q 3884 3275 3436 3711 
Q 2988 4147 2022 4147 
L 1259 4147 
z
M 628 4666 
L 1925 4666 
Q 3281 4666 3915 4102 
Q 4550 3538 4550 2338 
Q 4550 1131 3912 565 
Q 3275 0 1925 0 
L 628 0 
L 628 4666 
z
" transform="scale(0.015625)"/>
       <path id="DejaVuSans-28" d="M 1984 4856 
Q 1566 4138 1362 3434 
Q 1159 2731 1159 2009 
Q 1159 1288 1364 580 
Q 1569 -128 1984 -844 
L 1484 -844 
Q 1016 -109 783 600 
Q 550 1309 550 2009 
Q 550 2706 781 3412 
Q 1013 4119 1484 4856 
L 1984 4856 
z
" transform="scale(0.015625)"/>
       <path id="DejaVuSans-3d" d="M 678 2906 
L 4684 2906 
L 4684 2381 
L 678 2381 
L 678 2906 
z
M 678 1631 
L 4684 1631 
L 4684 1100 
L 678 1100 
L 678 1631 
z
" transform="scale(0.015625)"/>
       <path id="DejaVuSans-29" d="M 513 4856 
L 1013 4856 
Q 1481 4119 1714 3412 
Q 1947 2706 1947 2009 
Q 1947 1309 1714 600 
Q 1481 -109 1013 -844 
L 513 -844 
Q 928 -128 1133 580 
Q 1338 1288 1338 2009 
Q 1338 2731 1133 3434 
Q 928 4138 513 4856 
z
" transform="scale(0.015625)"/>
      </defs>
      <use xlink:href="#DejaVuSans-63"/>
      <use xlink:href="#DejaVuSans-6f" transform="translate(54.980469 0)"/>
      <use xlink:href="#DejaVuSans-6e" transform="translate(116.162109 0)"/>
      <use xlink:href="#DejaVuSans-74" transform="translate(179.541016 0)"/>
      <use xlink:href="#DejaVuSans-72" transform="translate(218.75 0)"/>
      <use xlink:href="#DejaVuSans-6f" transform="translate(257.613281 0)"/>
      <use xlink:href="#DejaVuSans-6c" transform="translate(318.794922 0)"/>
      <use xlink:href="#DejaVuSans-20" transform="translate(346.578125 0)"/>
      <use xlink:href="#DejaVuSans-35" transform="translate(378.365234 0)"/>
      <use xlink:href="#DejaVuSans-30" transform="translate(441.988281 0)"/>
      <use xlink:href="#DejaVuSans-20" transform="translate(505.611328 0)"/>
      <use xlink:href="#DejaVuSans-6d" transform="translate(537.398438 0)"/>
      <use xlink:href="#DejaVuSans-67" transform="translate(634.810547 0)"/>
      <use xlink:href="#DejaVuSans-b1" transform="translate(698.287109 0)"/>
      <use xlink:href="#DejaVuSans-53" transform="translate(782.076172 0)"/>
      <use xlink:href="#DejaVuSans-44" transform="translate(845.552734 0)"/>
      <use xlink:href="#DejaVuSans-20" transform="translate(922.554688 0)"/>
      <use xlink:href="#DejaVuSans-28" transform="translate(954.341797 0)"/>
      <use xlink:href="#DejaVuSans-6e" transform="translate(993.355469 0)"/>
      <use xlink:href="#DejaVuSans-3d" transform="translate(1056.734375 0)"/>
      <use xlink:href="#DejaVuSans-31" transform="translate(1140.523438 0)"/>
      <use xlink:href="#DejaVuSans-35" transform="translate(1204.146484 0)"/>
      <use xlink:href="#DejaVuSans-29" transform="translate(1267.769531 0)"/>
     </g>
    </g>
    <g id="LineCollection_4">
     <path d="M 334.368125 117.16375 
L 334.368125 109.16375 
" style="fill: none; stroke: #1f77b4"/>
    </g>
    <g id="line2d_20">
     <path d="M 326.368125 113.16375 
L 342.368125 113.16375 
" style="fill: none; stroke-dasharray: 3.7,1.6; stroke-dashoffset: 0; stroke: #1f77b4"/>
    </g>
    <g id="line2d_21">
     <g>
      <use xlink:href="#mbb78597751" x="334.368125" y="113.16375" style="fill: #1f77b4; stroke: #000000; stroke-linejoin: miter"/>
     </g>
    </g>
    <g id="text_17">
     <!-- ginseng 50 mg±SD (n=15) -->
     <g transform="translate(348.768125 115.96375) scale(0.08 -0.08)">
      <defs>
       <path id="DejaVuSans-73" d="M 2834 3397 
L 2834 2853 
Q 2591 2978 2328 3040 
Q 2066 3103 1784 3103 
Q 1356 3103 1142 2972 
Q 928 2841 928 2578 
Q 928 2378 1081 2264 
Q 1234 2150 1697 2047 
L 1894 2003 
Q 2506 1872 2764 1633 
Q 3022 1394 3022 966 
Q 3022 478 2636 193 
Q 2250 -91 1575 -91 
Q 1294 -91 989 -36 
Q 684 19 347 128 
L 347 722 
Q 666 556 975 473 
Q 1284 391 1588 391 
Q 1994 391 2212 530 
Q 2431 669 2431 922 
Q 2431 1156 2273 1281 
Q 2116 1406 1581 1522 
L 1381 1569 
Q 847 1681 609 1914 
Q 372 2147 372 2553 
Q 372 3047 722 3315 
Q 1072 3584 1716 3584 
Q 2034 3584 2315 3537 
Q 2597 3491 2834 3397 
z
" transform="scale(0.015625)"/>
       <path id="DejaVuSans-65" d="M 3597 1894 
L 3597 1613 
L 953 1613 
Q 991 1019 1311 708 
Q 1631 397 2203 397 
Q 2534 397 2845 478 
Q 3156 559 3463 722 
L 3463 178 
Q 3153 47 2828 -22 
Q 2503 -91 2169 -91 
Q 1331 -91 842 396 
Q 353 884 353 1716 
Q 353 2575 817 3079 
Q 1281 3584 2069 3584 
Q 2775 3584 3186 3129 
Q 3597 2675 3597 1894 
z
M 3022 2063 
Q 3016 2534 2758 2815 
Q 2500 3097 2075 3097 
Q 1594 3097 1305 2825 
Q 1016 2553 972 2059 
L 3022 2063 
z
" transform="scale(0.015625)"/>
      </defs>
      <use xlink:href="#DejaVuSans-67"/>
      <use xlink:href="#DejaVuSans-69" transform="translate(63.476562 0)"/>
      <use xlink:href="#DejaVuSans-6e" transform="translate(91.259766 0)"/>
      <use xlink:href="#DejaVuSans-73" transform="translate(154.638672 0)"/>
      <use xlink:href="#DejaVuSans-65" transform="translate(206.738281 0)"/>
      <use xlink:href="#DejaVuSans-6e" transform="translate(268.261719 0)"/>
      <use xlink:href="#DejaVuSans-67" transform="translate(331.640625 0)"/>
      <use xlink:href="#DejaVuSans-20" transform="translate(395.117188 0)"/>
      <use xlink:href="#DejaVuSans-35" transform="translate(426.904297 0)"/>
      <use xlink:href="#DejaVuSans-30" transform="translate(490.527344 0)"/>
      <use xlink:href="#DejaVuSans-20" transform="translate(554.150391 0)"/>
      <use xlink:href="#DejaVuSans-6d" transform="translate(585.9375 0)"/>
      <use xlink:href="#DejaVuSans-67" transform="translate(683.349609 0)"/>
      <use xlink:href="#DejaVuSans-b1" transform="translate(746.826172 0)"/>
      <use xlink:href="#DejaVuSans-53" transform="translate(830.615234 0)"/>
      <use xlink:href="#DejaVuSans-44" transform="translate(894.091797 0)"/>
      <use xlink:href="#DejaVuSans-20" transform="translate(971.09375 0)"/>
      <use xlink:href="#DejaVuSans-28" transform="translate(1002.880859 0)"/>
      <use xlink:href="#DejaVuSans-6e" transform="translate(1041.894531 0)"/>
      <use xlink:href="#DejaVuSans-3d" transform="translate(1105.273438 0)"/>
      <use xlink:href="#DejaVuSans-31" transform="translate(1189.0625 0)"/>
      <use xlink:href="#DejaVuSans-35" transform="translate(1252.685547 0)"/>
      <use xlink:href="#DejaVuSans-29" transform="translate(1316.308594 0)"/>
     </g>
    </g>
   </g>
  </g>
  <g id="axes_2">
   <g id="patch_8">
    <path d="M 73.795625 633.6 
L 464.395625 633.6 
L 464.395625 392.556522 
L 73.795625 392.556522 
z
" style="fill: #ffffff"/>
   </g>
   <g id="matplotlib.axis_3">
    <g id="xtick_7">
     <g id="line2d_22">
      <g>
       <use xlink:href="#m2ddcef1989" x="91.55017" y="633.6" style="stroke: #000000; stroke-width: 0.8"/>
      </g>
     </g>
     <g id="text_18">
      <!-- 0 -->
      <g transform="translate(86.778295 651.997656) scale(0.15 -0.15)">
       <use xlink:href="#DejaVuSans-30"/>
      </g>
     </g>
    </g>
    <g id="xtick_8">
     <g id="line2d_23">
      <g>
       <use xlink:href="#m2ddcef1989" x="162.568352" y="633.6" style="stroke: #000000; stroke-width: 0.8"/>
      </g>
     </g>
     <g id="text_19">
      <!-- 5 -->
      <g transform="translate(157.796477 651.997656) scale(0.15 -0.15)">
       <use xlink:href="#DejaVuSans-35"/>
      </g>
     </g>
    </g>
    <g id="xtick_9">
     <g id="line2d_24">
      <g>
       <use xlink:href="#m2ddcef1989" x="233.586534" y="633.6" style="stroke: #000000; stroke-width: 0.8"/>
      </g>
     </g>
     <g id="text_20">
      <!-- 10 -->
      <g transform="translate(224.042784 651.997656) scale(0.15 -0.15)">
       <use xlink:href="#DejaVuSans-31"/>
       <use xlink:href="#DejaVuSans-30" transform="translate(63.623047 0)"/>
      </g>
     </g>
    </g>
    <g id="xtick_10">
     <g id="line2d_25">
      <g>
       <use xlink:href="#m2ddcef1989" x="304.604716" y="633.6" style="stroke: #000000; stroke-width: 0.8"/>
      </g>
     </g>
     <g id="text_21">
      <!-- 15 -->
      <g transform="translate(295.060966 651.997656) scale(0.15 -0.15)">
       <use xlink:href="#DejaVuSans-31"/>
       <use xlink:href="#DejaVuSans-35" transform="translate(63.623047 0)"/>
      </g>
     </g>
    </g>
    <g id="xtick_11">
     <g id="line2d_26">
      <g>
       <use xlink:href="#m2ddcef1989" x="375.622898" y="633.6" style="stroke: #000000; stroke-width: 0.8"/>
      </g>
     </g>
     <g id="text_22">
      <!-- 20 -->
      <g transform="translate(366.079148 651.997656) scale(0.15 -0.15)">
       <use xlink:href="#DejaVuSans-32"/>
       <use xlink:href="#DejaVuSans-30" transform="translate(63.623047 0)"/>
      </g>
     </g>
    </g>
    <g id="xtick_12">
     <g id="line2d_27">
      <g>
       <use xlink:href="#m2ddcef1989" x="446.64108" y="633.6" style="stroke: #000000; stroke-width: 0.8"/>
      </g>
     </g>
     <g id="text_23">
      <!-- 25 -->
      <g transform="translate(437.09733 651.997656) scale(0.15 -0.15)">
       <use xlink:href="#DejaVuSans-32"/>
       <use xlink:href="#DejaVuSans-35" transform="translate(63.623047 0)"/>
      </g>
     </g>
    </g>
    <g id="text_24">
     <!-- Time [hr] -->
     <g transform="translate(222.183125 672.794375) scale(0.18 -0.18)">
      <use xlink:href="#DejaVuSans-Bold-54"/>
      <use xlink:href="#DejaVuSans-Bold-69" transform="translate(68.212891 0)"/>
      <use xlink:href="#DejaVuSans-Bold-6d" transform="translate(102.490234 0)"/>
      <use xlink:href="#DejaVuSans-Bold-65" transform="translate(206.689453 0)"/>
      <use xlink:href="#DejaVuSans-Bold-20" transform="translate(274.511719 0)"/>
      <use xlink:href="#DejaVuSans-Bold-5b" transform="translate(309.326172 0)"/>
      <use xlink:href="#DejaVuSans-Bold-68" transform="translate(355.029297 0)"/>
      <use xlink:href="#DejaVuSans-Bold-72" transform="translate(426.220703 0)"/>
      <use xlink:href="#DejaVuSans-Bold-5d" transform="translate(475.537109 0)"/>
     </g>
    </g>
   </g>
   <g id="matplotlib.axis_4">
    <g id="ytick_7">
     <g id="line2d_28">
      <g>
       <use xlink:href="#m6eb4e82550" x="73.795625" y="605.504169" style="stroke: #000000; stroke-width: 0.8"/>
      </g>
     </g>
     <g id="text_25">
      <!-- 0 -->
      <g transform="translate(57.251875 611.202997) scale(0.15 -0.15)">
       <use xlink:href="#DejaVuSans-30"/>
      </g>
     </g>
    </g>
    <g id="ytick_8">
     <g id="line2d_29">
      <g>
       <use xlink:href="#m6eb4e82550" x="73.795625" y="569.117025" style="stroke: #000000; stroke-width: 0.8"/>
      </g>
     </g>
     <g id="text_26">
      <!-- 250 -->
      <g transform="translate(38.164375 574.815853) scale(0.15 -0.15)">
       <use xlink:href="#DejaVuSans-32"/>
       <use xlink:href="#DejaVuSans-35" transform="translate(63.623047 0)"/>
       <use xlink:href="#DejaVuSans-30" transform="translate(127.246094 0)"/>
      </g>
     </g>
    </g>
    <g id="ytick_9">
     <g id="line2d_30">
      <g>
       <use xlink:href="#m6eb4e82550" x="73.795625" y="532.729881" style="stroke: #000000; stroke-width: 0.8"/>
      </g>
     </g>
     <g id="text_27">
      <!-- 500 -->
      <g transform="translate(38.164375 538.428709) scale(0.15 -0.15)">
       <use xlink:href="#DejaVuSans-35"/>
       <use xlink:href="#DejaVuSans-30" transform="translate(63.623047 0)"/>
       <use xlink:href="#DejaVuSans-30" transform="translate(127.246094 0)"/>
      </g>
     </g>
    </g>
    <g id="ytick_10">
     <g id="line2d_31">
      <g>
       <use xlink:href="#m6eb4e82550" x="73.795625" y="496.342737" style="stroke: #000000; stroke-width: 0.8"/>
      </g>
     </g>
     <g id="text_28">
      <!-- 750 -->
      <g transform="translate(38.164375 502.041565) scale(0.15 -0.15)">
       <defs>
        <path id="DejaVuSans-37" d="M 525 4666 
L 3525 4666 
L 3525 4397 
L 1831 0 
L 1172 0 
L 2766 4134 
L 525 4134 
L 525 4666 
z
" transform="scale(0.015625)"/>
       </defs>
       <use xlink:href="#DejaVuSans-37"/>
       <use xlink:href="#DejaVuSans-35" transform="translate(63.623047 0)"/>
       <use xlink:href="#DejaVuSans-30" transform="translate(127.246094 0)"/>
      </g>
     </g>
    </g>
    <g id="ytick_11">
     <g id="line2d_32">
      <g>
       <use xlink:href="#m6eb4e82550" x="73.795625" y="459.955593" style="stroke: #000000; stroke-width: 0.8"/>
      </g>
     </g>
     <g id="text_29">
      <!-- 1000 -->
      <g transform="translate(28.620625 465.654421) scale(0.15 -0.15)">
       <use xlink:href="#DejaVuSans-31"/>
       <use xlink:href="#DejaVuSans-30" transform="translate(63.623047 0)"/>
       <use xlink:href="#DejaVuSans-30" transform="translate(127.246094 0)"/>
       <use xlink:href="#DejaVuSans-30" transform="translate(190.869141 0)"/>
      </g>
     </g>
    </g>
    <g id="ytick_12">
     <g id="line2d_33">
      <g>
       <use xlink:href="#m6eb4e82550" x="73.795625" y="423.568449" style="stroke: #000000; stroke-width: 0.8"/>
      </g>
     </g>
     <g id="text_30">
      <!-- 1250 -->
      <g transform="translate(28.620625 429.267277) scale(0.15 -0.15)">
       <use xlink:href="#DejaVuSans-31"/>
       <use xlink:href="#DejaVuSans-32" transform="translate(63.623047 0)"/>
       <use xlink:href="#DejaVuSans-35" transform="translate(127.246094 0)"/>
       <use xlink:href="#DejaVuSans-30" transform="translate(190.869141 0)"/>
      </g>
     </g>
    </g>
    <g id="text_31">
     <!-- E3174 [nM] -->
     <g transform="translate(20.877188 570.99748) rotate(-90) scale(0.18 -0.18)">
      <defs>
       <path id="DejaVuSans-Bold-45" d="M 588 4666 
L 3834 4666 
L 3834 3756 
L 1791 3756 
L 1791 2888 
L 3713 2888 
L 3713 1978 
L 1791 1978 
L 1791 909 
L 3903 909 
L 3903 0 
L 588 0 
L 588 4666 
z
" transform="scale(0.015625)"/>
       <path id="DejaVuSans-Bold-33" d="M 2981 2516 
Q 3453 2394 3698 2092 
Q 3944 1791 3944 1325 
Q 3944 631 3412 270 
Q 2881 -91 1863 -91 
Q 1503 -91 1142 -33 
Q 781 25 428 141 
L 428 1069 
Q 766 900 1098 814 
Q 1431 728 1753 728 
Q 2231 728 2486 893 
Q 2741 1059 2741 1369 
Q 2741 1688 2480 1852 
Q 2219 2016 1709 2016 
L 1228 2016 
L 1228 2791 
L 1734 2791 
Q 2188 2791 2409 2933 
Q 2631 3075 2631 3366 
Q 2631 3634 2415 3781 
Q 2200 3928 1806 3928 
Q 1516 3928 1219 3862 
Q 922 3797 628 3669 
L 628 4550 
Q 984 4650 1334 4700 
Q 1684 4750 2022 4750 
Q 2931 4750 3382 4451 
Q 3834 4153 3834 3553 
Q 3834 3144 3618 2883 
Q 3403 2622 2981 2516 
z
" transform="scale(0.015625)"/>
       <path id="DejaVuSans-Bold-31" d="M 750 831 
L 1813 831 
L 1813 3847 
L 722 3622 
L 722 4441 
L 1806 4666 
L 2950 4666 
L 2950 831 
L 4013 831 
L 4013 0 
L 750 0 
L 750 831 
z
" transform="scale(0.015625)"/>
       <path id="DejaVuSans-Bold-37" d="M 428 4666 
L 3944 4666 
L 3944 3988 
L 2125 0 
L 953 0 
L 2675 3781 
L 428 3781 
L 428 4666 
z
" transform="scale(0.015625)"/>
       <path id="DejaVuSans-Bold-34" d="M 2356 3675 
L 1038 1722 
L 2356 1722 
L 2356 3675 
z
M 2156 4666 
L 3494 4666 
L 3494 1722 
L 4159 1722 
L 4159 850 
L 3494 850 
L 3494 0 
L 2356 0 
L 2356 850 
L 288 850 
L 288 1881 
L 2156 4666 
z
" transform="scale(0.015625)"/>
      </defs>
      <use xlink:href="#DejaVuSans-Bold-45"/>
      <use xlink:href="#DejaVuSans-Bold-33" transform="translate(68.310547 0)"/>
      <use xlink:href="#DejaVuSans-Bold-31" transform="translate(137.890625 0)"/>
      <use xlink:href="#DejaVuSans-Bold-37" transform="translate(207.470703 0)"/>
      <use xlink:href="#DejaVuSans-Bold-34" transform="translate(277.050781 0)"/>
      <use xlink:href="#DejaVuSans-Bold-20" transform="translate(346.630859 0)"/>
      <use xlink:href="#DejaVuSans-Bold-5b" transform="translate(381.445312 0)"/>
      <use xlink:href="#DejaVuSans-Bold-6e" transform="translate(427.148438 0)"/>
      <use xlink:href="#DejaVuSans-Bold-4d" transform="translate(498.339844 0)"/>
      <use xlink:href="#DejaVuSans-Bold-5d" transform="translate(597.851562 0)"/>
     </g>
    </g>
   </g>
   <g id="LineCollection_5">
    <path clip-path="url(#pce2bf74f1a)" style="fill: none; stroke: #000000"/>
    <path d="M 98.651989 616.469926 
L 98.651989 593.737825 
" clip-path="url(#pce2bf74f1a)" style="fill: none; stroke: #000000"/>
    <path d="M 105.753807 610.497973 
L 105.753807 582.085575 
" clip-path="url(#pce2bf74f1a)" style="fill: none; stroke: #000000"/>
    <path d="M 112.855625 592.555955 
L 112.855625 544.246152 
" clip-path="url(#pce2bf74f1a)" style="fill: none; stroke: #000000"/>
    <path d="M 119.957443 554.154975 
L 119.957443 491.638922 
" clip-path="url(#pce2bf74f1a)" style="fill: none; stroke: #000000"/>
    <path d="M 134.16108 481.268263 
L 134.16108 404.531472 
" clip-path="url(#pce2bf74f1a)" style="fill: none; stroke: #000000"/>
    <path d="M 148.364716 485.922724 
L 148.364716 403.513043 
" clip-path="url(#pce2bf74f1a)" style="fill: none; stroke: #000000"/>
    <path d="M 162.568352 505.137042 
L 162.568352 453.97802 
" clip-path="url(#pce2bf74f1a)" style="fill: none; stroke: #000000"/>
    <path d="M 176.771989 530.071815 
L 176.771989 501.655833 
" clip-path="url(#pce2bf74f1a)" style="fill: none; stroke: #000000"/>
    <path d="M 205.179261 562.645747 
L 205.179261 531.395037 
" clip-path="url(#pce2bf74f1a)" style="fill: none; stroke: #000000"/>
    <path d="M 233.586534 578.710208 
L 233.586534 544.621156 
" clip-path="url(#pce2bf74f1a)" style="fill: none; stroke: #000000"/>
    <path d="M 261.993807 594.182954 
L 261.993807 565.777849 
" clip-path="url(#pce2bf74f1a)" style="fill: none; stroke: #000000"/>
    <path d="M 432.437443 608.449161 
L 432.437443 588.566309 
" clip-path="url(#pce2bf74f1a)" style="fill: none; stroke: #000000"/>
   </g>
   <g id="LineCollection_6">
    <path clip-path="url(#pce2bf74f1a)" style="fill: none; stroke: #1f77b4"/>
    <path d="M 98.651989 616.837763 
L 98.651989 594.105662 
" clip-path="url(#pce2bf74f1a)" style="fill: none; stroke: #1f77b4"/>
    <path d="M 105.753807 622.643478 
L 105.753807 574.340947 
" clip-path="url(#pce2bf74f1a)" style="fill: none; stroke: #1f77b4"/>
    <path d="M 112.855625 608.463165 
L 112.855625 545.947151 
" clip-path="url(#pce2bf74f1a)" style="fill: none; stroke: #1f77b4"/>
    <path d="M 119.957443 564.202791 
L 119.957443 510.209041 
" clip-path="url(#pce2bf74f1a)" style="fill: none; stroke: #1f77b4"/>
    <path d="M 134.16108 524.140379 
L 134.16108 421.829457 
" clip-path="url(#pce2bf74f1a)" style="fill: none; stroke: #1f77b4"/>
    <path d="M 148.364716 496.065658 
L 148.364716 427.858394 
" clip-path="url(#pce2bf74f1a)" style="fill: none; stroke: #1f77b4"/>
    <path d="M 162.568352 522.795218 
L 162.568352 474.478047 
" clip-path="url(#pce2bf74f1a)" style="fill: none; stroke: #1f77b4"/>
    <path d="M 176.771989 551.80926 
L 176.771989 506.33776 
" clip-path="url(#pce2bf74f1a)" style="fill: none; stroke: #1f77b4"/>
    <path d="M 205.179261 584.294951 
L 205.179261 530.293923 
" clip-path="url(#pce2bf74f1a)" style="fill: none; stroke: #1f77b4"/>
    <path d="M 233.586534 592.151969 
L 233.586534 549.5261 
" clip-path="url(#pce2bf74f1a)" style="fill: none; stroke: #1f77b4"/>
    <path d="M 261.993807 598.542763 
L 261.993807 567.288388 
" clip-path="url(#pce2bf74f1a)" style="fill: none; stroke: #1f77b4"/>
    <path d="M 432.437443 612.398221 
L 432.437443 586.820508 
" clip-path="url(#pce2bf74f1a)" style="fill: none; stroke: #1f77b4"/>
   </g>
   <g id="line2d_34">
    <path d="M 91.55017 605.504169 
L 93.680716 605.453645 
L 95.10108 605.138007 
L 95.811261 604.794514 
L 96.521443 604.289878 
L 97.231625 603.605622 
L 97.941807 602.731361 
L 99.36217 600.407733 
L 100.782534 597.366285 
L 102.202898 593.719973 
L 104.333443 587.437355 
L 112.145443 563.045843 
L 114.275989 557.421938 
L 116.406534 552.539706 
L 117.826898 549.717684 
L 119.247261 547.242267 
L 120.667625 545.105657 
L 122.087989 543.294803 
L 123.508352 541.792902 
L 124.928716 540.580632 
L 126.34908 539.637166 
L 127.769443 538.940968 
L 129.189807 538.470418 
L 130.61017 538.204283 
L 132.030534 538.122059 
L 133.450898 538.204218 
L 135.581443 538.595765 
L 137.711989 539.259208 
L 139.842534 540.144122 
L 142.683261 541.59318 
L 146.23417 543.716192 
L 150.495261 546.546355 
L 171.090534 560.64842 
L 176.771989 564.102669 
L 182.453443 567.287523 
L 188.134898 570.204248 
L 193.816352 572.864316 
L 199.497807 575.284332 
L 205.179261 577.483028 
L 211.570898 579.715806 
L 217.962534 581.718962 
L 225.064352 583.705147 
L 232.16617 585.468639 
L 239.97817 587.183665 
L 248.500352 588.822023 
L 257.732716 590.362906 
L 267.675261 591.792691 
L 278.327989 593.104302 
L 290.40108 594.364599 
L 303.894534 595.543924 
L 318.808352 596.625253 
L 336.562898 597.678863 
L 357.15817 598.663818 
L 381.304352 599.585042 
L 410.421807 600.462593 
L 445.930898 601.29979 
L 446.64108 601.314545 
L 446.64108 601.314545 
" clip-path="url(#pce2bf74f1a)" style="fill: none; stroke: #000000; stroke-width: 2; stroke-linecap: square"/>
   </g>
   <g id="line2d_35">
    <path d="M 91.55017 605.504169 
L 98.651989 605.103875 
L 105.753807 596.291774 
L 112.855625 568.401054 
L 119.957443 522.896949 
L 134.16108 442.899868 
L 148.364716 444.717884 
L 162.568352 479.557531 
L 176.771989 515.863824 
L 205.179261 547.020392 
L 233.586534 561.665682 
L 261.993807 579.980401 
L 432.437443 598.507735 
" clip-path="url(#pce2bf74f1a)" style="fill: none; stroke-dasharray: 3.7,1.6; stroke-dashoffset: 0; stroke: #000000"/>
    <g clip-path="url(#pce2bf74f1a)">
     <use xlink:href="#m3a069fa22e" x="91.55017" y="605.504169" style="stroke: #000000; stroke-linejoin: miter"/>
     <use xlink:href="#m3a069fa22e" x="98.651989" y="605.103875" style="stroke: #000000; stroke-linejoin: miter"/>
     <use xlink:href="#m3a069fa22e" x="105.753807" y="596.291774" style="stroke: #000000; stroke-linejoin: miter"/>
     <use xlink:href="#m3a069fa22e" x="112.855625" y="568.401054" style="stroke: #000000; stroke-linejoin: miter"/>
     <use xlink:href="#m3a069fa22e" x="119.957443" y="522.896949" style="stroke: #000000; stroke-linejoin: miter"/>
     <use xlink:href="#m3a069fa22e" x="134.16108" y="442.899868" style="stroke: #000000; stroke-linejoin: miter"/>
     <use xlink:href="#m3a069fa22e" x="148.364716" y="444.717884" style="stroke: #000000; stroke-linejoin: miter"/>
     <use xlink:href="#m3a069fa22e" x="162.568352" y="479.557531" style="stroke: #000000; stroke-linejoin: miter"/>
     <use xlink:href="#m3a069fa22e" x="176.771989" y="515.863824" style="stroke: #000000; stroke-linejoin: miter"/>
     <use xlink:href="#m3a069fa22e" x="205.179261" y="547.020392" style="stroke: #000000; stroke-linejoin: miter"/>
     <use xlink:href="#m3a069fa22e" x="233.586534" y="561.665682" style="stroke: #000000; stroke-linejoin: miter"/>
     <use xlink:href="#m3a069fa22e" x="261.993807" y="579.980401" style="stroke: #000000; stroke-linejoin: miter"/>
     <use xlink:href="#m3a069fa22e" x="432.437443" y="598.507735" style="stroke: #000000; stroke-linejoin: miter"/>
    </g>
   </g>
   <g id="line2d_36">
    <path d="M 91.55017 605.504169 
L 98.651989 605.471713 
L 105.753807 598.492212 
L 112.855625 577.205158 
L 119.957443 537.205916 
L 134.16108 472.984918 
L 148.364716 461.962026 
L 162.568352 498.636633 
L 176.771989 529.07351 
L 205.179261 557.294437 
L 233.586534 570.839034 
L 261.993807 582.915576 
L 432.437443 599.609365 
" clip-path="url(#pce2bf74f1a)" style="fill: none; stroke-dasharray: 3.7,1.6; stroke-dashoffset: 0; stroke: #1f77b4"/>
    <g clip-path="url(#pce2bf74f1a)">
     <use xlink:href="#mbb78597751" x="91.55017" y="605.504169" style="fill: #1f77b4; stroke: #000000; stroke-linejoin: miter"/>
     <use xlink:href="#mbb78597751" x="98.651989" y="605.471713" style="fill: #1f77b4; stroke: #000000; stroke-linejoin: miter"/>
     <use xlink:href="#mbb78597751" x="105.753807" y="598.492212" style="fill: #1f77b4; stroke: #000000; stroke-linejoin: miter"/>
     <use xlink:href="#mbb78597751" x="112.855625" y="577.205158" style="fill: #1f77b4; stroke: #000000; stroke-linejoin: miter"/>
     <use xlink:href="#mbb78597751" x="119.957443" y="537.205916" style="fill: #1f77b4; stroke: #000000; stroke-linejoin: miter"/>
     <use xlink:href="#mbb78597751" x="134.16108" y="472.984918" style="fill: #1f77b4; stroke: #000000; stroke-linejoin: miter"/>
     <use xlink:href="#mbb78597751" x="148.364716" y="461.962026" style="fill: #1f77b4; stroke: #000000; stroke-linejoin: miter"/>
     <use xlink:href="#mbb78597751" x="162.568352" y="498.636633" style="fill: #1f77b4; stroke: #000000; stroke-linejoin: miter"/>
     <use xlink:href="#mbb78597751" x="176.771989" y="529.07351" style="fill: #1f77b4; stroke: #000000; stroke-linejoin: miter"/>
     <use xlink:href="#mbb78597751" x="205.179261" y="557.294437" style="fill: #1f77b4; stroke: #000000; stroke-linejoin: miter"/>
     <use xlink:href="#mbb78597751" x="233.586534" y="570.839034" style="fill: #1f77b4; stroke: #000000; stroke-linejoin: miter"/>
     <use xlink:href="#mbb78597751" x="261.993807" y="582.915576" style="fill: #1f77b4; stroke: #000000; stroke-linejoin: miter"/>
     <use xlink:href="#mbb78597751" x="432.437443" y="599.609365" style="fill: #1f77b4; stroke: #000000; stroke-linejoin: miter"/>
    </g>
   </g>
   <g id="patch_9">
    <path d="M 73.795625 633.6 
L 73.795625 392.556522 
" style="fill: none; stroke: #000000; stroke-width: 0.8; stroke-linejoin: miter; stroke-linecap: square"/>
   </g>
   <g id="patch_10">
    <path d="M 464.395625 633.6 
L 464.395625 392.556522 
" style="fill: none; stroke: #000000; stroke-width: 0.8; stroke-linejoin: miter; stroke-linecap: square"/>
   </g>
   <g id="patch_11">
    <path d="M 73.795625 633.6 
L 464.395625 633.6 
" style="fill: none; stroke: #000000; stroke-width: 0.8; stroke-linejoin: miter; stroke-linecap: square"/>
   </g>
   <g id="patch_12">
    <path d="M 73.795625 392.556522 
L 464.395625 392.556522 
" style="fill: none; stroke: #000000; stroke-width: 0.8; stroke-linejoin: miter; stroke-linecap: square"/>
   </g>
   <g id="legend_2">
    <g id="patch_13">
     <path d="M 324.768125 434.184022 
L 458.795625 434.184022 
Q 460.395625 434.184022 460.395625 432.584022 
L 460.395625 398.156522 
Q 460.395625 396.556522 458.795625 396.556522 
L 324.768125 396.556522 
Q 323.168125 396.556522 323.168125 398.156522 
L 323.168125 432.584022 
Q 323.168125 434.184022 324.768125 434.184022 
z
" style="fill: #ffffff; opacity: 0.8; stroke: #cccccc; stroke-linejoin: miter"/>
    </g>
    <g id="line2d_37">
     <path d="M 326.368125 403.035272 
L 342.368125 403.035272 
" style="fill: none; stroke: #000000; stroke-width: 2; stroke-linecap: square"/>
    </g>
    <g id="line2d_38"/>
    <g id="text_32">
     <!-- Sim 50 mg -->
     <g transform="translate(348.768125 405.835272) scale(0.08 -0.08)">
      <use xlink:href="#DejaVuSans-53"/>
      <use xlink:href="#DejaVuSans-69" transform="translate(63.476562 0)"/>
      <use xlink:href="#DejaVuSans-6d" transform="translate(91.259766 0)"/>
      <use xlink:href="#DejaVuSans-20" transform="translate(188.671875 0)"/>
      <use xlink:href="#DejaVuSans-35" transform="translate(220.458984 0)"/>
      <use xlink:href="#DejaVuSans-30" transform="translate(284.082031 0)"/>
      <use xlink:href="#DejaVuSans-20" transform="translate(347.705078 0)"/>
      <use xlink:href="#DejaVuSans-6d" transform="translate(379.492188 0)"/>
      <use xlink:href="#DejaVuSans-67" transform="translate(476.904297 0)"/>
     </g>
    </g>
    <g id="LineCollection_7">
     <path d="M 334.368125 418.777772 
L 334.368125 410.777772 
" style="fill: none; stroke: #000000"/>
    </g>
    <g id="line2d_39">
     <path d="M 326.368125 414.777772 
L 342.368125 414.777772 
" style="fill: none; stroke-dasharray: 3.7,1.6; stroke-dashoffset: 0; stroke: #000000"/>
    </g>
    <g id="line2d_40">
     <g>
      <use xlink:href="#m3a069fa22e" x="334.368125" y="414.777772" style="stroke: #000000; stroke-linejoin: miter"/>
     </g>
    </g>
    <g id="text_33">
     <!-- control 50 mg±SD (n=15) -->
     <g transform="translate(348.768125 417.577772) scale(0.08 -0.08)">
      <use xlink:href="#DejaVuSans-63"/>
      <use xlink:href="#DejaVuSans-6f" transform="translate(54.980469 0)"/>
      <use xlink:href="#DejaVuSans-6e" transform="translate(116.162109 0)"/>
      <use xlink:href="#DejaVuSans-74" transform="translate(179.541016 0)"/>
      <use xlink:href="#DejaVuSans-72" transform="translate(218.75 0)"/>
      <use xlink:href="#DejaVuSans-6f" transform="translate(257.613281 0)"/>
      <use xlink:href="#DejaVuSans-6c" transform="translate(318.794922 0)"/>
      <use xlink:href="#DejaVuSans-20" transform="translate(346.578125 0)"/>
      <use xlink:href="#DejaVuSans-35" transform="translate(378.365234 0)"/>
      <use xlink:href="#DejaVuSans-30" transform="translate(441.988281 0)"/>
      <use xlink:href="#DejaVuSans-20" transform="translate(505.611328 0)"/>
      <use xlink:href="#DejaVuSans-6d" transform="translate(537.398438 0)"/>
      <use xlink:href="#DejaVuSans-67" transform="translate(634.810547 0)"/>
      <use xlink:href="#DejaVuSans-b1" transform="translate(698.287109 0)"/>
      <use xlink:href="#DejaVuSans-53" transform="translate(782.076172 0)"/>
      <use xlink:href="#DejaVuSans-44" transform="translate(845.552734 0)"/>
      <use xlink:href="#DejaVuSans-20" transform="translate(922.554688 0)"/>
      <use xlink:href="#DejaVuSans-28" transform="translate(954.341797 0)"/>
      <use xlink:href="#DejaVuSans-6e" transform="translate(993.355469 0)"/>
      <use xlink:href="#DejaVuSans-3d" transform="translate(1056.734375 0)"/>
      <use xlink:href="#DejaVuSans-31" transform="translate(1140.523438 0)"/>
      <use xlink:href="#DejaVuSans-35" transform="translate(1204.146484 0)"/>
      <use xlink:href="#DejaVuSans-29" transform="translate(1267.769531 0)"/>
     </g>
    </g>
    <g id="LineCollection_8">
     <path d="M 334.368125 430.520272 
L 334.368125 422.520272 
" style="fill: none; stroke: #1f77b4"/>
    </g>
    <g id="line2d_41">
     <path d="M 326.368125 426.520272 
L 342.368125 426.520272 
" style="fill: none; stroke-dasharray: 3.7,1.6; stroke-dashoffset: 0; stroke: #1f77b4"/>
    </g>
    <g id="line2d_42">
     <g>
      <use xlink:href="#mbb78597751" x="334.368125" y="426.520272" style="fill: #1f77b4; stroke: #000000; stroke-linejoin: miter"/>
     </g>
    </g>
    <g id="text_34">
     <!-- ginseng 50 mg±SD (n=15) -->
     <g transform="translate(348.768125 429.320272) scale(0.08 -0.08)">
      <use xlink:href="#DejaVuSans-67"/>
      <use xlink:href="#DejaVuSans-69" transform="translate(63.476562 0)"/>
      <use xlink:href="#DejaVuSans-6e" transform="translate(91.259766 0)"/>
      <use xlink:href="#DejaVuSans-73" transform="translate(154.638672 0)"/>
      <use xlink:href="#DejaVuSans-65" transform="translate(206.738281 0)"/>
      <use xlink:href="#DejaVuSans-6e" transform="translate(268.261719 0)"/>
      <use xlink:href="#DejaVuSans-67" transform="translate(331.640625 0)"/>
      <use xlink:href="#DejaVuSans-20" transform="translate(395.117188 0)"/>
      <use xlink:href="#DejaVuSans-35" transform="translate(426.904297 0)"/>
      <use xlink:href="#DejaVuSans-30" transform="translate(490.527344 0)"/>
      <use xlink:href="#DejaVuSans-20" transform="translate(554.150391 0)"/>
      <use xlink:href="#DejaVuSans-6d" transform="translate(585.9375 0)"/>
      <use xlink:href="#DejaVuSans-67" transform="translate(683.349609 0)"/>
      <use xlink:href="#DejaVuSans-b1" transform="translate(746.826172 0)"/>
      <use xlink:href="#DejaVuSans-53" transform="translate(830.615234 0)"/>
      <use xlink:href="#DejaVuSans-44" transform="translate(894.091797 0)"/>
      <use xlink:href="#DejaVuSans-20" transform="translate(971.09375 0)"/>
      <use xlink:href="#DejaVuSans-28" transform="translate(1002.880859 0)"/>
      <use xlink:href="#DejaVuSans-6e" transform="translate(1041.894531 0)"/>
      <use xlink:href="#DejaVuSans-3d" transform="translate(1105.273438 0)"/>
      <use xlink:href="#DejaVuSans-31" transform="translate(1189.0625 0)"/>
      <use xlink:href="#DejaVuSans-35" transform="translate(1252.685547 0)"/>
      <use xlink:href="#DejaVuSans-29" transform="translate(1316.308594 0)"/>
     </g>
    </g>
   </g>
  </g>
  <g id="text_35">
   <!-- Kim2016 (healthy) -->
   <g transform="translate(132.113984 26.196094) scale(0.25 -0.25)">
    <defs>
     <path id="DejaVuSans-Bold-4b" d="M 588 4666 
L 1791 4666 
L 1791 2963 
L 3525 4666 
L 4922 4666 
L 2675 2456 
L 5153 0 
L 3647 0 
L 1791 1838 
L 1791 0 
L 588 0 
L 588 4666 
z
" transform="scale(0.015625)"/>
     <path id="DejaVuSans-Bold-32" d="M 1844 884 
L 3897 884 
L 3897 0 
L 506 0 
L 506 884 
L 2209 2388 
Q 2438 2594 2547 2791 
Q 2656 2988 2656 3200 
Q 2656 3528 2436 3728 
Q 2216 3928 1850 3928 
Q 1569 3928 1234 3808 
Q 900 3688 519 3450 
L 519 4475 
Q 925 4609 1322 4679 
Q 1719 4750 2100 4750 
Q 2938 4750 3402 4381 
Q 3866 4013 3866 3353 
Q 3866 2972 3669 2642 
Q 3472 2313 2841 1759 
L 1844 884 
z
" transform="scale(0.015625)"/>
     <path id="DejaVuSans-Bold-30" d="M 2944 2338 
Q 2944 3213 2780 3570 
Q 2616 3928 2228 3928 
Q 1841 3928 1675 3570 
Q 1509 3213 1509 2338 
Q 1509 1453 1675 1090 
Q 1841 728 2228 728 
Q 2613 728 2778 1090 
Q 2944 1453 2944 2338 
z
M 4147 2328 
Q 4147 1169 3647 539 
Q 3147 -91 2228 -91 
Q 1306 -91 806 539 
Q 306 1169 306 2328 
Q 306 3491 806 4120 
Q 1306 4750 2228 4750 
Q 3147 4750 3647 4120 
Q 4147 3491 4147 2328 
z
" transform="scale(0.015625)"/>
     <path id="DejaVuSans-Bold-36" d="M 2316 2303 
Q 2000 2303 1842 2098 
Q 1684 1894 1684 1484 
Q 1684 1075 1842 870 
Q 2000 666 2316 666 
Q 2634 666 2792 870 
Q 2950 1075 2950 1484 
Q 2950 1894 2792 2098 
Q 2634 2303 2316 2303 
z
M 3803 4544 
L 3803 3681 
Q 3506 3822 3243 3889 
Q 2981 3956 2731 3956 
Q 2194 3956 1894 3657 
Q 1594 3359 1544 2772 
Q 1750 2925 1990 3001 
Q 2231 3078 2516 3078 
Q 3231 3078 3670 2659 
Q 4109 2241 4109 1563 
Q 4109 813 3618 361 
Q 3128 -91 2303 -91 
Q 1394 -91 895 523 
Q 397 1138 397 2266 
Q 397 3422 980 4083 
Q 1563 4744 2578 4744 
Q 2900 4744 3203 4694 
Q 3506 4644 3803 4544 
z
" transform="scale(0.015625)"/>
     <path id="DejaVuSans-Bold-28" d="M 2413 -844 
L 1484 -844 
Q 1006 -72 778 623 
Q 550 1319 550 2003 
Q 550 2688 779 3389 
Q 1009 4091 1484 4856 
L 2413 4856 
Q 2013 4116 1813 3408 
Q 1613 2700 1613 2009 
Q 1613 1319 1811 609 
Q 2009 -100 2413 -844 
z
" transform="scale(0.015625)"/>
     <path id="DejaVuSans-Bold-6c" d="M 538 4863 
L 1656 4863 
L 1656 0 
L 538 0 
L 538 4863 
z
" transform="scale(0.015625)"/>
     <path id="DejaVuSans-Bold-79" d="M 78 3500 
L 1197 3500 
L 2138 1125 
L 2938 3500 
L 4056 3500 
L 2584 -331 
Q 2363 -916 2067 -1148 
Q 1772 -1381 1288 -1381 
L 641 -1381 
L 641 -647 
L 991 -647 
Q 1275 -647 1404 -556 
Q 1534 -466 1606 -231 
L 1638 -134 
L 78 3500 
z
" transform="scale(0.015625)"/>
     <path id="DejaVuSans-Bold-29" d="M 513 -844 
Q 913 -100 1113 609 
Q 1313 1319 1313 2009 
Q 1313 2700 1113 3408 
Q 913 4116 513 4856 
L 1441 4856 
Q 1916 4091 2145 3389 
Q 2375 2688 2375 2003 
Q 2375 1319 2147 623 
Q 1919 -72 1441 -844 
L 513 -844 
z
" transform="scale(0.015625)"/>
    </defs>
    <use xlink:href="#DejaVuSans-Bold-4b"/>
    <use xlink:href="#DejaVuSans-Bold-69" transform="translate(77.490234 0)"/>
    <use xlink:href="#DejaVuSans-Bold-6d" transform="translate(111.767578 0)"/>
    <use xlink:href="#DejaVuSans-Bold-32" transform="translate(215.966797 0)"/>
    <use xlink:href="#DejaVuSans-Bold-30" transform="translate(285.546875 0)"/>
    <use xlink:href="#DejaVuSans-Bold-31" transform="translate(355.126953 0)"/>
    <use xlink:href="#DejaVuSans-Bold-36" transform="translate(424.707031 0)"/>
    <use xlink:href="#DejaVuSans-Bold-20" transform="translate(494.287109 0)"/>
    <use xlink:href="#DejaVuSans-Bold-28" transform="translate(529.101562 0)"/>
    <use xlink:href="#DejaVuSans-Bold-68" transform="translate(574.804688 0)"/>
    <use xlink:href="#DejaVuSans-Bold-65" transform="translate(645.996094 0)"/>
    <use xlink:href="#DejaVuSans-Bold-61" transform="translate(713.818359 0)"/>
    <use xlink:href="#DejaVuSans-Bold-6c" transform="translate(781.298828 0)"/>
    <use xlink:href="#DejaVuSans-Bold-74" transform="translate(815.576172 0)"/>
    <use xlink:href="#DejaVuSans-Bold-68" transform="translate(863.378906 0)"/>
    <use xlink:href="#DejaVuSans-Bold-79" transform="translate(934.570312 0)"/>
    <use xlink:href="#DejaVuSans-Bold-29" transform="translate(999.755859 0)"/>
   </g>
  </g>
 </g>
 <defs>
  <clipPath id="p24408d0a9a">
   <rect x="73.795625" y="79.2" width="390.6" height="241.043478"/>
  </clipPath>
  <clipPath id="pce2bf74f1a">
   <rect x="73.795625" y="392.556522" width="390.6" height="241.043478"/>
  </clipPath>
 </defs>
</svg>
