<?xml version="1.0" encoding="utf-8" standalone="no"?>
<!DOCTYPE svg PUBLIC "-//W3C//DTD SVG 1.1//EN"
  "http://www.w3.org/Graphics/SVG/1.1/DTD/svg11.dtd">
<svg xmlns:xlink="http://www.w3.org/1999/xlink" width="471.595625pt" height="683.737812pt" viewBox="0 0 471.595625 683.737812" xmlns="http://www.w3.org/2000/svg" version="1.1">
 <metadata>
  <rdf:RDF xmlns:dc="http://purl.org/dc/elements/1.1/" xmlns:cc="http://creativecommons.org/ns#" xmlns:rdf="http://www.w3.org/1999/02/22-rdf-syntax-ns#">
   <cc:Work>
    <dc:type rdf:resource="http://purl.org/dc/dcmitype/StillImage"/>
    <dc:date>2025-12-03T15:37:39.566525</dc:date>
    <dc:format>image/svg+xml</dc:format>
    <dc:creator>
     <cc:Agent>
      <dc:title>Matplotlib v3.10.7, https://matplotlib.org/</dc:title>
     </cc:Agent>
    </dc:creator>
   </cc:Work>
  </rdf:RDF>
 </metadata>
 <defs>
  <style type="text/css">*{stroke-linejoin: round; stroke-linecap: butt}</style>
 </defs>
 <g id="figure_1">
  <g id="patch_1">
   <path d="M 0 683.737812 
L 471.595625 683.737812 
L 471.595625 0 
L 0 0 
z
" style="fill: #ffffff"/>
  </g>
  <g id="axes_1">
   <g id="patch_2">
    <path d="M 73.795625 320.243478 
L 464.395625 320.243478 
L 464.395625 79.2 
L 73.795625 79.2 
z
" style="fill: #ffffff"/>
   </g>
   <g id="matplotlib.axis_1">
    <g id="xtick_1">
     <g id="line2d_1">
      <defs>
       <path id="m8d44b0df28" d="M 0 0 
L 0 3.5 
" style="stroke: #000000; stroke-width: 0.8"/>
      </defs>
      <g>
       <use xlink:href="#m8d44b0df28" x="91.55017" y="320.243478" style="stroke: #000000; stroke-width: 0.8"/>
      </g>
     </g>
     <g id="text_1">
      <!-- 0 -->
      <g transform="translate(86.778295 338.641135) scale(0.15 -0.15)">
       <defs>
        <path id="DejaVuSans-30" d="M 2034 4250 
Q 1547 4250 1301 3770 
Q 1056 3291 1056 2328 
Q 1056 1369 1301 889 
Q 1547 409 2034 409 
Q 2525 409 2770 889 
Q 3016 1369 3016 2328 
Q 3016 3291 2770 3770 
Q 2525 4250 2034 4250 
z
M 2034 4750 
Q 2819 4750 3233 4129 
Q 3647 3509 3647 2328 
Q 3647 1150 3233 529 
Q 2819 -91 2034 -91 
Q 1250 -91 836 529 
Q 422 1150 422 2328 
Q 422 3509 836 4129 
Q 1250 4750 2034 4750 
z
" transform="scale(0.015625)"/>
       </defs>
       <use xlink:href="#DejaVuSans-30"/>
      </g>
     </g>
    </g>
    <g id="xtick_2">
     <g id="line2d_2">
      <g>
       <use xlink:href="#m8d44b0df28" x="162.568352" y="320.243478" style="stroke: #000000; stroke-width: 0.8"/>
      </g>
     </g>
     <g id="text_2">
      <!-- 5 -->
      <g transform="translate(157.796477 338.641135) scale(0.15 -0.15)">
       <defs>
        <path id="DejaVuSans-35" d="M 691 4666 
L 3169 4666 
L 3169 4134 
L 1269 4134 
L 1269 2991 
Q 1406 3038 1543 3061 
Q 1681 3084 1819 3084 
Q 2600 3084 3056 2656 
Q 3513 2228 3513 1497 
Q 3513 744 3044 326 
Q 2575 -91 1722 -91 
Q 1428 -91 1123 -41 
Q 819 9 494 109 
L 494 744 
Q 775 591 1075 516 
Q 1375 441 1709 441 
Q 2250 441 2565 725 
Q 2881 1009 2881 1497 
Q 2881 1984 2565 2268 
Q 2250 2553 1709 2553 
Q 1456 2553 1204 2497 
Q 953 2441 691 2322 
L 691 4666 
z
" transform="scale(0.015625)"/>
       </defs>
       <use xlink:href="#DejaVuSans-35"/>
      </g>
     </g>
    </g>
    <g id="xtick_3">
     <g id="line2d_3">
      <g>
       <use xlink:href="#m8d44b0df28" x="233.586534" y="320.243478" style="stroke: #000000; stroke-width: 0.8"/>
      </g>
     </g>
     <g id="text_3">
      <!-- 10 -->
      <g transform="translate(224.042784 338.641135) scale(0.15 -0.15)">
       <defs>
        <path id="DejaVuSans-31" d="M 794 531 
L 1825 531 
L 1825 4091 
L 703 3866 
L 703 4441 
L 1819 4666 
L 2450 4666 
L 2450 531 
L 3481 531 
L 3481 0 
L 794 0 
L 794 531 
z
" transform="scale(0.015625)"/>
       </defs>
       <use xlink:href="#DejaVuSans-31"/>
       <use xlink:href="#DejaVuSans-30" transform="translate(63.623047 0)"/>
      </g>
     </g>
    </g>
    <g id="xtick_4">
     <g id="line2d_4">
      <g>
       <use xlink:href="#m8d44b0df28" x="304.604716" y="320.243478" style="stroke: #000000; stroke-width: 0.8"/>
      </g>
     </g>
     <g id="text_4">
      <!-- 15 -->
      <g transform="translate(295.060966 338.641135) scale(0.15 -0.15)">
       <use xlink:href="#DejaVuSans-31"/>
       <use xlink:href="#DejaVuSans-35" transform="translate(63.623047 0)"/>
      </g>
     </g>
    </g>
    <g id="xtick_5">
     <g id="line2d_5">
      <g>
       <use xlink:href="#m8d44b0df28" x="375.622898" y="320.243478" style="stroke: #000000; stroke-width: 0.8"/>
      </g>
     </g>
     <g id="text_5">
      <!-- 20 -->
      <g transform="translate(366.079148 338.641135) scale(0.15 -0.15)">
       <defs>
        <path id="DejaVuSans-32" d="M 1228 531 
L 3431 531 
L 3431 0 
L 469 0 
L 469 531 
Q 828 903 1448 1529 
Q 2069 2156 2228 2338 
Q 2531 2678 2651 2914 
Q 2772 3150 2772 3378 
Q 2772 3750 2511 3984 
Q 2250 4219 1831 4219 
Q 1534 4219 1204 4116 
Q 875 4013 500 3803 
L 500 4441 
Q 881 4594 1212 4672 
Q 1544 4750 1819 4750 
Q 2544 4750 2975 4387 
Q 3406 4025 3406 3419 
Q 3406 3131 3298 2873 
Q 3191 2616 2906 2266 
Q 2828 2175 2409 1742 
Q 1991 1309 1228 531 
z
" transform="scale(0.015625)"/>
       </defs>
       <use xlink:href="#DejaVuSans-32"/>
       <use xlink:href="#DejaVuSans-30" transform="translate(63.623047 0)"/>
      </g>
     </g>
    </g>
    <g id="xtick_6">
     <g id="line2d_6">
      <g>
       <use xlink:href="#m8d44b0df28" x="446.64108" y="320.243478" style="stroke: #000000; stroke-width: 0.8"/>
      </g>
     </g>
     <g id="text_6">
      <!-- 25 -->
      <g transform="translate(437.09733 338.641135) scale(0.15 -0.15)">
       <use xlink:href="#DejaVuSans-32"/>
       <use xlink:href="#DejaVuSans-35" transform="translate(63.623047 0)"/>
      </g>
     </g>
    </g>
    <g id="text_7">
     <!-- Time [hr] -->
     <g transform="translate(222.183125 359.437853) scale(0.18 -0.18)">
      <defs>
       <path id="DejaVuSans-Bold-54" d="M 31 4666 
L 4331 4666 
L 4331 3756 
L 2784 3756 
L 2784 0 
L 1581 0 
L 1581 3756 
L 31 3756 
L 31 4666 
z
" transform="scale(0.015625)"/>
       <path id="DejaVuSans-Bold-69" d="M 538 3500 
L 1656 3500 
L 1656 0 
L 538 0 
L 538 3500 
z
M 538 4863 
L 1656 4863 
L 1656 3950 
L 538 3950 
L 538 4863 
z
" transform="scale(0.015625)"/>
       <path id="DejaVuSans-Bold-6d" d="M 3781 2919 
Q 3994 3244 4286 3414 
Q 4578 3584 4928 3584 
Q 5531 3584 5847 3212 
Q 6163 2841 6163 2131 
L 6163 0 
L 5038 0 
L 5038 1825 
Q 5041 1866 5042 1909 
Q 5044 1953 5044 2034 
Q 5044 2406 4934 2573 
Q 4825 2741 4581 2741 
Q 4263 2741 4089 2478 
Q 3916 2216 3909 1719 
L 3909 0 
L 2784 0 
L 2784 1825 
Q 2784 2406 2684 2573 
Q 2584 2741 2328 2741 
Q 2006 2741 1831 2477 
Q 1656 2213 1656 1722 
L 1656 0 
L 531 0 
L 531 3500 
L 1656 3500 
L 1656 2988 
Q 1863 3284 2130 3434 
Q 2397 3584 2719 3584 
Q 3081 3584 3359 3409 
Q 3638 3234 3781 2919 
z
" transform="scale(0.015625)"/>
       <path id="DejaVuSans-Bold-65" d="M 4031 1759 
L 4031 1441 
L 1416 1441 
Q 1456 1047 1700 850 
Q 1944 653 2381 653 
Q 2734 653 3104 758 
Q 3475 863 3866 1075 
L 3866 213 
Q 3469 63 3072 -14 
Q 2675 -91 2278 -91 
Q 1328 -91 801 392 
Q 275 875 275 1747 
Q 275 2603 792 3093 
Q 1309 3584 2216 3584 
Q 3041 3584 3536 3087 
Q 4031 2591 4031 1759 
z
M 2881 2131 
Q 2881 2450 2695 2645 
Q 2509 2841 2209 2841 
Q 1884 2841 1681 2658 
Q 1478 2475 1428 2131 
L 2881 2131 
z
" transform="scale(0.015625)"/>
       <path id="DejaVuSans-Bold-20" transform="scale(0.015625)"/>
       <path id="DejaVuSans-Bold-5b" d="M 550 4863 
L 2491 4863 
L 2491 4159 
L 1613 4159 
L 1613 -141 
L 2491 -141 
L 2491 -844 
L 550 -844 
L 550 4863 
z
" transform="scale(0.015625)"/>
       <path id="DejaVuSans-Bold-68" d="M 4056 2131 
L 4056 0 
L 2931 0 
L 2931 347 
L 2931 1625 
Q 2931 2084 2911 2256 
Q 2891 2428 2841 2509 
Q 2775 2619 2662 2680 
Q 2550 2741 2406 2741 
Q 2056 2741 1856 2470 
Q 1656 2200 1656 1722 
L 1656 0 
L 538 0 
L 538 4863 
L 1656 4863 
L 1656 2988 
Q 1909 3294 2193 3439 
Q 2478 3584 2822 3584 
Q 3428 3584 3742 3212 
Q 4056 2841 4056 2131 
z
" transform="scale(0.015625)"/>
       <path id="DejaVuSans-Bold-72" d="M 3138 2547 
Q 2991 2616 2845 2648 
Q 2700 2681 2553 2681 
Q 2122 2681 1889 2404 
Q 1656 2128 1656 1613 
L 1656 0 
L 538 0 
L 538 3500 
L 1656 3500 
L 1656 2925 
Q 1872 3269 2151 3426 
Q 2431 3584 2822 3584 
Q 2878 3584 2943 3579 
Q 3009 3575 3134 3559 
L 3138 2547 
z
" transform="scale(0.015625)"/>
       <path id="DejaVuSans-Bold-5d" d="M 2375 -844 
L 434 -844 
L 434 -141 
L 1313 -141 
L 1313 4159 
L 434 4159 
L 434 4863 
L 2375 4863 
L 2375 -844 
z
" transform="scale(0.015625)"/>
      </defs>
      <use xlink:href="#DejaVuSans-Bold-54"/>
      <use xlink:href="#DejaVuSans-Bold-69" transform="translate(68.212891 0)"/>
      <use xlink:href="#DejaVuSans-Bold-6d" transform="translate(102.490234 0)"/>
      <use xlink:href="#DejaVuSans-Bold-65" transform="translate(206.689453 0)"/>
      <use xlink:href="#DejaVuSans-Bold-20" transform="translate(274.511719 0)"/>
      <use xlink:href="#DejaVuSans-Bold-5b" transform="translate(309.326172 0)"/>
      <use xlink:href="#DejaVuSans-Bold-68" transform="translate(355.029297 0)"/>
      <use xlink:href="#DejaVuSans-Bold-72" transform="translate(426.220703 0)"/>
      <use xlink:href="#DejaVuSans-Bold-5d" transform="translate(475.537109 0)"/>
     </g>
    </g>
   </g>
   <g id="matplotlib.axis_2">
    <g id="ytick_1">
     <g id="line2d_7">
      <defs>
       <path id="m65f9814ee9" d="M 0 0 
L -3.5 0 
" style="stroke: #000000; stroke-width: 0.8"/>
      </defs>
      <g>
       <use xlink:href="#m65f9814ee9" x="73.795625" y="283.929872" style="stroke: #000000; stroke-width: 0.8"/>
      </g>
     </g>
     <g id="text_8">
      <!-- 0 -->
      <g transform="translate(57.251875 289.6287) scale(0.15 -0.15)">
       <use xlink:href="#DejaVuSans-30"/>
      </g>
     </g>
    </g>
    <g id="ytick_2">
     <g id="line2d_8">
      <g>
       <use xlink:href="#m65f9814ee9" x="73.795625" y="246.798318" style="stroke: #000000; stroke-width: 0.8"/>
      </g>
     </g>
     <g id="text_9">
      <!-- 200 -->
      <g transform="translate(38.164375 252.497147) scale(0.15 -0.15)">
       <use xlink:href="#DejaVuSans-32"/>
       <use xlink:href="#DejaVuSans-30" transform="translate(63.623047 0)"/>
       <use xlink:href="#DejaVuSans-30" transform="translate(127.246094 0)"/>
      </g>
     </g>
    </g>
    <g id="ytick_3">
     <g id="line2d_9">
      <g>
       <use xlink:href="#m65f9814ee9" x="73.795625" y="209.666765" style="stroke: #000000; stroke-width: 0.8"/>
      </g>
     </g>
     <g id="text_10">
      <!-- 400 -->
      <g transform="translate(38.164375 215.365593) scale(0.15 -0.15)">
       <defs>
        <path id="DejaVuSans-34" d="M 2419 4116 
L 825 1625 
L 2419 1625 
L 2419 4116 
z
M 2253 4666 
L 3047 4666 
L 3047 1625 
L 3713 1625 
L 3713 1100 
L 3047 1100 
L 3047 0 
L 2419 0 
L 2419 1100 
L 313 1100 
L 313 1709 
L 2253 4666 
z
" transform="scale(0.015625)"/>
       </defs>
       <use xlink:href="#DejaVuSans-34"/>
       <use xlink:href="#DejaVuSans-30" transform="translate(63.623047 0)"/>
       <use xlink:href="#DejaVuSans-30" transform="translate(127.246094 0)"/>
      </g>
     </g>
    </g>
    <g id="ytick_4">
     <g id="line2d_10">
      <g>
       <use xlink:href="#m65f9814ee9" x="73.795625" y="172.535211" style="stroke: #000000; stroke-width: 0.8"/>
      </g>
     </g>
     <g id="text_11">
      <!-- 600 -->
      <g transform="translate(38.164375 178.234039) scale(0.15 -0.15)">
       <defs>
        <path id="DejaVuSans-36" d="M 2113 2584 
Q 1688 2584 1439 2293 
Q 1191 2003 1191 1497 
Q 1191 994 1439 701 
Q 1688 409 2113 409 
Q 2538 409 2786 701 
Q 3034 994 3034 1497 
Q 3034 2003 2786 2293 
Q 2538 2584 2113 2584 
z
M 3366 4563 
L 3366 3988 
Q 3128 4100 2886 4159 
Q 2644 4219 2406 4219 
Q 1781 4219 1451 3797 
Q 1122 3375 1075 2522 
Q 1259 2794 1537 2939 
Q 1816 3084 2150 3084 
Q 2853 3084 3261 2657 
Q 3669 2231 3669 1497 
Q 3669 778 3244 343 
Q 2819 -91 2113 -91 
Q 1303 -91 875 529 
Q 447 1150 447 2328 
Q 447 3434 972 4092 
Q 1497 4750 2381 4750 
Q 2619 4750 2861 4703 
Q 3103 4656 3366 4563 
z
" transform="scale(0.015625)"/>
       </defs>
       <use xlink:href="#DejaVuSans-36"/>
       <use xlink:href="#DejaVuSans-30" transform="translate(63.623047 0)"/>
       <use xlink:href="#DejaVuSans-30" transform="translate(127.246094 0)"/>
      </g>
     </g>
    </g>
    <g id="ytick_5">
     <g id="line2d_11">
      <g>
       <use xlink:href="#m65f9814ee9" x="73.795625" y="135.403657" style="stroke: #000000; stroke-width: 0.8"/>
      </g>
     </g>
     <g id="text_12">
      <!-- 800 -->
      <g transform="translate(38.164375 141.102485) scale(0.15 -0.15)">
       <defs>
        <path id="DejaVuSans-38" d="M 2034 2216 
Q 1584 2216 1326 1975 
Q 1069 1734 1069 1313 
Q 1069 891 1326 650 
Q 1584 409 2034 409 
Q 2484 409 2743 651 
Q 3003 894 3003 1313 
Q 3003 1734 2745 1975 
Q 2488 2216 2034 2216 
z
M 1403 2484 
Q 997 2584 770 2862 
Q 544 3141 544 3541 
Q 544 4100 942 4425 
Q 1341 4750 2034 4750 
Q 2731 4750 3128 4425 
Q 3525 4100 3525 3541 
Q 3525 3141 3298 2862 
Q 3072 2584 2669 2484 
Q 3125 2378 3379 2068 
Q 3634 1759 3634 1313 
Q 3634 634 3220 271 
Q 2806 -91 2034 -91 
Q 1263 -91 848 271 
Q 434 634 434 1313 
Q 434 1759 690 2068 
Q 947 2378 1403 2484 
z
M 1172 3481 
Q 1172 3119 1398 2916 
Q 1625 2713 2034 2713 
Q 2441 2713 2670 2916 
Q 2900 3119 2900 3481 
Q 2900 3844 2670 4047 
Q 2441 4250 2034 4250 
Q 1625 4250 1398 4047 
Q 1172 3844 1172 3481 
z
" transform="scale(0.015625)"/>
       </defs>
       <use xlink:href="#DejaVuSans-38"/>
       <use xlink:href="#DejaVuSans-30" transform="translate(63.623047 0)"/>
       <use xlink:href="#DejaVuSans-30" transform="translate(127.246094 0)"/>
      </g>
     </g>
    </g>
    <g id="ytick_6">
     <g id="line2d_12">
      <g>
       <use xlink:href="#m65f9814ee9" x="73.795625" y="98.272103" style="stroke: #000000; stroke-width: 0.8"/>
      </g>
     </g>
     <g id="text_13">
      <!-- 1000 -->
      <g transform="translate(28.620625 103.970931) scale(0.15 -0.15)">
       <use xlink:href="#DejaVuSans-31"/>
       <use xlink:href="#DejaVuSans-30" transform="translate(63.623047 0)"/>
       <use xlink:href="#DejaVuSans-30" transform="translate(127.246094 0)"/>
       <use xlink:href="#DejaVuSans-30" transform="translate(190.869141 0)"/>
      </g>
     </g>
    </g>
    <g id="text_14">
     <!-- Losartan [nM] -->
     <g transform="translate(20.877188 271.012989) rotate(-90) scale(0.18 -0.18)">
      <defs>
       <path id="DejaVuSans-Bold-4c" d="M 588 4666 
L 1791 4666 
L 1791 909 
L 3903 909 
L 3903 0 
L 588 0 
L 588 4666 
z
" transform="scale(0.015625)"/>
       <path id="DejaVuSans-Bold-6f" d="M 2203 2784 
Q 1831 2784 1636 2517 
Q 1441 2250 1441 1747 
Q 1441 1244 1636 976 
Q 1831 709 2203 709 
Q 2569 709 2762 976 
Q 2956 1244 2956 1747 
Q 2956 2250 2762 2517 
Q 2569 2784 2203 2784 
z
M 2203 3584 
Q 3106 3584 3614 3096 
Q 4122 2609 4122 1747 
Q 4122 884 3614 396 
Q 3106 -91 2203 -91 
Q 1297 -91 786 396 
Q 275 884 275 1747 
Q 275 2609 786 3096 
Q 1297 3584 2203 3584 
z
" transform="scale(0.015625)"/>
       <path id="DejaVuSans-Bold-73" d="M 3272 3391 
L 3272 2541 
Q 2913 2691 2578 2766 
Q 2244 2841 1947 2841 
Q 1628 2841 1473 2761 
Q 1319 2681 1319 2516 
Q 1319 2381 1436 2309 
Q 1553 2238 1856 2203 
L 2053 2175 
Q 2913 2066 3209 1816 
Q 3506 1566 3506 1031 
Q 3506 472 3093 190 
Q 2681 -91 1863 -91 
Q 1516 -91 1145 -36 
Q 775 19 384 128 
L 384 978 
Q 719 816 1070 734 
Q 1422 653 1784 653 
Q 2113 653 2278 743 
Q 2444 834 2444 1013 
Q 2444 1163 2330 1236 
Q 2216 1309 1875 1350 
L 1678 1375 
Q 931 1469 631 1722 
Q 331 1975 331 2491 
Q 331 3047 712 3315 
Q 1094 3584 1881 3584 
Q 2191 3584 2531 3537 
Q 2872 3491 3272 3391 
z
" transform="scale(0.015625)"/>
       <path id="DejaVuSans-Bold-61" d="M 2106 1575 
Q 1756 1575 1579 1456 
Q 1403 1338 1403 1106 
Q 1403 894 1545 773 
Q 1688 653 1941 653 
Q 2256 653 2472 879 
Q 2688 1106 2688 1447 
L 2688 1575 
L 2106 1575 
z
M 3816 1997 
L 3816 0 
L 2688 0 
L 2688 519 
Q 2463 200 2181 54 
Q 1900 -91 1497 -91 
Q 953 -91 614 226 
Q 275 544 275 1050 
Q 275 1666 698 1953 
Q 1122 2241 2028 2241 
L 2688 2241 
L 2688 2328 
Q 2688 2594 2478 2717 
Q 2269 2841 1825 2841 
Q 1466 2841 1156 2769 
Q 847 2697 581 2553 
L 581 3406 
Q 941 3494 1303 3539 
Q 1666 3584 2028 3584 
Q 2975 3584 3395 3211 
Q 3816 2838 3816 1997 
z
" transform="scale(0.015625)"/>
       <path id="DejaVuSans-Bold-74" d="M 1759 4494 
L 1759 3500 
L 2913 3500 
L 2913 2700 
L 1759 2700 
L 1759 1216 
Q 1759 972 1856 886 
Q 1953 800 2241 800 
L 2816 800 
L 2816 0 
L 1856 0 
Q 1194 0 917 276 
Q 641 553 641 1216 
L 641 2700 
L 84 2700 
L 84 3500 
L 641 3500 
L 641 4494 
L 1759 4494 
z
" transform="scale(0.015625)"/>
       <path id="DejaVuSans-Bold-6e" d="M 4056 2131 
L 4056 0 
L 2931 0 
L 2931 347 
L 2931 1631 
Q 2931 2084 2911 2256 
Q 2891 2428 2841 2509 
Q 2775 2619 2662 2680 
Q 2550 2741 2406 2741 
Q 2056 2741 1856 2470 
Q 1656 2200 1656 1722 
L 1656 0 
L 538 0 
L 538 3500 
L 1656 3500 
L 1656 2988 
Q 1909 3294 2193 3439 
Q 2478 3584 2822 3584 
Q 3428 3584 3742 3212 
Q 4056 2841 4056 2131 
z
" transform="scale(0.015625)"/>
       <path id="DejaVuSans-Bold-4d" d="M 588 4666 
L 2119 4666 
L 3181 2169 
L 4250 4666 
L 5778 4666 
L 5778 0 
L 4641 0 
L 4641 3413 
L 3566 897 
L 2803 897 
L 1728 3413 
L 1728 0 
L 588 0 
L 588 4666 
z
" transform="scale(0.015625)"/>
      </defs>
      <use xlink:href="#DejaVuSans-Bold-4c"/>
      <use xlink:href="#DejaVuSans-Bold-6f" transform="translate(63.720703 0)"/>
      <use xlink:href="#DejaVuSans-Bold-73" transform="translate(132.421875 0)"/>
      <use xlink:href="#DejaVuSans-Bold-61" transform="translate(191.943359 0)"/>
      <use xlink:href="#DejaVuSans-Bold-72" transform="translate(259.423828 0)"/>
      <use xlink:href="#DejaVuSans-Bold-74" transform="translate(308.740234 0)"/>
      <use xlink:href="#DejaVuSans-Bold-61" transform="translate(356.542969 0)"/>
      <use xlink:href="#DejaVuSans-Bold-6e" transform="translate(424.023438 0)"/>
      <use xlink:href="#DejaVuSans-Bold-20" transform="translate(495.214844 0)"/>
      <use xlink:href="#DejaVuSans-Bold-5b" transform="translate(530.029297 0)"/>
      <use xlink:href="#DejaVuSans-Bold-6e" transform="translate(575.732422 0)"/>
      <use xlink:href="#DejaVuSans-Bold-4d" transform="translate(646.923828 0)"/>
      <use xlink:href="#DejaVuSans-Bold-5d" transform="translate(746.435547 0)"/>
     </g>
    </g>
   </g>
   <g id="LineCollection_1">
    <path clip-path="url(#p17a8a81e5e)" style="fill: none; stroke: #000000"/>
    <path d="M 98.651989 309.286957 
L 98.651989 179.601096 
" clip-path="url(#p17a8a81e5e)" style="fill: none; stroke: #000000"/>
    <path d="M 105.753807 257.717224 
L 105.753807 136.89279 
" clip-path="url(#p17a8a81e5e)" style="fill: none; stroke: #000000"/>
    <path d="M 112.855625 265.755559 
L 112.855625 128.820178 
" clip-path="url(#p17a8a81e5e)" style="fill: none; stroke: #000000"/>
    <path d="M 119.957443 263.726018 
L 119.957443 196.062928 
" clip-path="url(#p17a8a81e5e)" style="fill: none; stroke: #000000"/>
    <path d="M 134.16108 267.317403 
L 134.16108 228.652394 
" clip-path="url(#p17a8a81e5e)" style="fill: none; stroke: #000000"/>
    <path d="M 148.364716 273.325747 
L 148.364716 244.325862 
" clip-path="url(#p17a8a81e5e)" style="fill: none; stroke: #000000"/>
    <path d="M 176.771989 277.687004 
L 176.771989 264.799871 
" clip-path="url(#p17a8a81e5e)" style="fill: none; stroke: #000000"/>
    <path d="M 205.179261 281.245466 
L 205.179261 274.800546 
" clip-path="url(#p17a8a81e5e)" style="fill: none; stroke: #000000"/>
   </g>
   <g id="LineCollection_2">
    <path clip-path="url(#p17a8a81e5e)" style="fill: none; stroke: #ff7f0e"/>
    <path clip-path="url(#p17a8a81e5e)" style="fill: none; stroke: #ff7f0e"/>
    <path clip-path="url(#p17a8a81e5e)" style="fill: none; stroke: #ff7f0e"/>
    <path clip-path="url(#p17a8a81e5e)" style="fill: none; stroke: #ff7f0e"/>
    <path clip-path="url(#p17a8a81e5e)" style="fill: none; stroke: #ff7f0e"/>
    <path clip-path="url(#p17a8a81e5e)" style="fill: none; stroke: #ff7f0e"/>
    <path clip-path="url(#p17a8a81e5e)" style="fill: none; stroke: #ff7f0e"/>
    <path clip-path="url(#p17a8a81e5e)" style="fill: none; stroke: #ff7f0e"/>
    <path clip-path="url(#p17a8a81e5e)" style="fill: none; stroke: #ff7f0e"/>
    <path clip-path="url(#p17a8a81e5e)" style="fill: none; stroke: #ff7f0e"/>
    <path clip-path="url(#p17a8a81e5e)" style="fill: none; stroke: #ff7f0e"/>
   </g>
   <g id="line2d_13">
    <path d="M 91.55017 283.929872 
L 92.260352 283.647468 
L 92.970534 282.145286 
L 93.680716 279.168989 
L 94.390898 274.929205 
L 95.811261 264.048573 
L 98.651989 240.928713 
L 100.072352 231.571566 
L 101.492716 224.471803 
L 102.202898 221.793829 
L 102.91308 219.67645 
L 103.623261 218.090253 
L 104.333443 216.998705 
L 105.043625 216.360782 
L 105.753807 216.133072 
L 106.463989 216.271429 
L 107.17417 216.732234 
L 107.884352 217.473343 
L 108.594534 218.454758 
L 110.014898 220.991817 
L 111.435261 224.079594 
L 113.565807 229.284844 
L 118.53708 241.72337 
L 120.667625 246.56005 
L 122.79817 250.938584 
L 124.928716 254.833758 
L 127.059261 258.25511 
L 129.189807 261.231973 
L 131.320352 263.803672 
L 133.450898 266.013324 
L 135.581443 267.90407 
L 137.711989 269.516908 
L 139.842534 270.889547 
L 142.683261 272.404177 
L 145.523989 273.621413 
L 148.364716 274.599451 
L 151.915625 275.557662 
L 155.466534 276.29051 
L 159.727625 276.951286 
L 165.40908 277.575322 
L 172.510898 278.096207 
L 182.453443 278.564548 
L 198.077443 279.037461 
L 227.90508 279.677674 
L 279.03817 280.543536 
L 339.403625 281.339646 
L 409.001443 282.028131 
L 446.64108 282.320774 
L 446.64108 282.320774 
" clip-path="url(#p17a8a81e5e)" style="fill: none; stroke: #000000; stroke-width: 2; stroke-linecap: square"/>
   </g>
   <g id="line2d_14">
    <path d="M 91.55017 283.929872 
L 98.651989 244.444026 
L 105.753807 197.305007 
L 112.855625 197.287869 
L 119.957443 229.894473 
L 134.16108 247.984899 
L 148.364716 258.825804 
L 176.771989 271.243438 
L 205.179261 278.023006 
" clip-path="url(#p17a8a81e5e)" style="fill: none; stroke-dasharray: 3.7,1.6; stroke-dashoffset: 0; stroke: #000000"/>
    <defs>
     <path id="ma3934791ad" d="M -3 3 
L 3 3 
L 3 -3 
L -3 -3 
z
" style="stroke: #000000; stroke-linejoin: miter"/>
    </defs>
    <g clip-path="url(#p17a8a81e5e)">
     <use xlink:href="#ma3934791ad" x="91.55017" y="283.929872" style="stroke: #000000; stroke-linejoin: miter"/>
     <use xlink:href="#ma3934791ad" x="98.651989" y="244.444026" style="stroke: #000000; stroke-linejoin: miter"/>
     <use xlink:href="#ma3934791ad" x="105.753807" y="197.305007" style="stroke: #000000; stroke-linejoin: miter"/>
     <use xlink:href="#ma3934791ad" x="112.855625" y="197.287869" style="stroke: #000000; stroke-linejoin: miter"/>
     <use xlink:href="#ma3934791ad" x="119.957443" y="229.894473" style="stroke: #000000; stroke-linejoin: miter"/>
     <use xlink:href="#ma3934791ad" x="134.16108" y="247.984899" style="stroke: #000000; stroke-linejoin: miter"/>
     <use xlink:href="#ma3934791ad" x="148.364716" y="258.825804" style="stroke: #000000; stroke-linejoin: miter"/>
     <use xlink:href="#ma3934791ad" x="176.771989" y="271.243438" style="stroke: #000000; stroke-linejoin: miter"/>
     <use xlink:href="#ma3934791ad" x="205.179261" y="278.023006" style="stroke: #000000; stroke-linejoin: miter"/>
    </g>
   </g>
   <g id="line2d_15">
    <path d="M 91.55017 283.929872 
L 92.260352 283.632759 
L 92.970534 281.931899 
L 93.680716 278.322655 
L 94.390898 272.879999 
L 95.10108 265.928204 
L 96.521443 249.112243 
L 99.36217 213.570039 
L 100.782534 198.543175 
L 102.202898 186.529374 
L 102.91308 181.728809 
L 103.623261 177.725715 
L 104.333443 174.494229 
L 105.043625 171.996883 
L 105.753807 170.188048 
L 106.463989 169.016761 
L 107.17417 168.429029 
L 107.884352 168.369651 
L 108.594534 168.783646 
L 109.304716 169.617334 
L 110.014898 170.819136 
L 110.72508 172.340137 
L 112.145443 176.159529 
L 113.565807 180.74835 
L 115.696352 188.490317 
L 122.087989 212.432245 
L 124.218534 219.555803 
L 126.34908 226.015023 
L 128.479625 231.783041 
L 130.61017 236.874512 
L 132.740716 241.32919 
L 134.871261 245.20039 
L 137.001807 248.547187 
L 139.132352 251.429358 
L 141.262898 253.904281 
L 143.393443 256.025193 
L 145.523989 257.84035 
L 147.654534 259.392764 
L 149.78508 260.720304 
L 152.625807 262.197001 
L 155.466534 263.398409 
L 158.307261 264.378735 
L 161.85817 265.359474 
L 166.119261 266.264615 
L 171.090534 267.052968 
L 176.771989 267.716129 
L 184.583989 268.373033 
L 195.236716 269.013392 
L 212.28108 269.780029 
L 244.239261 270.958505 
L 293.241807 272.539369 
L 347.215625 274.05813 
L 405.450534 275.471869 
L 446.64108 276.348476 
L 446.64108 276.348476 
" clip-path="url(#p17a8a81e5e)" style="fill: none; stroke: #ff7f0e; stroke-width: 2; stroke-linecap: square"/>
   </g>
   <g id="line2d_16">
    <path d="M 91.55017 283.929872 
L 98.651989 269.012296 
L 105.753807 242.010832 
L 112.855625 90.156522 
L 119.957443 168.273101 
L 134.16108 218.181316 
L 148.364716 239.090548 
L 176.771989 254.32744 
L 205.179261 260.301957 
L 233.586534 268.69253 
L 261.993807 269.833583 
" clip-path="url(#p17a8a81e5e)" style="fill: none; stroke-dasharray: 3.7,1.6; stroke-dashoffset: 0; stroke: #ff7f0e"/>
    <defs>
     <path id="md55648cab8" d="M -3 3 
L 3 3 
L 3 -3 
L -3 -3 
z
" style="stroke: #000000; stroke-linejoin: miter"/>
    </defs>
    <g clip-path="url(#p17a8a81e5e)">
     <use xlink:href="#md55648cab8" x="91.55017" y="283.929872" style="fill: #ff7f0e; stroke: #000000; stroke-linejoin: miter"/>
     <use xlink:href="#md55648cab8" x="98.651989" y="269.012296" style="fill: #ff7f0e; stroke: #000000; stroke-linejoin: miter"/>
     <use xlink:href="#md55648cab8" x="105.753807" y="242.010832" style="fill: #ff7f0e; stroke: #000000; stroke-linejoin: miter"/>
     <use xlink:href="#md55648cab8" x="112.855625" y="90.156522" style="fill: #ff7f0e; stroke: #000000; stroke-linejoin: miter"/>
     <use xlink:href="#md55648cab8" x="119.957443" y="168.273101" style="fill: #ff7f0e; stroke: #000000; stroke-linejoin: miter"/>
     <use xlink:href="#md55648cab8" x="134.16108" y="218.181316" style="fill: #ff7f0e; stroke: #000000; stroke-linejoin: miter"/>
     <use xlink:href="#md55648cab8" x="148.364716" y="239.090548" style="fill: #ff7f0e; stroke: #000000; stroke-linejoin: miter"/>
     <use xlink:href="#md55648cab8" x="176.771989" y="254.32744" style="fill: #ff7f0e; stroke: #000000; stroke-linejoin: miter"/>
     <use xlink:href="#md55648cab8" x="205.179261" y="260.301957" style="fill: #ff7f0e; stroke: #000000; stroke-linejoin: miter"/>
     <use xlink:href="#md55648cab8" x="233.586534" y="268.69253" style="fill: #ff7f0e; stroke: #000000; stroke-linejoin: miter"/>
     <use xlink:href="#md55648cab8" x="261.993807" y="269.833583" style="fill: #ff7f0e; stroke: #000000; stroke-linejoin: miter"/>
    </g>
   </g>
   <g id="patch_3">
    <path d="M 73.795625 320.243478 
L 73.795625 79.2 
" style="fill: none; stroke: #000000; stroke-width: 0.8; stroke-linejoin: miter; stroke-linecap: square"/>
   </g>
   <g id="patch_4">
    <path d="M 464.395625 320.243478 
L 464.395625 79.2 
" style="fill: none; stroke: #000000; stroke-width: 0.8; stroke-linejoin: miter; stroke-linecap: square"/>
   </g>
   <g id="patch_5">
    <path d="M 73.795625 320.243478 
L 464.395625 320.243478 
" style="fill: none; stroke: #000000; stroke-width: 0.8; stroke-linejoin: miter; stroke-linecap: square"/>
   </g>
   <g id="patch_6">
    <path d="M 73.795625 79.2 
L 464.395625 79.2 
" style="fill: none; stroke: #000000; stroke-width: 0.8; stroke-linejoin: miter; stroke-linecap: square"/>
   </g>
   <g id="legend_1">
    <g id="patch_7">
     <path d="M 303.28 145.9125 
L 457.395625 145.9125 
Q 459.395625 145.9125 459.395625 143.9125 
L 459.395625 86.2 
Q 459.395625 84.2 457.395625 84.2 
L 303.28 84.2 
Q 301.28 84.2 301.28 86.2 
L 301.28 143.9125 
Q 301.28 145.9125 303.28 145.9125 
z
" style="fill: #ffffff; opacity: 0.8; stroke: #cccccc; stroke-linejoin: miter"/>
    </g>
    <g id="line2d_17">
     <path d="M 305.28 92.298437 
L 325.28 92.298437 
" style="fill: none; stroke: #000000; stroke-width: 2; stroke-linecap: square"/>
    </g>
    <g id="line2d_18"/>
    <g id="text_15">
     <!-- Sim *1/*1 50 mg -->
     <g transform="translate(333.28 95.798437) scale(0.1 -0.1)">
      <defs>
       <path id="DejaVuSans-53" d="M 3425 4513 
L 3425 3897 
Q 3066 4069 2747 4153 
Q 2428 4238 2131 4238 
Q 1616 4238 1336 4038 
Q 1056 3838 1056 3469 
Q 1056 3159 1242 3001 
Q 1428 2844 1947 2747 
L 2328 2669 
Q 3034 2534 3370 2195 
Q 3706 1856 3706 1288 
Q 3706 609 3251 259 
Q 2797 -91 1919 -91 
Q 1588 -91 1214 -16 
Q 841 59 441 206 
L 441 856 
Q 825 641 1194 531 
Q 1563 422 1919 422 
Q 2459 422 2753 634 
Q 3047 847 3047 1241 
Q 3047 1584 2836 1778 
Q 2625 1972 2144 2069 
L 1759 2144 
Q 1053 2284 737 2584 
Q 422 2884 422 3419 
Q 422 4038 858 4394 
Q 1294 4750 2059 4750 
Q 2388 4750 2728 4690 
Q 3069 4631 3425 4513 
z
" transform="scale(0.015625)"/>
       <path id="DejaVuSans-69" d="M 603 3500 
L 1178 3500 
L 1178 0 
L 603 0 
L 603 3500 
z
M 603 4863 
L 1178 4863 
L 1178 4134 
L 603 4134 
L 603 4863 
z
" transform="scale(0.015625)"/>
       <path id="DejaVuSans-6d" d="M 3328 2828 
Q 3544 3216 3844 3400 
Q 4144 3584 4550 3584 
Q 5097 3584 5394 3201 
Q 5691 2819 5691 2113 
L 5691 0 
L 5113 0 
L 5113 2094 
Q 5113 2597 4934 2840 
Q 4756 3084 4391 3084 
Q 3944 3084 3684 2787 
Q 3425 2491 3425 1978 
L 3425 0 
L 2847 0 
L 2847 2094 
Q 2847 2600 2669 2842 
Q 2491 3084 2119 3084 
Q 1678 3084 1418 2786 
Q 1159 2488 1159 1978 
L 1159 0 
L 581 0 
L 581 3500 
L 1159 3500 
L 1159 2956 
Q 1356 3278 1631 3431 
Q 1906 3584 2284 3584 
Q 2666 3584 2933 3390 
Q 3200 3197 3328 2828 
z
" transform="scale(0.015625)"/>
       <path id="DejaVuSans-20" transform="scale(0.015625)"/>
       <path id="DejaVuSans-2a" d="M 3009 3897 
L 1888 3291 
L 3009 2681 
L 2828 2375 
L 1778 3009 
L 1778 1831 
L 1422 1831 
L 1422 3009 
L 372 2375 
L 191 2681 
L 1313 3291 
L 191 3897 
L 372 4206 
L 1422 3572 
L 1422 4750 
L 1778 4750 
L 1778 3572 
L 2828 4206 
L 3009 3897 
z
" transform="scale(0.015625)"/>
       <path id="DejaVuSans-2f" d="M 1625 4666 
L 2156 4666 
L 531 -594 
L 0 -594 
L 1625 4666 
z
" transform="scale(0.015625)"/>
       <path id="DejaVuSans-67" d="M 2906 1791 
Q 2906 2416 2648 2759 
Q 2391 3103 1925 3103 
Q 1463 3103 1205 2759 
Q 947 2416 947 1791 
Q 947 1169 1205 825 
Q 1463 481 1925 481 
Q 2391 481 2648 825 
Q 2906 1169 2906 1791 
z
M 3481 434 
Q 3481 -459 3084 -895 
Q 2688 -1331 1869 -1331 
Q 1566 -1331 1297 -1286 
Q 1028 -1241 775 -1147 
L 775 -588 
Q 1028 -725 1275 -790 
Q 1522 -856 1778 -856 
Q 2344 -856 2625 -561 
Q 2906 -266 2906 331 
L 2906 616 
Q 2728 306 2450 153 
Q 2172 0 1784 0 
Q 1141 0 747 490 
Q 353 981 353 1791 
Q 353 2603 747 3093 
Q 1141 3584 1784 3584 
Q 2172 3584 2450 3431 
Q 2728 3278 2906 2969 
L 2906 3500 
L 3481 3500 
L 3481 434 
z
" transform="scale(0.015625)"/>
      </defs>
      <use xlink:href="#DejaVuSans-53"/>
      <use xlink:href="#DejaVuSans-69" transform="translate(63.476562 0)"/>
      <use xlink:href="#DejaVuSans-6d" transform="translate(91.259766 0)"/>
      <use xlink:href="#DejaVuSans-20" transform="translate(188.671875 0)"/>
      <use xlink:href="#DejaVuSans-2a" transform="translate(220.458984 0)"/>
      <use xlink:href="#DejaVuSans-31" transform="translate(270.458984 0)"/>
      <use xlink:href="#DejaVuSans-2f" transform="translate(334.082031 0)"/>
      <use xlink:href="#DejaVuSans-2a" transform="translate(367.773438 0)"/>
      <use xlink:href="#DejaVuSans-31" transform="translate(417.773438 0)"/>
      <use xlink:href="#DejaVuSans-20" transform="translate(481.396484 0)"/>
      <use xlink:href="#DejaVuSans-35" transform="translate(513.183594 0)"/>
      <use xlink:href="#DejaVuSans-30" transform="translate(576.806641 0)"/>
      <use xlink:href="#DejaVuSans-20" transform="translate(640.429688 0)"/>
      <use xlink:href="#DejaVuSans-6d" transform="translate(672.216797 0)"/>
      <use xlink:href="#DejaVuSans-67" transform="translate(769.628906 0)"/>
     </g>
    </g>
    <g id="LineCollection_3">
     <path d="M 315.28 111.976562 
L 315.28 101.976562 
" style="fill: none; stroke: #000000"/>
    </g>
    <g id="line2d_19">
     <path d="M 305.28 106.976562 
L 325.28 106.976562 
" style="fill: none; stroke-dasharray: 3.7,1.6; stroke-dashoffset: 0; stroke: #000000"/>
    </g>
    <g id="line2d_20">
     <g>
      <use xlink:href="#ma3934791ad" x="315.28" y="106.976562" style="stroke: #000000; stroke-linejoin: miter"/>
     </g>
    </g>
    <g id="text_16">
     <!-- *1/*1 50 mg±SD (n=12) -->
     <g transform="translate(333.28 110.476562) scale(0.1 -0.1)">
      <defs>
       <path id="DejaVuSans-b1" d="M 2944 4013 
L 2944 2803 
L 4684 2803 
L 4684 2272 
L 2944 2272 
L 2944 1063 
L 2419 1063 
L 2419 2272 
L 678 2272 
L 678 2803 
L 2419 2803 
L 2419 4013 
L 2944 4013 
z
M 678 531 
L 4684 531 
L 4684 0 
L 678 0 
L 678 531 
z
" transform="scale(0.015625)"/>
       <path id="DejaVuSans-44" d="M 1259 4147 
L 1259 519 
L 2022 519 
Q 2988 519 3436 956 
Q 3884 1394 3884 2338 
Q 3884 3275 3436 3711 
Q 2988 4147 2022 4147 
L 1259 4147 
z
M 628 4666 
L 1925 4666 
Q 3281 4666 3915 4102 
Q 4550 3538 4550 2338 
Q 4550 1131 3912 565 
Q 3275 0 1925 0 
L 628 0 
L 628 4666 
z
" transform="scale(0.015625)"/>
       <path id="DejaVuSans-28" d="M 1984 4856 
Q 1566 4138 1362 3434 
Q 1159 2731 1159 2009 
Q 1159 1288 1364 580 
Q 1569 -128 1984 -844 
L 1484 -844 
Q 1016 -109 783 600 
Q 550 1309 550 2009 
Q 550 2706 781 3412 
Q 1013 4119 1484 4856 
L 1984 4856 
z
" transform="scale(0.015625)"/>
       <path id="DejaVuSans-6e" d="M 3513 2113 
L 3513 0 
L 2938 0 
L 2938 2094 
Q 2938 2591 2744 2837 
Q 2550 3084 2163 3084 
Q 1697 3084 1428 2787 
Q 1159 2491 1159 1978 
L 1159 0 
L 581 0 
L 581 3500 
L 1159 3500 
L 1159 2956 
Q 1366 3272 1645 3428 
Q 1925 3584 2291 3584 
Q 2894 3584 3203 3211 
Q 3513 2838 3513 2113 
z
" transform="scale(0.015625)"/>
       <path id="DejaVuSans-3d" d="M 678 2906 
L 4684 2906 
L 4684 2381 
L 678 2381 
L 678 2906 
z
M 678 1631 
L 4684 1631 
L 4684 1100 
L 678 1100 
L 678 1631 
z
" transform="scale(0.015625)"/>
       <path id="DejaVuSans-29" d="M 513 4856 
L 1013 4856 
Q 1481 4119 1714 3412 
Q 1947 2706 1947 2009 
Q 1947 1309 1714 600 
Q 1481 -109 1013 -844 
L 513 -844 
Q 928 -128 1133 580 
Q 1338 1288 1338 2009 
Q 1338 2731 1133 3434 
Q 928 4138 513 4856 
z
" transform="scale(0.015625)"/>
      </defs>
      <use xlink:href="#DejaVuSans-2a"/>
      <use xlink:href="#DejaVuSans-31" transform="translate(50 0)"/>
      <use xlink:href="#DejaVuSans-2f" transform="translate(113.623047 0)"/>
      <use xlink:href="#DejaVuSans-2a" transform="translate(147.314453 0)"/>
      <use xlink:href="#DejaVuSans-31" transform="translate(197.314453 0)"/>
      <use xlink:href="#DejaVuSans-20" transform="translate(260.9375 0)"/>
      <use xlink:href="#DejaVuSans-35" transform="translate(292.724609 0)"/>
      <use xlink:href="#DejaVuSans-30" transform="translate(356.347656 0)"/>
      <use xlink:href="#DejaVuSans-20" transform="translate(419.970703 0)"/>
      <use xlink:href="#DejaVuSans-6d" transform="translate(451.757812 0)"/>
      <use xlink:href="#DejaVuSans-67" transform="translate(549.169922 0)"/>
      <use xlink:href="#DejaVuSans-b1" transform="translate(612.646484 0)"/>
      <use xlink:href="#DejaVuSans-53" transform="translate(696.435547 0)"/>
      <use xlink:href="#DejaVuSans-44" transform="translate(759.912109 0)"/>
      <use xlink:href="#DejaVuSans-20" transform="translate(836.914062 0)"/>
      <use xlink:href="#DejaVuSans-28" transform="translate(868.701172 0)"/>
      <use xlink:href="#DejaVuSans-6e" transform="translate(907.714844 0)"/>
      <use xlink:href="#DejaVuSans-3d" transform="translate(971.09375 0)"/>
      <use xlink:href="#DejaVuSans-31" transform="translate(1054.882812 0)"/>
      <use xlink:href="#DejaVuSans-32" transform="translate(1118.505859 0)"/>
      <use xlink:href="#DejaVuSans-29" transform="translate(1182.128906 0)"/>
     </g>
    </g>
    <g id="line2d_21">
     <path d="M 305.28 121.654687 
L 325.28 121.654687 
" style="fill: none; stroke: #ff7f0e; stroke-width: 2; stroke-linecap: square"/>
    </g>
    <g id="line2d_22"/>
    <g id="text_17">
     <!-- Sim *3/*3 50 mg -->
     <g transform="translate(333.28 125.154687) scale(0.1 -0.1)">
      <defs>
       <path id="DejaVuSans-33" d="M 2597 2516 
Q 3050 2419 3304 2112 
Q 3559 1806 3559 1356 
Q 3559 666 3084 287 
Q 2609 -91 1734 -91 
Q 1441 -91 1130 -33 
Q 819 25 488 141 
L 488 750 
Q 750 597 1062 519 
Q 1375 441 1716 441 
Q 2309 441 2620 675 
Q 2931 909 2931 1356 
Q 2931 1769 2642 2001 
Q 2353 2234 1838 2234 
L 1294 2234 
L 1294 2753 
L 1863 2753 
Q 2328 2753 2575 2939 
Q 2822 3125 2822 3475 
Q 2822 3834 2567 4026 
Q 2313 4219 1838 4219 
Q 1578 4219 1281 4162 
Q 984 4106 628 3988 
L 628 4550 
Q 988 4650 1302 4700 
Q 1616 4750 1894 4750 
Q 2613 4750 3031 4423 
Q 3450 4097 3450 3541 
Q 3450 3153 3228 2886 
Q 3006 2619 2597 2516 
z
" transform="scale(0.015625)"/>
      </defs>
      <use xlink:href="#DejaVuSans-53"/>
      <use xlink:href="#DejaVuSans-69" transform="translate(63.476562 0)"/>
      <use xlink:href="#DejaVuSans-6d" transform="translate(91.259766 0)"/>
      <use xlink:href="#DejaVuSans-20" transform="translate(188.671875 0)"/>
      <use xlink:href="#DejaVuSans-2a" transform="translate(220.458984 0)"/>
      <use xlink:href="#DejaVuSans-33" transform="translate(270.458984 0)"/>
      <use xlink:href="#DejaVuSans-2f" transform="translate(334.082031 0)"/>
      <use xlink:href="#DejaVuSans-2a" transform="translate(367.773438 0)"/>
      <use xlink:href="#DejaVuSans-33" transform="translate(417.773438 0)"/>
      <use xlink:href="#DejaVuSans-20" transform="translate(481.396484 0)"/>
      <use xlink:href="#DejaVuSans-35" transform="translate(513.183594 0)"/>
      <use xlink:href="#DejaVuSans-30" transform="translate(576.806641 0)"/>
      <use xlink:href="#DejaVuSans-20" transform="translate(640.429688 0)"/>
      <use xlink:href="#DejaVuSans-6d" transform="translate(672.216797 0)"/>
      <use xlink:href="#DejaVuSans-67" transform="translate(769.628906 0)"/>
     </g>
    </g>
    <g id="LineCollection_4">
     <path d="M 315.28 141.332812 
L 315.28 131.332812 
" style="fill: none; stroke: #ff7f0e"/>
    </g>
    <g id="line2d_23">
     <path d="M 305.28 136.332812 
L 325.28 136.332812 
" style="fill: none; stroke-dasharray: 3.7,1.6; stroke-dashoffset: 0; stroke: #ff7f0e"/>
    </g>
    <g id="line2d_24">
     <g>
      <use xlink:href="#md55648cab8" x="315.28" y="136.332812" style="fill: #ff7f0e; stroke: #000000; stroke-linejoin: miter"/>
     </g>
    </g>
    <g id="text_18">
     <!-- *3/*3 50 mg±SD (n=1) -->
     <g transform="translate(333.28 139.832812) scale(0.1 -0.1)">
      <use xlink:href="#DejaVuSans-2a"/>
      <use xlink:href="#DejaVuSans-33" transform="translate(50 0)"/>
      <use xlink:href="#DejaVuSans-2f" transform="translate(113.623047 0)"/>
      <use xlink:href="#DejaVuSans-2a" transform="translate(147.314453 0)"/>
      <use xlink:href="#DejaVuSans-33" transform="translate(197.314453 0)"/>
      <use xlink:href="#DejaVuSans-20" transform="translate(260.9375 0)"/>
      <use xlink:href="#DejaVuSans-35" transform="translate(292.724609 0)"/>
      <use xlink:href="#DejaVuSans-30" transform="translate(356.347656 0)"/>
      <use xlink:href="#DejaVuSans-20" transform="translate(419.970703 0)"/>
      <use xlink:href="#DejaVuSans-6d" transform="translate(451.757812 0)"/>
      <use xlink:href="#DejaVuSans-67" transform="translate(549.169922 0)"/>
      <use xlink:href="#DejaVuSans-b1" transform="translate(612.646484 0)"/>
      <use xlink:href="#DejaVuSans-53" transform="translate(696.435547 0)"/>
      <use xlink:href="#DejaVuSans-44" transform="translate(759.912109 0)"/>
      <use xlink:href="#DejaVuSans-20" transform="translate(836.914062 0)"/>
      <use xlink:href="#DejaVuSans-28" transform="translate(868.701172 0)"/>
      <use xlink:href="#DejaVuSans-6e" transform="translate(907.714844 0)"/>
      <use xlink:href="#DejaVuSans-3d" transform="translate(971.09375 0)"/>
      <use xlink:href="#DejaVuSans-31" transform="translate(1054.882812 0)"/>
      <use xlink:href="#DejaVuSans-29" transform="translate(1118.505859 0)"/>
     </g>
    </g>
   </g>
  </g>
  <g id="axes_2">
   <g id="patch_8">
    <path d="M 73.795625 633.6 
L 464.395625 633.6 
L 464.395625 392.556522 
L 73.795625 392.556522 
z
" style="fill: #ffffff"/>
   </g>
   <g id="matplotlib.axis_3">
    <g id="xtick_7">
     <g id="line2d_25">
      <g>
       <use xlink:href="#m8d44b0df28" x="91.55017" y="633.6" style="stroke: #000000; stroke-width: 0.8"/>
      </g>
     </g>
     <g id="text_19">
      <!-- 0 -->
      <g transform="translate(86.778295 651.997656) scale(0.15 -0.15)">
       <use xlink:href="#DejaVuSans-30"/>
      </g>
     </g>
    </g>
    <g id="xtick_8">
     <g id="line2d_26">
      <g>
       <use xlink:href="#m8d44b0df28" x="162.568352" y="633.6" style="stroke: #000000; stroke-width: 0.8"/>
      </g>
     </g>
     <g id="text_20">
      <!-- 5 -->
      <g transform="translate(157.796477 651.997656) scale(0.15 -0.15)">
       <use xlink:href="#DejaVuSans-35"/>
      </g>
     </g>
    </g>
    <g id="xtick_9">
     <g id="line2d_27">
      <g>
       <use xlink:href="#m8d44b0df28" x="233.586534" y="633.6" style="stroke: #000000; stroke-width: 0.8"/>
      </g>
     </g>
     <g id="text_21">
      <!-- 10 -->
      <g transform="translate(224.042784 651.997656) scale(0.15 -0.15)">
       <use xlink:href="#DejaVuSans-31"/>
       <use xlink:href="#DejaVuSans-30" transform="translate(63.623047 0)"/>
      </g>
     </g>
    </g>
    <g id="xtick_10">
     <g id="line2d_28">
      <g>
       <use xlink:href="#m8d44b0df28" x="304.604716" y="633.6" style="stroke: #000000; stroke-width: 0.8"/>
      </g>
     </g>
     <g id="text_22">
      <!-- 15 -->
      <g transform="translate(295.060966 651.997656) scale(0.15 -0.15)">
       <use xlink:href="#DejaVuSans-31"/>
       <use xlink:href="#DejaVuSans-35" transform="translate(63.623047 0)"/>
      </g>
     </g>
    </g>
    <g id="xtick_11">
     <g id="line2d_29">
      <g>
       <use xlink:href="#m8d44b0df28" x="375.622898" y="633.6" style="stroke: #000000; stroke-width: 0.8"/>
      </g>
     </g>
     <g id="text_23">
      <!-- 20 -->
      <g transform="translate(366.079148 651.997656) scale(0.15 -0.15)">
       <use xlink:href="#DejaVuSans-32"/>
       <use xlink:href="#DejaVuSans-30" transform="translate(63.623047 0)"/>
      </g>
     </g>
    </g>
    <g id="xtick_12">
     <g id="line2d_30">
      <g>
       <use xlink:href="#m8d44b0df28" x="446.64108" y="633.6" style="stroke: #000000; stroke-width: 0.8"/>
      </g>
     </g>
     <g id="text_24">
      <!-- 25 -->
      <g transform="translate(437.09733 651.997656) scale(0.15 -0.15)">
       <use xlink:href="#DejaVuSans-32"/>
       <use xlink:href="#DejaVuSans-35" transform="translate(63.623047 0)"/>
      </g>
     </g>
    </g>
    <g id="text_25">
     <!-- Time [hr] -->
     <g transform="translate(222.183125 672.794375) scale(0.18 -0.18)">
      <use xlink:href="#DejaVuSans-Bold-54"/>
      <use xlink:href="#DejaVuSans-Bold-69" transform="translate(68.212891 0)"/>
      <use xlink:href="#DejaVuSans-Bold-6d" transform="translate(102.490234 0)"/>
      <use xlink:href="#DejaVuSans-Bold-65" transform="translate(206.689453 0)"/>
      <use xlink:href="#DejaVuSans-Bold-20" transform="translate(274.511719 0)"/>
      <use xlink:href="#DejaVuSans-Bold-5b" transform="translate(309.326172 0)"/>
      <use xlink:href="#DejaVuSans-Bold-68" transform="translate(355.029297 0)"/>
      <use xlink:href="#DejaVuSans-Bold-72" transform="translate(426.220703 0)"/>
      <use xlink:href="#DejaVuSans-Bold-5d" transform="translate(475.537109 0)"/>
     </g>
    </g>
   </g>
   <g id="matplotlib.axis_4">
    <g id="ytick_7">
     <g id="line2d_31">
      <g>
       <use xlink:href="#m65f9814ee9" x="73.795625" y="618.620931" style="stroke: #000000; stroke-width: 0.8"/>
      </g>
     </g>
     <g id="text_26">
      <!-- 0 -->
      <g transform="translate(57.251875 624.319759) scale(0.15 -0.15)">
       <use xlink:href="#DejaVuSans-30"/>
      </g>
     </g>
    </g>
    <g id="ytick_8">
     <g id="line2d_32">
      <g>
       <use xlink:href="#m65f9814ee9" x="73.795625" y="587.069079" style="stroke: #000000; stroke-width: 0.8"/>
      </g>
     </g>
     <g id="text_27">
      <!-- 200 -->
      <g transform="translate(38.164375 592.767908) scale(0.15 -0.15)">
       <use xlink:href="#DejaVuSans-32"/>
       <use xlink:href="#DejaVuSans-30" transform="translate(63.623047 0)"/>
       <use xlink:href="#DejaVuSans-30" transform="translate(127.246094 0)"/>
      </g>
     </g>
    </g>
    <g id="ytick_9">
     <g id="line2d_33">
      <g>
       <use xlink:href="#m65f9814ee9" x="73.795625" y="555.517228" style="stroke: #000000; stroke-width: 0.8"/>
      </g>
     </g>
     <g id="text_28">
      <!-- 400 -->
      <g transform="translate(38.164375 561.216056) scale(0.15 -0.15)">
       <use xlink:href="#DejaVuSans-34"/>
       <use xlink:href="#DejaVuSans-30" transform="translate(63.623047 0)"/>
       <use xlink:href="#DejaVuSans-30" transform="translate(127.246094 0)"/>
      </g>
     </g>
    </g>
    <g id="ytick_10">
     <g id="line2d_34">
      <g>
       <use xlink:href="#m65f9814ee9" x="73.795625" y="523.965377" style="stroke: #000000; stroke-width: 0.8"/>
      </g>
     </g>
     <g id="text_29">
      <!-- 600 -->
      <g transform="translate(38.164375 529.664205) scale(0.15 -0.15)">
       <use xlink:href="#DejaVuSans-36"/>
       <use xlink:href="#DejaVuSans-30" transform="translate(63.623047 0)"/>
       <use xlink:href="#DejaVuSans-30" transform="translate(127.246094 0)"/>
      </g>
     </g>
    </g>
    <g id="ytick_11">
     <g id="line2d_35">
      <g>
       <use xlink:href="#m65f9814ee9" x="73.795625" y="492.413526" style="stroke: #000000; stroke-width: 0.8"/>
      </g>
     </g>
     <g id="text_30">
      <!-- 800 -->
      <g transform="translate(38.164375 498.112354) scale(0.15 -0.15)">
       <use xlink:href="#DejaVuSans-38"/>
       <use xlink:href="#DejaVuSans-30" transform="translate(63.623047 0)"/>
       <use xlink:href="#DejaVuSans-30" transform="translate(127.246094 0)"/>
      </g>
     </g>
    </g>
    <g id="ytick_12">
     <g id="line2d_36">
      <g>
       <use xlink:href="#m65f9814ee9" x="73.795625" y="460.861674" style="stroke: #000000; stroke-width: 0.8"/>
      </g>
     </g>
     <g id="text_31">
      <!-- 1000 -->
      <g transform="translate(28.620625 466.560503) scale(0.15 -0.15)">
       <use xlink:href="#DejaVuSans-31"/>
       <use xlink:href="#DejaVuSans-30" transform="translate(63.623047 0)"/>
       <use xlink:href="#DejaVuSans-30" transform="translate(127.246094 0)"/>
       <use xlink:href="#DejaVuSans-30" transform="translate(190.869141 0)"/>
      </g>
     </g>
    </g>
    <g id="ytick_13">
     <g id="line2d_37">
      <g>
       <use xlink:href="#m65f9814ee9" x="73.795625" y="429.309823" style="stroke: #000000; stroke-width: 0.8"/>
      </g>
     </g>
     <g id="text_32">
      <!-- 1200 -->
      <g transform="translate(28.620625 435.008651) scale(0.15 -0.15)">
       <use xlink:href="#DejaVuSans-31"/>
       <use xlink:href="#DejaVuSans-32" transform="translate(63.623047 0)"/>
       <use xlink:href="#DejaVuSans-30" transform="translate(127.246094 0)"/>
       <use xlink:href="#DejaVuSans-30" transform="translate(190.869141 0)"/>
      </g>
     </g>
    </g>
    <g id="ytick_14">
     <g id="line2d_38">
      <g>
       <use xlink:href="#m65f9814ee9" x="73.795625" y="397.757972" style="stroke: #000000; stroke-width: 0.8"/>
      </g>
     </g>
     <g id="text_33">
      <!-- 1400 -->
      <g transform="translate(28.620625 403.4568) scale(0.15 -0.15)">
       <use xlink:href="#DejaVuSans-31"/>
       <use xlink:href="#DejaVuSans-34" transform="translate(63.623047 0)"/>
       <use xlink:href="#DejaVuSans-30" transform="translate(127.246094 0)"/>
       <use xlink:href="#DejaVuSans-30" transform="translate(190.869141 0)"/>
      </g>
     </g>
    </g>
    <g id="text_34">
     <!-- E3174 [nM] -->
     <g transform="translate(20.877188 570.99748) rotate(-90) scale(0.18 -0.18)">
      <defs>
       <path id="DejaVuSans-Bold-45" d="M 588 4666 
L 3834 4666 
L 3834 3756 
L 1791 3756 
L 1791 2888 
L 3713 2888 
L 3713 1978 
L 1791 1978 
L 1791 909 
L 3903 909 
L 3903 0 
L 588 0 
L 588 4666 
z
" transform="scale(0.015625)"/>
       <path id="DejaVuSans-Bold-33" d="M 2981 2516 
Q 3453 2394 3698 2092 
Q 3944 1791 3944 1325 
Q 3944 631 3412 270 
Q 2881 -91 1863 -91 
Q 1503 -91 1142 -33 
Q 781 25 428 141 
L 428 1069 
Q 766 900 1098 814 
Q 1431 728 1753 728 
Q 2231 728 2486 893 
Q 2741 1059 2741 1369 
Q 2741 1688 2480 1852 
Q 2219 2016 1709 2016 
L 1228 2016 
L 1228 2791 
L 1734 2791 
Q 2188 2791 2409 2933 
Q 2631 3075 2631 3366 
Q 2631 3634 2415 3781 
Q 2200 3928 1806 3928 
Q 1516 3928 1219 3862 
Q 922 3797 628 3669 
L 628 4550 
Q 984 4650 1334 4700 
Q 1684 4750 2022 4750 
Q 2931 4750 3382 4451 
Q 3834 4153 3834 3553 
Q 3834 3144 3618 2883 
Q 3403 2622 2981 2516 
z
" transform="scale(0.015625)"/>
       <path id="DejaVuSans-Bold-31" d="M 750 831 
L 1813 831 
L 1813 3847 
L 722 3622 
L 722 4441 
L 1806 4666 
L 2950 4666 
L 2950 831 
L 4013 831 
L 4013 0 
L 750 0 
L 750 831 
z
" transform="scale(0.015625)"/>
       <path id="DejaVuSans-Bold-37" d="M 428 4666 
L 3944 4666 
L 3944 3988 
L 2125 0 
L 953 0 
L 2675 3781 
L 428 3781 
L 428 4666 
z
" transform="scale(0.015625)"/>
       <path id="DejaVuSans-Bold-34" d="M 2356 3675 
L 1038 1722 
L 2356 1722 
L 2356 3675 
z
M 2156 4666 
L 3494 4666 
L 3494 1722 
L 4159 1722 
L 4159 850 
L 3494 850 
L 3494 0 
L 2356 0 
L 2356 850 
L 288 850 
L 288 1881 
L 2156 4666 
z
" transform="scale(0.015625)"/>
      </defs>
      <use xlink:href="#DejaVuSans-Bold-45"/>
      <use xlink:href="#DejaVuSans-Bold-33" transform="translate(68.310547 0)"/>
      <use xlink:href="#DejaVuSans-Bold-31" transform="translate(137.890625 0)"/>
      <use xlink:href="#DejaVuSans-Bold-37" transform="translate(207.470703 0)"/>
      <use xlink:href="#DejaVuSans-Bold-34" transform="translate(277.050781 0)"/>
      <use xlink:href="#DejaVuSans-Bold-20" transform="translate(346.630859 0)"/>
      <use xlink:href="#DejaVuSans-Bold-5b" transform="translate(381.445312 0)"/>
      <use xlink:href="#DejaVuSans-Bold-6e" transform="translate(427.148438 0)"/>
      <use xlink:href="#DejaVuSans-Bold-4d" transform="translate(498.339844 0)"/>
      <use xlink:href="#DejaVuSans-Bold-5d" transform="translate(597.851562 0)"/>
     </g>
    </g>
   </g>
   <g id="LineCollection_5">
    <path d="M 91.55017 619.96537 
L 91.55017 617.276491 
" clip-path="url(#p4d8011f6bb)" style="fill: none; stroke: #000000"/>
    <path d="M 105.753807 622.643478 
L 105.753807 605.583881 
" clip-path="url(#p4d8011f6bb)" style="fill: none; stroke: #000000"/>
    <path d="M 112.855625 616.800111 
L 112.855625 542.269393 
" clip-path="url(#p4d8011f6bb)" style="fill: none; stroke: #000000"/>
    <path d="M 119.957443 596.585536 
L 119.957443 471.773953 
" clip-path="url(#p4d8011f6bb)" style="fill: none; stroke: #000000"/>
    <path d="M 134.16108 531.916327 
L 134.16108 403.513043 
" clip-path="url(#p4d8011f6bb)" style="fill: none; stroke: #000000"/>
    <path d="M 148.364716 483.859711 
L 148.364716 410.227897 
" clip-path="url(#p4d8011f6bb)" style="fill: none; stroke: #000000"/>
    <path d="M 176.771989 533.206911 
L 176.771989 466.760456 
" clip-path="url(#p4d8011f6bb)" style="fill: none; stroke: #000000"/>
    <path d="M 205.179261 562.800249 
L 205.179261 520.59875 
" clip-path="url(#p4d8011f6bb)" style="fill: none; stroke: #000000"/>
    <path d="M 233.586534 576.231915 
L 233.586534 552.885864 
" clip-path="url(#p4d8011f6bb)" style="fill: none; stroke: #000000"/>
    <path d="M 432.437443 618.39596 
L 432.437443 608.294303 
" clip-path="url(#p4d8011f6bb)" style="fill: none; stroke: #000000"/>
   </g>
   <g id="LineCollection_6">
    <path clip-path="url(#p4d8011f6bb)" style="fill: none; stroke: #ff7f0e"/>
    <path clip-path="url(#p4d8011f6bb)" style="fill: none; stroke: #ff7f0e"/>
    <path clip-path="url(#p4d8011f6bb)" style="fill: none; stroke: #ff7f0e"/>
    <path clip-path="url(#p4d8011f6bb)" style="fill: none; stroke: #ff7f0e"/>
    <path clip-path="url(#p4d8011f6bb)" style="fill: none; stroke: #ff7f0e"/>
    <path clip-path="url(#p4d8011f6bb)" style="fill: none; stroke: #ff7f0e"/>
    <path clip-path="url(#p4d8011f6bb)" style="fill: none; stroke: #ff7f0e"/>
    <path clip-path="url(#p4d8011f6bb)" style="fill: none; stroke: #ff7f0e"/>
    <path clip-path="url(#p4d8011f6bb)" style="fill: none; stroke: #ff7f0e"/>
    <path clip-path="url(#p4d8011f6bb)" style="fill: none; stroke: #ff7f0e"/>
    <path clip-path="url(#p4d8011f6bb)" style="fill: none; stroke: #ff7f0e"/>
   </g>
   <g id="line2d_39">
    <path d="M 91.55017 618.620931 
L 93.680716 618.566168 
L 95.10108 618.22405 
L 95.811261 617.851739 
L 96.521443 617.304768 
L 97.231625 616.563106 
L 97.941807 615.6155 
L 99.36217 613.096934 
L 100.782534 609.800325 
L 102.202898 605.848109 
L 104.333443 599.038416 
L 112.145443 572.600598 
L 114.275989 566.50488 
L 116.406534 561.213057 
L 117.826898 558.154284 
L 119.247261 555.471194 
L 120.667625 553.155334 
L 122.087989 551.19256 
L 123.508352 549.564658 
L 124.928716 548.250686 
L 126.34908 547.228069 
L 127.769443 546.473464 
L 129.189807 545.963438 
L 130.61017 545.674975 
L 132.030534 545.585853 
L 133.450898 545.674904 
L 135.581443 546.0993 
L 137.711989 546.818402 
L 139.842534 547.777556 
L 142.683261 549.348181 
L 146.23417 551.649301 
L 150.495261 554.716899 
L 160.437807 562.286294 
L 167.539625 567.520841 
L 173.22108 571.439663 
L 178.902534 575.075071 
L 184.583989 578.417224 
L 190.265443 581.472477 
L 195.946898 584.255851 
L 201.628352 586.786502 
L 207.309807 589.085059 
L 213.701443 591.419106 
L 220.09308 593.513372 
L 227.194898 595.590462 
L 234.296716 597.435404 
L 242.108716 599.230557 
L 250.630898 600.94656 
L 259.863261 602.56172 
L 269.805807 604.061793 
L 280.458534 605.439336 
L 292.531625 606.764628 
L 306.02508 608.006599 
L 320.938898 609.147311 
L 337.983261 610.2207 
L 357.868352 611.239554 
L 381.304352 612.205224 
L 409.001443 613.115006 
L 442.379989 613.982745 
L 446.64108 614.079821 
L 446.64108 614.079821 
" clip-path="url(#p4d8011f6bb)" style="fill: none; stroke: #000000; stroke-width: 2; stroke-linecap: square"/>
   </g>
   <g id="line2d_40">
    <path d="M 91.55017 618.620931 
L 105.753807 614.11368 
L 112.855625 579.534752 
L 119.957443 534.179745 
L 134.16108 467.714685 
L 148.364716 447.043804 
L 176.771989 499.983684 
L 205.179261 541.6995 
L 233.586534 564.55889 
L 432.437443 613.345131 
" clip-path="url(#p4d8011f6bb)" style="fill: none; stroke-dasharray: 3.7,1.6; stroke-dashoffset: 0; stroke: #000000"/>
    <g clip-path="url(#p4d8011f6bb)">
     <use xlink:href="#ma3934791ad" x="91.55017" y="618.620931" style="stroke: #000000; stroke-linejoin: miter"/>
     <use xlink:href="#ma3934791ad" x="105.753807" y="614.11368" style="stroke: #000000; stroke-linejoin: miter"/>
     <use xlink:href="#ma3934791ad" x="112.855625" y="579.534752" style="stroke: #000000; stroke-linejoin: miter"/>
     <use xlink:href="#ma3934791ad" x="119.957443" y="534.179745" style="stroke: #000000; stroke-linejoin: miter"/>
     <use xlink:href="#ma3934791ad" x="134.16108" y="467.714685" style="stroke: #000000; stroke-linejoin: miter"/>
     <use xlink:href="#ma3934791ad" x="148.364716" y="447.043804" style="stroke: #000000; stroke-linejoin: miter"/>
     <use xlink:href="#ma3934791ad" x="176.771989" y="499.983684" style="stroke: #000000; stroke-linejoin: miter"/>
     <use xlink:href="#ma3934791ad" x="205.179261" y="541.6995" style="stroke: #000000; stroke-linejoin: miter"/>
     <use xlink:href="#ma3934791ad" x="233.586534" y="564.55889" style="stroke: #000000; stroke-linejoin: miter"/>
     <use xlink:href="#ma3934791ad" x="432.437443" y="613.345131" style="stroke: #000000; stroke-linejoin: miter"/>
    </g>
   </g>
   <g id="line2d_41">
    <path d="M 91.55017 618.620931 
L 95.10108 618.512778 
L 96.521443 618.24746 
L 97.941807 617.750092 
L 99.36217 617.002428 
L 100.782534 616.020099 
L 102.91308 614.186672 
L 105.753807 611.30169 
L 113.565807 603.00405 
L 116.406534 600.390301 
L 119.247261 598.132397 
L 121.377807 596.689733 
L 123.508352 595.463649 
L 125.638898 594.448326 
L 127.769443 593.633063 
L 129.899989 593.003758 
L 132.740716 592.425685 
L 135.581443 592.107996 
L 138.42217 592.009315 
L 141.97308 592.134506 
L 146.23417 592.560056 
L 151.205443 593.314129 
L 158.307261 594.65665 
L 183.163625 599.569483 
L 193.10617 601.22155 
L 203.048716 602.653656 
L 213.701443 603.967284 
L 225.774534 605.220529 
L 238.557807 606.323926 
L 253.471625 607.381663 
L 270.515989 608.359404 
L 290.40108 609.271929 
L 314.547261 610.149197 
L 344.374898 611.002176 
L 382.724716 611.867178 
L 433.147625 612.772437 
L 446.64108 612.984763 
L 446.64108 612.984763 
" clip-path="url(#p4d8011f6bb)" style="fill: none; stroke: #ff7f0e; stroke-width: 2; stroke-linecap: square"/>
   </g>
   <g id="line2d_42">
    <path d="M 91.55017 618.620931 
L 98.651989 618.612607 
L 105.753807 618.603305 
L 112.855625 618.620931 
L 119.957443 618.620931 
L 134.16108 615.87232 
L 148.364716 614.057376 
L 176.771989 612.223827 
L 205.179261 611.288692 
L 233.586534 611.250993 
L 432.437443 615.478193 
" clip-path="url(#p4d8011f6bb)" style="fill: none; stroke-dasharray: 3.7,1.6; stroke-dashoffset: 0; stroke: #ff7f0e"/>
    <g clip-path="url(#p4d8011f6bb)">
     <use xlink:href="#md55648cab8" x="91.55017" y="618.620931" style="fill: #ff7f0e; stroke: #000000; stroke-linejoin: miter"/>
     <use xlink:href="#md55648cab8" x="98.651989" y="618.612607" style="fill: #ff7f0e; stroke: #000000; stroke-linejoin: miter"/>
     <use xlink:href="#md55648cab8" x="105.753807" y="618.603305" style="fill: #ff7f0e; stroke: #000000; stroke-linejoin: miter"/>
     <use xlink:href="#md55648cab8" x="112.855625" y="618.620931" style="fill: #ff7f0e; stroke: #000000; stroke-linejoin: miter"/>
     <use xlink:href="#md55648cab8" x="119.957443" y="618.620931" style="fill: #ff7f0e; stroke: #000000; stroke-linejoin: miter"/>
     <use xlink:href="#md55648cab8" x="134.16108" y="615.87232" style="fill: #ff7f0e; stroke: #000000; stroke-linejoin: miter"/>
     <use xlink:href="#md55648cab8" x="148.364716" y="614.057376" style="fill: #ff7f0e; stroke: #000000; stroke-linejoin: miter"/>
     <use xlink:href="#md55648cab8" x="176.771989" y="612.223827" style="fill: #ff7f0e; stroke: #000000; stroke-linejoin: miter"/>
     <use xlink:href="#md55648cab8" x="205.179261" y="611.288692" style="fill: #ff7f0e; stroke: #000000; stroke-linejoin: miter"/>
     <use xlink:href="#md55648cab8" x="233.586534" y="611.250993" style="fill: #ff7f0e; stroke: #000000; stroke-linejoin: miter"/>
     <use xlink:href="#md55648cab8" x="432.437443" y="615.478193" style="fill: #ff7f0e; stroke: #000000; stroke-linejoin: miter"/>
    </g>
   </g>
   <g id="patch_9">
    <path d="M 73.795625 633.6 
L 73.795625 392.556522 
" style="fill: none; stroke: #000000; stroke-width: 0.8; stroke-linejoin: miter; stroke-linecap: square"/>
   </g>
   <g id="patch_10">
    <path d="M 464.395625 633.6 
L 464.395625 392.556522 
" style="fill: none; stroke: #000000; stroke-width: 0.8; stroke-linejoin: miter; stroke-linecap: square"/>
   </g>
   <g id="patch_11">
    <path d="M 73.795625 633.6 
L 464.395625 633.6 
" style="fill: none; stroke: #000000; stroke-width: 0.8; stroke-linejoin: miter; stroke-linecap: square"/>
   </g>
   <g id="patch_12">
    <path d="M 73.795625 392.556522 
L 464.395625 392.556522 
" style="fill: none; stroke: #000000; stroke-width: 0.8; stroke-linejoin: miter; stroke-linecap: square"/>
   </g>
   <g id="legend_2">
    <g id="patch_13">
     <path d="M 303.28 459.269022 
L 457.395625 459.269022 
Q 459.395625 459.269022 459.395625 457.269022 
L 459.395625 399.556522 
Q 459.395625 397.556522 457.395625 397.556522 
L 303.28 397.556522 
Q 301.28 397.556522 301.28 399.556522 
L 301.28 457.269022 
Q 301.28 459.269022 303.28 459.269022 
z
" style="fill: #ffffff; opacity: 0.8; stroke: #cccccc; stroke-linejoin: miter"/>
    </g>
    <g id="line2d_43">
     <path d="M 305.28 405.654959 
L 325.28 405.654959 
" style="fill: none; stroke: #000000; stroke-width: 2; stroke-linecap: square"/>
    </g>
    <g id="line2d_44"/>
    <g id="text_35">
     <!-- Sim *1/*1 50 mg -->
     <g transform="translate(333.28 409.154959) scale(0.1 -0.1)">
      <use xlink:href="#DejaVuSans-53"/>
      <use xlink:href="#DejaVuSans-69" transform="translate(63.476562 0)"/>
      <use xlink:href="#DejaVuSans-6d" transform="translate(91.259766 0)"/>
      <use xlink:href="#DejaVuSans-20" transform="translate(188.671875 0)"/>
      <use xlink:href="#DejaVuSans-2a" transform="translate(220.458984 0)"/>
      <use xlink:href="#DejaVuSans-31" transform="translate(270.458984 0)"/>
      <use xlink:href="#DejaVuSans-2f" transform="translate(334.082031 0)"/>
      <use xlink:href="#DejaVuSans-2a" transform="translate(367.773438 0)"/>
      <use xlink:href="#DejaVuSans-31" transform="translate(417.773438 0)"/>
      <use xlink:href="#DejaVuSans-20" transform="translate(481.396484 0)"/>
      <use xlink:href="#DejaVuSans-35" transform="translate(513.183594 0)"/>
      <use xlink:href="#DejaVuSans-30" transform="translate(576.806641 0)"/>
      <use xlink:href="#DejaVuSans-20" transform="translate(640.429688 0)"/>
      <use xlink:href="#DejaVuSans-6d" transform="translate(672.216797 0)"/>
      <use xlink:href="#DejaVuSans-67" transform="translate(769.628906 0)"/>
     </g>
    </g>
    <g id="LineCollection_7">
     <path d="M 315.28 425.333084 
L 315.28 415.333084 
" style="fill: none; stroke: #000000"/>
    </g>
    <g id="line2d_45">
     <path d="M 305.28 420.333084 
L 325.28 420.333084 
" style="fill: none; stroke-dasharray: 3.7,1.6; stroke-dashoffset: 0; stroke: #000000"/>
    </g>
    <g id="line2d_46">
     <g>
      <use xlink:href="#ma3934791ad" x="315.28" y="420.333084" style="stroke: #000000; stroke-linejoin: miter"/>
     </g>
    </g>
    <g id="text_36">
     <!-- *1/*1 50 mg±SD (n=12) -->
     <g transform="translate(333.28 423.833084) scale(0.1 -0.1)">
      <use xlink:href="#DejaVuSans-2a"/>
      <use xlink:href="#DejaVuSans-31" transform="translate(50 0)"/>
      <use xlink:href="#DejaVuSans-2f" transform="translate(113.623047 0)"/>
      <use xlink:href="#DejaVuSans-2a" transform="translate(147.314453 0)"/>
      <use xlink:href="#DejaVuSans-31" transform="translate(197.314453 0)"/>
      <use xlink:href="#DejaVuSans-20" transform="translate(260.9375 0)"/>
      <use xlink:href="#DejaVuSans-35" transform="translate(292.724609 0)"/>
      <use xlink:href="#DejaVuSans-30" transform="translate(356.347656 0)"/>
      <use xlink:href="#DejaVuSans-20" transform="translate(419.970703 0)"/>
      <use xlink:href="#DejaVuSans-6d" transform="translate(451.757812 0)"/>
      <use xlink:href="#DejaVuSans-67" transform="translate(549.169922 0)"/>
      <use xlink:href="#DejaVuSans-b1" transform="translate(612.646484 0)"/>
      <use xlink:href="#DejaVuSans-53" transform="translate(696.435547 0)"/>
      <use xlink:href="#DejaVuSans-44" transform="translate(759.912109 0)"/>
      <use xlink:href="#DejaVuSans-20" transform="translate(836.914062 0)"/>
      <use xlink:href="#DejaVuSans-28" transform="translate(868.701172 0)"/>
      <use xlink:href="#DejaVuSans-6e" transform="translate(907.714844 0)"/>
      <use xlink:href="#DejaVuSans-3d" transform="translate(971.09375 0)"/>
      <use xlink:href="#DejaVuSans-31" transform="translate(1054.882812 0)"/>
      <use xlink:href="#DejaVuSans-32" transform="translate(1118.505859 0)"/>
      <use xlink:href="#DejaVuSans-29" transform="translate(1182.128906 0)"/>
     </g>
    </g>
    <g id="line2d_47">
     <path d="M 305.28 435.011209 
L 325.28 435.011209 
" style="fill: none; stroke: #ff7f0e; stroke-width: 2; stroke-linecap: square"/>
    </g>
    <g id="line2d_48"/>
    <g id="text_37">
     <!-- Sim *3/*3 50 mg -->
     <g transform="translate(333.28 438.511209) scale(0.1 -0.1)">
      <use xlink:href="#DejaVuSans-53"/>
      <use xlink:href="#DejaVuSans-69" transform="translate(63.476562 0)"/>
      <use xlink:href="#DejaVuSans-6d" transform="translate(91.259766 0)"/>
      <use xlink:href="#DejaVuSans-20" transform="translate(188.671875 0)"/>
      <use xlink:href="#DejaVuSans-2a" transform="translate(220.458984 0)"/>
      <use xlink:href="#DejaVuSans-33" transform="translate(270.458984 0)"/>
      <use xlink:href="#DejaVuSans-2f" transform="translate(334.082031 0)"/>
      <use xlink:href="#DejaVuSans-2a" transform="translate(367.773438 0)"/>
      <use xlink:href="#DejaVuSans-33" transform="translate(417.773438 0)"/>
      <use xlink:href="#DejaVuSans-20" transform="translate(481.396484 0)"/>
      <use xlink:href="#DejaVuSans-35" transform="translate(513.183594 0)"/>
      <use xlink:href="#DejaVuSans-30" transform="translate(576.806641 0)"/>
      <use xlink:href="#DejaVuSans-20" transform="translate(640.429688 0)"/>
      <use xlink:href="#DejaVuSans-6d" transform="translate(672.216797 0)"/>
      <use xlink:href="#DejaVuSans-67" transform="translate(769.628906 0)"/>
     </g>
    </g>
    <g id="LineCollection_8">
     <path d="M 315.28 454.689334 
L 315.28 444.689334 
" style="fill: none; stroke: #ff7f0e"/>
    </g>
    <g id="line2d_49">
     <path d="M 305.28 449.689334 
L 325.28 449.689334 
" style="fill: none; stroke-dasharray: 3.7,1.6; stroke-dashoffset: 0; stroke: #ff7f0e"/>
    </g>
    <g id="line2d_50">
     <g>
      <use xlink:href="#md55648cab8" x="315.28" y="449.689334" style="fill: #ff7f0e; stroke: #000000; stroke-linejoin: miter"/>
     </g>
    </g>
    <g id="text_38">
     <!-- *3/*3 50 mg±SD (n=1) -->
     <g transform="translate(333.28 453.189334) scale(0.1 -0.1)">
      <use xlink:href="#DejaVuSans-2a"/>
      <use xlink:href="#DejaVuSans-33" transform="translate(50 0)"/>
      <use xlink:href="#DejaVuSans-2f" transform="translate(113.623047 0)"/>
      <use xlink:href="#DejaVuSans-2a" transform="translate(147.314453 0)"/>
      <use xlink:href="#DejaVuSans-33" transform="translate(197.314453 0)"/>
      <use xlink:href="#DejaVuSans-20" transform="translate(260.9375 0)"/>
      <use xlink:href="#DejaVuSans-35" transform="translate(292.724609 0)"/>
      <use xlink:href="#DejaVuSans-30" transform="translate(356.347656 0)"/>
      <use xlink:href="#DejaVuSans-20" transform="translate(419.970703 0)"/>
      <use xlink:href="#DejaVuSans-6d" transform="translate(451.757812 0)"/>
      <use xlink:href="#DejaVuSans-67" transform="translate(549.169922 0)"/>
      <use xlink:href="#DejaVuSans-b1" transform="translate(612.646484 0)"/>
      <use xlink:href="#DejaVuSans-53" transform="translate(696.435547 0)"/>
      <use xlink:href="#DejaVuSans-44" transform="translate(759.912109 0)"/>
      <use xlink:href="#DejaVuSans-20" transform="translate(836.914062 0)"/>
      <use xlink:href="#DejaVuSans-28" transform="translate(868.701172 0)"/>
      <use xlink:href="#DejaVuSans-6e" transform="translate(907.714844 0)"/>
      <use xlink:href="#DejaVuSans-3d" transform="translate(971.09375 0)"/>
      <use xlink:href="#DejaVuSans-31" transform="translate(1054.882812 0)"/>
      <use xlink:href="#DejaVuSans-29" transform="translate(1118.505859 0)"/>
     </g>
    </g>
   </g>
  </g>
  <g id="text_39">
   <!-- Bae2011 (healthy) -->
   <g transform="translate(132.668672 26.196094) scale(0.25 -0.25)">
    <defs>
     <path id="DejaVuSans-Bold-42" d="M 2456 2859 
Q 2741 2859 2887 2984 
Q 3034 3109 3034 3353 
Q 3034 3594 2887 3720 
Q 2741 3847 2456 3847 
L 1791 3847 
L 1791 2859 
L 2456 2859 
z
M 2497 819 
Q 2859 819 3042 972 
Q 3225 1125 3225 1434 
Q 3225 1738 3044 1889 
Q 2863 2041 2497 2041 
L 1791 2041 
L 1791 819 
L 2497 819 
z
M 3616 2497 
Q 4003 2384 4215 2081 
Q 4428 1778 4428 1338 
Q 4428 663 3972 331 
Q 3516 0 2584 0 
L 588 0 
L 588 4666 
L 2394 4666 
Q 3366 4666 3802 4372 
Q 4238 4078 4238 3431 
Q 4238 3091 4078 2852 
Q 3919 2613 3616 2497 
z
" transform="scale(0.015625)"/>
     <path id="DejaVuSans-Bold-32" d="M 1844 884 
L 3897 884 
L 3897 0 
L 506 0 
L 506 884 
L 2209 2388 
Q 2438 2594 2547 2791 
Q 2656 2988 2656 3200 
Q 2656 3528 2436 3728 
Q 2216 3928 1850 3928 
Q 1569 3928 1234 3808 
Q 900 3688 519 3450 
L 519 4475 
Q 925 4609 1322 4679 
Q 1719 4750 2100 4750 
Q 2938 4750 3402 4381 
Q 3866 4013 3866 3353 
Q 3866 2972 3669 2642 
Q 3472 2313 2841 1759 
L 1844 884 
z
" transform="scale(0.015625)"/>
     <path id="DejaVuSans-Bold-30" d="M 2944 2338 
Q 2944 3213 2780 3570 
Q 2616 3928 2228 3928 
Q 1841 3928 1675 3570 
Q 1509 3213 1509 2338 
Q 1509 1453 1675 1090 
Q 1841 728 2228 728 
Q 2613 728 2778 1090 
Q 2944 1453 2944 2338 
z
M 4147 2328 
Q 4147 1169 3647 539 
Q 3147 -91 2228 -91 
Q 1306 -91 806 539 
Q 306 1169 306 2328 
Q 306 3491 806 4120 
Q 1306 4750 2228 4750 
Q 3147 4750 3647 4120 
Q 4147 3491 4147 2328 
z
" transform="scale(0.015625)"/>
     <path id="DejaVuSans-Bold-28" d="M 2413 -844 
L 1484 -844 
Q 1006 -72 778 623 
Q 550 1319 550 2003 
Q 550 2688 779 3389 
Q 1009 4091 1484 4856 
L 2413 4856 
Q 2013 4116 1813 3408 
Q 1613 2700 1613 2009 
Q 1613 1319 1811 609 
Q 2009 -100 2413 -844 
z
" transform="scale(0.015625)"/>
     <path id="DejaVuSans-Bold-6c" d="M 538 4863 
L 1656 4863 
L 1656 0 
L 538 0 
L 538 4863 
z
" transform="scale(0.015625)"/>
     <path id="DejaVuSans-Bold-79" d="M 78 3500 
L 1197 3500 
L 2138 1125 
L 2938 3500 
L 4056 3500 
L 2584 -331 
Q 2363 -916 2067 -1148 
Q 1772 -1381 1288 -1381 
L 641 -1381 
L 641 -647 
L 991 -647 
Q 1275 -647 1404 -556 
Q 1534 -466 1606 -231 
L 1638 -134 
L 78 3500 
z
" transform="scale(0.015625)"/>
     <path id="DejaVuSans-Bold-29" d="M 513 -844 
Q 913 -100 1113 609 
Q 1313 1319 1313 2009 
Q 1313 2700 1113 3408 
Q 913 4116 513 4856 
L 1441 4856 
Q 1916 4091 2145 3389 
Q 2375 2688 2375 2003 
Q 2375 1319 2147 623 
Q 1919 -72 1441 -844 
L 513 -844 
z
" transform="scale(0.015625)"/>
    </defs>
    <use xlink:href="#DejaVuSans-Bold-42"/>
    <use xlink:href="#DejaVuSans-Bold-61" transform="translate(76.220703 0)"/>
    <use xlink:href="#DejaVuSans-Bold-65" transform="translate(143.701172 0)"/>
    <use xlink:href="#DejaVuSans-Bold-32" transform="translate(211.523438 0)"/>
    <use xlink:href="#DejaVuSans-Bold-30" transform="translate(281.103516 0)"/>
    <use xlink:href="#DejaVuSans-Bold-31" transform="translate(350.683594 0)"/>
    <use xlink:href="#DejaVuSans-Bold-31" transform="translate(420.263672 0)"/>
    <use xlink:href="#DejaVuSans-Bold-20" transform="translate(489.84375 0)"/>
    <use xlink:href="#DejaVuSans-Bold-28" transform="translate(524.658203 0)"/>
    <use xlink:href="#DejaVuSans-Bold-68" transform="translate(570.361328 0)"/>
    <use xlink:href="#DejaVuSans-Bold-65" transform="translate(641.552734 0)"/>
    <use xlink:href="#DejaVuSans-Bold-61" transform="translate(709.375 0)"/>
    <use xlink:href="#DejaVuSans-Bold-6c" transform="translate(776.855469 0)"/>
    <use xlink:href="#DejaVuSans-Bold-74" transform="translate(811.132812 0)"/>
    <use xlink:href="#DejaVuSans-Bold-68" transform="translate(858.935547 0)"/>
    <use xlink:href="#DejaVuSans-Bold-79" transform="translate(930.126953 0)"/>
    <use xlink:href="#DejaVuSans-Bold-29" transform="translate(995.3125 0)"/>
   </g>
  </g>
 </g>
 <defs>
  <clipPath id="p17a8a81e5e">
   <rect x="73.795625" y="79.2" width="390.6" height="241.043478"/>
  </clipPath>
  <clipPath id="p4d8011f6bb">
   <rect x="73.795625" y="392.556522" width="390.6" height="241.043478"/>
  </clipPath>
 </defs>
</svg>
