<?xml version="1.0" encoding="utf-8" standalone="no"?>
<!DOCTYPE svg PUBLIC "-//W3C//DTD SVG 1.1//EN"
  "http://www.w3.org/Graphics/SVG/1.1/DTD/svg11.dtd">
<svg xmlns:xlink="http://www.w3.org/1999/xlink" width="474.621406pt" height="683.737812pt" viewBox="0 0 474.621406 683.737812" xmlns="http://www.w3.org/2000/svg" version="1.1">
 <metadata>
  <rdf:RDF xmlns:dc="http://purl.org/dc/elements/1.1/" xmlns:cc="http://creativecommons.org/ns#" xmlns:rdf="http://www.w3.org/1999/02/22-rdf-syntax-ns#">
   <cc:Work>
    <dc:type rdf:resource="http://purl.org/dc/dcmitype/StillImage"/>
    <dc:date>2025-10-07T16:17:58.870211</dc:date>
    <dc:format>image/svg+xml</dc:format>
    <dc:creator>
     <cc:Agent>
      <dc:title>Matplotlib v3.10.6, https://matplotlib.org/</dc:title>
     </cc:Agent>
    </dc:creator>
   </cc:Work>
  </rdf:RDF>
 </metadata>
 <defs>
  <style type="text/css">*{stroke-linejoin: round; stroke-linecap: butt}</style>
 </defs>
 <g id="figure_1">
  <g id="patch_1">
   <path d="M 0 683.737812 
L 474.621406 683.737812 
L 474.621406 0 
L 0 0 
z
" style="fill: #ffffff"/>
  </g>
  <g id="axes_1">
   <g id="patch_2">
    <path d="M 76.821406 320.243478 
L 467.421406 320.243478 
L 467.421406 79.2 
L 76.821406 79.2 
z
" style="fill: #ffffff"/>
   </g>
   <g id="matplotlib.axis_1">
    <g id="xtick_1">
     <g id="line2d_1">
      <defs>
       <path id="m04732bc2f7" d="M 0 0 
L 0 3.5 
" style="stroke: #000000; stroke-width: 0.8"/>
      </defs>
      <g>
       <use xlink:href="#m04732bc2f7" x="94.575952" y="320.243478" style="stroke: #000000; stroke-width: 0.8"/>
      </g>
     </g>
     <g id="text_1">
      <!-- 0 -->
      <g transform="translate(89.804077 338.641135) scale(0.15 -0.15)">
       <defs>
        <path id="DejaVuSans-30" d="M 2034 4250 
Q 1547 4250 1301 3770 
Q 1056 3291 1056 2328 
Q 1056 1369 1301 889 
Q 1547 409 2034 409 
Q 2525 409 2770 889 
Q 3016 1369 3016 2328 
Q 3016 3291 2770 3770 
Q 2525 4250 2034 4250 
z
M 2034 4750 
Q 2819 4750 3233 4129 
Q 3647 3509 3647 2328 
Q 3647 1150 3233 529 
Q 2819 -91 2034 -91 
Q 1250 -91 836 529 
Q 422 1150 422 2328 
Q 422 3509 836 4129 
Q 1250 4750 2034 4750 
z
" transform="scale(0.015625)"/>
       </defs>
       <use xlink:href="#DejaVuSans-30"/>
      </g>
     </g>
    </g>
    <g id="xtick_2">
     <g id="line2d_2">
      <g>
       <use xlink:href="#m04732bc2f7" x="165.594134" y="320.243478" style="stroke: #000000; stroke-width: 0.8"/>
      </g>
     </g>
     <g id="text_2">
      <!-- 5 -->
      <g transform="translate(160.822259 338.641135) scale(0.15 -0.15)">
       <defs>
        <path id="DejaVuSans-35" d="M 691 4666 
L 3169 4666 
L 3169 4134 
L 1269 4134 
L 1269 2991 
Q 1406 3038 1543 3061 
Q 1681 3084 1819 3084 
Q 2600 3084 3056 2656 
Q 3513 2228 3513 1497 
Q 3513 744 3044 326 
Q 2575 -91 1722 -91 
Q 1428 -91 1123 -41 
Q 819 9 494 109 
L 494 744 
Q 775 591 1075 516 
Q 1375 441 1709 441 
Q 2250 441 2565 725 
Q 2881 1009 2881 1497 
Q 2881 1984 2565 2268 
Q 2250 2553 1709 2553 
Q 1456 2553 1204 2497 
Q 953 2441 691 2322 
L 691 4666 
z
" transform="scale(0.015625)"/>
       </defs>
       <use xlink:href="#DejaVuSans-35"/>
      </g>
     </g>
    </g>
    <g id="xtick_3">
     <g id="line2d_3">
      <g>
       <use xlink:href="#m04732bc2f7" x="236.612315" y="320.243478" style="stroke: #000000; stroke-width: 0.8"/>
      </g>
     </g>
     <g id="text_3">
      <!-- 10 -->
      <g transform="translate(227.068565 338.641135) scale(0.15 -0.15)">
       <defs>
        <path id="DejaVuSans-31" d="M 794 531 
L 1825 531 
L 1825 4091 
L 703 3866 
L 703 4441 
L 1819 4666 
L 2450 4666 
L 2450 531 
L 3481 531 
L 3481 0 
L 794 0 
L 794 531 
z
" transform="scale(0.015625)"/>
       </defs>
       <use xlink:href="#DejaVuSans-31"/>
       <use xlink:href="#DejaVuSans-30" transform="translate(63.623047 0)"/>
      </g>
     </g>
    </g>
    <g id="xtick_4">
     <g id="line2d_4">
      <g>
       <use xlink:href="#m04732bc2f7" x="307.630497" y="320.243478" style="stroke: #000000; stroke-width: 0.8"/>
      </g>
     </g>
     <g id="text_4">
      <!-- 15 -->
      <g transform="translate(298.086747 338.641135) scale(0.15 -0.15)">
       <use xlink:href="#DejaVuSans-31"/>
       <use xlink:href="#DejaVuSans-35" transform="translate(63.623047 0)"/>
      </g>
     </g>
    </g>
    <g id="xtick_5">
     <g id="line2d_5">
      <g>
       <use xlink:href="#m04732bc2f7" x="378.648679" y="320.243478" style="stroke: #000000; stroke-width: 0.8"/>
      </g>
     </g>
     <g id="text_5">
      <!-- 20 -->
      <g transform="translate(369.104929 338.641135) scale(0.15 -0.15)">
       <defs>
        <path id="DejaVuSans-32" d="M 1228 531 
L 3431 531 
L 3431 0 
L 469 0 
L 469 531 
Q 828 903 1448 1529 
Q 2069 2156 2228 2338 
Q 2531 2678 2651 2914 
Q 2772 3150 2772 3378 
Q 2772 3750 2511 3984 
Q 2250 4219 1831 4219 
Q 1534 4219 1204 4116 
Q 875 4013 500 3803 
L 500 4441 
Q 881 4594 1212 4672 
Q 1544 4750 1819 4750 
Q 2544 4750 2975 4387 
Q 3406 4025 3406 3419 
Q 3406 3131 3298 2873 
Q 3191 2616 2906 2266 
Q 2828 2175 2409 1742 
Q 1991 1309 1228 531 
z
" transform="scale(0.015625)"/>
       </defs>
       <use xlink:href="#DejaVuSans-32"/>
       <use xlink:href="#DejaVuSans-30" transform="translate(63.623047 0)"/>
      </g>
     </g>
    </g>
    <g id="xtick_6">
     <g id="line2d_6">
      <g>
       <use xlink:href="#m04732bc2f7" x="449.666861" y="320.243478" style="stroke: #000000; stroke-width: 0.8"/>
      </g>
     </g>
     <g id="text_6">
      <!-- 25 -->
      <g transform="translate(440.123111 338.641135) scale(0.15 -0.15)">
       <use xlink:href="#DejaVuSans-32"/>
       <use xlink:href="#DejaVuSans-35" transform="translate(63.623047 0)"/>
      </g>
     </g>
    </g>
    <g id="text_7">
     <!-- Time [hr] -->
     <g transform="translate(225.208906 359.437853) scale(0.18 -0.18)">
      <defs>
       <path id="DejaVuSans-Bold-54" d="M 31 4666 
L 4331 4666 
L 4331 3756 
L 2784 3756 
L 2784 0 
L 1581 0 
L 1581 3756 
L 31 3756 
L 31 4666 
z
" transform="scale(0.015625)"/>
       <path id="DejaVuSans-Bold-69" d="M 538 3500 
L 1656 3500 
L 1656 0 
L 538 0 
L 538 3500 
z
M 538 4863 
L 1656 4863 
L 1656 3950 
L 538 3950 
L 538 4863 
z
" transform="scale(0.015625)"/>
       <path id="DejaVuSans-Bold-6d" d="M 3781 2919 
Q 3994 3244 4286 3414 
Q 4578 3584 4928 3584 
Q 5531 3584 5847 3212 
Q 6163 2841 6163 2131 
L 6163 0 
L 5038 0 
L 5038 1825 
Q 5041 1866 5042 1909 
Q 5044 1953 5044 2034 
Q 5044 2406 4934 2573 
Q 4825 2741 4581 2741 
Q 4263 2741 4089 2478 
Q 3916 2216 3909 1719 
L 3909 0 
L 2784 0 
L 2784 1825 
Q 2784 2406 2684 2573 
Q 2584 2741 2328 2741 
Q 2006 2741 1831 2477 
Q 1656 2213 1656 1722 
L 1656 0 
L 531 0 
L 531 3500 
L 1656 3500 
L 1656 2988 
Q 1863 3284 2130 3434 
Q 2397 3584 2719 3584 
Q 3081 3584 3359 3409 
Q 3638 3234 3781 2919 
z
" transform="scale(0.015625)"/>
       <path id="DejaVuSans-Bold-65" d="M 4031 1759 
L 4031 1441 
L 1416 1441 
Q 1456 1047 1700 850 
Q 1944 653 2381 653 
Q 2734 653 3104 758 
Q 3475 863 3866 1075 
L 3866 213 
Q 3469 63 3072 -14 
Q 2675 -91 2278 -91 
Q 1328 -91 801 392 
Q 275 875 275 1747 
Q 275 2603 792 3093 
Q 1309 3584 2216 3584 
Q 3041 3584 3536 3087 
Q 4031 2591 4031 1759 
z
M 2881 2131 
Q 2881 2450 2695 2645 
Q 2509 2841 2209 2841 
Q 1884 2841 1681 2658 
Q 1478 2475 1428 2131 
L 2881 2131 
z
" transform="scale(0.015625)"/>
       <path id="DejaVuSans-Bold-20" transform="scale(0.015625)"/>
       <path id="DejaVuSans-Bold-5b" d="M 550 4863 
L 2491 4863 
L 2491 4159 
L 1613 4159 
L 1613 -141 
L 2491 -141 
L 2491 -844 
L 550 -844 
L 550 4863 
z
" transform="scale(0.015625)"/>
       <path id="DejaVuSans-Bold-68" d="M 4056 2131 
L 4056 0 
L 2931 0 
L 2931 347 
L 2931 1625 
Q 2931 2084 2911 2256 
Q 2891 2428 2841 2509 
Q 2775 2619 2662 2680 
Q 2550 2741 2406 2741 
Q 2056 2741 1856 2470 
Q 1656 2200 1656 1722 
L 1656 0 
L 538 0 
L 538 4863 
L 1656 4863 
L 1656 2988 
Q 1909 3294 2193 3439 
Q 2478 3584 2822 3584 
Q 3428 3584 3742 3212 
Q 4056 2841 4056 2131 
z
" transform="scale(0.015625)"/>
       <path id="DejaVuSans-Bold-72" d="M 3138 2547 
Q 2991 2616 2845 2648 
Q 2700 2681 2553 2681 
Q 2122 2681 1889 2404 
Q 1656 2128 1656 1613 
L 1656 0 
L 538 0 
L 538 3500 
L 1656 3500 
L 1656 2925 
Q 1872 3269 2151 3426 
Q 2431 3584 2822 3584 
Q 2878 3584 2943 3579 
Q 3009 3575 3134 3559 
L 3138 2547 
z
" transform="scale(0.015625)"/>
       <path id="DejaVuSans-Bold-5d" d="M 2375 -844 
L 434 -844 
L 434 -141 
L 1313 -141 
L 1313 4159 
L 434 4159 
L 434 4863 
L 2375 4863 
L 2375 -844 
z
" transform="scale(0.015625)"/>
      </defs>
      <use xlink:href="#DejaVuSans-Bold-54"/>
      <use xlink:href="#DejaVuSans-Bold-69" transform="translate(68.212891 0)"/>
      <use xlink:href="#DejaVuSans-Bold-6d" transform="translate(102.490234 0)"/>
      <use xlink:href="#DejaVuSans-Bold-65" transform="translate(206.689453 0)"/>
      <use xlink:href="#DejaVuSans-Bold-20" transform="translate(274.511719 0)"/>
      <use xlink:href="#DejaVuSans-Bold-5b" transform="translate(309.326172 0)"/>
      <use xlink:href="#DejaVuSans-Bold-68" transform="translate(355.029297 0)"/>
      <use xlink:href="#DejaVuSans-Bold-72" transform="translate(426.220703 0)"/>
      <use xlink:href="#DejaVuSans-Bold-5d" transform="translate(475.537109 0)"/>
     </g>
    </g>
   </g>
   <g id="matplotlib.axis_2">
    <g id="ytick_1">
     <g id="line2d_7">
      <defs>
       <path id="mb14cf3716b" d="M 0 0 
L -3.5 0 
" style="stroke: #000000; stroke-width: 0.8"/>
      </defs>
      <g>
       <use xlink:href="#mb14cf3716b" x="76.821406" y="297.877787" style="stroke: #000000; stroke-width: 0.8"/>
      </g>
     </g>
     <g id="text_8">
      <!-- −250 -->
      <g transform="translate(28.620625 303.576615) scale(0.15 -0.15)">
       <defs>
        <path id="DejaVuSans-2212" d="M 678 2272 
L 4684 2272 
L 4684 1741 
L 678 1741 
L 678 2272 
z
" transform="scale(0.015625)"/>
       </defs>
       <use xlink:href="#DejaVuSans-2212"/>
       <use xlink:href="#DejaVuSans-32" transform="translate(83.789062 0)"/>
       <use xlink:href="#DejaVuSans-35" transform="translate(147.412109 0)"/>
       <use xlink:href="#DejaVuSans-30" transform="translate(211.035156 0)"/>
      </g>
     </g>
    </g>
    <g id="ytick_2">
     <g id="line2d_8">
      <g>
       <use xlink:href="#mb14cf3716b" x="76.821406" y="266.935008" style="stroke: #000000; stroke-width: 0.8"/>
      </g>
     </g>
     <g id="text_9">
      <!-- 0 -->
      <g transform="translate(60.277656 272.633836) scale(0.15 -0.15)">
       <use xlink:href="#DejaVuSans-30"/>
      </g>
     </g>
    </g>
    <g id="ytick_3">
     <g id="line2d_9">
      <g>
       <use xlink:href="#mb14cf3716b" x="76.821406" y="235.99223" style="stroke: #000000; stroke-width: 0.8"/>
      </g>
     </g>
     <g id="text_10">
      <!-- 250 -->
      <g transform="translate(41.190156 241.691058) scale(0.15 -0.15)">
       <use xlink:href="#DejaVuSans-32"/>
       <use xlink:href="#DejaVuSans-35" transform="translate(63.623047 0)"/>
       <use xlink:href="#DejaVuSans-30" transform="translate(127.246094 0)"/>
      </g>
     </g>
    </g>
    <g id="ytick_4">
     <g id="line2d_10">
      <g>
       <use xlink:href="#mb14cf3716b" x="76.821406" y="205.049452" style="stroke: #000000; stroke-width: 0.8"/>
      </g>
     </g>
     <g id="text_11">
      <!-- 500 -->
      <g transform="translate(41.190156 210.74828) scale(0.15 -0.15)">
       <use xlink:href="#DejaVuSans-35"/>
       <use xlink:href="#DejaVuSans-30" transform="translate(63.623047 0)"/>
       <use xlink:href="#DejaVuSans-30" transform="translate(127.246094 0)"/>
      </g>
     </g>
    </g>
    <g id="ytick_5">
     <g id="line2d_11">
      <g>
       <use xlink:href="#mb14cf3716b" x="76.821406" y="174.106673" style="stroke: #000000; stroke-width: 0.8"/>
      </g>
     </g>
     <g id="text_12">
      <!-- 750 -->
      <g transform="translate(41.190156 179.805501) scale(0.15 -0.15)">
       <defs>
        <path id="DejaVuSans-37" d="M 525 4666 
L 3525 4666 
L 3525 4397 
L 1831 0 
L 1172 0 
L 2766 4134 
L 525 4134 
L 525 4666 
z
" transform="scale(0.015625)"/>
       </defs>
       <use xlink:href="#DejaVuSans-37"/>
       <use xlink:href="#DejaVuSans-35" transform="translate(63.623047 0)"/>
       <use xlink:href="#DejaVuSans-30" transform="translate(127.246094 0)"/>
      </g>
     </g>
    </g>
    <g id="ytick_6">
     <g id="line2d_12">
      <g>
       <use xlink:href="#mb14cf3716b" x="76.821406" y="143.163895" style="stroke: #000000; stroke-width: 0.8"/>
      </g>
     </g>
     <g id="text_13">
      <!-- 1000 -->
      <g transform="translate(31.646406 148.862723) scale(0.15 -0.15)">
       <use xlink:href="#DejaVuSans-31"/>
       <use xlink:href="#DejaVuSans-30" transform="translate(63.623047 0)"/>
       <use xlink:href="#DejaVuSans-30" transform="translate(127.246094 0)"/>
       <use xlink:href="#DejaVuSans-30" transform="translate(190.869141 0)"/>
      </g>
     </g>
    </g>
    <g id="ytick_7">
     <g id="line2d_13">
      <g>
       <use xlink:href="#mb14cf3716b" x="76.821406" y="112.221116" style="stroke: #000000; stroke-width: 0.8"/>
      </g>
     </g>
     <g id="text_14">
      <!-- 1250 -->
      <g transform="translate(31.646406 117.919945) scale(0.15 -0.15)">
       <use xlink:href="#DejaVuSans-31"/>
       <use xlink:href="#DejaVuSans-32" transform="translate(63.623047 0)"/>
       <use xlink:href="#DejaVuSans-35" transform="translate(127.246094 0)"/>
       <use xlink:href="#DejaVuSans-30" transform="translate(190.869141 0)"/>
      </g>
     </g>
    </g>
    <g id="ytick_8">
     <g id="line2d_14">
      <g>
       <use xlink:href="#mb14cf3716b" x="76.821406" y="81.278338" style="stroke: #000000; stroke-width: 0.8"/>
      </g>
     </g>
     <g id="text_15">
      <!-- 1500 -->
      <g transform="translate(31.646406 86.977166) scale(0.15 -0.15)">
       <use xlink:href="#DejaVuSans-31"/>
       <use xlink:href="#DejaVuSans-35" transform="translate(63.623047 0)"/>
       <use xlink:href="#DejaVuSans-30" transform="translate(127.246094 0)"/>
       <use xlink:href="#DejaVuSans-30" transform="translate(190.869141 0)"/>
      </g>
     </g>
    </g>
    <g id="text_16">
     <!-- Losartan [nM] -->
     <g transform="translate(20.877187 271.012989) rotate(-90) scale(0.18 -0.18)">
      <defs>
       <path id="DejaVuSans-Bold-4c" d="M 588 4666 
L 1791 4666 
L 1791 909 
L 3903 909 
L 3903 0 
L 588 0 
L 588 4666 
z
" transform="scale(0.015625)"/>
       <path id="DejaVuSans-Bold-6f" d="M 2203 2784 
Q 1831 2784 1636 2517 
Q 1441 2250 1441 1747 
Q 1441 1244 1636 976 
Q 1831 709 2203 709 
Q 2569 709 2762 976 
Q 2956 1244 2956 1747 
Q 2956 2250 2762 2517 
Q 2569 2784 2203 2784 
z
M 2203 3584 
Q 3106 3584 3614 3096 
Q 4122 2609 4122 1747 
Q 4122 884 3614 396 
Q 3106 -91 2203 -91 
Q 1297 -91 786 396 
Q 275 884 275 1747 
Q 275 2609 786 3096 
Q 1297 3584 2203 3584 
z
" transform="scale(0.015625)"/>
       <path id="DejaVuSans-Bold-73" d="M 3272 3391 
L 3272 2541 
Q 2913 2691 2578 2766 
Q 2244 2841 1947 2841 
Q 1628 2841 1473 2761 
Q 1319 2681 1319 2516 
Q 1319 2381 1436 2309 
Q 1553 2238 1856 2203 
L 2053 2175 
Q 2913 2066 3209 1816 
Q 3506 1566 3506 1031 
Q 3506 472 3093 190 
Q 2681 -91 1863 -91 
Q 1516 -91 1145 -36 
Q 775 19 384 128 
L 384 978 
Q 719 816 1070 734 
Q 1422 653 1784 653 
Q 2113 653 2278 743 
Q 2444 834 2444 1013 
Q 2444 1163 2330 1236 
Q 2216 1309 1875 1350 
L 1678 1375 
Q 931 1469 631 1722 
Q 331 1975 331 2491 
Q 331 3047 712 3315 
Q 1094 3584 1881 3584 
Q 2191 3584 2531 3537 
Q 2872 3491 3272 3391 
z
" transform="scale(0.015625)"/>
       <path id="DejaVuSans-Bold-61" d="M 2106 1575 
Q 1756 1575 1579 1456 
Q 1403 1338 1403 1106 
Q 1403 894 1545 773 
Q 1688 653 1941 653 
Q 2256 653 2472 879 
Q 2688 1106 2688 1447 
L 2688 1575 
L 2106 1575 
z
M 3816 1997 
L 3816 0 
L 2688 0 
L 2688 519 
Q 2463 200 2181 54 
Q 1900 -91 1497 -91 
Q 953 -91 614 226 
Q 275 544 275 1050 
Q 275 1666 698 1953 
Q 1122 2241 2028 2241 
L 2688 2241 
L 2688 2328 
Q 2688 2594 2478 2717 
Q 2269 2841 1825 2841 
Q 1466 2841 1156 2769 
Q 847 2697 581 2553 
L 581 3406 
Q 941 3494 1303 3539 
Q 1666 3584 2028 3584 
Q 2975 3584 3395 3211 
Q 3816 2838 3816 1997 
z
" transform="scale(0.015625)"/>
       <path id="DejaVuSans-Bold-74" d="M 1759 4494 
L 1759 3500 
L 2913 3500 
L 2913 2700 
L 1759 2700 
L 1759 1216 
Q 1759 972 1856 886 
Q 1953 800 2241 800 
L 2816 800 
L 2816 0 
L 1856 0 
Q 1194 0 917 276 
Q 641 553 641 1216 
L 641 2700 
L 84 2700 
L 84 3500 
L 641 3500 
L 641 4494 
L 1759 4494 
z
" transform="scale(0.015625)"/>
       <path id="DejaVuSans-Bold-6e" d="M 4056 2131 
L 4056 0 
L 2931 0 
L 2931 347 
L 2931 1631 
Q 2931 2084 2911 2256 
Q 2891 2428 2841 2509 
Q 2775 2619 2662 2680 
Q 2550 2741 2406 2741 
Q 2056 2741 1856 2470 
Q 1656 2200 1656 1722 
L 1656 0 
L 538 0 
L 538 3500 
L 1656 3500 
L 1656 2988 
Q 1909 3294 2193 3439 
Q 2478 3584 2822 3584 
Q 3428 3584 3742 3212 
Q 4056 2841 4056 2131 
z
" transform="scale(0.015625)"/>
       <path id="DejaVuSans-Bold-4d" d="M 588 4666 
L 2119 4666 
L 3181 2169 
L 4250 4666 
L 5778 4666 
L 5778 0 
L 4641 0 
L 4641 3413 
L 3566 897 
L 2803 897 
L 1728 3413 
L 1728 0 
L 588 0 
L 588 4666 
z
" transform="scale(0.015625)"/>
      </defs>
      <use xlink:href="#DejaVuSans-Bold-4c"/>
      <use xlink:href="#DejaVuSans-Bold-6f" transform="translate(63.720703 0)"/>
      <use xlink:href="#DejaVuSans-Bold-73" transform="translate(132.421875 0)"/>
      <use xlink:href="#DejaVuSans-Bold-61" transform="translate(191.943359 0)"/>
      <use xlink:href="#DejaVuSans-Bold-72" transform="translate(259.423828 0)"/>
      <use xlink:href="#DejaVuSans-Bold-74" transform="translate(308.740234 0)"/>
      <use xlink:href="#DejaVuSans-Bold-61" transform="translate(356.542969 0)"/>
      <use xlink:href="#DejaVuSans-Bold-6e" transform="translate(424.023438 0)"/>
      <use xlink:href="#DejaVuSans-Bold-20" transform="translate(495.214844 0)"/>
      <use xlink:href="#DejaVuSans-Bold-5b" transform="translate(530.029297 0)"/>
      <use xlink:href="#DejaVuSans-Bold-6e" transform="translate(575.732422 0)"/>
      <use xlink:href="#DejaVuSans-Bold-4d" transform="translate(646.923828 0)"/>
      <use xlink:href="#DejaVuSans-Bold-5d" transform="translate(746.435547 0)"/>
     </g>
    </g>
   </g>
   <g id="LineCollection_1">
    <path clip-path="url(#p2705db0799)" style="fill: none; stroke: #000000"/>
    <path d="M 101.67777 267.532152 
L 101.67777 261.67779 
" clip-path="url(#p2705db0799)" style="fill: none; stroke: #000000"/>
    <path d="M 108.779588 255.326048 
L 108.779588 160.47195 
" clip-path="url(#p2705db0799)" style="fill: none; stroke: #000000"/>
    <path d="M 122.983224 265.822251 
L 122.983224 214.363487 
" clip-path="url(#p2705db0799)" style="fill: none; stroke: #000000"/>
    <path d="M 137.186861 256.922558 
L 137.186861 248.494426 
" clip-path="url(#p2705db0799)" style="fill: none; stroke: #000000"/>
    <path d="M 151.390497 259.892714 
L 151.390497 253.963513 
" clip-path="url(#p2705db0799)" style="fill: none; stroke: #000000"/>
    <path d="M 179.79777 262.054787 
L 179.79777 258.517673 
" clip-path="url(#p2705db0799)" style="fill: none; stroke: #000000"/>
    <path d="M 208.205043 264.335743 
L 208.205043 262.303893 
" clip-path="url(#p2705db0799)" style="fill: none; stroke: #000000"/>
    <path d="M 236.612315 264.664596 
L 236.612315 263.671112 
" clip-path="url(#p2705db0799)" style="fill: none; stroke: #000000"/>
    <path d="M 265.019588 265.809196 
L 265.019588 264.714655 
" clip-path="url(#p2705db0799)" style="fill: none; stroke: #000000"/>
   </g>
   <g id="LineCollection_2">
    <path clip-path="url(#p2705db0799)" style="fill: none; stroke: #1f77b4"/>
    <path d="M 101.67777 267.704308 
L 101.67777 264.814816 
" clip-path="url(#p2705db0799)" style="fill: none; stroke: #1f77b4"/>
    <path d="M 108.779588 309.286957 
L 108.779588 90.156522 
" clip-path="url(#p2705db0799)" style="fill: none; stroke: #1f77b4"/>
    <path d="M 122.983224 267.110508 
L 122.983224 200.379604 
" clip-path="url(#p2705db0799)" style="fill: none; stroke: #1f77b4"/>
    <path d="M 137.186861 254.304281 
L 137.186861 238.068324 
" clip-path="url(#p2705db0799)" style="fill: none; stroke: #1f77b4"/>
    <path d="M 151.390497 257.028249 
L 151.390497 245.140746 
" clip-path="url(#p2705db0799)" style="fill: none; stroke: #1f77b4"/>
    <path d="M 179.79777 260.422033 
L 179.79777 248.603305 
" clip-path="url(#p2705db0799)" style="fill: none; stroke: #1f77b4"/>
    <path d="M 208.205043 261.477829 
L 208.205043 254.464372 
" clip-path="url(#p2705db0799)" style="fill: none; stroke: #1f77b4"/>
    <path d="M 236.612315 267.340489 
L 236.612315 251.270589 
" clip-path="url(#p2705db0799)" style="fill: none; stroke: #1f77b4"/>
    <path d="M 265.019588 266.362194 
L 265.019588 254.365941 
" clip-path="url(#p2705db0799)" style="fill: none; stroke: #1f77b4"/>
   </g>
   <g id="LineCollection_3">
    <path clip-path="url(#p2705db0799)" style="fill: none; stroke: #d62728"/>
    <path d="M 101.67777 266.906027 
L 101.67777 266.90534 
" clip-path="url(#p2705db0799)" style="fill: none; stroke: #d62728"/>
    <path d="M 108.779588 267.784464 
L 108.779588 264.248133 
" clip-path="url(#p2705db0799)" style="fill: none; stroke: #d62728"/>
    <path d="M 122.983224 250.594917 
L 122.983224 229.590821 
" clip-path="url(#p2705db0799)" style="fill: none; stroke: #d62728"/>
    <path d="M 137.186861 249.130292 
L 137.186861 235.212318 
" clip-path="url(#p2705db0799)" style="fill: none; stroke: #d62728"/>
    <path d="M 151.390497 254.116728 
L 151.390497 232.413792 
" clip-path="url(#p2705db0799)" style="fill: none; stroke: #d62728"/>
    <path d="M 179.79777 259.034354 
L 179.79777 246.550626 
" clip-path="url(#p2705db0799)" style="fill: none; stroke: #d62728"/>
    <path d="M 208.205043 260.974335 
L 208.205043 255.178047 
" clip-path="url(#p2705db0799)" style="fill: none; stroke: #d62728"/>
    <path d="M 236.612315 263.915746 
L 236.612315 260.764729 
" clip-path="url(#p2705db0799)" style="fill: none; stroke: #d62728"/>
    <path d="M 265.019588 264.018696 
L 265.019588 262.212127 
" clip-path="url(#p2705db0799)" style="fill: none; stroke: #d62728"/>
   </g>
   <g id="line2d_15">
    <path d="M 94.575952 266.935008 
L 95.286134 266.74674 
L 95.996315 265.745291 
L 96.706497 263.761105 
L 97.416679 260.934599 
L 98.837043 253.680887 
L 101.67777 238.267739 
L 103.098134 232.029677 
L 104.518497 227.29653 
L 105.228679 225.511225 
L 105.938861 224.099647 
L 106.649043 223.042189 
L 107.359224 222.314494 
L 108.069406 221.889215 
L 108.779588 221.737409 
L 109.48977 221.829647 
L 110.199952 222.136848 
L 110.910134 222.630918 
L 112.330497 224.074738 
L 113.750861 225.969646 
L 115.881406 229.316955 
L 122.273043 239.903859 
L 124.403588 243.030324 
L 126.534134 245.84239 
L 128.664679 248.332338 
L 130.795224 250.511842 
L 132.92577 252.403265 
L 135.056315 254.034032 
L 137.186861 255.43311 
L 140.027588 256.987 
L 142.868315 258.24151 
L 145.709043 259.251257 
L 149.259952 260.239341 
L 152.810861 260.991189 
L 157.071952 261.662083 
L 162.043224 262.218257 
L 168.434861 262.698667 
L 176.957043 263.10007 
L 189.740315 263.457904 
L 213.886497 263.870623 
L 267.150134 264.522875 
L 338.878497 265.180764 
L 424.100315 265.733351 
L 449.666861 265.862283 
L 449.666861 265.862283 
" clip-path="url(#p2705db0799)" style="fill: none; stroke: #000000; stroke-width: 2; stroke-linecap: square"/>
   </g>
   <g id="line2d_16">
    <path d="M 94.575952 266.935008 
L 101.67777 264.604971 
L 108.779588 207.898999 
L 122.983224 240.092869 
L 137.186861 252.708492 
L 151.390497 256.928113 
L 179.79777 260.28623 
L 208.205043 263.319818 
L 236.612315 264.167854 
L 265.019588 265.261926 
" clip-path="url(#p2705db0799)" style="fill: none; stroke-dasharray: 3.7,1.6; stroke-dashoffset: 0; stroke: #000000"/>
    <defs>
     <path id="m3e9fd31bed" d="M -3 3 
L 3 3 
L 3 -3 
L -3 -3 
z
" style="stroke: #000000; stroke-linejoin: miter"/>
    </defs>
    <g clip-path="url(#p2705db0799)">
     <use xlink:href="#m3e9fd31bed" x="94.575952" y="266.935008" style="stroke: #000000; stroke-linejoin: miter"/>
     <use xlink:href="#m3e9fd31bed" x="101.67777" y="264.604971" style="stroke: #000000; stroke-linejoin: miter"/>
     <use xlink:href="#m3e9fd31bed" x="108.779588" y="207.898999" style="stroke: #000000; stroke-linejoin: miter"/>
     <use xlink:href="#m3e9fd31bed" x="122.983224" y="240.092869" style="stroke: #000000; stroke-linejoin: miter"/>
     <use xlink:href="#m3e9fd31bed" x="137.186861" y="252.708492" style="stroke: #000000; stroke-linejoin: miter"/>
     <use xlink:href="#m3e9fd31bed" x="151.390497" y="256.928113" style="stroke: #000000; stroke-linejoin: miter"/>
     <use xlink:href="#m3e9fd31bed" x="179.79777" y="260.28623" style="stroke: #000000; stroke-linejoin: miter"/>
     <use xlink:href="#m3e9fd31bed" x="208.205043" y="263.319818" style="stroke: #000000; stroke-linejoin: miter"/>
     <use xlink:href="#m3e9fd31bed" x="236.612315" y="264.167854" style="stroke: #000000; stroke-linejoin: miter"/>
     <use xlink:href="#m3e9fd31bed" x="265.019588" y="265.261926" style="stroke: #000000; stroke-linejoin: miter"/>
    </g>
   </g>
   <g id="line2d_17">
    <path d="M 94.575952 266.935008 
L 95.286134 266.744742 
L 95.996315 265.719217 
L 96.706497 263.664474 
L 97.416679 260.711116 
L 98.837043 253.043979 
L 101.67777 236.417763 
L 103.098134 229.539462 
L 104.518497 224.22698 
L 105.228679 222.187223 
L 105.938861 220.54878 
L 106.649043 219.293755 
L 107.359224 218.398571 
L 108.069406 217.835864 
L 108.779588 217.576027 
L 109.48977 217.588438 
L 110.199952 217.842427 
L 110.910134 218.308014 
L 111.620315 218.956451 
L 113.040679 220.695252 
L 114.461043 222.865159 
L 116.591588 226.585761 
L 122.273043 236.839026 
L 124.403588 240.278672 
L 126.534134 243.378952 
L 128.664679 246.127708 
L 130.795224 248.535733 
L 132.92577 250.6266 
L 135.056315 252.430036 
L 137.186861 253.977777 
L 139.317406 255.301085 
L 142.158134 256.766828 
L 144.998861 257.94802 
L 147.839588 258.898198 
L 151.390497 259.828625 
L 154.941406 260.538212 
L 159.202497 261.174146 
L 164.883952 261.767263 
L 171.98577 262.25045 
L 181.928315 262.666163 
L 197.552315 263.057603 
L 229.510497 263.584983 
L 289.875952 264.34455 
L 362.314497 265.030583 
L 447.536315 265.608915 
L 449.666861 265.620861 
L 449.666861 265.620861 
" clip-path="url(#p2705db0799)" style="fill: none; stroke: #1f77b4; stroke-width: 2; stroke-linecap: square"/>
   </g>
   <g id="line2d_18">
    <path d="M 94.575952 266.935008 
L 101.67777 266.259562 
L 108.779588 199.721739 
L 122.983224 233.745056 
L 137.186861 246.186303 
L 151.390497 251.084498 
L 179.79777 254.512669 
L 208.205043 257.971101 
L 236.612315 259.305539 
L 265.019588 260.364068 
" clip-path="url(#p2705db0799)" style="fill: none; stroke-dasharray: 3.7,1.6; stroke-dashoffset: 0; stroke: #1f77b4"/>
    <defs>
     <path id="m0d22c92424" d="M -3 3 
L 3 3 
L 3 -3 
L -3 -3 
z
" style="stroke: #000000; stroke-linejoin: miter"/>
    </defs>
    <g clip-path="url(#p2705db0799)">
     <use xlink:href="#m0d22c92424" x="94.575952" y="266.935008" style="fill: #1f77b4; stroke: #000000; stroke-linejoin: miter"/>
     <use xlink:href="#m0d22c92424" x="101.67777" y="266.259562" style="fill: #1f77b4; stroke: #000000; stroke-linejoin: miter"/>
     <use xlink:href="#m0d22c92424" x="108.779588" y="199.721739" style="fill: #1f77b4; stroke: #000000; stroke-linejoin: miter"/>
     <use xlink:href="#m0d22c92424" x="122.983224" y="233.745056" style="fill: #1f77b4; stroke: #000000; stroke-linejoin: miter"/>
     <use xlink:href="#m0d22c92424" x="137.186861" y="246.186303" style="fill: #1f77b4; stroke: #000000; stroke-linejoin: miter"/>
     <use xlink:href="#m0d22c92424" x="151.390497" y="251.084498" style="fill: #1f77b4; stroke: #000000; stroke-linejoin: miter"/>
     <use xlink:href="#m0d22c92424" x="179.79777" y="254.512669" style="fill: #1f77b4; stroke: #000000; stroke-linejoin: miter"/>
     <use xlink:href="#m0d22c92424" x="208.205043" y="257.971101" style="fill: #1f77b4; stroke: #000000; stroke-linejoin: miter"/>
     <use xlink:href="#m0d22c92424" x="236.612315" y="259.305539" style="fill: #1f77b4; stroke: #000000; stroke-linejoin: miter"/>
     <use xlink:href="#m0d22c92424" x="265.019588" y="260.364068" style="fill: #1f77b4; stroke: #000000; stroke-linejoin: miter"/>
    </g>
   </g>
   <g id="line2d_19">
    <path d="M 94.575952 266.935008 
L 95.286134 266.74236 
L 95.996315 265.686303 
L 96.706497 263.538267 
L 97.416679 260.412689 
L 98.837043 252.170021 
L 102.387952 229.711792 
L 103.808315 222.683341 
L 105.228679 217.387345 
L 105.938861 215.399272 
L 106.649043 213.834193 
L 107.359224 212.670076 
L 108.069406 211.88002 
L 108.779588 211.433976 
L 109.48977 211.30015 
L 110.199952 211.44612 
L 110.910134 211.839714 
L 111.620315 212.449676 
L 113.040679 214.201044 
L 114.461043 216.483687 
L 116.591588 220.511877 
L 123.693406 234.599681 
L 125.823952 238.26317 
L 127.954497 241.540173 
L 130.085043 244.429424 
L 132.215588 246.949998 
L 134.346134 249.131796 
L 136.476679 251.009388 
L 138.607224 252.61822 
L 140.73777 253.992391 
L 143.578497 255.51372 
L 146.419224 256.739918 
L 149.259952 257.727199 
L 152.810861 258.695731 
L 156.36177 259.436594 
L 160.622861 260.103483 
L 165.594134 260.664292 
L 171.98577 261.160124 
L 180.507952 261.590803 
L 194.001406 262.017345 
L 218.85777 262.5339 
L 269.990861 263.344724 
L 336.03777 264.16866 
L 411.317043 264.879799 
L 449.666861 265.168529 
L 449.666861 265.168529 
" clip-path="url(#p2705db0799)" style="fill: none; stroke: #d62728; stroke-width: 2; stroke-linecap: square"/>
   </g>
   <g id="line2d_20">
    <path d="M 94.575952 266.935008 
L 101.67777 266.905684 
L 108.779588 266.016298 
L 122.983224 240.092869 
L 137.186861 242.171305 
L 151.390497 243.26526 
L 179.79777 252.79249 
L 208.205043 258.076191 
L 236.612315 262.340238 
L 265.019588 263.115412 
" clip-path="url(#p2705db0799)" style="fill: none; stroke-dasharray: 3.7,1.6; stroke-dashoffset: 0; stroke: #d62728"/>
    <defs>
     <path id="m9803d90010" d="M -3 3 
L 3 3 
L 3 -3 
L -3 -3 
z
" style="stroke: #000000; stroke-linejoin: miter"/>
    </defs>
    <g clip-path="url(#p2705db0799)">
     <use xlink:href="#m9803d90010" x="94.575952" y="266.935008" style="fill: #d62728; stroke: #000000; stroke-linejoin: miter"/>
     <use xlink:href="#m9803d90010" x="101.67777" y="266.905684" style="fill: #d62728; stroke: #000000; stroke-linejoin: miter"/>
     <use xlink:href="#m9803d90010" x="108.779588" y="266.016298" style="fill: #d62728; stroke: #000000; stroke-linejoin: miter"/>
     <use xlink:href="#m9803d90010" x="122.983224" y="240.092869" style="fill: #d62728; stroke: #000000; stroke-linejoin: miter"/>
     <use xlink:href="#m9803d90010" x="137.186861" y="242.171305" style="fill: #d62728; stroke: #000000; stroke-linejoin: miter"/>
     <use xlink:href="#m9803d90010" x="151.390497" y="243.26526" style="fill: #d62728; stroke: #000000; stroke-linejoin: miter"/>
     <use xlink:href="#m9803d90010" x="179.79777" y="252.79249" style="fill: #d62728; stroke: #000000; stroke-linejoin: miter"/>
     <use xlink:href="#m9803d90010" x="208.205043" y="258.076191" style="fill: #d62728; stroke: #000000; stroke-linejoin: miter"/>
     <use xlink:href="#m9803d90010" x="236.612315" y="262.340238" style="fill: #d62728; stroke: #000000; stroke-linejoin: miter"/>
     <use xlink:href="#m9803d90010" x="265.019588" y="263.115412" style="fill: #d62728; stroke: #000000; stroke-linejoin: miter"/>
    </g>
   </g>
   <g id="patch_3">
    <path d="M 76.821406 320.243478 
L 76.821406 79.2 
" style="fill: none; stroke: #000000; stroke-width: 0.8; stroke-linejoin: miter; stroke-linecap: square"/>
   </g>
   <g id="patch_4">
    <path d="M 467.421406 320.243478 
L 467.421406 79.2 
" style="fill: none; stroke: #000000; stroke-width: 0.8; stroke-linejoin: miter; stroke-linecap: square"/>
   </g>
   <g id="patch_5">
    <path d="M 76.821406 320.243478 
L 467.421406 320.243478 
" style="fill: none; stroke: #000000; stroke-width: 0.8; stroke-linejoin: miter; stroke-linecap: square"/>
   </g>
   <g id="patch_6">
    <path d="M 76.821406 79.2 
L 467.421406 79.2 
" style="fill: none; stroke: #000000; stroke-width: 0.8; stroke-linejoin: miter; stroke-linecap: square"/>
   </g>
   <g id="legend_1">
    <g id="patch_7">
     <path d="M 343.618906 156.055 
L 461.821406 156.055 
Q 463.421406 156.055 463.421406 154.455 
L 463.421406 84.8 
Q 463.421406 83.2 461.821406 83.2 
L 343.618906 83.2 
Q 342.018906 83.2 342.018906 84.8 
L 342.018906 154.455 
Q 342.018906 156.055 343.618906 156.055 
z
" style="fill: #ffffff; opacity: 0.8; stroke: #cccccc; stroke-linejoin: miter"/>
    </g>
    <g id="line2d_21">
     <path d="M 345.218906 89.67875 
L 361.218906 89.67875 
" style="fill: none; stroke: #000000; stroke-width: 2; stroke-linecap: square"/>
    </g>
    <g id="line2d_22"/>
    <g id="text_17">
     <!-- Sim *1/*1 50 mg -->
     <g transform="translate(367.618906 92.47875) scale(0.08 -0.08)">
      <defs>
       <path id="DejaVuSans-53" d="M 3425 4513 
L 3425 3897 
Q 3066 4069 2747 4153 
Q 2428 4238 2131 4238 
Q 1616 4238 1336 4038 
Q 1056 3838 1056 3469 
Q 1056 3159 1242 3001 
Q 1428 2844 1947 2747 
L 2328 2669 
Q 3034 2534 3370 2195 
Q 3706 1856 3706 1288 
Q 3706 609 3251 259 
Q 2797 -91 1919 -91 
Q 1588 -91 1214 -16 
Q 841 59 441 206 
L 441 856 
Q 825 641 1194 531 
Q 1563 422 1919 422 
Q 2459 422 2753 634 
Q 3047 847 3047 1241 
Q 3047 1584 2836 1778 
Q 2625 1972 2144 2069 
L 1759 2144 
Q 1053 2284 737 2584 
Q 422 2884 422 3419 
Q 422 4038 858 4394 
Q 1294 4750 2059 4750 
Q 2388 4750 2728 4690 
Q 3069 4631 3425 4513 
z
" transform="scale(0.015625)"/>
       <path id="DejaVuSans-69" d="M 603 3500 
L 1178 3500 
L 1178 0 
L 603 0 
L 603 3500 
z
M 603 4863 
L 1178 4863 
L 1178 4134 
L 603 4134 
L 603 4863 
z
" transform="scale(0.015625)"/>
       <path id="DejaVuSans-6d" d="M 3328 2828 
Q 3544 3216 3844 3400 
Q 4144 3584 4550 3584 
Q 5097 3584 5394 3201 
Q 5691 2819 5691 2113 
L 5691 0 
L 5113 0 
L 5113 2094 
Q 5113 2597 4934 2840 
Q 4756 3084 4391 3084 
Q 3944 3084 3684 2787 
Q 3425 2491 3425 1978 
L 3425 0 
L 2847 0 
L 2847 2094 
Q 2847 2600 2669 2842 
Q 2491 3084 2119 3084 
Q 1678 3084 1418 2786 
Q 1159 2488 1159 1978 
L 1159 0 
L 581 0 
L 581 3500 
L 1159 3500 
L 1159 2956 
Q 1356 3278 1631 3431 
Q 1906 3584 2284 3584 
Q 2666 3584 2933 3390 
Q 3200 3197 3328 2828 
z
" transform="scale(0.015625)"/>
       <path id="DejaVuSans-20" transform="scale(0.015625)"/>
       <path id="DejaVuSans-2a" d="M 3009 3897 
L 1888 3291 
L 3009 2681 
L 2828 2375 
L 1778 3009 
L 1778 1831 
L 1422 1831 
L 1422 3009 
L 372 2375 
L 191 2681 
L 1313 3291 
L 191 3897 
L 372 4206 
L 1422 3572 
L 1422 4750 
L 1778 4750 
L 1778 3572 
L 2828 4206 
L 3009 3897 
z
" transform="scale(0.015625)"/>
       <path id="DejaVuSans-2f" d="M 1625 4666 
L 2156 4666 
L 531 -594 
L 0 -594 
L 1625 4666 
z
" transform="scale(0.015625)"/>
       <path id="DejaVuSans-67" d="M 2906 1791 
Q 2906 2416 2648 2759 
Q 2391 3103 1925 3103 
Q 1463 3103 1205 2759 
Q 947 2416 947 1791 
Q 947 1169 1205 825 
Q 1463 481 1925 481 
Q 2391 481 2648 825 
Q 2906 1169 2906 1791 
z
M 3481 434 
Q 3481 -459 3084 -895 
Q 2688 -1331 1869 -1331 
Q 1566 -1331 1297 -1286 
Q 1028 -1241 775 -1147 
L 775 -588 
Q 1028 -725 1275 -790 
Q 1522 -856 1778 -856 
Q 2344 -856 2625 -561 
Q 2906 -266 2906 331 
L 2906 616 
Q 2728 306 2450 153 
Q 2172 0 1784 0 
Q 1141 0 747 490 
Q 353 981 353 1791 
Q 353 2603 747 3093 
Q 1141 3584 1784 3584 
Q 2172 3584 2450 3431 
Q 2728 3278 2906 2969 
L 2906 3500 
L 3481 3500 
L 3481 434 
z
" transform="scale(0.015625)"/>
      </defs>
      <use xlink:href="#DejaVuSans-53"/>
      <use xlink:href="#DejaVuSans-69" transform="translate(63.476562 0)"/>
      <use xlink:href="#DejaVuSans-6d" transform="translate(91.259766 0)"/>
      <use xlink:href="#DejaVuSans-20" transform="translate(188.671875 0)"/>
      <use xlink:href="#DejaVuSans-2a" transform="translate(220.458984 0)"/>
      <use xlink:href="#DejaVuSans-31" transform="translate(270.458984 0)"/>
      <use xlink:href="#DejaVuSans-2f" transform="translate(334.082031 0)"/>
      <use xlink:href="#DejaVuSans-2a" transform="translate(367.773438 0)"/>
      <use xlink:href="#DejaVuSans-31" transform="translate(417.773438 0)"/>
      <use xlink:href="#DejaVuSans-20" transform="translate(481.396484 0)"/>
      <use xlink:href="#DejaVuSans-35" transform="translate(513.183594 0)"/>
      <use xlink:href="#DejaVuSans-30" transform="translate(576.806641 0)"/>
      <use xlink:href="#DejaVuSans-20" transform="translate(640.429688 0)"/>
      <use xlink:href="#DejaVuSans-6d" transform="translate(672.216797 0)"/>
      <use xlink:href="#DejaVuSans-67" transform="translate(769.628906 0)"/>
     </g>
    </g>
    <g id="LineCollection_4">
     <path d="M 353.218906 105.42125 
L 353.218906 97.42125 
" style="fill: none; stroke: #000000"/>
    </g>
    <g id="line2d_23">
     <path d="M 345.218906 101.42125 
L 361.218906 101.42125 
" style="fill: none; stroke-dasharray: 3.7,1.6; stroke-dashoffset: 0; stroke: #000000"/>
    </g>
    <g id="line2d_24">
     <g>
      <use xlink:href="#m3e9fd31bed" x="353.218906" y="101.42125" style="stroke: #000000; stroke-linejoin: miter"/>
     </g>
    </g>
    <g id="text_18">
     <!-- *1/*1 50 mg±SD (n=5) -->
     <g transform="translate(367.618906 104.22125) scale(0.08 -0.08)">
      <defs>
       <path id="DejaVuSans-b1" d="M 2944 4013 
L 2944 2803 
L 4684 2803 
L 4684 2272 
L 2944 2272 
L 2944 1063 
L 2419 1063 
L 2419 2272 
L 678 2272 
L 678 2803 
L 2419 2803 
L 2419 4013 
L 2944 4013 
z
M 678 531 
L 4684 531 
L 4684 0 
L 678 0 
L 678 531 
z
" transform="scale(0.015625)"/>
       <path id="DejaVuSans-44" d="M 1259 4147 
L 1259 519 
L 2022 519 
Q 2988 519 3436 956 
Q 3884 1394 3884 2338 
Q 3884 3275 3436 3711 
Q 2988 4147 2022 4147 
L 1259 4147 
z
M 628 4666 
L 1925 4666 
Q 3281 4666 3915 4102 
Q 4550 3538 4550 2338 
Q 4550 1131 3912 565 
Q 3275 0 1925 0 
L 628 0 
L 628 4666 
z
" transform="scale(0.015625)"/>
       <path id="DejaVuSans-28" d="M 1984 4856 
Q 1566 4138 1362 3434 
Q 1159 2731 1159 2009 
Q 1159 1288 1364 580 
Q 1569 -128 1984 -844 
L 1484 -844 
Q 1016 -109 783 600 
Q 550 1309 550 2009 
Q 550 2706 781 3412 
Q 1013 4119 1484 4856 
L 1984 4856 
z
" transform="scale(0.015625)"/>
       <path id="DejaVuSans-6e" d="M 3513 2113 
L 3513 0 
L 2938 0 
L 2938 2094 
Q 2938 2591 2744 2837 
Q 2550 3084 2163 3084 
Q 1697 3084 1428 2787 
Q 1159 2491 1159 1978 
L 1159 0 
L 581 0 
L 581 3500 
L 1159 3500 
L 1159 2956 
Q 1366 3272 1645 3428 
Q 1925 3584 2291 3584 
Q 2894 3584 3203 3211 
Q 3513 2838 3513 2113 
z
" transform="scale(0.015625)"/>
       <path id="DejaVuSans-3d" d="M 678 2906 
L 4684 2906 
L 4684 2381 
L 678 2381 
L 678 2906 
z
M 678 1631 
L 4684 1631 
L 4684 1100 
L 678 1100 
L 678 1631 
z
" transform="scale(0.015625)"/>
       <path id="DejaVuSans-29" d="M 513 4856 
L 1013 4856 
Q 1481 4119 1714 3412 
Q 1947 2706 1947 2009 
Q 1947 1309 1714 600 
Q 1481 -109 1013 -844 
L 513 -844 
Q 928 -128 1133 580 
Q 1338 1288 1338 2009 
Q 1338 2731 1133 3434 
Q 928 4138 513 4856 
z
" transform="scale(0.015625)"/>
      </defs>
      <use xlink:href="#DejaVuSans-2a"/>
      <use xlink:href="#DejaVuSans-31" transform="translate(50 0)"/>
      <use xlink:href="#DejaVuSans-2f" transform="translate(113.623047 0)"/>
      <use xlink:href="#DejaVuSans-2a" transform="translate(147.314453 0)"/>
      <use xlink:href="#DejaVuSans-31" transform="translate(197.314453 0)"/>
      <use xlink:href="#DejaVuSans-20" transform="translate(260.9375 0)"/>
      <use xlink:href="#DejaVuSans-35" transform="translate(292.724609 0)"/>
      <use xlink:href="#DejaVuSans-30" transform="translate(356.347656 0)"/>
      <use xlink:href="#DejaVuSans-20" transform="translate(419.970703 0)"/>
      <use xlink:href="#DejaVuSans-6d" transform="translate(451.757812 0)"/>
      <use xlink:href="#DejaVuSans-67" transform="translate(549.169922 0)"/>
      <use xlink:href="#DejaVuSans-b1" transform="translate(612.646484 0)"/>
      <use xlink:href="#DejaVuSans-53" transform="translate(696.435547 0)"/>
      <use xlink:href="#DejaVuSans-44" transform="translate(759.912109 0)"/>
      <use xlink:href="#DejaVuSans-20" transform="translate(836.914062 0)"/>
      <use xlink:href="#DejaVuSans-28" transform="translate(868.701172 0)"/>
      <use xlink:href="#DejaVuSans-6e" transform="translate(907.714844 0)"/>
      <use xlink:href="#DejaVuSans-3d" transform="translate(971.09375 0)"/>
      <use xlink:href="#DejaVuSans-35" transform="translate(1054.882812 0)"/>
      <use xlink:href="#DejaVuSans-29" transform="translate(1118.505859 0)"/>
     </g>
    </g>
    <g id="line2d_25">
     <path d="M 345.218906 113.16375 
L 361.218906 113.16375 
" style="fill: none; stroke: #1f77b4; stroke-width: 2; stroke-linecap: square"/>
    </g>
    <g id="line2d_26"/>
    <g id="text_19">
     <!-- Sim *1/*2 50 mg -->
     <g transform="translate(367.618906 115.96375) scale(0.08 -0.08)">
      <use xlink:href="#DejaVuSans-53"/>
      <use xlink:href="#DejaVuSans-69" transform="translate(63.476562 0)"/>
      <use xlink:href="#DejaVuSans-6d" transform="translate(91.259766 0)"/>
      <use xlink:href="#DejaVuSans-20" transform="translate(188.671875 0)"/>
      <use xlink:href="#DejaVuSans-2a" transform="translate(220.458984 0)"/>
      <use xlink:href="#DejaVuSans-31" transform="translate(270.458984 0)"/>
      <use xlink:href="#DejaVuSans-2f" transform="translate(334.082031 0)"/>
      <use xlink:href="#DejaVuSans-2a" transform="translate(367.773438 0)"/>
      <use xlink:href="#DejaVuSans-32" transform="translate(417.773438 0)"/>
      <use xlink:href="#DejaVuSans-20" transform="translate(481.396484 0)"/>
      <use xlink:href="#DejaVuSans-35" transform="translate(513.183594 0)"/>
      <use xlink:href="#DejaVuSans-30" transform="translate(576.806641 0)"/>
      <use xlink:href="#DejaVuSans-20" transform="translate(640.429688 0)"/>
      <use xlink:href="#DejaVuSans-6d" transform="translate(672.216797 0)"/>
      <use xlink:href="#DejaVuSans-67" transform="translate(769.628906 0)"/>
     </g>
    </g>
    <g id="LineCollection_5">
     <path d="M 353.218906 128.90625 
L 353.218906 120.90625 
" style="fill: none; stroke: #1f77b4"/>
    </g>
    <g id="line2d_27">
     <path d="M 345.218906 124.90625 
L 361.218906 124.90625 
" style="fill: none; stroke-dasharray: 3.7,1.6; stroke-dashoffset: 0; stroke: #1f77b4"/>
    </g>
    <g id="line2d_28">
     <g>
      <use xlink:href="#m0d22c92424" x="353.218906" y="124.90625" style="fill: #1f77b4; stroke: #000000; stroke-linejoin: miter"/>
     </g>
    </g>
    <g id="text_20">
     <!-- *1/*2 50 mg±SD (n=5) -->
     <g transform="translate(367.618906 127.70625) scale(0.08 -0.08)">
      <use xlink:href="#DejaVuSans-2a"/>
      <use xlink:href="#DejaVuSans-31" transform="translate(50 0)"/>
      <use xlink:href="#DejaVuSans-2f" transform="translate(113.623047 0)"/>
      <use xlink:href="#DejaVuSans-2a" transform="translate(147.314453 0)"/>
      <use xlink:href="#DejaVuSans-32" transform="translate(197.314453 0)"/>
      <use xlink:href="#DejaVuSans-20" transform="translate(260.9375 0)"/>
      <use xlink:href="#DejaVuSans-35" transform="translate(292.724609 0)"/>
      <use xlink:href="#DejaVuSans-30" transform="translate(356.347656 0)"/>
      <use xlink:href="#DejaVuSans-20" transform="translate(419.970703 0)"/>
      <use xlink:href="#DejaVuSans-6d" transform="translate(451.757812 0)"/>
      <use xlink:href="#DejaVuSans-67" transform="translate(549.169922 0)"/>
      <use xlink:href="#DejaVuSans-b1" transform="translate(612.646484 0)"/>
      <use xlink:href="#DejaVuSans-53" transform="translate(696.435547 0)"/>
      <use xlink:href="#DejaVuSans-44" transform="translate(759.912109 0)"/>
      <use xlink:href="#DejaVuSans-20" transform="translate(836.914062 0)"/>
      <use xlink:href="#DejaVuSans-28" transform="translate(868.701172 0)"/>
      <use xlink:href="#DejaVuSans-6e" transform="translate(907.714844 0)"/>
      <use xlink:href="#DejaVuSans-3d" transform="translate(971.09375 0)"/>
      <use xlink:href="#DejaVuSans-35" transform="translate(1054.882812 0)"/>
      <use xlink:href="#DejaVuSans-29" transform="translate(1118.505859 0)"/>
     </g>
    </g>
    <g id="line2d_29">
     <path d="M 345.218906 136.64875 
L 361.218906 136.64875 
" style="fill: none; stroke: #d62728; stroke-width: 2; stroke-linecap: square"/>
    </g>
    <g id="line2d_30"/>
    <g id="text_21">
     <!-- Sim *1/*3 50 mg -->
     <g transform="translate(367.618906 139.44875) scale(0.08 -0.08)">
      <defs>
       <path id="DejaVuSans-33" d="M 2597 2516 
Q 3050 2419 3304 2112 
Q 3559 1806 3559 1356 
Q 3559 666 3084 287 
Q 2609 -91 1734 -91 
Q 1441 -91 1130 -33 
Q 819 25 488 141 
L 488 750 
Q 750 597 1062 519 
Q 1375 441 1716 441 
Q 2309 441 2620 675 
Q 2931 909 2931 1356 
Q 2931 1769 2642 2001 
Q 2353 2234 1838 2234 
L 1294 2234 
L 1294 2753 
L 1863 2753 
Q 2328 2753 2575 2939 
Q 2822 3125 2822 3475 
Q 2822 3834 2567 4026 
Q 2313 4219 1838 4219 
Q 1578 4219 1281 4162 
Q 984 4106 628 3988 
L 628 4550 
Q 988 4650 1302 4700 
Q 1616 4750 1894 4750 
Q 2613 4750 3031 4423 
Q 3450 4097 3450 3541 
Q 3450 3153 3228 2886 
Q 3006 2619 2597 2516 
z
" transform="scale(0.015625)"/>
      </defs>
      <use xlink:href="#DejaVuSans-53"/>
      <use xlink:href="#DejaVuSans-69" transform="translate(63.476562 0)"/>
      <use xlink:href="#DejaVuSans-6d" transform="translate(91.259766 0)"/>
      <use xlink:href="#DejaVuSans-20" transform="translate(188.671875 0)"/>
      <use xlink:href="#DejaVuSans-2a" transform="translate(220.458984 0)"/>
      <use xlink:href="#DejaVuSans-31" transform="translate(270.458984 0)"/>
      <use xlink:href="#DejaVuSans-2f" transform="translate(334.082031 0)"/>
      <use xlink:href="#DejaVuSans-2a" transform="translate(367.773438 0)"/>
      <use xlink:href="#DejaVuSans-33" transform="translate(417.773438 0)"/>
      <use xlink:href="#DejaVuSans-20" transform="translate(481.396484 0)"/>
      <use xlink:href="#DejaVuSans-35" transform="translate(513.183594 0)"/>
      <use xlink:href="#DejaVuSans-30" transform="translate(576.806641 0)"/>
      <use xlink:href="#DejaVuSans-20" transform="translate(640.429688 0)"/>
      <use xlink:href="#DejaVuSans-6d" transform="translate(672.216797 0)"/>
      <use xlink:href="#DejaVuSans-67" transform="translate(769.628906 0)"/>
     </g>
    </g>
    <g id="LineCollection_6">
     <path d="M 353.218906 152.39125 
L 353.218906 144.39125 
" style="fill: none; stroke: #d62728"/>
    </g>
    <g id="line2d_31">
     <path d="M 345.218906 148.39125 
L 361.218906 148.39125 
" style="fill: none; stroke-dasharray: 3.7,1.6; stroke-dashoffset: 0; stroke: #d62728"/>
    </g>
    <g id="line2d_32">
     <g>
      <use xlink:href="#m9803d90010" x="353.218906" y="148.39125" style="fill: #d62728; stroke: #000000; stroke-linejoin: miter"/>
     </g>
    </g>
    <g id="text_22">
     <!-- *1/*3 50 mg±SD (n=5) -->
     <g transform="translate(367.618906 151.19125) scale(0.08 -0.08)">
      <use xlink:href="#DejaVuSans-2a"/>
      <use xlink:href="#DejaVuSans-31" transform="translate(50 0)"/>
      <use xlink:href="#DejaVuSans-2f" transform="translate(113.623047 0)"/>
      <use xlink:href="#DejaVuSans-2a" transform="translate(147.314453 0)"/>
      <use xlink:href="#DejaVuSans-33" transform="translate(197.314453 0)"/>
      <use xlink:href="#DejaVuSans-20" transform="translate(260.9375 0)"/>
      <use xlink:href="#DejaVuSans-35" transform="translate(292.724609 0)"/>
      <use xlink:href="#DejaVuSans-30" transform="translate(356.347656 0)"/>
      <use xlink:href="#DejaVuSans-20" transform="translate(419.970703 0)"/>
      <use xlink:href="#DejaVuSans-6d" transform="translate(451.757812 0)"/>
      <use xlink:href="#DejaVuSans-67" transform="translate(549.169922 0)"/>
      <use xlink:href="#DejaVuSans-b1" transform="translate(612.646484 0)"/>
      <use xlink:href="#DejaVuSans-53" transform="translate(696.435547 0)"/>
      <use xlink:href="#DejaVuSans-44" transform="translate(759.912109 0)"/>
      <use xlink:href="#DejaVuSans-20" transform="translate(836.914062 0)"/>
      <use xlink:href="#DejaVuSans-28" transform="translate(868.701172 0)"/>
      <use xlink:href="#DejaVuSans-6e" transform="translate(907.714844 0)"/>
      <use xlink:href="#DejaVuSans-3d" transform="translate(971.09375 0)"/>
      <use xlink:href="#DejaVuSans-35" transform="translate(1054.882812 0)"/>
      <use xlink:href="#DejaVuSans-29" transform="translate(1118.505859 0)"/>
     </g>
    </g>
   </g>
  </g>
  <g id="axes_2">
   <g id="patch_8">
    <path d="M 76.821406 633.6 
L 467.421406 633.6 
L 467.421406 392.556522 
L 76.821406 392.556522 
z
" style="fill: #ffffff"/>
   </g>
   <g id="matplotlib.axis_3">
    <g id="xtick_7">
     <g id="line2d_33">
      <g>
       <use xlink:href="#m04732bc2f7" x="94.575952" y="633.6" style="stroke: #000000; stroke-width: 0.8"/>
      </g>
     </g>
     <g id="text_23">
      <!-- 0 -->
      <g transform="translate(89.804077 651.997656) scale(0.15 -0.15)">
       <use xlink:href="#DejaVuSans-30"/>
      </g>
     </g>
    </g>
    <g id="xtick_8">
     <g id="line2d_34">
      <g>
       <use xlink:href="#m04732bc2f7" x="165.594134" y="633.6" style="stroke: #000000; stroke-width: 0.8"/>
      </g>
     </g>
     <g id="text_24">
      <!-- 5 -->
      <g transform="translate(160.822259 651.997656) scale(0.15 -0.15)">
       <use xlink:href="#DejaVuSans-35"/>
      </g>
     </g>
    </g>
    <g id="xtick_9">
     <g id="line2d_35">
      <g>
       <use xlink:href="#m04732bc2f7" x="236.612315" y="633.6" style="stroke: #000000; stroke-width: 0.8"/>
      </g>
     </g>
     <g id="text_25">
      <!-- 10 -->
      <g transform="translate(227.068565 651.997656) scale(0.15 -0.15)">
       <use xlink:href="#DejaVuSans-31"/>
       <use xlink:href="#DejaVuSans-30" transform="translate(63.623047 0)"/>
      </g>
     </g>
    </g>
    <g id="xtick_10">
     <g id="line2d_36">
      <g>
       <use xlink:href="#m04732bc2f7" x="307.630497" y="633.6" style="stroke: #000000; stroke-width: 0.8"/>
      </g>
     </g>
     <g id="text_26">
      <!-- 15 -->
      <g transform="translate(298.086747 651.997656) scale(0.15 -0.15)">
       <use xlink:href="#DejaVuSans-31"/>
       <use xlink:href="#DejaVuSans-35" transform="translate(63.623047 0)"/>
      </g>
     </g>
    </g>
    <g id="xtick_11">
     <g id="line2d_37">
      <g>
       <use xlink:href="#m04732bc2f7" x="378.648679" y="633.6" style="stroke: #000000; stroke-width: 0.8"/>
      </g>
     </g>
     <g id="text_27">
      <!-- 20 -->
      <g transform="translate(369.104929 651.997656) scale(0.15 -0.15)">
       <use xlink:href="#DejaVuSans-32"/>
       <use xlink:href="#DejaVuSans-30" transform="translate(63.623047 0)"/>
      </g>
     </g>
    </g>
    <g id="xtick_12">
     <g id="line2d_38">
      <g>
       <use xlink:href="#m04732bc2f7" x="449.666861" y="633.6" style="stroke: #000000; stroke-width: 0.8"/>
      </g>
     </g>
     <g id="text_28">
      <!-- 25 -->
      <g transform="translate(440.123111 651.997656) scale(0.15 -0.15)">
       <use xlink:href="#DejaVuSans-32"/>
       <use xlink:href="#DejaVuSans-35" transform="translate(63.623047 0)"/>
      </g>
     </g>
    </g>
    <g id="text_29">
     <!-- Time [hr] -->
     <g transform="translate(225.208906 672.794375) scale(0.18 -0.18)">
      <use xlink:href="#DejaVuSans-Bold-54"/>
      <use xlink:href="#DejaVuSans-Bold-69" transform="translate(68.212891 0)"/>
      <use xlink:href="#DejaVuSans-Bold-6d" transform="translate(102.490234 0)"/>
      <use xlink:href="#DejaVuSans-Bold-65" transform="translate(206.689453 0)"/>
      <use xlink:href="#DejaVuSans-Bold-20" transform="translate(274.511719 0)"/>
      <use xlink:href="#DejaVuSans-Bold-5b" transform="translate(309.326172 0)"/>
      <use xlink:href="#DejaVuSans-Bold-68" transform="translate(355.029297 0)"/>
      <use xlink:href="#DejaVuSans-Bold-72" transform="translate(426.220703 0)"/>
      <use xlink:href="#DejaVuSans-Bold-5d" transform="translate(475.537109 0)"/>
     </g>
    </g>
   </g>
   <g id="matplotlib.axis_4">
    <g id="ytick_9">
     <g id="line2d_39">
      <g>
       <use xlink:href="#mb14cf3716b" x="76.821406" y="622.817016" style="stroke: #000000; stroke-width: 0.8"/>
      </g>
     </g>
     <g id="text_30">
      <!-- −100 -->
      <g transform="translate(28.620625 628.515844) scale(0.15 -0.15)">
       <use xlink:href="#DejaVuSans-2212"/>
       <use xlink:href="#DejaVuSans-31" transform="translate(83.789062 0)"/>
       <use xlink:href="#DejaVuSans-30" transform="translate(147.412109 0)"/>
       <use xlink:href="#DejaVuSans-30" transform="translate(211.035156 0)"/>
      </g>
     </g>
    </g>
    <g id="ytick_10">
     <g id="line2d_40">
      <g>
       <use xlink:href="#mb14cf3716b" x="76.821406" y="589.141864" style="stroke: #000000; stroke-width: 0.8"/>
      </g>
     </g>
     <g id="text_31">
      <!-- 0 -->
      <g transform="translate(60.277656 594.840692) scale(0.15 -0.15)">
       <use xlink:href="#DejaVuSans-30"/>
      </g>
     </g>
    </g>
    <g id="ytick_11">
     <g id="line2d_41">
      <g>
       <use xlink:href="#mb14cf3716b" x="76.821406" y="555.466711" style="stroke: #000000; stroke-width: 0.8"/>
      </g>
     </g>
     <g id="text_32">
      <!-- 100 -->
      <g transform="translate(41.190156 561.165539) scale(0.15 -0.15)">
       <use xlink:href="#DejaVuSans-31"/>
       <use xlink:href="#DejaVuSans-30" transform="translate(63.623047 0)"/>
       <use xlink:href="#DejaVuSans-30" transform="translate(127.246094 0)"/>
      </g>
     </g>
    </g>
    <g id="ytick_12">
     <g id="line2d_42">
      <g>
       <use xlink:href="#mb14cf3716b" x="76.821406" y="521.791559" style="stroke: #000000; stroke-width: 0.8"/>
      </g>
     </g>
     <g id="text_33">
      <!-- 200 -->
      <g transform="translate(41.190156 527.490387) scale(0.15 -0.15)">
       <use xlink:href="#DejaVuSans-32"/>
       <use xlink:href="#DejaVuSans-30" transform="translate(63.623047 0)"/>
       <use xlink:href="#DejaVuSans-30" transform="translate(127.246094 0)"/>
      </g>
     </g>
    </g>
    <g id="ytick_13">
     <g id="line2d_43">
      <g>
       <use xlink:href="#mb14cf3716b" x="76.821406" y="488.116406" style="stroke: #000000; stroke-width: 0.8"/>
      </g>
     </g>
     <g id="text_34">
      <!-- 300 -->
      <g transform="translate(41.190156 493.815235) scale(0.15 -0.15)">
       <use xlink:href="#DejaVuSans-33"/>
       <use xlink:href="#DejaVuSans-30" transform="translate(63.623047 0)"/>
       <use xlink:href="#DejaVuSans-30" transform="translate(127.246094 0)"/>
      </g>
     </g>
    </g>
    <g id="ytick_14">
     <g id="line2d_44">
      <g>
       <use xlink:href="#mb14cf3716b" x="76.821406" y="454.441254" style="stroke: #000000; stroke-width: 0.8"/>
      </g>
     </g>
     <g id="text_35">
      <!-- 400 -->
      <g transform="translate(41.190156 460.140082) scale(0.15 -0.15)">
       <defs>
        <path id="DejaVuSans-34" d="M 2419 4116 
L 825 1625 
L 2419 1625 
L 2419 4116 
z
M 2253 4666 
L 3047 4666 
L 3047 1625 
L 3713 1625 
L 3713 1100 
L 3047 1100 
L 3047 0 
L 2419 0 
L 2419 1100 
L 313 1100 
L 313 1709 
L 2253 4666 
z
" transform="scale(0.015625)"/>
       </defs>
       <use xlink:href="#DejaVuSans-34"/>
       <use xlink:href="#DejaVuSans-30" transform="translate(63.623047 0)"/>
       <use xlink:href="#DejaVuSans-30" transform="translate(127.246094 0)"/>
      </g>
     </g>
    </g>
    <g id="ytick_15">
     <g id="line2d_45">
      <g>
       <use xlink:href="#mb14cf3716b" x="76.821406" y="420.766102" style="stroke: #000000; stroke-width: 0.8"/>
      </g>
     </g>
     <g id="text_36">
      <!-- 500 -->
      <g transform="translate(41.190156 426.46493) scale(0.15 -0.15)">
       <use xlink:href="#DejaVuSans-35"/>
       <use xlink:href="#DejaVuSans-30" transform="translate(63.623047 0)"/>
       <use xlink:href="#DejaVuSans-30" transform="translate(127.246094 0)"/>
      </g>
     </g>
    </g>
    <g id="text_37">
     <!-- E3174 [nM] -->
     <g transform="translate(20.877187 570.99748) rotate(-90) scale(0.18 -0.18)">
      <defs>
       <path id="DejaVuSans-Bold-45" d="M 588 4666 
L 3834 4666 
L 3834 3756 
L 1791 3756 
L 1791 2888 
L 3713 2888 
L 3713 1978 
L 1791 1978 
L 1791 909 
L 3903 909 
L 3903 0 
L 588 0 
L 588 4666 
z
" transform="scale(0.015625)"/>
       <path id="DejaVuSans-Bold-33" d="M 2981 2516 
Q 3453 2394 3698 2092 
Q 3944 1791 3944 1325 
Q 3944 631 3412 270 
Q 2881 -91 1863 -91 
Q 1503 -91 1142 -33 
Q 781 25 428 141 
L 428 1069 
Q 766 900 1098 814 
Q 1431 728 1753 728 
Q 2231 728 2486 893 
Q 2741 1059 2741 1369 
Q 2741 1688 2480 1852 
Q 2219 2016 1709 2016 
L 1228 2016 
L 1228 2791 
L 1734 2791 
Q 2188 2791 2409 2933 
Q 2631 3075 2631 3366 
Q 2631 3634 2415 3781 
Q 2200 3928 1806 3928 
Q 1516 3928 1219 3862 
Q 922 3797 628 3669 
L 628 4550 
Q 984 4650 1334 4700 
Q 1684 4750 2022 4750 
Q 2931 4750 3382 4451 
Q 3834 4153 3834 3553 
Q 3834 3144 3618 2883 
Q 3403 2622 2981 2516 
z
" transform="scale(0.015625)"/>
       <path id="DejaVuSans-Bold-31" d="M 750 831 
L 1813 831 
L 1813 3847 
L 722 3622 
L 722 4441 
L 1806 4666 
L 2950 4666 
L 2950 831 
L 4013 831 
L 4013 0 
L 750 0 
L 750 831 
z
" transform="scale(0.015625)"/>
       <path id="DejaVuSans-Bold-37" d="M 428 4666 
L 3944 4666 
L 3944 3988 
L 2125 0 
L 953 0 
L 2675 3781 
L 428 3781 
L 428 4666 
z
" transform="scale(0.015625)"/>
       <path id="DejaVuSans-Bold-34" d="M 2356 3675 
L 1038 1722 
L 2356 1722 
L 2356 3675 
z
M 2156 4666 
L 3494 4666 
L 3494 1722 
L 4159 1722 
L 4159 850 
L 3494 850 
L 3494 0 
L 2356 0 
L 2356 850 
L 288 850 
L 288 1881 
L 2156 4666 
z
" transform="scale(0.015625)"/>
      </defs>
      <use xlink:href="#DejaVuSans-Bold-45"/>
      <use xlink:href="#DejaVuSans-Bold-33" transform="translate(68.310547 0)"/>
      <use xlink:href="#DejaVuSans-Bold-31" transform="translate(137.890625 0)"/>
      <use xlink:href="#DejaVuSans-Bold-37" transform="translate(207.470703 0)"/>
      <use xlink:href="#DejaVuSans-Bold-34" transform="translate(277.050781 0)"/>
      <use xlink:href="#DejaVuSans-Bold-20" transform="translate(346.630859 0)"/>
      <use xlink:href="#DejaVuSans-Bold-5b" transform="translate(381.445312 0)"/>
      <use xlink:href="#DejaVuSans-Bold-6e" transform="translate(427.148438 0)"/>
      <use xlink:href="#DejaVuSans-Bold-4d" transform="translate(498.339844 0)"/>
      <use xlink:href="#DejaVuSans-Bold-5d" transform="translate(597.851562 0)"/>
     </g>
    </g>
   </g>
   <g id="LineCollection_7">
    <path clip-path="url(#p6dcdf73989)" style="fill: none; stroke: #000000"/>
    <path d="M 101.67777 589.072666 
L 101.67777 589.05683 
" clip-path="url(#p6dcdf73989)" style="fill: none; stroke: #000000"/>
    <path d="M 108.779588 589.071639 
L 108.779588 584.410249 
" clip-path="url(#p6dcdf73989)" style="fill: none; stroke: #000000"/>
    <path d="M 122.983224 602.864281 
L 122.983224 427.592904 
" clip-path="url(#p6dcdf73989)" style="fill: none; stroke: #000000"/>
    <path d="M 137.186861 494.300022 
L 137.186861 411.943709 
" clip-path="url(#p6dcdf73989)" style="fill: none; stroke: #000000"/>
    <path d="M 151.390497 476.373994 
L 151.390497 403.513043 
" clip-path="url(#p6dcdf73989)" style="fill: none; stroke: #000000"/>
    <path d="M 179.79777 518.860281 
L 179.79777 432.771234 
" clip-path="url(#p6dcdf73989)" style="fill: none; stroke: #000000"/>
    <path d="M 208.205043 550.773761 
L 208.205043 443.055801 
" clip-path="url(#p6dcdf73989)" style="fill: none; stroke: #000000"/>
    <path d="M 236.612315 524.60911 
L 236.612315 494.678777 
" clip-path="url(#p6dcdf73989)" style="fill: none; stroke: #000000"/>
    <path d="M 265.019588 545.846378 
L 265.019588 521.009072 
" clip-path="url(#p6dcdf73989)" style="fill: none; stroke: #000000"/>
    <path d="M 435.463224 580.771124 
L 435.463224 575.362669 
" clip-path="url(#p6dcdf73989)" style="fill: none; stroke: #000000"/>
   </g>
   <g id="LineCollection_8">
    <path clip-path="url(#p6dcdf73989)" style="fill: none; stroke: #1f77b4"/>
    <path d="M 101.67777 589.074921 
L 101.67777 589.05634 
" clip-path="url(#p6dcdf73989)" style="fill: none; stroke: #1f77b4"/>
    <path d="M 108.779588 589.601462 
L 108.779588 587.694231 
" clip-path="url(#p6dcdf73989)" style="fill: none; stroke: #1f77b4"/>
    <path d="M 122.983224 598.683191 
L 122.983224 460.783906 
" clip-path="url(#p6dcdf73989)" style="fill: none; stroke: #1f77b4"/>
    <path d="M 137.186861 599.192029 
L 137.186861 431.191141 
" clip-path="url(#p6dcdf73989)" style="fill: none; stroke: #1f77b4"/>
    <path d="M 151.390497 548.718107 
L 151.390497 443.335496 
" clip-path="url(#p6dcdf73989)" style="fill: none; stroke: #1f77b4"/>
    <path d="M 179.79777 541.142965 
L 179.79777 432.771234 
" clip-path="url(#p6dcdf73989)" style="fill: none; stroke: #1f77b4"/>
    <path d="M 208.205043 548.640564 
L 208.205043 443.055801 
" clip-path="url(#p6dcdf73989)" style="fill: none; stroke: #1f77b4"/>
    <path d="M 236.612315 529.930829 
L 236.612315 499.95655 
" clip-path="url(#p6dcdf73989)" style="fill: none; stroke: #1f77b4"/>
    <path d="M 265.019588 538.628006 
L 265.019588 497.794292 
" clip-path="url(#p6dcdf73989)" style="fill: none; stroke: #1f77b4"/>
    <path d="M 435.463224 583.664668 
L 435.463224 566.419562 
" clip-path="url(#p6dcdf73989)" style="fill: none; stroke: #1f77b4"/>
   </g>
   <g id="LineCollection_9">
    <path clip-path="url(#p6dcdf73989)" style="fill: none; stroke: #d62728"/>
    <path d="M 101.67777 589.072266 
L 101.67777 589.056341 
" clip-path="url(#p6dcdf73989)" style="fill: none; stroke: #d62728"/>
    <path d="M 108.779588 589.172446 
L 108.779588 588.781776 
" clip-path="url(#p6dcdf73989)" style="fill: none; stroke: #d62728"/>
    <path d="M 122.983224 622.643478 
L 122.983224 473.401408 
" clip-path="url(#p6dcdf73989)" style="fill: none; stroke: #d62728"/>
    <path d="M 137.186861 600.570622 
L 137.186861 481.06473 
" clip-path="url(#p6dcdf73989)" style="fill: none; stroke: #d62728"/>
    <path d="M 151.390497 590.328196 
L 151.390497 445.002456 
" clip-path="url(#p6dcdf73989)" style="fill: none; stroke: #d62728"/>
    <path d="M 179.79777 541.024782 
L 179.79777 446.513756 
" clip-path="url(#p6dcdf73989)" style="fill: none; stroke: #d62728"/>
    <path d="M 208.205043 548.534037 
L 208.205043 415.555682 
" clip-path="url(#p6dcdf73989)" style="fill: none; stroke: #d62728"/>
    <path d="M 236.612315 557.214947 
L 236.612315 452.663947 
" clip-path="url(#p6dcdf73989)" style="fill: none; stroke: #d62728"/>
    <path d="M 265.019588 560.069371 
L 265.019588 484.278907 
" clip-path="url(#p6dcdf73989)" style="fill: none; stroke: #d62728"/>
    <path d="M 435.463224 586.187224 
L 435.463224 562.907273 
" clip-path="url(#p6dcdf73989)" style="fill: none; stroke: #d62728"/>
   </g>
   <g id="line2d_46">
    <path d="M 94.575952 589.141864 
L 95.996315 589.120041 
L 96.706497 589.024968 
L 97.416679 588.77767 
L 98.126861 588.294686 
L 98.837043 587.499955 
L 99.547224 586.332395 
L 100.257406 584.74925 
L 100.967588 582.726498 
L 101.67777 580.257453 
L 103.098134 574.025772 
L 104.518497 566.250185 
L 105.938861 557.23807 
L 108.069406 542.171377 
L 114.461043 495.590447 
L 116.591588 482.050162 
L 118.722134 470.166188 
L 120.142497 463.234118 
L 121.562861 457.107196 
L 122.983224 451.774942 
L 124.403588 447.212767 
L 125.823952 443.385739 
L 127.244315 440.251744 
L 128.664679 437.764077 
L 130.085043 435.873524 
L 131.505406 434.530008 
L 132.92577 433.683835 
L 134.346134 433.28664 
L 135.766497 433.292056 
L 137.186861 433.656172 
L 138.607224 434.337828 
L 140.027588 435.298764 
L 141.447952 436.503682 
L 143.578497 438.698513 
L 145.709043 441.27286 
L 148.54977 445.152637 
L 152.100679 450.495267 
L 157.071952 458.465128 
L 167.724679 475.676824 
L 172.695952 483.268391 
L 177.667224 490.427501 
L 181.928315 496.189254 
L 186.189406 501.598208 
L 190.450497 506.659087 
L 194.711588 511.383349 
L 198.972679 515.786465 
L 203.23377 519.886077 
L 207.494861 523.700765 
L 211.755952 527.24924 
L 216.727224 531.077088 
L 221.698497 534.595398 
L 226.66977 537.830392 
L 231.641043 540.806458 
L 236.612315 543.546115 
L 242.29377 546.414127 
L 247.975224 549.028417 
L 253.656679 551.414308 
L 260.048315 553.853697 
L 266.439952 556.061734 
L 273.54177 558.27485 
L 280.643588 560.264852 
L 288.455588 562.228268 
L 296.97777 564.135937 
L 306.210134 565.965543 
L 316.152679 567.701466 
L 326.805406 569.334243 
L 338.878497 570.948566 
L 351.66177 572.433061 
L 365.865406 573.862586 
L 382.199588 575.277668 
L 400.664315 576.64557 
L 421.259588 577.946609 
L 445.40577 579.241233 
L 449.666861 579.448452 
L 449.666861 579.448452 
" clip-path="url(#p6dcdf73989)" style="fill: none; stroke: #000000; stroke-width: 2; stroke-linecap: square"/>
   </g>
   <g id="line2d_47">
    <path d="M 94.575952 589.141864 
L 101.67777 589.064748 
L 108.779588 586.740944 
L 122.983224 515.228593 
L 137.186861 453.121865 
L 151.390497 439.943518 
L 179.79777 475.815758 
L 208.205043 496.914781 
L 236.612315 509.643944 
L 265.019588 533.427725 
L 435.463224 578.066896 
" clip-path="url(#p6dcdf73989)" style="fill: none; stroke-dasharray: 3.7,1.6; stroke-dashoffset: 0; stroke: #000000"/>
    <g clip-path="url(#p6dcdf73989)">
     <use xlink:href="#m3e9fd31bed" x="94.575952" y="589.141864" style="stroke: #000000; stroke-linejoin: miter"/>
     <use xlink:href="#m3e9fd31bed" x="101.67777" y="589.064748" style="stroke: #000000; stroke-linejoin: miter"/>
     <use xlink:href="#m3e9fd31bed" x="108.779588" y="586.740944" style="stroke: #000000; stroke-linejoin: miter"/>
     <use xlink:href="#m3e9fd31bed" x="122.983224" y="515.228593" style="stroke: #000000; stroke-linejoin: miter"/>
     <use xlink:href="#m3e9fd31bed" x="137.186861" y="453.121865" style="stroke: #000000; stroke-linejoin: miter"/>
     <use xlink:href="#m3e9fd31bed" x="151.390497" y="439.943518" style="stroke: #000000; stroke-linejoin: miter"/>
     <use xlink:href="#m3e9fd31bed" x="179.79777" y="475.815758" style="stroke: #000000; stroke-linejoin: miter"/>
     <use xlink:href="#m3e9fd31bed" x="208.205043" y="496.914781" style="stroke: #000000; stroke-linejoin: miter"/>
     <use xlink:href="#m3e9fd31bed" x="236.612315" y="509.643944" style="stroke: #000000; stroke-linejoin: miter"/>
     <use xlink:href="#m3e9fd31bed" x="265.019588" y="533.427725" style="stroke: #000000; stroke-linejoin: miter"/>
     <use xlink:href="#m3e9fd31bed" x="435.463224" y="578.066896" style="stroke: #000000; stroke-linejoin: miter"/>
    </g>
   </g>
   <g id="line2d_48">
    <path d="M 94.575952 589.141864 
L 96.706497 589.040318 
L 97.416679 588.822744 
L 98.126861 588.395095 
L 98.837043 587.688324 
L 99.547224 586.646751 
L 100.257406 585.231216 
L 100.967588 583.419495 
L 101.67777 581.20503 
L 103.098134 575.606581 
L 104.518497 568.607924 
L 105.938861 560.480777 
L 108.069406 546.85564 
L 114.461043 504.340404 
L 116.591588 491.828283 
L 118.722134 480.764061 
L 120.142497 474.264765 
L 121.562861 468.484701 
L 122.983224 463.419421 
L 124.403588 459.051181 
L 125.823952 455.352228 
L 127.244315 452.287611 
L 128.664679 449.817543 
L 130.085043 447.899334 
L 131.505406 446.488935 
L 132.92577 445.542165 
L 134.346134 445.01563 
L 135.766497 444.867419 
L 137.186861 445.05758 
L 138.607224 445.548455 
L 140.027588 446.304867 
L 141.447952 447.294217 
L 143.578497 449.150063 
L 145.709043 451.372512 
L 148.54977 454.772181 
L 151.390497 458.530224 
L 155.651588 464.574296 
L 171.275588 487.194924 
L 176.246861 493.841232 
L 181.218134 500.077217 
L 185.479224 505.081374 
L 189.740315 509.771571 
L 194.001406 514.156129 
L 198.262497 518.247733 
L 202.523588 522.061546 
L 206.784679 525.613926 
L 211.755952 529.450249 
L 216.727224 532.979664 
L 221.698497 536.227309 
L 226.66977 539.216892 
L 231.641043 541.970507 
L 237.322497 544.854686 
L 243.003952 547.485165 
L 248.685406 549.887153 
L 255.077043 552.344481 
L 261.468679 554.570256 
L 268.570497 556.802856 
L 275.672315 558.812134 
L 283.484315 560.796556 
L 292.006497 562.726955 
L 301.238861 564.581025 
L 311.181406 566.343163 
L 321.834134 568.003925 
L 333.907224 569.649876 
L 346.690497 571.167777 
L 360.894134 572.634318 
L 377.228315 574.091795 
L 395.693043 575.507307 
L 416.288315 576.860891 
L 440.434497 578.216112 
L 449.666861 578.680796 
L 449.666861 578.680796 
" clip-path="url(#p6dcdf73989)" style="fill: none; stroke: #1f77b4; stroke-width: 2; stroke-linecap: square"/>
   </g>
   <g id="line2d_49">
    <path d="M 94.575952 589.141864 
L 101.67777 589.06563 
L 108.779588 588.647846 
L 122.983224 529.733549 
L 137.186861 515.191585 
L 151.390497 496.026802 
L 179.79777 486.9571 
L 208.205043 495.848183 
L 236.612315 514.943689 
L 265.019588 518.211149 
L 435.463224 575.042115 
" clip-path="url(#p6dcdf73989)" style="fill: none; stroke-dasharray: 3.7,1.6; stroke-dashoffset: 0; stroke: #1f77b4"/>
    <g clip-path="url(#p6dcdf73989)">
     <use xlink:href="#m0d22c92424" x="94.575952" y="589.141864" style="fill: #1f77b4; stroke: #000000; stroke-linejoin: miter"/>
     <use xlink:href="#m0d22c92424" x="101.67777" y="589.06563" style="fill: #1f77b4; stroke: #000000; stroke-linejoin: miter"/>
     <use xlink:href="#m0d22c92424" x="108.779588" y="588.647846" style="fill: #1f77b4; stroke: #000000; stroke-linejoin: miter"/>
     <use xlink:href="#m0d22c92424" x="122.983224" y="529.733549" style="fill: #1f77b4; stroke: #000000; stroke-linejoin: miter"/>
     <use xlink:href="#m0d22c92424" x="137.186861" y="515.191585" style="fill: #1f77b4; stroke: #000000; stroke-linejoin: miter"/>
     <use xlink:href="#m0d22c92424" x="151.390497" y="496.026802" style="fill: #1f77b4; stroke: #000000; stroke-linejoin: miter"/>
     <use xlink:href="#m0d22c92424" x="179.79777" y="486.9571" style="fill: #1f77b4; stroke: #000000; stroke-linejoin: miter"/>
     <use xlink:href="#m0d22c92424" x="208.205043" y="495.848183" style="fill: #1f77b4; stroke: #000000; stroke-linejoin: miter"/>
     <use xlink:href="#m0d22c92424" x="236.612315" y="514.943689" style="fill: #1f77b4; stroke: #000000; stroke-linejoin: miter"/>
     <use xlink:href="#m0d22c92424" x="265.019588" y="518.211149" style="fill: #1f77b4; stroke: #000000; stroke-linejoin: miter"/>
     <use xlink:href="#m0d22c92424" x="435.463224" y="575.042115" style="fill: #1f77b4; stroke: #000000; stroke-linejoin: miter"/>
    </g>
   </g>
   <g id="line2d_50">
    <path d="M 94.575952 589.141864 
L 96.706497 589.060127 
L 97.416679 588.882138 
L 98.126861 588.529407 
L 98.837043 587.9432 
L 99.547224 587.075984 
L 100.257406 585.89424 
L 100.967588 584.378845 
L 101.67777 582.523958 
L 103.098134 577.827075 
L 104.518497 571.945274 
L 105.938861 565.102459 
L 108.069406 553.595962 
L 115.171224 513.525348 
L 117.30177 503.009814 
L 119.432315 493.702061 
L 121.562861 485.70469 
L 122.983224 481.114424 
L 124.403588 477.108395 
L 125.823952 473.668579 
L 127.244315 470.770127 
L 128.664679 468.383299 
L 130.085043 466.475091 
L 131.505406 465.010595 
L 132.92577 463.954096 
L 134.346134 463.26995 
L 135.766497 462.923252 
L 137.186861 462.880344 
L 138.607224 463.10917 
L 140.027588 463.579521 
L 141.447952 464.263175 
L 143.578497 465.631939 
L 145.709043 467.342657 
L 147.839588 469.32585 
L 150.680315 472.291563 
L 154.231224 476.353101 
L 159.912679 483.268704 
L 169.855224 495.414301 
L 175.536679 501.961354 
L 180.507952 507.343582 
L 185.479224 512.374986 
L 190.450497 517.051517 
L 195.42177 521.381892 
L 200.393043 525.382166 
L 205.364315 529.072244 
L 210.335588 532.473675 
L 215.306861 535.608281 
L 220.278134 538.497346 
L 225.959588 541.524427 
L 231.641043 544.2855 
L 237.322497 546.806512 
L 243.714134 549.385033 
L 250.10577 551.719849 
L 257.207588 554.060962 
L 264.309406 556.167078 
L 272.121406 558.246361 
L 280.643588 560.268354 
L 289.875952 562.209905 
L 299.818497 564.054989 
L 310.471224 565.794108 
L 321.834134 567.423397 
L 334.617406 569.027043 
L 348.821043 570.57767 
L 364.445043 572.058526 
L 382.199588 573.515897 
L 402.794861 574.973177 
L 426.230861 576.398018 
L 449.666861 577.631831 
L 449.666861 577.631831 
" clip-path="url(#p6dcdf73989)" style="fill: none; stroke: #d62728; stroke-width: 2; stroke-linecap: square"/>
   </g>
   <g id="line2d_51">
    <path d="M 94.575952 589.141864 
L 101.67777 589.064303 
L 108.779588 588.977111 
L 122.983224 548.022443 
L 137.186861 540.817676 
L 151.390497 517.665326 
L 179.79777 493.769269 
L 208.205043 482.044859 
L 236.612315 504.939447 
L 265.019588 522.174139 
L 435.463224 574.547249 
" clip-path="url(#p6dcdf73989)" style="fill: none; stroke-dasharray: 3.7,1.6; stroke-dashoffset: 0; stroke: #d62728"/>
    <g clip-path="url(#p6dcdf73989)">
     <use xlink:href="#m9803d90010" x="94.575952" y="589.141864" style="fill: #d62728; stroke: #000000; stroke-linejoin: miter"/>
     <use xlink:href="#m9803d90010" x="101.67777" y="589.064303" style="fill: #d62728; stroke: #000000; stroke-linejoin: miter"/>
     <use xlink:href="#m9803d90010" x="108.779588" y="588.977111" style="fill: #d62728; stroke: #000000; stroke-linejoin: miter"/>
     <use xlink:href="#m9803d90010" x="122.983224" y="548.022443" style="fill: #d62728; stroke: #000000; stroke-linejoin: miter"/>
     <use xlink:href="#m9803d90010" x="137.186861" y="540.817676" style="fill: #d62728; stroke: #000000; stroke-linejoin: miter"/>
     <use xlink:href="#m9803d90010" x="151.390497" y="517.665326" style="fill: #d62728; stroke: #000000; stroke-linejoin: miter"/>
     <use xlink:href="#m9803d90010" x="179.79777" y="493.769269" style="fill: #d62728; stroke: #000000; stroke-linejoin: miter"/>
     <use xlink:href="#m9803d90010" x="208.205043" y="482.044859" style="fill: #d62728; stroke: #000000; stroke-linejoin: miter"/>
     <use xlink:href="#m9803d90010" x="236.612315" y="504.939447" style="fill: #d62728; stroke: #000000; stroke-linejoin: miter"/>
     <use xlink:href="#m9803d90010" x="265.019588" y="522.174139" style="fill: #d62728; stroke: #000000; stroke-linejoin: miter"/>
     <use xlink:href="#m9803d90010" x="435.463224" y="574.547249" style="fill: #d62728; stroke: #000000; stroke-linejoin: miter"/>
    </g>
   </g>
   <g id="patch_9">
    <path d="M 76.821406 633.6 
L 76.821406 392.556522 
" style="fill: none; stroke: #000000; stroke-width: 0.8; stroke-linejoin: miter; stroke-linecap: square"/>
   </g>
   <g id="patch_10">
    <path d="M 467.421406 633.6 
L 467.421406 392.556522 
" style="fill: none; stroke: #000000; stroke-width: 0.8; stroke-linejoin: miter; stroke-linecap: square"/>
   </g>
   <g id="patch_11">
    <path d="M 76.821406 633.6 
L 467.421406 633.6 
" style="fill: none; stroke: #000000; stroke-width: 0.8; stroke-linejoin: miter; stroke-linecap: square"/>
   </g>
   <g id="patch_12">
    <path d="M 76.821406 392.556522 
L 467.421406 392.556522 
" style="fill: none; stroke: #000000; stroke-width: 0.8; stroke-linejoin: miter; stroke-linecap: square"/>
   </g>
   <g id="legend_2">
    <g id="patch_13">
     <path d="M 343.618906 469.411522 
L 461.821406 469.411522 
Q 463.421406 469.411522 463.421406 467.811522 
L 463.421406 398.156522 
Q 463.421406 396.556522 461.821406 396.556522 
L 343.618906 396.556522 
Q 342.018906 396.556522 342.018906 398.156522 
L 342.018906 467.811522 
Q 342.018906 469.411522 343.618906 469.411522 
z
" style="fill: #ffffff; opacity: 0.8; stroke: #cccccc; stroke-linejoin: miter"/>
    </g>
    <g id="line2d_52">
     <path d="M 345.218906 403.035272 
L 361.218906 403.035272 
" style="fill: none; stroke: #000000; stroke-width: 2; stroke-linecap: square"/>
    </g>
    <g id="line2d_53"/>
    <g id="text_38">
     <!-- Sim *1/*1 50 mg -->
     <g transform="translate(367.618906 405.835272) scale(0.08 -0.08)">
      <use xlink:href="#DejaVuSans-53"/>
      <use xlink:href="#DejaVuSans-69" transform="translate(63.476562 0)"/>
      <use xlink:href="#DejaVuSans-6d" transform="translate(91.259766 0)"/>
      <use xlink:href="#DejaVuSans-20" transform="translate(188.671875 0)"/>
      <use xlink:href="#DejaVuSans-2a" transform="translate(220.458984 0)"/>
      <use xlink:href="#DejaVuSans-31" transform="translate(270.458984 0)"/>
      <use xlink:href="#DejaVuSans-2f" transform="translate(334.082031 0)"/>
      <use xlink:href="#DejaVuSans-2a" transform="translate(367.773438 0)"/>
      <use xlink:href="#DejaVuSans-31" transform="translate(417.773438 0)"/>
      <use xlink:href="#DejaVuSans-20" transform="translate(481.396484 0)"/>
      <use xlink:href="#DejaVuSans-35" transform="translate(513.183594 0)"/>
      <use xlink:href="#DejaVuSans-30" transform="translate(576.806641 0)"/>
      <use xlink:href="#DejaVuSans-20" transform="translate(640.429688 0)"/>
      <use xlink:href="#DejaVuSans-6d" transform="translate(672.216797 0)"/>
      <use xlink:href="#DejaVuSans-67" transform="translate(769.628906 0)"/>
     </g>
    </g>
    <g id="LineCollection_10">
     <path d="M 353.218906 418.777772 
L 353.218906 410.777772 
" style="fill: none; stroke: #000000"/>
    </g>
    <g id="line2d_54">
     <path d="M 345.218906 414.777772 
L 361.218906 414.777772 
" style="fill: none; stroke-dasharray: 3.7,1.6; stroke-dashoffset: 0; stroke: #000000"/>
    </g>
    <g id="line2d_55">
     <g>
      <use xlink:href="#m3e9fd31bed" x="353.218906" y="414.777772" style="stroke: #000000; stroke-linejoin: miter"/>
     </g>
    </g>
    <g id="text_39">
     <!-- *1/*1 50 mg±SD (n=5) -->
     <g transform="translate(367.618906 417.577772) scale(0.08 -0.08)">
      <use xlink:href="#DejaVuSans-2a"/>
      <use xlink:href="#DejaVuSans-31" transform="translate(50 0)"/>
      <use xlink:href="#DejaVuSans-2f" transform="translate(113.623047 0)"/>
      <use xlink:href="#DejaVuSans-2a" transform="translate(147.314453 0)"/>
      <use xlink:href="#DejaVuSans-31" transform="translate(197.314453 0)"/>
      <use xlink:href="#DejaVuSans-20" transform="translate(260.9375 0)"/>
      <use xlink:href="#DejaVuSans-35" transform="translate(292.724609 0)"/>
      <use xlink:href="#DejaVuSans-30" transform="translate(356.347656 0)"/>
      <use xlink:href="#DejaVuSans-20" transform="translate(419.970703 0)"/>
      <use xlink:href="#DejaVuSans-6d" transform="translate(451.757812 0)"/>
      <use xlink:href="#DejaVuSans-67" transform="translate(549.169922 0)"/>
      <use xlink:href="#DejaVuSans-b1" transform="translate(612.646484 0)"/>
      <use xlink:href="#DejaVuSans-53" transform="translate(696.435547 0)"/>
      <use xlink:href="#DejaVuSans-44" transform="translate(759.912109 0)"/>
      <use xlink:href="#DejaVuSans-20" transform="translate(836.914062 0)"/>
      <use xlink:href="#DejaVuSans-28" transform="translate(868.701172 0)"/>
      <use xlink:href="#DejaVuSans-6e" transform="translate(907.714844 0)"/>
      <use xlink:href="#DejaVuSans-3d" transform="translate(971.09375 0)"/>
      <use xlink:href="#DejaVuSans-35" transform="translate(1054.882812 0)"/>
      <use xlink:href="#DejaVuSans-29" transform="translate(1118.505859 0)"/>
     </g>
    </g>
    <g id="line2d_56">
     <path d="M 345.218906 426.520272 
L 361.218906 426.520272 
" style="fill: none; stroke: #1f77b4; stroke-width: 2; stroke-linecap: square"/>
    </g>
    <g id="line2d_57"/>
    <g id="text_40">
     <!-- Sim *1/*2 50 mg -->
     <g transform="translate(367.618906 429.320272) scale(0.08 -0.08)">
      <use xlink:href="#DejaVuSans-53"/>
      <use xlink:href="#DejaVuSans-69" transform="translate(63.476562 0)"/>
      <use xlink:href="#DejaVuSans-6d" transform="translate(91.259766 0)"/>
      <use xlink:href="#DejaVuSans-20" transform="translate(188.671875 0)"/>
      <use xlink:href="#DejaVuSans-2a" transform="translate(220.458984 0)"/>
      <use xlink:href="#DejaVuSans-31" transform="translate(270.458984 0)"/>
      <use xlink:href="#DejaVuSans-2f" transform="translate(334.082031 0)"/>
      <use xlink:href="#DejaVuSans-2a" transform="translate(367.773438 0)"/>
      <use xlink:href="#DejaVuSans-32" transform="translate(417.773438 0)"/>
      <use xlink:href="#DejaVuSans-20" transform="translate(481.396484 0)"/>
      <use xlink:href="#DejaVuSans-35" transform="translate(513.183594 0)"/>
      <use xlink:href="#DejaVuSans-30" transform="translate(576.806641 0)"/>
      <use xlink:href="#DejaVuSans-20" transform="translate(640.429688 0)"/>
      <use xlink:href="#DejaVuSans-6d" transform="translate(672.216797 0)"/>
      <use xlink:href="#DejaVuSans-67" transform="translate(769.628906 0)"/>
     </g>
    </g>
    <g id="LineCollection_11">
     <path d="M 353.218906 442.262772 
L 353.218906 434.262772 
" style="fill: none; stroke: #1f77b4"/>
    </g>
    <g id="line2d_58">
     <path d="M 345.218906 438.262772 
L 361.218906 438.262772 
" style="fill: none; stroke-dasharray: 3.7,1.6; stroke-dashoffset: 0; stroke: #1f77b4"/>
    </g>
    <g id="line2d_59">
     <g>
      <use xlink:href="#m0d22c92424" x="353.218906" y="438.262772" style="fill: #1f77b4; stroke: #000000; stroke-linejoin: miter"/>
     </g>
    </g>
    <g id="text_41">
     <!-- *1/*2 50 mg±SD (n=5) -->
     <g transform="translate(367.618906 441.062772) scale(0.08 -0.08)">
      <use xlink:href="#DejaVuSans-2a"/>
      <use xlink:href="#DejaVuSans-31" transform="translate(50 0)"/>
      <use xlink:href="#DejaVuSans-2f" transform="translate(113.623047 0)"/>
      <use xlink:href="#DejaVuSans-2a" transform="translate(147.314453 0)"/>
      <use xlink:href="#DejaVuSans-32" transform="translate(197.314453 0)"/>
      <use xlink:href="#DejaVuSans-20" transform="translate(260.9375 0)"/>
      <use xlink:href="#DejaVuSans-35" transform="translate(292.724609 0)"/>
      <use xlink:href="#DejaVuSans-30" transform="translate(356.347656 0)"/>
      <use xlink:href="#DejaVuSans-20" transform="translate(419.970703 0)"/>
      <use xlink:href="#DejaVuSans-6d" transform="translate(451.757812 0)"/>
      <use xlink:href="#DejaVuSans-67" transform="translate(549.169922 0)"/>
      <use xlink:href="#DejaVuSans-b1" transform="translate(612.646484 0)"/>
      <use xlink:href="#DejaVuSans-53" transform="translate(696.435547 0)"/>
      <use xlink:href="#DejaVuSans-44" transform="translate(759.912109 0)"/>
      <use xlink:href="#DejaVuSans-20" transform="translate(836.914062 0)"/>
      <use xlink:href="#DejaVuSans-28" transform="translate(868.701172 0)"/>
      <use xlink:href="#DejaVuSans-6e" transform="translate(907.714844 0)"/>
      <use xlink:href="#DejaVuSans-3d" transform="translate(971.09375 0)"/>
      <use xlink:href="#DejaVuSans-35" transform="translate(1054.882812 0)"/>
      <use xlink:href="#DejaVuSans-29" transform="translate(1118.505859 0)"/>
     </g>
    </g>
    <g id="line2d_60">
     <path d="M 345.218906 450.005272 
L 361.218906 450.005272 
" style="fill: none; stroke: #d62728; stroke-width: 2; stroke-linecap: square"/>
    </g>
    <g id="line2d_61"/>
    <g id="text_42">
     <!-- Sim *1/*3 50 mg -->
     <g transform="translate(367.618906 452.805272) scale(0.08 -0.08)">
      <use xlink:href="#DejaVuSans-53"/>
      <use xlink:href="#DejaVuSans-69" transform="translate(63.476562 0)"/>
      <use xlink:href="#DejaVuSans-6d" transform="translate(91.259766 0)"/>
      <use xlink:href="#DejaVuSans-20" transform="translate(188.671875 0)"/>
      <use xlink:href="#DejaVuSans-2a" transform="translate(220.458984 0)"/>
      <use xlink:href="#DejaVuSans-31" transform="translate(270.458984 0)"/>
      <use xlink:href="#DejaVuSans-2f" transform="translate(334.082031 0)"/>
      <use xlink:href="#DejaVuSans-2a" transform="translate(367.773438 0)"/>
      <use xlink:href="#DejaVuSans-33" transform="translate(417.773438 0)"/>
      <use xlink:href="#DejaVuSans-20" transform="translate(481.396484 0)"/>
      <use xlink:href="#DejaVuSans-35" transform="translate(513.183594 0)"/>
      <use xlink:href="#DejaVuSans-30" transform="translate(576.806641 0)"/>
      <use xlink:href="#DejaVuSans-20" transform="translate(640.429688 0)"/>
      <use xlink:href="#DejaVuSans-6d" transform="translate(672.216797 0)"/>
      <use xlink:href="#DejaVuSans-67" transform="translate(769.628906 0)"/>
     </g>
    </g>
    <g id="LineCollection_12">
     <path d="M 353.218906 465.747772 
L 353.218906 457.747772 
" style="fill: none; stroke: #d62728"/>
    </g>
    <g id="line2d_62">
     <path d="M 345.218906 461.747772 
L 361.218906 461.747772 
" style="fill: none; stroke-dasharray: 3.7,1.6; stroke-dashoffset: 0; stroke: #d62728"/>
    </g>
    <g id="line2d_63">
     <g>
      <use xlink:href="#m9803d90010" x="353.218906" y="461.747772" style="fill: #d62728; stroke: #000000; stroke-linejoin: miter"/>
     </g>
    </g>
    <g id="text_43">
     <!-- *1/*3 50 mg±SD (n=5) -->
     <g transform="translate(367.618906 464.547772) scale(0.08 -0.08)">
      <use xlink:href="#DejaVuSans-2a"/>
      <use xlink:href="#DejaVuSans-31" transform="translate(50 0)"/>
      <use xlink:href="#DejaVuSans-2f" transform="translate(113.623047 0)"/>
      <use xlink:href="#DejaVuSans-2a" transform="translate(147.314453 0)"/>
      <use xlink:href="#DejaVuSans-33" transform="translate(197.314453 0)"/>
      <use xlink:href="#DejaVuSans-20" transform="translate(260.9375 0)"/>
      <use xlink:href="#DejaVuSans-35" transform="translate(292.724609 0)"/>
      <use xlink:href="#DejaVuSans-30" transform="translate(356.347656 0)"/>
      <use xlink:href="#DejaVuSans-20" transform="translate(419.970703 0)"/>
      <use xlink:href="#DejaVuSans-6d" transform="translate(451.757812 0)"/>
      <use xlink:href="#DejaVuSans-67" transform="translate(549.169922 0)"/>
      <use xlink:href="#DejaVuSans-b1" transform="translate(612.646484 0)"/>
      <use xlink:href="#DejaVuSans-53" transform="translate(696.435547 0)"/>
      <use xlink:href="#DejaVuSans-44" transform="translate(759.912109 0)"/>
      <use xlink:href="#DejaVuSans-20" transform="translate(836.914062 0)"/>
      <use xlink:href="#DejaVuSans-28" transform="translate(868.701172 0)"/>
      <use xlink:href="#DejaVuSans-6e" transform="translate(907.714844 0)"/>
      <use xlink:href="#DejaVuSans-3d" transform="translate(971.09375 0)"/>
      <use xlink:href="#DejaVuSans-35" transform="translate(1054.882812 0)"/>
      <use xlink:href="#DejaVuSans-29" transform="translate(1118.505859 0)"/>
     </g>
    </g>
   </g>
  </g>
  <g id="text_44">
   <!-- Lee2003b (healthy) -->
   <g transform="translate(128.266719 26.196094) scale(0.25 -0.25)">
    <defs>
     <path id="DejaVuSans-Bold-32" d="M 1844 884 
L 3897 884 
L 3897 0 
L 506 0 
L 506 884 
L 2209 2388 
Q 2438 2594 2547 2791 
Q 2656 2988 2656 3200 
Q 2656 3528 2436 3728 
Q 2216 3928 1850 3928 
Q 1569 3928 1234 3808 
Q 900 3688 519 3450 
L 519 4475 
Q 925 4609 1322 4679 
Q 1719 4750 2100 4750 
Q 2938 4750 3402 4381 
Q 3866 4013 3866 3353 
Q 3866 2972 3669 2642 
Q 3472 2313 2841 1759 
L 1844 884 
z
" transform="scale(0.015625)"/>
     <path id="DejaVuSans-Bold-30" d="M 2944 2338 
Q 2944 3213 2780 3570 
Q 2616 3928 2228 3928 
Q 1841 3928 1675 3570 
Q 1509 3213 1509 2338 
Q 1509 1453 1675 1090 
Q 1841 728 2228 728 
Q 2613 728 2778 1090 
Q 2944 1453 2944 2338 
z
M 4147 2328 
Q 4147 1169 3647 539 
Q 3147 -91 2228 -91 
Q 1306 -91 806 539 
Q 306 1169 306 2328 
Q 306 3491 806 4120 
Q 1306 4750 2228 4750 
Q 3147 4750 3647 4120 
Q 4147 3491 4147 2328 
z
" transform="scale(0.015625)"/>
     <path id="DejaVuSans-Bold-62" d="M 2400 722 
Q 2759 722 2948 984 
Q 3138 1247 3138 1747 
Q 3138 2247 2948 2509 
Q 2759 2772 2400 2772 
Q 2041 2772 1848 2508 
Q 1656 2244 1656 1747 
Q 1656 1250 1848 986 
Q 2041 722 2400 722 
z
M 1656 2988 
Q 1888 3294 2169 3439 
Q 2450 3584 2816 3584 
Q 3463 3584 3878 3070 
Q 4294 2556 4294 1747 
Q 4294 938 3878 423 
Q 3463 -91 2816 -91 
Q 2450 -91 2169 54 
Q 1888 200 1656 506 
L 1656 0 
L 538 0 
L 538 4863 
L 1656 4863 
L 1656 2988 
z
" transform="scale(0.015625)"/>
     <path id="DejaVuSans-Bold-28" d="M 2413 -844 
L 1484 -844 
Q 1006 -72 778 623 
Q 550 1319 550 2003 
Q 550 2688 779 3389 
Q 1009 4091 1484 4856 
L 2413 4856 
Q 2013 4116 1813 3408 
Q 1613 2700 1613 2009 
Q 1613 1319 1811 609 
Q 2009 -100 2413 -844 
z
" transform="scale(0.015625)"/>
     <path id="DejaVuSans-Bold-6c" d="M 538 4863 
L 1656 4863 
L 1656 0 
L 538 0 
L 538 4863 
z
" transform="scale(0.015625)"/>
     <path id="DejaVuSans-Bold-79" d="M 78 3500 
L 1197 3500 
L 2138 1125 
L 2938 3500 
L 4056 3500 
L 2584 -331 
Q 2363 -916 2067 -1148 
Q 1772 -1381 1288 -1381 
L 641 -1381 
L 641 -647 
L 991 -647 
Q 1275 -647 1404 -556 
Q 1534 -466 1606 -231 
L 1638 -134 
L 78 3500 
z
" transform="scale(0.015625)"/>
     <path id="DejaVuSans-Bold-29" d="M 513 -844 
Q 913 -100 1113 609 
Q 1313 1319 1313 2009 
Q 1313 2700 1113 3408 
Q 913 4116 513 4856 
L 1441 4856 
Q 1916 4091 2145 3389 
Q 2375 2688 2375 2003 
Q 2375 1319 2147 623 
Q 1919 -72 1441 -844 
L 513 -844 
z
" transform="scale(0.015625)"/>
    </defs>
    <use xlink:href="#DejaVuSans-Bold-4c"/>
    <use xlink:href="#DejaVuSans-Bold-65" transform="translate(63.720703 0)"/>
    <use xlink:href="#DejaVuSans-Bold-65" transform="translate(131.542969 0)"/>
    <use xlink:href="#DejaVuSans-Bold-32" transform="translate(199.365234 0)"/>
    <use xlink:href="#DejaVuSans-Bold-30" transform="translate(268.945312 0)"/>
    <use xlink:href="#DejaVuSans-Bold-30" transform="translate(338.525391 0)"/>
    <use xlink:href="#DejaVuSans-Bold-33" transform="translate(408.105469 0)"/>
    <use xlink:href="#DejaVuSans-Bold-62" transform="translate(477.685547 0)"/>
    <use xlink:href="#DejaVuSans-Bold-20" transform="translate(549.267578 0)"/>
    <use xlink:href="#DejaVuSans-Bold-28" transform="translate(584.082031 0)"/>
    <use xlink:href="#DejaVuSans-Bold-68" transform="translate(629.785156 0)"/>
    <use xlink:href="#DejaVuSans-Bold-65" transform="translate(700.976562 0)"/>
    <use xlink:href="#DejaVuSans-Bold-61" transform="translate(768.798828 0)"/>
    <use xlink:href="#DejaVuSans-Bold-6c" transform="translate(836.279297 0)"/>
    <use xlink:href="#DejaVuSans-Bold-74" transform="translate(870.556641 0)"/>
    <use xlink:href="#DejaVuSans-Bold-68" transform="translate(918.359375 0)"/>
    <use xlink:href="#DejaVuSans-Bold-79" transform="translate(989.550781 0)"/>
    <use xlink:href="#DejaVuSans-Bold-29" transform="translate(1054.736328 0)"/>
   </g>
  </g>
 </g>
 <defs>
  <clipPath id="p2705db0799">
   <rect x="76.821406" y="79.2" width="390.6" height="241.043478"/>
  </clipPath>
  <clipPath id="p6dcdf73989">
   <rect x="76.821406" y="392.556522" width="390.6" height="241.043478"/>
  </clipPath>
 </defs>
</svg>
