<?xml version="1.0" encoding="utf-8" standalone="no"?>
<!DOCTYPE svg PUBLIC "-//W3C//DTD SVG 1.1//EN"
  "http://www.w3.org/Graphics/SVG/1.1/DTD/svg11.dtd">
<svg xmlns:xlink="http://www.w3.org/1999/xlink" width="720pt" height="720pt" viewBox="0 0 720 720" xmlns="http://www.w3.org/2000/svg" version="1.1">
 <metadata>
  <rdf:RDF xmlns:dc="http://purl.org/dc/elements/1.1/" xmlns:cc="http://creativecommons.org/ns#" xmlns:rdf="http://www.w3.org/1999/02/22-rdf-syntax-ns#">
   <cc:Work>
    <dc:type rdf:resource="http://purl.org/dc/dcmitype/StillImage"/>
    <dc:date>2025-07-08T18:39:40.684798</dc:date>
    <dc:format>image/svg+xml</dc:format>
    <dc:creator>
     <cc:Agent>
      <dc:title>Matplotlib v3.9.1, https://matplotlib.org/</dc:title>
     </cc:Agent>
    </dc:creator>
   </cc:Work>
  </rdf:RDF>
 </metadata>
 <defs>
  <style type="text/css">*{stroke-linejoin: round; stroke-linecap: butt}</style>
 </defs>
 <g id="figure_1">
  <g id="patch_1">
   <path d="M 0 720 
L 720 720 
L 720 0 
L 0 0 
z
" style="fill: #ffffff"/>
  </g>
  <g id="axes_1">
   <g id="patch_2">
    <path d="M 90 338.4 
L 343.636364 338.4 
L 343.636364 86.4 
L 90 86.4 
z
" style="fill: #ffffff"/>
   </g>
   <g id="PolyCollection_1">
    <defs>
     <path id="mf53a7946ea" d="M 106.815252 -568.959917 
L 106.815252 -478.907087 
L 107.248355 -553.627033 
L 107.681459 -574.169581 
L 108.114563 -602.160105 
L 108.98077 -612.884644 
L 319.90228 -393.054545 
L 320.335384 -565.598461 
L 320.768487 -591.31184 
L 321.201591 -614.973485 
L 322.067799 -622.145455 
L 322.067799 -568.959917 
L 322.067799 -568.959917 
L 321.201591 -568.959917 
L 320.768487 -568.959917 
L 320.335384 -568.959917 
L 319.90228 -568.959917 
L 108.98077 -568.959917 
L 108.114563 -568.959917 
L 107.681459 -568.959917 
L 107.248355 -568.959917 
L 106.815252 -568.959917 
z
" style="stroke: #ff8c00; stroke-opacity: 0.4"/>
    </defs>
    <g clip-path="url(#p434dae5d82)">
     <use xlink:href="#mf53a7946ea" x="0" y="720" style="fill: #ff8c00; fill-opacity: 0.4; stroke: #ff8c00; stroke-opacity: 0.4"/>
    </g>
   </g>
   <g id="matplotlib.axis_1">
    <g id="xtick_1">
     <g id="line2d_1">
      <defs>
       <path id="m8decb054ba" d="M 0 0 
L 0 3.5 
" style="stroke: #000000; stroke-width: 0.8"/>
      </defs>
      <g>
       <use xlink:href="#m8decb054ba" x="106.382148" y="338.4" style="stroke: #000000; stroke-width: 0.8"/>
      </g>
     </g>
    </g>
    <g id="xtick_2">
     <g id="line2d_2">
      <g>
       <use xlink:href="#m8decb054ba" x="142.474124" y="338.4" style="stroke: #000000; stroke-width: 0.8"/>
      </g>
     </g>
    </g>
    <g id="xtick_3">
     <g id="line2d_3">
      <g>
       <use xlink:href="#m8decb054ba" x="178.566101" y="338.4" style="stroke: #000000; stroke-width: 0.8"/>
      </g>
     </g>
    </g>
    <g id="xtick_4">
     <g id="line2d_4">
      <g>
       <use xlink:href="#m8decb054ba" x="214.658077" y="338.4" style="stroke: #000000; stroke-width: 0.8"/>
      </g>
     </g>
    </g>
    <g id="xtick_5">
     <g id="line2d_5">
      <g>
       <use xlink:href="#m8decb054ba" x="250.750053" y="338.4" style="stroke: #000000; stroke-width: 0.8"/>
      </g>
     </g>
    </g>
    <g id="xtick_6">
     <g id="line2d_6">
      <g>
       <use xlink:href="#m8decb054ba" x="286.84203" y="338.4" style="stroke: #000000; stroke-width: 0.8"/>
      </g>
     </g>
    </g>
    <g id="xtick_7">
     <g id="line2d_7">
      <g>
       <use xlink:href="#m8decb054ba" x="322.934006" y="338.4" style="stroke: #000000; stroke-width: 0.8"/>
      </g>
     </g>
    </g>
   </g>
   <g id="matplotlib.axis_2">
    <g id="ytick_1">
     <g id="line2d_8">
      <defs>
       <path id="meece10333c" d="M 0 0 
L -3.5 0 
" style="stroke: #000000; stroke-width: 0.8"/>
      </defs>
      <g>
       <use xlink:href="#meece10333c" x="90" y="305.664283" style="stroke: #000000; stroke-width: 0.8"/>
      </g>
     </g>
     <g id="text_1">
      <!-- −0.8 -->
      <g transform="translate(58.717187 309.463502) scale(0.1 -0.1)">
       <defs>
        <path id="DejaVuSans-2212" d="M 678 2272 
L 4684 2272 
L 4684 1741 
L 678 1741 
L 678 2272 
z
" transform="scale(0.015625)"/>
        <path id="DejaVuSans-30" d="M 2034 4250 
Q 1547 4250 1301 3770 
Q 1056 3291 1056 2328 
Q 1056 1369 1301 889 
Q 1547 409 2034 409 
Q 2525 409 2770 889 
Q 3016 1369 3016 2328 
Q 3016 3291 2770 3770 
Q 2525 4250 2034 4250 
z
M 2034 4750 
Q 2819 4750 3233 4129 
Q 3647 3509 3647 2328 
Q 3647 1150 3233 529 
Q 2819 -91 2034 -91 
Q 1250 -91 836 529 
Q 422 1150 422 2328 
Q 422 3509 836 4129 
Q 1250 4750 2034 4750 
z
" transform="scale(0.015625)"/>
        <path id="DejaVuSans-2e" d="M 684 794 
L 1344 794 
L 1344 0 
L 684 0 
L 684 794 
z
" transform="scale(0.015625)"/>
        <path id="DejaVuSans-38" d="M 2034 2216 
Q 1584 2216 1326 1975 
Q 1069 1734 1069 1313 
Q 1069 891 1326 650 
Q 1584 409 2034 409 
Q 2484 409 2743 651 
Q 3003 894 3003 1313 
Q 3003 1734 2745 1975 
Q 2488 2216 2034 2216 
z
M 1403 2484 
Q 997 2584 770 2862 
Q 544 3141 544 3541 
Q 544 4100 942 4425 
Q 1341 4750 2034 4750 
Q 2731 4750 3128 4425 
Q 3525 4100 3525 3541 
Q 3525 3141 3298 2862 
Q 3072 2584 2669 2484 
Q 3125 2378 3379 2068 
Q 3634 1759 3634 1313 
Q 3634 634 3220 271 
Q 2806 -91 2034 -91 
Q 1263 -91 848 271 
Q 434 634 434 1313 
Q 434 1759 690 2068 
Q 947 2378 1403 2484 
z
M 1172 3481 
Q 1172 3119 1398 2916 
Q 1625 2713 2034 2713 
Q 2441 2713 2670 2916 
Q 2900 3119 2900 3481 
Q 2900 3844 2670 4047 
Q 2441 4250 2034 4250 
Q 1625 4250 1398 4047 
Q 1172 3844 1172 3481 
z
" transform="scale(0.015625)"/>
       </defs>
       <use xlink:href="#DejaVuSans-2212"/>
       <use xlink:href="#DejaVuSans-30" x="83.789062"/>
       <use xlink:href="#DejaVuSans-2e" x="147.412109"/>
       <use xlink:href="#DejaVuSans-38" x="179.199219"/>
      </g>
     </g>
    </g>
    <g id="ytick_2">
     <g id="line2d_9">
      <g>
       <use xlink:href="#meece10333c" x="90" y="267.008233" style="stroke: #000000; stroke-width: 0.8"/>
      </g>
     </g>
     <g id="text_2">
      <!-- −0.6 -->
      <g transform="translate(58.717187 270.807452) scale(0.1 -0.1)">
       <defs>
        <path id="DejaVuSans-36" d="M 2113 2584 
Q 1688 2584 1439 2293 
Q 1191 2003 1191 1497 
Q 1191 994 1439 701 
Q 1688 409 2113 409 
Q 2538 409 2786 701 
Q 3034 994 3034 1497 
Q 3034 2003 2786 2293 
Q 2538 2584 2113 2584 
z
M 3366 4563 
L 3366 3988 
Q 3128 4100 2886 4159 
Q 2644 4219 2406 4219 
Q 1781 4219 1451 3797 
Q 1122 3375 1075 2522 
Q 1259 2794 1537 2939 
Q 1816 3084 2150 3084 
Q 2853 3084 3261 2657 
Q 3669 2231 3669 1497 
Q 3669 778 3244 343 
Q 2819 -91 2113 -91 
Q 1303 -91 875 529 
Q 447 1150 447 2328 
Q 447 3434 972 4092 
Q 1497 4750 2381 4750 
Q 2619 4750 2861 4703 
Q 3103 4656 3366 4563 
z
" transform="scale(0.015625)"/>
       </defs>
       <use xlink:href="#DejaVuSans-2212"/>
       <use xlink:href="#DejaVuSans-30" x="83.789062"/>
       <use xlink:href="#DejaVuSans-2e" x="147.412109"/>
       <use xlink:href="#DejaVuSans-36" x="179.199219"/>
      </g>
     </g>
    </g>
    <g id="ytick_3">
     <g id="line2d_10">
      <g>
       <use xlink:href="#meece10333c" x="90" y="228.352183" style="stroke: #000000; stroke-width: 0.8"/>
      </g>
     </g>
     <g id="text_3">
      <!-- −0.4 -->
      <g transform="translate(58.717187 232.151401) scale(0.1 -0.1)">
       <defs>
        <path id="DejaVuSans-34" d="M 2419 4116 
L 825 1625 
L 2419 1625 
L 2419 4116 
z
M 2253 4666 
L 3047 4666 
L 3047 1625 
L 3713 1625 
L 3713 1100 
L 3047 1100 
L 3047 0 
L 2419 0 
L 2419 1100 
L 313 1100 
L 313 1709 
L 2253 4666 
z
" transform="scale(0.015625)"/>
       </defs>
       <use xlink:href="#DejaVuSans-2212"/>
       <use xlink:href="#DejaVuSans-30" x="83.789062"/>
       <use xlink:href="#DejaVuSans-2e" x="147.412109"/>
       <use xlink:href="#DejaVuSans-34" x="179.199219"/>
      </g>
     </g>
    </g>
    <g id="ytick_4">
     <g id="line2d_11">
      <g>
       <use xlink:href="#meece10333c" x="90" y="189.696133" style="stroke: #000000; stroke-width: 0.8"/>
      </g>
     </g>
     <g id="text_4">
      <!-- −0.2 -->
      <g transform="translate(58.717187 193.495351) scale(0.1 -0.1)">
       <defs>
        <path id="DejaVuSans-32" d="M 1228 531 
L 3431 531 
L 3431 0 
L 469 0 
L 469 531 
Q 828 903 1448 1529 
Q 2069 2156 2228 2338 
Q 2531 2678 2651 2914 
Q 2772 3150 2772 3378 
Q 2772 3750 2511 3984 
Q 2250 4219 1831 4219 
Q 1534 4219 1204 4116 
Q 875 4013 500 3803 
L 500 4441 
Q 881 4594 1212 4672 
Q 1544 4750 1819 4750 
Q 2544 4750 2975 4387 
Q 3406 4025 3406 3419 
Q 3406 3131 3298 2873 
Q 3191 2616 2906 2266 
Q 2828 2175 2409 1742 
Q 1991 1309 1228 531 
z
" transform="scale(0.015625)"/>
       </defs>
       <use xlink:href="#DejaVuSans-2212"/>
       <use xlink:href="#DejaVuSans-30" x="83.789062"/>
       <use xlink:href="#DejaVuSans-2e" x="147.412109"/>
       <use xlink:href="#DejaVuSans-32" x="179.199219"/>
      </g>
     </g>
    </g>
    <g id="ytick_5">
     <g id="line2d_12">
      <g>
       <use xlink:href="#meece10333c" x="90" y="151.040083" style="stroke: #000000; stroke-width: 0.8"/>
      </g>
     </g>
     <g id="text_5">
      <!-- 0.0 -->
      <g transform="translate(67.096875 154.839301) scale(0.1 -0.1)">
       <use xlink:href="#DejaVuSans-30"/>
       <use xlink:href="#DejaVuSans-2e" x="63.623047"/>
       <use xlink:href="#DejaVuSans-30" x="95.410156"/>
      </g>
     </g>
    </g>
    <g id="ytick_6">
     <g id="line2d_13">
      <g>
       <use xlink:href="#meece10333c" x="90" y="112.384032" style="stroke: #000000; stroke-width: 0.8"/>
      </g>
     </g>
     <g id="text_6">
      <!-- 0.2 -->
      <g transform="translate(67.096875 116.183251) scale(0.1 -0.1)">
       <use xlink:href="#DejaVuSans-30"/>
       <use xlink:href="#DejaVuSans-2e" x="63.623047"/>
       <use xlink:href="#DejaVuSans-32" x="95.410156"/>
      </g>
     </g>
    </g>
    <g id="text_7">
     <!-- [Cve_los] -->
     <g transform="translate(51.887812 239.978437) rotate(-90) scale(0.12 -0.12)">
      <defs>
       <path id="DejaVuSans-5b" d="M 550 4863 
L 1875 4863 
L 1875 4416 
L 1125 4416 
L 1125 -397 
L 1875 -397 
L 1875 -844 
L 550 -844 
L 550 4863 
z
" transform="scale(0.015625)"/>
       <path id="DejaVuSans-43" d="M 4122 4306 
L 4122 3641 
Q 3803 3938 3442 4084 
Q 3081 4231 2675 4231 
Q 1875 4231 1450 3742 
Q 1025 3253 1025 2328 
Q 1025 1406 1450 917 
Q 1875 428 2675 428 
Q 3081 428 3442 575 
Q 3803 722 4122 1019 
L 4122 359 
Q 3791 134 3420 21 
Q 3050 -91 2638 -91 
Q 1578 -91 968 557 
Q 359 1206 359 2328 
Q 359 3453 968 4101 
Q 1578 4750 2638 4750 
Q 3056 4750 3426 4639 
Q 3797 4528 4122 4306 
z
" transform="scale(0.015625)"/>
       <path id="DejaVuSans-76" d="M 191 3500 
L 800 3500 
L 1894 563 
L 2988 3500 
L 3597 3500 
L 2284 0 
L 1503 0 
L 191 3500 
z
" transform="scale(0.015625)"/>
       <path id="DejaVuSans-65" d="M 3597 1894 
L 3597 1613 
L 953 1613 
Q 991 1019 1311 708 
Q 1631 397 2203 397 
Q 2534 397 2845 478 
Q 3156 559 3463 722 
L 3463 178 
Q 3153 47 2828 -22 
Q 2503 -91 2169 -91 
Q 1331 -91 842 396 
Q 353 884 353 1716 
Q 353 2575 817 3079 
Q 1281 3584 2069 3584 
Q 2775 3584 3186 3129 
Q 3597 2675 3597 1894 
z
M 3022 2063 
Q 3016 2534 2758 2815 
Q 2500 3097 2075 3097 
Q 1594 3097 1305 2825 
Q 1016 2553 972 2059 
L 3022 2063 
z
" transform="scale(0.015625)"/>
       <path id="DejaVuSans-5f" d="M 3263 -1063 
L 3263 -1509 
L -63 -1509 
L -63 -1063 
L 3263 -1063 
z
" transform="scale(0.015625)"/>
       <path id="DejaVuSans-6c" d="M 603 4863 
L 1178 4863 
L 1178 0 
L 603 0 
L 603 4863 
z
" transform="scale(0.015625)"/>
       <path id="DejaVuSans-6f" d="M 1959 3097 
Q 1497 3097 1228 2736 
Q 959 2375 959 1747 
Q 959 1119 1226 758 
Q 1494 397 1959 397 
Q 2419 397 2687 759 
Q 2956 1122 2956 1747 
Q 2956 2369 2687 2733 
Q 2419 3097 1959 3097 
z
M 1959 3584 
Q 2709 3584 3137 3096 
Q 3566 2609 3566 1747 
Q 3566 888 3137 398 
Q 2709 -91 1959 -91 
Q 1206 -91 779 398 
Q 353 888 353 1747 
Q 353 2609 779 3096 
Q 1206 3584 1959 3584 
z
" transform="scale(0.015625)"/>
       <path id="DejaVuSans-73" d="M 2834 3397 
L 2834 2853 
Q 2591 2978 2328 3040 
Q 2066 3103 1784 3103 
Q 1356 3103 1142 2972 
Q 928 2841 928 2578 
Q 928 2378 1081 2264 
Q 1234 2150 1697 2047 
L 1894 2003 
Q 2506 1872 2764 1633 
Q 3022 1394 3022 966 
Q 3022 478 2636 193 
Q 2250 -91 1575 -91 
Q 1294 -91 989 -36 
Q 684 19 347 128 
L 347 722 
Q 666 556 975 473 
Q 1284 391 1588 391 
Q 1994 391 2212 530 
Q 2431 669 2431 922 
Q 2431 1156 2273 1281 
Q 2116 1406 1581 1522 
L 1381 1569 
Q 847 1681 609 1914 
Q 372 2147 372 2553 
Q 372 3047 722 3315 
Q 1072 3584 1716 3584 
Q 2034 3584 2315 3537 
Q 2597 3491 2834 3397 
z
" transform="scale(0.015625)"/>
       <path id="DejaVuSans-5d" d="M 1947 4863 
L 1947 -844 
L 622 -844 
L 622 -397 
L 1369 -397 
L 1369 4416 
L 622 4416 
L 622 4863 
L 1947 4863 
z
" transform="scale(0.015625)"/>
      </defs>
      <use xlink:href="#DejaVuSans-5b"/>
      <use xlink:href="#DejaVuSans-43" x="39.013672"/>
      <use xlink:href="#DejaVuSans-76" x="108.837891"/>
      <use xlink:href="#DejaVuSans-65" x="168.017578"/>
      <use xlink:href="#DejaVuSans-5f" x="229.541016"/>
      <use xlink:href="#DejaVuSans-6c" x="279.541016"/>
      <use xlink:href="#DejaVuSans-6f" x="307.324219"/>
      <use xlink:href="#DejaVuSans-73" x="368.505859"/>
      <use xlink:href="#DejaVuSans-5d" x="420.605469"/>
     </g>
    </g>
   </g>
   <g id="line2d_14">
    <path d="M 90 151.040083 
L 343.636364 151.040083 
" clip-path="url(#p434dae5d82)" style="fill: none; stroke: #000000; stroke-width: 1.5; stroke-linecap: square"/>
   </g>
   <g id="line2d_15">
    <defs>
     <path id="mdea2ad71a1" d="M 0 3 
C 0.795609 3 1.55874 2.683901 2.12132 2.12132 
C 2.683901 1.55874 3 0.795609 3 0 
C 3 -0.795609 2.683901 -1.55874 2.12132 -2.12132 
C 1.55874 -2.683901 0.795609 -3 0 -3 
C -0.795609 -3 -1.55874 -2.683901 -2.12132 -2.12132 
C -2.683901 -1.55874 -3 -0.795609 -3 0 
C -3 0.795609 -2.683901 1.55874 -2.12132 2.12132 
C -1.55874 2.683901 -0.795609 3 0 3 
z
" style="stroke: #ff8c00"/>
    </defs>
    <g clip-path="url(#p434dae5d82)">
     <use xlink:href="#mdea2ad71a1" x="106.815252" y="241.092913" style="fill: #ff8c00; stroke: #ff8c00"/>
     <use xlink:href="#mdea2ad71a1" x="107.248355" y="166.372967" style="fill: #ff8c00; stroke: #ff8c00"/>
     <use xlink:href="#mdea2ad71a1" x="107.681459" y="145.830419" style="fill: #ff8c00; stroke: #ff8c00"/>
     <use xlink:href="#mdea2ad71a1" x="108.114563" y="117.839895" style="fill: #ff8c00; stroke: #ff8c00"/>
     <use xlink:href="#mdea2ad71a1" x="108.98077" y="107.115356" style="fill: #ff8c00; stroke: #ff8c00"/>
     <use xlink:href="#mdea2ad71a1" x="319.90228" y="326.945455" style="fill: #ff8c00; stroke: #ff8c00"/>
     <use xlink:href="#mdea2ad71a1" x="320.335384" y="154.401539" style="fill: #ff8c00; stroke: #ff8c00"/>
     <use xlink:href="#mdea2ad71a1" x="320.768487" y="128.68816" style="fill: #ff8c00; stroke: #ff8c00"/>
     <use xlink:href="#mdea2ad71a1" x="321.201591" y="105.026515" style="fill: #ff8c00; stroke: #ff8c00"/>
     <use xlink:href="#mdea2ad71a1" x="322.067799" y="97.854545" style="fill: #ff8c00; stroke: #ff8c00"/>
    </g>
   </g>
   <g id="line2d_16">
    <path d="M 101.184903 151.040083 
L 106.507067 150.930393 
L 106.693776 150.906851 
L 107.312808 151.021953 
L 111.295911 151.035927 
L 111.702801 150.927853 
L 111.889185 150.902085 
L 112.523554 151.019435 
L 116.787672 151.034897 
L 116.937769 150.897918 
L 117.13217 150.918812 
L 117.678805 151.017297 
L 121.130023 151.033856 
L 122.098356 150.925775 
L 122.287151 150.902269 
L 122.911849 151.018461 
L 127.044975 151.035008 
L 127.293997 150.927305 
L 127.479296 150.900395 
L 128.111424 151.018529 
L 132.174848 151.034906 
L 132.492125 150.926446 
L 132.673043 150.899131 
L 133.317688 151.0188 
L 137.584479 151.032684 
L 138.065599 150.968589 
L 138.700641 151.022492 
L 142.847988 150.969002 
L 143.048389 150.89254 
L 143.800795 151.020861 
L 148.022077 150.996747 
L 148.249068 150.893663 
L 148.990983 151.020743 
L 153.218707 150.997443 
L 153.449614 150.894723 
L 154.168569 151.02031 
L 158.41058 151.003571 
L 158.650156 150.895914 
L 159.338951 151.019729 
L 163.595437 151.016154 
L 163.865745 150.902327 
L 164.479473 151.017997 
L 168.383088 151.0346 
L 168.874027 150.92512 
L 169.060142 150.90124 
L 169.694579 151.018542 
L 173.958713 151.034355 
L 174.643523 151.003552 
L 175.960121 151.027585 
L 179.262555 150.930981 
L 179.449225 150.899332 
L 180.088631 151.018564 
L 184.353242 151.034364 
L 185.040161 151.003792 
L 186.377874 151.027679 
L 189.658177 150.929841 
L 189.846264 150.900239 
L 190.483186 151.018559 
L 194.745554 151.034711 
L 194.890427 150.901188 
L 195.082171 150.915038 
L 195.635336 151.016973 
L 199.050845 151.033698 
L 200.058185 150.924512 
L 200.239888 150.899931 
L 200.870844 151.018349 
L 205.003367 151.034971 
L 205.255439 150.924548 
L 205.437157 150.899986 
L 206.068386 151.018392 
L 210.170924 151.034937 
L 210.446998 150.929996 
L 210.635344 150.900274 
L 211.272406 151.018565 
L 215.538266 151.034093 
L 216.150226 150.994566 
L 217.113265 151.025884 
L 220.835138 150.936535 
L 221.020046 150.896871 
L 221.689843 151.01927 
L 225.955247 151.022419 
L 226.258119 150.91221 
L 226.821204 151.017174 
L 230.264463 151.033793 
L 231.236332 150.929619 
L 231.423513 150.899956 
L 232.067062 151.018719 
L 236.333974 151.031982 
L 236.776472 150.957879 
L 237.355937 151.020991 
L 241.574971 150.993837 
L 241.803875 150.895079 
L 242.516316 151.02018 
L 246.761103 151.006315 
L 247.008738 150.897642 
L 247.671392 151.019082 
L 251.938314 151.024756 
L 252.258406 150.917713 
L 252.801897 151.016907 
L 256.179914 151.033642 
L 257.222253 150.929943 
L 257.40891 150.899684 
L 258.058868 151.018902 
L 262.326194 151.029005 
L 262.694838 150.934133 
L 263.225224 151.017919 
L 267.103185 151.034551 
L 267.622402 150.9245 
L 267.8045 150.900111 
L 268.436862 151.018424 
L 272.530962 151.034921 
L 272.814177 150.929764 
L 273.002374 150.900319 
L 273.639565 151.018579 
L 277.903521 151.034478 
L 278.598853 151.00472 
L 279.988402 151.027948 
L 283.204833 150.933611 
L 283.393232 150.898994 
L 284.045876 151.018917 
L 288.312377 151.029033 
L 288.680839 150.934053 
L 289.211674 151.01793 
L 293.103817 151.034576 
L 293.608853 150.924305 
L 293.791261 150.900326 
L 294.4296 151.01864 
L 298.69602 151.033605 
L 299.243732 150.983551 
L 300.01845 151.024439 
L 303.985071 150.942914 
L 304.17645 150.897001 
L 304.850679 151.019377 
L 309.113259 151.020651 
L 309.407547 150.909608 
L 309.98607 151.017463 
L 313.559434 151.034029 
L 314.392529 150.929328 
L 314.580155 150.900208 
L 315.223069 151.018714 
L 319.49149 151.031286 
L 319.914274 150.952024 
L 320.470484 151.020092 
L 324.882973 151.03546 
L 324.882973 151.03546 
" clip-path="url(#p434dae5d82)" style="fill: none; stroke: #0000ff; stroke-width: 1.5; stroke-linecap: square"/>
   </g>
   <g id="line2d_17">
    <defs>
     <path id="m1d2ab964cc" d="M 0 3 
C 0.795609 3 1.55874 2.683901 2.12132 2.12132 
C 2.683901 1.55874 3 0.795609 3 0 
C 3 -0.795609 2.683901 -1.55874 2.12132 -2.12132 
C 1.55874 -2.683901 0.795609 -3 0 -3 
C -0.795609 -3 -1.55874 -2.683901 -2.12132 -2.12132 
C -2.683901 -1.55874 -3 -0.795609 -3 0 
C -3 0.795609 -2.683901 1.55874 -2.12132 2.12132 
C -1.55874 2.683901 -0.795609 3 0 3 
z
" style="stroke: #0000ff"/>
    </defs>
    <g clip-path="url(#p434dae5d82)">
     <use xlink:href="#m1d2ab964cc" x="106.815252" y="150.952838" style="fill: #0000ff; stroke: #0000ff"/>
     <use xlink:href="#m1d2ab964cc" x="107.248355" y="151.019545" style="fill: #0000ff; stroke: #0000ff"/>
     <use xlink:href="#m1d2ab964cc" x="107.681459" y="151.027592" style="fill: #0000ff; stroke: #0000ff"/>
     <use xlink:href="#m1d2ab964cc" x="108.114563" y="151.029541" style="fill: #0000ff; stroke: #0000ff"/>
     <use xlink:href="#m1d2ab964cc" x="108.98077" y="151.031928" style="fill: #0000ff; stroke: #0000ff"/>
     <use xlink:href="#m1d2ab964cc" x="319.90228" y="150.947939" style="fill: #0000ff; stroke: #0000ff"/>
     <use xlink:href="#m1d2ab964cc" x="320.335384" y="151.015621" style="fill: #0000ff; stroke: #0000ff"/>
     <use xlink:href="#m1d2ab964cc" x="320.768487" y="151.024174" style="fill: #0000ff; stroke: #0000ff"/>
     <use xlink:href="#m1d2ab964cc" x="321.201591" y="151.026531" style="fill: #0000ff; stroke: #0000ff"/>
     <use xlink:href="#m1d2ab964cc" x="322.067799" y="151.02959" style="fill: #0000ff; stroke: #0000ff"/>
    </g>
   </g>
   <g id="line2d_18">
    <defs>
     <path id="m5f16c1af0f" d="M -3 3 
L 3 3 
L 3 -3 
L -3 -3 
z
" style="stroke: #000000; stroke-linejoin: miter"/>
    </defs>
    <g clip-path="url(#p434dae5d82)">
     <use xlink:href="#m5f16c1af0f" x="106.815252" y="150.938469" style="stroke: #000000; stroke-linejoin: miter"/>
     <use xlink:href="#m5f16c1af0f" x="107.248355" y="151.017098" style="stroke: #000000; stroke-linejoin: miter"/>
     <use xlink:href="#m5f16c1af0f" x="107.681459" y="151.028424" style="stroke: #000000; stroke-linejoin: miter"/>
     <use xlink:href="#m5f16c1af0f" x="108.114563" y="151.034839" style="stroke: #000000; stroke-linejoin: miter"/>
     <use xlink:href="#m5f16c1af0f" x="108.98077" y="151.038937" style="stroke: #000000; stroke-linejoin: miter"/>
     <use xlink:href="#m5f16c1af0f" x="319.90228" y="150.919871" style="stroke: #000000; stroke-linejoin: miter"/>
     <use xlink:href="#m5f16c1af0f" x="320.335384" y="151.015085" style="stroke: #000000; stroke-linejoin: miter"/>
     <use xlink:href="#m5f16c1af0f" x="320.768487" y="151.027741" style="stroke: #000000; stroke-linejoin: miter"/>
     <use xlink:href="#m5f16c1af0f" x="321.201591" y="151.033874" style="stroke: #000000; stroke-linejoin: miter"/>
     <use xlink:href="#m5f16c1af0f" x="322.067799" y="151.038076" style="stroke: #000000; stroke-linejoin: miter"/>
    </g>
   </g>
   <g id="patch_3">
    <path d="M 90 338.4 
L 90 86.4 
" style="fill: none; stroke: #000000; stroke-width: 0.8; stroke-linejoin: miter; stroke-linecap: square"/>
   </g>
   <g id="patch_4">
    <path d="M 343.636364 338.4 
L 343.636364 86.4 
" style="fill: none; stroke: #000000; stroke-width: 0.8; stroke-linejoin: miter; stroke-linecap: square"/>
   </g>
   <g id="patch_5">
    <path d="M 90 338.4 
L 343.636364 338.4 
" style="fill: none; stroke: #000000; stroke-width: 0.8; stroke-linejoin: miter; stroke-linecap: square"/>
   </g>
   <g id="patch_6">
    <path d="M 90 86.4 
L 343.636364 86.4 
" style="fill: none; stroke: #000000; stroke-width: 0.8; stroke-linejoin: miter; stroke-linecap: square"/>
   </g>
   <g id="text_8">
    <!-- Goldberg1995a.fm_po_LOS100_losartan -->
    <g transform="translate(76.459432 80.4) scale(0.14 -0.14)">
     <defs>
      <path id="DejaVuSans-47" d="M 3809 666 
L 3809 1919 
L 2778 1919 
L 2778 2438 
L 4434 2438 
L 4434 434 
Q 4069 175 3628 42 
Q 3188 -91 2688 -91 
Q 1594 -91 976 548 
Q 359 1188 359 2328 
Q 359 3472 976 4111 
Q 1594 4750 2688 4750 
Q 3144 4750 3555 4637 
Q 3966 4525 4313 4306 
L 4313 3634 
Q 3963 3931 3569 4081 
Q 3175 4231 2741 4231 
Q 1884 4231 1454 3753 
Q 1025 3275 1025 2328 
Q 1025 1384 1454 906 
Q 1884 428 2741 428 
Q 3075 428 3337 486 
Q 3600 544 3809 666 
z
" transform="scale(0.015625)"/>
      <path id="DejaVuSans-64" d="M 2906 2969 
L 2906 4863 
L 3481 4863 
L 3481 0 
L 2906 0 
L 2906 525 
Q 2725 213 2448 61 
Q 2172 -91 1784 -91 
Q 1150 -91 751 415 
Q 353 922 353 1747 
Q 353 2572 751 3078 
Q 1150 3584 1784 3584 
Q 2172 3584 2448 3432 
Q 2725 3281 2906 2969 
z
M 947 1747 
Q 947 1113 1208 752 
Q 1469 391 1925 391 
Q 2381 391 2643 752 
Q 2906 1113 2906 1747 
Q 2906 2381 2643 2742 
Q 2381 3103 1925 3103 
Q 1469 3103 1208 2742 
Q 947 2381 947 1747 
z
" transform="scale(0.015625)"/>
      <path id="DejaVuSans-62" d="M 3116 1747 
Q 3116 2381 2855 2742 
Q 2594 3103 2138 3103 
Q 1681 3103 1420 2742 
Q 1159 2381 1159 1747 
Q 1159 1113 1420 752 
Q 1681 391 2138 391 
Q 2594 391 2855 752 
Q 3116 1113 3116 1747 
z
M 1159 2969 
Q 1341 3281 1617 3432 
Q 1894 3584 2278 3584 
Q 2916 3584 3314 3078 
Q 3713 2572 3713 1747 
Q 3713 922 3314 415 
Q 2916 -91 2278 -91 
Q 1894 -91 1617 61 
Q 1341 213 1159 525 
L 1159 0 
L 581 0 
L 581 4863 
L 1159 4863 
L 1159 2969 
z
" transform="scale(0.015625)"/>
      <path id="DejaVuSans-72" d="M 2631 2963 
Q 2534 3019 2420 3045 
Q 2306 3072 2169 3072 
Q 1681 3072 1420 2755 
Q 1159 2438 1159 1844 
L 1159 0 
L 581 0 
L 581 3500 
L 1159 3500 
L 1159 2956 
Q 1341 3275 1631 3429 
Q 1922 3584 2338 3584 
Q 2397 3584 2469 3576 
Q 2541 3569 2628 3553 
L 2631 2963 
z
" transform="scale(0.015625)"/>
      <path id="DejaVuSans-67" d="M 2906 1791 
Q 2906 2416 2648 2759 
Q 2391 3103 1925 3103 
Q 1463 3103 1205 2759 
Q 947 2416 947 1791 
Q 947 1169 1205 825 
Q 1463 481 1925 481 
Q 2391 481 2648 825 
Q 2906 1169 2906 1791 
z
M 3481 434 
Q 3481 -459 3084 -895 
Q 2688 -1331 1869 -1331 
Q 1566 -1331 1297 -1286 
Q 1028 -1241 775 -1147 
L 775 -588 
Q 1028 -725 1275 -790 
Q 1522 -856 1778 -856 
Q 2344 -856 2625 -561 
Q 2906 -266 2906 331 
L 2906 616 
Q 2728 306 2450 153 
Q 2172 0 1784 0 
Q 1141 0 747 490 
Q 353 981 353 1791 
Q 353 2603 747 3093 
Q 1141 3584 1784 3584 
Q 2172 3584 2450 3431 
Q 2728 3278 2906 2969 
L 2906 3500 
L 3481 3500 
L 3481 434 
z
" transform="scale(0.015625)"/>
      <path id="DejaVuSans-31" d="M 794 531 
L 1825 531 
L 1825 4091 
L 703 3866 
L 703 4441 
L 1819 4666 
L 2450 4666 
L 2450 531 
L 3481 531 
L 3481 0 
L 794 0 
L 794 531 
z
" transform="scale(0.015625)"/>
      <path id="DejaVuSans-39" d="M 703 97 
L 703 672 
Q 941 559 1184 500 
Q 1428 441 1663 441 
Q 2288 441 2617 861 
Q 2947 1281 2994 2138 
Q 2813 1869 2534 1725 
Q 2256 1581 1919 1581 
Q 1219 1581 811 2004 
Q 403 2428 403 3163 
Q 403 3881 828 4315 
Q 1253 4750 1959 4750 
Q 2769 4750 3195 4129 
Q 3622 3509 3622 2328 
Q 3622 1225 3098 567 
Q 2575 -91 1691 -91 
Q 1453 -91 1209 -44 
Q 966 3 703 97 
z
M 1959 2075 
Q 2384 2075 2632 2365 
Q 2881 2656 2881 3163 
Q 2881 3666 2632 3958 
Q 2384 4250 1959 4250 
Q 1534 4250 1286 3958 
Q 1038 3666 1038 3163 
Q 1038 2656 1286 2365 
Q 1534 2075 1959 2075 
z
" transform="scale(0.015625)"/>
      <path id="DejaVuSans-35" d="M 691 4666 
L 3169 4666 
L 3169 4134 
L 1269 4134 
L 1269 2991 
Q 1406 3038 1543 3061 
Q 1681 3084 1819 3084 
Q 2600 3084 3056 2656 
Q 3513 2228 3513 1497 
Q 3513 744 3044 326 
Q 2575 -91 1722 -91 
Q 1428 -91 1123 -41 
Q 819 9 494 109 
L 494 744 
Q 775 591 1075 516 
Q 1375 441 1709 441 
Q 2250 441 2565 725 
Q 2881 1009 2881 1497 
Q 2881 1984 2565 2268 
Q 2250 2553 1709 2553 
Q 1456 2553 1204 2497 
Q 953 2441 691 2322 
L 691 4666 
z
" transform="scale(0.015625)"/>
      <path id="DejaVuSans-61" d="M 2194 1759 
Q 1497 1759 1228 1600 
Q 959 1441 959 1056 
Q 959 750 1161 570 
Q 1363 391 1709 391 
Q 2188 391 2477 730 
Q 2766 1069 2766 1631 
L 2766 1759 
L 2194 1759 
z
M 3341 1997 
L 3341 0 
L 2766 0 
L 2766 531 
Q 2569 213 2275 61 
Q 1981 -91 1556 -91 
Q 1019 -91 701 211 
Q 384 513 384 1019 
Q 384 1609 779 1909 
Q 1175 2209 1959 2209 
L 2766 2209 
L 2766 2266 
Q 2766 2663 2505 2880 
Q 2244 3097 1772 3097 
Q 1472 3097 1187 3025 
Q 903 2953 641 2809 
L 641 3341 
Q 956 3463 1253 3523 
Q 1550 3584 1831 3584 
Q 2591 3584 2966 3190 
Q 3341 2797 3341 1997 
z
" transform="scale(0.015625)"/>
      <path id="DejaVuSans-66" d="M 2375 4863 
L 2375 4384 
L 1825 4384 
Q 1516 4384 1395 4259 
Q 1275 4134 1275 3809 
L 1275 3500 
L 2222 3500 
L 2222 3053 
L 1275 3053 
L 1275 0 
L 697 0 
L 697 3053 
L 147 3053 
L 147 3500 
L 697 3500 
L 697 3744 
Q 697 4328 969 4595 
Q 1241 4863 1831 4863 
L 2375 4863 
z
" transform="scale(0.015625)"/>
      <path id="DejaVuSans-6d" d="M 3328 2828 
Q 3544 3216 3844 3400 
Q 4144 3584 4550 3584 
Q 5097 3584 5394 3201 
Q 5691 2819 5691 2113 
L 5691 0 
L 5113 0 
L 5113 2094 
Q 5113 2597 4934 2840 
Q 4756 3084 4391 3084 
Q 3944 3084 3684 2787 
Q 3425 2491 3425 1978 
L 3425 0 
L 2847 0 
L 2847 2094 
Q 2847 2600 2669 2842 
Q 2491 3084 2119 3084 
Q 1678 3084 1418 2786 
Q 1159 2488 1159 1978 
L 1159 0 
L 581 0 
L 581 3500 
L 1159 3500 
L 1159 2956 
Q 1356 3278 1631 3431 
Q 1906 3584 2284 3584 
Q 2666 3584 2933 3390 
Q 3200 3197 3328 2828 
z
" transform="scale(0.015625)"/>
      <path id="DejaVuSans-70" d="M 1159 525 
L 1159 -1331 
L 581 -1331 
L 581 3500 
L 1159 3500 
L 1159 2969 
Q 1341 3281 1617 3432 
Q 1894 3584 2278 3584 
Q 2916 3584 3314 3078 
Q 3713 2572 3713 1747 
Q 3713 922 3314 415 
Q 2916 -91 2278 -91 
Q 1894 -91 1617 61 
Q 1341 213 1159 525 
z
M 3116 1747 
Q 3116 2381 2855 2742 
Q 2594 3103 2138 3103 
Q 1681 3103 1420 2742 
Q 1159 2381 1159 1747 
Q 1159 1113 1420 752 
Q 1681 391 2138 391 
Q 2594 391 2855 752 
Q 3116 1113 3116 1747 
z
" transform="scale(0.015625)"/>
      <path id="DejaVuSans-4c" d="M 628 4666 
L 1259 4666 
L 1259 531 
L 3531 531 
L 3531 0 
L 628 0 
L 628 4666 
z
" transform="scale(0.015625)"/>
      <path id="DejaVuSans-4f" d="M 2522 4238 
Q 1834 4238 1429 3725 
Q 1025 3213 1025 2328 
Q 1025 1447 1429 934 
Q 1834 422 2522 422 
Q 3209 422 3611 934 
Q 4013 1447 4013 2328 
Q 4013 3213 3611 3725 
Q 3209 4238 2522 4238 
z
M 2522 4750 
Q 3503 4750 4090 4092 
Q 4678 3434 4678 2328 
Q 4678 1225 4090 567 
Q 3503 -91 2522 -91 
Q 1538 -91 948 565 
Q 359 1222 359 2328 
Q 359 3434 948 4092 
Q 1538 4750 2522 4750 
z
" transform="scale(0.015625)"/>
      <path id="DejaVuSans-53" d="M 3425 4513 
L 3425 3897 
Q 3066 4069 2747 4153 
Q 2428 4238 2131 4238 
Q 1616 4238 1336 4038 
Q 1056 3838 1056 3469 
Q 1056 3159 1242 3001 
Q 1428 2844 1947 2747 
L 2328 2669 
Q 3034 2534 3370 2195 
Q 3706 1856 3706 1288 
Q 3706 609 3251 259 
Q 2797 -91 1919 -91 
Q 1588 -91 1214 -16 
Q 841 59 441 206 
L 441 856 
Q 825 641 1194 531 
Q 1563 422 1919 422 
Q 2459 422 2753 634 
Q 3047 847 3047 1241 
Q 3047 1584 2836 1778 
Q 2625 1972 2144 2069 
L 1759 2144 
Q 1053 2284 737 2584 
Q 422 2884 422 3419 
Q 422 4038 858 4394 
Q 1294 4750 2059 4750 
Q 2388 4750 2728 4690 
Q 3069 4631 3425 4513 
z
" transform="scale(0.015625)"/>
      <path id="DejaVuSans-74" d="M 1172 4494 
L 1172 3500 
L 2356 3500 
L 2356 3053 
L 1172 3053 
L 1172 1153 
Q 1172 725 1289 603 
Q 1406 481 1766 481 
L 2356 481 
L 2356 0 
L 1766 0 
Q 1100 0 847 248 
Q 594 497 594 1153 
L 594 3053 
L 172 3053 
L 172 3500 
L 594 3500 
L 594 4494 
L 1172 4494 
z
" transform="scale(0.015625)"/>
      <path id="DejaVuSans-6e" d="M 3513 2113 
L 3513 0 
L 2938 0 
L 2938 2094 
Q 2938 2591 2744 2837 
Q 2550 3084 2163 3084 
Q 1697 3084 1428 2787 
Q 1159 2491 1159 1978 
L 1159 0 
L 581 0 
L 581 3500 
L 1159 3500 
L 1159 2956 
Q 1366 3272 1645 3428 
Q 1925 3584 2291 3584 
Q 2894 3584 3203 3211 
Q 3513 2838 3513 2113 
z
" transform="scale(0.015625)"/>
     </defs>
     <use xlink:href="#DejaVuSans-47"/>
     <use xlink:href="#DejaVuSans-6f" x="77.490234"/>
     <use xlink:href="#DejaVuSans-6c" x="138.671875"/>
     <use xlink:href="#DejaVuSans-64" x="166.455078"/>
     <use xlink:href="#DejaVuSans-62" x="229.931641"/>
     <use xlink:href="#DejaVuSans-65" x="293.408203"/>
     <use xlink:href="#DejaVuSans-72" x="354.931641"/>
     <use xlink:href="#DejaVuSans-67" x="394.294922"/>
     <use xlink:href="#DejaVuSans-31" x="457.771484"/>
     <use xlink:href="#DejaVuSans-39" x="521.394531"/>
     <use xlink:href="#DejaVuSans-39" x="585.017578"/>
     <use xlink:href="#DejaVuSans-35" x="648.640625"/>
     <use xlink:href="#DejaVuSans-61" x="712.263672"/>
     <use xlink:href="#DejaVuSans-2e" x="773.542969"/>
     <use xlink:href="#DejaVuSans-66" x="805.330078"/>
     <use xlink:href="#DejaVuSans-6d" x="840.535156"/>
     <use xlink:href="#DejaVuSans-5f" x="937.947266"/>
     <use xlink:href="#DejaVuSans-70" x="987.947266"/>
     <use xlink:href="#DejaVuSans-6f" x="1051.423828"/>
     <use xlink:href="#DejaVuSans-5f" x="1112.605469"/>
     <use xlink:href="#DejaVuSans-4c" x="1162.605469"/>
     <use xlink:href="#DejaVuSans-4f" x="1214.693359"/>
     <use xlink:href="#DejaVuSans-53" x="1293.404297"/>
     <use xlink:href="#DejaVuSans-31" x="1356.880859"/>
     <use xlink:href="#DejaVuSans-30" x="1420.503906"/>
     <use xlink:href="#DejaVuSans-30" x="1484.126953"/>
     <use xlink:href="#DejaVuSans-5f" x="1547.75"/>
     <use xlink:href="#DejaVuSans-6c" x="1597.75"/>
     <use xlink:href="#DejaVuSans-6f" x="1625.533203"/>
     <use xlink:href="#DejaVuSans-73" x="1686.714844"/>
     <use xlink:href="#DejaVuSans-61" x="1738.814453"/>
     <use xlink:href="#DejaVuSans-72" x="1800.09375"/>
     <use xlink:href="#DejaVuSans-74" x="1841.207031"/>
     <use xlink:href="#DejaVuSans-61" x="1880.416016"/>
     <use xlink:href="#DejaVuSans-6e" x="1941.695312"/>
    </g>
   </g>
   <g id="legend_1">
    <g id="patch_7">
     <path d="M 97 333.4 
L 204.265625 333.4 
Q 206.265625 333.4 206.265625 331.4 
L 206.265625 273.409375 
Q 206.265625 271.409375 204.265625 271.409375 
L 97 271.409375 
Q 95 271.409375 95 273.409375 
L 95 331.4 
Q 95 333.4 97 333.4 
z
" style="fill: #ffffff; opacity: 0.8; stroke: #cccccc; stroke-linejoin: miter"/>
    </g>
    <g id="line2d_19">
     <g>
      <use xlink:href="#mdea2ad71a1" x="109" y="279.507812" style="fill: #ff8c00; stroke: #ff8c00"/>
     </g>
    </g>
    <g id="text_9">
     <!-- residuals -->
     <g transform="translate(127 283.007812) scale(0.1 -0.1)">
      <defs>
       <path id="DejaVuSans-69" d="M 603 3500 
L 1178 3500 
L 1178 0 
L 603 0 
L 603 3500 
z
M 603 4863 
L 1178 4863 
L 1178 4134 
L 603 4134 
L 603 4863 
z
" transform="scale(0.015625)"/>
       <path id="DejaVuSans-75" d="M 544 1381 
L 544 3500 
L 1119 3500 
L 1119 1403 
Q 1119 906 1312 657 
Q 1506 409 1894 409 
Q 2359 409 2629 706 
Q 2900 1003 2900 1516 
L 2900 3500 
L 3475 3500 
L 3475 0 
L 2900 0 
L 2900 538 
Q 2691 219 2414 64 
Q 2138 -91 1772 -91 
Q 1169 -91 856 284 
Q 544 659 544 1381 
z
M 1991 3584 
L 1991 3584 
z
" transform="scale(0.015625)"/>
      </defs>
      <use xlink:href="#DejaVuSans-72"/>
      <use xlink:href="#DejaVuSans-65" x="38.863281"/>
      <use xlink:href="#DejaVuSans-73" x="100.386719"/>
      <use xlink:href="#DejaVuSans-69" x="152.486328"/>
      <use xlink:href="#DejaVuSans-64" x="180.269531"/>
      <use xlink:href="#DejaVuSans-75" x="243.746094"/>
      <use xlink:href="#DejaVuSans-61" x="307.125"/>
      <use xlink:href="#DejaVuSans-6c" x="368.404297"/>
      <use xlink:href="#DejaVuSans-73" x="396.1875"/>
     </g>
    </g>
    <g id="line2d_20">
     <path d="M 99 294.185938 
L 109 294.185938 
L 119 294.185938 
" style="fill: none; stroke: #0000ff; stroke-width: 1.5; stroke-linecap: square"/>
    </g>
    <g id="text_10">
     <!-- observable -->
     <g transform="translate(127 297.685938) scale(0.1 -0.1)">
      <use xlink:href="#DejaVuSans-6f"/>
      <use xlink:href="#DejaVuSans-62" x="61.181641"/>
      <use xlink:href="#DejaVuSans-73" x="124.658203"/>
      <use xlink:href="#DejaVuSans-65" x="176.757812"/>
      <use xlink:href="#DejaVuSans-72" x="238.28125"/>
      <use xlink:href="#DejaVuSans-76" x="279.394531"/>
      <use xlink:href="#DejaVuSans-61" x="338.574219"/>
      <use xlink:href="#DejaVuSans-62" x="399.853516"/>
      <use xlink:href="#DejaVuSans-6c" x="463.330078"/>
      <use xlink:href="#DejaVuSans-65" x="491.113281"/>
     </g>
    </g>
    <g id="line2d_21">
     <g>
      <use xlink:href="#m1d2ab964cc" x="109" y="308.864062" style="fill: #0000ff; stroke: #0000ff"/>
     </g>
    </g>
    <g id="text_11">
     <!-- interpolation -->
     <g transform="translate(127 312.364062) scale(0.1 -0.1)">
      <use xlink:href="#DejaVuSans-69"/>
      <use xlink:href="#DejaVuSans-6e" x="27.783203"/>
      <use xlink:href="#DejaVuSans-74" x="91.162109"/>
      <use xlink:href="#DejaVuSans-65" x="130.371094"/>
      <use xlink:href="#DejaVuSans-72" x="191.894531"/>
      <use xlink:href="#DejaVuSans-70" x="233.007812"/>
      <use xlink:href="#DejaVuSans-6f" x="296.484375"/>
      <use xlink:href="#DejaVuSans-6c" x="357.666016"/>
      <use xlink:href="#DejaVuSans-61" x="385.449219"/>
      <use xlink:href="#DejaVuSans-74" x="446.728516"/>
      <use xlink:href="#DejaVuSans-69" x="485.9375"/>
      <use xlink:href="#DejaVuSans-6f" x="513.720703"/>
      <use xlink:href="#DejaVuSans-6e" x="574.902344"/>
     </g>
    </g>
    <g id="line2d_22">
     <g>
      <use xlink:href="#m5f16c1af0f" x="109" y="323.542188" style="stroke: #000000; stroke-linejoin: miter"/>
     </g>
    </g>
    <g id="text_12">
     <!-- reference_data -->
     <g transform="translate(127 327.042188) scale(0.1 -0.1)">
      <defs>
       <path id="DejaVuSans-63" d="M 3122 3366 
L 3122 2828 
Q 2878 2963 2633 3030 
Q 2388 3097 2138 3097 
Q 1578 3097 1268 2742 
Q 959 2388 959 1747 
Q 959 1106 1268 751 
Q 1578 397 2138 397 
Q 2388 397 2633 464 
Q 2878 531 3122 666 
L 3122 134 
Q 2881 22 2623 -34 
Q 2366 -91 2075 -91 
Q 1284 -91 818 406 
Q 353 903 353 1747 
Q 353 2603 823 3093 
Q 1294 3584 2113 3584 
Q 2378 3584 2631 3529 
Q 2884 3475 3122 3366 
z
" transform="scale(0.015625)"/>
      </defs>
      <use xlink:href="#DejaVuSans-72"/>
      <use xlink:href="#DejaVuSans-65" x="38.863281"/>
      <use xlink:href="#DejaVuSans-66" x="100.386719"/>
      <use xlink:href="#DejaVuSans-65" x="135.591797"/>
      <use xlink:href="#DejaVuSans-72" x="197.115234"/>
      <use xlink:href="#DejaVuSans-65" x="235.978516"/>
      <use xlink:href="#DejaVuSans-6e" x="297.501953"/>
      <use xlink:href="#DejaVuSans-63" x="360.880859"/>
      <use xlink:href="#DejaVuSans-65" x="415.861328"/>
      <use xlink:href="#DejaVuSans-5f" x="477.384766"/>
      <use xlink:href="#DejaVuSans-64" x="527.384766"/>
      <use xlink:href="#DejaVuSans-61" x="590.861328"/>
      <use xlink:href="#DejaVuSans-74" x="652.140625"/>
      <use xlink:href="#DejaVuSans-61" x="691.349609"/>
     </g>
    </g>
   </g>
  </g>
  <g id="axes_2">
   <g id="patch_8">
    <path d="M 394.363636 338.4 
L 648 338.4 
L 648 86.4 
L 394.363636 86.4 
z
" style="fill: #ffffff"/>
   </g>
   <g id="PolyCollection_2">
    <path d="M 411.178888 4631.412068 
L 411.178888 4631.412068 
L 411.611992 4631.412068 
L 412.045096 102.431397 
L 412.478199 98.782872 
L 413.344407 98.231425 
L 624.265916 4631.412068 
L 624.69902 4631.412068 
L 625.132124 99.56229 
L 625.565228 98.139901 
L 626.431435 97.854545 
L 626.431435 4631.412068 
L 626.431435 4631.412068 
L 625.565228 4631.412068 
L 625.132124 4631.412068 
L 624.69902 4631.412068 
L 624.265916 4631.412068 
L 413.344407 4631.412068 
L 412.478199 4631.412068 
L 412.045096 4631.412068 
L 411.611992 4631.412068 
L 411.178888 4631.412068 
z
" clip-path="url(#pcfc3a95854)" style="fill: #ff8c00; fill-opacity: 0.4; stroke: #ff8c00; stroke-opacity: 0.4"/>
   </g>
   <g id="matplotlib.axis_3">
    <g id="xtick_8">
     <g id="line2d_23">
      <g>
       <use xlink:href="#m8decb054ba" x="410.745784" y="338.4" style="stroke: #000000; stroke-width: 0.8"/>
      </g>
     </g>
    </g>
    <g id="xtick_9">
     <g id="line2d_24">
      <g>
       <use xlink:href="#m8decb054ba" x="446.837761" y="338.4" style="stroke: #000000; stroke-width: 0.8"/>
      </g>
     </g>
    </g>
    <g id="xtick_10">
     <g id="line2d_25">
      <g>
       <use xlink:href="#m8decb054ba" x="482.929737" y="338.4" style="stroke: #000000; stroke-width: 0.8"/>
      </g>
     </g>
    </g>
    <g id="xtick_11">
     <g id="line2d_26">
      <g>
       <use xlink:href="#m8decb054ba" x="519.021713" y="338.4" style="stroke: #000000; stroke-width: 0.8"/>
      </g>
     </g>
    </g>
    <g id="xtick_12">
     <g id="line2d_27">
      <g>
       <use xlink:href="#m8decb054ba" x="555.11369" y="338.4" style="stroke: #000000; stroke-width: 0.8"/>
      </g>
     </g>
    </g>
    <g id="xtick_13">
     <g id="line2d_28">
      <g>
       <use xlink:href="#m8decb054ba" x="591.205666" y="338.4" style="stroke: #000000; stroke-width: 0.8"/>
      </g>
     </g>
    </g>
    <g id="xtick_14">
     <g id="line2d_29">
      <g>
       <use xlink:href="#m8decb054ba" x="627.297642" y="338.4" style="stroke: #000000; stroke-width: 0.8"/>
      </g>
     </g>
    </g>
   </g>
   <g id="matplotlib.axis_4">
    <g id="ytick_7">
     <g id="line2d_30">
      <g>
       <use xlink:href="#meece10333c" x="394.363636" y="308.50922" style="stroke: #000000; stroke-width: 0.8"/>
      </g>
     </g>
     <g id="text_13">
      <!-- $\mathdefault{10^{-47}}$ -->
      <g transform="translate(359.463636 312.308439) scale(0.1 -0.1)">
       <defs>
        <path id="DejaVuSans-37" d="M 525 4666 
L 3525 4666 
L 3525 4397 
L 1831 0 
L 1172 0 
L 2766 4134 
L 525 4134 
L 525 4666 
z
" transform="scale(0.015625)"/>
       </defs>
       <use xlink:href="#DejaVuSans-31" transform="translate(0 0.684375)"/>
       <use xlink:href="#DejaVuSans-30" transform="translate(63.623047 0.684375)"/>
       <use xlink:href="#DejaVuSans-2212" transform="translate(128.203125 38.965625) scale(0.7)"/>
       <use xlink:href="#DejaVuSans-34" transform="translate(186.855469 38.965625) scale(0.7)"/>
       <use xlink:href="#DejaVuSans-37" transform="translate(231.391602 38.965625) scale(0.7)"/>
      </g>
     </g>
    </g>
    <g id="ytick_8">
     <g id="line2d_31">
      <g>
       <use xlink:href="#meece10333c" x="394.363636" y="276.756524" style="stroke: #000000; stroke-width: 0.8"/>
      </g>
     </g>
     <g id="text_14">
      <!-- $\mathdefault{10^{-40}}$ -->
      <g transform="translate(359.463636 280.555743) scale(0.1 -0.1)">
       <use xlink:href="#DejaVuSans-31" transform="translate(0 0.765625)"/>
       <use xlink:href="#DejaVuSans-30" transform="translate(63.623047 0.765625)"/>
       <use xlink:href="#DejaVuSans-2212" transform="translate(128.203125 39.046875) scale(0.7)"/>
       <use xlink:href="#DejaVuSans-34" transform="translate(186.855469 39.046875) scale(0.7)"/>
       <use xlink:href="#DejaVuSans-30" transform="translate(231.391602 39.046875) scale(0.7)"/>
      </g>
     </g>
    </g>
    <g id="ytick_9">
     <g id="line2d_32">
      <g>
       <use xlink:href="#meece10333c" x="394.363636" y="245.003827" style="stroke: #000000; stroke-width: 0.8"/>
      </g>
     </g>
     <g id="text_15">
      <!-- $\mathdefault{10^{-33}}$ -->
      <g transform="translate(359.463636 248.803046) scale(0.1 -0.1)">
       <defs>
        <path id="DejaVuSans-33" d="M 2597 2516 
Q 3050 2419 3304 2112 
Q 3559 1806 3559 1356 
Q 3559 666 3084 287 
Q 2609 -91 1734 -91 
Q 1441 -91 1130 -33 
Q 819 25 488 141 
L 488 750 
Q 750 597 1062 519 
Q 1375 441 1716 441 
Q 2309 441 2620 675 
Q 2931 909 2931 1356 
Q 2931 1769 2642 2001 
Q 2353 2234 1838 2234 
L 1294 2234 
L 1294 2753 
L 1863 2753 
Q 2328 2753 2575 2939 
Q 2822 3125 2822 3475 
Q 2822 3834 2567 4026 
Q 2313 4219 1838 4219 
Q 1578 4219 1281 4162 
Q 984 4106 628 3988 
L 628 4550 
Q 988 4650 1302 4700 
Q 1616 4750 1894 4750 
Q 2613 4750 3031 4423 
Q 3450 4097 3450 3541 
Q 3450 3153 3228 2886 
Q 3006 2619 2597 2516 
z
" transform="scale(0.015625)"/>
       </defs>
       <use xlink:href="#DejaVuSans-31" transform="translate(0 0.765625)"/>
       <use xlink:href="#DejaVuSans-30" transform="translate(63.623047 0.765625)"/>
       <use xlink:href="#DejaVuSans-2212" transform="translate(128.203125 39.046875) scale(0.7)"/>
       <use xlink:href="#DejaVuSans-33" transform="translate(186.855469 39.046875) scale(0.7)"/>
       <use xlink:href="#DejaVuSans-33" transform="translate(231.391602 39.046875) scale(0.7)"/>
      </g>
     </g>
    </g>
    <g id="ytick_10">
     <g id="line2d_33">
      <g>
       <use xlink:href="#meece10333c" x="394.363636" y="213.25113" style="stroke: #000000; stroke-width: 0.8"/>
      </g>
     </g>
     <g id="text_16">
      <!-- $\mathdefault{10^{-26}}$ -->
      <g transform="translate(359.463636 217.050349) scale(0.1 -0.1)">
       <use xlink:href="#DejaVuSans-31" transform="translate(0 0.765625)"/>
       <use xlink:href="#DejaVuSans-30" transform="translate(63.623047 0.765625)"/>
       <use xlink:href="#DejaVuSans-2212" transform="translate(128.203125 39.046875) scale(0.7)"/>
       <use xlink:href="#DejaVuSans-32" transform="translate(186.855469 39.046875) scale(0.7)"/>
       <use xlink:href="#DejaVuSans-36" transform="translate(231.391602 39.046875) scale(0.7)"/>
      </g>
     </g>
    </g>
    <g id="ytick_11">
     <g id="line2d_34">
      <g>
       <use xlink:href="#meece10333c" x="394.363636" y="181.498434" style="stroke: #000000; stroke-width: 0.8"/>
      </g>
     </g>
     <g id="text_17">
      <!-- $\mathdefault{10^{-19}}$ -->
      <g transform="translate(359.463636 185.297653) scale(0.1 -0.1)">
       <use xlink:href="#DejaVuSans-31" transform="translate(0 0.765625)"/>
       <use xlink:href="#DejaVuSans-30" transform="translate(63.623047 0.765625)"/>
       <use xlink:href="#DejaVuSans-2212" transform="translate(128.203125 39.046875) scale(0.7)"/>
       <use xlink:href="#DejaVuSans-31" transform="translate(186.855469 39.046875) scale(0.7)"/>
       <use xlink:href="#DejaVuSans-39" transform="translate(231.391602 39.046875) scale(0.7)"/>
      </g>
     </g>
    </g>
    <g id="ytick_12">
     <g id="line2d_35">
      <g>
       <use xlink:href="#meece10333c" x="394.363636" y="149.745737" style="stroke: #000000; stroke-width: 0.8"/>
      </g>
     </g>
     <g id="text_18">
      <!-- $\mathdefault{10^{-12}}$ -->
      <g transform="translate(359.463636 153.544956) scale(0.1 -0.1)">
       <use xlink:href="#DejaVuSans-31" transform="translate(0 0.765625)"/>
       <use xlink:href="#DejaVuSans-30" transform="translate(63.623047 0.765625)"/>
       <use xlink:href="#DejaVuSans-2212" transform="translate(128.203125 39.046875) scale(0.7)"/>
       <use xlink:href="#DejaVuSans-31" transform="translate(186.855469 39.046875) scale(0.7)"/>
       <use xlink:href="#DejaVuSans-32" transform="translate(231.391602 39.046875) scale(0.7)"/>
      </g>
     </g>
    </g>
    <g id="ytick_13">
     <g id="line2d_36">
      <g>
       <use xlink:href="#meece10333c" x="394.363636" y="117.99304" style="stroke: #000000; stroke-width: 0.8"/>
      </g>
     </g>
     <g id="text_19">
      <!-- $\mathdefault{10^{-5}}$ -->
      <g transform="translate(363.863636 121.792259) scale(0.1 -0.1)">
       <use xlink:href="#DejaVuSans-31" transform="translate(0 0.684375)"/>
       <use xlink:href="#DejaVuSans-30" transform="translate(63.623047 0.684375)"/>
       <use xlink:href="#DejaVuSans-2212" transform="translate(128.203125 38.965625) scale(0.7)"/>
       <use xlink:href="#DejaVuSans-35" transform="translate(186.855469 38.965625) scale(0.7)"/>
      </g>
     </g>
    </g>
   </g>
   <g id="line2d_37">
    <g clip-path="url(#pcfc3a95854)">
     <use xlink:href="#mdea2ad71a1" x="411.178888" y="4631.412068" style="fill: #ff8c00; stroke: #ff8c00"/>
     <use xlink:href="#mdea2ad71a1" x="411.611992" y="4631.412068" style="fill: #ff8c00; stroke: #ff8c00"/>
     <use xlink:href="#mdea2ad71a1" x="412.045096" y="102.431397" style="fill: #ff8c00; stroke: #ff8c00"/>
     <use xlink:href="#mdea2ad71a1" x="412.478199" y="98.782872" style="fill: #ff8c00; stroke: #ff8c00"/>
     <use xlink:href="#mdea2ad71a1" x="413.344407" y="98.231425" style="fill: #ff8c00; stroke: #ff8c00"/>
     <use xlink:href="#mdea2ad71a1" x="624.265916" y="4631.412068" style="fill: #ff8c00; stroke: #ff8c00"/>
     <use xlink:href="#mdea2ad71a1" x="624.69902" y="4631.412068" style="fill: #ff8c00; stroke: #ff8c00"/>
     <use xlink:href="#mdea2ad71a1" x="625.132124" y="99.56229" style="fill: #ff8c00; stroke: #ff8c00"/>
     <use xlink:href="#mdea2ad71a1" x="625.565228" y="98.139901" style="fill: #ff8c00; stroke: #ff8c00"/>
     <use xlink:href="#mdea2ad71a1" x="626.431435" y="97.854545" style="fill: #ff8c00; stroke: #ff8c00"/>
    </g>
   </g>
   <g id="line2d_38">
    <path d="M 410.745784 721 
L 410.852103 110.412859 
L 410.971696 109.378408 
L 411.000268 109.420106 
L 411.126401 110.095136 
L 411.735909 113.76859 
L 412.048095 114.32037 
L 412.553541 114.697474 
L 415.944717 116.71854 
L 415.949853 116.639253 
L 416.163396 109.324929 
L 416.244692 109.543543 
L 416.521172 111.485419 
L 416.899391 113.36173 
L 417.216606 113.915255 
L 417.729032 114.293672 
L 421.1421 116.293428 
L 421.146825 116.23724 
L 421.365134 109.312332 
L 421.478384 109.729964 
L 422.205569 113.543422 
L 422.560745 113.966718 
L 423.422757 114.499841 
L 426.339304 116.253314 
L 426.347534 116.068495 
L 426.563132 109.311173 
L 426.583361 109.333146 
L 426.684761 109.784651 
L 427.382444 113.495962 
L 427.716691 113.924707 
L 428.465404 114.401997 
L 431.536612 116.250371 
L 431.544131 116.096834 
L 431.754508 109.31104 
L 431.789878 109.353157 
L 431.913671 109.993475 
L 432.503116 113.319076 
L 432.825762 113.843791 
L 433.378271 114.235235 
L 436.733883 116.246926 
L 436.740545 116.128729 
L 436.956413 109.310706 
L 437.001005 109.393318 
L 437.161607 110.357141 
L 437.655386 113.191752 
L 437.966656 113.783098 
L 438.446532 114.156578 
L 441.744489 116.056372 
L 441.931114 116.197559 
L 441.938712 116.043968 
L 442.151876 109.308878 
L 442.187665 109.359829 
L 442.321871 110.086683 
L 442.866722 113.224906 
L 443.179801 113.79046 
L 443.671863 114.162925 
L 447.128347 116.18098 
L 447.132471 116.140908 
L 447.174183 112.734497 
L 447.329206 109.327289 
L 447.356812 109.310899 
L 447.398222 109.400202 
L 447.555949 110.352599 
L 448.040555 113.151822 
L 448.348404 113.754497 
L 448.81541 114.126159 
L 451.784972 115.838667 
L 452.325559 116.194899 
L 452.333305 116.036777 
L 452.546767 109.308793 
L 452.573142 109.338165 
L 452.686027 109.878999 
L 453.319738 113.37777 
L 453.645299 113.861362 
L 454.261539 114.278619 
L 457.522828 116.190545 
L 457.529223 116.086757 
L 457.744275 109.308656 
L 457.806352 109.452472 
L 458.013656 110.825071 
L 458.431025 113.140859 
L 458.747214 113.761569 
L 459.215174 114.131568 
L 462.200329 115.852778 
L 462.720101 116.224593 
L 462.727711 116.067984 
L 462.941795 109.309846 
L 462.968794 109.341681 
L 463.085791 109.915319 
L 463.702587 113.355095 
L 464.022811 113.851659 
L 464.595834 114.249803 
L 467.91736 116.186891 
L 467.923162 116.102018 
L 468.138007 109.308511 
L 468.220244 109.54104 
L 468.540286 111.761831 
L 468.884403 113.309132 
L 469.200992 113.824815 
L 469.756789 114.219934 
L 473.114556 116.173355 
L 473.12028 116.092958 
L 473.337368 109.308226 
L 473.423778 109.572523 
L 474.315576 113.729938 
L 474.765957 114.102075 
L 477.234813 115.529234 
L 478.311848 116.162987 
L 478.318601 116.045992 
L 478.533382 109.307708 
L 478.588418 109.423977 
L 478.771872 110.59318 
L 479.215851 113.122978 
L 479.521934 113.738866 
L 479.967412 114.102427 
L 482.464196 115.545352 
L 483.509061 116.191611 
L 483.516664 116.038678 
L 483.731472 109.308796 
L 483.758602 109.342359 
L 483.876164 109.923211 
L 484.480799 113.321994 
L 484.794648 113.827743 
L 485.351015 114.222457 
L 488.70635 116.169498 
L 488.711246 116.110996 
L 488.928369 109.307984 
L 489.038682 109.701743 
L 489.782111 113.542159 
L 490.140295 113.951903 
L 491.066912 114.518615 
L 493.9036 116.187835 
L 493.911306 116.028342 
L 494.125296 109.308591 
L 494.152901 109.341808 
L 494.270166 109.919781 
L 494.882688 113.339991 
L 495.205479 113.843015 
L 495.791285 114.248734 
L 499.100789 116.167831 
L 499.106217 116.096191 
L 499.323468 109.308011 
L 499.413694 109.591746 
L 500.277651 113.697922 
L 500.695668 114.064511 
L 502.578729 115.15949 
L 504.29806 116.189568 
L 504.305711 116.033732 
L 504.521695 109.308978 
L 504.548972 109.345456 
L 504.66717 109.936758 
L 505.277858 113.341999 
L 505.595956 113.839487 
L 506.174316 114.242347 
L 509.495314 116.206614 
L 509.50204 116.088112 
L 509.718951 109.309569 
L 509.764419 109.398584 
L 509.928103 110.392572 
L 510.403083 113.142396 
L 510.721414 113.767013 
L 511.19891 114.142147 
L 514.426768 116.002088 
L 514.692564 116.187299 
L 514.699311 116.068935 
L 514.916919 109.309112 
L 514.962509 109.400797 
L 515.126631 110.401052 
L 515.608028 113.163127 
L 515.921736 113.766478 
L 516.391839 114.135189 
L 519.559324 115.960674 
L 519.88979 116.190878 
L 519.897436 116.035334 
L 520.11345 109.309029 
L 520.140751 109.345607 
L 520.259054 109.937836 
L 520.86985 113.342882 
L 521.187829 113.839905 
L 521.765974 114.242594 
L 525.087048 116.206812 
L 525.093775 116.088247 
L 525.310844 109.309618 
L 525.356368 109.399327 
L 525.520255 110.395687 
L 525.998059 113.152631 
L 526.311182 113.764777 
L 526.77184 114.130524 
L 529.641534 115.785873 
L 530.284232 116.22371 
L 530.292551 116.035375 
L 530.505149 109.309772 
L 530.525784 109.327787 
L 530.621755 109.734668 
L 531.34477 113.524482 
L 531.698145 113.948096 
L 532.552133 114.477321 
L 535.481494 116.178138 
L 535.487899 116.074762 
L 535.703958 109.308334 
L 535.766352 109.457568 
L 535.974208 110.838327 
L 536.392658 113.148045 
L 536.709665 113.763303 
L 537.178836 114.131895 
L 540.289826 115.925051 
L 540.678784 116.199778 
L 540.686456 116.04165 
L 540.902958 109.309486 
L 540.930322 109.347309 
L 541.048897 109.944073 
L 541.64965 113.321348 
L 541.973389 113.838483 
L 542.53314 114.231671 
L 545.876038 116.187468 
L 545.881861 116.10163 
L 546.09794 109.308597 
L 546.177562 109.534385 
L 546.460996 111.50655 
L 546.832072 113.280151 
L 547.155267 113.820502 
L 547.693926 114.207234 
L 551.073239 116.176654 
L 551.078666 116.104621 
L 551.296009 109.308335 
L 551.386259 109.592724 
L 552.25046 113.700257 
L 552.668651 114.066837 
L 554.552661 115.162331 
L 556.270505 116.195143 
L 556.278154 116.038991 
L 556.494398 109.30924 
L 556.52175 109.346429 
L 556.640278 109.941479 
L 557.237991 113.311747 
L 557.560369 113.832797 
L 558.111068 114.222437 
L 561.467697 116.187413 
L 561.473086 116.116922 
L 561.689588 109.308581 
L 561.786372 109.623698 
L 562.610728 113.65494 
L 562.999722 114.026753 
L 564.405132 114.853749 
L 566.664974 116.179423 
L 566.672382 116.035975 
L 566.887742 109.308432 
L 566.922451 109.36167 
L 567.058474 110.105157 
L 567.601535 113.22441 
L 567.918422 113.791737 
L 568.425441 114.170853 
L 571.862237 116.19828 
L 571.867079 116.140914 
L 572.08607 109.309331 
L 572.195491 109.708246 
L 572.930826 113.534722 
L 573.278275 113.944299 
L 574.136345 114.475306 
L 577.059505 116.190948 
L 577.066263 116.071708 
L 577.28141 109.308718 
L 577.330866 109.405903 
L 577.494227 110.406148 
L 577.967307 113.139874 
L 578.278396 113.755308 
L 578.745031 114.127471 
L 581.664171 115.811136 
L 582.256724 116.20684 
L 582.264358 116.050642 
L 582.480287 109.309554 
L 582.507622 109.346018 
L 582.626074 109.939117 
L 583.236764 113.345772 
L 583.562313 113.85063 
L 584.143948 114.252661 
L 587.453929 116.183632 
L 587.460358 116.07947 
L 587.672001 109.308723 
L 587.739895 109.462421 
L 587.962952 110.959894 
L 588.366239 113.152531 
L 588.669534 113.749772 
L 589.12929 114.119433 
L 591.88218 115.708229 
L 592.651188 116.181599 
L 592.658583 116.038926 
L 592.873763 109.308473 
L 592.908441 109.361108 
L 593.044475 110.103687 
L 593.587996 113.225476 
L 593.905133 113.792726 
L 594.412552 114.171875 
L 597.848474 116.205639 
L 597.853334 116.147249 
L 598.072705 109.309705 
L 598.182295 109.712014 
L 598.919598 113.540877 
L 599.275687 113.954648 
L 600.175946 114.507663 
L 603.04574 116.180617 
L 603.052527 116.060448 
L 603.268344 109.308459 
L 603.316329 109.40286 
L 603.478574 110.391681 
L 603.96193 113.164263 
L 604.276329 113.766704 
L 604.759791 114.142836 
L 608.199213 116.123673 
L 608.242949 116.19264 
L 608.2506 116.036692 
L 608.467041 109.30921 
L 608.494433 109.346898 
L 608.613132 109.944131 
L 609.214315 113.321283 
L 609.537914 113.837282 
L 610.100054 114.231697 
L 613.440213 116.202422 
L 613.446022 116.116522 
L 613.661795 109.309083 
L 613.741184 109.532218 
L 614.023095 111.493434 
L 614.392823 113.273548 
L 614.711694 113.815759 
L 615.245392 114.202957 
L 618.637419 116.173897 
L 618.642198 116.11927 
L 618.704234 111.536298 
L 618.860402 109.30828 
L 618.922944 109.460276 
L 619.130485 110.840757 
L 619.548687 113.147676 
L 619.865507 113.762319 
L 620.3344 114.130733 
L 623.438454 115.919923 
L 623.834684 116.196525 
L 623.842335 116.040226 
L 624.058761 109.30934 
L 624.086155 109.347005 
L 624.204861 109.944268 
L 624.806131 113.322204 
L 625.133274 113.841667 
L 625.699951 114.237399 
L 629.246609 116.275317 
L 629.246609 116.275317 
" clip-path="url(#pcfc3a95854)" style="fill: none; stroke: #0000ff; stroke-width: 1.5; stroke-linecap: square"/>
   </g>
   <g id="line2d_39">
    <g clip-path="url(#pcfc3a95854)">
     <use xlink:href="#m1d2ab964cc" x="411.178888" y="110.487836" style="fill: #0000ff; stroke: #0000ff"/>
     <use xlink:href="#m1d2ab964cc" x="411.611992" y="113.337355" style="fill: #0000ff; stroke: #0000ff"/>
     <use xlink:href="#m1d2ab964cc" x="412.045096" y="114.317079" style="fill: #0000ff; stroke: #0000ff"/>
     <use xlink:href="#m1d2ab964cc" x="412.478199" y="114.651244" style="fill: #0000ff; stroke: #0000ff"/>
     <use xlink:href="#m1d2ab964cc" x="413.344407" y="115.156906" style="fill: #0000ff; stroke: #0000ff"/>
     <use xlink:href="#m1d2ab964cc" x="624.265916" y="110.380216" style="fill: #0000ff; stroke: #0000ff"/>
     <use xlink:href="#m1d2ab964cc" x="624.69902" y="112.992918" style="fill: #0000ff; stroke: #0000ff"/>
     <use xlink:href="#m1d2ab964cc" x="625.132124" y="113.840533" style="fill: #0000ff; stroke: #0000ff"/>
     <use xlink:href="#m1d2ab964cc" x="625.565228" y="114.156467" style="fill: #0000ff; stroke: #0000ff"/>
     <use xlink:href="#m1d2ab964cc" x="626.431435" y="114.660316" style="fill: #0000ff; stroke: #0000ff"/>
    </g>
   </g>
   <g id="line2d_40">
    <g clip-path="url(#pcfc3a95854)">
     <use xlink:href="#m5f16c1af0f" x="411.178888" y="110.187475" style="stroke: #000000; stroke-linejoin: miter"/>
     <use xlink:href="#m5f16c1af0f" x="411.611992" y="113.115629" style="stroke: #000000; stroke-linejoin: miter"/>
     <use xlink:href="#m5f16c1af0f" x="412.045096" y="114.452762" style="stroke: #000000; stroke-linejoin: miter"/>
     <use xlink:href="#m5f16c1af0f" x="412.478199" y="116.026857" style="stroke: #000000; stroke-linejoin: miter"/>
     <use xlink:href="#m5f16c1af0f" x="413.344407" y="119.022713" style="stroke: #000000; stroke-linejoin: miter"/>
     <use xlink:href="#m5f16c1af0f" x="624.265916" y="109.856365" style="stroke: #000000; stroke-linejoin: miter"/>
     <use xlink:href="#m5f16c1af0f" x="624.69902" y="112.950188" style="stroke: #000000; stroke-linejoin: miter"/>
     <use xlink:href="#m5f16c1af0f" x="625.132124" y="114.340641" style="stroke: #000000; stroke-linejoin: miter"/>
     <use xlink:href="#m5f16c1af0f" x="625.565228" y="115.694054" style="stroke: #000000; stroke-linejoin: miter"/>
     <use xlink:href="#m5f16c1af0f" x="626.431435" y="117.919541" style="stroke: #000000; stroke-linejoin: miter"/>
    </g>
   </g>
   <g id="patch_9">
    <path d="M 394.363636 338.4 
L 394.363636 86.4 
" style="fill: none; stroke: #000000; stroke-width: 0.8; stroke-linejoin: miter; stroke-linecap: square"/>
   </g>
   <g id="patch_10">
    <path d="M 648 338.4 
L 648 86.4 
" style="fill: none; stroke: #000000; stroke-width: 0.8; stroke-linejoin: miter; stroke-linecap: square"/>
   </g>
   <g id="patch_11">
    <path d="M 394.363636 338.4 
L 648 338.4 
" style="fill: none; stroke: #000000; stroke-width: 0.8; stroke-linejoin: miter; stroke-linecap: square"/>
   </g>
   <g id="patch_12">
    <path d="M 394.363636 86.4 
L 648 86.4 
" style="fill: none; stroke: #000000; stroke-width: 0.8; stroke-linejoin: miter; stroke-linecap: square"/>
   </g>
   <g id="text_20">
    <!-- Goldberg1995a.fm_po_LOS100_losartan -->
    <g transform="translate(380.823068 80.4) scale(0.14 -0.14)">
     <use xlink:href="#DejaVuSans-47"/>
     <use xlink:href="#DejaVuSans-6f" x="77.490234"/>
     <use xlink:href="#DejaVuSans-6c" x="138.671875"/>
     <use xlink:href="#DejaVuSans-64" x="166.455078"/>
     <use xlink:href="#DejaVuSans-62" x="229.931641"/>
     <use xlink:href="#DejaVuSans-65" x="293.408203"/>
     <use xlink:href="#DejaVuSans-72" x="354.931641"/>
     <use xlink:href="#DejaVuSans-67" x="394.294922"/>
     <use xlink:href="#DejaVuSans-31" x="457.771484"/>
     <use xlink:href="#DejaVuSans-39" x="521.394531"/>
     <use xlink:href="#DejaVuSans-39" x="585.017578"/>
     <use xlink:href="#DejaVuSans-35" x="648.640625"/>
     <use xlink:href="#DejaVuSans-61" x="712.263672"/>
     <use xlink:href="#DejaVuSans-2e" x="773.542969"/>
     <use xlink:href="#DejaVuSans-66" x="805.330078"/>
     <use xlink:href="#DejaVuSans-6d" x="840.535156"/>
     <use xlink:href="#DejaVuSans-5f" x="937.947266"/>
     <use xlink:href="#DejaVuSans-70" x="987.947266"/>
     <use xlink:href="#DejaVuSans-6f" x="1051.423828"/>
     <use xlink:href="#DejaVuSans-5f" x="1112.605469"/>
     <use xlink:href="#DejaVuSans-4c" x="1162.605469"/>
     <use xlink:href="#DejaVuSans-4f" x="1214.693359"/>
     <use xlink:href="#DejaVuSans-53" x="1293.404297"/>
     <use xlink:href="#DejaVuSans-31" x="1356.880859"/>
     <use xlink:href="#DejaVuSans-30" x="1420.503906"/>
     <use xlink:href="#DejaVuSans-30" x="1484.126953"/>
     <use xlink:href="#DejaVuSans-5f" x="1547.75"/>
     <use xlink:href="#DejaVuSans-6c" x="1597.75"/>
     <use xlink:href="#DejaVuSans-6f" x="1625.533203"/>
     <use xlink:href="#DejaVuSans-73" x="1686.714844"/>
     <use xlink:href="#DejaVuSans-61" x="1738.814453"/>
     <use xlink:href="#DejaVuSans-72" x="1800.09375"/>
     <use xlink:href="#DejaVuSans-74" x="1841.207031"/>
     <use xlink:href="#DejaVuSans-61" x="1880.416016"/>
     <use xlink:href="#DejaVuSans-6e" x="1941.695312"/>
    </g>
   </g>
   <g id="legend_2">
    <g id="patch_13">
     <path d="M 467.549006 333.4 
L 574.814631 333.4 
Q 576.814631 333.4 576.814631 331.4 
L 576.814631 273.409375 
Q 576.814631 271.409375 574.814631 271.409375 
L 467.549006 271.409375 
Q 465.549006 271.409375 465.549006 273.409375 
L 465.549006 331.4 
Q 465.549006 333.4 467.549006 333.4 
z
" style="fill: #ffffff; opacity: 0.8; stroke: #cccccc; stroke-linejoin: miter"/>
    </g>
    <g id="line2d_41">
     <g>
      <use xlink:href="#mdea2ad71a1" x="479.549006" y="279.507812" style="fill: #ff8c00; stroke: #ff8c00"/>
     </g>
    </g>
    <g id="text_21">
     <!-- residuals -->
     <g transform="translate(497.549006 283.007812) scale(0.1 -0.1)">
      <use xlink:href="#DejaVuSans-72"/>
      <use xlink:href="#DejaVuSans-65" x="38.863281"/>
      <use xlink:href="#DejaVuSans-73" x="100.386719"/>
      <use xlink:href="#DejaVuSans-69" x="152.486328"/>
      <use xlink:href="#DejaVuSans-64" x="180.269531"/>
      <use xlink:href="#DejaVuSans-75" x="243.746094"/>
      <use xlink:href="#DejaVuSans-61" x="307.125"/>
      <use xlink:href="#DejaVuSans-6c" x="368.404297"/>
      <use xlink:href="#DejaVuSans-73" x="396.1875"/>
     </g>
    </g>
    <g id="line2d_42">
     <path d="M 469.549006 294.185938 
L 479.549006 294.185938 
L 489.549006 294.185938 
" style="fill: none; stroke: #0000ff; stroke-width: 1.5; stroke-linecap: square"/>
    </g>
    <g id="text_22">
     <!-- observable -->
     <g transform="translate(497.549006 297.685938) scale(0.1 -0.1)">
      <use xlink:href="#DejaVuSans-6f"/>
      <use xlink:href="#DejaVuSans-62" x="61.181641"/>
      <use xlink:href="#DejaVuSans-73" x="124.658203"/>
      <use xlink:href="#DejaVuSans-65" x="176.757812"/>
      <use xlink:href="#DejaVuSans-72" x="238.28125"/>
      <use xlink:href="#DejaVuSans-76" x="279.394531"/>
      <use xlink:href="#DejaVuSans-61" x="338.574219"/>
      <use xlink:href="#DejaVuSans-62" x="399.853516"/>
      <use xlink:href="#DejaVuSans-6c" x="463.330078"/>
      <use xlink:href="#DejaVuSans-65" x="491.113281"/>
     </g>
    </g>
    <g id="line2d_43">
     <g>
      <use xlink:href="#m1d2ab964cc" x="479.549006" y="308.864062" style="fill: #0000ff; stroke: #0000ff"/>
     </g>
    </g>
    <g id="text_23">
     <!-- interpolation -->
     <g transform="translate(497.549006 312.364062) scale(0.1 -0.1)">
      <use xlink:href="#DejaVuSans-69"/>
      <use xlink:href="#DejaVuSans-6e" x="27.783203"/>
      <use xlink:href="#DejaVuSans-74" x="91.162109"/>
      <use xlink:href="#DejaVuSans-65" x="130.371094"/>
      <use xlink:href="#DejaVuSans-72" x="191.894531"/>
      <use xlink:href="#DejaVuSans-70" x="233.007812"/>
      <use xlink:href="#DejaVuSans-6f" x="296.484375"/>
      <use xlink:href="#DejaVuSans-6c" x="357.666016"/>
      <use xlink:href="#DejaVuSans-61" x="385.449219"/>
      <use xlink:href="#DejaVuSans-74" x="446.728516"/>
      <use xlink:href="#DejaVuSans-69" x="485.9375"/>
      <use xlink:href="#DejaVuSans-6f" x="513.720703"/>
      <use xlink:href="#DejaVuSans-6e" x="574.902344"/>
     </g>
    </g>
    <g id="line2d_44">
     <g>
      <use xlink:href="#m5f16c1af0f" x="479.549006" y="323.542188" style="stroke: #000000; stroke-linejoin: miter"/>
     </g>
    </g>
    <g id="text_24">
     <!-- reference_data -->
     <g transform="translate(497.549006 327.042188) scale(0.1 -0.1)">
      <use xlink:href="#DejaVuSans-72"/>
      <use xlink:href="#DejaVuSans-65" x="38.863281"/>
      <use xlink:href="#DejaVuSans-66" x="100.386719"/>
      <use xlink:href="#DejaVuSans-65" x="135.591797"/>
      <use xlink:href="#DejaVuSans-72" x="197.115234"/>
      <use xlink:href="#DejaVuSans-65" x="235.978516"/>
      <use xlink:href="#DejaVuSans-6e" x="297.501953"/>
      <use xlink:href="#DejaVuSans-63" x="360.880859"/>
      <use xlink:href="#DejaVuSans-65" x="415.861328"/>
      <use xlink:href="#DejaVuSans-5f" x="477.384766"/>
      <use xlink:href="#DejaVuSans-64" x="527.384766"/>
      <use xlink:href="#DejaVuSans-61" x="590.861328"/>
      <use xlink:href="#DejaVuSans-74" x="652.140625"/>
      <use xlink:href="#DejaVuSans-61" x="691.349609"/>
     </g>
    </g>
   </g>
  </g>
  <g id="axes_3">
   <g id="patch_14">
    <path d="M 90 640.8 
L 343.636364 640.8 
L 343.636364 388.8 
L 90 388.8 
z
" style="fill: #ffffff"/>
   </g>
   <g id="PolyCollection_3">
    <defs>
     <path id="m12ea8ff651" d="M 106.815252 -90.654545 
L 106.815252 -150.695057 
L 107.248355 -92.395139 
L 107.681459 -90.855487 
L 108.114563 -98.815308 
L 108.98077 -104.939136 
L 319.90228 -319.745455 
L 320.335384 -90.738203 
L 320.768487 -94.353504 
L 321.201591 -106.330048 
L 322.067799 -111.597442 
L 322.067799 -90.654545 
L 322.067799 -90.654545 
L 321.201591 -90.654545 
L 320.768487 -90.654545 
L 320.335384 -90.654545 
L 319.90228 -90.654545 
L 108.98077 -90.654545 
L 108.114563 -90.654545 
L 107.681459 -90.654545 
L 107.248355 -90.654545 
L 106.815252 -90.654545 
z
" style="stroke: #8b0000; stroke-opacity: 0.4"/>
    </defs>
    <g clip-path="url(#p891a58e4df)">
     <use xlink:href="#m12ea8ff651" x="0" y="720" style="fill: #8b0000; fill-opacity: 0.4; stroke: #8b0000; stroke-opacity: 0.4"/>
    </g>
   </g>
   <g id="matplotlib.axis_5">
    <g id="xtick_15">
     <g id="line2d_45">
      <g>
       <use xlink:href="#m8decb054ba" x="106.382148" y="640.8" style="stroke: #000000; stroke-width: 0.8"/>
      </g>
     </g>
     <g id="text_25">
      <!-- 0 -->
      <g transform="translate(103.200898 655.398438) scale(0.1 -0.1)">
       <use xlink:href="#DejaVuSans-30"/>
      </g>
     </g>
    </g>
    <g id="xtick_16">
     <g id="line2d_46">
      <g>
       <use xlink:href="#m8decb054ba" x="142.474124" y="640.8" style="stroke: #000000; stroke-width: 0.8"/>
      </g>
     </g>
     <g id="text_26">
      <!-- 10000 -->
      <g transform="translate(126.567874 655.398438) scale(0.1 -0.1)">
       <use xlink:href="#DejaVuSans-31"/>
       <use xlink:href="#DejaVuSans-30" x="63.623047"/>
       <use xlink:href="#DejaVuSans-30" x="127.246094"/>
       <use xlink:href="#DejaVuSans-30" x="190.869141"/>
       <use xlink:href="#DejaVuSans-30" x="254.492188"/>
      </g>
     </g>
    </g>
    <g id="xtick_17">
     <g id="line2d_47">
      <g>
       <use xlink:href="#m8decb054ba" x="178.566101" y="640.8" style="stroke: #000000; stroke-width: 0.8"/>
      </g>
     </g>
     <g id="text_27">
      <!-- 20000 -->
      <g transform="translate(162.659851 655.398438) scale(0.1 -0.1)">
       <use xlink:href="#DejaVuSans-32"/>
       <use xlink:href="#DejaVuSans-30" x="63.623047"/>
       <use xlink:href="#DejaVuSans-30" x="127.246094"/>
       <use xlink:href="#DejaVuSans-30" x="190.869141"/>
       <use xlink:href="#DejaVuSans-30" x="254.492188"/>
      </g>
     </g>
    </g>
    <g id="xtick_18">
     <g id="line2d_48">
      <g>
       <use xlink:href="#m8decb054ba" x="214.658077" y="640.8" style="stroke: #000000; stroke-width: 0.8"/>
      </g>
     </g>
     <g id="text_28">
      <!-- 30000 -->
      <g transform="translate(198.751827 655.398438) scale(0.1 -0.1)">
       <use xlink:href="#DejaVuSans-33"/>
       <use xlink:href="#DejaVuSans-30" x="63.623047"/>
       <use xlink:href="#DejaVuSans-30" x="127.246094"/>
       <use xlink:href="#DejaVuSans-30" x="190.869141"/>
       <use xlink:href="#DejaVuSans-30" x="254.492188"/>
      </g>
     </g>
    </g>
    <g id="xtick_19">
     <g id="line2d_49">
      <g>
       <use xlink:href="#m8decb054ba" x="250.750053" y="640.8" style="stroke: #000000; stroke-width: 0.8"/>
      </g>
     </g>
     <g id="text_29">
      <!-- 40000 -->
      <g transform="translate(234.843803 655.398438) scale(0.1 -0.1)">
       <use xlink:href="#DejaVuSans-34"/>
       <use xlink:href="#DejaVuSans-30" x="63.623047"/>
       <use xlink:href="#DejaVuSans-30" x="127.246094"/>
       <use xlink:href="#DejaVuSans-30" x="190.869141"/>
       <use xlink:href="#DejaVuSans-30" x="254.492188"/>
      </g>
     </g>
    </g>
    <g id="xtick_20">
     <g id="line2d_50">
      <g>
       <use xlink:href="#m8decb054ba" x="286.84203" y="640.8" style="stroke: #000000; stroke-width: 0.8"/>
      </g>
     </g>
     <g id="text_30">
      <!-- 50000 -->
      <g transform="translate(270.93578 655.398438) scale(0.1 -0.1)">
       <use xlink:href="#DejaVuSans-35"/>
       <use xlink:href="#DejaVuSans-30" x="63.623047"/>
       <use xlink:href="#DejaVuSans-30" x="127.246094"/>
       <use xlink:href="#DejaVuSans-30" x="190.869141"/>
       <use xlink:href="#DejaVuSans-30" x="254.492188"/>
      </g>
     </g>
    </g>
    <g id="xtick_21">
     <g id="line2d_51">
      <g>
       <use xlink:href="#m8decb054ba" x="322.934006" y="640.8" style="stroke: #000000; stroke-width: 0.8"/>
      </g>
     </g>
     <g id="text_31">
      <!-- 60000 -->
      <g transform="translate(307.027756 655.398438) scale(0.1 -0.1)">
       <use xlink:href="#DejaVuSans-36"/>
       <use xlink:href="#DejaVuSans-30" x="63.623047"/>
       <use xlink:href="#DejaVuSans-30" x="127.246094"/>
       <use xlink:href="#DejaVuSans-30" x="190.869141"/>
       <use xlink:href="#DejaVuSans-30" x="254.492188"/>
      </g>
     </g>
    </g>
    <g id="text_32">
     <!-- time -->
     <g transform="translate(203.262869 670.59625) scale(0.12 -0.12)">
      <use xlink:href="#DejaVuSans-74"/>
      <use xlink:href="#DejaVuSans-69" x="39.208984"/>
      <use xlink:href="#DejaVuSans-6d" x="66.992188"/>
      <use xlink:href="#DejaVuSans-65" x="164.404297"/>
     </g>
    </g>
   </g>
   <g id="matplotlib.axis_6">
    <g id="ytick_14">
     <g id="line2d_52">
      <g>
       <use xlink:href="#meece10333c" x="90" y="629.345455" style="stroke: #000000; stroke-width: 0.8"/>
      </g>
     </g>
     <g id="text_33">
      <!-- 0.0 -->
      <g transform="translate(67.096875 633.144673) scale(0.1 -0.1)">
       <use xlink:href="#DejaVuSans-30"/>
       <use xlink:href="#DejaVuSans-2e" x="63.623047"/>
       <use xlink:href="#DejaVuSans-30" x="95.410156"/>
      </g>
     </g>
    </g>
    <g id="ytick_15">
     <g id="line2d_53">
      <g>
       <use xlink:href="#meece10333c" x="90" y="576.156523" style="stroke: #000000; stroke-width: 0.8"/>
      </g>
     </g>
     <g id="text_34">
      <!-- 0.5 -->
      <g transform="translate(67.096875 579.955742) scale(0.1 -0.1)">
       <use xlink:href="#DejaVuSans-30"/>
       <use xlink:href="#DejaVuSans-2e" x="63.623047"/>
       <use xlink:href="#DejaVuSans-35" x="95.410156"/>
      </g>
     </g>
    </g>
    <g id="ytick_16">
     <g id="line2d_54">
      <g>
       <use xlink:href="#meece10333c" x="90" y="522.967591" style="stroke: #000000; stroke-width: 0.8"/>
      </g>
     </g>
     <g id="text_35">
      <!-- 1.0 -->
      <g transform="translate(67.096875 526.76681) scale(0.1 -0.1)">
       <use xlink:href="#DejaVuSans-31"/>
       <use xlink:href="#DejaVuSans-2e" x="63.623047"/>
       <use xlink:href="#DejaVuSans-30" x="95.410156"/>
      </g>
     </g>
    </g>
    <g id="ytick_17">
     <g id="line2d_55">
      <g>
       <use xlink:href="#meece10333c" x="90" y="469.77866" style="stroke: #000000; stroke-width: 0.8"/>
      </g>
     </g>
     <g id="text_36">
      <!-- 1.5 -->
      <g transform="translate(67.096875 473.577879) scale(0.1 -0.1)">
       <use xlink:href="#DejaVuSans-31"/>
       <use xlink:href="#DejaVuSans-2e" x="63.623047"/>
       <use xlink:href="#DejaVuSans-35" x="95.410156"/>
      </g>
     </g>
    </g>
    <g id="ytick_18">
     <g id="line2d_56">
      <g>
       <use xlink:href="#meece10333c" x="90" y="416.589728" style="stroke: #000000; stroke-width: 0.8"/>
      </g>
     </g>
     <g id="text_37">
      <!-- 2.0 -->
      <g transform="translate(67.096875 420.388947) scale(0.1 -0.1)">
       <use xlink:href="#DejaVuSans-32"/>
       <use xlink:href="#DejaVuSans-2e" x="63.623047"/>
       <use xlink:href="#DejaVuSans-30" x="95.410156"/>
      </g>
     </g>
    </g>
    <g id="text_38">
     <!-- [Cve_los] -->
     <g transform="translate(60.2675 542.378438) rotate(-90) scale(0.12 -0.12)">
      <use xlink:href="#DejaVuSans-5b"/>
      <use xlink:href="#DejaVuSans-43" x="39.013672"/>
      <use xlink:href="#DejaVuSans-76" x="108.837891"/>
      <use xlink:href="#DejaVuSans-65" x="168.017578"/>
      <use xlink:href="#DejaVuSans-5f" x="229.541016"/>
      <use xlink:href="#DejaVuSans-6c" x="279.541016"/>
      <use xlink:href="#DejaVuSans-6f" x="307.324219"/>
      <use xlink:href="#DejaVuSans-73" x="368.505859"/>
      <use xlink:href="#DejaVuSans-5d" x="420.605469"/>
     </g>
    </g>
   </g>
   <g id="line2d_57">
    <path d="M 90 629.345455 
L 343.636364 629.345455 
" clip-path="url(#p891a58e4df)" style="fill: none; stroke: #000000; stroke-width: 1.5; stroke-linecap: square"/>
   </g>
   <g id="line2d_58">
    <defs>
     <path id="ma7990cae98" d="M 0 3 
C 0.795609 3 1.55874 2.683901 2.12132 2.12132 
C 2.683901 1.55874 3 0.795609 3 0 
C 3 -0.795609 2.683901 -1.55874 2.12132 -2.12132 
C 1.55874 -2.683901 0.795609 -3 0 -3 
C -0.795609 -3 -1.55874 -2.683901 -2.12132 -2.12132 
C -2.683901 -1.55874 -3 -0.795609 -3 0 
C -3 0.795609 -2.683901 1.55874 -2.12132 2.12132 
C -1.55874 2.683901 -0.795609 3 0 3 
z
" style="stroke: #ff0000"/>
    </defs>
    <g clip-path="url(#p891a58e4df)">
     <use xlink:href="#ma7990cae98" x="106.815252" y="569.304943" style="fill: #ff0000; stroke: #ff0000"/>
     <use xlink:href="#ma7990cae98" x="107.248355" y="627.604861" style="fill: #ff0000; stroke: #ff0000"/>
     <use xlink:href="#ma7990cae98" x="107.681459" y="629.144513" style="fill: #ff0000; stroke: #ff0000"/>
     <use xlink:href="#ma7990cae98" x="108.114563" y="621.184692" style="fill: #ff0000; stroke: #ff0000"/>
     <use xlink:href="#ma7990cae98" x="108.98077" y="615.060864" style="fill: #ff0000; stroke: #ff0000"/>
     <use xlink:href="#ma7990cae98" x="319.90228" y="400.254545" style="fill: #ff0000; stroke: #ff0000"/>
     <use xlink:href="#ma7990cae98" x="320.335384" y="629.261797" style="fill: #ff0000; stroke: #ff0000"/>
     <use xlink:href="#ma7990cae98" x="320.768487" y="625.646496" style="fill: #ff0000; stroke: #ff0000"/>
     <use xlink:href="#ma7990cae98" x="321.201591" y="613.669952" style="fill: #ff0000; stroke: #ff0000"/>
     <use xlink:href="#ma7990cae98" x="322.067799" y="608.402558" style="fill: #ff0000; stroke: #ff0000"/>
    </g>
   </g>
   <g id="patch_15">
    <path d="M 90 640.8 
L 90 388.8 
" style="fill: none; stroke: #000000; stroke-width: 0.8; stroke-linejoin: miter; stroke-linecap: square"/>
   </g>
   <g id="patch_16">
    <path d="M 343.636364 640.8 
L 343.636364 388.8 
" style="fill: none; stroke: #000000; stroke-width: 0.8; stroke-linejoin: miter; stroke-linecap: square"/>
   </g>
   <g id="patch_17">
    <path d="M 90 640.8 
L 343.636364 640.8 
" style="fill: none; stroke: #000000; stroke-width: 0.8; stroke-linejoin: miter; stroke-linecap: square"/>
   </g>
   <g id="patch_18">
    <path d="M 90 388.8 
L 343.636364 388.8 
" style="fill: none; stroke: #000000; stroke-width: 0.8; stroke-linejoin: miter; stroke-linecap: square"/>
   </g>
   <g id="legend_3">
    <g id="patch_19">
     <path d="M 97 411.478125 
L 245.76875 411.478125 
Q 247.76875 411.478125 247.76875 409.478125 
L 247.76875 395.8 
Q 247.76875 393.8 245.76875 393.8 
L 97 393.8 
Q 95 393.8 95 395.8 
L 95 409.478125 
Q 95 411.478125 97 411.478125 
z
" style="fill: #ffffff; opacity: 0.8; stroke: #cccccc; stroke-linejoin: miter"/>
    </g>
    <g id="line2d_59">
     <g>
      <use xlink:href="#ma7990cae98" x="109" y="401.898438" style="fill: #ff0000; stroke: #ff0000"/>
     </g>
    </g>
    <g id="text_39">
     <!-- (weighted residuals)^2 -->
     <g transform="translate(127 405.398438) scale(0.1 -0.1)">
      <defs>
       <path id="DejaVuSans-28" d="M 1984 4856 
Q 1566 4138 1362 3434 
Q 1159 2731 1159 2009 
Q 1159 1288 1364 580 
Q 1569 -128 1984 -844 
L 1484 -844 
Q 1016 -109 783 600 
Q 550 1309 550 2009 
Q 550 2706 781 3412 
Q 1013 4119 1484 4856 
L 1984 4856 
z
" transform="scale(0.015625)"/>
       <path id="DejaVuSans-77" d="M 269 3500 
L 844 3500 
L 1563 769 
L 2278 3500 
L 2956 3500 
L 3675 769 
L 4391 3500 
L 4966 3500 
L 4050 0 
L 3372 0 
L 2619 2869 
L 1863 0 
L 1184 0 
L 269 3500 
z
" transform="scale(0.015625)"/>
       <path id="DejaVuSans-68" d="M 3513 2113 
L 3513 0 
L 2938 0 
L 2938 2094 
Q 2938 2591 2744 2837 
Q 2550 3084 2163 3084 
Q 1697 3084 1428 2787 
Q 1159 2491 1159 1978 
L 1159 0 
L 581 0 
L 581 4863 
L 1159 4863 
L 1159 2956 
Q 1366 3272 1645 3428 
Q 1925 3584 2291 3584 
Q 2894 3584 3203 3211 
Q 3513 2838 3513 2113 
z
" transform="scale(0.015625)"/>
       <path id="DejaVuSans-20" transform="scale(0.015625)"/>
       <path id="DejaVuSans-29" d="M 513 4856 
L 1013 4856 
Q 1481 4119 1714 3412 
Q 1947 2706 1947 2009 
Q 1947 1309 1714 600 
Q 1481 -109 1013 -844 
L 513 -844 
Q 928 -128 1133 580 
Q 1338 1288 1338 2009 
Q 1338 2731 1133 3434 
Q 928 4138 513 4856 
z
" transform="scale(0.015625)"/>
       <path id="DejaVuSans-5e" d="M 2988 4666 
L 4684 2925 
L 4056 2925 
L 2681 4159 
L 1306 2925 
L 678 2925 
L 2375 4666 
L 2988 4666 
z
" transform="scale(0.015625)"/>
      </defs>
      <use xlink:href="#DejaVuSans-28"/>
      <use xlink:href="#DejaVuSans-77" x="39.013672"/>
      <use xlink:href="#DejaVuSans-65" x="120.800781"/>
      <use xlink:href="#DejaVuSans-69" x="182.324219"/>
      <use xlink:href="#DejaVuSans-67" x="210.107422"/>
      <use xlink:href="#DejaVuSans-68" x="273.583984"/>
      <use xlink:href="#DejaVuSans-74" x="336.962891"/>
      <use xlink:href="#DejaVuSans-65" x="376.171875"/>
      <use xlink:href="#DejaVuSans-64" x="437.695312"/>
      <use xlink:href="#DejaVuSans-20" x="501.171875"/>
      <use xlink:href="#DejaVuSans-72" x="532.958984"/>
      <use xlink:href="#DejaVuSans-65" x="571.822266"/>
      <use xlink:href="#DejaVuSans-73" x="633.345703"/>
      <use xlink:href="#DejaVuSans-69" x="685.445312"/>
      <use xlink:href="#DejaVuSans-64" x="713.228516"/>
      <use xlink:href="#DejaVuSans-75" x="776.705078"/>
      <use xlink:href="#DejaVuSans-61" x="840.083984"/>
      <use xlink:href="#DejaVuSans-6c" x="901.363281"/>
      <use xlink:href="#DejaVuSans-73" x="929.146484"/>
      <use xlink:href="#DejaVuSans-29" x="981.246094"/>
      <use xlink:href="#DejaVuSans-5e" x="1020.259766"/>
      <use xlink:href="#DejaVuSans-32" x="1104.048828"/>
     </g>
    </g>
   </g>
  </g>
  <g id="axes_4">
   <g id="patch_20">
    <path d="M 394.363636 640.8 
L 648 640.8 
L 648 388.8 
L 394.363636 388.8 
z
" style="fill: #ffffff"/>
   </g>
   <g id="PolyCollection_4">
    <path d="M 411.178888 67067.021712 
L 411.178888 439.01259 
L 411.611992 541.495067 
L 412.045096 603.982901 
L 412.478199 496.774344 
L 413.344407 480.57058 
L 624.265916 400.254545 
L 624.69902 629.345455 
L 625.132124 519.676835 
L 625.565228 477.881226 
L 626.431435 469.496322 
L 626.431435 67067.021712 
L 626.431435 67067.021712 
L 625.565228 67067.021712 
L 625.132124 67067.021712 
L 624.69902 67067.021712 
L 624.265916 67067.021712 
L 413.344407 67067.021712 
L 412.478199 67067.021712 
L 412.045096 67067.021712 
L 411.611992 67067.021712 
L 411.178888 67067.021712 
z
" clip-path="url(#p459fb7df7f)" style="fill: #8b0000; fill-opacity: 0.4; stroke: #8b0000; stroke-opacity: 0.4"/>
   </g>
   <g id="matplotlib.axis_7">
    <g id="xtick_22">
     <g id="line2d_60">
      <g>
       <use xlink:href="#m8decb054ba" x="410.745784" y="640.8" style="stroke: #000000; stroke-width: 0.8"/>
      </g>
     </g>
     <g id="text_40">
      <!-- 0 -->
      <g transform="translate(407.564534 655.398438) scale(0.1 -0.1)">
       <use xlink:href="#DejaVuSans-30"/>
      </g>
     </g>
    </g>
    <g id="xtick_23">
     <g id="line2d_61">
      <g>
       <use xlink:href="#m8decb054ba" x="446.837761" y="640.8" style="stroke: #000000; stroke-width: 0.8"/>
      </g>
     </g>
     <g id="text_41">
      <!-- 10000 -->
      <g transform="translate(430.931511 655.398438) scale(0.1 -0.1)">
       <use xlink:href="#DejaVuSans-31"/>
       <use xlink:href="#DejaVuSans-30" x="63.623047"/>
       <use xlink:href="#DejaVuSans-30" x="127.246094"/>
       <use xlink:href="#DejaVuSans-30" x="190.869141"/>
       <use xlink:href="#DejaVuSans-30" x="254.492188"/>
      </g>
     </g>
    </g>
    <g id="xtick_24">
     <g id="line2d_62">
      <g>
       <use xlink:href="#m8decb054ba" x="482.929737" y="640.8" style="stroke: #000000; stroke-width: 0.8"/>
      </g>
     </g>
     <g id="text_42">
      <!-- 20000 -->
      <g transform="translate(467.023487 655.398438) scale(0.1 -0.1)">
       <use xlink:href="#DejaVuSans-32"/>
       <use xlink:href="#DejaVuSans-30" x="63.623047"/>
       <use xlink:href="#DejaVuSans-30" x="127.246094"/>
       <use xlink:href="#DejaVuSans-30" x="190.869141"/>
       <use xlink:href="#DejaVuSans-30" x="254.492188"/>
      </g>
     </g>
    </g>
    <g id="xtick_25">
     <g id="line2d_63">
      <g>
       <use xlink:href="#m8decb054ba" x="519.021713" y="640.8" style="stroke: #000000; stroke-width: 0.8"/>
      </g>
     </g>
     <g id="text_43">
      <!-- 30000 -->
      <g transform="translate(503.115463 655.398438) scale(0.1 -0.1)">
       <use xlink:href="#DejaVuSans-33"/>
       <use xlink:href="#DejaVuSans-30" x="63.623047"/>
       <use xlink:href="#DejaVuSans-30" x="127.246094"/>
       <use xlink:href="#DejaVuSans-30" x="190.869141"/>
       <use xlink:href="#DejaVuSans-30" x="254.492188"/>
      </g>
     </g>
    </g>
    <g id="xtick_26">
     <g id="line2d_64">
      <g>
       <use xlink:href="#m8decb054ba" x="555.11369" y="640.8" style="stroke: #000000; stroke-width: 0.8"/>
      </g>
     </g>
     <g id="text_44">
      <!-- 40000 -->
      <g transform="translate(539.20744 655.398438) scale(0.1 -0.1)">
       <use xlink:href="#DejaVuSans-34"/>
       <use xlink:href="#DejaVuSans-30" x="63.623047"/>
       <use xlink:href="#DejaVuSans-30" x="127.246094"/>
       <use xlink:href="#DejaVuSans-30" x="190.869141"/>
       <use xlink:href="#DejaVuSans-30" x="254.492188"/>
      </g>
     </g>
    </g>
    <g id="xtick_27">
     <g id="line2d_65">
      <g>
       <use xlink:href="#m8decb054ba" x="591.205666" y="640.8" style="stroke: #000000; stroke-width: 0.8"/>
      </g>
     </g>
     <g id="text_45">
      <!-- 50000 -->
      <g transform="translate(575.299416 655.398438) scale(0.1 -0.1)">
       <use xlink:href="#DejaVuSans-35"/>
       <use xlink:href="#DejaVuSans-30" x="63.623047"/>
       <use xlink:href="#DejaVuSans-30" x="127.246094"/>
       <use xlink:href="#DejaVuSans-30" x="190.869141"/>
       <use xlink:href="#DejaVuSans-30" x="254.492188"/>
      </g>
     </g>
    </g>
    <g id="xtick_28">
     <g id="line2d_66">
      <g>
       <use xlink:href="#m8decb054ba" x="627.297642" y="640.8" style="stroke: #000000; stroke-width: 0.8"/>
      </g>
     </g>
     <g id="text_46">
      <!-- 60000 -->
      <g transform="translate(611.391392 655.398438) scale(0.1 -0.1)">
       <use xlink:href="#DejaVuSans-36"/>
       <use xlink:href="#DejaVuSans-30" x="63.623047"/>
       <use xlink:href="#DejaVuSans-30" x="127.246094"/>
       <use xlink:href="#DejaVuSans-30" x="190.869141"/>
       <use xlink:href="#DejaVuSans-30" x="254.492188"/>
      </g>
     </g>
    </g>
    <g id="text_47">
     <!-- time -->
     <g transform="translate(507.626506 670.59625) scale(0.12 -0.12)">
      <use xlink:href="#DejaVuSans-74"/>
      <use xlink:href="#DejaVuSans-69" x="39.208984"/>
      <use xlink:href="#DejaVuSans-6d" x="66.992188"/>
      <use xlink:href="#DejaVuSans-65" x="164.404297"/>
     </g>
    </g>
   </g>
   <g id="matplotlib.axis_8">
    <g id="ytick_19">
     <g id="line2d_67">
      <g>
       <use xlink:href="#meece10333c" x="394.363636" y="622.391314" style="stroke: #000000; stroke-width: 0.8"/>
      </g>
     </g>
     <g id="text_48">
      <!-- $\mathdefault{10^{-3}}$ -->
      <g transform="translate(363.863636 626.190532) scale(0.1 -0.1)">
       <use xlink:href="#DejaVuSans-31" transform="translate(0 0.765625)"/>
       <use xlink:href="#DejaVuSans-30" transform="translate(63.623047 0.765625)"/>
       <use xlink:href="#DejaVuSans-2212" transform="translate(128.203125 39.046875) scale(0.7)"/>
       <use xlink:href="#DejaVuSans-33" transform="translate(186.855469 39.046875) scale(0.7)"/>
      </g>
     </g>
    </g>
    <g id="ytick_20">
     <g id="line2d_68">
      <g>
       <use xlink:href="#meece10333c" x="394.363636" y="555.74675" style="stroke: #000000; stroke-width: 0.8"/>
      </g>
     </g>
     <g id="text_49">
      <!-- $\mathdefault{10^{-2}}$ -->
      <g transform="translate(363.863636 559.545968) scale(0.1 -0.1)">
       <use xlink:href="#DejaVuSans-31" transform="translate(0 0.765625)"/>
       <use xlink:href="#DejaVuSans-30" transform="translate(63.623047 0.765625)"/>
       <use xlink:href="#DejaVuSans-2212" transform="translate(128.203125 39.046875) scale(0.7)"/>
       <use xlink:href="#DejaVuSans-32" transform="translate(186.855469 39.046875) scale(0.7)"/>
      </g>
     </g>
    </g>
    <g id="ytick_21">
     <g id="line2d_69">
      <g>
       <use xlink:href="#meece10333c" x="394.363636" y="489.102185" style="stroke: #000000; stroke-width: 0.8"/>
      </g>
     </g>
     <g id="text_50">
      <!-- $\mathdefault{10^{-1}}$ -->
      <g transform="translate(363.863636 492.901404) scale(0.1 -0.1)">
       <use xlink:href="#DejaVuSans-31" transform="translate(0 0.684375)"/>
       <use xlink:href="#DejaVuSans-30" transform="translate(63.623047 0.684375)"/>
       <use xlink:href="#DejaVuSans-2212" transform="translate(128.203125 38.965625) scale(0.7)"/>
       <use xlink:href="#DejaVuSans-31" transform="translate(186.855469 38.965625) scale(0.7)"/>
      </g>
     </g>
    </g>
    <g id="ytick_22">
     <g id="line2d_70">
      <g>
       <use xlink:href="#meece10333c" x="394.363636" y="422.457621" style="stroke: #000000; stroke-width: 0.8"/>
      </g>
     </g>
     <g id="text_51">
      <!-- $\mathdefault{10^{0}}$ -->
      <g transform="translate(369.763636 426.25684) scale(0.1 -0.1)">
       <use xlink:href="#DejaVuSans-31" transform="translate(0 0.765625)"/>
       <use xlink:href="#DejaVuSans-30" transform="translate(63.623047 0.765625)"/>
       <use xlink:href="#DejaVuSans-30" transform="translate(128.203125 39.046875) scale(0.7)"/>
      </g>
     </g>
    </g>
    <g id="ytick_23">
     <g id="line2d_71">
      <defs>
       <path id="ma49b6d56c7" d="M 0 0 
L -2 0 
" style="stroke: #000000; stroke-width: 0.6"/>
      </defs>
      <g>
       <use xlink:href="#ma49b6d56c7" x="394.363636" y="637.176327" style="stroke: #000000; stroke-width: 0.6"/>
      </g>
     </g>
    </g>
    <g id="ytick_24">
     <g id="line2d_72">
      <g>
       <use xlink:href="#ma49b6d56c7" x="394.363636" y="632.714687" style="stroke: #000000; stroke-width: 0.6"/>
      </g>
     </g>
    </g>
    <g id="ytick_25">
     <g id="line2d_73">
      <g>
       <use xlink:href="#ma49b6d56c7" x="394.363636" y="628.849839" style="stroke: #000000; stroke-width: 0.6"/>
      </g>
     </g>
    </g>
    <g id="ytick_26">
     <g id="line2d_74">
      <g>
       <use xlink:href="#ma49b6d56c7" x="394.363636" y="625.440802" style="stroke: #000000; stroke-width: 0.6"/>
      </g>
     </g>
    </g>
    <g id="ytick_27">
     <g id="line2d_75">
      <g>
       <use xlink:href="#ma49b6d56c7" x="394.363636" y="602.329301" style="stroke: #000000; stroke-width: 0.6"/>
      </g>
     </g>
    </g>
    <g id="ytick_28">
     <g id="line2d_76">
      <g>
       <use xlink:href="#ma49b6d56c7" x="394.363636" y="590.593776" style="stroke: #000000; stroke-width: 0.6"/>
      </g>
     </g>
    </g>
    <g id="ytick_29">
     <g id="line2d_77">
      <g>
       <use xlink:href="#ma49b6d56c7" x="394.363636" y="582.267288" style="stroke: #000000; stroke-width: 0.6"/>
      </g>
     </g>
    </g>
    <g id="ytick_30">
     <g id="line2d_78">
      <g>
       <use xlink:href="#ma49b6d56c7" x="394.363636" y="575.808762" style="stroke: #000000; stroke-width: 0.6"/>
      </g>
     </g>
    </g>
    <g id="ytick_31">
     <g id="line2d_79">
      <g>
       <use xlink:href="#ma49b6d56c7" x="394.363636" y="570.531763" style="stroke: #000000; stroke-width: 0.6"/>
      </g>
     </g>
    </g>
    <g id="ytick_32">
     <g id="line2d_80">
      <g>
       <use xlink:href="#ma49b6d56c7" x="394.363636" y="566.070123" style="stroke: #000000; stroke-width: 0.6"/>
      </g>
     </g>
    </g>
    <g id="ytick_33">
     <g id="line2d_81">
      <g>
       <use xlink:href="#ma49b6d56c7" x="394.363636" y="562.205275" style="stroke: #000000; stroke-width: 0.6"/>
      </g>
     </g>
    </g>
    <g id="ytick_34">
     <g id="line2d_82">
      <g>
       <use xlink:href="#ma49b6d56c7" x="394.363636" y="558.796238" style="stroke: #000000; stroke-width: 0.6"/>
      </g>
     </g>
    </g>
    <g id="ytick_35">
     <g id="line2d_83">
      <g>
       <use xlink:href="#ma49b6d56c7" x="394.363636" y="535.684737" style="stroke: #000000; stroke-width: 0.6"/>
      </g>
     </g>
    </g>
    <g id="ytick_36">
     <g id="line2d_84">
      <g>
       <use xlink:href="#ma49b6d56c7" x="394.363636" y="523.949212" style="stroke: #000000; stroke-width: 0.6"/>
      </g>
     </g>
    </g>
    <g id="ytick_37">
     <g id="line2d_85">
      <g>
       <use xlink:href="#ma49b6d56c7" x="394.363636" y="515.622724" style="stroke: #000000; stroke-width: 0.6"/>
      </g>
     </g>
    </g>
    <g id="ytick_38">
     <g id="line2d_86">
      <g>
       <use xlink:href="#ma49b6d56c7" x="394.363636" y="509.164198" style="stroke: #000000; stroke-width: 0.6"/>
      </g>
     </g>
    </g>
    <g id="ytick_39">
     <g id="line2d_87">
      <g>
       <use xlink:href="#ma49b6d56c7" x="394.363636" y="503.887199" style="stroke: #000000; stroke-width: 0.6"/>
      </g>
     </g>
    </g>
    <g id="ytick_40">
     <g id="line2d_88">
      <g>
       <use xlink:href="#ma49b6d56c7" x="394.363636" y="499.425559" style="stroke: #000000; stroke-width: 0.6"/>
      </g>
     </g>
    </g>
    <g id="ytick_41">
     <g id="line2d_89">
      <g>
       <use xlink:href="#ma49b6d56c7" x="394.363636" y="495.560711" style="stroke: #000000; stroke-width: 0.6"/>
      </g>
     </g>
    </g>
    <g id="ytick_42">
     <g id="line2d_90">
      <g>
       <use xlink:href="#ma49b6d56c7" x="394.363636" y="492.151674" style="stroke: #000000; stroke-width: 0.6"/>
      </g>
     </g>
    </g>
    <g id="ytick_43">
     <g id="line2d_91">
      <g>
       <use xlink:href="#ma49b6d56c7" x="394.363636" y="469.040173" style="stroke: #000000; stroke-width: 0.6"/>
      </g>
     </g>
    </g>
    <g id="ytick_44">
     <g id="line2d_92">
      <g>
       <use xlink:href="#ma49b6d56c7" x="394.363636" y="457.304647" style="stroke: #000000; stroke-width: 0.6"/>
      </g>
     </g>
    </g>
    <g id="ytick_45">
     <g id="line2d_93">
      <g>
       <use xlink:href="#ma49b6d56c7" x="394.363636" y="448.97816" style="stroke: #000000; stroke-width: 0.6"/>
      </g>
     </g>
    </g>
    <g id="ytick_46">
     <g id="line2d_94">
      <g>
       <use xlink:href="#ma49b6d56c7" x="394.363636" y="442.519634" style="stroke: #000000; stroke-width: 0.6"/>
      </g>
     </g>
    </g>
    <g id="ytick_47">
     <g id="line2d_95">
      <g>
       <use xlink:href="#ma49b6d56c7" x="394.363636" y="437.242635" style="stroke: #000000; stroke-width: 0.6"/>
      </g>
     </g>
    </g>
    <g id="ytick_48">
     <g id="line2d_96">
      <g>
       <use xlink:href="#ma49b6d56c7" x="394.363636" y="432.780995" style="stroke: #000000; stroke-width: 0.6"/>
      </g>
     </g>
    </g>
    <g id="ytick_49">
     <g id="line2d_97">
      <g>
       <use xlink:href="#ma49b6d56c7" x="394.363636" y="428.916147" style="stroke: #000000; stroke-width: 0.6"/>
      </g>
     </g>
    </g>
    <g id="ytick_50">
     <g id="line2d_98">
      <g>
       <use xlink:href="#ma49b6d56c7" x="394.363636" y="425.507109" style="stroke: #000000; stroke-width: 0.6"/>
      </g>
     </g>
    </g>
    <g id="ytick_51">
     <g id="line2d_99">
      <g>
       <use xlink:href="#ma49b6d56c7" x="394.363636" y="402.395609" style="stroke: #000000; stroke-width: 0.6"/>
      </g>
     </g>
    </g>
    <g id="ytick_52">
     <g id="line2d_100">
      <g>
       <use xlink:href="#ma49b6d56c7" x="394.363636" y="390.660083" style="stroke: #000000; stroke-width: 0.6"/>
      </g>
     </g>
    </g>
   </g>
   <g id="line2d_101">
    <g clip-path="url(#p459fb7df7f)">
     <use xlink:href="#ma7990cae98" x="411.178888" y="439.01259" style="fill: #ff0000; stroke: #ff0000"/>
     <use xlink:href="#ma7990cae98" x="411.611992" y="541.495067" style="fill: #ff0000; stroke: #ff0000"/>
     <use xlink:href="#ma7990cae98" x="412.045096" y="603.982901" style="fill: #ff0000; stroke: #ff0000"/>
     <use xlink:href="#ma7990cae98" x="412.478199" y="496.774344" style="fill: #ff0000; stroke: #ff0000"/>
     <use xlink:href="#ma7990cae98" x="413.344407" y="480.57058" style="fill: #ff0000; stroke: #ff0000"/>
     <use xlink:href="#ma7990cae98" x="624.265916" y="400.254545" style="fill: #ff0000; stroke: #ff0000"/>
     <use xlink:href="#ma7990cae98" x="624.69902" y="629.345455" style="fill: #ff0000; stroke: #ff0000"/>
     <use xlink:href="#ma7990cae98" x="625.132124" y="519.676835" style="fill: #ff0000; stroke: #ff0000"/>
     <use xlink:href="#ma7990cae98" x="625.565228" y="477.881226" style="fill: #ff0000; stroke: #ff0000"/>
     <use xlink:href="#ma7990cae98" x="626.431435" y="469.496322" style="fill: #ff0000; stroke: #ff0000"/>
    </g>
   </g>
   <g id="patch_21">
    <path d="M 394.363636 640.8 
L 394.363636 388.8 
" style="fill: none; stroke: #000000; stroke-width: 0.8; stroke-linejoin: miter; stroke-linecap: square"/>
   </g>
   <g id="patch_22">
    <path d="M 648 640.8 
L 648 388.8 
" style="fill: none; stroke: #000000; stroke-width: 0.8; stroke-linejoin: miter; stroke-linecap: square"/>
   </g>
   <g id="patch_23">
    <path d="M 394.363636 640.8 
L 648 640.8 
" style="fill: none; stroke: #000000; stroke-width: 0.8; stroke-linejoin: miter; stroke-linecap: square"/>
   </g>
   <g id="patch_24">
    <path d="M 394.363636 388.8 
L 648 388.8 
" style="fill: none; stroke: #000000; stroke-width: 0.8; stroke-linejoin: miter; stroke-linecap: square"/>
   </g>
   <g id="legend_4">
    <g id="patch_25">
     <path d="M 401.363636 411.478125 
L 550.132386 411.478125 
Q 552.132386 411.478125 552.132386 409.478125 
L 552.132386 395.8 
Q 552.132386 393.8 550.132386 393.8 
L 401.363636 393.8 
Q 399.363636 393.8 399.363636 395.8 
L 399.363636 409.478125 
Q 399.363636 411.478125 401.363636 411.478125 
z
" style="fill: #ffffff; opacity: 0.8; stroke: #cccccc; stroke-linejoin: miter"/>
    </g>
    <g id="line2d_102">
     <g>
      <use xlink:href="#ma7990cae98" x="413.363636" y="401.898438" style="fill: #ff0000; stroke: #ff0000"/>
     </g>
    </g>
    <g id="text_52">
     <!-- (weighted residuals)^2 -->
     <g transform="translate(431.363636 405.398438) scale(0.1 -0.1)">
      <use xlink:href="#DejaVuSans-28"/>
      <use xlink:href="#DejaVuSans-77" x="39.013672"/>
      <use xlink:href="#DejaVuSans-65" x="120.800781"/>
      <use xlink:href="#DejaVuSans-69" x="182.324219"/>
      <use xlink:href="#DejaVuSans-67" x="210.107422"/>
      <use xlink:href="#DejaVuSans-68" x="273.583984"/>
      <use xlink:href="#DejaVuSans-74" x="336.962891"/>
      <use xlink:href="#DejaVuSans-65" x="376.171875"/>
      <use xlink:href="#DejaVuSans-64" x="437.695312"/>
      <use xlink:href="#DejaVuSans-20" x="501.171875"/>
      <use xlink:href="#DejaVuSans-72" x="532.958984"/>
      <use xlink:href="#DejaVuSans-65" x="571.822266"/>
      <use xlink:href="#DejaVuSans-73" x="633.345703"/>
      <use xlink:href="#DejaVuSans-69" x="685.445312"/>
      <use xlink:href="#DejaVuSans-64" x="713.228516"/>
      <use xlink:href="#DejaVuSans-75" x="776.705078"/>
      <use xlink:href="#DejaVuSans-61" x="840.083984"/>
      <use xlink:href="#DejaVuSans-6c" x="901.363281"/>
      <use xlink:href="#DejaVuSans-73" x="929.146484"/>
      <use xlink:href="#DejaVuSans-29" x="981.246094"/>
      <use xlink:href="#DejaVuSans-5e" x="1020.259766"/>
      <use xlink:href="#DejaVuSans-32" x="1104.048828"/>
     </g>
    </g>
   </g>
  </g>
 </g>
 <defs>
  <clipPath id="p434dae5d82">
   <rect x="90" y="86.4" width="253.636364" height="252"/>
  </clipPath>
  <clipPath id="pcfc3a95854">
   <rect x="394.363636" y="86.4" width="253.636364" height="252"/>
  </clipPath>
  <clipPath id="p891a58e4df">
   <rect x="90" y="388.8" width="253.636364" height="252"/>
  </clipPath>
  <clipPath id="p459fb7df7f">
   <rect x="394.363636" y="388.8" width="253.636364" height="252"/>
  </clipPath>
 </defs>
</svg>
