<?xml version="1.0" encoding="utf-8" standalone="no"?>
<!DOCTYPE svg PUBLIC "-//W3C//DTD SVG 1.1//EN"
  "http://www.w3.org/Graphics/SVG/1.1/DTD/svg11.dtd">
<svg xmlns:xlink="http://www.w3.org/1999/xlink" width="720pt" height="720pt" viewBox="0 0 720 720" xmlns="http://www.w3.org/2000/svg" version="1.1">
 <metadata>
  <rdf:RDF xmlns:dc="http://purl.org/dc/elements/1.1/" xmlns:cc="http://creativecommons.org/ns#" xmlns:rdf="http://www.w3.org/1999/02/22-rdf-syntax-ns#">
   <cc:Work>
    <dc:type rdf:resource="http://purl.org/dc/dcmitype/StillImage"/>
    <dc:date>2025-07-08T18:39:40.401894</dc:date>
    <dc:format>image/svg+xml</dc:format>
    <dc:creator>
     <cc:Agent>
      <dc:title>Matplotlib v3.9.1, https://matplotlib.org/</dc:title>
     </cc:Agent>
    </dc:creator>
   </cc:Work>
  </rdf:RDF>
 </metadata>
 <defs>
  <style type="text/css">*{stroke-linejoin: round; stroke-linecap: butt}</style>
 </defs>
 <g id="figure_1">
  <g id="patch_1">
   <path d="M 0 720 
L 720 720 
L 720 0 
L 0 0 
z
" style="fill: #ffffff"/>
  </g>
  <g id="axes_1">
   <g id="patch_2">
    <path d="M 90 338.4 
L 343.636364 338.4 
L 343.636364 86.4 
L 90 86.4 
z
" style="fill: #ffffff"/>
   </g>
   <g id="PolyCollection_1">
    <defs>
     <path id="m6ee105b9f0" d="M 106.815252 -595.856759 
L 106.815252 -393.054545 
L 107.248355 -401.010852 
L 107.681459 -472.555809 
L 108.114563 -555.166526 
L 108.98077 -610.390721 
L 319.90228 -431.751288 
L 320.335384 -418.779106 
L 320.768487 -477.462758 
L 321.201591 -574.04777 
L 322.067799 -622.145455 
L 322.067799 -595.856759 
L 322.067799 -595.856759 
L 321.201591 -595.856759 
L 320.768487 -595.856759 
L 320.335384 -595.856759 
L 319.90228 -595.856759 
L 108.98077 -595.856759 
L 108.114563 -595.856759 
L 107.681459 -595.856759 
L 107.248355 -595.856759 
L 106.815252 -595.856759 
z
" style="stroke: #ff8c00; stroke-opacity: 0.4"/>
    </defs>
    <g clip-path="url(#pb9b71b14e8)">
     <use xlink:href="#m6ee105b9f0" x="0" y="720" style="fill: #ff8c00; fill-opacity: 0.4; stroke: #ff8c00; stroke-opacity: 0.4"/>
    </g>
   </g>
   <g id="matplotlib.axis_1">
    <g id="xtick_1">
     <g id="line2d_1">
      <defs>
       <path id="m6493817c17" d="M 0 0 
L 0 3.5 
" style="stroke: #000000; stroke-width: 0.8"/>
      </defs>
      <g>
       <use xlink:href="#m6493817c17" x="106.382148" y="338.4" style="stroke: #000000; stroke-width: 0.8"/>
      </g>
     </g>
    </g>
    <g id="xtick_2">
     <g id="line2d_2">
      <g>
       <use xlink:href="#m6493817c17" x="142.474124" y="338.4" style="stroke: #000000; stroke-width: 0.8"/>
      </g>
     </g>
    </g>
    <g id="xtick_3">
     <g id="line2d_3">
      <g>
       <use xlink:href="#m6493817c17" x="178.566101" y="338.4" style="stroke: #000000; stroke-width: 0.8"/>
      </g>
     </g>
    </g>
    <g id="xtick_4">
     <g id="line2d_4">
      <g>
       <use xlink:href="#m6493817c17" x="214.658077" y="338.4" style="stroke: #000000; stroke-width: 0.8"/>
      </g>
     </g>
    </g>
    <g id="xtick_5">
     <g id="line2d_5">
      <g>
       <use xlink:href="#m6493817c17" x="250.750053" y="338.4" style="stroke: #000000; stroke-width: 0.8"/>
      </g>
     </g>
    </g>
    <g id="xtick_6">
     <g id="line2d_6">
      <g>
       <use xlink:href="#m6493817c17" x="286.84203" y="338.4" style="stroke: #000000; stroke-width: 0.8"/>
      </g>
     </g>
    </g>
    <g id="xtick_7">
     <g id="line2d_7">
      <g>
       <use xlink:href="#m6493817c17" x="322.934006" y="338.4" style="stroke: #000000; stroke-width: 0.8"/>
      </g>
     </g>
    </g>
   </g>
   <g id="matplotlib.axis_2">
    <g id="ytick_1">
     <g id="line2d_8">
      <defs>
       <path id="m107a91ef62" d="M 0 0 
L -3.5 0 
" style="stroke: #000000; stroke-width: 0.8"/>
      </defs>
      <g>
       <use xlink:href="#m107a91ef62" x="90" y="328.948885" style="stroke: #000000; stroke-width: 0.8"/>
      </g>
     </g>
     <g id="text_1">
      <!-- −0.7 -->
      <g transform="translate(58.717187 332.748103) scale(0.1 -0.1)">
       <defs>
        <path id="DejaVuSans-2212" d="M 678 2272 
L 4684 2272 
L 4684 1741 
L 678 1741 
L 678 2272 
z
" transform="scale(0.015625)"/>
        <path id="DejaVuSans-30" d="M 2034 4250 
Q 1547 4250 1301 3770 
Q 1056 3291 1056 2328 
Q 1056 1369 1301 889 
Q 1547 409 2034 409 
Q 2525 409 2770 889 
Q 3016 1369 3016 2328 
Q 3016 3291 2770 3770 
Q 2525 4250 2034 4250 
z
M 2034 4750 
Q 2819 4750 3233 4129 
Q 3647 3509 3647 2328 
Q 3647 1150 3233 529 
Q 2819 -91 2034 -91 
Q 1250 -91 836 529 
Q 422 1150 422 2328 
Q 422 3509 836 4129 
Q 1250 4750 2034 4750 
z
" transform="scale(0.015625)"/>
        <path id="DejaVuSans-2e" d="M 684 794 
L 1344 794 
L 1344 0 
L 684 0 
L 684 794 
z
" transform="scale(0.015625)"/>
        <path id="DejaVuSans-37" d="M 525 4666 
L 3525 4666 
L 3525 4397 
L 1831 0 
L 1172 0 
L 2766 4134 
L 525 4134 
L 525 4666 
z
" transform="scale(0.015625)"/>
       </defs>
       <use xlink:href="#DejaVuSans-2212"/>
       <use xlink:href="#DejaVuSans-30" x="83.789062"/>
       <use xlink:href="#DejaVuSans-2e" x="147.412109"/>
       <use xlink:href="#DejaVuSans-37" x="179.199219"/>
      </g>
     </g>
    </g>
    <g id="ytick_2">
     <g id="line2d_9">
      <g>
       <use xlink:href="#m107a91ef62" x="90" y="299.690936" style="stroke: #000000; stroke-width: 0.8"/>
      </g>
     </g>
     <g id="text_2">
      <!-- −0.6 -->
      <g transform="translate(58.717187 303.490154) scale(0.1 -0.1)">
       <defs>
        <path id="DejaVuSans-36" d="M 2113 2584 
Q 1688 2584 1439 2293 
Q 1191 2003 1191 1497 
Q 1191 994 1439 701 
Q 1688 409 2113 409 
Q 2538 409 2786 701 
Q 3034 994 3034 1497 
Q 3034 2003 2786 2293 
Q 2538 2584 2113 2584 
z
M 3366 4563 
L 3366 3988 
Q 3128 4100 2886 4159 
Q 2644 4219 2406 4219 
Q 1781 4219 1451 3797 
Q 1122 3375 1075 2522 
Q 1259 2794 1537 2939 
Q 1816 3084 2150 3084 
Q 2853 3084 3261 2657 
Q 3669 2231 3669 1497 
Q 3669 778 3244 343 
Q 2819 -91 2113 -91 
Q 1303 -91 875 529 
Q 447 1150 447 2328 
Q 447 3434 972 4092 
Q 1497 4750 2381 4750 
Q 2619 4750 2861 4703 
Q 3103 4656 3366 4563 
z
" transform="scale(0.015625)"/>
       </defs>
       <use xlink:href="#DejaVuSans-2212"/>
       <use xlink:href="#DejaVuSans-30" x="83.789062"/>
       <use xlink:href="#DejaVuSans-2e" x="147.412109"/>
       <use xlink:href="#DejaVuSans-36" x="179.199219"/>
      </g>
     </g>
    </g>
    <g id="ytick_3">
     <g id="line2d_10">
      <g>
       <use xlink:href="#m107a91ef62" x="90" y="270.432986" style="stroke: #000000; stroke-width: 0.8"/>
      </g>
     </g>
     <g id="text_3">
      <!-- −0.5 -->
      <g transform="translate(58.717187 274.232205) scale(0.1 -0.1)">
       <defs>
        <path id="DejaVuSans-35" d="M 691 4666 
L 3169 4666 
L 3169 4134 
L 1269 4134 
L 1269 2991 
Q 1406 3038 1543 3061 
Q 1681 3084 1819 3084 
Q 2600 3084 3056 2656 
Q 3513 2228 3513 1497 
Q 3513 744 3044 326 
Q 2575 -91 1722 -91 
Q 1428 -91 1123 -41 
Q 819 9 494 109 
L 494 744 
Q 775 591 1075 516 
Q 1375 441 1709 441 
Q 2250 441 2565 725 
Q 2881 1009 2881 1497 
Q 2881 1984 2565 2268 
Q 2250 2553 1709 2553 
Q 1456 2553 1204 2497 
Q 953 2441 691 2322 
L 691 4666 
z
" transform="scale(0.015625)"/>
       </defs>
       <use xlink:href="#DejaVuSans-2212"/>
       <use xlink:href="#DejaVuSans-30" x="83.789062"/>
       <use xlink:href="#DejaVuSans-2e" x="147.412109"/>
       <use xlink:href="#DejaVuSans-35" x="179.199219"/>
      </g>
     </g>
    </g>
    <g id="ytick_4">
     <g id="line2d_11">
      <g>
       <use xlink:href="#m107a91ef62" x="90" y="241.175037" style="stroke: #000000; stroke-width: 0.8"/>
      </g>
     </g>
     <g id="text_4">
      <!-- −0.4 -->
      <g transform="translate(58.717187 244.974256) scale(0.1 -0.1)">
       <defs>
        <path id="DejaVuSans-34" d="M 2419 4116 
L 825 1625 
L 2419 1625 
L 2419 4116 
z
M 2253 4666 
L 3047 4666 
L 3047 1625 
L 3713 1625 
L 3713 1100 
L 3047 1100 
L 3047 0 
L 2419 0 
L 2419 1100 
L 313 1100 
L 313 1709 
L 2253 4666 
z
" transform="scale(0.015625)"/>
       </defs>
       <use xlink:href="#DejaVuSans-2212"/>
       <use xlink:href="#DejaVuSans-30" x="83.789062"/>
       <use xlink:href="#DejaVuSans-2e" x="147.412109"/>
       <use xlink:href="#DejaVuSans-34" x="179.199219"/>
      </g>
     </g>
    </g>
    <g id="ytick_5">
     <g id="line2d_12">
      <g>
       <use xlink:href="#m107a91ef62" x="90" y="211.917088" style="stroke: #000000; stroke-width: 0.8"/>
      </g>
     </g>
     <g id="text_5">
      <!-- −0.3 -->
      <g transform="translate(58.717187 215.716307) scale(0.1 -0.1)">
       <defs>
        <path id="DejaVuSans-33" d="M 2597 2516 
Q 3050 2419 3304 2112 
Q 3559 1806 3559 1356 
Q 3559 666 3084 287 
Q 2609 -91 1734 -91 
Q 1441 -91 1130 -33 
Q 819 25 488 141 
L 488 750 
Q 750 597 1062 519 
Q 1375 441 1716 441 
Q 2309 441 2620 675 
Q 2931 909 2931 1356 
Q 2931 1769 2642 2001 
Q 2353 2234 1838 2234 
L 1294 2234 
L 1294 2753 
L 1863 2753 
Q 2328 2753 2575 2939 
Q 2822 3125 2822 3475 
Q 2822 3834 2567 4026 
Q 2313 4219 1838 4219 
Q 1578 4219 1281 4162 
Q 984 4106 628 3988 
L 628 4550 
Q 988 4650 1302 4700 
Q 1616 4750 1894 4750 
Q 2613 4750 3031 4423 
Q 3450 4097 3450 3541 
Q 3450 3153 3228 2886 
Q 3006 2619 2597 2516 
z
" transform="scale(0.015625)"/>
       </defs>
       <use xlink:href="#DejaVuSans-2212"/>
       <use xlink:href="#DejaVuSans-30" x="83.789062"/>
       <use xlink:href="#DejaVuSans-2e" x="147.412109"/>
       <use xlink:href="#DejaVuSans-33" x="179.199219"/>
      </g>
     </g>
    </g>
    <g id="ytick_6">
     <g id="line2d_13">
      <g>
       <use xlink:href="#m107a91ef62" x="90" y="182.659139" style="stroke: #000000; stroke-width: 0.8"/>
      </g>
     </g>
     <g id="text_6">
      <!-- −0.2 -->
      <g transform="translate(58.717187 186.458358) scale(0.1 -0.1)">
       <defs>
        <path id="DejaVuSans-32" d="M 1228 531 
L 3431 531 
L 3431 0 
L 469 0 
L 469 531 
Q 828 903 1448 1529 
Q 2069 2156 2228 2338 
Q 2531 2678 2651 2914 
Q 2772 3150 2772 3378 
Q 2772 3750 2511 3984 
Q 2250 4219 1831 4219 
Q 1534 4219 1204 4116 
Q 875 4013 500 3803 
L 500 4441 
Q 881 4594 1212 4672 
Q 1544 4750 1819 4750 
Q 2544 4750 2975 4387 
Q 3406 4025 3406 3419 
Q 3406 3131 3298 2873 
Q 3191 2616 2906 2266 
Q 2828 2175 2409 1742 
Q 1991 1309 1228 531 
z
" transform="scale(0.015625)"/>
       </defs>
       <use xlink:href="#DejaVuSans-2212"/>
       <use xlink:href="#DejaVuSans-30" x="83.789062"/>
       <use xlink:href="#DejaVuSans-2e" x="147.412109"/>
       <use xlink:href="#DejaVuSans-32" x="179.199219"/>
      </g>
     </g>
    </g>
    <g id="ytick_7">
     <g id="line2d_14">
      <g>
       <use xlink:href="#m107a91ef62" x="90" y="153.40119" style="stroke: #000000; stroke-width: 0.8"/>
      </g>
     </g>
     <g id="text_7">
      <!-- −0.1 -->
      <g transform="translate(58.717187 157.200409) scale(0.1 -0.1)">
       <defs>
        <path id="DejaVuSans-31" d="M 794 531 
L 1825 531 
L 1825 4091 
L 703 3866 
L 703 4441 
L 1819 4666 
L 2450 4666 
L 2450 531 
L 3481 531 
L 3481 0 
L 794 0 
L 794 531 
z
" transform="scale(0.015625)"/>
       </defs>
       <use xlink:href="#DejaVuSans-2212"/>
       <use xlink:href="#DejaVuSans-30" x="83.789062"/>
       <use xlink:href="#DejaVuSans-2e" x="147.412109"/>
       <use xlink:href="#DejaVuSans-31" x="179.199219"/>
      </g>
     </g>
    </g>
    <g id="ytick_8">
     <g id="line2d_15">
      <g>
       <use xlink:href="#m107a91ef62" x="90" y="124.143241" style="stroke: #000000; stroke-width: 0.8"/>
      </g>
     </g>
     <g id="text_8">
      <!-- 0.0 -->
      <g transform="translate(67.096875 127.942459) scale(0.1 -0.1)">
       <use xlink:href="#DejaVuSans-30"/>
       <use xlink:href="#DejaVuSans-2e" x="63.623047"/>
       <use xlink:href="#DejaVuSans-30" x="95.410156"/>
      </g>
     </g>
    </g>
    <g id="ytick_9">
     <g id="line2d_16">
      <g>
       <use xlink:href="#m107a91ef62" x="90" y="94.885292" style="stroke: #000000; stroke-width: 0.8"/>
      </g>
     </g>
     <g id="text_9">
      <!-- 0.1 -->
      <g transform="translate(67.096875 98.68451) scale(0.1 -0.1)">
       <use xlink:href="#DejaVuSans-30"/>
       <use xlink:href="#DejaVuSans-2e" x="63.623047"/>
       <use xlink:href="#DejaVuSans-31" x="95.410156"/>
      </g>
     </g>
    </g>
    <g id="text_10">
     <!-- [Cve_los] -->
     <g transform="translate(51.887812 239.978437) rotate(-90) scale(0.12 -0.12)">
      <defs>
       <path id="DejaVuSans-5b" d="M 550 4863 
L 1875 4863 
L 1875 4416 
L 1125 4416 
L 1125 -397 
L 1875 -397 
L 1875 -844 
L 550 -844 
L 550 4863 
z
" transform="scale(0.015625)"/>
       <path id="DejaVuSans-43" d="M 4122 4306 
L 4122 3641 
Q 3803 3938 3442 4084 
Q 3081 4231 2675 4231 
Q 1875 4231 1450 3742 
Q 1025 3253 1025 2328 
Q 1025 1406 1450 917 
Q 1875 428 2675 428 
Q 3081 428 3442 575 
Q 3803 722 4122 1019 
L 4122 359 
Q 3791 134 3420 21 
Q 3050 -91 2638 -91 
Q 1578 -91 968 557 
Q 359 1206 359 2328 
Q 359 3453 968 4101 
Q 1578 4750 2638 4750 
Q 3056 4750 3426 4639 
Q 3797 4528 4122 4306 
z
" transform="scale(0.015625)"/>
       <path id="DejaVuSans-76" d="M 191 3500 
L 800 3500 
L 1894 563 
L 2988 3500 
L 3597 3500 
L 2284 0 
L 1503 0 
L 191 3500 
z
" transform="scale(0.015625)"/>
       <path id="DejaVuSans-65" d="M 3597 1894 
L 3597 1613 
L 953 1613 
Q 991 1019 1311 708 
Q 1631 397 2203 397 
Q 2534 397 2845 478 
Q 3156 559 3463 722 
L 3463 178 
Q 3153 47 2828 -22 
Q 2503 -91 2169 -91 
Q 1331 -91 842 396 
Q 353 884 353 1716 
Q 353 2575 817 3079 
Q 1281 3584 2069 3584 
Q 2775 3584 3186 3129 
Q 3597 2675 3597 1894 
z
M 3022 2063 
Q 3016 2534 2758 2815 
Q 2500 3097 2075 3097 
Q 1594 3097 1305 2825 
Q 1016 2553 972 2059 
L 3022 2063 
z
" transform="scale(0.015625)"/>
       <path id="DejaVuSans-5f" d="M 3263 -1063 
L 3263 -1509 
L -63 -1509 
L -63 -1063 
L 3263 -1063 
z
" transform="scale(0.015625)"/>
       <path id="DejaVuSans-6c" d="M 603 4863 
L 1178 4863 
L 1178 0 
L 603 0 
L 603 4863 
z
" transform="scale(0.015625)"/>
       <path id="DejaVuSans-6f" d="M 1959 3097 
Q 1497 3097 1228 2736 
Q 959 2375 959 1747 
Q 959 1119 1226 758 
Q 1494 397 1959 397 
Q 2419 397 2687 759 
Q 2956 1122 2956 1747 
Q 2956 2369 2687 2733 
Q 2419 3097 1959 3097 
z
M 1959 3584 
Q 2709 3584 3137 3096 
Q 3566 2609 3566 1747 
Q 3566 888 3137 398 
Q 2709 -91 1959 -91 
Q 1206 -91 779 398 
Q 353 888 353 1747 
Q 353 2609 779 3096 
Q 1206 3584 1959 3584 
z
" transform="scale(0.015625)"/>
       <path id="DejaVuSans-73" d="M 2834 3397 
L 2834 2853 
Q 2591 2978 2328 3040 
Q 2066 3103 1784 3103 
Q 1356 3103 1142 2972 
Q 928 2841 928 2578 
Q 928 2378 1081 2264 
Q 1234 2150 1697 2047 
L 1894 2003 
Q 2506 1872 2764 1633 
Q 3022 1394 3022 966 
Q 3022 478 2636 193 
Q 2250 -91 1575 -91 
Q 1294 -91 989 -36 
Q 684 19 347 128 
L 347 722 
Q 666 556 975 473 
Q 1284 391 1588 391 
Q 1994 391 2212 530 
Q 2431 669 2431 922 
Q 2431 1156 2273 1281 
Q 2116 1406 1581 1522 
L 1381 1569 
Q 847 1681 609 1914 
Q 372 2147 372 2553 
Q 372 3047 722 3315 
Q 1072 3584 1716 3584 
Q 2034 3584 2315 3537 
Q 2597 3491 2834 3397 
z
" transform="scale(0.015625)"/>
       <path id="DejaVuSans-5d" d="M 1947 4863 
L 1947 -844 
L 622 -844 
L 622 -397 
L 1369 -397 
L 1369 4416 
L 622 4416 
L 622 4863 
L 1947 4863 
z
" transform="scale(0.015625)"/>
      </defs>
      <use xlink:href="#DejaVuSans-5b"/>
      <use xlink:href="#DejaVuSans-43" x="39.013672"/>
      <use xlink:href="#DejaVuSans-76" x="108.837891"/>
      <use xlink:href="#DejaVuSans-65" x="168.017578"/>
      <use xlink:href="#DejaVuSans-5f" x="229.541016"/>
      <use xlink:href="#DejaVuSans-6c" x="279.541016"/>
      <use xlink:href="#DejaVuSans-6f" x="307.324219"/>
      <use xlink:href="#DejaVuSans-73" x="368.505859"/>
      <use xlink:href="#DejaVuSans-5d" x="420.605469"/>
     </g>
    </g>
   </g>
   <g id="line2d_17">
    <path d="M 90 124.143241 
L 343.636364 124.143241 
" clip-path="url(#pb9b71b14e8)" style="fill: none; stroke: #000000; stroke-width: 1.5; stroke-linecap: square"/>
   </g>
   <g id="line2d_18">
    <defs>
     <path id="m106fbaea61" d="M 0 3 
C 0.795609 3 1.55874 2.683901 2.12132 2.12132 
C 2.683901 1.55874 3 0.795609 3 0 
C 3 -0.795609 2.683901 -1.55874 2.12132 -2.12132 
C 1.55874 -2.683901 0.795609 -3 0 -3 
C -0.795609 -3 -1.55874 -2.683901 -2.12132 -2.12132 
C -2.683901 -1.55874 -3 -0.795609 -3 0 
C -3 0.795609 -2.683901 1.55874 -2.12132 2.12132 
C -1.55874 2.683901 -0.795609 3 0 3 
z
" style="stroke: #ff8c00"/>
    </defs>
    <g clip-path="url(#pb9b71b14e8)">
     <use xlink:href="#m106fbaea61" x="106.815252" y="326.945455" style="fill: #ff8c00; stroke: #ff8c00"/>
     <use xlink:href="#m106fbaea61" x="107.248355" y="318.989148" style="fill: #ff8c00; stroke: #ff8c00"/>
     <use xlink:href="#m106fbaea61" x="107.681459" y="247.444191" style="fill: #ff8c00; stroke: #ff8c00"/>
     <use xlink:href="#m106fbaea61" x="108.114563" y="164.833474" style="fill: #ff8c00; stroke: #ff8c00"/>
     <use xlink:href="#m106fbaea61" x="108.98077" y="109.609279" style="fill: #ff8c00; stroke: #ff8c00"/>
     <use xlink:href="#m106fbaea61" x="319.90228" y="288.248712" style="fill: #ff8c00; stroke: #ff8c00"/>
     <use xlink:href="#m106fbaea61" x="320.335384" y="301.220894" style="fill: #ff8c00; stroke: #ff8c00"/>
     <use xlink:href="#m106fbaea61" x="320.768487" y="242.537242" style="fill: #ff8c00; stroke: #ff8c00"/>
     <use xlink:href="#m106fbaea61" x="321.201591" y="145.95223" style="fill: #ff8c00; stroke: #ff8c00"/>
     <use xlink:href="#m106fbaea61" x="322.067799" y="97.854545" style="fill: #ff8c00; stroke: #ff8c00"/>
    </g>
   </g>
   <g id="line2d_19">
    <path d="M 101.184903 124.143241 
L 324.882973 124.141682 
L 324.882973 124.141682 
" clip-path="url(#pb9b71b14e8)" style="fill: none; stroke: #0000ff; stroke-width: 1.5; stroke-linecap: square"/>
   </g>
   <g id="line2d_20">
    <defs>
     <path id="m79dac9ebf2" d="M 0 3 
C 0.795609 3 1.55874 2.683901 2.12132 2.12132 
C 2.683901 1.55874 3 0.795609 3 0 
C 3 -0.795609 2.683901 -1.55874 2.12132 -2.12132 
C 1.55874 -2.683901 0.795609 -3 0 -3 
C -0.795609 -3 -1.55874 -2.683901 -2.12132 -2.12132 
C -2.683901 -1.55874 -3 -0.795609 -3 0 
C -3 0.795609 -2.683901 1.55874 -2.12132 2.12132 
C -1.55874 2.683901 -0.795609 3 0 3 
z
" style="stroke: #0000ff"/>
    </defs>
    <g clip-path="url(#pb9b71b14e8)">
     <use xlink:href="#m79dac9ebf2" x="106.815252" y="124.113575" style="fill: #0000ff; stroke: #0000ff"/>
     <use xlink:href="#m79dac9ebf2" x="107.248355" y="124.136076" style="fill: #0000ff; stroke: #0000ff"/>
     <use xlink:href="#m79dac9ebf2" x="107.681459" y="124.138962" style="fill: #0000ff; stroke: #0000ff"/>
     <use xlink:href="#m79dac9ebf2" x="108.114563" y="124.139641" style="fill: #0000ff; stroke: #0000ff"/>
     <use xlink:href="#m79dac9ebf2" x="108.98077" y="124.140456" style="fill: #0000ff; stroke: #0000ff"/>
     <use xlink:href="#m79dac9ebf2" x="319.90228" y="124.112118" style="fill: #0000ff; stroke: #0000ff"/>
     <use xlink:href="#m79dac9ebf2" x="320.335384" y="124.13482" style="fill: #0000ff; stroke: #0000ff"/>
     <use xlink:href="#m79dac9ebf2" x="320.768487" y="124.13786" style="fill: #0000ff; stroke: #0000ff"/>
     <use xlink:href="#m79dac9ebf2" x="321.201591" y="124.138669" style="fill: #0000ff; stroke: #0000ff"/>
     <use xlink:href="#m79dac9ebf2" x="322.067799" y="124.139702" style="fill: #0000ff; stroke: #0000ff"/>
    </g>
   </g>
   <g id="line2d_21">
    <defs>
     <path id="mf575cd4a79" d="M -3 3 
L 3 3 
L 3 -3 
L -3 -3 
z
" style="stroke: #000000; stroke-linejoin: miter"/>
    </defs>
    <g clip-path="url(#pb9b71b14e8)">
     <use xlink:href="#mf575cd4a79" x="106.815252" y="124.102976" style="stroke: #000000; stroke-linejoin: miter"/>
     <use xlink:href="#mf575cd4a79" x="107.248355" y="124.125893" style="stroke: #000000; stroke-linejoin: miter"/>
     <use xlink:href="#mf575cd4a79" x="107.681459" y="124.132518" style="stroke: #000000; stroke-linejoin: miter"/>
     <use xlink:href="#mf575cd4a79" x="108.114563" y="124.137514" style="stroke: #000000; stroke-linejoin: miter"/>
     <use xlink:href="#mf575cd4a79" x="108.98077" y="124.141216" style="stroke: #000000; stroke-linejoin: miter"/>
     <use xlink:href="#mf575cd4a79" x="319.90228" y="124.103541" style="stroke: #000000; stroke-linejoin: miter"/>
     <use xlink:href="#mf575cd4a79" x="320.335384" y="124.125566" style="stroke: #000000; stroke-linejoin: miter"/>
     <use xlink:href="#mf575cd4a79" x="320.768487" y="124.131672" style="stroke: #000000; stroke-linejoin: miter"/>
     <use xlink:href="#mf575cd4a79" x="321.201591" y="124.137529" style="stroke: #000000; stroke-linejoin: miter"/>
     <use xlink:href="#mf575cd4a79" x="322.067799" y="124.141075" style="stroke: #000000; stroke-linejoin: miter"/>
    </g>
   </g>
   <g id="patch_3">
    <path d="M 90 338.4 
L 90 86.4 
" style="fill: none; stroke: #000000; stroke-width: 0.8; stroke-linejoin: miter; stroke-linecap: square"/>
   </g>
   <g id="patch_4">
    <path d="M 343.636364 338.4 
L 343.636364 86.4 
" style="fill: none; stroke: #000000; stroke-width: 0.8; stroke-linejoin: miter; stroke-linecap: square"/>
   </g>
   <g id="patch_5">
    <path d="M 90 338.4 
L 343.636364 338.4 
" style="fill: none; stroke: #000000; stroke-width: 0.8; stroke-linejoin: miter; stroke-linecap: square"/>
   </g>
   <g id="patch_6">
    <path d="M 90 86.4 
L 343.636364 86.4 
" style="fill: none; stroke: #000000; stroke-width: 0.8; stroke-linejoin: miter; stroke-linecap: square"/>
   </g>
   <g id="text_11">
    <!-- Goldberg1995a.fm_po_LOS25_losartan -->
    <g transform="translate(80.913182 80.4) scale(0.14 -0.14)">
     <defs>
      <path id="DejaVuSans-47" d="M 3809 666 
L 3809 1919 
L 2778 1919 
L 2778 2438 
L 4434 2438 
L 4434 434 
Q 4069 175 3628 42 
Q 3188 -91 2688 -91 
Q 1594 -91 976 548 
Q 359 1188 359 2328 
Q 359 3472 976 4111 
Q 1594 4750 2688 4750 
Q 3144 4750 3555 4637 
Q 3966 4525 4313 4306 
L 4313 3634 
Q 3963 3931 3569 4081 
Q 3175 4231 2741 4231 
Q 1884 4231 1454 3753 
Q 1025 3275 1025 2328 
Q 1025 1384 1454 906 
Q 1884 428 2741 428 
Q 3075 428 3337 486 
Q 3600 544 3809 666 
z
" transform="scale(0.015625)"/>
      <path id="DejaVuSans-64" d="M 2906 2969 
L 2906 4863 
L 3481 4863 
L 3481 0 
L 2906 0 
L 2906 525 
Q 2725 213 2448 61 
Q 2172 -91 1784 -91 
Q 1150 -91 751 415 
Q 353 922 353 1747 
Q 353 2572 751 3078 
Q 1150 3584 1784 3584 
Q 2172 3584 2448 3432 
Q 2725 3281 2906 2969 
z
M 947 1747 
Q 947 1113 1208 752 
Q 1469 391 1925 391 
Q 2381 391 2643 752 
Q 2906 1113 2906 1747 
Q 2906 2381 2643 2742 
Q 2381 3103 1925 3103 
Q 1469 3103 1208 2742 
Q 947 2381 947 1747 
z
" transform="scale(0.015625)"/>
      <path id="DejaVuSans-62" d="M 3116 1747 
Q 3116 2381 2855 2742 
Q 2594 3103 2138 3103 
Q 1681 3103 1420 2742 
Q 1159 2381 1159 1747 
Q 1159 1113 1420 752 
Q 1681 391 2138 391 
Q 2594 391 2855 752 
Q 3116 1113 3116 1747 
z
M 1159 2969 
Q 1341 3281 1617 3432 
Q 1894 3584 2278 3584 
Q 2916 3584 3314 3078 
Q 3713 2572 3713 1747 
Q 3713 922 3314 415 
Q 2916 -91 2278 -91 
Q 1894 -91 1617 61 
Q 1341 213 1159 525 
L 1159 0 
L 581 0 
L 581 4863 
L 1159 4863 
L 1159 2969 
z
" transform="scale(0.015625)"/>
      <path id="DejaVuSans-72" d="M 2631 2963 
Q 2534 3019 2420 3045 
Q 2306 3072 2169 3072 
Q 1681 3072 1420 2755 
Q 1159 2438 1159 1844 
L 1159 0 
L 581 0 
L 581 3500 
L 1159 3500 
L 1159 2956 
Q 1341 3275 1631 3429 
Q 1922 3584 2338 3584 
Q 2397 3584 2469 3576 
Q 2541 3569 2628 3553 
L 2631 2963 
z
" transform="scale(0.015625)"/>
      <path id="DejaVuSans-67" d="M 2906 1791 
Q 2906 2416 2648 2759 
Q 2391 3103 1925 3103 
Q 1463 3103 1205 2759 
Q 947 2416 947 1791 
Q 947 1169 1205 825 
Q 1463 481 1925 481 
Q 2391 481 2648 825 
Q 2906 1169 2906 1791 
z
M 3481 434 
Q 3481 -459 3084 -895 
Q 2688 -1331 1869 -1331 
Q 1566 -1331 1297 -1286 
Q 1028 -1241 775 -1147 
L 775 -588 
Q 1028 -725 1275 -790 
Q 1522 -856 1778 -856 
Q 2344 -856 2625 -561 
Q 2906 -266 2906 331 
L 2906 616 
Q 2728 306 2450 153 
Q 2172 0 1784 0 
Q 1141 0 747 490 
Q 353 981 353 1791 
Q 353 2603 747 3093 
Q 1141 3584 1784 3584 
Q 2172 3584 2450 3431 
Q 2728 3278 2906 2969 
L 2906 3500 
L 3481 3500 
L 3481 434 
z
" transform="scale(0.015625)"/>
      <path id="DejaVuSans-39" d="M 703 97 
L 703 672 
Q 941 559 1184 500 
Q 1428 441 1663 441 
Q 2288 441 2617 861 
Q 2947 1281 2994 2138 
Q 2813 1869 2534 1725 
Q 2256 1581 1919 1581 
Q 1219 1581 811 2004 
Q 403 2428 403 3163 
Q 403 3881 828 4315 
Q 1253 4750 1959 4750 
Q 2769 4750 3195 4129 
Q 3622 3509 3622 2328 
Q 3622 1225 3098 567 
Q 2575 -91 1691 -91 
Q 1453 -91 1209 -44 
Q 966 3 703 97 
z
M 1959 2075 
Q 2384 2075 2632 2365 
Q 2881 2656 2881 3163 
Q 2881 3666 2632 3958 
Q 2384 4250 1959 4250 
Q 1534 4250 1286 3958 
Q 1038 3666 1038 3163 
Q 1038 2656 1286 2365 
Q 1534 2075 1959 2075 
z
" transform="scale(0.015625)"/>
      <path id="DejaVuSans-61" d="M 2194 1759 
Q 1497 1759 1228 1600 
Q 959 1441 959 1056 
Q 959 750 1161 570 
Q 1363 391 1709 391 
Q 2188 391 2477 730 
Q 2766 1069 2766 1631 
L 2766 1759 
L 2194 1759 
z
M 3341 1997 
L 3341 0 
L 2766 0 
L 2766 531 
Q 2569 213 2275 61 
Q 1981 -91 1556 -91 
Q 1019 -91 701 211 
Q 384 513 384 1019 
Q 384 1609 779 1909 
Q 1175 2209 1959 2209 
L 2766 2209 
L 2766 2266 
Q 2766 2663 2505 2880 
Q 2244 3097 1772 3097 
Q 1472 3097 1187 3025 
Q 903 2953 641 2809 
L 641 3341 
Q 956 3463 1253 3523 
Q 1550 3584 1831 3584 
Q 2591 3584 2966 3190 
Q 3341 2797 3341 1997 
z
" transform="scale(0.015625)"/>
      <path id="DejaVuSans-66" d="M 2375 4863 
L 2375 4384 
L 1825 4384 
Q 1516 4384 1395 4259 
Q 1275 4134 1275 3809 
L 1275 3500 
L 2222 3500 
L 2222 3053 
L 1275 3053 
L 1275 0 
L 697 0 
L 697 3053 
L 147 3053 
L 147 3500 
L 697 3500 
L 697 3744 
Q 697 4328 969 4595 
Q 1241 4863 1831 4863 
L 2375 4863 
z
" transform="scale(0.015625)"/>
      <path id="DejaVuSans-6d" d="M 3328 2828 
Q 3544 3216 3844 3400 
Q 4144 3584 4550 3584 
Q 5097 3584 5394 3201 
Q 5691 2819 5691 2113 
L 5691 0 
L 5113 0 
L 5113 2094 
Q 5113 2597 4934 2840 
Q 4756 3084 4391 3084 
Q 3944 3084 3684 2787 
Q 3425 2491 3425 1978 
L 3425 0 
L 2847 0 
L 2847 2094 
Q 2847 2600 2669 2842 
Q 2491 3084 2119 3084 
Q 1678 3084 1418 2786 
Q 1159 2488 1159 1978 
L 1159 0 
L 581 0 
L 581 3500 
L 1159 3500 
L 1159 2956 
Q 1356 3278 1631 3431 
Q 1906 3584 2284 3584 
Q 2666 3584 2933 3390 
Q 3200 3197 3328 2828 
z
" transform="scale(0.015625)"/>
      <path id="DejaVuSans-70" d="M 1159 525 
L 1159 -1331 
L 581 -1331 
L 581 3500 
L 1159 3500 
L 1159 2969 
Q 1341 3281 1617 3432 
Q 1894 3584 2278 3584 
Q 2916 3584 3314 3078 
Q 3713 2572 3713 1747 
Q 3713 922 3314 415 
Q 2916 -91 2278 -91 
Q 1894 -91 1617 61 
Q 1341 213 1159 525 
z
M 3116 1747 
Q 3116 2381 2855 2742 
Q 2594 3103 2138 3103 
Q 1681 3103 1420 2742 
Q 1159 2381 1159 1747 
Q 1159 1113 1420 752 
Q 1681 391 2138 391 
Q 2594 391 2855 752 
Q 3116 1113 3116 1747 
z
" transform="scale(0.015625)"/>
      <path id="DejaVuSans-4c" d="M 628 4666 
L 1259 4666 
L 1259 531 
L 3531 531 
L 3531 0 
L 628 0 
L 628 4666 
z
" transform="scale(0.015625)"/>
      <path id="DejaVuSans-4f" d="M 2522 4238 
Q 1834 4238 1429 3725 
Q 1025 3213 1025 2328 
Q 1025 1447 1429 934 
Q 1834 422 2522 422 
Q 3209 422 3611 934 
Q 4013 1447 4013 2328 
Q 4013 3213 3611 3725 
Q 3209 4238 2522 4238 
z
M 2522 4750 
Q 3503 4750 4090 4092 
Q 4678 3434 4678 2328 
Q 4678 1225 4090 567 
Q 3503 -91 2522 -91 
Q 1538 -91 948 565 
Q 359 1222 359 2328 
Q 359 3434 948 4092 
Q 1538 4750 2522 4750 
z
" transform="scale(0.015625)"/>
      <path id="DejaVuSans-53" d="M 3425 4513 
L 3425 3897 
Q 3066 4069 2747 4153 
Q 2428 4238 2131 4238 
Q 1616 4238 1336 4038 
Q 1056 3838 1056 3469 
Q 1056 3159 1242 3001 
Q 1428 2844 1947 2747 
L 2328 2669 
Q 3034 2534 3370 2195 
Q 3706 1856 3706 1288 
Q 3706 609 3251 259 
Q 2797 -91 1919 -91 
Q 1588 -91 1214 -16 
Q 841 59 441 206 
L 441 856 
Q 825 641 1194 531 
Q 1563 422 1919 422 
Q 2459 422 2753 634 
Q 3047 847 3047 1241 
Q 3047 1584 2836 1778 
Q 2625 1972 2144 2069 
L 1759 2144 
Q 1053 2284 737 2584 
Q 422 2884 422 3419 
Q 422 4038 858 4394 
Q 1294 4750 2059 4750 
Q 2388 4750 2728 4690 
Q 3069 4631 3425 4513 
z
" transform="scale(0.015625)"/>
      <path id="DejaVuSans-74" d="M 1172 4494 
L 1172 3500 
L 2356 3500 
L 2356 3053 
L 1172 3053 
L 1172 1153 
Q 1172 725 1289 603 
Q 1406 481 1766 481 
L 2356 481 
L 2356 0 
L 1766 0 
Q 1100 0 847 248 
Q 594 497 594 1153 
L 594 3053 
L 172 3053 
L 172 3500 
L 594 3500 
L 594 4494 
L 1172 4494 
z
" transform="scale(0.015625)"/>
      <path id="DejaVuSans-6e" d="M 3513 2113 
L 3513 0 
L 2938 0 
L 2938 2094 
Q 2938 2591 2744 2837 
Q 2550 3084 2163 3084 
Q 1697 3084 1428 2787 
Q 1159 2491 1159 1978 
L 1159 0 
L 581 0 
L 581 3500 
L 1159 3500 
L 1159 2956 
Q 1366 3272 1645 3428 
Q 1925 3584 2291 3584 
Q 2894 3584 3203 3211 
Q 3513 2838 3513 2113 
z
" transform="scale(0.015625)"/>
     </defs>
     <use xlink:href="#DejaVuSans-47"/>
     <use xlink:href="#DejaVuSans-6f" x="77.490234"/>
     <use xlink:href="#DejaVuSans-6c" x="138.671875"/>
     <use xlink:href="#DejaVuSans-64" x="166.455078"/>
     <use xlink:href="#DejaVuSans-62" x="229.931641"/>
     <use xlink:href="#DejaVuSans-65" x="293.408203"/>
     <use xlink:href="#DejaVuSans-72" x="354.931641"/>
     <use xlink:href="#DejaVuSans-67" x="394.294922"/>
     <use xlink:href="#DejaVuSans-31" x="457.771484"/>
     <use xlink:href="#DejaVuSans-39" x="521.394531"/>
     <use xlink:href="#DejaVuSans-39" x="585.017578"/>
     <use xlink:href="#DejaVuSans-35" x="648.640625"/>
     <use xlink:href="#DejaVuSans-61" x="712.263672"/>
     <use xlink:href="#DejaVuSans-2e" x="773.542969"/>
     <use xlink:href="#DejaVuSans-66" x="805.330078"/>
     <use xlink:href="#DejaVuSans-6d" x="840.535156"/>
     <use xlink:href="#DejaVuSans-5f" x="937.947266"/>
     <use xlink:href="#DejaVuSans-70" x="987.947266"/>
     <use xlink:href="#DejaVuSans-6f" x="1051.423828"/>
     <use xlink:href="#DejaVuSans-5f" x="1112.605469"/>
     <use xlink:href="#DejaVuSans-4c" x="1162.605469"/>
     <use xlink:href="#DejaVuSans-4f" x="1214.693359"/>
     <use xlink:href="#DejaVuSans-53" x="1293.404297"/>
     <use xlink:href="#DejaVuSans-32" x="1356.880859"/>
     <use xlink:href="#DejaVuSans-35" x="1420.503906"/>
     <use xlink:href="#DejaVuSans-5f" x="1484.126953"/>
     <use xlink:href="#DejaVuSans-6c" x="1534.126953"/>
     <use xlink:href="#DejaVuSans-6f" x="1561.910156"/>
     <use xlink:href="#DejaVuSans-73" x="1623.091797"/>
     <use xlink:href="#DejaVuSans-61" x="1675.191406"/>
     <use xlink:href="#DejaVuSans-72" x="1736.470703"/>
     <use xlink:href="#DejaVuSans-74" x="1777.583984"/>
     <use xlink:href="#DejaVuSans-61" x="1816.792969"/>
     <use xlink:href="#DejaVuSans-6e" x="1878.072266"/>
    </g>
   </g>
   <g id="legend_1">
    <g id="patch_7">
     <path d="M 163.185369 333.4 
L 270.450994 333.4 
Q 272.450994 333.4 272.450994 331.4 
L 272.450994 273.409375 
Q 272.450994 271.409375 270.450994 271.409375 
L 163.185369 271.409375 
Q 161.185369 271.409375 161.185369 273.409375 
L 161.185369 331.4 
Q 161.185369 333.4 163.185369 333.4 
z
" style="fill: #ffffff; opacity: 0.8; stroke: #cccccc; stroke-linejoin: miter"/>
    </g>
    <g id="line2d_22">
     <g>
      <use xlink:href="#m106fbaea61" x="175.185369" y="279.507812" style="fill: #ff8c00; stroke: #ff8c00"/>
     </g>
    </g>
    <g id="text_12">
     <!-- residuals -->
     <g transform="translate(193.185369 283.007812) scale(0.1 -0.1)">
      <defs>
       <path id="DejaVuSans-69" d="M 603 3500 
L 1178 3500 
L 1178 0 
L 603 0 
L 603 3500 
z
M 603 4863 
L 1178 4863 
L 1178 4134 
L 603 4134 
L 603 4863 
z
" transform="scale(0.015625)"/>
       <path id="DejaVuSans-75" d="M 544 1381 
L 544 3500 
L 1119 3500 
L 1119 1403 
Q 1119 906 1312 657 
Q 1506 409 1894 409 
Q 2359 409 2629 706 
Q 2900 1003 2900 1516 
L 2900 3500 
L 3475 3500 
L 3475 0 
L 2900 0 
L 2900 538 
Q 2691 219 2414 64 
Q 2138 -91 1772 -91 
Q 1169 -91 856 284 
Q 544 659 544 1381 
z
M 1991 3584 
L 1991 3584 
z
" transform="scale(0.015625)"/>
      </defs>
      <use xlink:href="#DejaVuSans-72"/>
      <use xlink:href="#DejaVuSans-65" x="38.863281"/>
      <use xlink:href="#DejaVuSans-73" x="100.386719"/>
      <use xlink:href="#DejaVuSans-69" x="152.486328"/>
      <use xlink:href="#DejaVuSans-64" x="180.269531"/>
      <use xlink:href="#DejaVuSans-75" x="243.746094"/>
      <use xlink:href="#DejaVuSans-61" x="307.125"/>
      <use xlink:href="#DejaVuSans-6c" x="368.404297"/>
      <use xlink:href="#DejaVuSans-73" x="396.1875"/>
     </g>
    </g>
    <g id="line2d_23">
     <path d="M 165.185369 294.185938 
L 175.185369 294.185938 
L 185.185369 294.185938 
" style="fill: none; stroke: #0000ff; stroke-width: 1.5; stroke-linecap: square"/>
    </g>
    <g id="text_13">
     <!-- observable -->
     <g transform="translate(193.185369 297.685938) scale(0.1 -0.1)">
      <use xlink:href="#DejaVuSans-6f"/>
      <use xlink:href="#DejaVuSans-62" x="61.181641"/>
      <use xlink:href="#DejaVuSans-73" x="124.658203"/>
      <use xlink:href="#DejaVuSans-65" x="176.757812"/>
      <use xlink:href="#DejaVuSans-72" x="238.28125"/>
      <use xlink:href="#DejaVuSans-76" x="279.394531"/>
      <use xlink:href="#DejaVuSans-61" x="338.574219"/>
      <use xlink:href="#DejaVuSans-62" x="399.853516"/>
      <use xlink:href="#DejaVuSans-6c" x="463.330078"/>
      <use xlink:href="#DejaVuSans-65" x="491.113281"/>
     </g>
    </g>
    <g id="line2d_24">
     <g>
      <use xlink:href="#m79dac9ebf2" x="175.185369" y="308.864062" style="fill: #0000ff; stroke: #0000ff"/>
     </g>
    </g>
    <g id="text_14">
     <!-- interpolation -->
     <g transform="translate(193.185369 312.364062) scale(0.1 -0.1)">
      <use xlink:href="#DejaVuSans-69"/>
      <use xlink:href="#DejaVuSans-6e" x="27.783203"/>
      <use xlink:href="#DejaVuSans-74" x="91.162109"/>
      <use xlink:href="#DejaVuSans-65" x="130.371094"/>
      <use xlink:href="#DejaVuSans-72" x="191.894531"/>
      <use xlink:href="#DejaVuSans-70" x="233.007812"/>
      <use xlink:href="#DejaVuSans-6f" x="296.484375"/>
      <use xlink:href="#DejaVuSans-6c" x="357.666016"/>
      <use xlink:href="#DejaVuSans-61" x="385.449219"/>
      <use xlink:href="#DejaVuSans-74" x="446.728516"/>
      <use xlink:href="#DejaVuSans-69" x="485.9375"/>
      <use xlink:href="#DejaVuSans-6f" x="513.720703"/>
      <use xlink:href="#DejaVuSans-6e" x="574.902344"/>
     </g>
    </g>
    <g id="line2d_25">
     <g>
      <use xlink:href="#mf575cd4a79" x="175.185369" y="323.542188" style="stroke: #000000; stroke-linejoin: miter"/>
     </g>
    </g>
    <g id="text_15">
     <!-- reference_data -->
     <g transform="translate(193.185369 327.042188) scale(0.1 -0.1)">
      <defs>
       <path id="DejaVuSans-63" d="M 3122 3366 
L 3122 2828 
Q 2878 2963 2633 3030 
Q 2388 3097 2138 3097 
Q 1578 3097 1268 2742 
Q 959 2388 959 1747 
Q 959 1106 1268 751 
Q 1578 397 2138 397 
Q 2388 397 2633 464 
Q 2878 531 3122 666 
L 3122 134 
Q 2881 22 2623 -34 
Q 2366 -91 2075 -91 
Q 1284 -91 818 406 
Q 353 903 353 1747 
Q 353 2603 823 3093 
Q 1294 3584 2113 3584 
Q 2378 3584 2631 3529 
Q 2884 3475 3122 3366 
z
" transform="scale(0.015625)"/>
      </defs>
      <use xlink:href="#DejaVuSans-72"/>
      <use xlink:href="#DejaVuSans-65" x="38.863281"/>
      <use xlink:href="#DejaVuSans-66" x="100.386719"/>
      <use xlink:href="#DejaVuSans-65" x="135.591797"/>
      <use xlink:href="#DejaVuSans-72" x="197.115234"/>
      <use xlink:href="#DejaVuSans-65" x="235.978516"/>
      <use xlink:href="#DejaVuSans-6e" x="297.501953"/>
      <use xlink:href="#DejaVuSans-63" x="360.880859"/>
      <use xlink:href="#DejaVuSans-65" x="415.861328"/>
      <use xlink:href="#DejaVuSans-5f" x="477.384766"/>
      <use xlink:href="#DejaVuSans-64" x="527.384766"/>
      <use xlink:href="#DejaVuSans-61" x="590.861328"/>
      <use xlink:href="#DejaVuSans-74" x="652.140625"/>
      <use xlink:href="#DejaVuSans-61" x="691.349609"/>
     </g>
    </g>
   </g>
  </g>
  <g id="axes_2">
   <g id="patch_8">
    <path d="M 394.363636 338.4 
L 648 338.4 
L 648 86.4 
L 394.363636 86.4 
z
" style="fill: #ffffff"/>
   </g>
   <g id="PolyCollection_2">
    <path d="M 411.178888 4919.924424 
L 411.178888 4919.924424 
L 411.611992 4919.924424 
L 412.045096 4919.924424 
L 412.478199 4919.924424 
L 413.344407 99.096974 
L 624.265916 4919.924424 
L 624.69902 4919.924424 
L 625.132124 4919.924424 
L 625.565228 4919.924424 
L 626.431435 97.854545 
L 626.431435 4919.924424 
L 626.431435 4919.924424 
L 625.565228 4919.924424 
L 625.132124 4919.924424 
L 624.69902 4919.924424 
L 624.265916 4919.924424 
L 413.344407 4919.924424 
L 412.478199 4919.924424 
L 412.045096 4919.924424 
L 411.611992 4919.924424 
L 411.178888 4919.924424 
z
" clip-path="url(#pd51737795a)" style="fill: #ff8c00; fill-opacity: 0.4; stroke: #ff8c00; stroke-opacity: 0.4"/>
   </g>
   <g id="matplotlib.axis_3">
    <g id="xtick_8">
     <g id="line2d_26">
      <g>
       <use xlink:href="#m6493817c17" x="410.745784" y="338.4" style="stroke: #000000; stroke-width: 0.8"/>
      </g>
     </g>
    </g>
    <g id="xtick_9">
     <g id="line2d_27">
      <g>
       <use xlink:href="#m6493817c17" x="446.837761" y="338.4" style="stroke: #000000; stroke-width: 0.8"/>
      </g>
     </g>
    </g>
    <g id="xtick_10">
     <g id="line2d_28">
      <g>
       <use xlink:href="#m6493817c17" x="482.929737" y="338.4" style="stroke: #000000; stroke-width: 0.8"/>
      </g>
     </g>
    </g>
    <g id="xtick_11">
     <g id="line2d_29">
      <g>
       <use xlink:href="#m6493817c17" x="519.021713" y="338.4" style="stroke: #000000; stroke-width: 0.8"/>
      </g>
     </g>
    </g>
    <g id="xtick_12">
     <g id="line2d_30">
      <g>
       <use xlink:href="#m6493817c17" x="555.11369" y="338.4" style="stroke: #000000; stroke-width: 0.8"/>
      </g>
     </g>
    </g>
    <g id="xtick_13">
     <g id="line2d_31">
      <g>
       <use xlink:href="#m6493817c17" x="591.205666" y="338.4" style="stroke: #000000; stroke-width: 0.8"/>
      </g>
     </g>
    </g>
    <g id="xtick_14">
     <g id="line2d_32">
      <g>
       <use xlink:href="#m6493817c17" x="627.297642" y="338.4" style="stroke: #000000; stroke-width: 0.8"/>
      </g>
     </g>
    </g>
   </g>
   <g id="matplotlib.axis_4">
    <g id="ytick_10">
     <g id="line2d_33">
      <g>
       <use xlink:href="#m107a91ef62" x="394.363636" y="310.023545" style="stroke: #000000; stroke-width: 0.8"/>
      </g>
     </g>
     <g id="text_16">
      <!-- $\mathdefault{10^{-45}}$ -->
      <g transform="translate(359.463636 313.822763) scale(0.1 -0.1)">
       <use xlink:href="#DejaVuSans-31" transform="translate(0 0.684375)"/>
       <use xlink:href="#DejaVuSans-30" transform="translate(63.623047 0.684375)"/>
       <use xlink:href="#DejaVuSans-2212" transform="translate(128.203125 38.965625) scale(0.7)"/>
       <use xlink:href="#DejaVuSans-34" transform="translate(186.855469 38.965625) scale(0.7)"/>
       <use xlink:href="#DejaVuSans-35" transform="translate(231.391602 38.965625) scale(0.7)"/>
      </g>
     </g>
    </g>
    <g id="ytick_11">
     <g id="line2d_34">
      <g>
       <use xlink:href="#m107a91ef62" x="394.363636" y="281.060817" style="stroke: #000000; stroke-width: 0.8"/>
      </g>
     </g>
     <g id="text_17">
      <!-- $\mathdefault{10^{-39}}$ -->
      <g transform="translate(359.463636 284.860035) scale(0.1 -0.1)">
       <use xlink:href="#DejaVuSans-31" transform="translate(0 0.765625)"/>
       <use xlink:href="#DejaVuSans-30" transform="translate(63.623047 0.765625)"/>
       <use xlink:href="#DejaVuSans-2212" transform="translate(128.203125 39.046875) scale(0.7)"/>
       <use xlink:href="#DejaVuSans-33" transform="translate(186.855469 39.046875) scale(0.7)"/>
       <use xlink:href="#DejaVuSans-39" transform="translate(231.391602 39.046875) scale(0.7)"/>
      </g>
     </g>
    </g>
    <g id="ytick_12">
     <g id="line2d_35">
      <g>
       <use xlink:href="#m107a91ef62" x="394.363636" y="252.098089" style="stroke: #000000; stroke-width: 0.8"/>
      </g>
     </g>
     <g id="text_18">
      <!-- $\mathdefault{10^{-33}}$ -->
      <g transform="translate(359.463636 255.897307) scale(0.1 -0.1)">
       <use xlink:href="#DejaVuSans-31" transform="translate(0 0.765625)"/>
       <use xlink:href="#DejaVuSans-30" transform="translate(63.623047 0.765625)"/>
       <use xlink:href="#DejaVuSans-2212" transform="translate(128.203125 39.046875) scale(0.7)"/>
       <use xlink:href="#DejaVuSans-33" transform="translate(186.855469 39.046875) scale(0.7)"/>
       <use xlink:href="#DejaVuSans-33" transform="translate(231.391602 39.046875) scale(0.7)"/>
      </g>
     </g>
    </g>
    <g id="ytick_13">
     <g id="line2d_36">
      <g>
       <use xlink:href="#m107a91ef62" x="394.363636" y="223.135361" style="stroke: #000000; stroke-width: 0.8"/>
      </g>
     </g>
     <g id="text_19">
      <!-- $\mathdefault{10^{-27}}$ -->
      <g transform="translate(359.463636 226.934579) scale(0.1 -0.1)">
       <use xlink:href="#DejaVuSans-31" transform="translate(0 0.765625)"/>
       <use xlink:href="#DejaVuSans-30" transform="translate(63.623047 0.765625)"/>
       <use xlink:href="#DejaVuSans-2212" transform="translate(128.203125 39.046875) scale(0.7)"/>
       <use xlink:href="#DejaVuSans-32" transform="translate(186.855469 39.046875) scale(0.7)"/>
       <use xlink:href="#DejaVuSans-37" transform="translate(231.391602 39.046875) scale(0.7)"/>
      </g>
     </g>
    </g>
    <g id="ytick_14">
     <g id="line2d_37">
      <g>
       <use xlink:href="#m107a91ef62" x="394.363636" y="194.172633" style="stroke: #000000; stroke-width: 0.8"/>
      </g>
     </g>
     <g id="text_20">
      <!-- $\mathdefault{10^{-21}}$ -->
      <g transform="translate(359.463636 197.971851) scale(0.1 -0.1)">
       <use xlink:href="#DejaVuSans-31" transform="translate(0 0.765625)"/>
       <use xlink:href="#DejaVuSans-30" transform="translate(63.623047 0.765625)"/>
       <use xlink:href="#DejaVuSans-2212" transform="translate(128.203125 39.046875) scale(0.7)"/>
       <use xlink:href="#DejaVuSans-32" transform="translate(186.855469 39.046875) scale(0.7)"/>
       <use xlink:href="#DejaVuSans-31" transform="translate(231.391602 39.046875) scale(0.7)"/>
      </g>
     </g>
    </g>
    <g id="ytick_15">
     <g id="line2d_38">
      <g>
       <use xlink:href="#m107a91ef62" x="394.363636" y="165.209904" style="stroke: #000000; stroke-width: 0.8"/>
      </g>
     </g>
     <g id="text_21">
      <!-- $\mathdefault{10^{-15}}$ -->
      <g transform="translate(359.463636 169.009123) scale(0.1 -0.1)">
       <use xlink:href="#DejaVuSans-31" transform="translate(0 0.684375)"/>
       <use xlink:href="#DejaVuSans-30" transform="translate(63.623047 0.684375)"/>
       <use xlink:href="#DejaVuSans-2212" transform="translate(128.203125 38.965625) scale(0.7)"/>
       <use xlink:href="#DejaVuSans-31" transform="translate(186.855469 38.965625) scale(0.7)"/>
       <use xlink:href="#DejaVuSans-35" transform="translate(231.391602 38.965625) scale(0.7)"/>
      </g>
     </g>
    </g>
    <g id="ytick_16">
     <g id="line2d_39">
      <g>
       <use xlink:href="#m107a91ef62" x="394.363636" y="136.247176" style="stroke: #000000; stroke-width: 0.8"/>
      </g>
     </g>
     <g id="text_22">
      <!-- $\mathdefault{10^{-9}}$ -->
      <g transform="translate(363.863636 140.046395) scale(0.1 -0.1)">
       <use xlink:href="#DejaVuSans-31" transform="translate(0 0.765625)"/>
       <use xlink:href="#DejaVuSans-30" transform="translate(63.623047 0.765625)"/>
       <use xlink:href="#DejaVuSans-2212" transform="translate(128.203125 39.046875) scale(0.7)"/>
       <use xlink:href="#DejaVuSans-39" transform="translate(186.855469 39.046875) scale(0.7)"/>
      </g>
     </g>
    </g>
    <g id="ytick_17">
     <g id="line2d_40">
      <g>
       <use xlink:href="#m107a91ef62" x="394.363636" y="107.284448" style="stroke: #000000; stroke-width: 0.8"/>
      </g>
     </g>
     <g id="text_23">
      <!-- $\mathdefault{10^{-3}}$ -->
      <g transform="translate(363.863636 111.083667) scale(0.1 -0.1)">
       <use xlink:href="#DejaVuSans-31" transform="translate(0 0.765625)"/>
       <use xlink:href="#DejaVuSans-30" transform="translate(63.623047 0.765625)"/>
       <use xlink:href="#DejaVuSans-2212" transform="translate(128.203125 39.046875) scale(0.7)"/>
       <use xlink:href="#DejaVuSans-33" transform="translate(186.855469 39.046875) scale(0.7)"/>
      </g>
     </g>
    </g>
   </g>
   <g id="line2d_41">
    <g clip-path="url(#pd51737795a)">
     <use xlink:href="#m106fbaea61" x="411.178888" y="4919.924424" style="fill: #ff8c00; stroke: #ff8c00"/>
     <use xlink:href="#m106fbaea61" x="411.611992" y="4919.924424" style="fill: #ff8c00; stroke: #ff8c00"/>
     <use xlink:href="#m106fbaea61" x="412.045096" y="4919.924424" style="fill: #ff8c00; stroke: #ff8c00"/>
     <use xlink:href="#m106fbaea61" x="412.478199" y="4919.924424" style="fill: #ff8c00; stroke: #ff8c00"/>
     <use xlink:href="#m106fbaea61" x="413.344407" y="99.096974" style="fill: #ff8c00; stroke: #ff8c00"/>
     <use xlink:href="#m106fbaea61" x="624.265916" y="4919.924424" style="fill: #ff8c00; stroke: #ff8c00"/>
     <use xlink:href="#m106fbaea61" x="624.69902" y="4919.924424" style="fill: #ff8c00; stroke: #ff8c00"/>
     <use xlink:href="#m106fbaea61" x="625.132124" y="4919.924424" style="fill: #ff8c00; stroke: #ff8c00"/>
     <use xlink:href="#m106fbaea61" x="625.565228" y="4919.924424" style="fill: #ff8c00; stroke: #ff8c00"/>
     <use xlink:href="#m106fbaea61" x="626.431435" y="97.854545" style="fill: #ff8c00; stroke: #ff8c00"/>
    </g>
   </g>
   <g id="line2d_42">
    <path d="M 410.745784 721 
L 410.853328 111.858639 
L 410.962576 110.933985 
L 410.998946 110.991747 
L 411.146887 111.839669 
L 411.750982 115.5811 
L 412.071522 116.172351 
L 412.59069 116.577176 
L 415.944419 118.693966 
L 415.94983 118.601242 
L 416.161174 110.88401 
L 416.227583 111.055329 
L 416.456824 112.617496 
L 416.886979 115.072356 
L 417.194233 115.696433 
L 417.655114 116.08375 
L 420.535773 117.851433 
L 421.142037 118.297296 
L 421.149133 118.135521 
L 421.356304 110.873373 
L 421.390654 110.922565 
L 421.526345 111.64628 
L 422.13587 115.16313 
L 422.453883 115.694383 
L 423.010406 116.10993 
L 426.339281 118.219788 
L 426.345567 118.100718 
L 426.553266 110.87111 
L 426.605606 110.975908 
L 426.776061 112.023616 
L 427.27764 114.989029 
L 427.589432 115.610005 
L 428.063898 116.001476 
L 431.169809 117.905593 
L 431.53658 118.168124 
L 431.543013 118.043597 
L 431.752285 110.869783 
L 431.797348 110.955187 
L 431.963707 111.949947 
L 432.483026 115.005844 
L 432.79181 115.605603 
L 433.269022 115.99561 
L 436.576652 118.022469 
L 436.733766 118.203916 
L 436.74148 118.017703 
L 436.950019 110.870959 
L 436.975129 110.902364 
L 437.093454 111.475258 
L 437.769635 115.250425 
L 438.097651 115.726625 
L 438.753683 116.184946 
L 441.931057 118.22372 
L 441.938329 118.056652 
L 442.14611 110.871329 
L 442.173127 110.904612 
L 442.287136 111.452628 
L 442.972542 115.266913 
L 443.308252 115.743074 
L 444.007646 116.224235 
L 447.128289 118.130318 
L 447.133826 118.043218 
L 447.34357 110.868546 
L 447.425652 111.107317 
L 447.731675 113.255774 
L 448.096549 115.063916 
L 448.414342 115.632727 
L 448.932227 116.033547 
L 452.325561 118.122299 
L 452.329341 118.083485 
L 452.370969 114.338232 
L 452.525891 110.876443 
L 452.553227 110.876826 
L 452.589675 110.965192 
L 452.759101 111.995255 
L 453.268325 114.986646 
L 453.58487 115.600866 
L 454.066569 115.991223 
L 457.522812 118.112323 
L 457.52409 118.10712 
L 457.539386 117.194915 
L 457.708656 110.906672 
L 457.742145 110.869377 
L 457.787861 110.968194 
L 457.955833 111.990963 
L 458.46484 114.982663 
L 458.775901 115.591468 
L 459.25663 115.984345 
L 462.555282 118.00562 
L 462.720012 118.183949 
L 462.727535 118.008327 
L 462.93427 110.870059 
L 462.957542 110.893994 
L 463.062894 111.366611 
L 463.789892 115.320447 
L 464.12994 115.763761 
L 464.903841 116.281694 
L 467.917272 118.155756 
L 467.924273 118.007395 
L 468.132079 110.86926 
L 468.168172 110.924593 
L 468.303677 111.655476 
L 468.900352 115.109779 
L 469.225811 115.662086 
L 469.781804 116.077582 
L 473.114533 118.154531 
L 473.120088 118.065056 
L 473.332899 110.870209 
L 473.405885 111.079132 
L 473.671747 112.925256 
L 474.070683 115.032884 
L 474.387081 115.6228 
L 474.896069 116.024487 
L 478.311803 118.141168 
L 478.315602 118.101203 
L 478.357413 114.324486 
L 478.513323 110.875541 
L 478.540829 110.879122 
L 478.568335 110.9408 
L 478.720218 111.811953 
L 479.273764 115.047781 
L 479.592053 115.62868 
L 480.104083 116.028505 
L 483.509035 118.161687 
L 483.51371 118.099553 
L 483.718885 110.869973 
L 483.833301 111.253734 
L 484.633264 115.418102 
L 485.00566 115.829438 
L 486.109057 116.531559 
L 488.706241 118.152544 
L 488.713323 118.001002 
L 488.919831 110.869084 
L 488.960611 110.934432 
L 489.104927 111.74212 
L 489.677087 115.075172 
L 489.989175 115.633948 
L 490.509321 116.037842 
L 493.903304 118.137775 
L 493.907476 118.094377 
L 493.9499 114.267457 
L 494.10655 110.873796 
L 494.138492 110.887994 
L 494.16245 110.948213 
L 494.31506 111.834322 
L 494.863465 115.041166 
L 495.184482 115.628655 
L 495.706135 116.034284 
L 499.100751 118.152602 
L 499.10564 118.085012 
L 499.316689 110.869357 
L 499.422726 111.240096 
L 500.248221 115.454701 
L 500.633914 115.854978 
L 501.93563 116.672973 
L 504.297988 118.176726 
L 504.30554 117.999221 
L 504.513287 110.869964 
L 504.536657 110.896035 
L 504.645274 111.39423 
L 505.363901 115.310967 
L 505.701351 115.75657 
L 506.472665 116.274536 
L 509.495246 118.175014 
L 509.502591 118.007627 
L 509.704646 110.870542 
L 509.741241 110.912372 
L 509.860381 111.510691 
L 510.507801 115.189813 
L 510.838399 115.700939 
L 511.458269 116.143478 
L 514.692504 118.125843 
L 514.698103 118.035611 
L 514.903655 110.868518 
L 514.986523 111.090993 
L 515.268666 113.061485 
L 515.650446 115.033267 
L 515.961527 115.612822 
L 516.456427 116.00688 
L 519.889724 118.109543 
L 519.891934 118.096307 
L 519.913422 116.406329 
L 520.067585 110.934611 
L 520.106826 110.868345 
L 520.153916 110.964998 
L 520.332237 112.061287 
L 520.830722 114.978893 
L 521.152325 115.601978 
L 521.650811 116.00143 
L 525.086958 118.203019 
L 525.092489 118.113016 
L 525.301618 110.870665 
L 525.383553 111.10593 
L 525.685746 113.229284 
L 526.055343 115.076918 
L 526.376731 115.651899 
L 526.907023 116.059566 
L 530.284236 118.159175 
L 530.288912 118.097099 
L 530.494677 110.869715 
L 530.60957 111.259854 
L 531.412181 115.423941 
L 531.785809 115.832688 
L 532.906696 116.544717 
L 535.481494 118.147061 
L 535.488009 118.019395 
L 535.692782 110.869139 
L 535.748091 110.974913 
L 535.930535 112.112313 
L 536.424948 114.993093 
L 536.735722 115.600096 
L 537.216008 115.992422 
L 540.603126 118.067695 
L 540.678749 118.125501 
L 540.685297 117.997267 
L 540.890947 110.868333 
L 540.937156 110.946246 
L 541.090152 111.832986 
L 541.633622 115.024164 
L 541.954129 115.619972 
L 542.469729 116.024253 
L 545.875966 118.120275 
L 545.879538 118.085737 
L 545.91509 114.849126 
L 546.069567 110.887544 
L 546.093111 110.868699 
L 546.140198 110.96555 
L 546.318579 112.062721 
L 546.817443 114.9823 
L 547.139291 115.605105 
L 547.638154 116.004528 
L 551.073234 118.111228 
L 551.075945 118.091131 
L 551.101473 115.90348 
L 551.254868 110.920243 
L 551.294898 110.870787 
L 551.341154 110.978642 
L 551.526913 112.145312 
L 552.015171 114.982257 
L 552.336027 115.602622 
L 552.824285 115.995344 
L 556.270145 118.18414 
L 556.275137 118.120771 
L 556.480691 110.870515 
L 556.590993 111.23304 
L 557.422021 115.467387 
L 557.802322 115.86069 
L 559.084077 116.666739 
L 561.467682 118.12155 
L 561.47395 118.007068 
L 561.68469 110.868688 
L 561.743668 111.010207 
L 561.958407 112.425165 
L 562.393078 114.930985 
L 562.698958 115.56679 
L 563.149729 115.952194 
L 565.75195 117.550921 
L 566.664965 118.117709 
L 566.671506 117.990547 
L 566.877218 110.868086 
L 566.932717 110.978219 
L 567.118406 112.143846 
L 567.606445 114.98194 
L 567.927156 115.603287 
L 568.415194 115.996236 
L 571.862146 118.183109 
L 571.866743 118.123746 
L 572.079376 110.870624 
L 572.19582 111.309931 
L 572.95357 115.362826 
L 573.311779 115.796824 
L 574.221079 116.388793 
L 577.059461 118.135592 
L 577.066002 118.007045 
L 577.271559 110.868655 
L 577.317793 110.946326 
L 577.47082 111.833128 
L 578.014291 115.02579 
L 578.334799 115.622045 
L 578.8504 116.026438 
L 582.256676 118.127442 
L 582.260247 118.092856 
L 582.295787 114.851883 
L 582.450212 110.887905 
L 582.473748 110.868896 
L 582.520821 110.965464 
L 582.699221 112.062558 
L 583.1985 114.984603 
L 583.520615 115.607315 
L 584.019893 116.006765 
L 587.45394 118.126623 
L 587.457193 118.097711 
L 587.48714 115.39862 
L 587.641327 110.902647 
L 587.675189 110.87097 
L 587.72142 110.977487 
L 587.906985 112.141307 
L 588.394656 114.981075 
L 588.715126 115.603989 
L 589.202798 115.9973 
L 592.651167 118.125032 
L 592.654066 118.102301 
L 592.679962 115.851348 
L 592.836936 110.907306 
L 592.868328 110.868851 
L 592.915417 110.965763 
L 593.093884 112.063733 
L 593.59324 114.984972 
L 593.915405 115.607157 
L 594.41476 116.006481 
L 597.848428 118.131747 
L 597.852225 118.092017 
L 597.894178 114.312492 
L 598.051022 110.874059 
L 598.07875 110.880573 
L 598.106478 110.945268 
L 598.259416 111.830175 
L 598.80253 115.022907 
L 599.122827 115.620165 
L 599.638089 116.024763 
L 603.045659 118.116452 
L 603.049236 118.081854 
L 603.08483 114.844022 
L 603.239508 110.886916 
L 603.263076 110.868674 
L 603.310211 110.966561 
L 603.48884 112.066789 
L 603.988223 114.985033 
L 604.310405 115.605943 
L 604.809788 116.004944 
L 608.242913 118.13844 
L 608.246703 118.098815 
L 608.288599 114.318679 
L 608.445239 110.874556 
L 608.472947 110.880374 
L 608.500654 110.944485 
L 608.653459 111.827236 
L 609.196053 115.02117 
L 609.516045 115.620133 
L 610.016901 116.016143 
L 613.440128 118.119689 
L 613.443437 118.090429 
L 613.474998 115.238374 
L 613.629321 110.897693 
L 613.658119 110.868981 
L 613.701523 110.955717 
L 613.865066 111.931407 
L 614.383113 114.986827 
L 614.693967 115.593864 
L 615.184788 115.993006 
L 618.637076 118.177937 
L 618.642061 118.115073 
L 618.847755 110.870291 
L 618.958227 111.23453 
L 619.775387 115.44431 
L 620.15579 115.849328 
L 621.367441 116.614375 
L 623.834585 118.208835 
L 623.842118 118.03112 
L 624.048944 110.870808 
L 624.072222 110.894929 
L 624.180531 111.386732 
L 624.899834 115.315533 
L 625.237719 115.763073 
L 626.010027 116.281869 
L 629.246609 118.25821 
L 629.246609 118.25821 
" clip-path="url(#pd51737795a)" style="fill: none; stroke: #0000ff; stroke-width: 1.5; stroke-linecap: square"/>
   </g>
   <g id="line2d_43">
    <g clip-path="url(#pd51737795a)">
     <use xlink:href="#m79dac9ebf2" x="411.178888" y="112.082559" style="fill: #0000ff; stroke: #0000ff"/>
     <use xlink:href="#m79dac9ebf2" x="411.611992" y="115.061041" style="fill: #0000ff; stroke: #0000ff"/>
     <use xlink:href="#m79dac9ebf2" x="412.045096" y="116.141939" style="fill: #0000ff; stroke: #0000ff"/>
     <use xlink:href="#m79dac9ebf2" x="412.478199" y="116.503852" style="fill: #0000ff; stroke: #0000ff"/>
     <use xlink:href="#m79dac9ebf2" x="413.344407" y="117.042456" style="fill: #0000ff; stroke: #0000ff"/>
     <use xlink:href="#m79dac9ebf2" x="624.265916" y="111.982026" style="fill: #0000ff; stroke: #0000ff"/>
     <use xlink:href="#m79dac9ebf2" x="624.69902" y="114.72264" style="fill: #0000ff; stroke: #0000ff"/>
     <use xlink:href="#m79dac9ebf2" x="625.132124" y="115.66135" style="fill: #0000ff; stroke: #0000ff"/>
     <use xlink:href="#m79dac9ebf2" x="625.565228" y="116.003095" style="fill: #0000ff; stroke: #0000ff"/>
     <use xlink:href="#m79dac9ebf2" x="626.431435" y="116.539713" style="fill: #0000ff; stroke: #0000ff"/>
    </g>
   </g>
   <g id="line2d_44">
    <g clip-path="url(#pd51737795a)">
     <use xlink:href="#mf575cd4a79" x="411.178888" y="111.442162" style="stroke: #000000; stroke-linejoin: miter"/>
     <use xlink:href="#mf575cd4a79" x="411.611992" y="113.207303" style="stroke: #000000; stroke-linejoin: miter"/>
     <use xlink:href="#mf575cd4a79" x="412.045096" y="114.215956" style="stroke: #000000; stroke-linejoin: miter"/>
     <use xlink:href="#mf575cd4a79" x="412.478199" y="115.530806" style="stroke: #000000; stroke-linejoin: miter"/>
     <use xlink:href="#mf575cd4a79" x="413.344407" y="117.710215" style="stroke: #000000; stroke-linejoin: miter"/>
     <use xlink:href="#mf575cd4a79" x="624.265916" y="111.47179" style="stroke: #000000; stroke-linejoin: miter"/>
     <use xlink:href="#mf575cd4a79" x="624.69902" y="113.168204" style="stroke: #000000; stroke-linejoin: miter"/>
     <use xlink:href="#mf575cd4a79" x="625.132124" y="114.056761" style="stroke: #000000; stroke-linejoin: miter"/>
     <use xlink:href="#mf575cd4a79" x="625.565228" y="115.536447" style="stroke: #000000; stroke-linejoin: miter"/>
     <use xlink:href="#mf575cd4a79" x="626.431435" y="117.569758" style="stroke: #000000; stroke-linejoin: miter"/>
    </g>
   </g>
   <g id="patch_9">
    <path d="M 394.363636 338.4 
L 394.363636 86.4 
" style="fill: none; stroke: #000000; stroke-width: 0.8; stroke-linejoin: miter; stroke-linecap: square"/>
   </g>
   <g id="patch_10">
    <path d="M 648 338.4 
L 648 86.4 
" style="fill: none; stroke: #000000; stroke-width: 0.8; stroke-linejoin: miter; stroke-linecap: square"/>
   </g>
   <g id="patch_11">
    <path d="M 394.363636 338.4 
L 648 338.4 
" style="fill: none; stroke: #000000; stroke-width: 0.8; stroke-linejoin: miter; stroke-linecap: square"/>
   </g>
   <g id="patch_12">
    <path d="M 394.363636 86.4 
L 648 86.4 
" style="fill: none; stroke: #000000; stroke-width: 0.8; stroke-linejoin: miter; stroke-linecap: square"/>
   </g>
   <g id="text_24">
    <!-- Goldberg1995a.fm_po_LOS25_losartan -->
    <g transform="translate(385.276818 80.4) scale(0.14 -0.14)">
     <use xlink:href="#DejaVuSans-47"/>
     <use xlink:href="#DejaVuSans-6f" x="77.490234"/>
     <use xlink:href="#DejaVuSans-6c" x="138.671875"/>
     <use xlink:href="#DejaVuSans-64" x="166.455078"/>
     <use xlink:href="#DejaVuSans-62" x="229.931641"/>
     <use xlink:href="#DejaVuSans-65" x="293.408203"/>
     <use xlink:href="#DejaVuSans-72" x="354.931641"/>
     <use xlink:href="#DejaVuSans-67" x="394.294922"/>
     <use xlink:href="#DejaVuSans-31" x="457.771484"/>
     <use xlink:href="#DejaVuSans-39" x="521.394531"/>
     <use xlink:href="#DejaVuSans-39" x="585.017578"/>
     <use xlink:href="#DejaVuSans-35" x="648.640625"/>
     <use xlink:href="#DejaVuSans-61" x="712.263672"/>
     <use xlink:href="#DejaVuSans-2e" x="773.542969"/>
     <use xlink:href="#DejaVuSans-66" x="805.330078"/>
     <use xlink:href="#DejaVuSans-6d" x="840.535156"/>
     <use xlink:href="#DejaVuSans-5f" x="937.947266"/>
     <use xlink:href="#DejaVuSans-70" x="987.947266"/>
     <use xlink:href="#DejaVuSans-6f" x="1051.423828"/>
     <use xlink:href="#DejaVuSans-5f" x="1112.605469"/>
     <use xlink:href="#DejaVuSans-4c" x="1162.605469"/>
     <use xlink:href="#DejaVuSans-4f" x="1214.693359"/>
     <use xlink:href="#DejaVuSans-53" x="1293.404297"/>
     <use xlink:href="#DejaVuSans-32" x="1356.880859"/>
     <use xlink:href="#DejaVuSans-35" x="1420.503906"/>
     <use xlink:href="#DejaVuSans-5f" x="1484.126953"/>
     <use xlink:href="#DejaVuSans-6c" x="1534.126953"/>
     <use xlink:href="#DejaVuSans-6f" x="1561.910156"/>
     <use xlink:href="#DejaVuSans-73" x="1623.091797"/>
     <use xlink:href="#DejaVuSans-61" x="1675.191406"/>
     <use xlink:href="#DejaVuSans-72" x="1736.470703"/>
     <use xlink:href="#DejaVuSans-74" x="1777.583984"/>
     <use xlink:href="#DejaVuSans-61" x="1816.792969"/>
     <use xlink:href="#DejaVuSans-6e" x="1878.072266"/>
    </g>
   </g>
   <g id="legend_2">
    <g id="patch_13">
     <path d="M 467.549006 333.4 
L 574.814631 333.4 
Q 576.814631 333.4 576.814631 331.4 
L 576.814631 273.409375 
Q 576.814631 271.409375 574.814631 271.409375 
L 467.549006 271.409375 
Q 465.549006 271.409375 465.549006 273.409375 
L 465.549006 331.4 
Q 465.549006 333.4 467.549006 333.4 
z
" style="fill: #ffffff; opacity: 0.8; stroke: #cccccc; stroke-linejoin: miter"/>
    </g>
    <g id="line2d_45">
     <g>
      <use xlink:href="#m106fbaea61" x="479.549006" y="279.507812" style="fill: #ff8c00; stroke: #ff8c00"/>
     </g>
    </g>
    <g id="text_25">
     <!-- residuals -->
     <g transform="translate(497.549006 283.007812) scale(0.1 -0.1)">
      <use xlink:href="#DejaVuSans-72"/>
      <use xlink:href="#DejaVuSans-65" x="38.863281"/>
      <use xlink:href="#DejaVuSans-73" x="100.386719"/>
      <use xlink:href="#DejaVuSans-69" x="152.486328"/>
      <use xlink:href="#DejaVuSans-64" x="180.269531"/>
      <use xlink:href="#DejaVuSans-75" x="243.746094"/>
      <use xlink:href="#DejaVuSans-61" x="307.125"/>
      <use xlink:href="#DejaVuSans-6c" x="368.404297"/>
      <use xlink:href="#DejaVuSans-73" x="396.1875"/>
     </g>
    </g>
    <g id="line2d_46">
     <path d="M 469.549006 294.185938 
L 479.549006 294.185938 
L 489.549006 294.185938 
" style="fill: none; stroke: #0000ff; stroke-width: 1.5; stroke-linecap: square"/>
    </g>
    <g id="text_26">
     <!-- observable -->
     <g transform="translate(497.549006 297.685938) scale(0.1 -0.1)">
      <use xlink:href="#DejaVuSans-6f"/>
      <use xlink:href="#DejaVuSans-62" x="61.181641"/>
      <use xlink:href="#DejaVuSans-73" x="124.658203"/>
      <use xlink:href="#DejaVuSans-65" x="176.757812"/>
      <use xlink:href="#DejaVuSans-72" x="238.28125"/>
      <use xlink:href="#DejaVuSans-76" x="279.394531"/>
      <use xlink:href="#DejaVuSans-61" x="338.574219"/>
      <use xlink:href="#DejaVuSans-62" x="399.853516"/>
      <use xlink:href="#DejaVuSans-6c" x="463.330078"/>
      <use xlink:href="#DejaVuSans-65" x="491.113281"/>
     </g>
    </g>
    <g id="line2d_47">
     <g>
      <use xlink:href="#m79dac9ebf2" x="479.549006" y="308.864062" style="fill: #0000ff; stroke: #0000ff"/>
     </g>
    </g>
    <g id="text_27">
     <!-- interpolation -->
     <g transform="translate(497.549006 312.364062) scale(0.1 -0.1)">
      <use xlink:href="#DejaVuSans-69"/>
      <use xlink:href="#DejaVuSans-6e" x="27.783203"/>
      <use xlink:href="#DejaVuSans-74" x="91.162109"/>
      <use xlink:href="#DejaVuSans-65" x="130.371094"/>
      <use xlink:href="#DejaVuSans-72" x="191.894531"/>
      <use xlink:href="#DejaVuSans-70" x="233.007812"/>
      <use xlink:href="#DejaVuSans-6f" x="296.484375"/>
      <use xlink:href="#DejaVuSans-6c" x="357.666016"/>
      <use xlink:href="#DejaVuSans-61" x="385.449219"/>
      <use xlink:href="#DejaVuSans-74" x="446.728516"/>
      <use xlink:href="#DejaVuSans-69" x="485.9375"/>
      <use xlink:href="#DejaVuSans-6f" x="513.720703"/>
      <use xlink:href="#DejaVuSans-6e" x="574.902344"/>
     </g>
    </g>
    <g id="line2d_48">
     <g>
      <use xlink:href="#mf575cd4a79" x="479.549006" y="323.542188" style="stroke: #000000; stroke-linejoin: miter"/>
     </g>
    </g>
    <g id="text_28">
     <!-- reference_data -->
     <g transform="translate(497.549006 327.042188) scale(0.1 -0.1)">
      <use xlink:href="#DejaVuSans-72"/>
      <use xlink:href="#DejaVuSans-65" x="38.863281"/>
      <use xlink:href="#DejaVuSans-66" x="100.386719"/>
      <use xlink:href="#DejaVuSans-65" x="135.591797"/>
      <use xlink:href="#DejaVuSans-72" x="197.115234"/>
      <use xlink:href="#DejaVuSans-65" x="235.978516"/>
      <use xlink:href="#DejaVuSans-6e" x="297.501953"/>
      <use xlink:href="#DejaVuSans-63" x="360.880859"/>
      <use xlink:href="#DejaVuSans-65" x="415.861328"/>
      <use xlink:href="#DejaVuSans-5f" x="477.384766"/>
      <use xlink:href="#DejaVuSans-64" x="527.384766"/>
      <use xlink:href="#DejaVuSans-61" x="590.861328"/>
      <use xlink:href="#DejaVuSans-74" x="652.140625"/>
      <use xlink:href="#DejaVuSans-61" x="691.349609"/>
     </g>
    </g>
   </g>
  </g>
  <g id="axes_3">
   <g id="patch_14">
    <path d="M 90 640.8 
L 343.636364 640.8 
L 343.636364 388.8 
L 90 388.8 
z
" style="fill: #ffffff"/>
   </g>
   <g id="PolyCollection_3">
    <defs>
     <path id="m9694d48ee4" d="M 106.815252 -90.654545 
L 106.815252 -319.745455 
L 107.248355 -302.122736 
L 107.681459 -175.337367 
L 108.114563 -99.876922 
L 108.98077 -91.83115 
L 319.90228 -240.660533 
L 320.335384 -265.313151 
L 320.768487 -168.731321 
L 321.201591 -93.30386 
L 322.067799 -94.504012 
L 322.067799 -90.654545 
L 322.067799 -90.654545 
L 321.201591 -90.654545 
L 320.768487 -90.654545 
L 320.335384 -90.654545 
L 319.90228 -90.654545 
L 108.98077 -90.654545 
L 108.114563 -90.654545 
L 107.681459 -90.654545 
L 107.248355 -90.654545 
L 106.815252 -90.654545 
z
" style="stroke: #8b0000; stroke-opacity: 0.4"/>
    </defs>
    <g clip-path="url(#pfde4960922)">
     <use xlink:href="#m9694d48ee4" x="0" y="720" style="fill: #8b0000; fill-opacity: 0.4; stroke: #8b0000; stroke-opacity: 0.4"/>
    </g>
   </g>
   <g id="matplotlib.axis_5">
    <g id="xtick_15">
     <g id="line2d_49">
      <g>
       <use xlink:href="#m6493817c17" x="106.382148" y="640.8" style="stroke: #000000; stroke-width: 0.8"/>
      </g>
     </g>
     <g id="text_29">
      <!-- 0 -->
      <g transform="translate(103.200898 655.398438) scale(0.1 -0.1)">
       <use xlink:href="#DejaVuSans-30"/>
      </g>
     </g>
    </g>
    <g id="xtick_16">
     <g id="line2d_50">
      <g>
       <use xlink:href="#m6493817c17" x="142.474124" y="640.8" style="stroke: #000000; stroke-width: 0.8"/>
      </g>
     </g>
     <g id="text_30">
      <!-- 10000 -->
      <g transform="translate(126.567874 655.398438) scale(0.1 -0.1)">
       <use xlink:href="#DejaVuSans-31"/>
       <use xlink:href="#DejaVuSans-30" x="63.623047"/>
       <use xlink:href="#DejaVuSans-30" x="127.246094"/>
       <use xlink:href="#DejaVuSans-30" x="190.869141"/>
       <use xlink:href="#DejaVuSans-30" x="254.492188"/>
      </g>
     </g>
    </g>
    <g id="xtick_17">
     <g id="line2d_51">
      <g>
       <use xlink:href="#m6493817c17" x="178.566101" y="640.8" style="stroke: #000000; stroke-width: 0.8"/>
      </g>
     </g>
     <g id="text_31">
      <!-- 20000 -->
      <g transform="translate(162.659851 655.398438) scale(0.1 -0.1)">
       <use xlink:href="#DejaVuSans-32"/>
       <use xlink:href="#DejaVuSans-30" x="63.623047"/>
       <use xlink:href="#DejaVuSans-30" x="127.246094"/>
       <use xlink:href="#DejaVuSans-30" x="190.869141"/>
       <use xlink:href="#DejaVuSans-30" x="254.492188"/>
      </g>
     </g>
    </g>
    <g id="xtick_18">
     <g id="line2d_52">
      <g>
       <use xlink:href="#m6493817c17" x="214.658077" y="640.8" style="stroke: #000000; stroke-width: 0.8"/>
      </g>
     </g>
     <g id="text_32">
      <!-- 30000 -->
      <g transform="translate(198.751827 655.398438) scale(0.1 -0.1)">
       <use xlink:href="#DejaVuSans-33"/>
       <use xlink:href="#DejaVuSans-30" x="63.623047"/>
       <use xlink:href="#DejaVuSans-30" x="127.246094"/>
       <use xlink:href="#DejaVuSans-30" x="190.869141"/>
       <use xlink:href="#DejaVuSans-30" x="254.492188"/>
      </g>
     </g>
    </g>
    <g id="xtick_19">
     <g id="line2d_53">
      <g>
       <use xlink:href="#m6493817c17" x="250.750053" y="640.8" style="stroke: #000000; stroke-width: 0.8"/>
      </g>
     </g>
     <g id="text_33">
      <!-- 40000 -->
      <g transform="translate(234.843803 655.398438) scale(0.1 -0.1)">
       <use xlink:href="#DejaVuSans-34"/>
       <use xlink:href="#DejaVuSans-30" x="63.623047"/>
       <use xlink:href="#DejaVuSans-30" x="127.246094"/>
       <use xlink:href="#DejaVuSans-30" x="190.869141"/>
       <use xlink:href="#DejaVuSans-30" x="254.492188"/>
      </g>
     </g>
    </g>
    <g id="xtick_20">
     <g id="line2d_54">
      <g>
       <use xlink:href="#m6493817c17" x="286.84203" y="640.8" style="stroke: #000000; stroke-width: 0.8"/>
      </g>
     </g>
     <g id="text_34">
      <!-- 50000 -->
      <g transform="translate(270.93578 655.398438) scale(0.1 -0.1)">
       <use xlink:href="#DejaVuSans-35"/>
       <use xlink:href="#DejaVuSans-30" x="63.623047"/>
       <use xlink:href="#DejaVuSans-30" x="127.246094"/>
       <use xlink:href="#DejaVuSans-30" x="190.869141"/>
       <use xlink:href="#DejaVuSans-30" x="254.492188"/>
      </g>
     </g>
    </g>
    <g id="xtick_21">
     <g id="line2d_55">
      <g>
       <use xlink:href="#m6493817c17" x="322.934006" y="640.8" style="stroke: #000000; stroke-width: 0.8"/>
      </g>
     </g>
     <g id="text_35">
      <!-- 60000 -->
      <g transform="translate(307.027756 655.398438) scale(0.1 -0.1)">
       <use xlink:href="#DejaVuSans-36"/>
       <use xlink:href="#DejaVuSans-30" x="63.623047"/>
       <use xlink:href="#DejaVuSans-30" x="127.246094"/>
       <use xlink:href="#DejaVuSans-30" x="190.869141"/>
       <use xlink:href="#DejaVuSans-30" x="254.492188"/>
      </g>
     </g>
    </g>
    <g id="text_36">
     <!-- time -->
     <g transform="translate(203.262869 670.59625) scale(0.12 -0.12)">
      <use xlink:href="#DejaVuSans-74"/>
      <use xlink:href="#DejaVuSans-69" x="39.208984"/>
      <use xlink:href="#DejaVuSans-6d" x="66.992188"/>
      <use xlink:href="#DejaVuSans-65" x="164.404297"/>
     </g>
    </g>
   </g>
   <g id="matplotlib.axis_6">
    <g id="ytick_18">
     <g id="line2d_56">
      <g>
       <use xlink:href="#m107a91ef62" x="90" y="629.345455" style="stroke: #000000; stroke-width: 0.8"/>
      </g>
     </g>
     <g id="text_37">
      <!-- 0.0 -->
      <g transform="translate(67.096875 633.144673) scale(0.1 -0.1)">
       <use xlink:href="#DejaVuSans-30"/>
       <use xlink:href="#DejaVuSans-2e" x="63.623047"/>
       <use xlink:href="#DejaVuSans-30" x="95.410156"/>
      </g>
     </g>
    </g>
    <g id="ytick_19">
     <g id="line2d_57">
      <g>
       <use xlink:href="#m107a91ef62" x="90" y="585.998604" style="stroke: #000000; stroke-width: 0.8"/>
      </g>
     </g>
     <g id="text_38">
      <!-- 0.2 -->
      <g transform="translate(67.096875 589.797823) scale(0.1 -0.1)">
       <use xlink:href="#DejaVuSans-30"/>
       <use xlink:href="#DejaVuSans-2e" x="63.623047"/>
       <use xlink:href="#DejaVuSans-32" x="95.410156"/>
      </g>
     </g>
    </g>
    <g id="ytick_20">
     <g id="line2d_58">
      <g>
       <use xlink:href="#m107a91ef62" x="90" y="542.651753" style="stroke: #000000; stroke-width: 0.8"/>
      </g>
     </g>
     <g id="text_39">
      <!-- 0.4 -->
      <g transform="translate(67.096875 546.450972) scale(0.1 -0.1)">
       <use xlink:href="#DejaVuSans-30"/>
       <use xlink:href="#DejaVuSans-2e" x="63.623047"/>
       <use xlink:href="#DejaVuSans-34" x="95.410156"/>
      </g>
     </g>
    </g>
    <g id="ytick_21">
     <g id="line2d_59">
      <g>
       <use xlink:href="#m107a91ef62" x="90" y="499.304903" style="stroke: #000000; stroke-width: 0.8"/>
      </g>
     </g>
     <g id="text_40">
      <!-- 0.6 -->
      <g transform="translate(67.096875 503.104122) scale(0.1 -0.1)">
       <use xlink:href="#DejaVuSans-30"/>
       <use xlink:href="#DejaVuSans-2e" x="63.623047"/>
       <use xlink:href="#DejaVuSans-36" x="95.410156"/>
      </g>
     </g>
    </g>
    <g id="ytick_22">
     <g id="line2d_60">
      <g>
       <use xlink:href="#m107a91ef62" x="90" y="455.958052" style="stroke: #000000; stroke-width: 0.8"/>
      </g>
     </g>
     <g id="text_41">
      <!-- 0.8 -->
      <g transform="translate(67.096875 459.757271) scale(0.1 -0.1)">
       <defs>
        <path id="DejaVuSans-38" d="M 2034 2216 
Q 1584 2216 1326 1975 
Q 1069 1734 1069 1313 
Q 1069 891 1326 650 
Q 1584 409 2034 409 
Q 2484 409 2743 651 
Q 3003 894 3003 1313 
Q 3003 1734 2745 1975 
Q 2488 2216 2034 2216 
z
M 1403 2484 
Q 997 2584 770 2862 
Q 544 3141 544 3541 
Q 544 4100 942 4425 
Q 1341 4750 2034 4750 
Q 2731 4750 3128 4425 
Q 3525 4100 3525 3541 
Q 3525 3141 3298 2862 
Q 3072 2584 2669 2484 
Q 3125 2378 3379 2068 
Q 3634 1759 3634 1313 
Q 3634 634 3220 271 
Q 2806 -91 2034 -91 
Q 1263 -91 848 271 
Q 434 634 434 1313 
Q 434 1759 690 2068 
Q 947 2378 1403 2484 
z
M 1172 3481 
Q 1172 3119 1398 2916 
Q 1625 2713 2034 2713 
Q 2441 2713 2670 2916 
Q 2900 3119 2900 3481 
Q 2900 3844 2670 4047 
Q 2441 4250 2034 4250 
Q 1625 4250 1398 4047 
Q 1172 3844 1172 3481 
z
" transform="scale(0.015625)"/>
       </defs>
       <use xlink:href="#DejaVuSans-30"/>
       <use xlink:href="#DejaVuSans-2e" x="63.623047"/>
       <use xlink:href="#DejaVuSans-38" x="95.410156"/>
      </g>
     </g>
    </g>
    <g id="ytick_23">
     <g id="line2d_61">
      <g>
       <use xlink:href="#m107a91ef62" x="90" y="412.611202" style="stroke: #000000; stroke-width: 0.8"/>
      </g>
     </g>
     <g id="text_42">
      <!-- 1.0 -->
      <g transform="translate(67.096875 416.41042) scale(0.1 -0.1)">
       <use xlink:href="#DejaVuSans-31"/>
       <use xlink:href="#DejaVuSans-2e" x="63.623047"/>
       <use xlink:href="#DejaVuSans-30" x="95.410156"/>
      </g>
     </g>
    </g>
    <g id="text_43">
     <!-- [Cve_los] -->
     <g transform="translate(60.2675 542.378438) rotate(-90) scale(0.12 -0.12)">
      <use xlink:href="#DejaVuSans-5b"/>
      <use xlink:href="#DejaVuSans-43" x="39.013672"/>
      <use xlink:href="#DejaVuSans-76" x="108.837891"/>
      <use xlink:href="#DejaVuSans-65" x="168.017578"/>
      <use xlink:href="#DejaVuSans-5f" x="229.541016"/>
      <use xlink:href="#DejaVuSans-6c" x="279.541016"/>
      <use xlink:href="#DejaVuSans-6f" x="307.324219"/>
      <use xlink:href="#DejaVuSans-73" x="368.505859"/>
      <use xlink:href="#DejaVuSans-5d" x="420.605469"/>
     </g>
    </g>
   </g>
   <g id="line2d_62">
    <path d="M 90 629.345455 
L 343.636364 629.345455 
" clip-path="url(#pfde4960922)" style="fill: none; stroke: #000000; stroke-width: 1.5; stroke-linecap: square"/>
   </g>
   <g id="line2d_63">
    <defs>
     <path id="m333ecdedb7" d="M 0 3 
C 0.795609 3 1.55874 2.683901 2.12132 2.12132 
C 2.683901 1.55874 3 0.795609 3 0 
C 3 -0.795609 2.683901 -1.55874 2.12132 -2.12132 
C 1.55874 -2.683901 0.795609 -3 0 -3 
C -0.795609 -3 -1.55874 -2.683901 -2.12132 -2.12132 
C -2.683901 -1.55874 -3 -0.795609 -3 0 
C -3 0.795609 -2.683901 1.55874 -2.12132 2.12132 
C -1.55874 2.683901 -0.795609 3 0 3 
z
" style="stroke: #ff0000"/>
    </defs>
    <g clip-path="url(#pfde4960922)">
     <use xlink:href="#m333ecdedb7" x="106.815252" y="400.254545" style="fill: #ff0000; stroke: #ff0000"/>
     <use xlink:href="#m333ecdedb7" x="107.248355" y="417.877264" style="fill: #ff0000; stroke: #ff0000"/>
     <use xlink:href="#m333ecdedb7" x="107.681459" y="544.662633" style="fill: #ff0000; stroke: #ff0000"/>
     <use xlink:href="#m333ecdedb7" x="108.114563" y="620.123078" style="fill: #ff0000; stroke: #ff0000"/>
     <use xlink:href="#m333ecdedb7" x="108.98077" y="628.16885" style="fill: #ff0000; stroke: #ff0000"/>
     <use xlink:href="#m333ecdedb7" x="319.90228" y="479.339467" style="fill: #ff0000; stroke: #ff0000"/>
     <use xlink:href="#m333ecdedb7" x="320.335384" y="454.686849" style="fill: #ff0000; stroke: #ff0000"/>
     <use xlink:href="#m333ecdedb7" x="320.768487" y="551.268679" style="fill: #ff0000; stroke: #ff0000"/>
     <use xlink:href="#m333ecdedb7" x="321.201591" y="626.69614" style="fill: #ff0000; stroke: #ff0000"/>
     <use xlink:href="#m333ecdedb7" x="322.067799" y="625.495988" style="fill: #ff0000; stroke: #ff0000"/>
    </g>
   </g>
   <g id="patch_15">
    <path d="M 90 640.8 
L 90 388.8 
" style="fill: none; stroke: #000000; stroke-width: 0.8; stroke-linejoin: miter; stroke-linecap: square"/>
   </g>
   <g id="patch_16">
    <path d="M 343.636364 640.8 
L 343.636364 388.8 
" style="fill: none; stroke: #000000; stroke-width: 0.8; stroke-linejoin: miter; stroke-linecap: square"/>
   </g>
   <g id="patch_17">
    <path d="M 90 640.8 
L 343.636364 640.8 
" style="fill: none; stroke: #000000; stroke-width: 0.8; stroke-linejoin: miter; stroke-linecap: square"/>
   </g>
   <g id="patch_18">
    <path d="M 90 388.8 
L 343.636364 388.8 
" style="fill: none; stroke: #000000; stroke-width: 0.8; stroke-linejoin: miter; stroke-linecap: square"/>
   </g>
   <g id="legend_3">
    <g id="patch_19">
     <path d="M 187.867614 411.478125 
L 336.636364 411.478125 
Q 338.636364 411.478125 338.636364 409.478125 
L 338.636364 395.8 
Q 338.636364 393.8 336.636364 393.8 
L 187.867614 393.8 
Q 185.867614 393.8 185.867614 395.8 
L 185.867614 409.478125 
Q 185.867614 411.478125 187.867614 411.478125 
z
" style="fill: #ffffff; opacity: 0.8; stroke: #cccccc; stroke-linejoin: miter"/>
    </g>
    <g id="line2d_64">
     <g>
      <use xlink:href="#m333ecdedb7" x="199.867614" y="401.898438" style="fill: #ff0000; stroke: #ff0000"/>
     </g>
    </g>
    <g id="text_44">
     <!-- (weighted residuals)^2 -->
     <g transform="translate(217.867614 405.398438) scale(0.1 -0.1)">
      <defs>
       <path id="DejaVuSans-28" d="M 1984 4856 
Q 1566 4138 1362 3434 
Q 1159 2731 1159 2009 
Q 1159 1288 1364 580 
Q 1569 -128 1984 -844 
L 1484 -844 
Q 1016 -109 783 600 
Q 550 1309 550 2009 
Q 550 2706 781 3412 
Q 1013 4119 1484 4856 
L 1984 4856 
z
" transform="scale(0.015625)"/>
       <path id="DejaVuSans-77" d="M 269 3500 
L 844 3500 
L 1563 769 
L 2278 3500 
L 2956 3500 
L 3675 769 
L 4391 3500 
L 4966 3500 
L 4050 0 
L 3372 0 
L 2619 2869 
L 1863 0 
L 1184 0 
L 269 3500 
z
" transform="scale(0.015625)"/>
       <path id="DejaVuSans-68" d="M 3513 2113 
L 3513 0 
L 2938 0 
L 2938 2094 
Q 2938 2591 2744 2837 
Q 2550 3084 2163 3084 
Q 1697 3084 1428 2787 
Q 1159 2491 1159 1978 
L 1159 0 
L 581 0 
L 581 4863 
L 1159 4863 
L 1159 2956 
Q 1366 3272 1645 3428 
Q 1925 3584 2291 3584 
Q 2894 3584 3203 3211 
Q 3513 2838 3513 2113 
z
" transform="scale(0.015625)"/>
       <path id="DejaVuSans-20" transform="scale(0.015625)"/>
       <path id="DejaVuSans-29" d="M 513 4856 
L 1013 4856 
Q 1481 4119 1714 3412 
Q 1947 2706 1947 2009 
Q 1947 1309 1714 600 
Q 1481 -109 1013 -844 
L 513 -844 
Q 928 -128 1133 580 
Q 1338 1288 1338 2009 
Q 1338 2731 1133 3434 
Q 928 4138 513 4856 
z
" transform="scale(0.015625)"/>
       <path id="DejaVuSans-5e" d="M 2988 4666 
L 4684 2925 
L 4056 2925 
L 2681 4159 
L 1306 2925 
L 678 2925 
L 2375 4666 
L 2988 4666 
z
" transform="scale(0.015625)"/>
      </defs>
      <use xlink:href="#DejaVuSans-28"/>
      <use xlink:href="#DejaVuSans-77" x="39.013672"/>
      <use xlink:href="#DejaVuSans-65" x="120.800781"/>
      <use xlink:href="#DejaVuSans-69" x="182.324219"/>
      <use xlink:href="#DejaVuSans-67" x="210.107422"/>
      <use xlink:href="#DejaVuSans-68" x="273.583984"/>
      <use xlink:href="#DejaVuSans-74" x="336.962891"/>
      <use xlink:href="#DejaVuSans-65" x="376.171875"/>
      <use xlink:href="#DejaVuSans-64" x="437.695312"/>
      <use xlink:href="#DejaVuSans-20" x="501.171875"/>
      <use xlink:href="#DejaVuSans-72" x="532.958984"/>
      <use xlink:href="#DejaVuSans-65" x="571.822266"/>
      <use xlink:href="#DejaVuSans-73" x="633.345703"/>
      <use xlink:href="#DejaVuSans-69" x="685.445312"/>
      <use xlink:href="#DejaVuSans-64" x="713.228516"/>
      <use xlink:href="#DejaVuSans-75" x="776.705078"/>
      <use xlink:href="#DejaVuSans-61" x="840.083984"/>
      <use xlink:href="#DejaVuSans-6c" x="901.363281"/>
      <use xlink:href="#DejaVuSans-73" x="929.146484"/>
      <use xlink:href="#DejaVuSans-29" x="981.246094"/>
      <use xlink:href="#DejaVuSans-5e" x="1020.259766"/>
      <use xlink:href="#DejaVuSans-32" x="1104.048828"/>
     </g>
    </g>
   </g>
  </g>
  <g id="axes_4">
   <g id="patch_20">
    <path d="M 394.363636 640.8 
L 648 640.8 
L 648 388.8 
L 394.363636 388.8 
z
" style="fill: #ffffff"/>
   </g>
   <g id="PolyCollection_4">
    <path d="M 411.178888 100469.570919 
L 411.178888 400.254545 
L 411.611992 403.733152 
L 412.045096 443.504717 
L 412.478199 539.864394 
L 413.344407 629.345455 
L 624.265916 418.656776 
L 624.69902 412.044215 
L 625.132124 447.034422 
L 625.565228 594.071568 
L 626.431435 577.834011 
L 626.431435 100469.570919 
L 626.431435 100469.570919 
L 625.565228 100469.570919 
L 625.132124 100469.570919 
L 624.69902 100469.570919 
L 624.265916 100469.570919 
L 413.344407 100469.570919 
L 412.478199 100469.570919 
L 412.045096 100469.570919 
L 411.611992 100469.570919 
L 411.178888 100469.570919 
z
" clip-path="url(#p503945554d)" style="fill: #8b0000; fill-opacity: 0.4; stroke: #8b0000; stroke-opacity: 0.4"/>
   </g>
   <g id="matplotlib.axis_7">
    <g id="xtick_22">
     <g id="line2d_65">
      <g>
       <use xlink:href="#m6493817c17" x="410.745784" y="640.8" style="stroke: #000000; stroke-width: 0.8"/>
      </g>
     </g>
     <g id="text_45">
      <!-- 0 -->
      <g transform="translate(407.564534 655.398438) scale(0.1 -0.1)">
       <use xlink:href="#DejaVuSans-30"/>
      </g>
     </g>
    </g>
    <g id="xtick_23">
     <g id="line2d_66">
      <g>
       <use xlink:href="#m6493817c17" x="446.837761" y="640.8" style="stroke: #000000; stroke-width: 0.8"/>
      </g>
     </g>
     <g id="text_46">
      <!-- 10000 -->
      <g transform="translate(430.931511 655.398438) scale(0.1 -0.1)">
       <use xlink:href="#DejaVuSans-31"/>
       <use xlink:href="#DejaVuSans-30" x="63.623047"/>
       <use xlink:href="#DejaVuSans-30" x="127.246094"/>
       <use xlink:href="#DejaVuSans-30" x="190.869141"/>
       <use xlink:href="#DejaVuSans-30" x="254.492188"/>
      </g>
     </g>
    </g>
    <g id="xtick_24">
     <g id="line2d_67">
      <g>
       <use xlink:href="#m6493817c17" x="482.929737" y="640.8" style="stroke: #000000; stroke-width: 0.8"/>
      </g>
     </g>
     <g id="text_47">
      <!-- 20000 -->
      <g transform="translate(467.023487 655.398438) scale(0.1 -0.1)">
       <use xlink:href="#DejaVuSans-32"/>
       <use xlink:href="#DejaVuSans-30" x="63.623047"/>
       <use xlink:href="#DejaVuSans-30" x="127.246094"/>
       <use xlink:href="#DejaVuSans-30" x="190.869141"/>
       <use xlink:href="#DejaVuSans-30" x="254.492188"/>
      </g>
     </g>
    </g>
    <g id="xtick_25">
     <g id="line2d_68">
      <g>
       <use xlink:href="#m6493817c17" x="519.021713" y="640.8" style="stroke: #000000; stroke-width: 0.8"/>
      </g>
     </g>
     <g id="text_48">
      <!-- 30000 -->
      <g transform="translate(503.115463 655.398438) scale(0.1 -0.1)">
       <use xlink:href="#DejaVuSans-33"/>
       <use xlink:href="#DejaVuSans-30" x="63.623047"/>
       <use xlink:href="#DejaVuSans-30" x="127.246094"/>
       <use xlink:href="#DejaVuSans-30" x="190.869141"/>
       <use xlink:href="#DejaVuSans-30" x="254.492188"/>
      </g>
     </g>
    </g>
    <g id="xtick_26">
     <g id="line2d_69">
      <g>
       <use xlink:href="#m6493817c17" x="555.11369" y="640.8" style="stroke: #000000; stroke-width: 0.8"/>
      </g>
     </g>
     <g id="text_49">
      <!-- 40000 -->
      <g transform="translate(539.20744 655.398438) scale(0.1 -0.1)">
       <use xlink:href="#DejaVuSans-34"/>
       <use xlink:href="#DejaVuSans-30" x="63.623047"/>
       <use xlink:href="#DejaVuSans-30" x="127.246094"/>
       <use xlink:href="#DejaVuSans-30" x="190.869141"/>
       <use xlink:href="#DejaVuSans-30" x="254.492188"/>
      </g>
     </g>
    </g>
    <g id="xtick_27">
     <g id="line2d_70">
      <g>
       <use xlink:href="#m6493817c17" x="591.205666" y="640.8" style="stroke: #000000; stroke-width: 0.8"/>
      </g>
     </g>
     <g id="text_50">
      <!-- 50000 -->
      <g transform="translate(575.299416 655.398438) scale(0.1 -0.1)">
       <use xlink:href="#DejaVuSans-35"/>
       <use xlink:href="#DejaVuSans-30" x="63.623047"/>
       <use xlink:href="#DejaVuSans-30" x="127.246094"/>
       <use xlink:href="#DejaVuSans-30" x="190.869141"/>
       <use xlink:href="#DejaVuSans-30" x="254.492188"/>
      </g>
     </g>
    </g>
    <g id="xtick_28">
     <g id="line2d_71">
      <g>
       <use xlink:href="#m6493817c17" x="627.297642" y="640.8" style="stroke: #000000; stroke-width: 0.8"/>
      </g>
     </g>
     <g id="text_51">
      <!-- 60000 -->
      <g transform="translate(611.391392 655.398438) scale(0.1 -0.1)">
       <use xlink:href="#DejaVuSans-36"/>
       <use xlink:href="#DejaVuSans-30" x="63.623047"/>
       <use xlink:href="#DejaVuSans-30" x="127.246094"/>
       <use xlink:href="#DejaVuSans-30" x="190.869141"/>
       <use xlink:href="#DejaVuSans-30" x="254.492188"/>
      </g>
     </g>
    </g>
    <g id="text_52">
     <!-- time -->
     <g transform="translate(507.626506 670.59625) scale(0.12 -0.12)">
      <use xlink:href="#DejaVuSans-74"/>
      <use xlink:href="#DejaVuSans-69" x="39.208984"/>
      <use xlink:href="#DejaVuSans-6d" x="66.992188"/>
      <use xlink:href="#DejaVuSans-65" x="164.404297"/>
     </g>
    </g>
   </g>
   <g id="matplotlib.axis_8">
    <g id="ytick_24">
     <g id="line2d_72">
      <g>
       <use xlink:href="#m107a91ef62" x="394.363636" y="602.798" style="stroke: #000000; stroke-width: 0.8"/>
      </g>
     </g>
     <g id="text_53">
      <!-- $\mathdefault{10^{-2}}$ -->
      <g transform="translate(363.863636 606.597219) scale(0.1 -0.1)">
       <use xlink:href="#DejaVuSans-31" transform="translate(0 0.765625)"/>
       <use xlink:href="#DejaVuSans-30" transform="translate(63.623047 0.765625)"/>
       <use xlink:href="#DejaVuSans-2212" transform="translate(128.203125 39.046875) scale(0.7)"/>
       <use xlink:href="#DejaVuSans-32" transform="translate(186.855469 39.046875) scale(0.7)"/>
      </g>
     </g>
    </g>
    <g id="ytick_25">
     <g id="line2d_73">
      <g>
       <use xlink:href="#m107a91ef62" x="394.363636" y="502.731094" style="stroke: #000000; stroke-width: 0.8"/>
      </g>
     </g>
     <g id="text_54">
      <!-- $\mathdefault{10^{-1}}$ -->
      <g transform="translate(363.863636 506.530312) scale(0.1 -0.1)">
       <use xlink:href="#DejaVuSans-31" transform="translate(0 0.684375)"/>
       <use xlink:href="#DejaVuSans-30" transform="translate(63.623047 0.684375)"/>
       <use xlink:href="#DejaVuSans-2212" transform="translate(128.203125 38.965625) scale(0.7)"/>
       <use xlink:href="#DejaVuSans-31" transform="translate(186.855469 38.965625) scale(0.7)"/>
      </g>
     </g>
    </g>
    <g id="ytick_26">
     <g id="line2d_74">
      <g>
       <use xlink:href="#m107a91ef62" x="394.363636" y="402.664187" style="stroke: #000000; stroke-width: 0.8"/>
      </g>
     </g>
     <g id="text_55">
      <!-- $\mathdefault{10^{0}}$ -->
      <g transform="translate(369.763636 406.463406) scale(0.1 -0.1)">
       <use xlink:href="#DejaVuSans-31" transform="translate(0 0.765625)"/>
       <use xlink:href="#DejaVuSans-30" transform="translate(63.623047 0.765625)"/>
       <use xlink:href="#DejaVuSans-30" transform="translate(128.203125 39.046875) scale(0.7)"/>
      </g>
     </g>
    </g>
    <g id="ytick_27">
     <g id="line2d_75">
      <defs>
       <path id="m4b19eafccd" d="M 0 0 
L -2 0 
" style="stroke: #000000; stroke-width: 0.6"/>
      </defs>
      <g>
       <use xlink:href="#m4b19eafccd" x="394.363636" y="632.921141" style="stroke: #000000; stroke-width: 0.6"/>
      </g>
     </g>
    </g>
    <g id="ytick_28">
     <g id="line2d_76">
      <g>
       <use xlink:href="#m4b19eafccd" x="394.363636" y="624.997718" style="stroke: #000000; stroke-width: 0.6"/>
      </g>
     </g>
    </g>
    <g id="ytick_29">
     <g id="line2d_77">
      <g>
       <use xlink:href="#m4b19eafccd" x="394.363636" y="618.29856" style="stroke: #000000; stroke-width: 0.6"/>
      </g>
     </g>
    </g>
    <g id="ytick_30">
     <g id="line2d_78">
      <g>
       <use xlink:href="#m4b19eafccd" x="394.363636" y="612.495486" style="stroke: #000000; stroke-width: 0.6"/>
      </g>
     </g>
    </g>
    <g id="ytick_31">
     <g id="line2d_79">
      <g>
       <use xlink:href="#m4b19eafccd" x="394.363636" y="607.376811" style="stroke: #000000; stroke-width: 0.6"/>
      </g>
     </g>
    </g>
    <g id="ytick_32">
     <g id="line2d_80">
      <g>
       <use xlink:href="#m4b19eafccd" x="394.363636" y="572.67486" style="stroke: #000000; stroke-width: 0.6"/>
      </g>
     </g>
    </g>
    <g id="ytick_33">
     <g id="line2d_81">
      <g>
       <use xlink:href="#m4b19eafccd" x="394.363636" y="555.053952" style="stroke: #000000; stroke-width: 0.6"/>
      </g>
     </g>
    </g>
    <g id="ytick_34">
     <g id="line2d_82">
      <g>
       <use xlink:href="#m4b19eafccd" x="394.363636" y="542.551719" style="stroke: #000000; stroke-width: 0.6"/>
      </g>
     </g>
    </g>
    <g id="ytick_35">
     <g id="line2d_83">
      <g>
       <use xlink:href="#m4b19eafccd" x="394.363636" y="532.854234" style="stroke: #000000; stroke-width: 0.6"/>
      </g>
     </g>
    </g>
    <g id="ytick_36">
     <g id="line2d_84">
      <g>
       <use xlink:href="#m4b19eafccd" x="394.363636" y="524.930812" style="stroke: #000000; stroke-width: 0.6"/>
      </g>
     </g>
    </g>
    <g id="ytick_37">
     <g id="line2d_85">
      <g>
       <use xlink:href="#m4b19eafccd" x="394.363636" y="518.231654" style="stroke: #000000; stroke-width: 0.6"/>
      </g>
     </g>
    </g>
    <g id="ytick_38">
     <g id="line2d_86">
      <g>
       <use xlink:href="#m4b19eafccd" x="394.363636" y="512.428579" style="stroke: #000000; stroke-width: 0.6"/>
      </g>
     </g>
    </g>
    <g id="ytick_39">
     <g id="line2d_87">
      <g>
       <use xlink:href="#m4b19eafccd" x="394.363636" y="507.309904" style="stroke: #000000; stroke-width: 0.6"/>
      </g>
     </g>
    </g>
    <g id="ytick_40">
     <g id="line2d_88">
      <g>
       <use xlink:href="#m4b19eafccd" x="394.363636" y="472.607953" style="stroke: #000000; stroke-width: 0.6"/>
      </g>
     </g>
    </g>
    <g id="ytick_41">
     <g id="line2d_89">
      <g>
       <use xlink:href="#m4b19eafccd" x="394.363636" y="454.987045" style="stroke: #000000; stroke-width: 0.6"/>
      </g>
     </g>
    </g>
    <g id="ytick_42">
     <g id="line2d_90">
      <g>
       <use xlink:href="#m4b19eafccd" x="394.363636" y="442.484813" style="stroke: #000000; stroke-width: 0.6"/>
      </g>
     </g>
    </g>
    <g id="ytick_43">
     <g id="line2d_91">
      <g>
       <use xlink:href="#m4b19eafccd" x="394.363636" y="432.787327" style="stroke: #000000; stroke-width: 0.6"/>
      </g>
     </g>
    </g>
    <g id="ytick_44">
     <g id="line2d_92">
      <g>
       <use xlink:href="#m4b19eafccd" x="394.363636" y="424.863905" style="stroke: #000000; stroke-width: 0.6"/>
      </g>
     </g>
    </g>
    <g id="ytick_45">
     <g id="line2d_93">
      <g>
       <use xlink:href="#m4b19eafccd" x="394.363636" y="418.164747" style="stroke: #000000; stroke-width: 0.6"/>
      </g>
     </g>
    </g>
    <g id="ytick_46">
     <g id="line2d_94">
      <g>
       <use xlink:href="#m4b19eafccd" x="394.363636" y="412.361672" style="stroke: #000000; stroke-width: 0.6"/>
      </g>
     </g>
    </g>
    <g id="ytick_47">
     <g id="line2d_95">
      <g>
       <use xlink:href="#m4b19eafccd" x="394.363636" y="407.242997" style="stroke: #000000; stroke-width: 0.6"/>
      </g>
     </g>
    </g>
   </g>
   <g id="line2d_96">
    <g clip-path="url(#p503945554d)">
     <use xlink:href="#m333ecdedb7" x="411.178888" y="400.254545" style="fill: #ff0000; stroke: #ff0000"/>
     <use xlink:href="#m333ecdedb7" x="411.611992" y="403.733152" style="fill: #ff0000; stroke: #ff0000"/>
     <use xlink:href="#m333ecdedb7" x="412.045096" y="443.504717" style="fill: #ff0000; stroke: #ff0000"/>
     <use xlink:href="#m333ecdedb7" x="412.478199" y="539.864394" style="fill: #ff0000; stroke: #ff0000"/>
     <use xlink:href="#m333ecdedb7" x="413.344407" y="629.345455" style="fill: #ff0000; stroke: #ff0000"/>
     <use xlink:href="#m333ecdedb7" x="624.265916" y="418.656776" style="fill: #ff0000; stroke: #ff0000"/>
     <use xlink:href="#m333ecdedb7" x="624.69902" y="412.044215" style="fill: #ff0000; stroke: #ff0000"/>
     <use xlink:href="#m333ecdedb7" x="625.132124" y="447.034422" style="fill: #ff0000; stroke: #ff0000"/>
     <use xlink:href="#m333ecdedb7" x="625.565228" y="594.071568" style="fill: #ff0000; stroke: #ff0000"/>
     <use xlink:href="#m333ecdedb7" x="626.431435" y="577.834011" style="fill: #ff0000; stroke: #ff0000"/>
    </g>
   </g>
   <g id="patch_21">
    <path d="M 394.363636 640.8 
L 394.363636 388.8 
" style="fill: none; stroke: #000000; stroke-width: 0.8; stroke-linejoin: miter; stroke-linecap: square"/>
   </g>
   <g id="patch_22">
    <path d="M 648 640.8 
L 648 388.8 
" style="fill: none; stroke: #000000; stroke-width: 0.8; stroke-linejoin: miter; stroke-linecap: square"/>
   </g>
   <g id="patch_23">
    <path d="M 394.363636 640.8 
L 648 640.8 
" style="fill: none; stroke: #000000; stroke-width: 0.8; stroke-linejoin: miter; stroke-linecap: square"/>
   </g>
   <g id="patch_24">
    <path d="M 394.363636 388.8 
L 648 388.8 
" style="fill: none; stroke: #000000; stroke-width: 0.8; stroke-linejoin: miter; stroke-linecap: square"/>
   </g>
   <g id="legend_4">
    <g id="patch_25">
     <path d="M 492.23125 411.478125 
L 641 411.478125 
Q 643 411.478125 643 409.478125 
L 643 395.8 
Q 643 393.8 641 393.8 
L 492.23125 393.8 
Q 490.23125 393.8 490.23125 395.8 
L 490.23125 409.478125 
Q 490.23125 411.478125 492.23125 411.478125 
z
" style="fill: #ffffff; opacity: 0.8; stroke: #cccccc; stroke-linejoin: miter"/>
    </g>
    <g id="line2d_97">
     <g>
      <use xlink:href="#m333ecdedb7" x="504.23125" y="401.898438" style="fill: #ff0000; stroke: #ff0000"/>
     </g>
    </g>
    <g id="text_56">
     <!-- (weighted residuals)^2 -->
     <g transform="translate(522.23125 405.398438) scale(0.1 -0.1)">
      <use xlink:href="#DejaVuSans-28"/>
      <use xlink:href="#DejaVuSans-77" x="39.013672"/>
      <use xlink:href="#DejaVuSans-65" x="120.800781"/>
      <use xlink:href="#DejaVuSans-69" x="182.324219"/>
      <use xlink:href="#DejaVuSans-67" x="210.107422"/>
      <use xlink:href="#DejaVuSans-68" x="273.583984"/>
      <use xlink:href="#DejaVuSans-74" x="336.962891"/>
      <use xlink:href="#DejaVuSans-65" x="376.171875"/>
      <use xlink:href="#DejaVuSans-64" x="437.695312"/>
      <use xlink:href="#DejaVuSans-20" x="501.171875"/>
      <use xlink:href="#DejaVuSans-72" x="532.958984"/>
      <use xlink:href="#DejaVuSans-65" x="571.822266"/>
      <use xlink:href="#DejaVuSans-73" x="633.345703"/>
      <use xlink:href="#DejaVuSans-69" x="685.445312"/>
      <use xlink:href="#DejaVuSans-64" x="713.228516"/>
      <use xlink:href="#DejaVuSans-75" x="776.705078"/>
      <use xlink:href="#DejaVuSans-61" x="840.083984"/>
      <use xlink:href="#DejaVuSans-6c" x="901.363281"/>
      <use xlink:href="#DejaVuSans-73" x="929.146484"/>
      <use xlink:href="#DejaVuSans-29" x="981.246094"/>
      <use xlink:href="#DejaVuSans-5e" x="1020.259766"/>
      <use xlink:href="#DejaVuSans-32" x="1104.048828"/>
     </g>
    </g>
   </g>
  </g>
 </g>
 <defs>
  <clipPath id="pb9b71b14e8">
   <rect x="90" y="86.4" width="253.636364" height="252"/>
  </clipPath>
  <clipPath id="pd51737795a">
   <rect x="394.363636" y="86.4" width="253.636364" height="252"/>
  </clipPath>
  <clipPath id="pfde4960922">
   <rect x="90" y="388.8" width="253.636364" height="252"/>
  </clipPath>
  <clipPath id="p503945554d">
   <rect x="394.363636" y="388.8" width="253.636364" height="252"/>
  </clipPath>
 </defs>
</svg>
