<?xml version="1.0" encoding="utf-8" standalone="no"?>
<!DOCTYPE svg PUBLIC "-//W3C//DTD SVG 1.1//EN"
  "http://www.w3.org/Graphics/SVG/1.1/DTD/svg11.dtd">
<svg xmlns:xlink="http://www.w3.org/1999/xlink" width="720pt" height="360pt" viewBox="0 0 720 360" xmlns="http://www.w3.org/2000/svg" version="1.1">
 <metadata>
  <rdf:RDF xmlns:dc="http://purl.org/dc/elements/1.1/" xmlns:cc="http://creativecommons.org/ns#" xmlns:rdf="http://www.w3.org/1999/02/22-rdf-syntax-ns#">
   <cc:Work>
    <dc:type rdf:resource="http://purl.org/dc/dcmitype/StillImage"/>
    <dc:date>2025-07-08T18:39:33.677830</dc:date>
    <dc:format>image/svg+xml</dc:format>
    <dc:creator>
     <cc:Agent>
      <dc:title>Matplotlib v3.9.1, https://matplotlib.org/</dc:title>
     </cc:Agent>
    </dc:creator>
   </cc:Work>
  </rdf:RDF>
 </metadata>
 <defs>
  <style type="text/css">*{stroke-linejoin: round; stroke-linecap: butt}</style>
 </defs>
 <g id="figure_1">
  <g id="patch_1">
   <path d="M 0 360 
L 720 360 
L 720 0 
L 0 0 
z
" style="fill: #ffffff"/>
  </g>
  <g id="axes_1">
   <g id="patch_2">
    <path d="M 90 320.4 
L 343.636364 320.4 
L 343.636364 43.2 
L 90 43.2 
z
" style="fill: #ffffff"/>
   </g>
   <g id="matplotlib.axis_1">
    <g id="xtick_1">
     <g id="line2d_1">
      <defs>
       <path id="mfe9d19e5e7" d="M 0 0 
L 0 3.5 
" style="stroke: #000000; stroke-width: 0.8"/>
      </defs>
      <g>
       <use xlink:href="#mfe9d19e5e7" x="110.711085" y="320.4" style="stroke: #000000; stroke-width: 0.8"/>
      </g>
     </g>
     <g id="text_1">
      <!-- 0 -->
      <g transform="translate(107.529835 334.998438) scale(0.1 -0.1)">
       <defs>
        <path id="DejaVuSans-30" d="M 2034 4250 
Q 1547 4250 1301 3770 
Q 1056 3291 1056 2328 
Q 1056 1369 1301 889 
Q 1547 409 2034 409 
Q 2525 409 2770 889 
Q 3016 1369 3016 2328 
Q 3016 3291 2770 3770 
Q 2525 4250 2034 4250 
z
M 2034 4750 
Q 2819 4750 3233 4129 
Q 3647 3509 3647 2328 
Q 3647 1150 3233 529 
Q 2819 -91 2034 -91 
Q 1250 -91 836 529 
Q 422 1150 422 2328 
Q 422 3509 836 4129 
Q 1250 4750 2034 4750 
z
" transform="scale(0.015625)"/>
       </defs>
       <use xlink:href="#DejaVuSans-30"/>
      </g>
     </g>
    </g>
    <g id="xtick_2">
     <g id="line2d_2">
      <g>
       <use xlink:href="#mfe9d19e5e7" x="146.150997" y="320.4" style="stroke: #000000; stroke-width: 0.8"/>
      </g>
     </g>
     <g id="text_2">
      <!-- 10000 -->
      <g transform="translate(130.244747 334.998438) scale(0.1 -0.1)">
       <defs>
        <path id="DejaVuSans-31" d="M 794 531 
L 1825 531 
L 1825 4091 
L 703 3866 
L 703 4441 
L 1819 4666 
L 2450 4666 
L 2450 531 
L 3481 531 
L 3481 0 
L 794 0 
L 794 531 
z
" transform="scale(0.015625)"/>
       </defs>
       <use xlink:href="#DejaVuSans-31"/>
       <use xlink:href="#DejaVuSans-30" x="63.623047"/>
       <use xlink:href="#DejaVuSans-30" x="127.246094"/>
       <use xlink:href="#DejaVuSans-30" x="190.869141"/>
       <use xlink:href="#DejaVuSans-30" x="254.492188"/>
      </g>
     </g>
    </g>
    <g id="xtick_3">
     <g id="line2d_3">
      <g>
       <use xlink:href="#mfe9d19e5e7" x="181.590909" y="320.4" style="stroke: #000000; stroke-width: 0.8"/>
      </g>
     </g>
     <g id="text_3">
      <!-- 20000 -->
      <g transform="translate(165.684659 334.998438) scale(0.1 -0.1)">
       <defs>
        <path id="DejaVuSans-32" d="M 1228 531 
L 3431 531 
L 3431 0 
L 469 0 
L 469 531 
Q 828 903 1448 1529 
Q 2069 2156 2228 2338 
Q 2531 2678 2651 2914 
Q 2772 3150 2772 3378 
Q 2772 3750 2511 3984 
Q 2250 4219 1831 4219 
Q 1534 4219 1204 4116 
Q 875 4013 500 3803 
L 500 4441 
Q 881 4594 1212 4672 
Q 1544 4750 1819 4750 
Q 2544 4750 2975 4387 
Q 3406 4025 3406 3419 
Q 3406 3131 3298 2873 
Q 3191 2616 2906 2266 
Q 2828 2175 2409 1742 
Q 1991 1309 1228 531 
z
" transform="scale(0.015625)"/>
       </defs>
       <use xlink:href="#DejaVuSans-32"/>
       <use xlink:href="#DejaVuSans-30" x="63.623047"/>
       <use xlink:href="#DejaVuSans-30" x="127.246094"/>
       <use xlink:href="#DejaVuSans-30" x="190.869141"/>
       <use xlink:href="#DejaVuSans-30" x="254.492188"/>
      </g>
     </g>
    </g>
    <g id="xtick_4">
     <g id="line2d_4">
      <g>
       <use xlink:href="#mfe9d19e5e7" x="217.030821" y="320.4" style="stroke: #000000; stroke-width: 0.8"/>
      </g>
     </g>
     <g id="text_4">
      <!-- 30000 -->
      <g transform="translate(201.124571 334.998438) scale(0.1 -0.1)">
       <defs>
        <path id="DejaVuSans-33" d="M 2597 2516 
Q 3050 2419 3304 2112 
Q 3559 1806 3559 1356 
Q 3559 666 3084 287 
Q 2609 -91 1734 -91 
Q 1441 -91 1130 -33 
Q 819 25 488 141 
L 488 750 
Q 750 597 1062 519 
Q 1375 441 1716 441 
Q 2309 441 2620 675 
Q 2931 909 2931 1356 
Q 2931 1769 2642 2001 
Q 2353 2234 1838 2234 
L 1294 2234 
L 1294 2753 
L 1863 2753 
Q 2328 2753 2575 2939 
Q 2822 3125 2822 3475 
Q 2822 3834 2567 4026 
Q 2313 4219 1838 4219 
Q 1578 4219 1281 4162 
Q 984 4106 628 3988 
L 628 4550 
Q 988 4650 1302 4700 
Q 1616 4750 1894 4750 
Q 2613 4750 3031 4423 
Q 3450 4097 3450 3541 
Q 3450 3153 3228 2886 
Q 3006 2619 2597 2516 
z
" transform="scale(0.015625)"/>
       </defs>
       <use xlink:href="#DejaVuSans-33"/>
       <use xlink:href="#DejaVuSans-30" x="63.623047"/>
       <use xlink:href="#DejaVuSans-30" x="127.246094"/>
       <use xlink:href="#DejaVuSans-30" x="190.869141"/>
       <use xlink:href="#DejaVuSans-30" x="254.492188"/>
      </g>
     </g>
    </g>
    <g id="xtick_5">
     <g id="line2d_5">
      <g>
       <use xlink:href="#mfe9d19e5e7" x="252.470733" y="320.4" style="stroke: #000000; stroke-width: 0.8"/>
      </g>
     </g>
     <g id="text_5">
      <!-- 40000 -->
      <g transform="translate(236.564483 334.998438) scale(0.1 -0.1)">
       <defs>
        <path id="DejaVuSans-34" d="M 2419 4116 
L 825 1625 
L 2419 1625 
L 2419 4116 
z
M 2253 4666 
L 3047 4666 
L 3047 1625 
L 3713 1625 
L 3713 1100 
L 3047 1100 
L 3047 0 
L 2419 0 
L 2419 1100 
L 313 1100 
L 313 1709 
L 2253 4666 
z
" transform="scale(0.015625)"/>
       </defs>
       <use xlink:href="#DejaVuSans-34"/>
       <use xlink:href="#DejaVuSans-30" x="63.623047"/>
       <use xlink:href="#DejaVuSans-30" x="127.246094"/>
       <use xlink:href="#DejaVuSans-30" x="190.869141"/>
       <use xlink:href="#DejaVuSans-30" x="254.492188"/>
      </g>
     </g>
    </g>
    <g id="xtick_6">
     <g id="line2d_6">
      <g>
       <use xlink:href="#mfe9d19e5e7" x="287.910646" y="320.4" style="stroke: #000000; stroke-width: 0.8"/>
      </g>
     </g>
     <g id="text_6">
      <!-- 50000 -->
      <g transform="translate(272.004396 334.998438) scale(0.1 -0.1)">
       <defs>
        <path id="DejaVuSans-35" d="M 691 4666 
L 3169 4666 
L 3169 4134 
L 1269 4134 
L 1269 2991 
Q 1406 3038 1543 3061 
Q 1681 3084 1819 3084 
Q 2600 3084 3056 2656 
Q 3513 2228 3513 1497 
Q 3513 744 3044 326 
Q 2575 -91 1722 -91 
Q 1428 -91 1123 -41 
Q 819 9 494 109 
L 494 744 
Q 775 591 1075 516 
Q 1375 441 1709 441 
Q 2250 441 2565 725 
Q 2881 1009 2881 1497 
Q 2881 1984 2565 2268 
Q 2250 2553 1709 2553 
Q 1456 2553 1204 2497 
Q 953 2441 691 2322 
L 691 4666 
z
" transform="scale(0.015625)"/>
       </defs>
       <use xlink:href="#DejaVuSans-35"/>
       <use xlink:href="#DejaVuSans-30" x="63.623047"/>
       <use xlink:href="#DejaVuSans-30" x="127.246094"/>
       <use xlink:href="#DejaVuSans-30" x="190.869141"/>
       <use xlink:href="#DejaVuSans-30" x="254.492188"/>
      </g>
     </g>
    </g>
    <g id="xtick_7">
     <g id="line2d_7">
      <g>
       <use xlink:href="#mfe9d19e5e7" x="323.350558" y="320.4" style="stroke: #000000; stroke-width: 0.8"/>
      </g>
     </g>
     <g id="text_7">
      <!-- 60000 -->
      <g transform="translate(307.444308 334.998438) scale(0.1 -0.1)">
       <defs>
        <path id="DejaVuSans-36" d="M 2113 2584 
Q 1688 2584 1439 2293 
Q 1191 2003 1191 1497 
Q 1191 994 1439 701 
Q 1688 409 2113 409 
Q 2538 409 2786 701 
Q 3034 994 3034 1497 
Q 3034 2003 2786 2293 
Q 2538 2584 2113 2584 
z
M 3366 4563 
L 3366 3988 
Q 3128 4100 2886 4159 
Q 2644 4219 2406 4219 
Q 1781 4219 1451 3797 
Q 1122 3375 1075 2522 
Q 1259 2794 1537 2939 
Q 1816 3084 2150 3084 
Q 2853 3084 3261 2657 
Q 3669 2231 3669 1497 
Q 3669 778 3244 343 
Q 2819 -91 2113 -91 
Q 1303 -91 875 529 
Q 447 1150 447 2328 
Q 447 3434 972 4092 
Q 1497 4750 2381 4750 
Q 2619 4750 2861 4703 
Q 3103 4656 3366 4563 
z
" transform="scale(0.015625)"/>
       </defs>
       <use xlink:href="#DejaVuSans-36"/>
       <use xlink:href="#DejaVuSans-30" x="63.623047"/>
       <use xlink:href="#DejaVuSans-30" x="127.246094"/>
       <use xlink:href="#DejaVuSans-30" x="190.869141"/>
       <use xlink:href="#DejaVuSans-30" x="254.492188"/>
      </g>
     </g>
    </g>
    <g id="text_8">
     <!-- time -->
     <g transform="translate(203.262869 350.19625) scale(0.12 -0.12)">
      <defs>
       <path id="DejaVuSans-74" d="M 1172 4494 
L 1172 3500 
L 2356 3500 
L 2356 3053 
L 1172 3053 
L 1172 1153 
Q 1172 725 1289 603 
Q 1406 481 1766 481 
L 2356 481 
L 2356 0 
L 1766 0 
Q 1100 0 847 248 
Q 594 497 594 1153 
L 594 3053 
L 172 3053 
L 172 3500 
L 594 3500 
L 594 4494 
L 1172 4494 
z
" transform="scale(0.015625)"/>
       <path id="DejaVuSans-69" d="M 603 3500 
L 1178 3500 
L 1178 0 
L 603 0 
L 603 3500 
z
M 603 4863 
L 1178 4863 
L 1178 4134 
L 603 4134 
L 603 4863 
z
" transform="scale(0.015625)"/>
       <path id="DejaVuSans-6d" d="M 3328 2828 
Q 3544 3216 3844 3400 
Q 4144 3584 4550 3584 
Q 5097 3584 5394 3201 
Q 5691 2819 5691 2113 
L 5691 0 
L 5113 0 
L 5113 2094 
Q 5113 2597 4934 2840 
Q 4756 3084 4391 3084 
Q 3944 3084 3684 2787 
Q 3425 2491 3425 1978 
L 3425 0 
L 2847 0 
L 2847 2094 
Q 2847 2600 2669 2842 
Q 2491 3084 2119 3084 
Q 1678 3084 1418 2786 
Q 1159 2488 1159 1978 
L 1159 0 
L 581 0 
L 581 3500 
L 1159 3500 
L 1159 2956 
Q 1356 3278 1631 3431 
Q 1906 3584 2284 3584 
Q 2666 3584 2933 3390 
Q 3200 3197 3328 2828 
z
" transform="scale(0.015625)"/>
       <path id="DejaVuSans-65" d="M 3597 1894 
L 3597 1613 
L 953 1613 
Q 991 1019 1311 708 
Q 1631 397 2203 397 
Q 2534 397 2845 478 
Q 3156 559 3463 722 
L 3463 178 
Q 3153 47 2828 -22 
Q 2503 -91 2169 -91 
Q 1331 -91 842 396 
Q 353 884 353 1716 
Q 353 2575 817 3079 
Q 1281 3584 2069 3584 
Q 2775 3584 3186 3129 
Q 3597 2675 3597 1894 
z
M 3022 2063 
Q 3016 2534 2758 2815 
Q 2500 3097 2075 3097 
Q 1594 3097 1305 2825 
Q 1016 2553 972 2059 
L 3022 2063 
z
" transform="scale(0.015625)"/>
      </defs>
      <use xlink:href="#DejaVuSans-74"/>
      <use xlink:href="#DejaVuSans-69" x="39.208984"/>
      <use xlink:href="#DejaVuSans-6d" x="66.992188"/>
      <use xlink:href="#DejaVuSans-65" x="164.404297"/>
     </g>
    </g>
   </g>
   <g id="matplotlib.axis_2">
    <g id="ytick_1">
     <g id="line2d_8">
      <defs>
       <path id="me4b115337e" d="M 0 0 
L -3.5 0 
" style="stroke: #000000; stroke-width: 0.8"/>
      </defs>
      <g>
       <use xlink:href="#me4b115337e" x="90" y="307.8" style="stroke: #000000; stroke-width: 0.8"/>
      </g>
     </g>
     <g id="text_9">
      <!-- 0.00000 -->
      <g transform="translate(41.646875 311.599219) scale(0.1 -0.1)">
       <defs>
        <path id="DejaVuSans-2e" d="M 684 794 
L 1344 794 
L 1344 0 
L 684 0 
L 684 794 
z
" transform="scale(0.015625)"/>
       </defs>
       <use xlink:href="#DejaVuSans-30"/>
       <use xlink:href="#DejaVuSans-2e" x="63.623047"/>
       <use xlink:href="#DejaVuSans-30" x="95.410156"/>
       <use xlink:href="#DejaVuSans-30" x="159.033203"/>
       <use xlink:href="#DejaVuSans-30" x="222.65625"/>
       <use xlink:href="#DejaVuSans-30" x="286.279297"/>
       <use xlink:href="#DejaVuSans-30" x="349.902344"/>
      </g>
     </g>
    </g>
    <g id="ytick_2">
     <g id="line2d_9">
      <g>
       <use xlink:href="#me4b115337e" x="90" y="257.892244" style="stroke: #000000; stroke-width: 0.8"/>
      </g>
     </g>
     <g id="text_10">
      <!-- 0.00005 -->
      <g transform="translate(41.646875 261.691463) scale(0.1 -0.1)">
       <use xlink:href="#DejaVuSans-30"/>
       <use xlink:href="#DejaVuSans-2e" x="63.623047"/>
       <use xlink:href="#DejaVuSans-30" x="95.410156"/>
       <use xlink:href="#DejaVuSans-30" x="159.033203"/>
       <use xlink:href="#DejaVuSans-30" x="222.65625"/>
       <use xlink:href="#DejaVuSans-30" x="286.279297"/>
       <use xlink:href="#DejaVuSans-35" x="349.902344"/>
      </g>
     </g>
    </g>
    <g id="ytick_3">
     <g id="line2d_10">
      <g>
       <use xlink:href="#me4b115337e" x="90" y="207.984488" style="stroke: #000000; stroke-width: 0.8"/>
      </g>
     </g>
     <g id="text_11">
      <!-- 0.00010 -->
      <g transform="translate(41.646875 211.783706) scale(0.1 -0.1)">
       <use xlink:href="#DejaVuSans-30"/>
       <use xlink:href="#DejaVuSans-2e" x="63.623047"/>
       <use xlink:href="#DejaVuSans-30" x="95.410156"/>
       <use xlink:href="#DejaVuSans-30" x="159.033203"/>
       <use xlink:href="#DejaVuSans-30" x="222.65625"/>
       <use xlink:href="#DejaVuSans-31" x="286.279297"/>
       <use xlink:href="#DejaVuSans-30" x="349.902344"/>
      </g>
     </g>
    </g>
    <g id="ytick_4">
     <g id="line2d_11">
      <g>
       <use xlink:href="#me4b115337e" x="90" y="158.076732" style="stroke: #000000; stroke-width: 0.8"/>
      </g>
     </g>
     <g id="text_12">
      <!-- 0.00015 -->
      <g transform="translate(41.646875 161.87595) scale(0.1 -0.1)">
       <use xlink:href="#DejaVuSans-30"/>
       <use xlink:href="#DejaVuSans-2e" x="63.623047"/>
       <use xlink:href="#DejaVuSans-30" x="95.410156"/>
       <use xlink:href="#DejaVuSans-30" x="159.033203"/>
       <use xlink:href="#DejaVuSans-30" x="222.65625"/>
       <use xlink:href="#DejaVuSans-31" x="286.279297"/>
       <use xlink:href="#DejaVuSans-35" x="349.902344"/>
      </g>
     </g>
    </g>
    <g id="ytick_5">
     <g id="line2d_12">
      <g>
       <use xlink:href="#me4b115337e" x="90" y="108.168975" style="stroke: #000000; stroke-width: 0.8"/>
      </g>
     </g>
     <g id="text_13">
      <!-- 0.00020 -->
      <g transform="translate(41.646875 111.968194) scale(0.1 -0.1)">
       <use xlink:href="#DejaVuSans-30"/>
       <use xlink:href="#DejaVuSans-2e" x="63.623047"/>
       <use xlink:href="#DejaVuSans-30" x="95.410156"/>
       <use xlink:href="#DejaVuSans-30" x="159.033203"/>
       <use xlink:href="#DejaVuSans-30" x="222.65625"/>
       <use xlink:href="#DejaVuSans-32" x="286.279297"/>
       <use xlink:href="#DejaVuSans-30" x="349.902344"/>
      </g>
     </g>
    </g>
    <g id="ytick_6">
     <g id="line2d_13">
      <g>
       <use xlink:href="#me4b115337e" x="90" y="58.261219" style="stroke: #000000; stroke-width: 0.8"/>
      </g>
     </g>
     <g id="text_14">
      <!-- 0.00025 -->
      <g transform="translate(41.646875 62.060438) scale(0.1 -0.1)">
       <use xlink:href="#DejaVuSans-30"/>
       <use xlink:href="#DejaVuSans-2e" x="63.623047"/>
       <use xlink:href="#DejaVuSans-30" x="95.410156"/>
       <use xlink:href="#DejaVuSans-30" x="159.033203"/>
       <use xlink:href="#DejaVuSans-30" x="222.65625"/>
       <use xlink:href="#DejaVuSans-32" x="286.279297"/>
       <use xlink:href="#DejaVuSans-35" x="349.902344"/>
      </g>
     </g>
    </g>
    <g id="text_15">
     <!-- [Cve_e3174] -->
     <g transform="translate(34.8175 219.876562) rotate(-90) scale(0.12 -0.12)">
      <defs>
       <path id="DejaVuSans-5b" d="M 550 4863 
L 1875 4863 
L 1875 4416 
L 1125 4416 
L 1125 -397 
L 1875 -397 
L 1875 -844 
L 550 -844 
L 550 4863 
z
" transform="scale(0.015625)"/>
       <path id="DejaVuSans-43" d="M 4122 4306 
L 4122 3641 
Q 3803 3938 3442 4084 
Q 3081 4231 2675 4231 
Q 1875 4231 1450 3742 
Q 1025 3253 1025 2328 
Q 1025 1406 1450 917 
Q 1875 428 2675 428 
Q 3081 428 3442 575 
Q 3803 722 4122 1019 
L 4122 359 
Q 3791 134 3420 21 
Q 3050 -91 2638 -91 
Q 1578 -91 968 557 
Q 359 1206 359 2328 
Q 359 3453 968 4101 
Q 1578 4750 2638 4750 
Q 3056 4750 3426 4639 
Q 3797 4528 4122 4306 
z
" transform="scale(0.015625)"/>
       <path id="DejaVuSans-76" d="M 191 3500 
L 800 3500 
L 1894 563 
L 2988 3500 
L 3597 3500 
L 2284 0 
L 1503 0 
L 191 3500 
z
" transform="scale(0.015625)"/>
       <path id="DejaVuSans-5f" d="M 3263 -1063 
L 3263 -1509 
L -63 -1509 
L -63 -1063 
L 3263 -1063 
z
" transform="scale(0.015625)"/>
       <path id="DejaVuSans-37" d="M 525 4666 
L 3525 4666 
L 3525 4397 
L 1831 0 
L 1172 0 
L 2766 4134 
L 525 4134 
L 525 4666 
z
" transform="scale(0.015625)"/>
       <path id="DejaVuSans-5d" d="M 1947 4863 
L 1947 -844 
L 622 -844 
L 622 -397 
L 1369 -397 
L 1369 4416 
L 622 4416 
L 622 4863 
L 1947 4863 
z
" transform="scale(0.015625)"/>
      </defs>
      <use xlink:href="#DejaVuSans-5b"/>
      <use xlink:href="#DejaVuSans-43" x="39.013672"/>
      <use xlink:href="#DejaVuSans-76" x="108.837891"/>
      <use xlink:href="#DejaVuSans-65" x="168.017578"/>
      <use xlink:href="#DejaVuSans-5f" x="229.541016"/>
      <use xlink:href="#DejaVuSans-65" x="279.541016"/>
      <use xlink:href="#DejaVuSans-33" x="341.064453"/>
      <use xlink:href="#DejaVuSans-31" x="404.6875"/>
      <use xlink:href="#DejaVuSans-37" x="468.310547"/>
      <use xlink:href="#DejaVuSans-34" x="531.933594"/>
      <use xlink:href="#DejaVuSans-5d" x="595.556641"/>
     </g>
    </g>
   </g>
   <g id="line2d_14">
    <defs>
     <path id="ma6dd244a64" d="M -5 5 
L 5 5 
L 5 -5 
L -5 -5 
z
" style="stroke: #000000; stroke-linejoin: miter"/>
    </defs>
    <g clip-path="url(#p287337eab0)">
     <use xlink:href="#ma6dd244a64" x="111.136364" y="249.014567" style="stroke: #000000; stroke-linejoin: miter"/>
     <use xlink:href="#ma6dd244a64" x="111.561643" y="165.371114" style="stroke: #000000; stroke-linejoin: miter"/>
     <use xlink:href="#ma6dd244a64" x="111.986922" y="123.494465" style="stroke: #000000; stroke-linejoin: miter"/>
     <use xlink:href="#ma6dd244a64" x="112.4122" y="155.237139" style="stroke: #000000; stroke-linejoin: miter"/>
     <use xlink:href="#ma6dd244a64" x="113.262758" y="206.794657" style="stroke: #000000; stroke-linejoin: miter"/>
     <use xlink:href="#ma6dd244a64" x="115.814432" y="277.464142" style="stroke: #000000; stroke-linejoin: miter"/>
     <use xlink:href="#ma6dd244a64" x="319.948326" y="269.847813" style="stroke: #000000; stroke-linejoin: miter"/>
     <use xlink:href="#ma6dd244a64" x="320.373605" y="207.031223" style="stroke: #000000; stroke-linejoin: miter"/>
     <use xlink:href="#ma6dd244a64" x="320.798884" y="158.402647" style="stroke: #000000; stroke-linejoin: miter"/>
     <use xlink:href="#ma6dd244a64" x="321.224163" y="100.407339" style="stroke: #000000; stroke-linejoin: miter"/>
     <use xlink:href="#ma6dd244a64" x="321.649442" y="143.987281" style="stroke: #000000; stroke-linejoin: miter"/>
     <use xlink:href="#ma6dd244a64" x="322.5" y="198.652224" style="stroke: #000000; stroke-linejoin: miter"/>
     <use xlink:href="#ma6dd244a64" x="320.798884" y="275.814707" style="stroke: #000000; stroke-linejoin: miter"/>
    </g>
   </g>
   <g id="line2d_15">
    <path d="M 105.607737 307.8 
L 110.738218 307.710162 
L 110.769858 305.967958 
L 110.837403 285.437037 
L 111.310738 71.205839 
L 111.347055 72.000659 
L 111.468113 83.206915 
L 112.68833 231.655454 
L 113.16722 255.074266 
L 113.670916 269.74537 
L 114.143985 278.379845 
L 114.710415 285.11975 
L 115.401041 290.476755 
L 115.834594 293.414228 
L 115.864114 292.599896 
L 115.917826 281.495788 
L 116.069391 181.836011 
L 116.33403 64.029762 
L 116.409455 59.50904 
L 116.454711 60.645841 
L 116.590477 74.68953 
L 117.676607 215.886479 
L 118.174417 244.37806 
L 118.687312 261.760292 
L 119.217178 272.84469 
L 119.743291 280.074951 
L 120.407188 286.27239 
L 120.938128 290.562225 
L 120.967131 289.79515 
L 121.020439 278.980318 
L 121.163636 186.077785 
L 121.426987 62.998789 
L 121.518065 57.145278 
L 121.557099 58.255774 
L 121.68721 71.502195 
L 122.81918 217.098248 
L 123.313604 244.48538 
L 123.834049 261.656158 
L 124.387313 272.890759 
L 124.944888 280.277176 
L 125.626802 286.422276 
L 126.041663 289.933295 
L 126.073313 288.965033 
L 126.13046 275.843328 
L 126.301503 159.966441 
L 126.544925 60.56871 
L 126.611482 56.638673 
L 126.664727 57.966134 
L 126.797839 72.036552 
L 127.876052 213.323743 
L 128.368569 242.077473 
L 128.887708 260.088434 
L 129.43018 271.664604 
L 129.919478 278.612639 
L 130.625149 285.455559 
L 131.14548 289.460376 
L 131.170428 288.910708 
L 131.218347 280.817742 
L 131.338067 209.744093 
L 131.642143 60.926984 
L 131.724836 56.248671 
L 131.766182 57.493181 
L 131.904003 72.085889 
L 132.965222 211.992088 
L 133.461376 241.38783 
L 133.971312 259.367164 
L 134.517453 271.231485 
L 135.049981 278.797219 
L 135.696752 285.089806 
L 136.248151 289.814994 
L 136.278089 288.990738 
L 136.332885 277.372986 
L 136.482988 178.349753 
L 136.746909 61.030955 
L 136.824655 56.511994 
L 136.880187 58.3823 
L 137.035679 76.557669 
L 137.968628 204.072988 
L 138.457315 236.433817 
L 138.968384 256.450236 
L 139.495547 269.085185 
L 140.080463 278.017321 
L 140.662705 284.020255 
L 141.352021 289.993225 
L 141.381717 289.146986 
L 141.436295 277.522212 
L 141.588324 177.020944 
L 141.847409 61.540953 
L 141.92982 56.658112 
L 141.971025 57.807368 
L 142.108377 72.143434 
L 143.179721 212.863115 
L 143.674187 241.898341 
L 144.182389 259.689088 
L 144.728755 271.482271 
L 145.262861 279.01624 
L 145.907708 285.245146 
L 146.456025 289.087044 
L 146.471037 288.915257 
L 146.511188 284.791586 
L 146.601742 243.193962 
L 146.982531 57.616694 
L 147.028761 55.948641 
L 147.086548 57.807325 
L 147.236795 75.182956 
L 148.196065 205.447767 
L 148.681479 236.976976 
L 149.190008 256.617022 
L 149.713093 269.050829 
L 150.239692 277.220182 
L 150.870184 283.857815 
L 151.559035 289.034887 
L 151.571994 288.918801 
L 151.610241 285.550939 
L 151.69187 251.756027 
L 152.1005 56.686084 
L 152.127528 55.925192 
L 152.181585 57.266475 
L 152.316726 71.669247 
L 153.384346 212.20004 
L 153.870856 241.01265 
L 154.384394 259.188141 
L 154.906786 270.668301 
L 155.420045 278.155576 
L 156.102916 284.928876 
L 156.662451 288.93769 
L 156.680358 288.688628 
L 156.725017 283.061405 
L 156.82549 231.123861 
L 157.165387 59.710419 
L 157.234806 55.824519 
L 157.29034 57.503668 
L 157.44306 74.998529 
L 158.401032 205.211228 
L 158.88696 236.837124 
L 159.400655 256.665803 
L 159.935189 269.280498 
L 160.511449 277.982472 
L 161.124738 284.227857 
L 161.765984 289.639714 
L 161.790907 289.065822 
L 161.842587 279.673075 
L 161.971929 199.354521 
L 162.255704 61.937413 
L 162.336301 56.383614 
L 162.393871 58.053721 
L 162.543552 75.077489 
L 163.510722 206.113903 
L 164.005822 237.918531 
L 164.518273 257.359779 
L 165.049894 269.723774 
L 165.626399 278.319607 
L 166.273565 284.771444 
L 166.869503 289.348873 
L 166.891206 288.933515 
L 166.941039 280.932763 
L 167.060596 210.328655 
L 167.362252 61.268563 
L 167.442147 56.150111 
L 167.49541 57.728246 
L 167.641884 74.120066 
L 168.627253 207.057391 
L 169.119937 238.314602 
L 169.625938 257.378981 
L 170.151704 269.604517 
L 170.72714 278.211595 
L 171.397108 284.874573 
L 171.972339 289.345324 
L 171.997504 288.780137 
L 172.04585 280.483462 
L 172.167454 207.644544 
L 172.459657 62.093755 
L 172.554212 56.171601 
L 172.594736 57.494535 
L 172.729815 71.856131 
L 173.796938 212.302736 
L 174.283222 241.10724 
L 174.796522 259.274237 
L 175.317259 270.72032 
L 175.826625 278.161568 
L 176.492055 284.803059 
L 177.075873 289.215135 
L 177.098732 288.761619 
L 177.146031 281.303632 
L 177.263289 213.248973 
L 177.566151 61.53991 
L 177.647683 56.046574 
L 177.702038 57.618755 
L 177.851513 74.458523 
L 178.829894 206.649619 
L 179.319085 237.885754 
L 179.821864 257.008461 
L 180.365187 269.682478 
L 180.943288 278.286284 
L 181.639486 285.131791 
L 182.179104 289.419072 
L 182.206786 288.696702 
L 182.258718 278.533408 
L 182.401729 186.601431 
L 182.667754 61.950021 
L 182.749014 56.216651 
L 182.803187 57.647789 
L 182.93862 72.212984 
L 183.994995 211.677419 
L 184.482553 240.804291 
L 184.997198 259.135786 
L 185.535848 270.950951 
L 186.05516 278.444533 
L 186.772738 285.415591 
L 187.282053 289.323661 
L 187.306796 288.799502 
L 187.358371 279.679027 
L 187.488799 198.96615 
L 187.773708 61.508559 
L 187.858833 56.126625 
L 187.909908 57.772336 
L 188.063132 75.281233 
L 189.01653 205.034945 
L 189.510254 237.176234 
L 190.021003 256.828206 
L 190.567462 269.637795 
L 191.150305 278.320923 
L 191.745585 284.326838 
L 192.384759 289.178131 
L 192.404304 288.910146 
L 192.448566 283.267327 
L 192.55011 230.489835 
L 192.888743 59.915034 
L 192.954414 56.038754 
L 193.00695 57.302037 
L 193.138291 71.031491 
L 194.241552 214.557827 
L 194.740646 242.981022 
L 195.252875 260.364726 
L 195.806972 271.967725 
L 196.414631 280.123243 
L 197.114198 286.39498 
L 197.489565 289.331164 
L 197.518049 288.52756 
L 197.571935 277.318721 
L 197.720153 180.171806 
L 197.981076 61.420813 
L 198.059977 56.141571 
L 198.107318 57.263299 
L 198.233559 70.009587 
L 199.385516 217.56149 
L 199.874702 244.353668 
L 200.39545 261.435541 
L 200.944605 272.575125 
L 201.495535 279.917207 
L 202.149046 285.911499 
L 202.592855 289.560601 
L 202.621249 288.764555 
L 202.674951 277.661207 
L 202.822761 180.937077 
L 203.083285 61.764219 
L 203.162178 56.330542 
L 203.209514 57.384382 
L 203.335744 70.019683 
L 204.487591 217.590004 
L 204.976731 244.400197 
L 205.497429 261.487783 
L 206.044922 272.600107 
L 206.604412 280.040602 
L 207.193667 285.50769 
L 207.695746 289.538296 
L 207.723364 288.825037 
L 207.775219 278.730701 
L 207.918017 187.052881 
L 208.18379 62.149949 
L 208.264946 56.319315 
L 208.319051 57.693778 
L 208.454311 72.153056 
L 209.522868 212.595376 
L 210.009805 241.337815 
L 210.523794 259.454829 
L 211.046282 270.882967 
L 211.559548 278.332073 
L 212.24246 285.068616 
L 212.799286 289.057345 
L 212.819708 288.714496 
L 212.865808 282.166585 
L 212.969081 226.306168 
L 213.303925 59.616433 
L 213.373348 55.918976 
L 213.428886 57.706107 
L 213.581616 75.354639 
L 214.525766 204.259605 
L 215.011725 236.29687 
L 215.525454 256.358973 
L 216.05348 268.97739 
L 216.600639 277.428919 
L 217.263543 284.276037 
L 217.903067 288.908064 
L 217.914825 288.806373 
L 217.951974 285.73365 
L 218.034677 252.079236 
L 218.443985 56.586849 
L 218.475565 55.8 
L 218.522933 57.051689 
L 218.66504 72.271135 
L 219.707157 210.536731 
L 220.196636 240.146139 
L 220.701905 258.418539 
L 221.232147 270.305815 
L 221.816111 278.746784 
L 222.406783 284.57345 
L 223.006186 289.821276 
L 223.034493 289.031889 
L 223.088019 278.028741 
L 223.235407 181.732526 
L 223.495561 62.128312 
L 223.574456 56.541564 
L 223.621794 57.528735 
L 223.748027 70.056426 
L 224.915681 218.746321 
L 225.404833 245.122186 
L 225.925544 261.953225 
L 226.455765 272.63877 
L 227.009261 280.014332 
L 227.700334 286.279873 
L 228.109249 289.378028 
L 228.136985 288.651771 
L 228.189047 278.424631 
L 228.33259 186.00846 
L 228.599557 61.684797 
L 228.681085 56.178676 
L 228.735438 57.743955 
L 228.884907 74.570163 
L 229.86325 206.731687 
L 230.352421 237.958409 
L 230.855181 257.072138 
L 231.398038 269.729193 
L 231.974565 278.308804 
L 232.663069 285.092006 
L 233.212703 289.271706 
L 233.235603 288.815214 
L 233.283012 281.31222 
L 233.400698 212.854103 
L 233.70351 61.511319 
L 233.786735 56.085335 
L 233.842219 57.865465 
L 233.994798 75.477081 
L 234.938017 204.274918 
L 235.423497 236.312018 
L 235.936719 256.377446 
L 236.461038 268.937153 
L 237.043398 277.854626 
L 237.704122 284.553515 
L 238.316161 289.062413 
L 238.334198 288.803064 
L 238.379176 283.035901 
L 238.48078 229.988355 
L 238.823705 59.287019 
L 238.892122 55.92089 
L 238.946856 57.784624 
L 239.097372 75.206258 
L 240.041524 204.175555 
L 240.534125 236.579148 
L 241.040409 256.304505 
L 241.584198 269.239281 
L 242.154844 277.894691 
L 242.781074 284.282101 
L 243.419801 289.015906 
L 243.434942 288.836186 
L 243.47551 284.574117 
L 243.56689 242.076076 
L 243.929332 59.011152 
L 243.992538 55.883741 
L 244.039943 57.14903 
L 244.182158 72.405393 
L 245.209265 209.441804 
L 245.699116 239.532413 
L 246.204768 258.068009 
L 246.751589 270.389016 
L 247.338993 278.84812 
L 247.973571 285.008761 
L 248.522859 288.927652 
L 248.540911 288.668609 
L 248.58593 282.889653 
L 248.687655 229.731117 
L 249.030947 59.118987 
L 249.099438 55.814385 
L 249.154231 57.722167 
L 249.304911 75.233939 
L 250.250087 204.259545 
L 250.743222 236.634212 
L 251.250056 256.337683 
L 251.774711 268.887437 
L 252.320328 277.340533 
L 252.900032 283.486382 
L 253.625964 289.638125 
L 253.651217 289.060873 
L 253.699738 280.664123 
L 253.822064 207.107034 
L 254.114977 62.074217 
L 254.197961 56.374873 
L 254.253284 58.001895 
L 254.405423 75.320292 
L 255.359744 205.171929 
L 255.843821 236.822298 
L 256.355558 256.680448 
L 256.882555 269.209855 
L 257.429059 277.610151 
L 258.092538 284.426595 
L 258.729834 289.011344 
L 258.741587 288.90962 
L 258.778724 285.840243 
L 258.861393 252.217902 
L 259.270829 56.670489 
L 259.302445 55.885749 
L 259.34987 57.144883 
L 259.492143 72.399801 
L 260.519669 209.475319 
L 261.00972 239.563363 
L 261.515579 258.094144 
L 262.062813 270.413815 
L 262.65203 278.886313 
L 263.289493 285.059059 
L 263.832876 288.992081 
L 263.853389 288.641096 
L 263.89968 281.995724 
L 264.003568 225.497913 
L 264.327024 60.819958 
L 264.409177 55.864164 
L 264.463945 57.750662 
L 264.614557 75.220532 
L 265.559308 204.224054 
L 266.052221 236.611781 
L 266.558826 256.324799 
L 267.082784 268.871704 
L 267.626176 277.305761 
L 268.210368 283.504439 
L 268.935039 289.630229 
L 268.9604 289.100292 
L 269.007851 281.244695 
L 269.129905 208.782253 
L 269.433643 60.915039 
L 269.514813 56.371393 
L 269.555398 57.554783 
L 269.690681 71.670819 
L 270.77295 213.386256 
L 271.259971 241.821024 
L 271.774049 259.758234 
L 272.311715 271.344887 
L 272.899052 279.513005 
L 273.568559 285.766233 
L 274.03957 289.15226 
L 274.062542 288.689289 
L 274.110095 281.108173 
L 274.228283 212.133323 
L 274.533411 60.99474 
L 274.615511 55.994242 
L 274.670245 57.854125 
L 274.820762 75.268825 
L 275.764915 204.22429 
L 276.257517 236.622301 
L 276.763802 256.342207 
L 277.307385 269.26783 
L 277.877249 277.910048 
L 278.504363 284.30413 
L 279.143225 289.084227 
L 279.15836 288.904449 
L 279.198915 284.646491 
L 279.290263 242.180058 
L 279.652773 59.065757 
L 279.716032 55.937983 
L 279.763477 57.20795 
L 279.90581 72.488485 
L 280.93377 209.56378 
L 281.424028 239.633372 
L 281.930101 258.14927 
L 282.477803 270.461544 
L 283.069156 278.945936 
L 283.710062 285.130232 
L 284.246229 289.079065 
L 284.266719 288.729786 
L 284.312973 282.106024 
L 284.416716 225.756586 
L 284.73997 60.949176 
L 284.82206 55.931855 
L 284.876787 57.783195 
L 285.027286 75.183971 
L 285.971327 204.154381 
L 286.463869 236.565407 
L 286.970094 256.295661 
L 287.513661 269.230605 
L 288.083561 277.88047 
L 288.710659 284.280071 
L 289.349928 289.062921 
L 289.365069 288.882861 
L 289.405646 284.618119 
L 289.497031 242.109782 
L 289.859653 59.029106 
L 289.922922 55.920084 
L 289.970374 57.20151 
L 290.112729 72.504696 
L 291.140848 209.581917 
L 291.631182 239.644223 
L 292.137333 258.155394 
L 292.685339 270.468688 
L 293.278308 278.967944 
L 293.921848 285.165725 
L 294.452901 289.130492 
L 294.475847 288.671524 
L 294.52337 281.119638 
L 294.641404 212.314745 
L 294.946353 61.031809 
L 295.028399 55.971489 
L 295.083097 57.798174 
L 295.233515 75.150362 
L 296.190722 205.25591 
L 296.683 237.204808 
L 297.188952 256.679383 
L 297.718025 269.2039 
L 298.285251 277.833022 
L 298.907665 284.209544 
L 299.556646 288.975962 
L 299.568419 288.873268 
L 299.605669 285.777054 
L 299.688506 251.973931 
L 300.098448 56.59787 
L 300.130084 55.851745 
L 300.177538 57.160393 
L 300.319901 72.511464 
L 301.348076 209.579433 
L 301.838436 239.631997 
L 302.344615 258.139197 
L 302.893022 270.458371 
L 303.488427 278.984332 
L 304.135995 285.206163 
L 304.659559 289.198881 
L 304.684946 288.6119 
L 304.733718 280.080771 
L 304.856894 205.66691 
L 305.152504 61.158871 
L 305.234472 56.024023 
L 305.289117 57.807827 
L 305.439392 75.075309 
L 306.395684 205.145575 
L 306.887492 237.126489 
L 307.392961 256.625274 
L 307.920651 269.14962 
L 308.483359 277.745353 
L 309.081152 283.939628 
L 309.762868 289.006 
L 309.775797 288.889393 
L 309.812698 285.749939 
L 309.893832 252.854165 
L 310.299854 56.893297 
L 310.331985 55.897593 
L 310.38018 56.973612 
L 310.508701 69.978509 
L 311.649325 216.700104 
L 312.147344 244.170421 
L 312.661428 261.119197 
L 313.199945 272.175163 
L 313.81541 280.333826 
L 314.488438 286.336673 
L 314.866118 289.576738 
L 314.896289 288.679233 
L 314.951856 276.456976 
L 315.11661 165.945735 
L 315.369325 60.20518 
L 315.438497 56.325766 
L 315.493835 57.978081 
L 315.646013 75.340064 
L 316.600589 205.196926 
L 317.084794 236.834888 
L 317.596668 256.685053 
L 318.12419 269.217397 
L 318.672433 277.633323 
L 319.334171 284.42498 
L 319.969739 289.859129 
L 319.997998 289.076172 
L 320.051428 278.135264 
L 320.198649 182.039123 
L 320.458902 62.200378 
L 320.537897 56.578043 
L 320.585294 57.558749 
L 320.711687 70.098782 
L 321.865019 217.77578 
L 322.35479 244.578422 
L 322.876159 261.646056 
L 323.424044 272.731355 
L 323.984265 280.153961 
L 324.574688 285.608211 
L 325.264313 290.217728 
L 325.264313 290.217728 
" clip-path="url(#p287337eab0)" style="fill: none; stroke: #0000ff; stroke-width: 1.5; stroke-linecap: square"/>
   </g>
   <g id="patch_3">
    <path d="M 90 320.4 
L 90 43.2 
" style="fill: none; stroke: #000000; stroke-width: 0.8; stroke-linejoin: miter; stroke-linecap: square"/>
   </g>
   <g id="patch_4">
    <path d="M 343.636364 320.4 
L 343.636364 43.2 
" style="fill: none; stroke: #000000; stroke-width: 0.8; stroke-linejoin: miter; stroke-linecap: square"/>
   </g>
   <g id="patch_5">
    <path d="M 90 320.4 
L 343.636364 320.4 
" style="fill: none; stroke: #000000; stroke-width: 0.8; stroke-linejoin: miter; stroke-linecap: square"/>
   </g>
   <g id="patch_6">
    <path d="M 90 43.2 
L 343.636364 43.2 
" style="fill: none; stroke: #000000; stroke-width: 0.8; stroke-linejoin: miter; stroke-linecap: square"/>
   </g>
   <g id="text_16">
    <!-- Goldberg1995a fm_po_LOS25_exp3174 -->
    <g transform="translate(78.838338 37.2) scale(0.14 -0.14)">
     <defs>
      <path id="DejaVuSans-47" d="M 3809 666 
L 3809 1919 
L 2778 1919 
L 2778 2438 
L 4434 2438 
L 4434 434 
Q 4069 175 3628 42 
Q 3188 -91 2688 -91 
Q 1594 -91 976 548 
Q 359 1188 359 2328 
Q 359 3472 976 4111 
Q 1594 4750 2688 4750 
Q 3144 4750 3555 4637 
Q 3966 4525 4313 4306 
L 4313 3634 
Q 3963 3931 3569 4081 
Q 3175 4231 2741 4231 
Q 1884 4231 1454 3753 
Q 1025 3275 1025 2328 
Q 1025 1384 1454 906 
Q 1884 428 2741 428 
Q 3075 428 3337 486 
Q 3600 544 3809 666 
z
" transform="scale(0.015625)"/>
      <path id="DejaVuSans-6f" d="M 1959 3097 
Q 1497 3097 1228 2736 
Q 959 2375 959 1747 
Q 959 1119 1226 758 
Q 1494 397 1959 397 
Q 2419 397 2687 759 
Q 2956 1122 2956 1747 
Q 2956 2369 2687 2733 
Q 2419 3097 1959 3097 
z
M 1959 3584 
Q 2709 3584 3137 3096 
Q 3566 2609 3566 1747 
Q 3566 888 3137 398 
Q 2709 -91 1959 -91 
Q 1206 -91 779 398 
Q 353 888 353 1747 
Q 353 2609 779 3096 
Q 1206 3584 1959 3584 
z
" transform="scale(0.015625)"/>
      <path id="DejaVuSans-6c" d="M 603 4863 
L 1178 4863 
L 1178 0 
L 603 0 
L 603 4863 
z
" transform="scale(0.015625)"/>
      <path id="DejaVuSans-64" d="M 2906 2969 
L 2906 4863 
L 3481 4863 
L 3481 0 
L 2906 0 
L 2906 525 
Q 2725 213 2448 61 
Q 2172 -91 1784 -91 
Q 1150 -91 751 415 
Q 353 922 353 1747 
Q 353 2572 751 3078 
Q 1150 3584 1784 3584 
Q 2172 3584 2448 3432 
Q 2725 3281 2906 2969 
z
M 947 1747 
Q 947 1113 1208 752 
Q 1469 391 1925 391 
Q 2381 391 2643 752 
Q 2906 1113 2906 1747 
Q 2906 2381 2643 2742 
Q 2381 3103 1925 3103 
Q 1469 3103 1208 2742 
Q 947 2381 947 1747 
z
" transform="scale(0.015625)"/>
      <path id="DejaVuSans-62" d="M 3116 1747 
Q 3116 2381 2855 2742 
Q 2594 3103 2138 3103 
Q 1681 3103 1420 2742 
Q 1159 2381 1159 1747 
Q 1159 1113 1420 752 
Q 1681 391 2138 391 
Q 2594 391 2855 752 
Q 3116 1113 3116 1747 
z
M 1159 2969 
Q 1341 3281 1617 3432 
Q 1894 3584 2278 3584 
Q 2916 3584 3314 3078 
Q 3713 2572 3713 1747 
Q 3713 922 3314 415 
Q 2916 -91 2278 -91 
Q 1894 -91 1617 61 
Q 1341 213 1159 525 
L 1159 0 
L 581 0 
L 581 4863 
L 1159 4863 
L 1159 2969 
z
" transform="scale(0.015625)"/>
      <path id="DejaVuSans-72" d="M 2631 2963 
Q 2534 3019 2420 3045 
Q 2306 3072 2169 3072 
Q 1681 3072 1420 2755 
Q 1159 2438 1159 1844 
L 1159 0 
L 581 0 
L 581 3500 
L 1159 3500 
L 1159 2956 
Q 1341 3275 1631 3429 
Q 1922 3584 2338 3584 
Q 2397 3584 2469 3576 
Q 2541 3569 2628 3553 
L 2631 2963 
z
" transform="scale(0.015625)"/>
      <path id="DejaVuSans-67" d="M 2906 1791 
Q 2906 2416 2648 2759 
Q 2391 3103 1925 3103 
Q 1463 3103 1205 2759 
Q 947 2416 947 1791 
Q 947 1169 1205 825 
Q 1463 481 1925 481 
Q 2391 481 2648 825 
Q 2906 1169 2906 1791 
z
M 3481 434 
Q 3481 -459 3084 -895 
Q 2688 -1331 1869 -1331 
Q 1566 -1331 1297 -1286 
Q 1028 -1241 775 -1147 
L 775 -588 
Q 1028 -725 1275 -790 
Q 1522 -856 1778 -856 
Q 2344 -856 2625 -561 
Q 2906 -266 2906 331 
L 2906 616 
Q 2728 306 2450 153 
Q 2172 0 1784 0 
Q 1141 0 747 490 
Q 353 981 353 1791 
Q 353 2603 747 3093 
Q 1141 3584 1784 3584 
Q 2172 3584 2450 3431 
Q 2728 3278 2906 2969 
L 2906 3500 
L 3481 3500 
L 3481 434 
z
" transform="scale(0.015625)"/>
      <path id="DejaVuSans-39" d="M 703 97 
L 703 672 
Q 941 559 1184 500 
Q 1428 441 1663 441 
Q 2288 441 2617 861 
Q 2947 1281 2994 2138 
Q 2813 1869 2534 1725 
Q 2256 1581 1919 1581 
Q 1219 1581 811 2004 
Q 403 2428 403 3163 
Q 403 3881 828 4315 
Q 1253 4750 1959 4750 
Q 2769 4750 3195 4129 
Q 3622 3509 3622 2328 
Q 3622 1225 3098 567 
Q 2575 -91 1691 -91 
Q 1453 -91 1209 -44 
Q 966 3 703 97 
z
M 1959 2075 
Q 2384 2075 2632 2365 
Q 2881 2656 2881 3163 
Q 2881 3666 2632 3958 
Q 2384 4250 1959 4250 
Q 1534 4250 1286 3958 
Q 1038 3666 1038 3163 
Q 1038 2656 1286 2365 
Q 1534 2075 1959 2075 
z
" transform="scale(0.015625)"/>
      <path id="DejaVuSans-61" d="M 2194 1759 
Q 1497 1759 1228 1600 
Q 959 1441 959 1056 
Q 959 750 1161 570 
Q 1363 391 1709 391 
Q 2188 391 2477 730 
Q 2766 1069 2766 1631 
L 2766 1759 
L 2194 1759 
z
M 3341 1997 
L 3341 0 
L 2766 0 
L 2766 531 
Q 2569 213 2275 61 
Q 1981 -91 1556 -91 
Q 1019 -91 701 211 
Q 384 513 384 1019 
Q 384 1609 779 1909 
Q 1175 2209 1959 2209 
L 2766 2209 
L 2766 2266 
Q 2766 2663 2505 2880 
Q 2244 3097 1772 3097 
Q 1472 3097 1187 3025 
Q 903 2953 641 2809 
L 641 3341 
Q 956 3463 1253 3523 
Q 1550 3584 1831 3584 
Q 2591 3584 2966 3190 
Q 3341 2797 3341 1997 
z
" transform="scale(0.015625)"/>
      <path id="DejaVuSans-20" transform="scale(0.015625)"/>
      <path id="DejaVuSans-66" d="M 2375 4863 
L 2375 4384 
L 1825 4384 
Q 1516 4384 1395 4259 
Q 1275 4134 1275 3809 
L 1275 3500 
L 2222 3500 
L 2222 3053 
L 1275 3053 
L 1275 0 
L 697 0 
L 697 3053 
L 147 3053 
L 147 3500 
L 697 3500 
L 697 3744 
Q 697 4328 969 4595 
Q 1241 4863 1831 4863 
L 2375 4863 
z
" transform="scale(0.015625)"/>
      <path id="DejaVuSans-70" d="M 1159 525 
L 1159 -1331 
L 581 -1331 
L 581 3500 
L 1159 3500 
L 1159 2969 
Q 1341 3281 1617 3432 
Q 1894 3584 2278 3584 
Q 2916 3584 3314 3078 
Q 3713 2572 3713 1747 
Q 3713 922 3314 415 
Q 2916 -91 2278 -91 
Q 1894 -91 1617 61 
Q 1341 213 1159 525 
z
M 3116 1747 
Q 3116 2381 2855 2742 
Q 2594 3103 2138 3103 
Q 1681 3103 1420 2742 
Q 1159 2381 1159 1747 
Q 1159 1113 1420 752 
Q 1681 391 2138 391 
Q 2594 391 2855 752 
Q 3116 1113 3116 1747 
z
" transform="scale(0.015625)"/>
      <path id="DejaVuSans-4c" d="M 628 4666 
L 1259 4666 
L 1259 531 
L 3531 531 
L 3531 0 
L 628 0 
L 628 4666 
z
" transform="scale(0.015625)"/>
      <path id="DejaVuSans-4f" d="M 2522 4238 
Q 1834 4238 1429 3725 
Q 1025 3213 1025 2328 
Q 1025 1447 1429 934 
Q 1834 422 2522 422 
Q 3209 422 3611 934 
Q 4013 1447 4013 2328 
Q 4013 3213 3611 3725 
Q 3209 4238 2522 4238 
z
M 2522 4750 
Q 3503 4750 4090 4092 
Q 4678 3434 4678 2328 
Q 4678 1225 4090 567 
Q 3503 -91 2522 -91 
Q 1538 -91 948 565 
Q 359 1222 359 2328 
Q 359 3434 948 4092 
Q 1538 4750 2522 4750 
z
" transform="scale(0.015625)"/>
      <path id="DejaVuSans-53" d="M 3425 4513 
L 3425 3897 
Q 3066 4069 2747 4153 
Q 2428 4238 2131 4238 
Q 1616 4238 1336 4038 
Q 1056 3838 1056 3469 
Q 1056 3159 1242 3001 
Q 1428 2844 1947 2747 
L 2328 2669 
Q 3034 2534 3370 2195 
Q 3706 1856 3706 1288 
Q 3706 609 3251 259 
Q 2797 -91 1919 -91 
Q 1588 -91 1214 -16 
Q 841 59 441 206 
L 441 856 
Q 825 641 1194 531 
Q 1563 422 1919 422 
Q 2459 422 2753 634 
Q 3047 847 3047 1241 
Q 3047 1584 2836 1778 
Q 2625 1972 2144 2069 
L 1759 2144 
Q 1053 2284 737 2584 
Q 422 2884 422 3419 
Q 422 4038 858 4394 
Q 1294 4750 2059 4750 
Q 2388 4750 2728 4690 
Q 3069 4631 3425 4513 
z
" transform="scale(0.015625)"/>
      <path id="DejaVuSans-78" d="M 3513 3500 
L 2247 1797 
L 3578 0 
L 2900 0 
L 1881 1375 
L 863 0 
L 184 0 
L 1544 1831 
L 300 3500 
L 978 3500 
L 1906 2253 
L 2834 3500 
L 3513 3500 
z
" transform="scale(0.015625)"/>
     </defs>
     <use xlink:href="#DejaVuSans-47"/>
     <use xlink:href="#DejaVuSans-6f" x="77.490234"/>
     <use xlink:href="#DejaVuSans-6c" x="138.671875"/>
     <use xlink:href="#DejaVuSans-64" x="166.455078"/>
     <use xlink:href="#DejaVuSans-62" x="229.931641"/>
     <use xlink:href="#DejaVuSans-65" x="293.408203"/>
     <use xlink:href="#DejaVuSans-72" x="354.931641"/>
     <use xlink:href="#DejaVuSans-67" x="394.294922"/>
     <use xlink:href="#DejaVuSans-31" x="457.771484"/>
     <use xlink:href="#DejaVuSans-39" x="521.394531"/>
     <use xlink:href="#DejaVuSans-39" x="585.017578"/>
     <use xlink:href="#DejaVuSans-35" x="648.640625"/>
     <use xlink:href="#DejaVuSans-61" x="712.263672"/>
     <use xlink:href="#DejaVuSans-20" x="773.542969"/>
     <use xlink:href="#DejaVuSans-66" x="805.330078"/>
     <use xlink:href="#DejaVuSans-6d" x="840.535156"/>
     <use xlink:href="#DejaVuSans-5f" x="937.947266"/>
     <use xlink:href="#DejaVuSans-70" x="987.947266"/>
     <use xlink:href="#DejaVuSans-6f" x="1051.423828"/>
     <use xlink:href="#DejaVuSans-5f" x="1112.605469"/>
     <use xlink:href="#DejaVuSans-4c" x="1162.605469"/>
     <use xlink:href="#DejaVuSans-4f" x="1214.693359"/>
     <use xlink:href="#DejaVuSans-53" x="1293.404297"/>
     <use xlink:href="#DejaVuSans-32" x="1356.880859"/>
     <use xlink:href="#DejaVuSans-35" x="1420.503906"/>
     <use xlink:href="#DejaVuSans-5f" x="1484.126953"/>
     <use xlink:href="#DejaVuSans-65" x="1534.126953"/>
     <use xlink:href="#DejaVuSans-78" x="1593.900391"/>
     <use xlink:href="#DejaVuSans-70" x="1653.080078"/>
     <use xlink:href="#DejaVuSans-33" x="1716.556641"/>
     <use xlink:href="#DejaVuSans-31" x="1780.179688"/>
     <use xlink:href="#DejaVuSans-37" x="1843.802734"/>
     <use xlink:href="#DejaVuSans-34" x="1907.425781"/>
    </g>
   </g>
   <g id="legend_1">
    <g id="patch_7">
     <path d="M 229.370739 198.117188 
L 336.636364 198.117188 
Q 338.636364 198.117188 338.636364 196.117188 
L 338.636364 167.482813 
Q 338.636364 165.482813 336.636364 165.482813 
L 229.370739 165.482813 
Q 227.370739 165.482813 227.370739 167.482813 
L 227.370739 196.117188 
Q 227.370739 198.117188 229.370739 198.117188 
z
" style="fill: #ffffff; opacity: 0.8; stroke: #cccccc; stroke-linejoin: miter"/>
    </g>
    <g id="line2d_16">
     <g>
      <use xlink:href="#ma6dd244a64" x="241.370739" y="173.58125" style="stroke: #000000; stroke-linejoin: miter"/>
     </g>
    </g>
    <g id="text_17">
     <!-- reference_data -->
     <g transform="translate(259.370739 177.08125) scale(0.1 -0.1)">
      <defs>
       <path id="DejaVuSans-6e" d="M 3513 2113 
L 3513 0 
L 2938 0 
L 2938 2094 
Q 2938 2591 2744 2837 
Q 2550 3084 2163 3084 
Q 1697 3084 1428 2787 
Q 1159 2491 1159 1978 
L 1159 0 
L 581 0 
L 581 3500 
L 1159 3500 
L 1159 2956 
Q 1366 3272 1645 3428 
Q 1925 3584 2291 3584 
Q 2894 3584 3203 3211 
Q 3513 2838 3513 2113 
z
" transform="scale(0.015625)"/>
       <path id="DejaVuSans-63" d="M 3122 3366 
L 3122 2828 
Q 2878 2963 2633 3030 
Q 2388 3097 2138 3097 
Q 1578 3097 1268 2742 
Q 959 2388 959 1747 
Q 959 1106 1268 751 
Q 1578 397 2138 397 
Q 2388 397 2633 464 
Q 2878 531 3122 666 
L 3122 134 
Q 2881 22 2623 -34 
Q 2366 -91 2075 -91 
Q 1284 -91 818 406 
Q 353 903 353 1747 
Q 353 2603 823 3093 
Q 1294 3584 2113 3584 
Q 2378 3584 2631 3529 
Q 2884 3475 3122 3366 
z
" transform="scale(0.015625)"/>
      </defs>
      <use xlink:href="#DejaVuSans-72"/>
      <use xlink:href="#DejaVuSans-65" x="38.863281"/>
      <use xlink:href="#DejaVuSans-66" x="100.386719"/>
      <use xlink:href="#DejaVuSans-65" x="135.591797"/>
      <use xlink:href="#DejaVuSans-72" x="197.115234"/>
      <use xlink:href="#DejaVuSans-65" x="235.978516"/>
      <use xlink:href="#DejaVuSans-6e" x="297.501953"/>
      <use xlink:href="#DejaVuSans-63" x="360.880859"/>
      <use xlink:href="#DejaVuSans-65" x="415.861328"/>
      <use xlink:href="#DejaVuSans-5f" x="477.384766"/>
      <use xlink:href="#DejaVuSans-64" x="527.384766"/>
      <use xlink:href="#DejaVuSans-61" x="590.861328"/>
      <use xlink:href="#DejaVuSans-74" x="652.140625"/>
      <use xlink:href="#DejaVuSans-61" x="691.349609"/>
     </g>
    </g>
    <g id="line2d_17">
     <path d="M 231.370739 188.5375 
L 241.370739 188.5375 
L 251.370739 188.5375 
" style="fill: none; stroke: #0000ff; stroke-width: 1.5; stroke-linecap: square"/>
    </g>
    <g id="text_18">
     <!-- observable -->
     <g transform="translate(259.370739 192.0375) scale(0.1 -0.1)">
      <defs>
       <path id="DejaVuSans-73" d="M 2834 3397 
L 2834 2853 
Q 2591 2978 2328 3040 
Q 2066 3103 1784 3103 
Q 1356 3103 1142 2972 
Q 928 2841 928 2578 
Q 928 2378 1081 2264 
Q 1234 2150 1697 2047 
L 1894 2003 
Q 2506 1872 2764 1633 
Q 3022 1394 3022 966 
Q 3022 478 2636 193 
Q 2250 -91 1575 -91 
Q 1294 -91 989 -36 
Q 684 19 347 128 
L 347 722 
Q 666 556 975 473 
Q 1284 391 1588 391 
Q 1994 391 2212 530 
Q 2431 669 2431 922 
Q 2431 1156 2273 1281 
Q 2116 1406 1581 1522 
L 1381 1569 
Q 847 1681 609 1914 
Q 372 2147 372 2553 
Q 372 3047 722 3315 
Q 1072 3584 1716 3584 
Q 2034 3584 2315 3537 
Q 2597 3491 2834 3397 
z
" transform="scale(0.015625)"/>
      </defs>
      <use xlink:href="#DejaVuSans-6f"/>
      <use xlink:href="#DejaVuSans-62" x="61.181641"/>
      <use xlink:href="#DejaVuSans-73" x="124.658203"/>
      <use xlink:href="#DejaVuSans-65" x="176.757812"/>
      <use xlink:href="#DejaVuSans-72" x="238.28125"/>
      <use xlink:href="#DejaVuSans-76" x="279.394531"/>
      <use xlink:href="#DejaVuSans-61" x="338.574219"/>
      <use xlink:href="#DejaVuSans-62" x="399.853516"/>
      <use xlink:href="#DejaVuSans-6c" x="463.330078"/>
      <use xlink:href="#DejaVuSans-65" x="491.113281"/>
     </g>
    </g>
   </g>
  </g>
  <g id="axes_2">
   <g id="patch_8">
    <path d="M 394.363636 320.4 
L 648 320.4 
L 648 43.2 
L 394.363636 43.2 
z
" style="fill: #ffffff"/>
   </g>
   <g id="matplotlib.axis_3">
    <g id="xtick_8">
     <g id="line2d_18">
      <g>
       <use xlink:href="#mfe9d19e5e7" x="415.074721" y="320.4" style="stroke: #000000; stroke-width: 0.8"/>
      </g>
     </g>
     <g id="text_19">
      <!-- 0 -->
      <g transform="translate(411.893471 334.998438) scale(0.1 -0.1)">
       <use xlink:href="#DejaVuSans-30"/>
      </g>
     </g>
    </g>
    <g id="xtick_9">
     <g id="line2d_19">
      <g>
       <use xlink:href="#mfe9d19e5e7" x="450.514633" y="320.4" style="stroke: #000000; stroke-width: 0.8"/>
      </g>
     </g>
     <g id="text_20">
      <!-- 10000 -->
      <g transform="translate(434.608383 334.998438) scale(0.1 -0.1)">
       <use xlink:href="#DejaVuSans-31"/>
       <use xlink:href="#DejaVuSans-30" x="63.623047"/>
       <use xlink:href="#DejaVuSans-30" x="127.246094"/>
       <use xlink:href="#DejaVuSans-30" x="190.869141"/>
       <use xlink:href="#DejaVuSans-30" x="254.492188"/>
      </g>
     </g>
    </g>
    <g id="xtick_10">
     <g id="line2d_20">
      <g>
       <use xlink:href="#mfe9d19e5e7" x="485.954545" y="320.4" style="stroke: #000000; stroke-width: 0.8"/>
      </g>
     </g>
     <g id="text_21">
      <!-- 20000 -->
      <g transform="translate(470.048295 334.998438) scale(0.1 -0.1)">
       <use xlink:href="#DejaVuSans-32"/>
       <use xlink:href="#DejaVuSans-30" x="63.623047"/>
       <use xlink:href="#DejaVuSans-30" x="127.246094"/>
       <use xlink:href="#DejaVuSans-30" x="190.869141"/>
       <use xlink:href="#DejaVuSans-30" x="254.492188"/>
      </g>
     </g>
    </g>
    <g id="xtick_11">
     <g id="line2d_21">
      <g>
       <use xlink:href="#mfe9d19e5e7" x="521.394458" y="320.4" style="stroke: #000000; stroke-width: 0.8"/>
      </g>
     </g>
     <g id="text_22">
      <!-- 30000 -->
      <g transform="translate(505.488208 334.998438) scale(0.1 -0.1)">
       <use xlink:href="#DejaVuSans-33"/>
       <use xlink:href="#DejaVuSans-30" x="63.623047"/>
       <use xlink:href="#DejaVuSans-30" x="127.246094"/>
       <use xlink:href="#DejaVuSans-30" x="190.869141"/>
       <use xlink:href="#DejaVuSans-30" x="254.492188"/>
      </g>
     </g>
    </g>
    <g id="xtick_12">
     <g id="line2d_22">
      <g>
       <use xlink:href="#mfe9d19e5e7" x="556.83437" y="320.4" style="stroke: #000000; stroke-width: 0.8"/>
      </g>
     </g>
     <g id="text_23">
      <!-- 40000 -->
      <g transform="translate(540.92812 334.998438) scale(0.1 -0.1)">
       <use xlink:href="#DejaVuSans-34"/>
       <use xlink:href="#DejaVuSans-30" x="63.623047"/>
       <use xlink:href="#DejaVuSans-30" x="127.246094"/>
       <use xlink:href="#DejaVuSans-30" x="190.869141"/>
       <use xlink:href="#DejaVuSans-30" x="254.492188"/>
      </g>
     </g>
    </g>
    <g id="xtick_13">
     <g id="line2d_23">
      <g>
       <use xlink:href="#mfe9d19e5e7" x="592.274282" y="320.4" style="stroke: #000000; stroke-width: 0.8"/>
      </g>
     </g>
     <g id="text_24">
      <!-- 50000 -->
      <g transform="translate(576.368032 334.998438) scale(0.1 -0.1)">
       <use xlink:href="#DejaVuSans-35"/>
       <use xlink:href="#DejaVuSans-30" x="63.623047"/>
       <use xlink:href="#DejaVuSans-30" x="127.246094"/>
       <use xlink:href="#DejaVuSans-30" x="190.869141"/>
       <use xlink:href="#DejaVuSans-30" x="254.492188"/>
      </g>
     </g>
    </g>
    <g id="xtick_14">
     <g id="line2d_24">
      <g>
       <use xlink:href="#mfe9d19e5e7" x="627.714194" y="320.4" style="stroke: #000000; stroke-width: 0.8"/>
      </g>
     </g>
     <g id="text_25">
      <!-- 60000 -->
      <g transform="translate(611.807944 334.998438) scale(0.1 -0.1)">
       <use xlink:href="#DejaVuSans-36"/>
       <use xlink:href="#DejaVuSans-30" x="63.623047"/>
       <use xlink:href="#DejaVuSans-30" x="127.246094"/>
       <use xlink:href="#DejaVuSans-30" x="190.869141"/>
       <use xlink:href="#DejaVuSans-30" x="254.492188"/>
      </g>
     </g>
    </g>
    <g id="text_26">
     <!-- time -->
     <g transform="translate(507.626506 350.19625) scale(0.12 -0.12)">
      <use xlink:href="#DejaVuSans-74"/>
      <use xlink:href="#DejaVuSans-69" x="39.208984"/>
      <use xlink:href="#DejaVuSans-6d" x="66.992188"/>
      <use xlink:href="#DejaVuSans-65" x="164.404297"/>
     </g>
    </g>
   </g>
   <g id="matplotlib.axis_4">
    <g id="ytick_7">
     <g id="line2d_25">
      <g>
       <use xlink:href="#me4b115337e" x="394.363636" y="318.062784" style="stroke: #000000; stroke-width: 0.8"/>
      </g>
     </g>
     <g id="text_27">
      <!-- $\mathdefault{10^{-5}}$ -->
      <g transform="translate(363.863636 321.862003) scale(0.1 -0.1)">
       <defs>
        <path id="DejaVuSans-2212" d="M 678 2272 
L 4684 2272 
L 4684 1741 
L 678 1741 
L 678 2272 
z
" transform="scale(0.015625)"/>
       </defs>
       <use xlink:href="#DejaVuSans-31" transform="translate(0 0.684375)"/>
       <use xlink:href="#DejaVuSans-30" transform="translate(63.623047 0.684375)"/>
       <use xlink:href="#DejaVuSans-2212" transform="translate(128.203125 38.965625) scale(0.7)"/>
       <use xlink:href="#DejaVuSans-35" transform="translate(186.855469 38.965625) scale(0.7)"/>
      </g>
     </g>
    </g>
    <g id="ytick_8">
     <g id="line2d_26">
      <g>
       <use xlink:href="#me4b115337e" x="394.363636" y="259.807877" style="stroke: #000000; stroke-width: 0.8"/>
      </g>
     </g>
     <g id="text_28">
      <!-- $\mathdefault{10^{-4}}$ -->
      <g transform="translate(363.863636 263.607096) scale(0.1 -0.1)">
       <use xlink:href="#DejaVuSans-31" transform="translate(0 0.684375)"/>
       <use xlink:href="#DejaVuSans-30" transform="translate(63.623047 0.684375)"/>
       <use xlink:href="#DejaVuSans-2212" transform="translate(128.203125 38.965625) scale(0.7)"/>
       <use xlink:href="#DejaVuSans-34" transform="translate(186.855469 38.965625) scale(0.7)"/>
      </g>
     </g>
    </g>
    <g id="ytick_9">
     <g id="line2d_27">
      <g>
       <use xlink:href="#me4b115337e" x="394.363636" y="201.55297" style="stroke: #000000; stroke-width: 0.8"/>
      </g>
     </g>
     <g id="text_29">
      <!-- $\mathdefault{10^{-3}}$ -->
      <g transform="translate(363.863636 205.352189) scale(0.1 -0.1)">
       <use xlink:href="#DejaVuSans-31" transform="translate(0 0.765625)"/>
       <use xlink:href="#DejaVuSans-30" transform="translate(63.623047 0.765625)"/>
       <use xlink:href="#DejaVuSans-2212" transform="translate(128.203125 39.046875) scale(0.7)"/>
       <use xlink:href="#DejaVuSans-33" transform="translate(186.855469 39.046875) scale(0.7)"/>
      </g>
     </g>
    </g>
    <g id="ytick_10">
     <g id="line2d_28">
      <g>
       <use xlink:href="#me4b115337e" x="394.363636" y="143.298063" style="stroke: #000000; stroke-width: 0.8"/>
      </g>
     </g>
     <g id="text_30">
      <!-- $\mathdefault{10^{-2}}$ -->
      <g transform="translate(363.863636 147.097282) scale(0.1 -0.1)">
       <use xlink:href="#DejaVuSans-31" transform="translate(0 0.765625)"/>
       <use xlink:href="#DejaVuSans-30" transform="translate(63.623047 0.765625)"/>
       <use xlink:href="#DejaVuSans-2212" transform="translate(128.203125 39.046875) scale(0.7)"/>
       <use xlink:href="#DejaVuSans-32" transform="translate(186.855469 39.046875) scale(0.7)"/>
      </g>
     </g>
    </g>
    <g id="ytick_11">
     <g id="line2d_29">
      <g>
       <use xlink:href="#me4b115337e" x="394.363636" y="85.043157" style="stroke: #000000; stroke-width: 0.8"/>
      </g>
     </g>
     <g id="text_31">
      <!-- $\mathdefault{10^{-1}}$ -->
      <g transform="translate(363.863636 88.842375) scale(0.1 -0.1)">
       <use xlink:href="#DejaVuSans-31" transform="translate(0 0.684375)"/>
       <use xlink:href="#DejaVuSans-30" transform="translate(63.623047 0.684375)"/>
       <use xlink:href="#DejaVuSans-2212" transform="translate(128.203125 38.965625) scale(0.7)"/>
       <use xlink:href="#DejaVuSans-31" transform="translate(186.855469 38.965625) scale(0.7)"/>
      </g>
     </g>
    </g>
    <g id="ytick_12">
     <g id="line2d_30">
      <defs>
       <path id="mfca4e48d7e" d="M 0 0 
L -2 0 
" style="stroke: #000000; stroke-width: 0.6"/>
      </defs>
      <g>
       <use xlink:href="#mfca4e48d7e" x="394.363636" y="300.52631" style="stroke: #000000; stroke-width: 0.6"/>
      </g>
     </g>
    </g>
    <g id="ytick_13">
     <g id="line2d_31">
      <g>
       <use xlink:href="#mfca4e48d7e" x="394.363636" y="290.26813" style="stroke: #000000; stroke-width: 0.6"/>
      </g>
     </g>
    </g>
    <g id="ytick_14">
     <g id="line2d_32">
      <g>
       <use xlink:href="#mfca4e48d7e" x="394.363636" y="282.989835" style="stroke: #000000; stroke-width: 0.6"/>
      </g>
     </g>
    </g>
    <g id="ytick_15">
     <g id="line2d_33">
      <g>
       <use xlink:href="#mfca4e48d7e" x="394.363636" y="277.344352" style="stroke: #000000; stroke-width: 0.6"/>
      </g>
     </g>
    </g>
    <g id="ytick_16">
     <g id="line2d_34">
      <g>
       <use xlink:href="#mfca4e48d7e" x="394.363636" y="272.731656" style="stroke: #000000; stroke-width: 0.6"/>
      </g>
     </g>
    </g>
    <g id="ytick_17">
     <g id="line2d_35">
      <g>
       <use xlink:href="#mfca4e48d7e" x="394.363636" y="268.831677" style="stroke: #000000; stroke-width: 0.6"/>
      </g>
     </g>
    </g>
    <g id="ytick_18">
     <g id="line2d_36">
      <g>
       <use xlink:href="#mfca4e48d7e" x="394.363636" y="265.453361" style="stroke: #000000; stroke-width: 0.6"/>
      </g>
     </g>
    </g>
    <g id="ytick_19">
     <g id="line2d_37">
      <g>
       <use xlink:href="#mfca4e48d7e" x="394.363636" y="262.473476" style="stroke: #000000; stroke-width: 0.6"/>
      </g>
     </g>
    </g>
    <g id="ytick_20">
     <g id="line2d_38">
      <g>
       <use xlink:href="#mfca4e48d7e" x="394.363636" y="242.271403" style="stroke: #000000; stroke-width: 0.6"/>
      </g>
     </g>
    </g>
    <g id="ytick_21">
     <g id="line2d_39">
      <g>
       <use xlink:href="#mfca4e48d7e" x="394.363636" y="232.013223" style="stroke: #000000; stroke-width: 0.6"/>
      </g>
     </g>
    </g>
    <g id="ytick_22">
     <g id="line2d_40">
      <g>
       <use xlink:href="#mfca4e48d7e" x="394.363636" y="224.734928" style="stroke: #000000; stroke-width: 0.6"/>
      </g>
     </g>
    </g>
    <g id="ytick_23">
     <g id="line2d_41">
      <g>
       <use xlink:href="#mfca4e48d7e" x="394.363636" y="219.089445" style="stroke: #000000; stroke-width: 0.6"/>
      </g>
     </g>
    </g>
    <g id="ytick_24">
     <g id="line2d_42">
      <g>
       <use xlink:href="#mfca4e48d7e" x="394.363636" y="214.476749" style="stroke: #000000; stroke-width: 0.6"/>
      </g>
     </g>
    </g>
    <g id="ytick_25">
     <g id="line2d_43">
      <g>
       <use xlink:href="#mfca4e48d7e" x="394.363636" y="210.57677" style="stroke: #000000; stroke-width: 0.6"/>
      </g>
     </g>
    </g>
    <g id="ytick_26">
     <g id="line2d_44">
      <g>
       <use xlink:href="#mfca4e48d7e" x="394.363636" y="207.198454" style="stroke: #000000; stroke-width: 0.6"/>
      </g>
     </g>
    </g>
    <g id="ytick_27">
     <g id="line2d_45">
      <g>
       <use xlink:href="#mfca4e48d7e" x="394.363636" y="204.218569" style="stroke: #000000; stroke-width: 0.6"/>
      </g>
     </g>
    </g>
    <g id="ytick_28">
     <g id="line2d_46">
      <g>
       <use xlink:href="#mfca4e48d7e" x="394.363636" y="184.016496" style="stroke: #000000; stroke-width: 0.6"/>
      </g>
     </g>
    </g>
    <g id="ytick_29">
     <g id="line2d_47">
      <g>
       <use xlink:href="#mfca4e48d7e" x="394.363636" y="173.758316" style="stroke: #000000; stroke-width: 0.6"/>
      </g>
     </g>
    </g>
    <g id="ytick_30">
     <g id="line2d_48">
      <g>
       <use xlink:href="#mfca4e48d7e" x="394.363636" y="166.480022" style="stroke: #000000; stroke-width: 0.6"/>
      </g>
     </g>
    </g>
    <g id="ytick_31">
     <g id="line2d_49">
      <g>
       <use xlink:href="#mfca4e48d7e" x="394.363636" y="160.834538" style="stroke: #000000; stroke-width: 0.6"/>
      </g>
     </g>
    </g>
    <g id="ytick_32">
     <g id="line2d_50">
      <g>
       <use xlink:href="#mfca4e48d7e" x="394.363636" y="156.221842" style="stroke: #000000; stroke-width: 0.6"/>
      </g>
     </g>
    </g>
    <g id="ytick_33">
     <g id="line2d_51">
      <g>
       <use xlink:href="#mfca4e48d7e" x="394.363636" y="152.321863" style="stroke: #000000; stroke-width: 0.6"/>
      </g>
     </g>
    </g>
    <g id="ytick_34">
     <g id="line2d_52">
      <g>
       <use xlink:href="#mfca4e48d7e" x="394.363636" y="148.943547" style="stroke: #000000; stroke-width: 0.6"/>
      </g>
     </g>
    </g>
    <g id="ytick_35">
     <g id="line2d_53">
      <g>
       <use xlink:href="#mfca4e48d7e" x="394.363636" y="145.963662" style="stroke: #000000; stroke-width: 0.6"/>
      </g>
     </g>
    </g>
    <g id="ytick_36">
     <g id="line2d_54">
      <g>
       <use xlink:href="#mfca4e48d7e" x="394.363636" y="125.761589" style="stroke: #000000; stroke-width: 0.6"/>
      </g>
     </g>
    </g>
    <g id="ytick_37">
     <g id="line2d_55">
      <g>
       <use xlink:href="#mfca4e48d7e" x="394.363636" y="115.503409" style="stroke: #000000; stroke-width: 0.6"/>
      </g>
     </g>
    </g>
    <g id="ytick_38">
     <g id="line2d_56">
      <g>
       <use xlink:href="#mfca4e48d7e" x="394.363636" y="108.225115" style="stroke: #000000; stroke-width: 0.6"/>
      </g>
     </g>
    </g>
    <g id="ytick_39">
     <g id="line2d_57">
      <g>
       <use xlink:href="#mfca4e48d7e" x="394.363636" y="102.579631" style="stroke: #000000; stroke-width: 0.6"/>
      </g>
     </g>
    </g>
    <g id="ytick_40">
     <g id="line2d_58">
      <g>
       <use xlink:href="#mfca4e48d7e" x="394.363636" y="97.966935" style="stroke: #000000; stroke-width: 0.6"/>
      </g>
     </g>
    </g>
    <g id="ytick_41">
     <g id="line2d_59">
      <g>
       <use xlink:href="#mfca4e48d7e" x="394.363636" y="94.066956" style="stroke: #000000; stroke-width: 0.6"/>
      </g>
     </g>
    </g>
    <g id="ytick_42">
     <g id="line2d_60">
      <g>
       <use xlink:href="#mfca4e48d7e" x="394.363636" y="90.68864" style="stroke: #000000; stroke-width: 0.6"/>
      </g>
     </g>
    </g>
    <g id="ytick_43">
     <g id="line2d_61">
      <g>
       <use xlink:href="#mfca4e48d7e" x="394.363636" y="87.708755" style="stroke: #000000; stroke-width: 0.6"/>
      </g>
     </g>
    </g>
    <g id="ytick_44">
     <g id="line2d_62">
      <g>
       <use xlink:href="#mfca4e48d7e" x="394.363636" y="67.506682" style="stroke: #000000; stroke-width: 0.6"/>
      </g>
     </g>
    </g>
    <g id="ytick_45">
     <g id="line2d_63">
      <g>
       <use xlink:href="#mfca4e48d7e" x="394.363636" y="57.248502" style="stroke: #000000; stroke-width: 0.6"/>
      </g>
     </g>
    </g>
    <g id="ytick_46">
     <g id="line2d_64">
      <g>
       <use xlink:href="#mfca4e48d7e" x="394.363636" y="49.970208" style="stroke: #000000; stroke-width: 0.6"/>
      </g>
     </g>
    </g>
    <g id="ytick_47">
     <g id="line2d_65">
      <g>
       <use xlink:href="#mfca4e48d7e" x="394.363636" y="44.324724" style="stroke: #000000; stroke-width: 0.6"/>
      </g>
     </g>
    </g>
    <g id="text_32">
     <!-- [Cve_e3174] -->
     <g transform="translate(357.034261 219.876562) rotate(-90) scale(0.12 -0.12)">
      <use xlink:href="#DejaVuSans-5b"/>
      <use xlink:href="#DejaVuSans-43" x="39.013672"/>
      <use xlink:href="#DejaVuSans-76" x="108.837891"/>
      <use xlink:href="#DejaVuSans-65" x="168.017578"/>
      <use xlink:href="#DejaVuSans-5f" x="229.541016"/>
      <use xlink:href="#DejaVuSans-65" x="279.541016"/>
      <use xlink:href="#DejaVuSans-33" x="341.064453"/>
      <use xlink:href="#DejaVuSans-31" x="404.6875"/>
      <use xlink:href="#DejaVuSans-37" x="468.310547"/>
      <use xlink:href="#DejaVuSans-34" x="531.933594"/>
      <use xlink:href="#DejaVuSans-5d" x="595.556641"/>
     </g>
    </g>
   </g>
   <g id="line2d_66">
    <g clip-path="url(#p1cfc61acc4)">
     <use xlink:href="#ma6dd244a64" x="415.5" y="273.20233" style="stroke: #000000; stroke-linejoin: miter"/>
     <use xlink:href="#ma6dd244a64" x="415.925279" y="250.813317" style="stroke: #000000; stroke-linejoin: miter"/>
     <use xlink:href="#ma6dd244a64" x="416.350558" y="244.292246" style="stroke: #000000; stroke-linejoin: miter"/>
     <use xlink:href="#ma6dd244a64" x="416.775837" y="249.074365" style="stroke: #000000; stroke-linejoin: miter"/>
     <use xlink:href="#ma6dd244a64" x="417.626395" y="259.50808" style="stroke: #000000; stroke-linejoin: miter"/>
     <use xlink:href="#ma6dd244a64" x="420.178068" y="289.939747" style="stroke: #000000; stroke-linejoin: miter"/>
     <use xlink:href="#ma6dd244a64" x="624.311963" y="284.27268" style="stroke: #000000; stroke-linejoin: miter"/>
     <use xlink:href="#ma6dd244a64" x="624.737242" y="259.567404" style="stroke: #000000; stroke-linejoin: miter"/>
     <use xlink:href="#ma6dd244a64" x="625.162521" y="249.60483" style="stroke: #000000; stroke-linejoin: miter"/>
     <use xlink:href="#ma6dd244a64" x="625.5878" y="241.30639" style="stroke: #000000; stroke-linejoin: miter"/>
     <use xlink:href="#ma6dd244a64" x="626.013078" y="247.274358" style="stroke: #000000; stroke-linejoin: miter"/>
     <use xlink:href="#ma6dd244a64" x="626.863636" y="257.546605" style="stroke: #000000; stroke-linejoin: miter"/>
     <use xlink:href="#ma6dd244a64" x="625.162521" y="288.600231" style="stroke: #000000; stroke-linejoin: miter"/>
    </g>
   </g>
   <g id="line2d_67">
    <path d="M 415.133466 361 
L 415.303334 261.711755 
L 415.517 240.341667 
L 415.674375 237.97359 
L 415.68648 237.983309 
L 415.759115 238.402159 
L 415.952806 241.425812 
L 416.630727 257.29828 
L 417.530857 275.954705 
L 418.394335 289.2516 
L 419.246708 299.103754 
L 420.197004 308.815942 
L 420.223209 307.889627 
L 420.286749 291.687582 
L 420.528655 243.620369 
L 420.727836 236.915766 
L 420.773092 236.752748 
L 420.818347 236.868849 
L 420.939028 238.122601 
L 421.270901 244.752219 
L 422.553138 271.541896 
L 423.375952 283.806247 
L 424.272902 293.902533 
L 425.301765 304.239875 
L 425.328407 303.34852 
L 425.395293 287.644399 
L 425.63449 243.104063 
L 425.842668 236.600221 
L 425.881702 236.51303 
L 425.920735 236.625367 
L 426.050846 238.0053 
L 426.389136 244.802597 
L 427.638206 270.661817 
L 428.460999 282.849542 
L 429.308524 292.401792 
L 430.4053 303.333239 
L 430.429805 302.627128 
L 430.488409 290.400256 
L 430.748827 242.290917 
L 430.948496 236.534682 
L 430.988429 236.463034 
L 431.028363 236.596019 
L 431.161476 238.062577 
L 431.52088 245.384403 
L 432.705582 269.922628 
L 433.526512 282.20904 
L 434.409506 292.201958 
L 435.509116 302.672281 
L 435.529218 302.229825 
L 435.581984 292.903641 
L 435.867959 241.286775 
L 436.060908 236.459746 
L 436.088472 236.422693 
L 436.129818 236.54817 
L 436.253857 237.859573 
L 436.584626 244.442033 
L 437.852576 270.586218 
L 438.681189 282.759663 
L 439.543137 292.38374 
L 440.611787 303.166273 
L 440.638207 302.338082 
L 440.701886 288.186853 
L 440.953374 242.416566 
L 441.154971 236.525264 
L 441.188291 236.449191 
L 441.232717 236.57303 
L 441.354889 237.852933 
L 441.688085 244.476146 
L 442.95423 270.616435 
L 443.783089 282.815489 
L 444.63818 292.384912 
L 445.715657 303.418244 
L 445.745353 302.243607 
L 445.817349 284.459213 
L 446.059958 242.226945 
L 446.252251 236.571866 
L 446.293456 236.463906 
L 446.334662 236.579947 
L 446.458278 237.867949 
L 446.787923 244.413781 
L 448.065294 270.779757 
L 448.892116 282.928308 
L 449.753623 292.551517 
L 450.819661 302.162436 
L 450.827981 302.099192 
L 450.861441 299.474355 
L 451.346167 236.560657 
L 451.392397 236.392535 
L 451.450185 236.579942 
L 451.600432 238.402491 
L 452.016501 247.182172 
L 453.091345 269.299416 
L 453.918288 281.745446 
L 454.799418 291.756285 
L 455.922672 302.092019 
L 455.933181 301.994885 
L 455.970146 298.500892 
L 456.396565 237.210903 
L 456.504678 236.390556 
L 456.545221 236.525266 
L 456.680363 238.023192 
L 457.045245 245.471602 
L 458.220978 269.741471 
L 459.054309 282.150312 
L 459.90159 291.725564 
L 461.026087 301.961312 
L 461.034171 301.906587 
L 461.06621 299.585425 
L 461.570675 236.444137 
L 461.598442 236.38007 
L 461.653977 236.54923 
L 461.792813 238.157853 
L 462.181555 246.213703 
L 463.306131 269.410753 
L 464.132215 281.801732 
L 464.926579 290.906548 
L 466.12962 302.920898 
L 466.151217 302.361722 
L 466.206223 291.852491 
L 466.481173 241.704482 
L 466.67691 236.488079 
L 466.711452 236.438047 
L 466.745993 236.541147 
L 466.872647 237.853557 
L 467.206551 244.498316 
L 468.473083 270.61996 
L 469.281011 282.53502 
L 470.160246 292.391422 
L 471.231816 302.519068 
L 471.252431 302.091861 
L 471.304675 293.01172 
L 471.59273 241.199698 
L 471.792467 236.428524 
L 471.819099 236.420856 
L 471.84573 236.50192 
L 471.965573 237.681362 
L 472.285152 243.916674 
L 473.603416 271.02839 
L 474.423957 282.977852 
L 475.283105 292.518355 
L 476.335976 302.514061 
L 476.356247 302.061998 
L 476.409487 292.59213 
L 476.688215 241.652868 
L 476.890833 236.440358 
L 476.917849 236.414943 
L 476.958372 236.548307 
L 477.093451 238.043223 
L 477.458164 245.49025 
L 478.633351 269.777081 
L 479.465749 282.192819 
L 480.301766 291.669018 
L 481.439509 302.33621 
L 481.454986 302.093613 
L 481.49843 296.261153 
L 481.834667 239.484435 
L 482.011319 236.402375 
L 482.024908 236.408855 
L 482.092851 236.757702 
L 482.269504 239.268572 
L 482.867403 252.440573 
L 483.805019 270.918477 
L 484.636024 283.014804 
L 485.511961 292.702623 
L 486.54274 302.615366 
L 486.565517 302.008746 
L 486.622354 290.8476 
L 486.882415 242.444228 
L 487.085564 236.491086 
L 487.126194 236.422236 
L 487.166824 236.563802 
L 487.302256 238.081517 
L 487.667925 245.566718 
L 488.84619 269.894776 
L 489.661259 282.063834 
L 490.551062 292.113969 
L 491.645689 302.484381 
L 491.663591 302.163257 
L 491.711482 294.781217 
L 492.01817 240.556453 
L 492.205444 236.42719 
L 492.222469 236.410421 
L 492.256519 236.488247 
L 492.375694 237.633336 
L 492.682143 243.547965 
L 494.04414 271.479955 
L 494.87947 283.497557 
L 495.791489 293.441464 
L 496.748395 302.285886 
L 496.770112 301.814566 
L 496.822526 292.541982 
L 497.107905 241.269566 
L 497.304916 236.425144 
L 497.331184 236.401761 
L 497.370586 236.528858 
L 497.501927 237.954953 
L 497.856547 245.133582 
L 499.051746 269.835102 
L 499.868099 282.015055 
L 500.679169 291.263798 
L 501.853201 302.494657 
L 501.868256 302.253967 
L 501.911902 296.362799 
L 502.250031 239.414635 
L 502.423613 236.411924 
L 502.439394 236.419366 
L 502.518295 236.875003 
L 502.723438 240.04831 
L 504.916888 281.336913 
L 505.80406 291.51841 
L 506.956491 302.810923 
L 506.978194 302.243269 
L 507.033526 291.629205 
L 507.303516 241.96653 
L 507.494257 236.526327 
L 507.525815 236.430928 
L 507.573151 236.537176 
L 507.699381 237.847067 
L 508.030734 244.433124 
L 509.293031 270.49182 
L 510.106783 282.507177 
L 510.968049 292.185255 
L 512.059383 302.780002 
L 512.082105 302.177722 
L 512.138855 291.018729 
L 512.39864 242.491372 
L 512.601531 236.504577 
L 512.642109 236.431065 
L 512.682687 236.568454 
L 512.817947 238.075082 
L 513.18315 245.544028 
L 514.359915 269.864477 
L 515.193809 282.294724 
L 516.041113 291.877617 
L 517.162922 302.122316 
L 517.171022 302.066388 
L 517.203173 299.709114 
L 517.709215 236.446824 
L 517.736984 236.389556 
L 517.778638 236.492244 
L 517.903599 237.77167 
L 518.236828 244.374247 
L 519.500323 270.417062 
L 520.333691 282.657304 
L 521.195637 292.272523 
L 522.266703 301.921606 
L 522.275084 301.855797 
L 522.308856 299.173983 
L 522.791832 236.554288 
L 522.839201 236.377608 
L 522.88657 236.503586 
L 523.012887 237.84681 
L 523.360259 244.81322 
L 524.576062 269.918813 
L 525.40537 282.219822 
L 526.310634 292.348687 
L 527.369822 303.175112 
L 527.398129 302.087977 
L 527.469373 284.835119 
L 527.707285 242.615276 
L 527.906535 236.553161 
L 527.953872 236.454718 
L 527.98543 236.551764 
L 528.111663 237.850977 
L 528.443024 244.431567 
L 529.705353 270.516925 
L 530.518879 282.54498 
L 531.372898 292.161324 
L 532.472885 302.558936 
L 532.49079 302.218086 
L 532.539234 294.578115 
L 532.8409 240.77026 
L 533.031134 236.434325 
L 533.05831 236.421952 
L 533.085486 236.502474 
L 533.207779 237.712696 
L 533.520305 243.807361 
L 534.851939 271.174346 
L 535.66902 283.046736 
L 536.539498 292.687019 
L 537.576339 302.413338 
L 537.596773 301.9447 
L 537.650403 292.312546 
L 537.928438 241.641843 
L 538.12263 236.463653 
L 538.150372 236.406271 
L 538.191984 236.508554 
L 538.316822 237.785841 
L 538.649723 244.382254 
L 539.911972 270.423215 
L 540.740169 282.614663 
L 541.629159 292.523025 
L 542.679797 302.129157 
L 542.69536 301.882447 
L 542.739046 295.996281 
L 543.077875 239.346284 
L 543.255758 236.389748 
L 543.310492 236.577645 
L 543.461009 238.405025 
L 543.885193 247.371574 
L 544.952495 269.307684 
L 545.781876 281.779051 
L 546.569357 290.827366 
L 547.783438 302.06644 
L 547.788465 302.042487 
L 547.815482 300.648773 
L 547.899702 279.104378 
L 548.133437 241.716146 
L 548.324571 236.464286 
L 548.356175 236.386017 
L 548.40358 236.513409 
L 548.529993 237.860722 
L 548.877629 244.837391 
L 550.094355 269.963554 
L 550.924396 282.271928 
L 551.834496 292.445239 
L 552.886496 301.947852 
L 552.897117 301.844902 
L 552.934487 298.241723 
L 553.353489 237.326916 
L 553.463075 236.379052 
L 553.504169 236.492093 
L 553.627453 237.76709 
L 553.95621 244.270494 
L 555.230143 270.500976 
L 556.05498 282.599252 
L 556.918318 292.229998 
L 557.9896 302.918684 
L 558.014853 302.127078 
L 558.075281 289.17447 
L 558.326475 242.655119 
L 558.520105 236.578605 
L 558.561598 236.435389 
L 558.616921 236.599641 
L 558.755228 238.194243 
L 559.142489 246.219227 
L 560.276611 269.646751 
L 561.100254 282.007569 
L 561.895905 291.13301 
L 563.088444 302.0502 
L 563.09347 302.060296 
L 563.108599 301.820519 
L 563.152488 295.931787 
L 563.492193 239.304705 
L 563.666082 236.386218 
L 563.68189 236.398549 
L 563.76093 236.874368 
L 563.966436 240.078244 
L 566.132145 280.944312 
L 567.015666 291.154526 
L 568.196512 302.034372 
L 568.1997 302.025667 
L 568.224451 301.047107 
L 568.29494 284.676266 
L 568.540048 242.133548 
L 568.745429 236.430484 
L 568.772813 236.384051 
L 568.813889 236.495473 
L 568.937117 237.766636 
L 569.265726 244.264501 
L 570.539085 270.493351 
L 571.363222 282.590275 
L 572.228597 292.24798 
L 573.298676 302.907688 
L 573.32644 301.993543 
L 573.394725 286.22004 
L 573.634939 242.761463 
L 573.837864 236.531153 
L 573.878449 236.435039 
L 573.919034 236.554397 
L 574.040789 237.821373 
L 574.36547 244.241204 
L 575.650664 270.74206 
L 576.470579 282.778428 
L 577.341384 292.497164 
L 578.403207 302.250762 
L 578.418759 302.003433 
L 578.462433 296.100269 
L 578.801263 239.356785 
L 578.979147 236.397117 
L 579.033881 236.584679 
L 579.184398 238.411832 
L 579.608583 247.380058 
L 580.675887 269.323387 
L 581.505173 281.798322 
L 582.291677 290.839746 
L 583.506861 302.158628 
L 583.515237 302.091618 
L 583.549033 299.381326 
L 584.032224 236.566882 
L 584.079669 236.391465 
L 584.127113 236.519357 
L 584.253631 237.86926 
L 584.601556 244.85504 
L 585.819294 270.001303 
L 586.65014 282.316611 
L 587.499287 291.878556 
L 588.609865 302.151651 
L 588.622937 301.987221 
L 588.661547 297.702994 
L 589.048879 237.988723 
L 589.185696 236.390849 
L 589.21306 236.441481 
L 589.322514 237.388734 
L 589.596149 242.434405 
L 591.114822 273.181628 
L 591.940482 284.631759 
L 592.815232 293.958498 
L 593.713564 302.129843 
L 593.732087 301.745762 
L 593.781158 293.806243 
L 594.080934 240.744804 
L 594.270741 236.410051 
L 594.286558 236.389667 
L 594.318193 236.446633 
L 594.428913 237.427158 
L 594.713623 242.741212 
L 596.184625 272.639105 
L 597.001103 284.111112 
L 597.908842 293.861224 
L 598.816537 302.221246 
L 598.837012 301.75372 
L 598.89077 292.130305 
L 599.173245 241.355828 
L 599.364687 236.444619 
L 599.392035 236.394831 
L 599.433059 236.501689 
L 599.556128 237.761908 
L 599.884313 244.243388 
L 601.169706 270.695327 
L 601.99892 282.817499 
L 602.842948 292.224708 
L 603.920282 302.012698 
L 603.932055 301.875051 
L 603.972692 297.361757 
L 604.351358 238.191488 
L 604.49372 236.382803 
L 604.525356 236.441657 
L 604.636083 237.426679 
L 604.920808 242.744468 
L 606.376072 272.376514 
L 607.208716 284.103605 
L 608.12034 293.886305 
L 609.023196 302.314093 
L 609.046114 301.700582 
L 609.103353 290.467069 
L 609.365866 242.217346 
L 609.570786 236.452293 
L 609.598109 236.400109 
L 609.639092 236.503684 
L 609.762044 237.755906 
L 610.089916 244.224878 
L 611.37408 270.667451 
L 612.201858 282.784305 
L 613.111295 292.84997 
L 614.126504 302.053102 
L 614.14128 301.84041 
L 614.184939 296.166027 
L 614.524301 239.35843 
L 614.695621 236.387408 
L 614.711686 236.391993 
L 614.792012 236.850512 
L 615.000858 240.095859 
L 617.169651 280.993873 
L 618.00486 290.696489 
L 619.027779 300.214747 
L 619.208615 301.74053 
L 619.229754 302.833316 
L 619.315492 289.113424 
L 619.566948 242.62784 
L 619.76063 236.571322 
L 619.802133 236.430448 
L 619.857471 236.597229 
L 619.995815 238.196087 
L 620.383179 246.22542 
L 621.517603 269.650951 
L 622.341658 282.010786 
L 623.139705 291.155763 
L 624.333375 303.228435 
L 624.358307 302.429547 
L 624.420101 288.940279 
L 624.679047 242.08993 
L 624.869935 236.557849 
L 624.917332 236.458075 
L 624.94893 236.554798 
L 625.075323 237.855484 
L 625.407103 244.446802 
L 626.671029 270.561394 
L 627.485764 282.598637 
L 628.347901 292.288782 
L 629.512064 302.780845 
L 629.62795 303.739246 
L 629.62795 303.739246 
" clip-path="url(#p1cfc61acc4)" style="fill: none; stroke: #0000ff; stroke-width: 1.5; stroke-linecap: square"/>
   </g>
   <g id="patch_9">
    <path d="M 394.363636 320.4 
L 394.363636 43.2 
" style="fill: none; stroke: #000000; stroke-width: 0.8; stroke-linejoin: miter; stroke-linecap: square"/>
   </g>
   <g id="patch_10">
    <path d="M 648 320.4 
L 648 43.2 
" style="fill: none; stroke: #000000; stroke-width: 0.8; stroke-linejoin: miter; stroke-linecap: square"/>
   </g>
   <g id="patch_11">
    <path d="M 394.363636 320.4 
L 648 320.4 
" style="fill: none; stroke: #000000; stroke-width: 0.8; stroke-linejoin: miter; stroke-linecap: square"/>
   </g>
   <g id="patch_12">
    <path d="M 394.363636 43.2 
L 648 43.2 
" style="fill: none; stroke: #000000; stroke-width: 0.8; stroke-linejoin: miter; stroke-linecap: square"/>
   </g>
   <g id="text_33">
    <!-- Goldberg1995a fm_po_LOS25_exp3174 -->
    <g transform="translate(383.201974 37.2) scale(0.14 -0.14)">
     <use xlink:href="#DejaVuSans-47"/>
     <use xlink:href="#DejaVuSans-6f" x="77.490234"/>
     <use xlink:href="#DejaVuSans-6c" x="138.671875"/>
     <use xlink:href="#DejaVuSans-64" x="166.455078"/>
     <use xlink:href="#DejaVuSans-62" x="229.931641"/>
     <use xlink:href="#DejaVuSans-65" x="293.408203"/>
     <use xlink:href="#DejaVuSans-72" x="354.931641"/>
     <use xlink:href="#DejaVuSans-67" x="394.294922"/>
     <use xlink:href="#DejaVuSans-31" x="457.771484"/>
     <use xlink:href="#DejaVuSans-39" x="521.394531"/>
     <use xlink:href="#DejaVuSans-39" x="585.017578"/>
     <use xlink:href="#DejaVuSans-35" x="648.640625"/>
     <use xlink:href="#DejaVuSans-61" x="712.263672"/>
     <use xlink:href="#DejaVuSans-20" x="773.542969"/>
     <use xlink:href="#DejaVuSans-66" x="805.330078"/>
     <use xlink:href="#DejaVuSans-6d" x="840.535156"/>
     <use xlink:href="#DejaVuSans-5f" x="937.947266"/>
     <use xlink:href="#DejaVuSans-70" x="987.947266"/>
     <use xlink:href="#DejaVuSans-6f" x="1051.423828"/>
     <use xlink:href="#DejaVuSans-5f" x="1112.605469"/>
     <use xlink:href="#DejaVuSans-4c" x="1162.605469"/>
     <use xlink:href="#DejaVuSans-4f" x="1214.693359"/>
     <use xlink:href="#DejaVuSans-53" x="1293.404297"/>
     <use xlink:href="#DejaVuSans-32" x="1356.880859"/>
     <use xlink:href="#DejaVuSans-35" x="1420.503906"/>
     <use xlink:href="#DejaVuSans-5f" x="1484.126953"/>
     <use xlink:href="#DejaVuSans-65" x="1534.126953"/>
     <use xlink:href="#DejaVuSans-78" x="1593.900391"/>
     <use xlink:href="#DejaVuSans-70" x="1653.080078"/>
     <use xlink:href="#DejaVuSans-33" x="1716.556641"/>
     <use xlink:href="#DejaVuSans-31" x="1780.179688"/>
     <use xlink:href="#DejaVuSans-37" x="1843.802734"/>
     <use xlink:href="#DejaVuSans-34" x="1907.425781"/>
    </g>
   </g>
   <g id="legend_2">
    <g id="patch_13">
     <path d="M 533.734375 80.834375 
L 641 80.834375 
Q 643 80.834375 643 78.834375 
L 643 50.2 
Q 643 48.2 641 48.2 
L 533.734375 48.2 
Q 531.734375 48.2 531.734375 50.2 
L 531.734375 78.834375 
Q 531.734375 80.834375 533.734375 80.834375 
z
" style="fill: #ffffff; opacity: 0.8; stroke: #cccccc; stroke-linejoin: miter"/>
    </g>
    <g id="line2d_68">
     <g>
      <use xlink:href="#ma6dd244a64" x="545.734375" y="56.298437" style="stroke: #000000; stroke-linejoin: miter"/>
     </g>
    </g>
    <g id="text_34">
     <!-- reference_data -->
     <g transform="translate(563.734375 59.798437) scale(0.1 -0.1)">
      <use xlink:href="#DejaVuSans-72"/>
      <use xlink:href="#DejaVuSans-65" x="38.863281"/>
      <use xlink:href="#DejaVuSans-66" x="100.386719"/>
      <use xlink:href="#DejaVuSans-65" x="135.591797"/>
      <use xlink:href="#DejaVuSans-72" x="197.115234"/>
      <use xlink:href="#DejaVuSans-65" x="235.978516"/>
      <use xlink:href="#DejaVuSans-6e" x="297.501953"/>
      <use xlink:href="#DejaVuSans-63" x="360.880859"/>
      <use xlink:href="#DejaVuSans-65" x="415.861328"/>
      <use xlink:href="#DejaVuSans-5f" x="477.384766"/>
      <use xlink:href="#DejaVuSans-64" x="527.384766"/>
      <use xlink:href="#DejaVuSans-61" x="590.861328"/>
      <use xlink:href="#DejaVuSans-74" x="652.140625"/>
      <use xlink:href="#DejaVuSans-61" x="691.349609"/>
     </g>
    </g>
    <g id="line2d_69">
     <path d="M 535.734375 71.254687 
L 545.734375 71.254687 
L 555.734375 71.254687 
" style="fill: none; stroke: #0000ff; stroke-width: 1.5; stroke-linecap: square"/>
    </g>
    <g id="text_35">
     <!-- observable -->
     <g transform="translate(563.734375 74.754687) scale(0.1 -0.1)">
      <use xlink:href="#DejaVuSans-6f"/>
      <use xlink:href="#DejaVuSans-62" x="61.181641"/>
      <use xlink:href="#DejaVuSans-73" x="124.658203"/>
      <use xlink:href="#DejaVuSans-65" x="176.757812"/>
      <use xlink:href="#DejaVuSans-72" x="238.28125"/>
      <use xlink:href="#DejaVuSans-76" x="279.394531"/>
      <use xlink:href="#DejaVuSans-61" x="338.574219"/>
      <use xlink:href="#DejaVuSans-62" x="399.853516"/>
      <use xlink:href="#DejaVuSans-6c" x="463.330078"/>
      <use xlink:href="#DejaVuSans-65" x="491.113281"/>
     </g>
    </g>
   </g>
  </g>
 </g>
 <defs>
  <clipPath id="p287337eab0">
   <rect x="90" y="43.2" width="253.636364" height="277.2"/>
  </clipPath>
  <clipPath id="p1cfc61acc4">
   <rect x="394.363636" y="43.2" width="253.636364" height="277.2"/>
  </clipPath>
 </defs>
</svg>
