<?xml version="1.0" encoding="utf-8" standalone="no"?>
<!DOCTYPE svg PUBLIC "-//W3C//DTD SVG 1.1//EN"
  "http://www.w3.org/Graphics/SVG/1.1/DTD/svg11.dtd">
<svg xmlns:xlink="http://www.w3.org/1999/xlink" width="720pt" height="360pt" viewBox="0 0 720 360" xmlns="http://www.w3.org/2000/svg" version="1.1">
 <metadata>
  <rdf:RDF xmlns:dc="http://purl.org/dc/elements/1.1/" xmlns:cc="http://creativecommons.org/ns#" xmlns:rdf="http://www.w3.org/1999/02/22-rdf-syntax-ns#">
   <cc:Work>
    <dc:type rdf:resource="http://purl.org/dc/dcmitype/StillImage"/>
    <dc:date>2025-07-08T18:39:33.480437</dc:date>
    <dc:format>image/svg+xml</dc:format>
    <dc:creator>
     <cc:Agent>
      <dc:title>Matplotlib v3.9.1, https://matplotlib.org/</dc:title>
     </cc:Agent>
    </dc:creator>
   </cc:Work>
  </rdf:RDF>
 </metadata>
 <defs>
  <style type="text/css">*{stroke-linejoin: round; stroke-linecap: butt}</style>
 </defs>
 <g id="figure_1">
  <g id="patch_1">
   <path d="M 0 360 
L 720 360 
L 720 0 
L 0 0 
z
" style="fill: #ffffff"/>
  </g>
  <g id="axes_1">
   <g id="patch_2">
    <path d="M 90 320.4 
L 343.636364 320.4 
L 343.636364 43.2 
L 90 43.2 
z
" style="fill: #ffffff"/>
   </g>
   <g id="matplotlib.axis_1">
    <g id="xtick_1">
     <g id="line2d_1">
      <defs>
       <path id="m07e8964a53" d="M 0 0 
L 0 3.5 
" style="stroke: #000000; stroke-width: 0.8"/>
      </defs>
      <g>
       <use xlink:href="#m07e8964a53" x="110.711085" y="320.4" style="stroke: #000000; stroke-width: 0.8"/>
      </g>
     </g>
     <g id="text_1">
      <!-- 0 -->
      <g transform="translate(107.529835 334.998438) scale(0.1 -0.1)">
       <defs>
        <path id="DejaVuSans-30" d="M 2034 4250 
Q 1547 4250 1301 3770 
Q 1056 3291 1056 2328 
Q 1056 1369 1301 889 
Q 1547 409 2034 409 
Q 2525 409 2770 889 
Q 3016 1369 3016 2328 
Q 3016 3291 2770 3770 
Q 2525 4250 2034 4250 
z
M 2034 4750 
Q 2819 4750 3233 4129 
Q 3647 3509 3647 2328 
Q 3647 1150 3233 529 
Q 2819 -91 2034 -91 
Q 1250 -91 836 529 
Q 422 1150 422 2328 
Q 422 3509 836 4129 
Q 1250 4750 2034 4750 
z
" transform="scale(0.015625)"/>
       </defs>
       <use xlink:href="#DejaVuSans-30"/>
      </g>
     </g>
    </g>
    <g id="xtick_2">
     <g id="line2d_2">
      <g>
       <use xlink:href="#m07e8964a53" x="146.150997" y="320.4" style="stroke: #000000; stroke-width: 0.8"/>
      </g>
     </g>
     <g id="text_2">
      <!-- 10000 -->
      <g transform="translate(130.244747 334.998438) scale(0.1 -0.1)">
       <defs>
        <path id="DejaVuSans-31" d="M 794 531 
L 1825 531 
L 1825 4091 
L 703 3866 
L 703 4441 
L 1819 4666 
L 2450 4666 
L 2450 531 
L 3481 531 
L 3481 0 
L 794 0 
L 794 531 
z
" transform="scale(0.015625)"/>
       </defs>
       <use xlink:href="#DejaVuSans-31"/>
       <use xlink:href="#DejaVuSans-30" x="63.623047"/>
       <use xlink:href="#DejaVuSans-30" x="127.246094"/>
       <use xlink:href="#DejaVuSans-30" x="190.869141"/>
       <use xlink:href="#DejaVuSans-30" x="254.492188"/>
      </g>
     </g>
    </g>
    <g id="xtick_3">
     <g id="line2d_3">
      <g>
       <use xlink:href="#m07e8964a53" x="181.590909" y="320.4" style="stroke: #000000; stroke-width: 0.8"/>
      </g>
     </g>
     <g id="text_3">
      <!-- 20000 -->
      <g transform="translate(165.684659 334.998438) scale(0.1 -0.1)">
       <defs>
        <path id="DejaVuSans-32" d="M 1228 531 
L 3431 531 
L 3431 0 
L 469 0 
L 469 531 
Q 828 903 1448 1529 
Q 2069 2156 2228 2338 
Q 2531 2678 2651 2914 
Q 2772 3150 2772 3378 
Q 2772 3750 2511 3984 
Q 2250 4219 1831 4219 
Q 1534 4219 1204 4116 
Q 875 4013 500 3803 
L 500 4441 
Q 881 4594 1212 4672 
Q 1544 4750 1819 4750 
Q 2544 4750 2975 4387 
Q 3406 4025 3406 3419 
Q 3406 3131 3298 2873 
Q 3191 2616 2906 2266 
Q 2828 2175 2409 1742 
Q 1991 1309 1228 531 
z
" transform="scale(0.015625)"/>
       </defs>
       <use xlink:href="#DejaVuSans-32"/>
       <use xlink:href="#DejaVuSans-30" x="63.623047"/>
       <use xlink:href="#DejaVuSans-30" x="127.246094"/>
       <use xlink:href="#DejaVuSans-30" x="190.869141"/>
       <use xlink:href="#DejaVuSans-30" x="254.492188"/>
      </g>
     </g>
    </g>
    <g id="xtick_4">
     <g id="line2d_4">
      <g>
       <use xlink:href="#m07e8964a53" x="217.030821" y="320.4" style="stroke: #000000; stroke-width: 0.8"/>
      </g>
     </g>
     <g id="text_4">
      <!-- 30000 -->
      <g transform="translate(201.124571 334.998438) scale(0.1 -0.1)">
       <defs>
        <path id="DejaVuSans-33" d="M 2597 2516 
Q 3050 2419 3304 2112 
Q 3559 1806 3559 1356 
Q 3559 666 3084 287 
Q 2609 -91 1734 -91 
Q 1441 -91 1130 -33 
Q 819 25 488 141 
L 488 750 
Q 750 597 1062 519 
Q 1375 441 1716 441 
Q 2309 441 2620 675 
Q 2931 909 2931 1356 
Q 2931 1769 2642 2001 
Q 2353 2234 1838 2234 
L 1294 2234 
L 1294 2753 
L 1863 2753 
Q 2328 2753 2575 2939 
Q 2822 3125 2822 3475 
Q 2822 3834 2567 4026 
Q 2313 4219 1838 4219 
Q 1578 4219 1281 4162 
Q 984 4106 628 3988 
L 628 4550 
Q 988 4650 1302 4700 
Q 1616 4750 1894 4750 
Q 2613 4750 3031 4423 
Q 3450 4097 3450 3541 
Q 3450 3153 3228 2886 
Q 3006 2619 2597 2516 
z
" transform="scale(0.015625)"/>
       </defs>
       <use xlink:href="#DejaVuSans-33"/>
       <use xlink:href="#DejaVuSans-30" x="63.623047"/>
       <use xlink:href="#DejaVuSans-30" x="127.246094"/>
       <use xlink:href="#DejaVuSans-30" x="190.869141"/>
       <use xlink:href="#DejaVuSans-30" x="254.492188"/>
      </g>
     </g>
    </g>
    <g id="xtick_5">
     <g id="line2d_5">
      <g>
       <use xlink:href="#m07e8964a53" x="252.470733" y="320.4" style="stroke: #000000; stroke-width: 0.8"/>
      </g>
     </g>
     <g id="text_5">
      <!-- 40000 -->
      <g transform="translate(236.564483 334.998438) scale(0.1 -0.1)">
       <defs>
        <path id="DejaVuSans-34" d="M 2419 4116 
L 825 1625 
L 2419 1625 
L 2419 4116 
z
M 2253 4666 
L 3047 4666 
L 3047 1625 
L 3713 1625 
L 3713 1100 
L 3047 1100 
L 3047 0 
L 2419 0 
L 2419 1100 
L 313 1100 
L 313 1709 
L 2253 4666 
z
" transform="scale(0.015625)"/>
       </defs>
       <use xlink:href="#DejaVuSans-34"/>
       <use xlink:href="#DejaVuSans-30" x="63.623047"/>
       <use xlink:href="#DejaVuSans-30" x="127.246094"/>
       <use xlink:href="#DejaVuSans-30" x="190.869141"/>
       <use xlink:href="#DejaVuSans-30" x="254.492188"/>
      </g>
     </g>
    </g>
    <g id="xtick_6">
     <g id="line2d_6">
      <g>
       <use xlink:href="#m07e8964a53" x="287.910646" y="320.4" style="stroke: #000000; stroke-width: 0.8"/>
      </g>
     </g>
     <g id="text_6">
      <!-- 50000 -->
      <g transform="translate(272.004396 334.998438) scale(0.1 -0.1)">
       <defs>
        <path id="DejaVuSans-35" d="M 691 4666 
L 3169 4666 
L 3169 4134 
L 1269 4134 
L 1269 2991 
Q 1406 3038 1543 3061 
Q 1681 3084 1819 3084 
Q 2600 3084 3056 2656 
Q 3513 2228 3513 1497 
Q 3513 744 3044 326 
Q 2575 -91 1722 -91 
Q 1428 -91 1123 -41 
Q 819 9 494 109 
L 494 744 
Q 775 591 1075 516 
Q 1375 441 1709 441 
Q 2250 441 2565 725 
Q 2881 1009 2881 1497 
Q 2881 1984 2565 2268 
Q 2250 2553 1709 2553 
Q 1456 2553 1204 2497 
Q 953 2441 691 2322 
L 691 4666 
z
" transform="scale(0.015625)"/>
       </defs>
       <use xlink:href="#DejaVuSans-35"/>
       <use xlink:href="#DejaVuSans-30" x="63.623047"/>
       <use xlink:href="#DejaVuSans-30" x="127.246094"/>
       <use xlink:href="#DejaVuSans-30" x="190.869141"/>
       <use xlink:href="#DejaVuSans-30" x="254.492188"/>
      </g>
     </g>
    </g>
    <g id="xtick_7">
     <g id="line2d_7">
      <g>
       <use xlink:href="#m07e8964a53" x="323.350558" y="320.4" style="stroke: #000000; stroke-width: 0.8"/>
      </g>
     </g>
     <g id="text_7">
      <!-- 60000 -->
      <g transform="translate(307.444308 334.998438) scale(0.1 -0.1)">
       <defs>
        <path id="DejaVuSans-36" d="M 2113 2584 
Q 1688 2584 1439 2293 
Q 1191 2003 1191 1497 
Q 1191 994 1439 701 
Q 1688 409 2113 409 
Q 2538 409 2786 701 
Q 3034 994 3034 1497 
Q 3034 2003 2786 2293 
Q 2538 2584 2113 2584 
z
M 3366 4563 
L 3366 3988 
Q 3128 4100 2886 4159 
Q 2644 4219 2406 4219 
Q 1781 4219 1451 3797 
Q 1122 3375 1075 2522 
Q 1259 2794 1537 2939 
Q 1816 3084 2150 3084 
Q 2853 3084 3261 2657 
Q 3669 2231 3669 1497 
Q 3669 778 3244 343 
Q 2819 -91 2113 -91 
Q 1303 -91 875 529 
Q 447 1150 447 2328 
Q 447 3434 972 4092 
Q 1497 4750 2381 4750 
Q 2619 4750 2861 4703 
Q 3103 4656 3366 4563 
z
" transform="scale(0.015625)"/>
       </defs>
       <use xlink:href="#DejaVuSans-36"/>
       <use xlink:href="#DejaVuSans-30" x="63.623047"/>
       <use xlink:href="#DejaVuSans-30" x="127.246094"/>
       <use xlink:href="#DejaVuSans-30" x="190.869141"/>
       <use xlink:href="#DejaVuSans-30" x="254.492188"/>
      </g>
     </g>
    </g>
    <g id="text_8">
     <!-- time -->
     <g transform="translate(203.262869 350.19625) scale(0.12 -0.12)">
      <defs>
       <path id="DejaVuSans-74" d="M 1172 4494 
L 1172 3500 
L 2356 3500 
L 2356 3053 
L 1172 3053 
L 1172 1153 
Q 1172 725 1289 603 
Q 1406 481 1766 481 
L 2356 481 
L 2356 0 
L 1766 0 
Q 1100 0 847 248 
Q 594 497 594 1153 
L 594 3053 
L 172 3053 
L 172 3500 
L 594 3500 
L 594 4494 
L 1172 4494 
z
" transform="scale(0.015625)"/>
       <path id="DejaVuSans-69" d="M 603 3500 
L 1178 3500 
L 1178 0 
L 603 0 
L 603 3500 
z
M 603 4863 
L 1178 4863 
L 1178 4134 
L 603 4134 
L 603 4863 
z
" transform="scale(0.015625)"/>
       <path id="DejaVuSans-6d" d="M 3328 2828 
Q 3544 3216 3844 3400 
Q 4144 3584 4550 3584 
Q 5097 3584 5394 3201 
Q 5691 2819 5691 2113 
L 5691 0 
L 5113 0 
L 5113 2094 
Q 5113 2597 4934 2840 
Q 4756 3084 4391 3084 
Q 3944 3084 3684 2787 
Q 3425 2491 3425 1978 
L 3425 0 
L 2847 0 
L 2847 2094 
Q 2847 2600 2669 2842 
Q 2491 3084 2119 3084 
Q 1678 3084 1418 2786 
Q 1159 2488 1159 1978 
L 1159 0 
L 581 0 
L 581 3500 
L 1159 3500 
L 1159 2956 
Q 1356 3278 1631 3431 
Q 1906 3584 2284 3584 
Q 2666 3584 2933 3390 
Q 3200 3197 3328 2828 
z
" transform="scale(0.015625)"/>
       <path id="DejaVuSans-65" d="M 3597 1894 
L 3597 1613 
L 953 1613 
Q 991 1019 1311 708 
Q 1631 397 2203 397 
Q 2534 397 2845 478 
Q 3156 559 3463 722 
L 3463 178 
Q 3153 47 2828 -22 
Q 2503 -91 2169 -91 
Q 1331 -91 842 396 
Q 353 884 353 1716 
Q 353 2575 817 3079 
Q 1281 3584 2069 3584 
Q 2775 3584 3186 3129 
Q 3597 2675 3597 1894 
z
M 3022 2063 
Q 3016 2534 2758 2815 
Q 2500 3097 2075 3097 
Q 1594 3097 1305 2825 
Q 1016 2553 972 2059 
L 3022 2063 
z
" transform="scale(0.015625)"/>
      </defs>
      <use xlink:href="#DejaVuSans-74"/>
      <use xlink:href="#DejaVuSans-69" x="39.208984"/>
      <use xlink:href="#DejaVuSans-6d" x="66.992188"/>
      <use xlink:href="#DejaVuSans-65" x="164.404297"/>
     </g>
    </g>
   </g>
   <g id="matplotlib.axis_2">
    <g id="ytick_1">
     <g id="line2d_8">
      <defs>
       <path id="m42d555b244" d="M 0 0 
L -3.5 0 
" style="stroke: #000000; stroke-width: 0.8"/>
      </defs>
      <g>
       <use xlink:href="#m42d555b244" x="90" y="307.8" style="stroke: #000000; stroke-width: 0.8"/>
      </g>
     </g>
     <g id="text_9">
      <!-- 0.0000 -->
      <g transform="translate(48.009375 311.599219) scale(0.1 -0.1)">
       <defs>
        <path id="DejaVuSans-2e" d="M 684 794 
L 1344 794 
L 1344 0 
L 684 0 
L 684 794 
z
" transform="scale(0.015625)"/>
       </defs>
       <use xlink:href="#DejaVuSans-30"/>
       <use xlink:href="#DejaVuSans-2e" x="63.623047"/>
       <use xlink:href="#DejaVuSans-30" x="95.410156"/>
       <use xlink:href="#DejaVuSans-30" x="159.033203"/>
       <use xlink:href="#DejaVuSans-30" x="222.65625"/>
       <use xlink:href="#DejaVuSans-30" x="286.279297"/>
      </g>
     </g>
    </g>
    <g id="ytick_2">
     <g id="line2d_9">
      <g>
       <use xlink:href="#m42d555b244" x="90" y="246.463834" style="stroke: #000000; stroke-width: 0.8"/>
      </g>
     </g>
     <g id="text_10">
      <!-- 0.0002 -->
      <g transform="translate(48.009375 250.263053) scale(0.1 -0.1)">
       <use xlink:href="#DejaVuSans-30"/>
       <use xlink:href="#DejaVuSans-2e" x="63.623047"/>
       <use xlink:href="#DejaVuSans-30" x="95.410156"/>
       <use xlink:href="#DejaVuSans-30" x="159.033203"/>
       <use xlink:href="#DejaVuSans-30" x="222.65625"/>
       <use xlink:href="#DejaVuSans-32" x="286.279297"/>
      </g>
     </g>
    </g>
    <g id="ytick_3">
     <g id="line2d_10">
      <g>
       <use xlink:href="#m42d555b244" x="90" y="185.127668" style="stroke: #000000; stroke-width: 0.8"/>
      </g>
     </g>
     <g id="text_11">
      <!-- 0.0004 -->
      <g transform="translate(48.009375 188.926886) scale(0.1 -0.1)">
       <use xlink:href="#DejaVuSans-30"/>
       <use xlink:href="#DejaVuSans-2e" x="63.623047"/>
       <use xlink:href="#DejaVuSans-30" x="95.410156"/>
       <use xlink:href="#DejaVuSans-30" x="159.033203"/>
       <use xlink:href="#DejaVuSans-30" x="222.65625"/>
       <use xlink:href="#DejaVuSans-34" x="286.279297"/>
      </g>
     </g>
    </g>
    <g id="ytick_4">
     <g id="line2d_11">
      <g>
       <use xlink:href="#m42d555b244" x="90" y="123.791501" style="stroke: #000000; stroke-width: 0.8"/>
      </g>
     </g>
     <g id="text_12">
      <!-- 0.0006 -->
      <g transform="translate(48.009375 127.59072) scale(0.1 -0.1)">
       <use xlink:href="#DejaVuSans-30"/>
       <use xlink:href="#DejaVuSans-2e" x="63.623047"/>
       <use xlink:href="#DejaVuSans-30" x="95.410156"/>
       <use xlink:href="#DejaVuSans-30" x="159.033203"/>
       <use xlink:href="#DejaVuSans-30" x="222.65625"/>
       <use xlink:href="#DejaVuSans-36" x="286.279297"/>
      </g>
     </g>
    </g>
    <g id="ytick_5">
     <g id="line2d_12">
      <g>
       <use xlink:href="#m42d555b244" x="90" y="62.455335" style="stroke: #000000; stroke-width: 0.8"/>
      </g>
     </g>
     <g id="text_13">
      <!-- 0.0008 -->
      <g transform="translate(48.009375 66.254554) scale(0.1 -0.1)">
       <defs>
        <path id="DejaVuSans-38" d="M 2034 2216 
Q 1584 2216 1326 1975 
Q 1069 1734 1069 1313 
Q 1069 891 1326 650 
Q 1584 409 2034 409 
Q 2484 409 2743 651 
Q 3003 894 3003 1313 
Q 3003 1734 2745 1975 
Q 2488 2216 2034 2216 
z
M 1403 2484 
Q 997 2584 770 2862 
Q 544 3141 544 3541 
Q 544 4100 942 4425 
Q 1341 4750 2034 4750 
Q 2731 4750 3128 4425 
Q 3525 4100 3525 3541 
Q 3525 3141 3298 2862 
Q 3072 2584 2669 2484 
Q 3125 2378 3379 2068 
Q 3634 1759 3634 1313 
Q 3634 634 3220 271 
Q 2806 -91 2034 -91 
Q 1263 -91 848 271 
Q 434 634 434 1313 
Q 434 1759 690 2068 
Q 947 2378 1403 2484 
z
M 1172 3481 
Q 1172 3119 1398 2916 
Q 1625 2713 2034 2713 
Q 2441 2713 2670 2916 
Q 2900 3119 2900 3481 
Q 2900 3844 2670 4047 
Q 2441 4250 2034 4250 
Q 1625 4250 1398 4047 
Q 1172 3844 1172 3481 
z
" transform="scale(0.015625)"/>
       </defs>
       <use xlink:href="#DejaVuSans-30"/>
       <use xlink:href="#DejaVuSans-2e" x="63.623047"/>
       <use xlink:href="#DejaVuSans-30" x="95.410156"/>
       <use xlink:href="#DejaVuSans-30" x="159.033203"/>
       <use xlink:href="#DejaVuSans-30" x="222.65625"/>
       <use xlink:href="#DejaVuSans-38" x="286.279297"/>
      </g>
     </g>
    </g>
    <g id="text_14">
     <!-- [Cve_los] -->
     <g transform="translate(41.18 209.378437) rotate(-90) scale(0.12 -0.12)">
      <defs>
       <path id="DejaVuSans-5b" d="M 550 4863 
L 1875 4863 
L 1875 4416 
L 1125 4416 
L 1125 -397 
L 1875 -397 
L 1875 -844 
L 550 -844 
L 550 4863 
z
" transform="scale(0.015625)"/>
       <path id="DejaVuSans-43" d="M 4122 4306 
L 4122 3641 
Q 3803 3938 3442 4084 
Q 3081 4231 2675 4231 
Q 1875 4231 1450 3742 
Q 1025 3253 1025 2328 
Q 1025 1406 1450 917 
Q 1875 428 2675 428 
Q 3081 428 3442 575 
Q 3803 722 4122 1019 
L 4122 359 
Q 3791 134 3420 21 
Q 3050 -91 2638 -91 
Q 1578 -91 968 557 
Q 359 1206 359 2328 
Q 359 3453 968 4101 
Q 1578 4750 2638 4750 
Q 3056 4750 3426 4639 
Q 3797 4528 4122 4306 
z
" transform="scale(0.015625)"/>
       <path id="DejaVuSans-76" d="M 191 3500 
L 800 3500 
L 1894 563 
L 2988 3500 
L 3597 3500 
L 2284 0 
L 1503 0 
L 191 3500 
z
" transform="scale(0.015625)"/>
       <path id="DejaVuSans-5f" d="M 3263 -1063 
L 3263 -1509 
L -63 -1509 
L -63 -1063 
L 3263 -1063 
z
" transform="scale(0.015625)"/>
       <path id="DejaVuSans-6c" d="M 603 4863 
L 1178 4863 
L 1178 0 
L 603 0 
L 603 4863 
z
" transform="scale(0.015625)"/>
       <path id="DejaVuSans-6f" d="M 1959 3097 
Q 1497 3097 1228 2736 
Q 959 2375 959 1747 
Q 959 1119 1226 758 
Q 1494 397 1959 397 
Q 2419 397 2687 759 
Q 2956 1122 2956 1747 
Q 2956 2369 2687 2733 
Q 2419 3097 1959 3097 
z
M 1959 3584 
Q 2709 3584 3137 3096 
Q 3566 2609 3566 1747 
Q 3566 888 3137 398 
Q 2709 -91 1959 -91 
Q 1206 -91 779 398 
Q 353 888 353 1747 
Q 353 2609 779 3096 
Q 1206 3584 1959 3584 
z
" transform="scale(0.015625)"/>
       <path id="DejaVuSans-73" d="M 2834 3397 
L 2834 2853 
Q 2591 2978 2328 3040 
Q 2066 3103 1784 3103 
Q 1356 3103 1142 2972 
Q 928 2841 928 2578 
Q 928 2378 1081 2264 
Q 1234 2150 1697 2047 
L 1894 2003 
Q 2506 1872 2764 1633 
Q 3022 1394 3022 966 
Q 3022 478 2636 193 
Q 2250 -91 1575 -91 
Q 1294 -91 989 -36 
Q 684 19 347 128 
L 347 722 
Q 666 556 975 473 
Q 1284 391 1588 391 
Q 1994 391 2212 530 
Q 2431 669 2431 922 
Q 2431 1156 2273 1281 
Q 2116 1406 1581 1522 
L 1381 1569 
Q 847 1681 609 1914 
Q 372 2147 372 2553 
Q 372 3047 722 3315 
Q 1072 3584 1716 3584 
Q 2034 3584 2315 3537 
Q 2597 3491 2834 3397 
z
" transform="scale(0.015625)"/>
       <path id="DejaVuSans-5d" d="M 1947 4863 
L 1947 -844 
L 622 -844 
L 622 -397 
L 1369 -397 
L 1369 4416 
L 622 4416 
L 622 4863 
L 1947 4863 
z
" transform="scale(0.015625)"/>
      </defs>
      <use xlink:href="#DejaVuSans-5b"/>
      <use xlink:href="#DejaVuSans-43" x="39.013672"/>
      <use xlink:href="#DejaVuSans-76" x="108.837891"/>
      <use xlink:href="#DejaVuSans-65" x="168.017578"/>
      <use xlink:href="#DejaVuSans-5f" x="229.541016"/>
      <use xlink:href="#DejaVuSans-6c" x="279.541016"/>
      <use xlink:href="#DejaVuSans-6f" x="307.324219"/>
      <use xlink:href="#DejaVuSans-73" x="368.505859"/>
      <use xlink:href="#DejaVuSans-5d" x="420.605469"/>
     </g>
    </g>
   </g>
   <g id="line2d_13">
    <defs>
     <path id="mc39b30af18" d="M -5 5 
L 5 5 
L 5 -5 
L -5 -5 
z
" style="stroke: #000000; stroke-linejoin: miter"/>
    </defs>
    <g clip-path="url(#p2d0c226b23)">
     <use xlink:href="#mc39b30af18" x="111.136364" y="146.567505" style="stroke: #000000; stroke-linejoin: miter"/>
     <use xlink:href="#mc39b30af18" x="111.561643" y="271.330468" style="stroke: #000000; stroke-linejoin: miter"/>
     <use xlink:href="#mc39b30af18" x="111.986922" y="289.300752" style="stroke: #000000; stroke-linejoin: miter"/>
     <use xlink:href="#mc39b30af18" x="112.4122" y="299.479697" style="stroke: #000000; stroke-linejoin: miter"/>
     <use xlink:href="#mc39b30af18" x="113.262758" y="305.981592" style="stroke: #000000; stroke-linejoin: miter"/>
     <use xlink:href="#mc39b30af18" x="320.373605" y="117.05776" style="stroke: #000000; stroke-linejoin: miter"/>
     <use xlink:href="#mc39b30af18" x="320.798884" y="268.135478" style="stroke: #000000; stroke-linejoin: miter"/>
     <use xlink:href="#mc39b30af18" x="321.224163" y="288.217344" style="stroke: #000000; stroke-linejoin: miter"/>
     <use xlink:href="#mc39b30af18" x="321.649442" y="297.9484" style="stroke: #000000; stroke-linejoin: miter"/>
     <use xlink:href="#mc39b30af18" x="322.5" y="304.61661" style="stroke: #000000; stroke-linejoin: miter"/>
    </g>
   </g>
   <g id="line2d_14">
    <path d="M 105.607737 307.8 
L 110.716003 307.696994 
L 110.736305 298.785064 
L 110.932915 64.683595 
L 111.041032 111.06534 
L 111.362176 250.486819 
L 111.610333 278.259676 
L 111.873088 286.446854 
L 112.179634 289.662734 
L 112.691256 292.456864 
L 113.545978 295.903445 
L 114.469553 298.753915 
L 115.402757 300.940881 
L 115.815443 301.945193 
L 115.821942 301.60641 
L 115.848065 284.161556 
L 116.030818 57.993341 
L 116.110645 84.231989 
L 116.513912 253.937628 
L 116.765496 276.15536 
L 117.029059 282.993088 
L 117.376485 286.458343 
L 118.011434 290.259851 
L 118.910994 294.370425 
L 119.821908 297.549803 
L 120.774399 300.07224 
L 120.918871 300.535103 
L 120.925093 300.224106 
L 120.951914 282.146254 
L 121.138578 56.390822 
L 121.215564 83.55138 
L 121.614345 252.250006 
L 121.861896 274.731312 
L 122.13857 282.064225 
L 122.495596 285.656824 
L 123.159025 289.737598 
L 124.057604 293.965791 
L 124.953562 297.194041 
L 125.877005 299.73486 
L 126.021127 300.072184 
L 126.022128 300.385348 
L 126.13011 148.092125 
L 126.242665 56.242897 
L 126.28239 65.38477 
L 126.876506 269.517563 
L 127.139073 280.12073 
L 127.454153 284.377936 
L 127.966157 287.977252 
L 128.832627 292.483309 
L 129.71279 296.002503 
L 130.588006 298.699582 
L 131.125578 300.374621 
L 131.132777 299.924565 
L 131.161542 278.233258 
L 131.34025 56.225979 
L 131.409711 76.490345 
L 131.841164 255.176606 
L 132.089107 275.500992 
L 132.3646 282.227963 
L 132.73055 285.761152 
L 133.421439 289.950309 
L 134.325458 294.150118 
L 135.246584 297.413162 
L 136.204819 299.982558 
L 136.227821 300.034586 
L 136.228755 300.361857 
L 136.337739 146.456643 
L 136.448173 56.183205 
L 136.491959 66.516571 
L 137.058106 267.598502 
L 137.312811 279.349487 
L 137.605723 283.83939 
L 138.064193 287.298411 
L 138.891987 291.787951 
L 139.803563 295.581419 
L 140.720022 298.489367 
L 141.332276 300.17284 
L 141.337737 299.947261 
L 141.361173 286.53688 
L 141.549771 55.949664 
L 141.637625 88.205401 
L 142.014794 249.787835 
L 142.265638 273.991769 
L 142.5385 281.596682 
L 142.880964 285.20785 
L 143.51016 289.202914 
L 144.41362 293.577876 
L 145.32045 296.931766 
L 146.183226 299.385386 
L 146.43555 300.108285 
L 146.441658 299.819161 
L 146.467854 282.686561 
L 146.653894 55.880088 
L 146.735217 84.751828 
L 147.128584 251.475457 
L 147.385361 274.698275 
L 147.648243 281.64872 
L 147.995644 285.252858 
L 148.634861 289.285938 
L 149.539041 293.644003 
L 150.367012 296.72631 
L 151.22665 299.218339 
L 151.538931 300.162261 
L 151.545907 299.752376 
L 151.575355 277.455168 
L 151.756861 55.93887 
L 151.82808 78.913414 
L 152.253272 254.807617 
L 152.504448 275.415394 
L 152.778459 282.08193 
L 153.143807 285.623417 
L 153.828834 289.806878 
L 154.731777 294.036104 
L 155.633639 297.266398 
L 156.595993 299.881782 
L 156.64224 300.145508 
L 156.6493 299.728878 
L 156.677191 279.431209 
L 156.860466 55.921342 
L 156.934968 80.844624 
L 157.348523 253.589195 
L 157.596904 274.940739 
L 157.870123 281.902457 
L 158.230276 285.487962 
L 158.900906 289.629829 
L 159.809897 293.92592 
L 160.667707 297.042451 
L 161.560761 299.545533 
L 161.744558 299.982209 
L 161.745475 300.276962 
L 161.855276 144.996929 
L 161.964083 56.073353 
L 162.008269 66.245096 
L 162.571381 267.246666 
L 162.835083 279.419164 
L 163.125825 283.814394 
L 163.58824 287.293235 
L 164.417398 291.789281 
L 165.313541 295.526373 
L 166.230228 298.448053 
L 166.849031 300.131541 
L 166.854537 299.899426 
L 166.87818 286.204897 
L 167.066418 55.902698 
L 167.15614 89.221475 
L 167.529008 249.31626 
L 167.785813 274.123058 
L 168.056133 281.580775 
L 168.401427 285.209634 
L 169.03774 289.240542 
L 169.944487 293.620274 
L 170.832971 296.905046 
L 171.692187 299.355789 
L 171.952332 300.078342 
L 171.958677 299.754245 
L 171.985439 281.627395 
L 172.171843 55.866311 
L 172.243638 80.008832 
L 172.652228 252.553057 
L 172.904938 274.800315 
L 173.170285 281.707609 
L 173.52408 285.322524 
L 174.181128 289.432011 
L 175.086516 293.760266 
L 175.998873 297.088708 
L 176.927794 299.667985 
L 177.055722 300.037872 
L 177.061241 299.804981 
L 177.08496 286.019486 
L 177.273982 55.8 
L 177.364052 89.84846 
L 177.725538 247.420525 
L 177.985106 273.692157 
L 178.258335 281.442238 
L 178.602579 285.105352 
L 179.238774 289.158417 
L 180.145351 293.556915 
L 181.022484 296.819462 
L 181.943642 299.44437 
L 182.159041 300.149711 
L 182.165407 299.820957 
L 182.192978 280.647174 
L 182.378159 55.939151 
L 182.449198 79.464349 
L 182.861803 253.063297 
L 183.113949 274.957508 
L 183.380102 281.806022 
L 183.730305 285.365375 
L 184.388685 289.474893 
L 185.293527 293.790767 
L 186.115644 296.822065 
L 187.005977 299.369635 
L 187.26243 300.063571 
L 187.267965 299.827576 
L 187.291736 285.957011 
L 187.481165 55.835299 
L 187.571432 90.290328 
L 187.934246 247.809866 
L 188.181898 273.21495 
L 188.44331 281.104827 
L 188.774657 284.847541 
L 189.368057 288.737304 
L 190.265765 293.198639 
L 191.167483 296.625063 
L 192.042053 299.178144 
L 192.365585 300.1354 
L 192.372236 299.788849 
L 192.400094 280.099342 
L 192.584201 55.912952 
L 192.657414 80.286147 
L 193.069646 253.227515 
L 193.327909 275.256176 
L 193.597911 281.958299 
L 193.961828 285.54165 
L 194.642703 289.723491 
L 195.536756 293.935936 
L 196.452447 297.233174 
L 197.409359 299.843978 
L 197.469019 300.056723 
L 197.475133 299.767436 
L 197.501396 282.553131 
L 197.688459 55.838784 
L 197.763425 81.685544 
L 198.165184 251.934667 
L 198.413951 274.43776 
L 198.687595 281.700536 
L 199.035868 285.270816 
L 199.682662 289.337044 
L 200.572379 293.622157 
L 201.470444 296.937402 
L 202.412127 299.584273 
L 202.572449 300.141889 
L 202.578854 299.805566 
L 202.606567 280.387207 
L 202.792771 55.962488 
L 202.864194 80.340882 
L 203.279712 253.747044 
L 203.535272 275.28932 
L 203.80503 281.969162 
L 204.159974 285.482491 
L 204.82727 289.607612 
L 205.736545 293.91017 
L 206.662078 297.244393 
L 207.55054 299.689443 
L 207.675808 300.20796 
L 207.683137 299.734428 
L 207.712448 277.133359 
L 207.89613 56.038021 
L 207.958635 75.632636 
L 208.397404 255.891828 
L 208.653151 275.928134 
L 208.923106 282.223609 
L 209.292518 285.739389 
L 209.988718 289.953689 
L 210.884678 294.119885 
L 211.763971 297.260202 
L 212.624736 299.634797 
L 212.779158 300.133148 
L 212.785591 299.79135 
L 212.813397 280.207488 
L 213.000187 55.979645 
L 213.071813 80.844623 
L 213.4725 251.562194 
L 213.720072 274.317984 
L 213.98685 281.591143 
L 214.330068 285.199213 
L 214.966421 289.233421 
L 215.854746 293.537139 
L 216.716604 296.754293 
L 217.558719 299.195425 
L 217.882488 300.146964 
L 217.888888 299.811754 
L 217.916589 280.418094 
L 218.102834 55.968937 
L 218.174321 80.393296 
L 218.590103 253.804072 
L 218.845568 275.303896 
L 219.115225 281.975011 
L 219.470037 285.485936 
L 220.137084 289.609072 
L 221.045963 293.90966 
L 221.970522 297.240954 
L 222.860135 299.689569 
L 222.98585 300.208726 
L 222.993181 299.734982 
L 223.022501 277.119501 
L 223.206328 56.044252 
L 223.26891 75.75477 
L 223.704266 255.442881 
L 223.962756 275.911687 
L 224.238825 282.301601 
L 224.610169 285.794784 
L 225.317632 290.053904 
L 226.220587 294.224745 
L 227.064513 297.230702 
L 227.905833 299.564588 
L 228.089091 300.273239 
L 228.096101 299.865531 
L 228.123888 279.772563 
L 228.306789 56.063965 
L 228.381083 80.571491 
L 228.797388 254.001897 
L 229.044493 275.072747 
L 229.319194 282.026602 
L 229.680642 285.596568 
L 230.360165 289.764184 
L 231.271258 294.036954 
L 232.165921 297.244539 
L 233.042242 299.660299 
L 233.192447 300.097107 
L 233.198545 299.810129 
L 233.224771 282.660974 
L 233.411672 55.880133 
L 233.493361 85.459449 
L 233.876259 249.928571 
L 234.125283 273.902452 
L 234.399209 281.548869 
L 234.747843 285.209418 
L 235.382854 289.230689 
L 236.27979 293.571373 
L 237.201567 296.974893 
L 238.07316 299.440661 
L 238.295893 300.18157 
L 238.302315 299.841319 
L 238.330082 280.321502 
L 238.516743 56.027362 
L 238.588394 80.812156 
L 238.989036 251.571726 
L 239.236213 274.328567 
L 239.511751 281.751384 
L 239.85628 285.30368 
L 240.503586 289.372094 
L 241.401181 293.682198 
L 242.31424 297.031392 
L 243.231756 299.596775 
L 243.399248 300.133843 
L 243.405693 299.789583 
L 243.433547 280.124517 
L 243.617869 55.91376 
L 243.691118 80.412127 
L 244.103659 253.309016 
L 244.362245 275.291125 
L 244.632586 281.974486 
L 244.996958 285.552923 
L 245.678686 289.736191 
L 246.582929 293.987465 
L 247.491643 297.250636 
L 248.40865 299.762567 
L 248.502495 300.091369 
L 248.508609 299.801735 
L 248.534868 282.589897 
L 248.722026 55.880305 
L 248.797011 81.787686 
L 249.198824 251.99128 
L 249.447694 274.477353 
L 249.721451 281.731342 
L 250.069869 285.297393 
L 250.716931 289.360034 
L 251.607036 293.641426 
L 252.506742 296.957444 
L 253.451356 299.606556 
L 253.605921 300.163537 
L 253.612324 299.827678 
L 253.640038 280.412403 
L 253.826497 55.995895 
L 253.898119 80.615435 
L 254.30052 251.789398 
L 254.556655 274.786228 
L 254.828077 281.832475 
L 255.180437 285.399069 
L 255.834298 289.475479 
L 256.739669 293.79343 
L 257.61266 296.988516 
L 258.569769 299.660255 
L 258.709171 300.133182 
L 258.716205 299.722748 
L 258.744095 279.474729 
L 258.927826 55.91165 
L 259.002498 81.156189 
L 259.413393 253.261355 
L 259.672145 275.284626 
L 259.943218 281.982409 
L 260.300542 285.504659 
L 260.978225 289.679288 
L 261.871616 293.899396 
L 262.733519 297.034961 
L 263.632159 299.553458 
L 263.812538 300.102209 
L 263.818652 299.812435 
L 263.844908 282.602626 
L 264.032067 55.892625 
L 264.107048 81.796923 
L 264.508928 252.010668 
L 264.757858 274.491438 
L 265.03168 281.741983 
L 265.380181 285.306503 
L 266.027397 289.368183 
L 266.917743 293.64869 
L 267.818653 296.966875 
L 268.765421 299.618909 
L 268.915962 300.175689 
L 268.922361 299.840467 
L 268.950062 280.447886 
L 269.136478 56.007538 
L 269.208108 80.599506 
L 269.610491 251.788465 
L 269.866437 274.784278 
L 270.137924 281.838386 
L 270.48932 285.398223 
L 271.149711 289.51124 
L 272.056562 293.826822 
L 272.938135 297.041706 
L 273.858132 299.610658 
L 274.019332 300.147376 
L 274.025774 299.803521 
L 274.053621 280.150648 
L 274.237955 55.929174 
L 274.311167 80.408246 
L 274.723479 253.280349 
L 274.981953 275.286023 
L 275.252176 281.977144 
L 275.616389 285.556842 
L 276.29782 289.738224 
L 277.192678 293.950529 
L 278.119686 297.279664 
L 278.993393 299.681093 
L 279.122656 300.208748 
L 279.129961 299.741474 
L 279.159217 277.261386 
L 279.342906 56.036032 
L 279.405535 75.653093 
L 279.844746 255.959634 
L 280.099891 275.923964 
L 280.375232 282.295879 
L 280.738124 285.730789 
L 281.430577 289.927532 
L 282.336851 294.141725 
L 283.266336 297.432509 
L 284.225966 300.1185 
L 284.229598 300.037259 
L 284.248757 292.286451 
L 284.371657 93.432913 
L 284.440823 55.929816 
L 284.499157 70.727083 
L 284.991327 261.303641 
L 285.249991 277.498328 
L 285.533196 282.918679 
L 285.936276 286.336413 
L 286.710188 290.794364 
L 287.62866 294.850133 
L 288.473612 297.72065 
L 289.329269 300.110654 
L 289.334096 299.951145 
L 289.35618 288.602692 
L 289.548606 55.897833 
L 289.648894 96.799067 
L 290.000809 247.781223 
L 290.249935 273.308345 
L 290.511517 281.160569 
L 290.847837 284.928862 
L 291.445739 288.824287 
L 292.342944 293.262797 
L 293.262514 296.73291 
L 294.218661 299.465444 
L 294.432713 300.204208 
L 294.44005 299.729481 
L 294.469401 277.064911 
L 294.65362 56.055333 
L 294.716392 76.072251 
L 295.154334 255.892152 
L 295.402493 275.6247 
L 295.679986 282.220552 
L 296.040795 285.674286 
L 296.733603 289.887844 
L 297.63304 294.083676 
L 298.485788 297.148783 
L 299.451268 299.800791 
L 299.53588 300.107278 
L 299.542548 299.75846 
L 299.570491 279.941103 
L 299.75539 55.896062 
L 299.829192 81.080393 
L 300.238624 253.000255 
L 300.492966 275.011694 
L 300.76 281.818387 
L 301.116045 285.403724 
L 301.78363 289.549936 
L 302.682356 293.822558 
L 303.566174 297.045585 
L 304.478653 299.595341 
L 304.639393 300.153816 
L 304.645796 299.81816 
L 304.67352 280.391743 
L 304.860164 55.992073 
L 304.93189 80.770062 
L 305.332898 251.603806 
L 305.580198 274.328456 
L 305.855591 281.736195 
L 306.201246 285.296648 
L 306.840202 289.319219 
L 307.731177 293.613972 
L 308.602748 296.845392 
L 309.488418 299.375908 
L 309.742761 300.191823 
L 309.749191 299.849907 
L 309.776989 280.276231 
L 309.961066 55.975856 
L 310.034111 80.188049 
L 310.456042 254.687392 
L 310.712757 275.623951 
L 310.978559 282.051314 
L 311.341367 285.596917 
L 312.026671 289.790699 
L 312.927051 294.013307 
L 313.820053 297.221194 
L 314.738416 299.743377 
L 314.846011 300.080571 
L 314.852127 299.790684 
L 314.878399 282.560162 
L 315.065751 55.873169 
L 315.14081 81.935303 
L 315.542499 252.007431 
L 315.791376 274.476397 
L 316.06514 281.726139 
L 316.413568 285.291754 
L 317.060647 289.355332 
L 317.950846 293.638208 
L 318.851589 296.958313 
L 319.798057 299.611717 
L 319.949437 300.168898 
L 319.95584 299.833039 
L 319.98356 280.40943 
L 320.170193 56.008707 
L 320.241923 80.781651 
L 320.642967 251.621384 
L 320.890318 274.343989 
L 321.166668 281.762747 
L 321.514993 285.334721 
L 322.167021 289.419398 
L 323.071778 293.748161 
L 323.975529 297.052074 
L 324.894977 299.61722 
L 325.264313 300.465592 
L 325.264313 300.465592 
" clip-path="url(#p2d0c226b23)" style="fill: none; stroke: #0000ff; stroke-width: 1.5; stroke-linecap: square"/>
   </g>
   <g id="patch_3">
    <path d="M 90 320.4 
L 90 43.2 
" style="fill: none; stroke: #000000; stroke-width: 0.8; stroke-linejoin: miter; stroke-linecap: square"/>
   </g>
   <g id="patch_4">
    <path d="M 343.636364 320.4 
L 343.636364 43.2 
" style="fill: none; stroke: #000000; stroke-width: 0.8; stroke-linejoin: miter; stroke-linecap: square"/>
   </g>
   <g id="patch_5">
    <path d="M 90 320.4 
L 343.636364 320.4 
" style="fill: none; stroke: #000000; stroke-width: 0.8; stroke-linejoin: miter; stroke-linecap: square"/>
   </g>
   <g id="patch_6">
    <path d="M 90 43.2 
L 343.636364 43.2 
" style="fill: none; stroke: #000000; stroke-width: 0.8; stroke-linejoin: miter; stroke-linecap: square"/>
   </g>
   <g id="text_15">
    <!-- Goldberg1995a fm_po_LOS100_losartan -->
    <g transform="translate(76.459432 37.2) scale(0.14 -0.14)">
     <defs>
      <path id="DejaVuSans-47" d="M 3809 666 
L 3809 1919 
L 2778 1919 
L 2778 2438 
L 4434 2438 
L 4434 434 
Q 4069 175 3628 42 
Q 3188 -91 2688 -91 
Q 1594 -91 976 548 
Q 359 1188 359 2328 
Q 359 3472 976 4111 
Q 1594 4750 2688 4750 
Q 3144 4750 3555 4637 
Q 3966 4525 4313 4306 
L 4313 3634 
Q 3963 3931 3569 4081 
Q 3175 4231 2741 4231 
Q 1884 4231 1454 3753 
Q 1025 3275 1025 2328 
Q 1025 1384 1454 906 
Q 1884 428 2741 428 
Q 3075 428 3337 486 
Q 3600 544 3809 666 
z
" transform="scale(0.015625)"/>
      <path id="DejaVuSans-64" d="M 2906 2969 
L 2906 4863 
L 3481 4863 
L 3481 0 
L 2906 0 
L 2906 525 
Q 2725 213 2448 61 
Q 2172 -91 1784 -91 
Q 1150 -91 751 415 
Q 353 922 353 1747 
Q 353 2572 751 3078 
Q 1150 3584 1784 3584 
Q 2172 3584 2448 3432 
Q 2725 3281 2906 2969 
z
M 947 1747 
Q 947 1113 1208 752 
Q 1469 391 1925 391 
Q 2381 391 2643 752 
Q 2906 1113 2906 1747 
Q 2906 2381 2643 2742 
Q 2381 3103 1925 3103 
Q 1469 3103 1208 2742 
Q 947 2381 947 1747 
z
" transform="scale(0.015625)"/>
      <path id="DejaVuSans-62" d="M 3116 1747 
Q 3116 2381 2855 2742 
Q 2594 3103 2138 3103 
Q 1681 3103 1420 2742 
Q 1159 2381 1159 1747 
Q 1159 1113 1420 752 
Q 1681 391 2138 391 
Q 2594 391 2855 752 
Q 3116 1113 3116 1747 
z
M 1159 2969 
Q 1341 3281 1617 3432 
Q 1894 3584 2278 3584 
Q 2916 3584 3314 3078 
Q 3713 2572 3713 1747 
Q 3713 922 3314 415 
Q 2916 -91 2278 -91 
Q 1894 -91 1617 61 
Q 1341 213 1159 525 
L 1159 0 
L 581 0 
L 581 4863 
L 1159 4863 
L 1159 2969 
z
" transform="scale(0.015625)"/>
      <path id="DejaVuSans-72" d="M 2631 2963 
Q 2534 3019 2420 3045 
Q 2306 3072 2169 3072 
Q 1681 3072 1420 2755 
Q 1159 2438 1159 1844 
L 1159 0 
L 581 0 
L 581 3500 
L 1159 3500 
L 1159 2956 
Q 1341 3275 1631 3429 
Q 1922 3584 2338 3584 
Q 2397 3584 2469 3576 
Q 2541 3569 2628 3553 
L 2631 2963 
z
" transform="scale(0.015625)"/>
      <path id="DejaVuSans-67" d="M 2906 1791 
Q 2906 2416 2648 2759 
Q 2391 3103 1925 3103 
Q 1463 3103 1205 2759 
Q 947 2416 947 1791 
Q 947 1169 1205 825 
Q 1463 481 1925 481 
Q 2391 481 2648 825 
Q 2906 1169 2906 1791 
z
M 3481 434 
Q 3481 -459 3084 -895 
Q 2688 -1331 1869 -1331 
Q 1566 -1331 1297 -1286 
Q 1028 -1241 775 -1147 
L 775 -588 
Q 1028 -725 1275 -790 
Q 1522 -856 1778 -856 
Q 2344 -856 2625 -561 
Q 2906 -266 2906 331 
L 2906 616 
Q 2728 306 2450 153 
Q 2172 0 1784 0 
Q 1141 0 747 490 
Q 353 981 353 1791 
Q 353 2603 747 3093 
Q 1141 3584 1784 3584 
Q 2172 3584 2450 3431 
Q 2728 3278 2906 2969 
L 2906 3500 
L 3481 3500 
L 3481 434 
z
" transform="scale(0.015625)"/>
      <path id="DejaVuSans-39" d="M 703 97 
L 703 672 
Q 941 559 1184 500 
Q 1428 441 1663 441 
Q 2288 441 2617 861 
Q 2947 1281 2994 2138 
Q 2813 1869 2534 1725 
Q 2256 1581 1919 1581 
Q 1219 1581 811 2004 
Q 403 2428 403 3163 
Q 403 3881 828 4315 
Q 1253 4750 1959 4750 
Q 2769 4750 3195 4129 
Q 3622 3509 3622 2328 
Q 3622 1225 3098 567 
Q 2575 -91 1691 -91 
Q 1453 -91 1209 -44 
Q 966 3 703 97 
z
M 1959 2075 
Q 2384 2075 2632 2365 
Q 2881 2656 2881 3163 
Q 2881 3666 2632 3958 
Q 2384 4250 1959 4250 
Q 1534 4250 1286 3958 
Q 1038 3666 1038 3163 
Q 1038 2656 1286 2365 
Q 1534 2075 1959 2075 
z
" transform="scale(0.015625)"/>
      <path id="DejaVuSans-61" d="M 2194 1759 
Q 1497 1759 1228 1600 
Q 959 1441 959 1056 
Q 959 750 1161 570 
Q 1363 391 1709 391 
Q 2188 391 2477 730 
Q 2766 1069 2766 1631 
L 2766 1759 
L 2194 1759 
z
M 3341 1997 
L 3341 0 
L 2766 0 
L 2766 531 
Q 2569 213 2275 61 
Q 1981 -91 1556 -91 
Q 1019 -91 701 211 
Q 384 513 384 1019 
Q 384 1609 779 1909 
Q 1175 2209 1959 2209 
L 2766 2209 
L 2766 2266 
Q 2766 2663 2505 2880 
Q 2244 3097 1772 3097 
Q 1472 3097 1187 3025 
Q 903 2953 641 2809 
L 641 3341 
Q 956 3463 1253 3523 
Q 1550 3584 1831 3584 
Q 2591 3584 2966 3190 
Q 3341 2797 3341 1997 
z
" transform="scale(0.015625)"/>
      <path id="DejaVuSans-20" transform="scale(0.015625)"/>
      <path id="DejaVuSans-66" d="M 2375 4863 
L 2375 4384 
L 1825 4384 
Q 1516 4384 1395 4259 
Q 1275 4134 1275 3809 
L 1275 3500 
L 2222 3500 
L 2222 3053 
L 1275 3053 
L 1275 0 
L 697 0 
L 697 3053 
L 147 3053 
L 147 3500 
L 697 3500 
L 697 3744 
Q 697 4328 969 4595 
Q 1241 4863 1831 4863 
L 2375 4863 
z
" transform="scale(0.015625)"/>
      <path id="DejaVuSans-70" d="M 1159 525 
L 1159 -1331 
L 581 -1331 
L 581 3500 
L 1159 3500 
L 1159 2969 
Q 1341 3281 1617 3432 
Q 1894 3584 2278 3584 
Q 2916 3584 3314 3078 
Q 3713 2572 3713 1747 
Q 3713 922 3314 415 
Q 2916 -91 2278 -91 
Q 1894 -91 1617 61 
Q 1341 213 1159 525 
z
M 3116 1747 
Q 3116 2381 2855 2742 
Q 2594 3103 2138 3103 
Q 1681 3103 1420 2742 
Q 1159 2381 1159 1747 
Q 1159 1113 1420 752 
Q 1681 391 2138 391 
Q 2594 391 2855 752 
Q 3116 1113 3116 1747 
z
" transform="scale(0.015625)"/>
      <path id="DejaVuSans-4c" d="M 628 4666 
L 1259 4666 
L 1259 531 
L 3531 531 
L 3531 0 
L 628 0 
L 628 4666 
z
" transform="scale(0.015625)"/>
      <path id="DejaVuSans-4f" d="M 2522 4238 
Q 1834 4238 1429 3725 
Q 1025 3213 1025 2328 
Q 1025 1447 1429 934 
Q 1834 422 2522 422 
Q 3209 422 3611 934 
Q 4013 1447 4013 2328 
Q 4013 3213 3611 3725 
Q 3209 4238 2522 4238 
z
M 2522 4750 
Q 3503 4750 4090 4092 
Q 4678 3434 4678 2328 
Q 4678 1225 4090 567 
Q 3503 -91 2522 -91 
Q 1538 -91 948 565 
Q 359 1222 359 2328 
Q 359 3434 948 4092 
Q 1538 4750 2522 4750 
z
" transform="scale(0.015625)"/>
      <path id="DejaVuSans-53" d="M 3425 4513 
L 3425 3897 
Q 3066 4069 2747 4153 
Q 2428 4238 2131 4238 
Q 1616 4238 1336 4038 
Q 1056 3838 1056 3469 
Q 1056 3159 1242 3001 
Q 1428 2844 1947 2747 
L 2328 2669 
Q 3034 2534 3370 2195 
Q 3706 1856 3706 1288 
Q 3706 609 3251 259 
Q 2797 -91 1919 -91 
Q 1588 -91 1214 -16 
Q 841 59 441 206 
L 441 856 
Q 825 641 1194 531 
Q 1563 422 1919 422 
Q 2459 422 2753 634 
Q 3047 847 3047 1241 
Q 3047 1584 2836 1778 
Q 2625 1972 2144 2069 
L 1759 2144 
Q 1053 2284 737 2584 
Q 422 2884 422 3419 
Q 422 4038 858 4394 
Q 1294 4750 2059 4750 
Q 2388 4750 2728 4690 
Q 3069 4631 3425 4513 
z
" transform="scale(0.015625)"/>
      <path id="DejaVuSans-6e" d="M 3513 2113 
L 3513 0 
L 2938 0 
L 2938 2094 
Q 2938 2591 2744 2837 
Q 2550 3084 2163 3084 
Q 1697 3084 1428 2787 
Q 1159 2491 1159 1978 
L 1159 0 
L 581 0 
L 581 3500 
L 1159 3500 
L 1159 2956 
Q 1366 3272 1645 3428 
Q 1925 3584 2291 3584 
Q 2894 3584 3203 3211 
Q 3513 2838 3513 2113 
z
" transform="scale(0.015625)"/>
     </defs>
     <use xlink:href="#DejaVuSans-47"/>
     <use xlink:href="#DejaVuSans-6f" x="77.490234"/>
     <use xlink:href="#DejaVuSans-6c" x="138.671875"/>
     <use xlink:href="#DejaVuSans-64" x="166.455078"/>
     <use xlink:href="#DejaVuSans-62" x="229.931641"/>
     <use xlink:href="#DejaVuSans-65" x="293.408203"/>
     <use xlink:href="#DejaVuSans-72" x="354.931641"/>
     <use xlink:href="#DejaVuSans-67" x="394.294922"/>
     <use xlink:href="#DejaVuSans-31" x="457.771484"/>
     <use xlink:href="#DejaVuSans-39" x="521.394531"/>
     <use xlink:href="#DejaVuSans-39" x="585.017578"/>
     <use xlink:href="#DejaVuSans-35" x="648.640625"/>
     <use xlink:href="#DejaVuSans-61" x="712.263672"/>
     <use xlink:href="#DejaVuSans-20" x="773.542969"/>
     <use xlink:href="#DejaVuSans-66" x="805.330078"/>
     <use xlink:href="#DejaVuSans-6d" x="840.535156"/>
     <use xlink:href="#DejaVuSans-5f" x="937.947266"/>
     <use xlink:href="#DejaVuSans-70" x="987.947266"/>
     <use xlink:href="#DejaVuSans-6f" x="1051.423828"/>
     <use xlink:href="#DejaVuSans-5f" x="1112.605469"/>
     <use xlink:href="#DejaVuSans-4c" x="1162.605469"/>
     <use xlink:href="#DejaVuSans-4f" x="1214.693359"/>
     <use xlink:href="#DejaVuSans-53" x="1293.404297"/>
     <use xlink:href="#DejaVuSans-31" x="1356.880859"/>
     <use xlink:href="#DejaVuSans-30" x="1420.503906"/>
     <use xlink:href="#DejaVuSans-30" x="1484.126953"/>
     <use xlink:href="#DejaVuSans-5f" x="1547.75"/>
     <use xlink:href="#DejaVuSans-6c" x="1597.75"/>
     <use xlink:href="#DejaVuSans-6f" x="1625.533203"/>
     <use xlink:href="#DejaVuSans-73" x="1686.714844"/>
     <use xlink:href="#DejaVuSans-61" x="1738.814453"/>
     <use xlink:href="#DejaVuSans-72" x="1800.09375"/>
     <use xlink:href="#DejaVuSans-74" x="1841.207031"/>
     <use xlink:href="#DejaVuSans-61" x="1880.416016"/>
     <use xlink:href="#DejaVuSans-6e" x="1941.695312"/>
    </g>
   </g>
   <g id="legend_1">
    <g id="patch_7">
     <path d="M 97 198.117188 
L 204.265625 198.117188 
Q 206.265625 198.117188 206.265625 196.117188 
L 206.265625 167.482813 
Q 206.265625 165.482813 204.265625 165.482813 
L 97 165.482813 
Q 95 165.482813 95 167.482813 
L 95 196.117188 
Q 95 198.117188 97 198.117188 
z
" style="fill: #ffffff; opacity: 0.8; stroke: #cccccc; stroke-linejoin: miter"/>
    </g>
    <g id="line2d_15">
     <g>
      <use xlink:href="#mc39b30af18" x="109" y="173.58125" style="stroke: #000000; stroke-linejoin: miter"/>
     </g>
    </g>
    <g id="text_16">
     <!-- reference_data -->
     <g transform="translate(127 177.08125) scale(0.1 -0.1)">
      <defs>
       <path id="DejaVuSans-63" d="M 3122 3366 
L 3122 2828 
Q 2878 2963 2633 3030 
Q 2388 3097 2138 3097 
Q 1578 3097 1268 2742 
Q 959 2388 959 1747 
Q 959 1106 1268 751 
Q 1578 397 2138 397 
Q 2388 397 2633 464 
Q 2878 531 3122 666 
L 3122 134 
Q 2881 22 2623 -34 
Q 2366 -91 2075 -91 
Q 1284 -91 818 406 
Q 353 903 353 1747 
Q 353 2603 823 3093 
Q 1294 3584 2113 3584 
Q 2378 3584 2631 3529 
Q 2884 3475 3122 3366 
z
" transform="scale(0.015625)"/>
      </defs>
      <use xlink:href="#DejaVuSans-72"/>
      <use xlink:href="#DejaVuSans-65" x="38.863281"/>
      <use xlink:href="#DejaVuSans-66" x="100.386719"/>
      <use xlink:href="#DejaVuSans-65" x="135.591797"/>
      <use xlink:href="#DejaVuSans-72" x="197.115234"/>
      <use xlink:href="#DejaVuSans-65" x="235.978516"/>
      <use xlink:href="#DejaVuSans-6e" x="297.501953"/>
      <use xlink:href="#DejaVuSans-63" x="360.880859"/>
      <use xlink:href="#DejaVuSans-65" x="415.861328"/>
      <use xlink:href="#DejaVuSans-5f" x="477.384766"/>
      <use xlink:href="#DejaVuSans-64" x="527.384766"/>
      <use xlink:href="#DejaVuSans-61" x="590.861328"/>
      <use xlink:href="#DejaVuSans-74" x="652.140625"/>
      <use xlink:href="#DejaVuSans-61" x="691.349609"/>
     </g>
    </g>
    <g id="line2d_16">
     <path d="M 99 188.5375 
L 109 188.5375 
L 119 188.5375 
" style="fill: none; stroke: #0000ff; stroke-width: 1.5; stroke-linecap: square"/>
    </g>
    <g id="text_17">
     <!-- observable -->
     <g transform="translate(127 192.0375) scale(0.1 -0.1)">
      <use xlink:href="#DejaVuSans-6f"/>
      <use xlink:href="#DejaVuSans-62" x="61.181641"/>
      <use xlink:href="#DejaVuSans-73" x="124.658203"/>
      <use xlink:href="#DejaVuSans-65" x="176.757812"/>
      <use xlink:href="#DejaVuSans-72" x="238.28125"/>
      <use xlink:href="#DejaVuSans-76" x="279.394531"/>
      <use xlink:href="#DejaVuSans-61" x="338.574219"/>
      <use xlink:href="#DejaVuSans-62" x="399.853516"/>
      <use xlink:href="#DejaVuSans-6c" x="463.330078"/>
      <use xlink:href="#DejaVuSans-65" x="491.113281"/>
     </g>
    </g>
   </g>
  </g>
  <g id="axes_2">
   <g id="patch_8">
    <path d="M 394.363636 320.4 
L 648 320.4 
L 648 43.2 
L 394.363636 43.2 
z
" style="fill: #ffffff"/>
   </g>
   <g id="matplotlib.axis_3">
    <g id="xtick_8">
     <g id="line2d_17">
      <g>
       <use xlink:href="#m07e8964a53" x="415.074721" y="320.4" style="stroke: #000000; stroke-width: 0.8"/>
      </g>
     </g>
     <g id="text_18">
      <!-- 0 -->
      <g transform="translate(411.893471 334.998438) scale(0.1 -0.1)">
       <use xlink:href="#DejaVuSans-30"/>
      </g>
     </g>
    </g>
    <g id="xtick_9">
     <g id="line2d_18">
      <g>
       <use xlink:href="#m07e8964a53" x="450.514633" y="320.4" style="stroke: #000000; stroke-width: 0.8"/>
      </g>
     </g>
     <g id="text_19">
      <!-- 10000 -->
      <g transform="translate(434.608383 334.998438) scale(0.1 -0.1)">
       <use xlink:href="#DejaVuSans-31"/>
       <use xlink:href="#DejaVuSans-30" x="63.623047"/>
       <use xlink:href="#DejaVuSans-30" x="127.246094"/>
       <use xlink:href="#DejaVuSans-30" x="190.869141"/>
       <use xlink:href="#DejaVuSans-30" x="254.492188"/>
      </g>
     </g>
    </g>
    <g id="xtick_10">
     <g id="line2d_19">
      <g>
       <use xlink:href="#m07e8964a53" x="485.954545" y="320.4" style="stroke: #000000; stroke-width: 0.8"/>
      </g>
     </g>
     <g id="text_20">
      <!-- 20000 -->
      <g transform="translate(470.048295 334.998438) scale(0.1 -0.1)">
       <use xlink:href="#DejaVuSans-32"/>
       <use xlink:href="#DejaVuSans-30" x="63.623047"/>
       <use xlink:href="#DejaVuSans-30" x="127.246094"/>
       <use xlink:href="#DejaVuSans-30" x="190.869141"/>
       <use xlink:href="#DejaVuSans-30" x="254.492188"/>
      </g>
     </g>
    </g>
    <g id="xtick_11">
     <g id="line2d_20">
      <g>
       <use xlink:href="#m07e8964a53" x="521.394458" y="320.4" style="stroke: #000000; stroke-width: 0.8"/>
      </g>
     </g>
     <g id="text_21">
      <!-- 30000 -->
      <g transform="translate(505.488208 334.998438) scale(0.1 -0.1)">
       <use xlink:href="#DejaVuSans-33"/>
       <use xlink:href="#DejaVuSans-30" x="63.623047"/>
       <use xlink:href="#DejaVuSans-30" x="127.246094"/>
       <use xlink:href="#DejaVuSans-30" x="190.869141"/>
       <use xlink:href="#DejaVuSans-30" x="254.492188"/>
      </g>
     </g>
    </g>
    <g id="xtick_12">
     <g id="line2d_21">
      <g>
       <use xlink:href="#m07e8964a53" x="556.83437" y="320.4" style="stroke: #000000; stroke-width: 0.8"/>
      </g>
     </g>
     <g id="text_22">
      <!-- 40000 -->
      <g transform="translate(540.92812 334.998438) scale(0.1 -0.1)">
       <use xlink:href="#DejaVuSans-34"/>
       <use xlink:href="#DejaVuSans-30" x="63.623047"/>
       <use xlink:href="#DejaVuSans-30" x="127.246094"/>
       <use xlink:href="#DejaVuSans-30" x="190.869141"/>
       <use xlink:href="#DejaVuSans-30" x="254.492188"/>
      </g>
     </g>
    </g>
    <g id="xtick_13">
     <g id="line2d_22">
      <g>
       <use xlink:href="#m07e8964a53" x="592.274282" y="320.4" style="stroke: #000000; stroke-width: 0.8"/>
      </g>
     </g>
     <g id="text_23">
      <!-- 50000 -->
      <g transform="translate(576.368032 334.998438) scale(0.1 -0.1)">
       <use xlink:href="#DejaVuSans-35"/>
       <use xlink:href="#DejaVuSans-30" x="63.623047"/>
       <use xlink:href="#DejaVuSans-30" x="127.246094"/>
       <use xlink:href="#DejaVuSans-30" x="190.869141"/>
       <use xlink:href="#DejaVuSans-30" x="254.492188"/>
      </g>
     </g>
    </g>
    <g id="xtick_14">
     <g id="line2d_23">
      <g>
       <use xlink:href="#m07e8964a53" x="627.714194" y="320.4" style="stroke: #000000; stroke-width: 0.8"/>
      </g>
     </g>
     <g id="text_24">
      <!-- 60000 -->
      <g transform="translate(611.807944 334.998438) scale(0.1 -0.1)">
       <use xlink:href="#DejaVuSans-36"/>
       <use xlink:href="#DejaVuSans-30" x="63.623047"/>
       <use xlink:href="#DejaVuSans-30" x="127.246094"/>
       <use xlink:href="#DejaVuSans-30" x="190.869141"/>
       <use xlink:href="#DejaVuSans-30" x="254.492188"/>
      </g>
     </g>
    </g>
    <g id="text_25">
     <!-- time -->
     <g transform="translate(507.626506 350.19625) scale(0.12 -0.12)">
      <use xlink:href="#DejaVuSans-74"/>
      <use xlink:href="#DejaVuSans-69" x="39.208984"/>
      <use xlink:href="#DejaVuSans-6d" x="66.992188"/>
      <use xlink:href="#DejaVuSans-65" x="164.404297"/>
     </g>
    </g>
   </g>
   <g id="matplotlib.axis_4">
    <g id="ytick_6">
     <g id="line2d_24">
      <g>
       <use xlink:href="#m42d555b244" x="394.363636" y="279.348669" style="stroke: #000000; stroke-width: 0.8"/>
      </g>
     </g>
     <g id="text_26">
      <!-- $\mathdefault{10^{-5}}$ -->
      <g transform="translate(363.863636 283.147888) scale(0.1 -0.1)">
       <defs>
        <path id="DejaVuSans-2212" d="M 678 2272 
L 4684 2272 
L 4684 1741 
L 678 1741 
L 678 2272 
z
" transform="scale(0.015625)"/>
       </defs>
       <use xlink:href="#DejaVuSans-31" transform="translate(0 0.684375)"/>
       <use xlink:href="#DejaVuSans-30" transform="translate(63.623047 0.684375)"/>
       <use xlink:href="#DejaVuSans-2212" transform="translate(128.203125 38.965625) scale(0.7)"/>
       <use xlink:href="#DejaVuSans-35" transform="translate(186.855469 38.965625) scale(0.7)"/>
      </g>
     </g>
    </g>
    <g id="ytick_7">
     <g id="line2d_25">
      <g>
       <use xlink:href="#m42d555b244" x="394.363636" y="224.604365" style="stroke: #000000; stroke-width: 0.8"/>
      </g>
     </g>
     <g id="text_27">
      <!-- $\mathdefault{10^{-4}}$ -->
      <g transform="translate(363.863636 228.403583) scale(0.1 -0.1)">
       <use xlink:href="#DejaVuSans-31" transform="translate(0 0.684375)"/>
       <use xlink:href="#DejaVuSans-30" transform="translate(63.623047 0.684375)"/>
       <use xlink:href="#DejaVuSans-2212" transform="translate(128.203125 38.965625) scale(0.7)"/>
       <use xlink:href="#DejaVuSans-34" transform="translate(186.855469 38.965625) scale(0.7)"/>
      </g>
     </g>
    </g>
    <g id="ytick_8">
     <g id="line2d_26">
      <g>
       <use xlink:href="#m42d555b244" x="394.363636" y="169.86006" style="stroke: #000000; stroke-width: 0.8"/>
      </g>
     </g>
     <g id="text_28">
      <!-- $\mathdefault{10^{-3}}$ -->
      <g transform="translate(363.863636 173.659279) scale(0.1 -0.1)">
       <use xlink:href="#DejaVuSans-31" transform="translate(0 0.765625)"/>
       <use xlink:href="#DejaVuSans-30" transform="translate(63.623047 0.765625)"/>
       <use xlink:href="#DejaVuSans-2212" transform="translate(128.203125 39.046875) scale(0.7)"/>
       <use xlink:href="#DejaVuSans-33" transform="translate(186.855469 39.046875) scale(0.7)"/>
      </g>
     </g>
    </g>
    <g id="ytick_9">
     <g id="line2d_27">
      <g>
       <use xlink:href="#m42d555b244" x="394.363636" y="115.115755" style="stroke: #000000; stroke-width: 0.8"/>
      </g>
     </g>
     <g id="text_29">
      <!-- $\mathdefault{10^{-2}}$ -->
      <g transform="translate(363.863636 118.914974) scale(0.1 -0.1)">
       <use xlink:href="#DejaVuSans-31" transform="translate(0 0.765625)"/>
       <use xlink:href="#DejaVuSans-30" transform="translate(63.623047 0.765625)"/>
       <use xlink:href="#DejaVuSans-2212" transform="translate(128.203125 39.046875) scale(0.7)"/>
       <use xlink:href="#DejaVuSans-32" transform="translate(186.855469 39.046875) scale(0.7)"/>
      </g>
     </g>
    </g>
    <g id="ytick_10">
     <g id="line2d_28">
      <g>
       <use xlink:href="#m42d555b244" x="394.363636" y="60.37145" style="stroke: #000000; stroke-width: 0.8"/>
      </g>
     </g>
     <g id="text_30">
      <!-- $\mathdefault{10^{-1}}$ -->
      <g transform="translate(363.863636 64.170669) scale(0.1 -0.1)">
       <use xlink:href="#DejaVuSans-31" transform="translate(0 0.684375)"/>
       <use xlink:href="#DejaVuSans-30" transform="translate(63.623047 0.684375)"/>
       <use xlink:href="#DejaVuSans-2212" transform="translate(128.203125 38.965625) scale(0.7)"/>
       <use xlink:href="#DejaVuSans-31" transform="translate(186.855469 38.965625) scale(0.7)"/>
      </g>
     </g>
    </g>
    <g id="ytick_11">
     <g id="line2d_29">
      <defs>
       <path id="m49c6b8e8c7" d="M 0 0 
L -2 0 
" style="stroke: #000000; stroke-width: 0.6"/>
      </defs>
      <g>
       <use xlink:href="#m49c6b8e8c7" x="394.363636" y="317.613296" style="stroke: #000000; stroke-width: 0.6"/>
      </g>
     </g>
    </g>
    <g id="ytick_12">
     <g id="line2d_30">
      <g>
       <use xlink:href="#m49c6b8e8c7" x="394.363636" y="307.973303" style="stroke: #000000; stroke-width: 0.6"/>
      </g>
     </g>
    </g>
    <g id="ytick_13">
     <g id="line2d_31">
      <g>
       <use xlink:href="#m49c6b8e8c7" x="394.363636" y="301.133619" style="stroke: #000000; stroke-width: 0.6"/>
      </g>
     </g>
    </g>
    <g id="ytick_14">
     <g id="line2d_32">
      <g>
       <use xlink:href="#m49c6b8e8c7" x="394.363636" y="295.828347" style="stroke: #000000; stroke-width: 0.6"/>
      </g>
     </g>
    </g>
    <g id="ytick_15">
     <g id="line2d_33">
      <g>
       <use xlink:href="#m49c6b8e8c7" x="394.363636" y="291.493625" style="stroke: #000000; stroke-width: 0.6"/>
      </g>
     </g>
    </g>
    <g id="ytick_16">
     <g id="line2d_34">
      <g>
       <use xlink:href="#m49c6b8e8c7" x="394.363636" y="287.82867" style="stroke: #000000; stroke-width: 0.6"/>
      </g>
     </g>
    </g>
    <g id="ytick_17">
     <g id="line2d_35">
      <g>
       <use xlink:href="#m49c6b8e8c7" x="394.363636" y="284.653941" style="stroke: #000000; stroke-width: 0.6"/>
      </g>
     </g>
    </g>
    <g id="ytick_18">
     <g id="line2d_36">
      <g>
       <use xlink:href="#m49c6b8e8c7" x="394.363636" y="281.853631" style="stroke: #000000; stroke-width: 0.6"/>
      </g>
     </g>
    </g>
    <g id="ytick_19">
     <g id="line2d_37">
      <g>
       <use xlink:href="#m49c6b8e8c7" x="394.363636" y="262.868992" style="stroke: #000000; stroke-width: 0.6"/>
      </g>
     </g>
    </g>
    <g id="ytick_20">
     <g id="line2d_38">
      <g>
       <use xlink:href="#m49c6b8e8c7" x="394.363636" y="253.228998" style="stroke: #000000; stroke-width: 0.6"/>
      </g>
     </g>
    </g>
    <g id="ytick_21">
     <g id="line2d_39">
      <g>
       <use xlink:href="#m49c6b8e8c7" x="394.363636" y="246.389314" style="stroke: #000000; stroke-width: 0.6"/>
      </g>
     </g>
    </g>
    <g id="ytick_22">
     <g id="line2d_40">
      <g>
       <use xlink:href="#m49c6b8e8c7" x="394.363636" y="241.084042" style="stroke: #000000; stroke-width: 0.6"/>
      </g>
     </g>
    </g>
    <g id="ytick_23">
     <g id="line2d_41">
      <g>
       <use xlink:href="#m49c6b8e8c7" x="394.363636" y="236.74932" style="stroke: #000000; stroke-width: 0.6"/>
      </g>
     </g>
    </g>
    <g id="ytick_24">
     <g id="line2d_42">
      <g>
       <use xlink:href="#m49c6b8e8c7" x="394.363636" y="233.084365" style="stroke: #000000; stroke-width: 0.6"/>
      </g>
     </g>
    </g>
    <g id="ytick_25">
     <g id="line2d_43">
      <g>
       <use xlink:href="#m49c6b8e8c7" x="394.363636" y="229.909636" style="stroke: #000000; stroke-width: 0.6"/>
      </g>
     </g>
    </g>
    <g id="ytick_26">
     <g id="line2d_44">
      <g>
       <use xlink:href="#m49c6b8e8c7" x="394.363636" y="227.109327" style="stroke: #000000; stroke-width: 0.6"/>
      </g>
     </g>
    </g>
    <g id="ytick_27">
     <g id="line2d_45">
      <g>
       <use xlink:href="#m49c6b8e8c7" x="394.363636" y="208.124687" style="stroke: #000000; stroke-width: 0.6"/>
      </g>
     </g>
    </g>
    <g id="ytick_28">
     <g id="line2d_46">
      <g>
       <use xlink:href="#m49c6b8e8c7" x="394.363636" y="198.484693" style="stroke: #000000; stroke-width: 0.6"/>
      </g>
     </g>
    </g>
    <g id="ytick_29">
     <g id="line2d_47">
      <g>
       <use xlink:href="#m49c6b8e8c7" x="394.363636" y="191.645009" style="stroke: #000000; stroke-width: 0.6"/>
      </g>
     </g>
    </g>
    <g id="ytick_30">
     <g id="line2d_48">
      <g>
       <use xlink:href="#m49c6b8e8c7" x="394.363636" y="186.339738" style="stroke: #000000; stroke-width: 0.6"/>
      </g>
     </g>
    </g>
    <g id="ytick_31">
     <g id="line2d_49">
      <g>
       <use xlink:href="#m49c6b8e8c7" x="394.363636" y="182.005015" style="stroke: #000000; stroke-width: 0.6"/>
      </g>
     </g>
    </g>
    <g id="ytick_32">
     <g id="line2d_50">
      <g>
       <use xlink:href="#m49c6b8e8c7" x="394.363636" y="178.34006" style="stroke: #000000; stroke-width: 0.6"/>
      </g>
     </g>
    </g>
    <g id="ytick_33">
     <g id="line2d_51">
      <g>
       <use xlink:href="#m49c6b8e8c7" x="394.363636" y="175.165331" style="stroke: #000000; stroke-width: 0.6"/>
      </g>
     </g>
    </g>
    <g id="ytick_34">
     <g id="line2d_52">
      <g>
       <use xlink:href="#m49c6b8e8c7" x="394.363636" y="172.365022" style="stroke: #000000; stroke-width: 0.6"/>
      </g>
     </g>
    </g>
    <g id="ytick_35">
     <g id="line2d_53">
      <g>
       <use xlink:href="#m49c6b8e8c7" x="394.363636" y="153.380382" style="stroke: #000000; stroke-width: 0.6"/>
      </g>
     </g>
    </g>
    <g id="ytick_36">
     <g id="line2d_54">
      <g>
       <use xlink:href="#m49c6b8e8c7" x="394.363636" y="143.740388" style="stroke: #000000; stroke-width: 0.6"/>
      </g>
     </g>
    </g>
    <g id="ytick_37">
     <g id="line2d_55">
      <g>
       <use xlink:href="#m49c6b8e8c7" x="394.363636" y="136.900704" style="stroke: #000000; stroke-width: 0.6"/>
      </g>
     </g>
    </g>
    <g id="ytick_38">
     <g id="line2d_56">
      <g>
       <use xlink:href="#m49c6b8e8c7" x="394.363636" y="131.595433" style="stroke: #000000; stroke-width: 0.6"/>
      </g>
     </g>
    </g>
    <g id="ytick_39">
     <g id="line2d_57">
      <g>
       <use xlink:href="#m49c6b8e8c7" x="394.363636" y="127.260711" style="stroke: #000000; stroke-width: 0.6"/>
      </g>
     </g>
    </g>
    <g id="ytick_40">
     <g id="line2d_58">
      <g>
       <use xlink:href="#m49c6b8e8c7" x="394.363636" y="123.595755" style="stroke: #000000; stroke-width: 0.6"/>
      </g>
     </g>
    </g>
    <g id="ytick_41">
     <g id="line2d_59">
      <g>
       <use xlink:href="#m49c6b8e8c7" x="394.363636" y="120.421026" style="stroke: #000000; stroke-width: 0.6"/>
      </g>
     </g>
    </g>
    <g id="ytick_42">
     <g id="line2d_60">
      <g>
       <use xlink:href="#m49c6b8e8c7" x="394.363636" y="117.620717" style="stroke: #000000; stroke-width: 0.6"/>
      </g>
     </g>
    </g>
    <g id="ytick_43">
     <g id="line2d_61">
      <g>
       <use xlink:href="#m49c6b8e8c7" x="394.363636" y="98.636077" style="stroke: #000000; stroke-width: 0.6"/>
      </g>
     </g>
    </g>
    <g id="ytick_44">
     <g id="line2d_62">
      <g>
       <use xlink:href="#m49c6b8e8c7" x="394.363636" y="88.996084" style="stroke: #000000; stroke-width: 0.6"/>
      </g>
     </g>
    </g>
    <g id="ytick_45">
     <g id="line2d_63">
      <g>
       <use xlink:href="#m49c6b8e8c7" x="394.363636" y="82.156399" style="stroke: #000000; stroke-width: 0.6"/>
      </g>
     </g>
    </g>
    <g id="ytick_46">
     <g id="line2d_64">
      <g>
       <use xlink:href="#m49c6b8e8c7" x="394.363636" y="76.851128" style="stroke: #000000; stroke-width: 0.6"/>
      </g>
     </g>
    </g>
    <g id="ytick_47">
     <g id="line2d_65">
      <g>
       <use xlink:href="#m49c6b8e8c7" x="394.363636" y="72.516406" style="stroke: #000000; stroke-width: 0.6"/>
      </g>
     </g>
    </g>
    <g id="ytick_48">
     <g id="line2d_66">
      <g>
       <use xlink:href="#m49c6b8e8c7" x="394.363636" y="68.85145" style="stroke: #000000; stroke-width: 0.6"/>
      </g>
     </g>
    </g>
    <g id="ytick_49">
     <g id="line2d_67">
      <g>
       <use xlink:href="#m49c6b8e8c7" x="394.363636" y="65.676721" style="stroke: #000000; stroke-width: 0.6"/>
      </g>
     </g>
    </g>
    <g id="ytick_50">
     <g id="line2d_68">
      <g>
       <use xlink:href="#m49c6b8e8c7" x="394.363636" y="62.876412" style="stroke: #000000; stroke-width: 0.6"/>
      </g>
     </g>
    </g>
    <g id="ytick_51">
     <g id="line2d_69">
      <g>
       <use xlink:href="#m49c6b8e8c7" x="394.363636" y="43.891772" style="stroke: #000000; stroke-width: 0.6"/>
      </g>
     </g>
    </g>
    <g id="text_31">
     <!-- [Cve_los] -->
     <g transform="translate(357.034261 209.378437) rotate(-90) scale(0.12 -0.12)">
      <use xlink:href="#DejaVuSans-5b"/>
      <use xlink:href="#DejaVuSans-43" x="39.013672"/>
      <use xlink:href="#DejaVuSans-76" x="108.837891"/>
      <use xlink:href="#DejaVuSans-65" x="168.017578"/>
      <use xlink:href="#DejaVuSans-5f" x="229.541016"/>
      <use xlink:href="#DejaVuSans-6c" x="279.541016"/>
      <use xlink:href="#DejaVuSans-6f" x="307.324219"/>
      <use xlink:href="#DejaVuSans-73" x="368.505859"/>
      <use xlink:href="#DejaVuSans-5d" x="420.605469"/>
     </g>
    </g>
   </g>
   <g id="line2d_70">
    <g clip-path="url(#pc9237dbd33)">
     <use xlink:href="#mc39b30af18" x="415.5" y="185.146534" style="stroke: #000000; stroke-linejoin: miter"/>
     <use xlink:href="#mc39b30af18" x="415.925279" y="220.485208" style="stroke: #000000; stroke-linejoin: miter"/>
     <use xlink:href="#mc39b30af18" x="416.350558" y="236.622522" style="stroke: #000000; stroke-linejoin: miter"/>
     <use xlink:href="#mc39b30af18" x="416.775837" y="255.619613" style="stroke: #000000; stroke-linejoin: miter"/>
     <use xlink:href="#mc39b30af18" x="417.626395" y="291.775367" style="stroke: #000000; stroke-linejoin: miter"/>
     <use xlink:href="#mc39b30af18" x="624.737242" y="181.150512" style="stroke: #000000; stroke-linejoin: miter"/>
     <use xlink:href="#mc39b30af18" x="625.162521" y="218.488572" style="stroke: #000000; stroke-linejoin: miter"/>
     <use xlink:href="#mc39b30af18" x="625.5878" y="235.269379" style="stroke: #000000; stroke-linejoin: miter"/>
     <use xlink:href="#mc39b30af18" x="626.013078" y="251.603152" style="stroke: #000000; stroke-linejoin: miter"/>
     <use xlink:href="#mc39b30af18" x="626.863636" y="278.461637" style="stroke: #000000; stroke-linejoin: miter"/>
    </g>
   </g>
   <g id="line2d_71">
    <path d="M 415.079577 361 
L 415.197383 183.328452 
L 415.296551 175.382247 
L 415.333959 176.208964 
L 415.477656 186.677753 
L 416.017762 227.300613 
L 416.324309 234.624881 
L 416.71844 238.572716 
L 417.991732 247.697907 
L 420.178068 263.112152 
L 420.1789 263.975266 
L 420.288799 185.173867 
L 420.394454 174.736826 
L 420.434367 175.440805 
L 420.570073 184.763814 
L 421.105172 223.034769 
L 421.404676 229.814919 
L 421.800022 233.701509 
L 423.148315 243.346256 
L 425.282315 258.844759 
L 425.28873 257.847994 
L 425.502214 174.584795 
L 425.579201 177.302923 
L 425.876048 202.719965 
L 426.225532 222.812566 
L 426.53133 229.158951 
L 426.95632 233.103278 
L 428.745793 245.819837 
L 430.384763 257.375939 
L 430.385765 258.359475 
L 430.493746 185.372422 
L 430.606301 174.57081 
L 430.639406 175.211357 
L 430.768623 183.817016 
L 431.318913 222.394491 
L 431.620864 228.879157 
L 432.027842 232.755276 
L 433.572123 243.761522 
L 435.48811 257.268232 
L 435.489018 258.325291 
L 435.59727 185.325355 
L 435.703886 174.569211 
L 435.747299 175.371117 
L 435.886221 185.064665 
L 436.411419 222.013315 
L 436.714461 228.741853 
L 437.109889 232.582865 
L 438.523071 242.679395 
L 440.591458 257.260548 
L 440.592391 258.284272 
L 440.701376 185.130192 
L 440.811809 174.565169 
L 440.846839 175.233833 
L 440.981997 184.395546 
L 441.510889 221.868575 
L 441.816536 228.716112 
L 442.21133 232.559104 
L 443.599704 242.482055 
L 445.695714 257.687805 
L 445.70228 256.678094 
L 445.913408 174.543112 
L 445.992476 177.253253 
L 446.29118 202.761895 
L 446.64321 222.747074 
L 446.953698 229.029477 
L 447.373667 232.881363 
L 449.211038 245.932587 
L 450.799187 257.487266 
L 450.805294 256.60997 
L 451.01753 174.536545 
L 451.112407 178.309002 
L 451.928504 227.088044 
L 452.275904 231.22109 
L 453.067977 237.095079 
L 455.902567 257.654697 
L 455.909543 256.411844 
L 456.120497 174.542093 
L 456.185242 176.461533 
L 456.399983 194.191627 
L 456.799582 220.971378 
L 457.096427 228.159634 
L 457.473192 232.04019 
L 458.603486 240.183197 
L 461.005876 257.602604 
L 461.011967 256.728746 
L 461.224102 174.540438 
L 461.318923 178.301419 
L 462.134407 227.09791 
L 462.482141 231.242627 
L 463.264542 237.049257 
L 466.108195 257.100725 
L 466.109111 258.01445 
L 466.218913 184.91606 
L 466.32772 174.554791 
L 466.363069 175.207206 
L 466.495626 184.111318 
L 467.032842 222.006297 
L 467.339078 228.73766 
L 467.744587 232.628412 
L 469.243583 243.319424 
L 471.212468 257.559469 
L 471.21909 256.526709 
L 471.430054 174.538679 
L 471.510804 177.344981 
L 471.825064 204.14679 
L 472.176481 223.241898 
L 472.48735 229.208514 
L 472.924142 233.107062 
L 475.083239 248.410422 
L 476.315766 257.394931 
L 476.322313 256.417367 
L 476.535479 174.535245 
L 476.620328 177.724935 
L 477.496014 227.89905 
L 477.862445 231.787237 
L 478.885924 239.201252 
L 481.419157 257.270783 
L 481.424877 256.567764 
L 481.637619 174.528988 
L 481.754709 179.896444 
L 482.444372 224.867242 
L 482.761161 229.896178 
L 483.268408 234.054506 
L 486.522476 257.615761 
L 486.52813 256.931443 
L 486.741796 174.542119 
L 486.857234 179.8488 
L 487.547626 224.932382 
L 487.855804 229.879795 
L 488.360095 234.047203 
L 491.625865 257.349681 
L 491.630117 257.013672 
L 491.66041 226.932975 
L 491.817722 174.940343 
L 491.844802 174.532318 
L 491.889935 175.564384 
L 492.052415 187.658176 
L 492.518018 220.7266 
L 492.820704 228.107349 
L 493.199154 231.992554 
L 494.355524 240.316586 
L 496.729221 257.571229 
L 496.735873 256.519842 
L 496.947837 174.539647 
L 497.025981 177.250739 
L 497.30415 201.03422 
L 497.668067 222.443968 
L 497.973287 228.828686 
L 498.38416 232.680341 
L 500.00842 244.241761 
L 501.832656 257.32842 
L 501.83877 256.456376 
L 502.052095 174.532647 
L 502.140692 177.956927 
L 502.989039 227.512662 
L 503.349751 231.529445 
L 504.270188 238.251366 
L 506.935884 257.591525 
L 506.942491 256.569506 
L 507.156408 174.544323 
L 507.236758 177.501831 
L 507.586557 207.109291 
L 507.913106 223.640832 
L 508.225457 229.388568 
L 508.679786 233.354325 
L 511.136772 250.745196 
L 512.039244 257.797594 
L 512.045857 256.75917 
L 512.259766 174.551454 
L 512.3312 176.973972 
L 512.599078 199.756828 
L 512.959954 221.862245 
L 513.258326 228.544898 
L 513.656154 232.436583 
L 515.034346 242.288695 
L 517.142593 257.564453 
L 517.149227 256.527263 
L 517.363824 174.545942 
L 517.435449 177.017667 
L 517.704045 199.877799 
L 518.069954 222.053392 
L 518.370037 228.608723 
L 518.767699 232.448709 
L 520.195989 242.647837 
L 522.245922 257.607279 
L 522.252524 256.587915 
L 522.46647 174.544931 
L 522.546893 177.508189 
L 522.896969 207.138737 
L 523.223397 223.651025 
L 523.535631 229.393486 
L 523.989791 233.357561 
L 526.44536 250.738466 
L 527.349286 257.799992 
L 527.355899 256.761146 
L 527.569964 174.552043 
L 527.641487 176.988258 
L 527.909698 199.806999 
L 528.271974 221.93233 
L 528.572322 228.599309 
L 528.973806 232.496358 
L 530.419491 242.818844 
L 532.45171 257.144529 
L 532.452727 258.002688 
L 532.562362 184.932033 
L 532.670425 174.553905 
L 532.710949 175.361792 
L 532.850415 185.101691 
L 533.37506 221.958676 
L 533.668372 228.541997 
L 534.058736 232.397124 
L 535.374408 241.816938 
L 537.556083 257.452742 
L 537.562181 256.583078 
L 537.775309 174.536549 
L 537.863805 177.940963 
L 538.713041 227.548021 
L 539.074126 231.56503 
L 539.995514 238.292708 
L 542.659329 257.715093 
L 542.665951 256.676071 
L 542.88038 174.550448 
L 542.952031 177.014266 
L 543.220722 199.885 
L 543.586117 222.060327 
L 543.88526 228.620459 
L 544.288053 232.510223 
L 545.730711 242.80828 
L 547.762684 257.566632 
L 547.76933 256.522018 
L 547.981506 174.539723 
L 548.059689 177.264666 
L 548.338002 201.065905 
L 548.702374 222.470765 
L 549.007976 228.84332 
L 549.419364 232.692558 
L 551.052919 244.318479 
L 552.866131 257.435036 
L 552.872246 256.558113 
L 553.085662 174.536565 
L 553.174281 177.968737 
L 554.02287 227.540849 
L 554.383731 231.557448 
L 555.304551 238.281633 
L 557.969356 257.658829 
L 557.97596 256.635355 
L 558.190133 174.547477 
L 558.261755 176.99367 
L 558.530338 199.843607 
L 558.891832 221.899521 
L 559.191714 228.559973 
L 559.590778 232.440923 
L 560.998084 242.494859 
L 563.072808 257.56435 
L 563.078872 256.706569 
L 563.291463 174.539524 
L 563.386499 178.342545 
L 564.195961 226.993935 
L 564.540963 231.163279 
L 565.304897 236.852608 
L 568.176174 257.468493 
L 568.182289 256.589941 
L 568.395704 174.537728 
L 568.484318 177.969657 
L 569.333084 227.550651 
L 569.694031 231.567043 
L 570.61507 238.292512 
L 573.279397 257.696692 
L 573.285997 256.673526 
L 573.500115 174.548576 
L 573.571744 176.992003 
L 573.840355 199.844516 
L 574.201635 221.897805 
L 574.501561 228.565385 
L 574.898501 232.431256 
L 576.283035 242.326349 
L 578.382768 257.608641 
L 578.389411 256.563424 
L 578.601592 174.541178 
L 578.679734 177.263915 
L 578.957879 201.051932 
L 579.322092 222.466232 
L 579.627561 228.845912 
L 580.03877 232.69672 
L 581.691784 244.4603 
L 583.48609 257.800006 
L 583.493598 256.379656 
L 583.706542 174.551267 
L 583.760225 176.027993 
L 583.948113 190.936521 
L 584.378479 220.811694 
L 584.685554 228.269292 
L 585.067706 232.15885 
L 586.24833 240.646887 
L 588.589603 257.518862 
L 588.595959 256.534867 
L 588.804459 174.541238 
L 588.896126 177.868628 
L 589.751724 227.645789 
L 590.122557 231.703854 
L 591.106071 238.851604 
L 593.692905 257.49459 
L 593.699006 256.622053 
L 593.912242 174.538219 
L 594.000774 177.95232 
L 594.85024 227.562923 
L 595.211473 231.578726 
L 596.133239 238.308475 
L 598.796148 257.785848 
L 598.802767 256.745765 
L 599.017256 174.553089 
L 599.088996 177.025359 
L 599.358021 199.932108 
L 599.724769 222.136078 
L 600.024262 228.664753 
L 600.419172 232.481599 
L 601.841672 242.641651 
L 603.899516 257.484155 
L 603.906185 256.429824 
L 604.119027 174.538052 
L 604.192829 177.042379 
L 604.451926 199.087953 
L 604.828342 222.090063 
L 605.123636 228.547078 
L 605.524187 232.427561 
L 606.956025 242.651923 
L 609.002827 257.628577 
L 609.009433 256.606989 
L 609.2238 174.547116 
L 609.295526 177.009858 
L 609.564499 199.900464 
L 609.930096 222.060981 
L 610.238942 228.737186 
L 610.644752 232.592899 
L 612.172305 243.480624 
L 614.106197 257.747131 
L 614.112827 256.701741 
L 614.324702 174.545585 
L 614.402657 177.238514 
L 614.679474 200.907611 
L 615.042523 222.391066 
L 615.342195 228.761185 
L 615.745315 232.597721 
L 617.270524 243.47086 
L 619.209647 257.401756 
L 619.215763 256.525286 
L 619.429387 174.535892 
L 619.518094 177.986901 
L 620.366557 227.536659 
L 620.727429 231.551554 
L 621.648273 238.27561 
L 624.312871 257.675527 
L 624.319476 256.651348 
L 624.533829 174.548686 
L 624.605559 177.011071 
L 624.874547 199.904827 
L 625.240213 222.071919 
L 625.540075 228.628949 
L 625.937905 232.472698 
L 627.368123 242.685614 
L 629.62795 258.618183 
L 629.62795 258.618183 
" clip-path="url(#pc9237dbd33)" style="fill: none; stroke: #0000ff; stroke-width: 1.5; stroke-linecap: square"/>
   </g>
   <g id="patch_9">
    <path d="M 394.363636 320.4 
L 394.363636 43.2 
" style="fill: none; stroke: #000000; stroke-width: 0.8; stroke-linejoin: miter; stroke-linecap: square"/>
   </g>
   <g id="patch_10">
    <path d="M 648 320.4 
L 648 43.2 
" style="fill: none; stroke: #000000; stroke-width: 0.8; stroke-linejoin: miter; stroke-linecap: square"/>
   </g>
   <g id="patch_11">
    <path d="M 394.363636 320.4 
L 648 320.4 
" style="fill: none; stroke: #000000; stroke-width: 0.8; stroke-linejoin: miter; stroke-linecap: square"/>
   </g>
   <g id="patch_12">
    <path d="M 394.363636 43.2 
L 648 43.2 
" style="fill: none; stroke: #000000; stroke-width: 0.8; stroke-linejoin: miter; stroke-linecap: square"/>
   </g>
   <g id="text_32">
    <!-- Goldberg1995a fm_po_LOS100_losartan -->
    <g transform="translate(380.823068 37.2) scale(0.14 -0.14)">
     <use xlink:href="#DejaVuSans-47"/>
     <use xlink:href="#DejaVuSans-6f" x="77.490234"/>
     <use xlink:href="#DejaVuSans-6c" x="138.671875"/>
     <use xlink:href="#DejaVuSans-64" x="166.455078"/>
     <use xlink:href="#DejaVuSans-62" x="229.931641"/>
     <use xlink:href="#DejaVuSans-65" x="293.408203"/>
     <use xlink:href="#DejaVuSans-72" x="354.931641"/>
     <use xlink:href="#DejaVuSans-67" x="394.294922"/>
     <use xlink:href="#DejaVuSans-31" x="457.771484"/>
     <use xlink:href="#DejaVuSans-39" x="521.394531"/>
     <use xlink:href="#DejaVuSans-39" x="585.017578"/>
     <use xlink:href="#DejaVuSans-35" x="648.640625"/>
     <use xlink:href="#DejaVuSans-61" x="712.263672"/>
     <use xlink:href="#DejaVuSans-20" x="773.542969"/>
     <use xlink:href="#DejaVuSans-66" x="805.330078"/>
     <use xlink:href="#DejaVuSans-6d" x="840.535156"/>
     <use xlink:href="#DejaVuSans-5f" x="937.947266"/>
     <use xlink:href="#DejaVuSans-70" x="987.947266"/>
     <use xlink:href="#DejaVuSans-6f" x="1051.423828"/>
     <use xlink:href="#DejaVuSans-5f" x="1112.605469"/>
     <use xlink:href="#DejaVuSans-4c" x="1162.605469"/>
     <use xlink:href="#DejaVuSans-4f" x="1214.693359"/>
     <use xlink:href="#DejaVuSans-53" x="1293.404297"/>
     <use xlink:href="#DejaVuSans-31" x="1356.880859"/>
     <use xlink:href="#DejaVuSans-30" x="1420.503906"/>
     <use xlink:href="#DejaVuSans-30" x="1484.126953"/>
     <use xlink:href="#DejaVuSans-5f" x="1547.75"/>
     <use xlink:href="#DejaVuSans-6c" x="1597.75"/>
     <use xlink:href="#DejaVuSans-6f" x="1625.533203"/>
     <use xlink:href="#DejaVuSans-73" x="1686.714844"/>
     <use xlink:href="#DejaVuSans-61" x="1738.814453"/>
     <use xlink:href="#DejaVuSans-72" x="1800.09375"/>
     <use xlink:href="#DejaVuSans-74" x="1841.207031"/>
     <use xlink:href="#DejaVuSans-61" x="1880.416016"/>
     <use xlink:href="#DejaVuSans-6e" x="1941.695312"/>
    </g>
   </g>
   <g id="legend_2">
    <g id="patch_13">
     <path d="M 533.734375 80.834375 
L 641 80.834375 
Q 643 80.834375 643 78.834375 
L 643 50.2 
Q 643 48.2 641 48.2 
L 533.734375 48.2 
Q 531.734375 48.2 531.734375 50.2 
L 531.734375 78.834375 
Q 531.734375 80.834375 533.734375 80.834375 
z
" style="fill: #ffffff; opacity: 0.8; stroke: #cccccc; stroke-linejoin: miter"/>
    </g>
    <g id="line2d_72">
     <g>
      <use xlink:href="#mc39b30af18" x="545.734375" y="56.298437" style="stroke: #000000; stroke-linejoin: miter"/>
     </g>
    </g>
    <g id="text_33">
     <!-- reference_data -->
     <g transform="translate(563.734375 59.798437) scale(0.1 -0.1)">
      <use xlink:href="#DejaVuSans-72"/>
      <use xlink:href="#DejaVuSans-65" x="38.863281"/>
      <use xlink:href="#DejaVuSans-66" x="100.386719"/>
      <use xlink:href="#DejaVuSans-65" x="135.591797"/>
      <use xlink:href="#DejaVuSans-72" x="197.115234"/>
      <use xlink:href="#DejaVuSans-65" x="235.978516"/>
      <use xlink:href="#DejaVuSans-6e" x="297.501953"/>
      <use xlink:href="#DejaVuSans-63" x="360.880859"/>
      <use xlink:href="#DejaVuSans-65" x="415.861328"/>
      <use xlink:href="#DejaVuSans-5f" x="477.384766"/>
      <use xlink:href="#DejaVuSans-64" x="527.384766"/>
      <use xlink:href="#DejaVuSans-61" x="590.861328"/>
      <use xlink:href="#DejaVuSans-74" x="652.140625"/>
      <use xlink:href="#DejaVuSans-61" x="691.349609"/>
     </g>
    </g>
    <g id="line2d_73">
     <path d="M 535.734375 71.254687 
L 545.734375 71.254687 
L 555.734375 71.254687 
" style="fill: none; stroke: #0000ff; stroke-width: 1.5; stroke-linecap: square"/>
    </g>
    <g id="text_34">
     <!-- observable -->
     <g transform="translate(563.734375 74.754687) scale(0.1 -0.1)">
      <use xlink:href="#DejaVuSans-6f"/>
      <use xlink:href="#DejaVuSans-62" x="61.181641"/>
      <use xlink:href="#DejaVuSans-73" x="124.658203"/>
      <use xlink:href="#DejaVuSans-65" x="176.757812"/>
      <use xlink:href="#DejaVuSans-72" x="238.28125"/>
      <use xlink:href="#DejaVuSans-76" x="279.394531"/>
      <use xlink:href="#DejaVuSans-61" x="338.574219"/>
      <use xlink:href="#DejaVuSans-62" x="399.853516"/>
      <use xlink:href="#DejaVuSans-6c" x="463.330078"/>
      <use xlink:href="#DejaVuSans-65" x="491.113281"/>
     </g>
    </g>
   </g>
  </g>
 </g>
 <defs>
  <clipPath id="p2d0c226b23">
   <rect x="90" y="43.2" width="253.636364" height="277.2"/>
  </clipPath>
  <clipPath id="pc9237dbd33">
   <rect x="394.363636" y="43.2" width="253.636364" height="277.2"/>
  </clipPath>
 </defs>
</svg>
