<?xml version="1.0" encoding="utf-8" standalone="no"?>
<!DOCTYPE svg PUBLIC "-//W3C//DTD SVG 1.1//EN"
  "http://www.w3.org/Graphics/SVG/1.1/DTD/svg11.dtd">
<svg xmlns:xlink="http://www.w3.org/1999/xlink" width="720pt" height="360pt" viewBox="0 0 720 360" xmlns="http://www.w3.org/2000/svg" version="1.1">
 <metadata>
  <rdf:RDF xmlns:dc="http://purl.org/dc/elements/1.1/" xmlns:cc="http://creativecommons.org/ns#" xmlns:rdf="http://www.w3.org/1999/02/22-rdf-syntax-ns#">
   <cc:Work>
    <dc:type rdf:resource="http://purl.org/dc/dcmitype/StillImage"/>
    <dc:date>2025-07-08T18:39:33.882209</dc:date>
    <dc:format>image/svg+xml</dc:format>
    <dc:creator>
     <cc:Agent>
      <dc:title>Matplotlib v3.9.1, https://matplotlib.org/</dc:title>
     </cc:Agent>
    </dc:creator>
   </cc:Work>
  </rdf:RDF>
 </metadata>
 <defs>
  <style type="text/css">*{stroke-linejoin: round; stroke-linecap: butt}</style>
 </defs>
 <g id="figure_1">
  <g id="patch_1">
   <path d="M 0 360 
L 720 360 
L 720 0 
L 0 0 
z
" style="fill: #ffffff"/>
  </g>
  <g id="axes_1">
   <g id="patch_2">
    <path d="M 90 320.4 
L 343.636364 320.4 
L 343.636364 43.2 
L 90 43.2 
z
" style="fill: #ffffff"/>
   </g>
   <g id="matplotlib.axis_1">
    <g id="xtick_1">
     <g id="line2d_1">
      <defs>
       <path id="m9462ef6665" d="M 0 0 
L 0 3.5 
" style="stroke: #000000; stroke-width: 0.8"/>
      </defs>
      <g>
       <use xlink:href="#m9462ef6665" x="110.716158" y="320.4" style="stroke: #000000; stroke-width: 0.8"/>
      </g>
     </g>
     <g id="text_1">
      <!-- 0 -->
      <g transform="translate(107.534908 334.998438) scale(0.1 -0.1)">
       <defs>
        <path id="DejaVuSans-30" d="M 2034 4250 
Q 1547 4250 1301 3770 
Q 1056 3291 1056 2328 
Q 1056 1369 1301 889 
Q 1547 409 2034 409 
Q 2525 409 2770 889 
Q 3016 1369 3016 2328 
Q 3016 3291 2770 3770 
Q 2525 4250 2034 4250 
z
M 2034 4750 
Q 2819 4750 3233 4129 
Q 3647 3509 3647 2328 
Q 3647 1150 3233 529 
Q 2819 -91 2034 -91 
Q 1250 -91 836 529 
Q 422 1150 422 2328 
Q 422 3509 836 4129 
Q 1250 4750 2034 4750 
z
" transform="scale(0.015625)"/>
       </defs>
       <use xlink:href="#DejaVuSans-30"/>
      </g>
     </g>
    </g>
    <g id="xtick_2">
     <g id="line2d_2">
      <g>
       <use xlink:href="#m9462ef6665" x="145.733327" y="320.4" style="stroke: #000000; stroke-width: 0.8"/>
      </g>
     </g>
     <g id="text_2">
      <!-- 10000 -->
      <g transform="translate(129.827077 334.998438) scale(0.1 -0.1)">
       <defs>
        <path id="DejaVuSans-31" d="M 794 531 
L 1825 531 
L 1825 4091 
L 703 3866 
L 703 4441 
L 1819 4666 
L 2450 4666 
L 2450 531 
L 3481 531 
L 3481 0 
L 794 0 
L 794 531 
z
" transform="scale(0.015625)"/>
       </defs>
       <use xlink:href="#DejaVuSans-31"/>
       <use xlink:href="#DejaVuSans-30" x="63.623047"/>
       <use xlink:href="#DejaVuSans-30" x="127.246094"/>
       <use xlink:href="#DejaVuSans-30" x="190.869141"/>
       <use xlink:href="#DejaVuSans-30" x="254.492188"/>
      </g>
     </g>
    </g>
    <g id="xtick_3">
     <g id="line2d_3">
      <g>
       <use xlink:href="#m9462ef6665" x="180.750497" y="320.4" style="stroke: #000000; stroke-width: 0.8"/>
      </g>
     </g>
     <g id="text_3">
      <!-- 20000 -->
      <g transform="translate(164.844247 334.998438) scale(0.1 -0.1)">
       <defs>
        <path id="DejaVuSans-32" d="M 1228 531 
L 3431 531 
L 3431 0 
L 469 0 
L 469 531 
Q 828 903 1448 1529 
Q 2069 2156 2228 2338 
Q 2531 2678 2651 2914 
Q 2772 3150 2772 3378 
Q 2772 3750 2511 3984 
Q 2250 4219 1831 4219 
Q 1534 4219 1204 4116 
Q 875 4013 500 3803 
L 500 4441 
Q 881 4594 1212 4672 
Q 1544 4750 1819 4750 
Q 2544 4750 2975 4387 
Q 3406 4025 3406 3419 
Q 3406 3131 3298 2873 
Q 3191 2616 2906 2266 
Q 2828 2175 2409 1742 
Q 1991 1309 1228 531 
z
" transform="scale(0.015625)"/>
       </defs>
       <use xlink:href="#DejaVuSans-32"/>
       <use xlink:href="#DejaVuSans-30" x="63.623047"/>
       <use xlink:href="#DejaVuSans-30" x="127.246094"/>
       <use xlink:href="#DejaVuSans-30" x="190.869141"/>
       <use xlink:href="#DejaVuSans-30" x="254.492188"/>
      </g>
     </g>
    </g>
    <g id="xtick_4">
     <g id="line2d_4">
      <g>
       <use xlink:href="#m9462ef6665" x="215.767667" y="320.4" style="stroke: #000000; stroke-width: 0.8"/>
      </g>
     </g>
     <g id="text_4">
      <!-- 30000 -->
      <g transform="translate(199.861417 334.998438) scale(0.1 -0.1)">
       <defs>
        <path id="DejaVuSans-33" d="M 2597 2516 
Q 3050 2419 3304 2112 
Q 3559 1806 3559 1356 
Q 3559 666 3084 287 
Q 2609 -91 1734 -91 
Q 1441 -91 1130 -33 
Q 819 25 488 141 
L 488 750 
Q 750 597 1062 519 
Q 1375 441 1716 441 
Q 2309 441 2620 675 
Q 2931 909 2931 1356 
Q 2931 1769 2642 2001 
Q 2353 2234 1838 2234 
L 1294 2234 
L 1294 2753 
L 1863 2753 
Q 2328 2753 2575 2939 
Q 2822 3125 2822 3475 
Q 2822 3834 2567 4026 
Q 2313 4219 1838 4219 
Q 1578 4219 1281 4162 
Q 984 4106 628 3988 
L 628 4550 
Q 988 4650 1302 4700 
Q 1616 4750 1894 4750 
Q 2613 4750 3031 4423 
Q 3450 4097 3450 3541 
Q 3450 3153 3228 2886 
Q 3006 2619 2597 2516 
z
" transform="scale(0.015625)"/>
       </defs>
       <use xlink:href="#DejaVuSans-33"/>
       <use xlink:href="#DejaVuSans-30" x="63.623047"/>
       <use xlink:href="#DejaVuSans-30" x="127.246094"/>
       <use xlink:href="#DejaVuSans-30" x="190.869141"/>
       <use xlink:href="#DejaVuSans-30" x="254.492188"/>
      </g>
     </g>
    </g>
    <g id="xtick_5">
     <g id="line2d_5">
      <g>
       <use xlink:href="#m9462ef6665" x="250.784836" y="320.4" style="stroke: #000000; stroke-width: 0.8"/>
      </g>
     </g>
     <g id="text_5">
      <!-- 40000 -->
      <g transform="translate(234.878586 334.998438) scale(0.1 -0.1)">
       <defs>
        <path id="DejaVuSans-34" d="M 2419 4116 
L 825 1625 
L 2419 1625 
L 2419 4116 
z
M 2253 4666 
L 3047 4666 
L 3047 1625 
L 3713 1625 
L 3713 1100 
L 3047 1100 
L 3047 0 
L 2419 0 
L 2419 1100 
L 313 1100 
L 313 1709 
L 2253 4666 
z
" transform="scale(0.015625)"/>
       </defs>
       <use xlink:href="#DejaVuSans-34"/>
       <use xlink:href="#DejaVuSans-30" x="63.623047"/>
       <use xlink:href="#DejaVuSans-30" x="127.246094"/>
       <use xlink:href="#DejaVuSans-30" x="190.869141"/>
       <use xlink:href="#DejaVuSans-30" x="254.492188"/>
      </g>
     </g>
    </g>
    <g id="xtick_6">
     <g id="line2d_6">
      <g>
       <use xlink:href="#m9462ef6665" x="285.802006" y="320.4" style="stroke: #000000; stroke-width: 0.8"/>
      </g>
     </g>
     <g id="text_6">
      <!-- 50000 -->
      <g transform="translate(269.895756 334.998438) scale(0.1 -0.1)">
       <defs>
        <path id="DejaVuSans-35" d="M 691 4666 
L 3169 4666 
L 3169 4134 
L 1269 4134 
L 1269 2991 
Q 1406 3038 1543 3061 
Q 1681 3084 1819 3084 
Q 2600 3084 3056 2656 
Q 3513 2228 3513 1497 
Q 3513 744 3044 326 
Q 2575 -91 1722 -91 
Q 1428 -91 1123 -41 
Q 819 9 494 109 
L 494 744 
Q 775 591 1075 516 
Q 1375 441 1709 441 
Q 2250 441 2565 725 
Q 2881 1009 2881 1497 
Q 2881 1984 2565 2268 
Q 2250 2553 1709 2553 
Q 1456 2553 1204 2497 
Q 953 2441 691 2322 
L 691 4666 
z
" transform="scale(0.015625)"/>
       </defs>
       <use xlink:href="#DejaVuSans-35"/>
       <use xlink:href="#DejaVuSans-30" x="63.623047"/>
       <use xlink:href="#DejaVuSans-30" x="127.246094"/>
       <use xlink:href="#DejaVuSans-30" x="190.869141"/>
       <use xlink:href="#DejaVuSans-30" x="254.492188"/>
      </g>
     </g>
    </g>
    <g id="xtick_7">
     <g id="line2d_7">
      <g>
       <use xlink:href="#m9462ef6665" x="320.819176" y="320.4" style="stroke: #000000; stroke-width: 0.8"/>
      </g>
     </g>
     <g id="text_7">
      <!-- 60000 -->
      <g transform="translate(304.912926 334.998438) scale(0.1 -0.1)">
       <defs>
        <path id="DejaVuSans-36" d="M 2113 2584 
Q 1688 2584 1439 2293 
Q 1191 2003 1191 1497 
Q 1191 994 1439 701 
Q 1688 409 2113 409 
Q 2538 409 2786 701 
Q 3034 994 3034 1497 
Q 3034 2003 2786 2293 
Q 2538 2584 2113 2584 
z
M 3366 4563 
L 3366 3988 
Q 3128 4100 2886 4159 
Q 2644 4219 2406 4219 
Q 1781 4219 1451 3797 
Q 1122 3375 1075 2522 
Q 1259 2794 1537 2939 
Q 1816 3084 2150 3084 
Q 2853 3084 3261 2657 
Q 3669 2231 3669 1497 
Q 3669 778 3244 343 
Q 2819 -91 2113 -91 
Q 1303 -91 875 529 
Q 447 1150 447 2328 
Q 447 3434 972 4092 
Q 1497 4750 2381 4750 
Q 2619 4750 2861 4703 
Q 3103 4656 3366 4563 
z
" transform="scale(0.015625)"/>
       </defs>
       <use xlink:href="#DejaVuSans-36"/>
       <use xlink:href="#DejaVuSans-30" x="63.623047"/>
       <use xlink:href="#DejaVuSans-30" x="127.246094"/>
       <use xlink:href="#DejaVuSans-30" x="190.869141"/>
       <use xlink:href="#DejaVuSans-30" x="254.492188"/>
      </g>
     </g>
    </g>
    <g id="text_8">
     <!-- time -->
     <g transform="translate(203.262869 350.19625) scale(0.12 -0.12)">
      <defs>
       <path id="DejaVuSans-74" d="M 1172 4494 
L 1172 3500 
L 2356 3500 
L 2356 3053 
L 1172 3053 
L 1172 1153 
Q 1172 725 1289 603 
Q 1406 481 1766 481 
L 2356 481 
L 2356 0 
L 1766 0 
Q 1100 0 847 248 
Q 594 497 594 1153 
L 594 3053 
L 172 3053 
L 172 3500 
L 594 3500 
L 594 4494 
L 1172 4494 
z
" transform="scale(0.015625)"/>
       <path id="DejaVuSans-69" d="M 603 3500 
L 1178 3500 
L 1178 0 
L 603 0 
L 603 3500 
z
M 603 4863 
L 1178 4863 
L 1178 4134 
L 603 4134 
L 603 4863 
z
" transform="scale(0.015625)"/>
       <path id="DejaVuSans-6d" d="M 3328 2828 
Q 3544 3216 3844 3400 
Q 4144 3584 4550 3584 
Q 5097 3584 5394 3201 
Q 5691 2819 5691 2113 
L 5691 0 
L 5113 0 
L 5113 2094 
Q 5113 2597 4934 2840 
Q 4756 3084 4391 3084 
Q 3944 3084 3684 2787 
Q 3425 2491 3425 1978 
L 3425 0 
L 2847 0 
L 2847 2094 
Q 2847 2600 2669 2842 
Q 2491 3084 2119 3084 
Q 1678 3084 1418 2786 
Q 1159 2488 1159 1978 
L 1159 0 
L 581 0 
L 581 3500 
L 1159 3500 
L 1159 2956 
Q 1356 3278 1631 3431 
Q 1906 3584 2284 3584 
Q 2666 3584 2933 3390 
Q 3200 3197 3328 2828 
z
" transform="scale(0.015625)"/>
       <path id="DejaVuSans-65" d="M 3597 1894 
L 3597 1613 
L 953 1613 
Q 991 1019 1311 708 
Q 1631 397 2203 397 
Q 2534 397 2845 478 
Q 3156 559 3463 722 
L 3463 178 
Q 3153 47 2828 -22 
Q 2503 -91 2169 -91 
Q 1331 -91 842 396 
Q 353 884 353 1716 
Q 353 2575 817 3079 
Q 1281 3584 2069 3584 
Q 2775 3584 3186 3129 
Q 3597 2675 3597 1894 
z
M 3022 2063 
Q 3016 2534 2758 2815 
Q 2500 3097 2075 3097 
Q 1594 3097 1305 2825 
Q 1016 2553 972 2059 
L 3022 2063 
z
" transform="scale(0.015625)"/>
      </defs>
      <use xlink:href="#DejaVuSans-74"/>
      <use xlink:href="#DejaVuSans-69" x="39.208984"/>
      <use xlink:href="#DejaVuSans-6d" x="66.992188"/>
      <use xlink:href="#DejaVuSans-65" x="164.404297"/>
     </g>
    </g>
   </g>
   <g id="matplotlib.axis_2">
    <g id="ytick_1">
     <g id="line2d_8">
      <defs>
       <path id="me44549d4bc" d="M 0 0 
L -3.5 0 
" style="stroke: #000000; stroke-width: 0.8"/>
      </defs>
      <g>
       <use xlink:href="#me44549d4bc" x="90" y="307.8" style="stroke: #000000; stroke-width: 0.8"/>
      </g>
     </g>
     <g id="text_9">
      <!-- 0.0000 -->
      <g transform="translate(48.009375 311.599219) scale(0.1 -0.1)">
       <defs>
        <path id="DejaVuSans-2e" d="M 684 794 
L 1344 794 
L 1344 0 
L 684 0 
L 684 794 
z
" transform="scale(0.015625)"/>
       </defs>
       <use xlink:href="#DejaVuSans-30"/>
       <use xlink:href="#DejaVuSans-2e" x="63.623047"/>
       <use xlink:href="#DejaVuSans-30" x="95.410156"/>
       <use xlink:href="#DejaVuSans-30" x="159.033203"/>
       <use xlink:href="#DejaVuSans-30" x="222.65625"/>
       <use xlink:href="#DejaVuSans-30" x="286.279297"/>
      </g>
     </g>
    </g>
    <g id="ytick_2">
     <g id="line2d_9">
      <g>
       <use xlink:href="#me44549d4bc" x="90" y="261.492252" style="stroke: #000000; stroke-width: 0.8"/>
      </g>
     </g>
     <g id="text_10">
      <!-- 0.0002 -->
      <g transform="translate(48.009375 265.291471) scale(0.1 -0.1)">
       <use xlink:href="#DejaVuSans-30"/>
       <use xlink:href="#DejaVuSans-2e" x="63.623047"/>
       <use xlink:href="#DejaVuSans-30" x="95.410156"/>
       <use xlink:href="#DejaVuSans-30" x="159.033203"/>
       <use xlink:href="#DejaVuSans-30" x="222.65625"/>
       <use xlink:href="#DejaVuSans-32" x="286.279297"/>
      </g>
     </g>
    </g>
    <g id="ytick_3">
     <g id="line2d_10">
      <g>
       <use xlink:href="#me44549d4bc" x="90" y="215.184505" style="stroke: #000000; stroke-width: 0.8"/>
      </g>
     </g>
     <g id="text_11">
      <!-- 0.0004 -->
      <g transform="translate(48.009375 218.983723) scale(0.1 -0.1)">
       <use xlink:href="#DejaVuSans-30"/>
       <use xlink:href="#DejaVuSans-2e" x="63.623047"/>
       <use xlink:href="#DejaVuSans-30" x="95.410156"/>
       <use xlink:href="#DejaVuSans-30" x="159.033203"/>
       <use xlink:href="#DejaVuSans-30" x="222.65625"/>
       <use xlink:href="#DejaVuSans-34" x="286.279297"/>
      </g>
     </g>
    </g>
    <g id="ytick_4">
     <g id="line2d_11">
      <g>
       <use xlink:href="#me44549d4bc" x="90" y="168.876757" style="stroke: #000000; stroke-width: 0.8"/>
      </g>
     </g>
     <g id="text_12">
      <!-- 0.0006 -->
      <g transform="translate(48.009375 172.675976) scale(0.1 -0.1)">
       <use xlink:href="#DejaVuSans-30"/>
       <use xlink:href="#DejaVuSans-2e" x="63.623047"/>
       <use xlink:href="#DejaVuSans-30" x="95.410156"/>
       <use xlink:href="#DejaVuSans-30" x="159.033203"/>
       <use xlink:href="#DejaVuSans-30" x="222.65625"/>
       <use xlink:href="#DejaVuSans-36" x="286.279297"/>
      </g>
     </g>
    </g>
    <g id="ytick_5">
     <g id="line2d_12">
      <g>
       <use xlink:href="#me44549d4bc" x="90" y="122.569009" style="stroke: #000000; stroke-width: 0.8"/>
      </g>
     </g>
     <g id="text_13">
      <!-- 0.0008 -->
      <g transform="translate(48.009375 126.368228) scale(0.1 -0.1)">
       <defs>
        <path id="DejaVuSans-38" d="M 2034 2216 
Q 1584 2216 1326 1975 
Q 1069 1734 1069 1313 
Q 1069 891 1326 650 
Q 1584 409 2034 409 
Q 2484 409 2743 651 
Q 3003 894 3003 1313 
Q 3003 1734 2745 1975 
Q 2488 2216 2034 2216 
z
M 1403 2484 
Q 997 2584 770 2862 
Q 544 3141 544 3541 
Q 544 4100 942 4425 
Q 1341 4750 2034 4750 
Q 2731 4750 3128 4425 
Q 3525 4100 3525 3541 
Q 3525 3141 3298 2862 
Q 3072 2584 2669 2484 
Q 3125 2378 3379 2068 
Q 3634 1759 3634 1313 
Q 3634 634 3220 271 
Q 2806 -91 2034 -91 
Q 1263 -91 848 271 
Q 434 634 434 1313 
Q 434 1759 690 2068 
Q 947 2378 1403 2484 
z
M 1172 3481 
Q 1172 3119 1398 2916 
Q 1625 2713 2034 2713 
Q 2441 2713 2670 2916 
Q 2900 3119 2900 3481 
Q 2900 3844 2670 4047 
Q 2441 4250 2034 4250 
Q 1625 4250 1398 4047 
Q 1172 3844 1172 3481 
z
" transform="scale(0.015625)"/>
       </defs>
       <use xlink:href="#DejaVuSans-30"/>
       <use xlink:href="#DejaVuSans-2e" x="63.623047"/>
       <use xlink:href="#DejaVuSans-30" x="95.410156"/>
       <use xlink:href="#DejaVuSans-30" x="159.033203"/>
       <use xlink:href="#DejaVuSans-30" x="222.65625"/>
       <use xlink:href="#DejaVuSans-38" x="286.279297"/>
      </g>
     </g>
    </g>
    <g id="ytick_6">
     <g id="line2d_13">
      <g>
       <use xlink:href="#me44549d4bc" x="90" y="76.261261" style="stroke: #000000; stroke-width: 0.8"/>
      </g>
     </g>
     <g id="text_14">
      <!-- 0.0010 -->
      <g transform="translate(48.009375 80.06048) scale(0.1 -0.1)">
       <use xlink:href="#DejaVuSans-30"/>
       <use xlink:href="#DejaVuSans-2e" x="63.623047"/>
       <use xlink:href="#DejaVuSans-30" x="95.410156"/>
       <use xlink:href="#DejaVuSans-30" x="159.033203"/>
       <use xlink:href="#DejaVuSans-31" x="222.65625"/>
       <use xlink:href="#DejaVuSans-30" x="286.279297"/>
      </g>
     </g>
    </g>
    <g id="text_15">
     <!-- [Cve_e3174] -->
     <g transform="translate(41.18 219.876562) rotate(-90) scale(0.12 -0.12)">
      <defs>
       <path id="DejaVuSans-5b" d="M 550 4863 
L 1875 4863 
L 1875 4416 
L 1125 4416 
L 1125 -397 
L 1875 -397 
L 1875 -844 
L 550 -844 
L 550 4863 
z
" transform="scale(0.015625)"/>
       <path id="DejaVuSans-43" d="M 4122 4306 
L 4122 3641 
Q 3803 3938 3442 4084 
Q 3081 4231 2675 4231 
Q 1875 4231 1450 3742 
Q 1025 3253 1025 2328 
Q 1025 1406 1450 917 
Q 1875 428 2675 428 
Q 3081 428 3442 575 
Q 3803 722 4122 1019 
L 4122 359 
Q 3791 134 3420 21 
Q 3050 -91 2638 -91 
Q 1578 -91 968 557 
Q 359 1206 359 2328 
Q 359 3453 968 4101 
Q 1578 4750 2638 4750 
Q 3056 4750 3426 4639 
Q 3797 4528 4122 4306 
z
" transform="scale(0.015625)"/>
       <path id="DejaVuSans-76" d="M 191 3500 
L 800 3500 
L 1894 563 
L 2988 3500 
L 3597 3500 
L 2284 0 
L 1503 0 
L 191 3500 
z
" transform="scale(0.015625)"/>
       <path id="DejaVuSans-5f" d="M 3263 -1063 
L 3263 -1509 
L -63 -1509 
L -63 -1063 
L 3263 -1063 
z
" transform="scale(0.015625)"/>
       <path id="DejaVuSans-37" d="M 525 4666 
L 3525 4666 
L 3525 4397 
L 1831 0 
L 1172 0 
L 2766 4134 
L 525 4134 
L 525 4666 
z
" transform="scale(0.015625)"/>
       <path id="DejaVuSans-5d" d="M 1947 4863 
L 1947 -844 
L 622 -844 
L 622 -397 
L 1369 -397 
L 1369 4416 
L 622 4416 
L 622 4863 
L 1947 4863 
z
" transform="scale(0.015625)"/>
      </defs>
      <use xlink:href="#DejaVuSans-5b"/>
      <use xlink:href="#DejaVuSans-43" x="39.013672"/>
      <use xlink:href="#DejaVuSans-76" x="108.837891"/>
      <use xlink:href="#DejaVuSans-65" x="168.017578"/>
      <use xlink:href="#DejaVuSans-5f" x="229.541016"/>
      <use xlink:href="#DejaVuSans-65" x="279.541016"/>
      <use xlink:href="#DejaVuSans-33" x="341.064453"/>
      <use xlink:href="#DejaVuSans-31" x="404.6875"/>
      <use xlink:href="#DejaVuSans-37" x="468.310547"/>
      <use xlink:href="#DejaVuSans-34" x="531.933594"/>
      <use xlink:href="#DejaVuSans-5d" x="595.556641"/>
     </g>
    </g>
   </g>
   <g id="line2d_14">
    <defs>
     <path id="mb599db1041" d="M -5 5 
L 5 5 
L 5 -5 
L -5 -5 
z
" style="stroke: #000000; stroke-linejoin: miter"/>
    </defs>
    <g clip-path="url(#p0af47935a6)">
     <use xlink:href="#mb599db1041" x="111.136364" y="58.977658" style="stroke: #000000; stroke-linejoin: miter"/>
     <use xlink:href="#mb599db1041" x="111.55657" y="90.935792" style="stroke: #000000; stroke-linejoin: miter"/>
     <use xlink:href="#mb599db1041" x="111.976776" y="144.474667" style="stroke: #000000; stroke-linejoin: miter"/>
     <use xlink:href="#mb599db1041" x="112.396982" y="208.571679" style="stroke: #000000; stroke-linejoin: miter"/>
     <use xlink:href="#mb599db1041" x="113.237394" y="265.047255" style="stroke: #000000; stroke-linejoin: miter"/>
     <use xlink:href="#mb599db1041" x="115.75863" y="297.962057" style="stroke: #000000; stroke-linejoin: miter"/>
     <use xlink:href="#mb599db1041" x="317.457528" y="294.106801" style="stroke: #000000; stroke-linejoin: miter"/>
     <use xlink:href="#mb599db1041" x="317.877734" y="55.8" style="stroke: #000000; stroke-linejoin: miter"/>
     <use xlink:href="#mb599db1041" x="318.29794" y="89.144169" style="stroke: #000000; stroke-linejoin: miter"/>
     <use xlink:href="#mb599db1041" x="318.718146" y="149.096842" style="stroke: #000000; stroke-linejoin: miter"/>
     <use xlink:href="#mb599db1041" x="319.138352" y="200.957466" style="stroke: #000000; stroke-linejoin: miter"/>
     <use xlink:href="#mb599db1041" x="319.978764" y="260.275957" style="stroke: #000000; stroke-linejoin: miter"/>
     <use xlink:href="#mb599db1041" x="322.5" y="296.789614" style="stroke: #000000; stroke-linejoin: miter"/>
    </g>
   </g>
   <g id="line2d_15">
    <path d="M 105.673685 307.8 
L 110.743576 307.709347 
L 110.780179 305.469791 
L 110.855403 282.140281 
L 111.316213 104.77923 
L 111.330636 104.701862 
L 111.345059 104.847561 
L 111.431599 109.501917 
L 111.691219 141.85279 
L 112.297 211.759081 
L 112.781761 243.236401 
L 113.278825 262.10098 
L 113.760651 273.278016 
L 114.298068 281.245896 
L 114.956692 287.54845 
L 115.615315 291.817449 
L 115.777828 293.247962 
L 115.80863 292.468663 
L 115.86804 280.622609 
L 116.059197 173.166419 
L 116.307719 95.792051 
L 116.366905 93.58846 
L 116.426092 95.264168 
L 116.579976 110.397006 
L 117.503283 216.056742 
L 118.000449 243.841585 
L 118.509452 260.813165 
L 119.059732 272.169782 
L 119.653163 280.083649 
L 120.351718 286.353947 
L 120.822101 289.845864 
L 120.849212 289.214759 
L 120.901843 280.128335 
L 121.053075 199.003602 
L 121.331993 94.756966 
L 121.40303 90.984823 
L 121.460583 92.260702 
L 121.604464 105.627359 
L 122.599921 217.900836 
L 123.095555 244.307525 
L 123.623165 261.127884 
L 124.186302 272.249528 
L 124.788744 280.016641 
L 125.471993 286.061461 
L 125.863883 289.535206 
L 125.89693 288.55381 
L 125.9578 275.320609 
L 126.213438 135.644319 
L 126.429317 91.002316 
L 126.45526 90.709698 
L 126.494175 91.606742 
L 126.623892 102.59931 
L 127.765404 225.606833 
L 128.271302 249.215337 
L 128.797045 264.049649 
L 129.350836 273.958609 
L 129.954585 281.169977 
L 130.661734 287.030428 
L 130.886047 288.514956 
L 130.907339 289.515923 
L 130.993905 277.536983 
L 131.17646 175.6776 
L 131.425252 93.670187 
L 131.498916 90.697594 
L 131.539747 91.722 
L 131.67585 103.706643 
L 132.752231 222.145189 
L 133.248702 246.803098 
L 133.776202 262.599667 
L 134.331349 273.034606 
L 134.958987 280.781415 
L 135.642698 286.589859 
L 135.92852 288.50884 
L 135.94999 289.482476 
L 136.037127 277.251879 
L 136.224118 172.686226 
L 136.472066 93.263854 
L 136.534983 90.66476 
L 136.585316 91.837541 
L 136.723733 104.337099 
L 137.768153 220.407825 
L 138.271488 246.030678 
L 138.787407 261.846189 
L 139.329811 272.348388 
L 139.942541 280.16589 
L 140.621893 286.122472 
L 140.992511 288.980336 
L 141.020281 288.286252 
L 141.074306 278.497413 
L 141.239071 188.392936 
L 141.50817 93.449648 
L 141.577615 90.290904 
L 141.632693 91.708985 
L 141.784158 106.218224 
L 142.741413 215.415876 
L 143.235577 242.630829 
L 143.761623 259.95807 
L 144.297807 270.984394 
L 144.912688 279.249814 
L 145.56611 285.263522 
L 146.034153 288.819856 
L 146.059731 288.298213 
L 146.112325 279.688641 
L 146.25701 203.309873 
L 146.540225 94.388361 
L 146.625856 90.175524 
L 146.674787 91.569382 
L 146.821583 105.465147 
L 147.803115 216.675335 
L 148.297405 243.358667 
L 148.819155 260.272149 
L 149.363535 271.306963 
L 149.899052 278.574753 
L 150.619248 285.305739 
L 151.077678 288.968135 
L 151.105805 288.237612 
L 151.163568 277.085716 
L 151.349089 173.636281 
L 151.593598 93.391114 
L 151.661283 90.280825 
L 151.717688 91.697847 
L 151.86434 105.602898 
L 152.845781 216.765521 
L 153.342142 243.518537 
L 153.85557 260.176228 
L 154.416639 271.52753 
L 155.033399 279.629842 
L 155.717208 285.761991 
L 156.119057 288.920021 
L 156.147283 288.251776 
L 156.201284 278.575799 
L 156.361894 191.120817 
L 156.625492 94.429227 
L 156.711388 90.252253 
L 156.760472 91.679736 
L 156.907723 105.685033 
L 157.889396 216.820829 
L 158.380233 243.316971 
L 158.895612 260.096726 
L 159.456477 271.469929 
L 160.076876 279.628019 
L 160.798841 286.043515 
L 161.162424 289.270828 
L 161.195201 288.216747 
L 161.256084 274.705986 
L 161.750718 90.502075 
L 161.833568 93.853044 
L 162.040692 118.126789 
L 162.742 202.38358 
L 163.230409 234.699041 
L 163.734574 254.572545 
L 164.262568 267.419911 
L 164.810718 276.092297 
L 165.440161 282.866705 
L 166.20507 288.875424 
L 166.218222 288.753835 
L 166.25698 285.491857 
L 166.346223 252.11932 
L 166.736139 92.086022 
L 166.789559 90.21244 
L 166.842978 91.527162 
L 166.989881 105.306496 
L 167.985552 217.573406 
L 168.488531 244.254341 
L 169.007227 260.751377 
L 169.544743 271.510909 
L 170.120884 279.17284 
L 170.771611 285.184432 
L 171.247695 288.742551 
L 171.273421 288.150444 
L 171.327703 278.712873 
L 171.488928 191.19879 
L 171.756137 93.946882 
L 171.831046 90.114086 
L 171.880985 91.216463 
L 172.018318 103.481999 
L 173.079528 220.932786 
L 173.57892 246.081424 
L 174.097188 261.850699 
L 174.647828 272.418889 
L 175.225165 279.80072 
L 175.892685 285.75263 
L 176.290073 288.637807 
L 176.315695 288.057761 
L 176.367034 279.549245 
L 176.511763 203.199348 
L 176.796547 94.085394 
L 176.877239 90.030079 
L 176.931233 91.517064 
L 177.079717 105.751728 
L 178.049256 215.969145 
L 178.55214 243.268476 
L 179.07074 260.115919 
L 179.621826 271.299832 
L 180.243836 279.515984 
L 180.9212 285.622636 
L 181.332294 288.939308 
L 181.362667 288.072448 
L 181.420384 276.385245 
L 181.616096 166.77874 
L 181.861768 92.259023 
L 181.923185 90.261457 
L 181.964708 91.303665 
L 182.103118 103.600428 
L 183.168875 221.317071 
L 183.667151 246.293964 
L 184.193108 262.184771 
L 184.738903 272.576111 
L 185.333412 280.099198 
L 186.005791 286.006096 
L 186.375082 288.701881 
L 186.400745 288.115418 
L 186.452166 279.556782 
L 186.597249 202.920053 
L 186.882656 94.010902 
L 186.96379 90.081337 
L 187.004573 91.019597 
L 187.140517 102.826484 
L 188.239435 222.981971 
L 188.735553 247.173729 
L 189.26174 262.706299 
L 189.822908 273.128833 
L 190.457392 280.869925 
L 191.076975 286.165531 
L 191.417542 288.899214 
L 191.445664 288.164411 
L 191.500463 277.963925 
L 191.670378 184.372655 
L 191.929921 93.669378 
L 191.999517 90.235426 
L 192.057513 91.649004 
L 192.208302 106.081628 
L 193.171036 215.711039 
L 193.669802 242.983513 
L 194.180335 259.764807 
L 194.743471 271.293837 
L 195.307511 278.890628 
L 195.932178 284.778548 
L 196.45891 288.684266 
L 196.481906 288.285 
L 196.533372 280.594661 
L 196.669496 210.825619 
L 196.967298 94.029648 
L 197.041038 90.082568 
L 197.102487 91.623685 
L 197.249967 105.831159 
L 198.220874 216.116647 
L 198.712473 242.894645 
L 199.228652 259.830946 
L 199.786061 271.224776 
L 200.3929 279.304384 
L 201.089838 285.624633 
L 201.502318 288.917203 
L 201.530353 288.198308 
L 201.584956 278.125344 
L 201.752382 186.145141 
L 202.017024 93.473803 
L 202.087595 90.237977 
L 202.138501 91.467223 
L 202.278786 104.289424 
L 203.30286 218.945023 
L 203.793855 244.590283 
L 204.312906 260.969522 
L 204.854808 271.724803 
L 205.412873 279.122196 
L 206.071271 285.209169 
L 206.544813 289.087869 
L 206.575328 288.198047 
L 206.633306 276.335057 
L 206.830165 165.967291 
L 207.077202 92.154958 
L 207.130139 90.366208 
L 207.181078 91.598552 
L 207.321464 104.436269 
L 208.346288 219.10114 
L 208.837642 244.723105 
L 209.357073 261.080273 
L 209.899589 271.820583 
L 210.50443 279.705167 
L 211.204975 285.943674 
L 211.587358 288.8842 
L 211.615467 288.155289 
L 211.670215 277.994311 
L 211.83819 185.601283 
L 212.103582 93.299555 
L 212.17025 90.222896 
L 212.22461 91.502006 
L 212.3741 105.557796 
L 213.34771 216.183936 
L 213.844871 243.195719 
L 214.371277 260.297937 
L 214.904494 271.147077 
L 215.457197 278.661933 
L 216.13051 285.002577 
L 216.629718 288.925883 
L 216.657751 288.208231 
L 216.712358 278.138992 
L 216.879867 186.112925 
L 217.144746 93.45268 
L 217.21538 90.24526 
L 217.266279 91.492223 
L 217.406511 104.335001 
L 218.430204 218.946727 
L 218.921015 244.585925 
L 219.439873 260.963624 
L 219.981388 271.715933 
L 220.53857 279.107033 
L 221.19782 285.20558 
L 221.672234 289.089587 
L 221.702764 288.198395 
L 221.760777 276.31813 
L 221.957846 165.824212 
L 222.20519 92.117295 
L 222.253967 90.38054 
L 222.307737 91.564067 
L 222.442162 103.619517 
L 223.51494 221.802176 
L 224.016414 246.726844 
L 224.54828 262.605826 
L 225.118516 273.229758 
L 225.681672 280.231169 
L 226.363403 286.173222 
L 226.713553 289.257252 
L 226.747039 288.227595 
L 226.809029 274.394201 
L 227.301929 90.492315 
L 227.375487 93.128415 
L 227.559385 113.459251 
L 228.338022 206.031636 
L 228.838014 237.407267 
L 229.35229 256.509197 
L 229.902613 269.055502 
L 230.4728 277.464883 
L 231.130385 284.058461 
L 231.756176 288.783234 
L 231.776476 288.491602 
L 231.822417 282.772434 
L 231.939668 227.808238 
L 232.264533 94.115048 
L 232.338349 90.1586 
L 232.399862 91.70209 
L 232.547494 105.931167 
L 233.519406 216.25869 
L 234.011513 243.016099 
L 234.528225 259.931409 
L 235.086762 271.316223 
L 235.697807 279.417383 
L 236.402422 285.764539 
L 236.799683 289.020372 
L 236.830254 288.124747 
L 236.888356 276.195295 
L 237.085791 165.476264 
L 237.324728 92.64504 
L 237.382544 90.322422 
L 237.436817 91.591838 
L 237.586068 105.601047 
L 238.56771 216.785888 
L 239.061425 243.429021 
L 239.57773 260.199962 
L 240.136637 271.512148 
L 240.749494 279.580533 
L 241.431118 285.712692 
L 241.842237 288.887825 
L 241.870389 288.153291 
L 241.925256 277.931511 
L 242.09532 184.233906 
L 242.354976 93.630166 
L 242.424658 90.226997 
L 242.482727 91.667914 
L 242.633705 106.162283 
L 243.597644 215.840974 
L 244.097035 243.085742 
L 244.608226 259.844239 
L 245.151163 271.01364 
L 245.753269 279.122844 
L 246.355773 284.768577 
L 246.883632 288.777108 
L 246.909317 288.248796 
L 246.962245 279.509396 
L 247.107787 202.446201 
L 247.39212 94.090004 
L 247.46589 90.150697 
L 247.527365 91.699368 
L 247.674906 105.922987 
L 248.646217 216.209056 
L 249.13802 242.971599 
L 249.654413 259.894182 
L 250.212196 271.278945 
L 250.820416 279.360889 
L 251.519865 285.685965 
L 251.927034 288.97272 
L 251.95757 288.084949 
L 252.015614 276.204949 
L 252.212887 165.611334 
L 252.451729 92.642042 
L 252.51365 90.278608 
L 252.564676 91.578335 
L 252.705277 104.546351 
L 253.727564 218.973784 
L 254.223646 244.819081 
L 254.742936 261.12247 
L 255.302561 272.108263 
L 255.927951 280.108626 
L 256.612378 286.102851 
L 256.968456 288.886918 
L 256.996715 288.220058 
L 257.050882 278.497401 
L 257.211858 190.779159 
L 257.474238 94.481619 
L 257.559459 90.221905 
L 257.608158 91.566818 
L 257.754252 105.295579 
L 258.752564 217.74791 
L 259.25172 244.203436 
L 259.76305 260.536992 
L 260.303275 271.416018 
L 260.925203 279.606752 
L 261.584383 285.556899 
L 262.011048 288.806234 
L 262.039413 288.12657 
L 262.093764 278.291314 
L 262.262143 185.995174 
L 262.51956 94.109662 
L 262.593348 90.172046 
L 262.654838 91.723495 
L 262.802414 105.954747 
L 263.773956 216.246969 
L 264.265876 243.003244 
L 264.782392 259.920028 
L 265.340447 271.302259 
L 265.94968 279.389126 
L 266.650977 285.720459 
L 267.054437 289.004416 
L 267.084965 288.117862 
L 267.142995 276.247915 
L 267.340254 165.666071 
L 267.57912 92.668345 
L 267.641048 90.302345 
L 267.692044 91.599273 
L 267.83254 104.549892 
L 268.858496 219.225886 
L 269.353506 244.93107 
L 269.865982 261.027833 
L 270.418526 271.938769 
L 271.008094 279.616616 
L 271.691925 285.754069 
L 272.097063 288.92434 
L 272.125215 288.189879 
L 272.180091 277.966384 
L 272.350135 184.277537 
L 272.609621 93.676475 
L 272.679273 90.25508 
L 272.737316 91.681902 
L 272.888229 106.148178 
L 273.851748 215.80875 
L 274.350921 243.062961 
L 274.861877 259.828301 
L 275.426052 271.353705 
L 275.998783 279.030083 
L 276.656271 285.137681 
L 277.13935 289.089625 
L 277.169845 288.206727 
L 277.22781 276.374666 
L 277.424869 165.919424 
L 277.672398 92.116511 
L 277.72544 90.366739 
L 277.776298 91.628924 
L 277.916354 104.471406 
L 278.950584 219.747008 
L 279.4441 245.195078 
L 279.965789 261.425446 
L 280.498332 271.886848 
L 281.077842 279.477475 
L 281.694386 285.142188 
L 282.182111 288.844879 
L 282.20799 288.241979 
L 282.262421 278.712273 
L 282.422977 191.498705 
L 282.695773 93.499118 
L 282.76165 90.213191 
L 282.818327 91.430247 
L 282.963168 104.837705 
L 283.978634 218.656948 
L 284.472491 244.524266 
L 284.998209 261.085884 
L 285.560269 272.113182 
L 286.158024 279.814274 
L 286.858839 286.013858 
L 287.223377 288.829737 
L 287.251717 288.153315 
L 287.306036 278.342049 
L 287.46753 190.220265 
L 287.731852 94.134883 
L 287.805698 90.189326 
L 287.867237 91.742253 
L 288.014929 105.990143 
L 288.974931 215.457674 
L 289.467239 242.553139 
L 289.984163 259.657421 
L 290.527143 270.889032 
L 291.090035 278.596512 
L 291.798591 285.230693 
L 292.266865 289.079794 
L 292.297437 288.184414 
L 292.355554 276.251778 
L 292.553153 165.436566 
L 292.792387 92.6538 
L 292.850312 90.36458 
L 292.9048 91.673806 
L 293.054644 105.816181 
L 294.024517 216.092314 
L 294.519719 243.087674 
L 295.044051 260.201694 
L 295.596616 271.415849 
L 296.170214 279.09042 
L 296.81653 285.098046 
L 297.309519 288.815018 
L 297.335246 288.221477 
L 297.386846 279.582666 
L 297.532243 202.647062 
L 297.808481 95.066651 
L 297.899162 90.169095 
L 297.9457 91.40619 
L 298.085316 104.166553 
L 299.128393 220.127578 
L 299.626774 245.574424 
L 300.154471 261.772465 
L 300.698272 272.26836 
L 301.270788 279.649625 
L 301.85471 285.003305 
L 302.35176 288.945794 
L 302.37983 288.224887 
L 302.434533 278.112322 
L 302.602496 185.772143 
L 302.86826 93.328596 
L 302.934988 90.265875 
L 302.989288 91.553473 
L 303.138613 105.599777 
L 304.122452 216.92689 
L 304.618501 243.598138 
L 305.131774 260.218757 
L 305.693985 271.571006 
L 306.317854 279.733591 
L 307.009469 285.892273 
L 307.394325 289.044227 
L 307.424931 288.143837 
L 307.483148 276.156552 
L 307.685828 162.555154 
L 307.928395 92.004221 
L 307.986117 90.346934 
L 308.032294 91.652412 
L 308.170826 104.395323 
L 309.2055 219.728765 
L 309.710027 245.610771 
L 310.227832 261.582253 
L 310.78517 272.37355 
L 311.402355 280.204667 
L 312.026245 285.722801 
L 312.435782 288.744365 
L 312.461486 288.215065 
L 312.514476 279.451819 
L 312.660162 202.272822 
L 312.944415 94.049691 
L 313.018187 90.126534 
L 313.079664 91.685034 
L 313.227209 105.921914 
L 314.198546 216.206464 
L 314.690362 242.966452 
L 315.206769 259.888103 
L 315.764781 271.276378 
L 316.373872 279.367032 
L 317.074913 285.70126 
L 317.479177 288.987668 
L 317.509728 288.09849 
L 317.56782 276.196724 
L 317.76534 165.45351 
L 318.004542 92.599779 
L 318.062416 90.296493 
L 318.116727 91.584615 
L 318.266083 105.635001 
L 319.23978 216.245773 
L 319.737609 243.273933 
L 320.250081 260.003416 
L 320.798796 271.218396 
L 321.35284 278.731426 
L 322.02365 285.034692 
L 322.710103 289.678863 
L 322.710103 289.678863 
" clip-path="url(#p0af47935a6)" style="fill: none; stroke: #0000ff; stroke-width: 1.5; stroke-linecap: square"/>
   </g>
   <g id="patch_3">
    <path d="M 90 320.4 
L 90 43.2 
" style="fill: none; stroke: #000000; stroke-width: 0.8; stroke-linejoin: miter; stroke-linecap: square"/>
   </g>
   <g id="patch_4">
    <path d="M 343.636364 320.4 
L 343.636364 43.2 
" style="fill: none; stroke: #000000; stroke-width: 0.8; stroke-linejoin: miter; stroke-linecap: square"/>
   </g>
   <g id="patch_5">
    <path d="M 90 320.4 
L 343.636364 320.4 
" style="fill: none; stroke: #000000; stroke-width: 0.8; stroke-linejoin: miter; stroke-linecap: square"/>
   </g>
   <g id="patch_6">
    <path d="M 90 43.2 
L 343.636364 43.2 
" style="fill: none; stroke: #000000; stroke-width: 0.8; stroke-linejoin: miter; stroke-linecap: square"/>
   </g>
   <g id="text_16">
    <!-- Goldberg1995a fm_po_LOS100_exp3174 -->
    <g transform="translate(74.384588 37.2) scale(0.14 -0.14)">
     <defs>
      <path id="DejaVuSans-47" d="M 3809 666 
L 3809 1919 
L 2778 1919 
L 2778 2438 
L 4434 2438 
L 4434 434 
Q 4069 175 3628 42 
Q 3188 -91 2688 -91 
Q 1594 -91 976 548 
Q 359 1188 359 2328 
Q 359 3472 976 4111 
Q 1594 4750 2688 4750 
Q 3144 4750 3555 4637 
Q 3966 4525 4313 4306 
L 4313 3634 
Q 3963 3931 3569 4081 
Q 3175 4231 2741 4231 
Q 1884 4231 1454 3753 
Q 1025 3275 1025 2328 
Q 1025 1384 1454 906 
Q 1884 428 2741 428 
Q 3075 428 3337 486 
Q 3600 544 3809 666 
z
" transform="scale(0.015625)"/>
      <path id="DejaVuSans-6f" d="M 1959 3097 
Q 1497 3097 1228 2736 
Q 959 2375 959 1747 
Q 959 1119 1226 758 
Q 1494 397 1959 397 
Q 2419 397 2687 759 
Q 2956 1122 2956 1747 
Q 2956 2369 2687 2733 
Q 2419 3097 1959 3097 
z
M 1959 3584 
Q 2709 3584 3137 3096 
Q 3566 2609 3566 1747 
Q 3566 888 3137 398 
Q 2709 -91 1959 -91 
Q 1206 -91 779 398 
Q 353 888 353 1747 
Q 353 2609 779 3096 
Q 1206 3584 1959 3584 
z
" transform="scale(0.015625)"/>
      <path id="DejaVuSans-6c" d="M 603 4863 
L 1178 4863 
L 1178 0 
L 603 0 
L 603 4863 
z
" transform="scale(0.015625)"/>
      <path id="DejaVuSans-64" d="M 2906 2969 
L 2906 4863 
L 3481 4863 
L 3481 0 
L 2906 0 
L 2906 525 
Q 2725 213 2448 61 
Q 2172 -91 1784 -91 
Q 1150 -91 751 415 
Q 353 922 353 1747 
Q 353 2572 751 3078 
Q 1150 3584 1784 3584 
Q 2172 3584 2448 3432 
Q 2725 3281 2906 2969 
z
M 947 1747 
Q 947 1113 1208 752 
Q 1469 391 1925 391 
Q 2381 391 2643 752 
Q 2906 1113 2906 1747 
Q 2906 2381 2643 2742 
Q 2381 3103 1925 3103 
Q 1469 3103 1208 2742 
Q 947 2381 947 1747 
z
" transform="scale(0.015625)"/>
      <path id="DejaVuSans-62" d="M 3116 1747 
Q 3116 2381 2855 2742 
Q 2594 3103 2138 3103 
Q 1681 3103 1420 2742 
Q 1159 2381 1159 1747 
Q 1159 1113 1420 752 
Q 1681 391 2138 391 
Q 2594 391 2855 752 
Q 3116 1113 3116 1747 
z
M 1159 2969 
Q 1341 3281 1617 3432 
Q 1894 3584 2278 3584 
Q 2916 3584 3314 3078 
Q 3713 2572 3713 1747 
Q 3713 922 3314 415 
Q 2916 -91 2278 -91 
Q 1894 -91 1617 61 
Q 1341 213 1159 525 
L 1159 0 
L 581 0 
L 581 4863 
L 1159 4863 
L 1159 2969 
z
" transform="scale(0.015625)"/>
      <path id="DejaVuSans-72" d="M 2631 2963 
Q 2534 3019 2420 3045 
Q 2306 3072 2169 3072 
Q 1681 3072 1420 2755 
Q 1159 2438 1159 1844 
L 1159 0 
L 581 0 
L 581 3500 
L 1159 3500 
L 1159 2956 
Q 1341 3275 1631 3429 
Q 1922 3584 2338 3584 
Q 2397 3584 2469 3576 
Q 2541 3569 2628 3553 
L 2631 2963 
z
" transform="scale(0.015625)"/>
      <path id="DejaVuSans-67" d="M 2906 1791 
Q 2906 2416 2648 2759 
Q 2391 3103 1925 3103 
Q 1463 3103 1205 2759 
Q 947 2416 947 1791 
Q 947 1169 1205 825 
Q 1463 481 1925 481 
Q 2391 481 2648 825 
Q 2906 1169 2906 1791 
z
M 3481 434 
Q 3481 -459 3084 -895 
Q 2688 -1331 1869 -1331 
Q 1566 -1331 1297 -1286 
Q 1028 -1241 775 -1147 
L 775 -588 
Q 1028 -725 1275 -790 
Q 1522 -856 1778 -856 
Q 2344 -856 2625 -561 
Q 2906 -266 2906 331 
L 2906 616 
Q 2728 306 2450 153 
Q 2172 0 1784 0 
Q 1141 0 747 490 
Q 353 981 353 1791 
Q 353 2603 747 3093 
Q 1141 3584 1784 3584 
Q 2172 3584 2450 3431 
Q 2728 3278 2906 2969 
L 2906 3500 
L 3481 3500 
L 3481 434 
z
" transform="scale(0.015625)"/>
      <path id="DejaVuSans-39" d="M 703 97 
L 703 672 
Q 941 559 1184 500 
Q 1428 441 1663 441 
Q 2288 441 2617 861 
Q 2947 1281 2994 2138 
Q 2813 1869 2534 1725 
Q 2256 1581 1919 1581 
Q 1219 1581 811 2004 
Q 403 2428 403 3163 
Q 403 3881 828 4315 
Q 1253 4750 1959 4750 
Q 2769 4750 3195 4129 
Q 3622 3509 3622 2328 
Q 3622 1225 3098 567 
Q 2575 -91 1691 -91 
Q 1453 -91 1209 -44 
Q 966 3 703 97 
z
M 1959 2075 
Q 2384 2075 2632 2365 
Q 2881 2656 2881 3163 
Q 2881 3666 2632 3958 
Q 2384 4250 1959 4250 
Q 1534 4250 1286 3958 
Q 1038 3666 1038 3163 
Q 1038 2656 1286 2365 
Q 1534 2075 1959 2075 
z
" transform="scale(0.015625)"/>
      <path id="DejaVuSans-61" d="M 2194 1759 
Q 1497 1759 1228 1600 
Q 959 1441 959 1056 
Q 959 750 1161 570 
Q 1363 391 1709 391 
Q 2188 391 2477 730 
Q 2766 1069 2766 1631 
L 2766 1759 
L 2194 1759 
z
M 3341 1997 
L 3341 0 
L 2766 0 
L 2766 531 
Q 2569 213 2275 61 
Q 1981 -91 1556 -91 
Q 1019 -91 701 211 
Q 384 513 384 1019 
Q 384 1609 779 1909 
Q 1175 2209 1959 2209 
L 2766 2209 
L 2766 2266 
Q 2766 2663 2505 2880 
Q 2244 3097 1772 3097 
Q 1472 3097 1187 3025 
Q 903 2953 641 2809 
L 641 3341 
Q 956 3463 1253 3523 
Q 1550 3584 1831 3584 
Q 2591 3584 2966 3190 
Q 3341 2797 3341 1997 
z
" transform="scale(0.015625)"/>
      <path id="DejaVuSans-20" transform="scale(0.015625)"/>
      <path id="DejaVuSans-66" d="M 2375 4863 
L 2375 4384 
L 1825 4384 
Q 1516 4384 1395 4259 
Q 1275 4134 1275 3809 
L 1275 3500 
L 2222 3500 
L 2222 3053 
L 1275 3053 
L 1275 0 
L 697 0 
L 697 3053 
L 147 3053 
L 147 3500 
L 697 3500 
L 697 3744 
Q 697 4328 969 4595 
Q 1241 4863 1831 4863 
L 2375 4863 
z
" transform="scale(0.015625)"/>
      <path id="DejaVuSans-70" d="M 1159 525 
L 1159 -1331 
L 581 -1331 
L 581 3500 
L 1159 3500 
L 1159 2969 
Q 1341 3281 1617 3432 
Q 1894 3584 2278 3584 
Q 2916 3584 3314 3078 
Q 3713 2572 3713 1747 
Q 3713 922 3314 415 
Q 2916 -91 2278 -91 
Q 1894 -91 1617 61 
Q 1341 213 1159 525 
z
M 3116 1747 
Q 3116 2381 2855 2742 
Q 2594 3103 2138 3103 
Q 1681 3103 1420 2742 
Q 1159 2381 1159 1747 
Q 1159 1113 1420 752 
Q 1681 391 2138 391 
Q 2594 391 2855 752 
Q 3116 1113 3116 1747 
z
" transform="scale(0.015625)"/>
      <path id="DejaVuSans-4c" d="M 628 4666 
L 1259 4666 
L 1259 531 
L 3531 531 
L 3531 0 
L 628 0 
L 628 4666 
z
" transform="scale(0.015625)"/>
      <path id="DejaVuSans-4f" d="M 2522 4238 
Q 1834 4238 1429 3725 
Q 1025 3213 1025 2328 
Q 1025 1447 1429 934 
Q 1834 422 2522 422 
Q 3209 422 3611 934 
Q 4013 1447 4013 2328 
Q 4013 3213 3611 3725 
Q 3209 4238 2522 4238 
z
M 2522 4750 
Q 3503 4750 4090 4092 
Q 4678 3434 4678 2328 
Q 4678 1225 4090 567 
Q 3503 -91 2522 -91 
Q 1538 -91 948 565 
Q 359 1222 359 2328 
Q 359 3434 948 4092 
Q 1538 4750 2522 4750 
z
" transform="scale(0.015625)"/>
      <path id="DejaVuSans-53" d="M 3425 4513 
L 3425 3897 
Q 3066 4069 2747 4153 
Q 2428 4238 2131 4238 
Q 1616 4238 1336 4038 
Q 1056 3838 1056 3469 
Q 1056 3159 1242 3001 
Q 1428 2844 1947 2747 
L 2328 2669 
Q 3034 2534 3370 2195 
Q 3706 1856 3706 1288 
Q 3706 609 3251 259 
Q 2797 -91 1919 -91 
Q 1588 -91 1214 -16 
Q 841 59 441 206 
L 441 856 
Q 825 641 1194 531 
Q 1563 422 1919 422 
Q 2459 422 2753 634 
Q 3047 847 3047 1241 
Q 3047 1584 2836 1778 
Q 2625 1972 2144 2069 
L 1759 2144 
Q 1053 2284 737 2584 
Q 422 2884 422 3419 
Q 422 4038 858 4394 
Q 1294 4750 2059 4750 
Q 2388 4750 2728 4690 
Q 3069 4631 3425 4513 
z
" transform="scale(0.015625)"/>
      <path id="DejaVuSans-78" d="M 3513 3500 
L 2247 1797 
L 3578 0 
L 2900 0 
L 1881 1375 
L 863 0 
L 184 0 
L 1544 1831 
L 300 3500 
L 978 3500 
L 1906 2253 
L 2834 3500 
L 3513 3500 
z
" transform="scale(0.015625)"/>
     </defs>
     <use xlink:href="#DejaVuSans-47"/>
     <use xlink:href="#DejaVuSans-6f" x="77.490234"/>
     <use xlink:href="#DejaVuSans-6c" x="138.671875"/>
     <use xlink:href="#DejaVuSans-64" x="166.455078"/>
     <use xlink:href="#DejaVuSans-62" x="229.931641"/>
     <use xlink:href="#DejaVuSans-65" x="293.408203"/>
     <use xlink:href="#DejaVuSans-72" x="354.931641"/>
     <use xlink:href="#DejaVuSans-67" x="394.294922"/>
     <use xlink:href="#DejaVuSans-31" x="457.771484"/>
     <use xlink:href="#DejaVuSans-39" x="521.394531"/>
     <use xlink:href="#DejaVuSans-39" x="585.017578"/>
     <use xlink:href="#DejaVuSans-35" x="648.640625"/>
     <use xlink:href="#DejaVuSans-61" x="712.263672"/>
     <use xlink:href="#DejaVuSans-20" x="773.542969"/>
     <use xlink:href="#DejaVuSans-66" x="805.330078"/>
     <use xlink:href="#DejaVuSans-6d" x="840.535156"/>
     <use xlink:href="#DejaVuSans-5f" x="937.947266"/>
     <use xlink:href="#DejaVuSans-70" x="987.947266"/>
     <use xlink:href="#DejaVuSans-6f" x="1051.423828"/>
     <use xlink:href="#DejaVuSans-5f" x="1112.605469"/>
     <use xlink:href="#DejaVuSans-4c" x="1162.605469"/>
     <use xlink:href="#DejaVuSans-4f" x="1214.693359"/>
     <use xlink:href="#DejaVuSans-53" x="1293.404297"/>
     <use xlink:href="#DejaVuSans-31" x="1356.880859"/>
     <use xlink:href="#DejaVuSans-30" x="1420.503906"/>
     <use xlink:href="#DejaVuSans-30" x="1484.126953"/>
     <use xlink:href="#DejaVuSans-5f" x="1547.75"/>
     <use xlink:href="#DejaVuSans-65" x="1597.75"/>
     <use xlink:href="#DejaVuSans-78" x="1657.523438"/>
     <use xlink:href="#DejaVuSans-70" x="1716.703125"/>
     <use xlink:href="#DejaVuSans-33" x="1780.179688"/>
     <use xlink:href="#DejaVuSans-31" x="1843.802734"/>
     <use xlink:href="#DejaVuSans-37" x="1907.425781"/>
     <use xlink:href="#DejaVuSans-34" x="1971.048828"/>
    </g>
   </g>
   <g id="legend_1">
    <g id="patch_7">
     <path d="M 163.185369 80.834375 
L 270.450994 80.834375 
Q 272.450994 80.834375 272.450994 78.834375 
L 272.450994 50.2 
Q 272.450994 48.2 270.450994 48.2 
L 163.185369 48.2 
Q 161.185369 48.2 161.185369 50.2 
L 161.185369 78.834375 
Q 161.185369 80.834375 163.185369 80.834375 
z
" style="fill: #ffffff; opacity: 0.8; stroke: #cccccc; stroke-linejoin: miter"/>
    </g>
    <g id="line2d_16">
     <g>
      <use xlink:href="#mb599db1041" x="175.185369" y="56.298437" style="stroke: #000000; stroke-linejoin: miter"/>
     </g>
    </g>
    <g id="text_17">
     <!-- reference_data -->
     <g transform="translate(193.185369 59.798437) scale(0.1 -0.1)">
      <defs>
       <path id="DejaVuSans-6e" d="M 3513 2113 
L 3513 0 
L 2938 0 
L 2938 2094 
Q 2938 2591 2744 2837 
Q 2550 3084 2163 3084 
Q 1697 3084 1428 2787 
Q 1159 2491 1159 1978 
L 1159 0 
L 581 0 
L 581 3500 
L 1159 3500 
L 1159 2956 
Q 1366 3272 1645 3428 
Q 1925 3584 2291 3584 
Q 2894 3584 3203 3211 
Q 3513 2838 3513 2113 
z
" transform="scale(0.015625)"/>
       <path id="DejaVuSans-63" d="M 3122 3366 
L 3122 2828 
Q 2878 2963 2633 3030 
Q 2388 3097 2138 3097 
Q 1578 3097 1268 2742 
Q 959 2388 959 1747 
Q 959 1106 1268 751 
Q 1578 397 2138 397 
Q 2388 397 2633 464 
Q 2878 531 3122 666 
L 3122 134 
Q 2881 22 2623 -34 
Q 2366 -91 2075 -91 
Q 1284 -91 818 406 
Q 353 903 353 1747 
Q 353 2603 823 3093 
Q 1294 3584 2113 3584 
Q 2378 3584 2631 3529 
Q 2884 3475 3122 3366 
z
" transform="scale(0.015625)"/>
      </defs>
      <use xlink:href="#DejaVuSans-72"/>
      <use xlink:href="#DejaVuSans-65" x="38.863281"/>
      <use xlink:href="#DejaVuSans-66" x="100.386719"/>
      <use xlink:href="#DejaVuSans-65" x="135.591797"/>
      <use xlink:href="#DejaVuSans-72" x="197.115234"/>
      <use xlink:href="#DejaVuSans-65" x="235.978516"/>
      <use xlink:href="#DejaVuSans-6e" x="297.501953"/>
      <use xlink:href="#DejaVuSans-63" x="360.880859"/>
      <use xlink:href="#DejaVuSans-65" x="415.861328"/>
      <use xlink:href="#DejaVuSans-5f" x="477.384766"/>
      <use xlink:href="#DejaVuSans-64" x="527.384766"/>
      <use xlink:href="#DejaVuSans-61" x="590.861328"/>
      <use xlink:href="#DejaVuSans-74" x="652.140625"/>
      <use xlink:href="#DejaVuSans-61" x="691.349609"/>
     </g>
    </g>
    <g id="line2d_17">
     <path d="M 165.185369 71.254687 
L 175.185369 71.254687 
L 185.185369 71.254687 
" style="fill: none; stroke: #0000ff; stroke-width: 1.5; stroke-linecap: square"/>
    </g>
    <g id="text_18">
     <!-- observable -->
     <g transform="translate(193.185369 74.754687) scale(0.1 -0.1)">
      <defs>
       <path id="DejaVuSans-73" d="M 2834 3397 
L 2834 2853 
Q 2591 2978 2328 3040 
Q 2066 3103 1784 3103 
Q 1356 3103 1142 2972 
Q 928 2841 928 2578 
Q 928 2378 1081 2264 
Q 1234 2150 1697 2047 
L 1894 2003 
Q 2506 1872 2764 1633 
Q 3022 1394 3022 966 
Q 3022 478 2636 193 
Q 2250 -91 1575 -91 
Q 1294 -91 989 -36 
Q 684 19 347 128 
L 347 722 
Q 666 556 975 473 
Q 1284 391 1588 391 
Q 1994 391 2212 530 
Q 2431 669 2431 922 
Q 2431 1156 2273 1281 
Q 2116 1406 1581 1522 
L 1381 1569 
Q 847 1681 609 1914 
Q 372 2147 372 2553 
Q 372 3047 722 3315 
Q 1072 3584 1716 3584 
Q 2034 3584 2315 3537 
Q 2597 3491 2834 3397 
z
" transform="scale(0.015625)"/>
      </defs>
      <use xlink:href="#DejaVuSans-6f"/>
      <use xlink:href="#DejaVuSans-62" x="61.181641"/>
      <use xlink:href="#DejaVuSans-73" x="124.658203"/>
      <use xlink:href="#DejaVuSans-65" x="176.757812"/>
      <use xlink:href="#DejaVuSans-72" x="238.28125"/>
      <use xlink:href="#DejaVuSans-76" x="279.394531"/>
      <use xlink:href="#DejaVuSans-61" x="338.574219"/>
      <use xlink:href="#DejaVuSans-62" x="399.853516"/>
      <use xlink:href="#DejaVuSans-6c" x="463.330078"/>
      <use xlink:href="#DejaVuSans-65" x="491.113281"/>
     </g>
    </g>
   </g>
  </g>
  <g id="axes_2">
   <g id="patch_8">
    <path d="M 394.363636 320.4 
L 648 320.4 
L 648 43.2 
L 394.363636 43.2 
z
" style="fill: #ffffff"/>
   </g>
   <g id="matplotlib.axis_3">
    <g id="xtick_8">
     <g id="line2d_18">
      <g>
       <use xlink:href="#m9462ef6665" x="415.079794" y="320.4" style="stroke: #000000; stroke-width: 0.8"/>
      </g>
     </g>
     <g id="text_19">
      <!-- 0 -->
      <g transform="translate(411.898544 334.998438) scale(0.1 -0.1)">
       <use xlink:href="#DejaVuSans-30"/>
      </g>
     </g>
    </g>
    <g id="xtick_9">
     <g id="line2d_19">
      <g>
       <use xlink:href="#m9462ef6665" x="450.096964" y="320.4" style="stroke: #000000; stroke-width: 0.8"/>
      </g>
     </g>
     <g id="text_20">
      <!-- 10000 -->
      <g transform="translate(434.190714 334.998438) scale(0.1 -0.1)">
       <use xlink:href="#DejaVuSans-31"/>
       <use xlink:href="#DejaVuSans-30" x="63.623047"/>
       <use xlink:href="#DejaVuSans-30" x="127.246094"/>
       <use xlink:href="#DejaVuSans-30" x="190.869141"/>
       <use xlink:href="#DejaVuSans-30" x="254.492188"/>
      </g>
     </g>
    </g>
    <g id="xtick_10">
     <g id="line2d_20">
      <g>
       <use xlink:href="#m9462ef6665" x="485.114133" y="320.4" style="stroke: #000000; stroke-width: 0.8"/>
      </g>
     </g>
     <g id="text_21">
      <!-- 20000 -->
      <g transform="translate(469.207883 334.998438) scale(0.1 -0.1)">
       <use xlink:href="#DejaVuSans-32"/>
       <use xlink:href="#DejaVuSans-30" x="63.623047"/>
       <use xlink:href="#DejaVuSans-30" x="127.246094"/>
       <use xlink:href="#DejaVuSans-30" x="190.869141"/>
       <use xlink:href="#DejaVuSans-30" x="254.492188"/>
      </g>
     </g>
    </g>
    <g id="xtick_11">
     <g id="line2d_21">
      <g>
       <use xlink:href="#m9462ef6665" x="520.131303" y="320.4" style="stroke: #000000; stroke-width: 0.8"/>
      </g>
     </g>
     <g id="text_22">
      <!-- 30000 -->
      <g transform="translate(504.225053 334.998438) scale(0.1 -0.1)">
       <use xlink:href="#DejaVuSans-33"/>
       <use xlink:href="#DejaVuSans-30" x="63.623047"/>
       <use xlink:href="#DejaVuSans-30" x="127.246094"/>
       <use xlink:href="#DejaVuSans-30" x="190.869141"/>
       <use xlink:href="#DejaVuSans-30" x="254.492188"/>
      </g>
     </g>
    </g>
    <g id="xtick_12">
     <g id="line2d_22">
      <g>
       <use xlink:href="#m9462ef6665" x="555.148473" y="320.4" style="stroke: #000000; stroke-width: 0.8"/>
      </g>
     </g>
     <g id="text_23">
      <!-- 40000 -->
      <g transform="translate(539.242223 334.998438) scale(0.1 -0.1)">
       <use xlink:href="#DejaVuSans-34"/>
       <use xlink:href="#DejaVuSans-30" x="63.623047"/>
       <use xlink:href="#DejaVuSans-30" x="127.246094"/>
       <use xlink:href="#DejaVuSans-30" x="190.869141"/>
       <use xlink:href="#DejaVuSans-30" x="254.492188"/>
      </g>
     </g>
    </g>
    <g id="xtick_13">
     <g id="line2d_23">
      <g>
       <use xlink:href="#m9462ef6665" x="590.165643" y="320.4" style="stroke: #000000; stroke-width: 0.8"/>
      </g>
     </g>
     <g id="text_24">
      <!-- 50000 -->
      <g transform="translate(574.259393 334.998438) scale(0.1 -0.1)">
       <use xlink:href="#DejaVuSans-35"/>
       <use xlink:href="#DejaVuSans-30" x="63.623047"/>
       <use xlink:href="#DejaVuSans-30" x="127.246094"/>
       <use xlink:href="#DejaVuSans-30" x="190.869141"/>
       <use xlink:href="#DejaVuSans-30" x="254.492188"/>
      </g>
     </g>
    </g>
    <g id="xtick_14">
     <g id="line2d_24">
      <g>
       <use xlink:href="#m9462ef6665" x="625.182812" y="320.4" style="stroke: #000000; stroke-width: 0.8"/>
      </g>
     </g>
     <g id="text_25">
      <!-- 60000 -->
      <g transform="translate(609.276562 334.998438) scale(0.1 -0.1)">
       <use xlink:href="#DejaVuSans-36"/>
       <use xlink:href="#DejaVuSans-30" x="63.623047"/>
       <use xlink:href="#DejaVuSans-30" x="127.246094"/>
       <use xlink:href="#DejaVuSans-30" x="190.869141"/>
       <use xlink:href="#DejaVuSans-30" x="254.492188"/>
      </g>
     </g>
    </g>
    <g id="text_26">
     <!-- time -->
     <g transform="translate(507.626506 350.19625) scale(0.12 -0.12)">
      <use xlink:href="#DejaVuSans-74"/>
      <use xlink:href="#DejaVuSans-69" x="39.208984"/>
      <use xlink:href="#DejaVuSans-6d" x="66.992188"/>
      <use xlink:href="#DejaVuSans-65" x="164.404297"/>
     </g>
    </g>
   </g>
   <g id="matplotlib.axis_4">
    <g id="ytick_7">
     <g id="line2d_25">
      <g>
       <use xlink:href="#me44549d4bc" x="394.363636" y="275.10511" style="stroke: #000000; stroke-width: 0.8"/>
      </g>
     </g>
     <g id="text_27">
      <!-- $\mathdefault{10^{-4}}$ -->
      <g transform="translate(363.863636 278.904329) scale(0.1 -0.1)">
       <defs>
        <path id="DejaVuSans-2212" d="M 678 2272 
L 4684 2272 
L 4684 1741 
L 678 1741 
L 678 2272 
z
" transform="scale(0.015625)"/>
       </defs>
       <use xlink:href="#DejaVuSans-31" transform="translate(0 0.684375)"/>
       <use xlink:href="#DejaVuSans-30" transform="translate(63.623047 0.684375)"/>
       <use xlink:href="#DejaVuSans-2212" transform="translate(128.203125 38.965625) scale(0.7)"/>
       <use xlink:href="#DejaVuSans-34" transform="translate(186.855469 38.965625) scale(0.7)"/>
      </g>
     </g>
    </g>
    <g id="ytick_8">
     <g id="line2d_26">
      <g>
       <use xlink:href="#me44549d4bc" x="394.363636" y="224.473559" style="stroke: #000000; stroke-width: 0.8"/>
      </g>
     </g>
     <g id="text_28">
      <!-- $\mathdefault{10^{-3}}$ -->
      <g transform="translate(363.863636 228.272778) scale(0.1 -0.1)">
       <use xlink:href="#DejaVuSans-31" transform="translate(0 0.765625)"/>
       <use xlink:href="#DejaVuSans-30" transform="translate(63.623047 0.765625)"/>
       <use xlink:href="#DejaVuSans-2212" transform="translate(128.203125 39.046875) scale(0.7)"/>
       <use xlink:href="#DejaVuSans-33" transform="translate(186.855469 39.046875) scale(0.7)"/>
      </g>
     </g>
    </g>
    <g id="ytick_9">
     <g id="line2d_27">
      <g>
       <use xlink:href="#me44549d4bc" x="394.363636" y="173.842008" style="stroke: #000000; stroke-width: 0.8"/>
      </g>
     </g>
     <g id="text_29">
      <!-- $\mathdefault{10^{-2}}$ -->
      <g transform="translate(363.863636 177.641227) scale(0.1 -0.1)">
       <use xlink:href="#DejaVuSans-31" transform="translate(0 0.765625)"/>
       <use xlink:href="#DejaVuSans-30" transform="translate(63.623047 0.765625)"/>
       <use xlink:href="#DejaVuSans-2212" transform="translate(128.203125 39.046875) scale(0.7)"/>
       <use xlink:href="#DejaVuSans-32" transform="translate(186.855469 39.046875) scale(0.7)"/>
      </g>
     </g>
    </g>
    <g id="ytick_10">
     <g id="line2d_28">
      <g>
       <use xlink:href="#me44549d4bc" x="394.363636" y="123.210457" style="stroke: #000000; stroke-width: 0.8"/>
      </g>
     </g>
     <g id="text_30">
      <!-- $\mathdefault{10^{-1}}$ -->
      <g transform="translate(363.863636 127.009676) scale(0.1 -0.1)">
       <use xlink:href="#DejaVuSans-31" transform="translate(0 0.684375)"/>
       <use xlink:href="#DejaVuSans-30" transform="translate(63.623047 0.684375)"/>
       <use xlink:href="#DejaVuSans-2212" transform="translate(128.203125 38.965625) scale(0.7)"/>
       <use xlink:href="#DejaVuSans-31" transform="translate(186.855469 38.965625) scale(0.7)"/>
      </g>
     </g>
    </g>
    <g id="ytick_11">
     <g id="line2d_29">
      <g>
       <use xlink:href="#me44549d4bc" x="394.363636" y="72.578906" style="stroke: #000000; stroke-width: 0.8"/>
      </g>
     </g>
     <g id="text_31">
      <!-- $\mathdefault{10^{0}}$ -->
      <g transform="translate(369.763636 76.378124) scale(0.1 -0.1)">
       <use xlink:href="#DejaVuSans-31" transform="translate(0 0.765625)"/>
       <use xlink:href="#DejaVuSans-30" transform="translate(63.623047 0.765625)"/>
       <use xlink:href="#DejaVuSans-30" transform="translate(128.203125 39.046875) scale(0.7)"/>
      </g>
     </g>
    </g>
    <g id="ytick_12">
     <g id="line2d_30">
      <defs>
       <path id="m6cacd94a4a" d="M 0 0 
L -2 0 
" style="stroke: #000000; stroke-width: 0.6"/>
      </defs>
      <g>
       <use xlink:href="#m6cacd94a4a" x="394.363636" y="310.495046" style="stroke: #000000; stroke-width: 0.6"/>
      </g>
     </g>
    </g>
    <g id="ytick_13">
     <g id="line2d_31">
      <g>
       <use xlink:href="#m6cacd94a4a" x="394.363636" y="301.579272" style="stroke: #000000; stroke-width: 0.6"/>
      </g>
     </g>
    </g>
    <g id="ytick_14">
     <g id="line2d_32">
      <g>
       <use xlink:href="#m6cacd94a4a" x="394.363636" y="295.25343" style="stroke: #000000; stroke-width: 0.6"/>
      </g>
     </g>
    </g>
    <g id="ytick_15">
     <g id="line2d_33">
      <g>
       <use xlink:href="#m6cacd94a4a" x="394.363636" y="290.346726" style="stroke: #000000; stroke-width: 0.6"/>
      </g>
     </g>
    </g>
    <g id="ytick_16">
     <g id="line2d_34">
      <g>
       <use xlink:href="#m6cacd94a4a" x="394.363636" y="286.337656" style="stroke: #000000; stroke-width: 0.6"/>
      </g>
     </g>
    </g>
    <g id="ytick_17">
     <g id="line2d_35">
      <g>
       <use xlink:href="#m6cacd94a4a" x="394.363636" y="282.948037" style="stroke: #000000; stroke-width: 0.6"/>
      </g>
     </g>
    </g>
    <g id="ytick_18">
     <g id="line2d_36">
      <g>
       <use xlink:href="#m6cacd94a4a" x="394.363636" y="280.011814" style="stroke: #000000; stroke-width: 0.6"/>
      </g>
     </g>
    </g>
    <g id="ytick_19">
     <g id="line2d_37">
      <g>
       <use xlink:href="#m6cacd94a4a" x="394.363636" y="277.421883" style="stroke: #000000; stroke-width: 0.6"/>
      </g>
     </g>
    </g>
    <g id="ytick_20">
     <g id="line2d_38">
      <g>
       <use xlink:href="#m6cacd94a4a" x="394.363636" y="259.863494" style="stroke: #000000; stroke-width: 0.6"/>
      </g>
     </g>
    </g>
    <g id="ytick_21">
     <g id="line2d_39">
      <g>
       <use xlink:href="#m6cacd94a4a" x="394.363636" y="250.947721" style="stroke: #000000; stroke-width: 0.6"/>
      </g>
     </g>
    </g>
    <g id="ytick_22">
     <g id="line2d_40">
      <g>
       <use xlink:href="#m6cacd94a4a" x="394.363636" y="244.621879" style="stroke: #000000; stroke-width: 0.6"/>
      </g>
     </g>
    </g>
    <g id="ytick_23">
     <g id="line2d_41">
      <g>
       <use xlink:href="#m6cacd94a4a" x="394.363636" y="239.715175" style="stroke: #000000; stroke-width: 0.6"/>
      </g>
     </g>
    </g>
    <g id="ytick_24">
     <g id="line2d_42">
      <g>
       <use xlink:href="#m6cacd94a4a" x="394.363636" y="235.706105" style="stroke: #000000; stroke-width: 0.6"/>
      </g>
     </g>
    </g>
    <g id="ytick_25">
     <g id="line2d_43">
      <g>
       <use xlink:href="#m6cacd94a4a" x="394.363636" y="232.316485" style="stroke: #000000; stroke-width: 0.6"/>
      </g>
     </g>
    </g>
    <g id="ytick_26">
     <g id="line2d_44">
      <g>
       <use xlink:href="#m6cacd94a4a" x="394.363636" y="229.380263" style="stroke: #000000; stroke-width: 0.6"/>
      </g>
     </g>
    </g>
    <g id="ytick_27">
     <g id="line2d_45">
      <g>
       <use xlink:href="#m6cacd94a4a" x="394.363636" y="226.790332" style="stroke: #000000; stroke-width: 0.6"/>
      </g>
     </g>
    </g>
    <g id="ytick_28">
     <g id="line2d_46">
      <g>
       <use xlink:href="#m6cacd94a4a" x="394.363636" y="209.231943" style="stroke: #000000; stroke-width: 0.6"/>
      </g>
     </g>
    </g>
    <g id="ytick_29">
     <g id="line2d_47">
      <g>
       <use xlink:href="#m6cacd94a4a" x="394.363636" y="200.31617" style="stroke: #000000; stroke-width: 0.6"/>
      </g>
     </g>
    </g>
    <g id="ytick_30">
     <g id="line2d_48">
      <g>
       <use xlink:href="#m6cacd94a4a" x="394.363636" y="193.990328" style="stroke: #000000; stroke-width: 0.6"/>
      </g>
     </g>
    </g>
    <g id="ytick_31">
     <g id="line2d_49">
      <g>
       <use xlink:href="#m6cacd94a4a" x="394.363636" y="189.083623" style="stroke: #000000; stroke-width: 0.6"/>
      </g>
     </g>
    </g>
    <g id="ytick_32">
     <g id="line2d_50">
      <g>
       <use xlink:href="#m6cacd94a4a" x="394.363636" y="185.074554" style="stroke: #000000; stroke-width: 0.6"/>
      </g>
     </g>
    </g>
    <g id="ytick_33">
     <g id="line2d_51">
      <g>
       <use xlink:href="#m6cacd94a4a" x="394.363636" y="181.684934" style="stroke: #000000; stroke-width: 0.6"/>
      </g>
     </g>
    </g>
    <g id="ytick_34">
     <g id="line2d_52">
      <g>
       <use xlink:href="#m6cacd94a4a" x="394.363636" y="178.748712" style="stroke: #000000; stroke-width: 0.6"/>
      </g>
     </g>
    </g>
    <g id="ytick_35">
     <g id="line2d_53">
      <g>
       <use xlink:href="#m6cacd94a4a" x="394.363636" y="176.158781" style="stroke: #000000; stroke-width: 0.6"/>
      </g>
     </g>
    </g>
    <g id="ytick_36">
     <g id="line2d_54">
      <g>
       <use xlink:href="#m6cacd94a4a" x="394.363636" y="158.600392" style="stroke: #000000; stroke-width: 0.6"/>
      </g>
     </g>
    </g>
    <g id="ytick_37">
     <g id="line2d_55">
      <g>
       <use xlink:href="#m6cacd94a4a" x="394.363636" y="149.684619" style="stroke: #000000; stroke-width: 0.6"/>
      </g>
     </g>
    </g>
    <g id="ytick_38">
     <g id="line2d_56">
      <g>
       <use xlink:href="#m6cacd94a4a" x="394.363636" y="143.358777" style="stroke: #000000; stroke-width: 0.6"/>
      </g>
     </g>
    </g>
    <g id="ytick_39">
     <g id="line2d_57">
      <g>
       <use xlink:href="#m6cacd94a4a" x="394.363636" y="138.452072" style="stroke: #000000; stroke-width: 0.6"/>
      </g>
     </g>
    </g>
    <g id="ytick_40">
     <g id="line2d_58">
      <g>
       <use xlink:href="#m6cacd94a4a" x="394.363636" y="134.443003" style="stroke: #000000; stroke-width: 0.6"/>
      </g>
     </g>
    </g>
    <g id="ytick_41">
     <g id="line2d_59">
      <g>
       <use xlink:href="#m6cacd94a4a" x="394.363636" y="131.053383" style="stroke: #000000; stroke-width: 0.6"/>
      </g>
     </g>
    </g>
    <g id="ytick_42">
     <g id="line2d_60">
      <g>
       <use xlink:href="#m6cacd94a4a" x="394.363636" y="128.117161" style="stroke: #000000; stroke-width: 0.6"/>
      </g>
     </g>
    </g>
    <g id="ytick_43">
     <g id="line2d_61">
      <g>
       <use xlink:href="#m6cacd94a4a" x="394.363636" y="125.527229" style="stroke: #000000; stroke-width: 0.6"/>
      </g>
     </g>
    </g>
    <g id="ytick_44">
     <g id="line2d_62">
      <g>
       <use xlink:href="#m6cacd94a4a" x="394.363636" y="107.968841" style="stroke: #000000; stroke-width: 0.6"/>
      </g>
     </g>
    </g>
    <g id="ytick_45">
     <g id="line2d_63">
      <g>
       <use xlink:href="#m6cacd94a4a" x="394.363636" y="99.053068" style="stroke: #000000; stroke-width: 0.6"/>
      </g>
     </g>
    </g>
    <g id="ytick_46">
     <g id="line2d_64">
      <g>
       <use xlink:href="#m6cacd94a4a" x="394.363636" y="92.727226" style="stroke: #000000; stroke-width: 0.6"/>
      </g>
     </g>
    </g>
    <g id="ytick_47">
     <g id="line2d_65">
      <g>
       <use xlink:href="#m6cacd94a4a" x="394.363636" y="87.820521" style="stroke: #000000; stroke-width: 0.6"/>
      </g>
     </g>
    </g>
    <g id="ytick_48">
     <g id="line2d_66">
      <g>
       <use xlink:href="#m6cacd94a4a" x="394.363636" y="83.811452" style="stroke: #000000; stroke-width: 0.6"/>
      </g>
     </g>
    </g>
    <g id="ytick_49">
     <g id="line2d_67">
      <g>
       <use xlink:href="#m6cacd94a4a" x="394.363636" y="80.421832" style="stroke: #000000; stroke-width: 0.6"/>
      </g>
     </g>
    </g>
    <g id="ytick_50">
     <g id="line2d_68">
      <g>
       <use xlink:href="#m6cacd94a4a" x="394.363636" y="77.48561" style="stroke: #000000; stroke-width: 0.6"/>
      </g>
     </g>
    </g>
    <g id="ytick_51">
     <g id="line2d_69">
      <g>
       <use xlink:href="#m6cacd94a4a" x="394.363636" y="74.895678" style="stroke: #000000; stroke-width: 0.6"/>
      </g>
     </g>
    </g>
    <g id="ytick_52">
     <g id="line2d_70">
      <g>
       <use xlink:href="#m6cacd94a4a" x="394.363636" y="57.33729" style="stroke: #000000; stroke-width: 0.6"/>
      </g>
     </g>
    </g>
    <g id="ytick_53">
     <g id="line2d_71">
      <g>
       <use xlink:href="#m6cacd94a4a" x="394.363636" y="48.421516" style="stroke: #000000; stroke-width: 0.6"/>
      </g>
     </g>
    </g>
    <g id="text_32">
     <!-- [Cve_e3174] -->
     <g transform="translate(357.034261 219.876562) rotate(-90) scale(0.12 -0.12)">
      <use xlink:href="#DejaVuSans-5b"/>
      <use xlink:href="#DejaVuSans-43" x="39.013672"/>
      <use xlink:href="#DejaVuSans-76" x="108.837891"/>
      <use xlink:href="#DejaVuSans-65" x="168.017578"/>
      <use xlink:href="#DejaVuSans-5f" x="229.541016"/>
      <use xlink:href="#DejaVuSans-65" x="279.541016"/>
      <use xlink:href="#DejaVuSans-33" x="341.064453"/>
      <use xlink:href="#DejaVuSans-31" x="404.6875"/>
      <use xlink:href="#DejaVuSans-37" x="468.310547"/>
      <use xlink:href="#DejaVuSans-34" x="531.933594"/>
      <use xlink:href="#DejaVuSans-5d" x="595.556641"/>
     </g>
    </g>
   </g>
   <g id="line2d_72">
    <g clip-path="url(#p90f17ba2f7)">
     <use xlink:href="#mb599db1041" x="415.5" y="222.890528" style="stroke: #000000; stroke-linejoin: miter"/>
     <use xlink:href="#mb599db1041" x="415.920206" y="225.913307" style="stroke: #000000; stroke-linejoin: miter"/>
     <use xlink:href="#mb599db1041" x="416.340412" y="232.147789" style="stroke: #000000; stroke-linejoin: miter"/>
     <use xlink:href="#mb599db1041" x="416.760618" y="243.105363" style="stroke: #000000; stroke-linejoin: miter"/>
     <use xlink:href="#mb599db1041" x="417.60103" y="261.619886" style="stroke: #000000; stroke-linejoin: miter"/>
     <use xlink:href="#mb599db1041" x="420.122266" y="293.925838" style="stroke: #000000; stroke-linejoin: miter"/>
     <use xlink:href="#mb599db1041" x="621.821164" y="286.655117" style="stroke: #000000; stroke-linejoin: miter"/>
     <use xlink:href="#mb599db1041" x="622.24137" y="222.611489" style="stroke: #000000; stroke-linejoin: miter"/>
     <use xlink:href="#mb599db1041" x="622.661576" y="225.732391" style="stroke: #000000; stroke-linejoin: miter"/>
     <use xlink:href="#mb599db1041" x="623.081782" y="232.779062" style="stroke: #000000; stroke-linejoin: miter"/>
     <use xlink:href="#mb599db1041" x="623.501988" y="241.479658" style="stroke: #000000; stroke-linejoin: miter"/>
     <use xlink:href="#mb599db1041" x="624.3424" y="259.293398" style="stroke: #000000; stroke-linejoin: miter"/>
     <use xlink:href="#mb599db1041" x="626.863636" y="291.450043" style="stroke: #000000; stroke-linejoin: miter"/>
    </g>
   </g>
   <g id="line2d_73">
    <path d="M 415.121181 361 
L 415.280497 254.008055 
L 415.492346 230.84218 
L 415.679849 227.36377 
L 415.708696 227.371172 
L 415.723119 227.40931 
L 415.838506 228.343579 
L 416.126973 233.175446 
L 417.537614 258.662855 
L 418.367703 269.060735 
L 419.320328 278.050114 
L 420.141465 285.317486 
L 420.172267 284.170367 
L 420.257485 264.450343 
L 420.485933 231.743759 
L 420.683192 226.327385 
L 420.730542 226.183933 
L 420.789728 226.356622 
L 420.943612 227.980803 
L 421.393429 236.097593 
L 422.38776 253.106837 
L 423.199721 263.287961 
L 424.081939 271.708266 
L 425.185737 280.697829 
L 425.205657 280.337731 
L 425.254361 273.742697 
L 425.560397 229.755194 
L 425.752278 225.941446 
L 425.781055 225.919056 
L 425.809831 225.985519 
L 425.924936 226.912617 
L 426.227086 231.783712 
L 427.507156 253.593866 
L 428.340603 263.576154 
L 429.270432 272.074785 
L 430.227519 280.32061 
L 430.257943 279.385878 
L 430.33452 264.411579 
L 430.581783 230.739466 
L 430.779981 225.96595 
L 430.818896 225.890394 
L 430.870783 226.043256 
L 431.013472 227.468126 
L 431.415596 234.508664 
L 432.453334 252.175234 
L 433.278203 262.394286 
L 434.183188 270.911262 
L 435.270975 280.297407 
L 435.300891 279.326358 
L 435.38025 263.596148 
L 435.625887 230.652544 
L 435.823205 225.960965 
L 435.862552 225.889168 
L 435.903383 225.993169 
L 436.039486 227.247904 
L 436.406965 233.534899 
L 437.503735 252.284376 
L 438.318486 262.365396 
L 439.193687 270.635829 
L 440.313627 280.25722 
L 440.341273 279.445 
L 440.412225 266.178168 
L 440.664598 230.845958 
L 440.860869 225.980585 
L 440.898619 225.885843 
L 440.948952 226.00493 
L 441.087369 227.315935 
L 441.464871 233.824774 
L 442.547041 252.29095 
L 443.359081 262.338646 
L 444.221258 270.502246 
L 445.356147 279.662547 
L 445.376552 279.282288 
L 445.432169 271.2622 
L 445.715555 230.358958 
L 445.915209 225.893209 
L 445.941251 225.848015 
L 445.996329 225.991845 
L 446.134025 227.333188 
L 446.527558 234.162401 
L 447.583272 252.123355 
L 448.396252 262.183925 
L 449.276324 270.498385 
L 450.39779 279.475836 
L 450.418037 279.141808 
L 450.471895 271.751906 
L 450.763986 230.053884 
L 450.965026 225.859662 
L 450.989492 225.836354 
L 451.026191 225.921282 
L 451.14852 226.964606 
L 451.480239 232.450138 
L 452.661041 252.597317 
L 453.486094 262.653621 
L 454.380633 270.979238 
L 455.441314 279.648295 
L 455.464312 279.13113 
L 455.520807 270.403272 
L 455.798198 230.472557 
L 455.991077 225.927576 
L 456.02492 225.846996 
L 456.081324 225.990712 
L 456.216696 227.301502 
L 456.600247 233.927609 
L 457.671935 252.172297 
L 458.490283 262.275715 
L 459.397035 270.793043 
L 460.482694 279.592187 
L 460.50559 279.138064 
L 460.560852 270.927098 
L 460.841369 230.432604 
L 461.038212 225.904309 
L 461.075024 225.844108 
L 461.124108 225.988869 
L 461.271359 227.462096 
L 461.68857 234.794278 
L 462.707057 252.060333 
L 463.537271 262.315138 
L 464.440512 270.79162 
L 465.52606 280.004606 
L 465.55391 279.184507 
L 465.625525 265.818506 
L 465.878597 230.73741 
L 466.079428 225.936026 
L 466.114355 225.869374 
L 466.15578 225.963809 
L 466.280054 227.048715 
L 466.621659 232.753034 
L 467.783107 252.592527 
L 468.602506 262.62534 
L 469.538031 271.327452 
L 470.568706 279.540308 
L 470.589291 279.14636 
L 470.645414 270.981018 
L 470.931336 230.180963 
L 471.126485 225.888806 
L 471.153195 225.840084 
L 471.206614 225.973351 
L 471.340162 227.242966 
L 471.714096 233.662437 
L 472.789295 252.015741 
L 473.606634 262.141442 
L 474.48452 270.439179 
L 475.611332 279.386458 
L 475.626728 279.183248 
L 475.670655 274.475336 
L 476.019314 228.328292 
L 476.194683 225.830147 
L 476.207167 225.834339 
L 476.282076 226.171298 
L 476.469349 228.496585 
L 477.255892 242.862259 
L 478.104859 255.710403 
L 478.925304 264.945289 
L 479.922562 273.62428 
L 480.65371 279.265933 
L 480.676846 278.752095 
L 480.736558 269.374161 
L 481.008892 230.523598 
L 481.213879 225.862329 
L 481.240876 225.821663 
L 481.281371 225.908982 
L 481.402858 226.944707 
L 481.726822 232.279338 
L 482.931492 252.78718 
L 483.757605 262.792212 
L 484.662456 271.162304 
L 485.69593 279.614662 
L 485.721366 278.971753 
L 485.78402 268.395922 
L 486.049924 230.628313 
L 486.251726 225.901113 
L 486.286822 225.845038 
L 486.328345 225.950639 
L 486.452914 227.060213 
L 486.798939 232.862381 
L 487.947741 252.465055 
L 488.772585 262.561118 
L 489.697048 271.162498 
L 490.738719 279.339582 
L 490.756914 279.043835 
L 490.806094 272.854012 
L 491.121427 229.26249 
L 491.313832 225.833983 
L 491.341021 225.840023 
L 491.368209 225.921806 
L 491.490559 226.983157 
L 491.816824 232.379842 
L 493.008986 252.69346 
L 493.821273 262.581912 
L 494.739511 271.111925 
L 495.781178 279.567967 
L 495.804327 279.04077 
L 495.864099 269.529664 
L 496.136338 230.548744 
L 496.339955 225.886466 
L 496.374752 225.843888 
L 496.40955 225.931514 
L 496.537141 227.048365 
L 496.873518 232.663815 
L 498.045038 252.633384 
L 498.876145 262.749925 
L 499.798396 271.290005 
L 500.822546 279.31931 
L 500.842865 278.984676 
L 500.892918 272.444699 
L 501.201085 229.482755 
L 501.392384 225.843463 
L 501.416964 225.827769 
L 501.453834 225.923414 
L 501.576733 226.996873 
L 501.908563 232.505629 
L 503.088399 252.612828 
L 503.906111 262.577186 
L 504.833974 271.186765 
L 505.865954 279.588906 
L 505.889029 279.073934 
L 505.948593 269.648952 
L 506.221875 230.520365 
L 506.424767 225.888256 
L 506.460052 225.845493 
L 506.502138 225.967258 
L 506.642422 227.310783 
L 507.035218 234.11721 
L 508.087349 252.030952 
L 508.908393 262.194554 
L 509.77651 270.400314 
L 510.908449 279.788549 
L 510.931524 279.266004 
L 510.991077 269.768547 
L 511.264384 230.536083 
L 511.467307 225.901142 
L 511.502598 225.858494 
L 511.544714 225.98061 
L 511.685101 227.326655 
L 512.078184 234.142713 
L 513.131085 252.076256 
L 513.952765 262.249015 
L 514.868067 270.851918 
L 515.950995 279.550507 
L 515.971645 279.151616 
L 516.027962 270.919901 
L 516.307983 230.45832 
L 516.51145 225.880389 
L 516.547477 225.845619 
L 516.588247 225.970793 
L 516.724146 227.266149 
L 517.104325 233.81421 
L 518.179263 252.126733 
L 518.991382 262.169032 
L 519.904998 270.761727 
L 520.993354 279.599015 
L 521.016427 279.084869 
L 521.075994 269.659067 
L 521.349455 230.513103 
L 521.552529 225.887901 
L 521.587846 225.846591 
L 521.629915 225.969799 
L 521.770147 227.315708 
L 522.162797 234.121377 
L 523.214536 252.029661 
L 524.035239 262.191018 
L 524.902206 270.38869 
L 526.03587 279.790568 
L 526.058956 279.267172 
L 526.118544 269.758062 
L 526.392152 230.518398 
L 526.595328 225.899284 
L 526.631046 225.859518 
L 526.671374 225.977103 
L 526.805799 227.238519 
L 527.183841 233.729788 
L 528.258481 252.07626 
L 529.071934 262.161076 
L 529.988406 270.793051 
L 531.077189 279.988501 
L 531.105353 279.217979 
L 531.172665 267.044658 
L 531.42794 230.884221 
L 531.622333 225.978711 
L 531.665565 225.868386 
L 531.720734 226.024638 
L 531.867852 227.513671 
L 532.28738 234.906136 
L 533.301648 252.112825 
L 534.116041 262.2119 
L 535.023508 270.768881 
L 536.119813 279.433449 
L 536.137436 279.197017 
L 536.186054 273.39402 
L 536.506064 229.173322 
L 536.701985 225.834644 
L 536.751196 225.931269 
L 536.874223 227.006862 
L 537.206395 232.524679 
L 538.387452 252.654157 
L 539.206135 262.62676 
L 540.139734 271.280357 
L 541.163319 279.709375 
L 541.188921 279.04081 
L 541.251992 268.263366 
L 541.511374 230.940584 
L 541.714913 225.923559 
L 541.746181 225.851202 
L 541.800454 225.979928 
L 541.936136 227.271307 
L 542.314806 233.790569 
L 543.391399 252.143694 
L 544.210963 262.271313 
L 545.11313 270.754587 
L 546.205874 279.554721 
L 546.226555 279.152245 
L 546.282989 270.87876 
L 546.566222 230.289223 
L 546.765067 225.884523 
L 546.799908 225.843588 
L 546.834749 225.932882 
L 546.9625 227.055656 
L 547.299298 232.68308 
L 548.460671 252.504385 
L 549.287116 262.604165 
L 550.17284 270.870997 
L 551.247268 279.426367 
L 551.267594 279.089024 
L 551.317692 272.509894 
L 551.625886 229.488386 
L 551.817231 225.850203 
L 551.841821 225.834801 
L 551.878707 225.930939 
L 552.001657 227.006282 
L 552.333624 232.520101 
L 553.513951 252.638997 
L 554.332023 262.607729 
L 555.261769 271.23249 
L 556.29067 279.65365 
L 556.316242 278.993267 
L 556.37925 268.270084 
L 556.638446 230.954296 
L 556.841903 225.921763 
L 556.877287 225.846772 
L 556.928313 225.978554 
L 557.068913 227.338561 
L 557.467751 234.27079 
L 558.518062 252.125454 
L 559.331831 262.191965 
L 560.229064 270.647599 
L 561.332093 279.553667 
L 561.352342 279.221458 
L 561.402273 272.677763 
L 561.706048 229.708182 
L 561.898747 225.866358 
L 561.923096 225.841041 
L 561.959619 225.922351 
L 562.081365 226.950905 
L 562.410077 232.370591 
L 563.603181 252.716777 
L 564.418951 262.650406 
L 565.28884 270.775027 
L 566.374685 279.460061 
L 566.395011 279.121954 
L 566.445115 272.532622 
L 566.753301 229.491276 
L 566.944687 225.852317 
L 566.969283 225.837007 
L 567.006177 225.933325 
L 567.129157 227.009472 
L 567.461203 232.525676 
L 568.641811 252.649766 
L 569.46011 262.620443 
L 570.391238 271.255833 
L 571.418074 279.690701 
L 571.443638 279.030162 
L 571.506631 268.300007 
L 571.765819 230.960021 
L 571.969297 225.9243 
L 572.004685 225.849172 
L 572.05568 225.980684 
L 572.196177 227.338944 
L 572.594793 234.266656 
L 573.638391 252.029121 
L 574.466791 262.278872 
L 575.37173 270.782721 
L 576.460699 279.597218 
L 576.481381 279.194007 
L 576.537824 270.906191 
L 576.820937 230.298769 
L 577.019692 225.887973 
L 577.054518 225.84613 
L 577.089344 225.934575 
L 577.217039 227.054716 
L 577.55369 232.677965 
L 578.714557 252.496646 
L 579.540523 262.596133 
L 580.426947 270.872827 
L 581.502986 279.790613 
L 581.528522 279.129882 
L 581.591447 268.388519 
L 581.850388 230.989377 
L 582.053715 225.933192 
L 582.089077 225.855683 
L 582.139934 225.9837 
L 582.27999 227.330455 
L 582.667436 234.041059 
L 583.729222 252.126958 
L 584.548299 262.259244 
L 585.441478 270.674429 
L 586.545747 279.504845 
L 586.564648 279.176096 
L 586.615354 272.489671 
L 586.918357 229.706525 
L 587.111118 225.863248 
L 587.139456 225.840263 
L 587.167794 225.903436 
L 587.281147 226.800198 
L 587.57871 231.553211 
L 588.88392 253.659355 
L 589.70545 263.415274 
L 590.621777 271.764405 
L 591.587013 279.487286 
L 591.609999 279.030038 
L 591.66558 270.757295 
L 591.949692 230.223775 
L 592.144719 225.888994 
L 592.181642 225.838736 
L 592.218565 225.935157 
L 592.341642 227.012722 
L 592.673951 232.534931 
L 593.855491 252.671865 
L 594.674605 262.647333 
L 595.611129 271.323047 
L 596.630501 279.779063 
L 596.656103 279.108606 
L 596.719191 268.302699 
L 596.978813 230.933749 
L 597.182605 225.926003 
L 597.213948 225.855465 
L 597.268437 225.988266 
L 597.404658 227.293253 
L 597.784919 233.851414 
L 598.854226 252.090614 
L 599.684547 262.351191 
L 600.61464 271.05473 
L 601.673156 279.470232 
L 601.693891 279.063742 
L 601.750482 270.756249 
L 602.032322 230.336063 
L 602.223935 225.910925 
L 602.262798 225.835704 
L 602.309337 225.961055 
L 602.439644 227.176031 
L 602.803091 233.367172 
L 603.902461 252.13263 
L 604.716702 262.190796 
L 605.634425 270.80849 
L 606.715397 279.622225 
L 606.738498 279.105152 
L 606.798169 269.639304 
L 607.072438 230.466901 
L 607.27619 225.884142 
L 607.312199 225.850271 
L 607.352924 225.976026 
L 607.488675 227.270889 
L 607.867314 233.790717 
L 608.948316 252.200272 
L 609.766701 262.295315 
L 610.68149 270.874176 
L 611.757961 279.737325 
L 611.781104 279.209412 
L 611.840892 269.650493 
L 612.112527 230.598442 
L 612.31512 225.903497 
L 612.349753 225.85368 
L 612.395931 225.986089 
L 612.534463 227.322228 
L 612.918561 233.966448 
L 613.980724 252.072302 
L 614.803953 262.259241 
L 615.685636 270.574649 
L 616.799418 279.388551 
L 616.817077 279.15012 
L 616.865813 273.32009 
L 617.186095 229.150534 
L 617.381824 225.831405 
L 617.431005 225.929309 
L 617.553959 227.00593 
L 617.885935 232.520611 
L 619.066294 252.637224 
L 619.884467 262.605268 
L 620.815402 271.238491 
L 621.842813 279.671116 
L 621.868397 279.009166 
L 621.931456 268.26436 
L 622.190992 230.933963 
L 622.394756 225.919822 
L 622.426052 225.84858 
L 622.480363 225.979193 
L 622.616141 227.274644 
L 622.99601 233.818719 
L 624.071962 252.15278 
L 624.885195 262.207817 
L 625.800328 270.811209 
L 627.073739 280.494242 
L 627.073739 280.494242 
" clip-path="url(#p90f17ba2f7)" style="fill: none; stroke: #0000ff; stroke-width: 1.5; stroke-linecap: square"/>
   </g>
   <g id="patch_9">
    <path d="M 394.363636 320.4 
L 394.363636 43.2 
" style="fill: none; stroke: #000000; stroke-width: 0.8; stroke-linejoin: miter; stroke-linecap: square"/>
   </g>
   <g id="patch_10">
    <path d="M 648 320.4 
L 648 43.2 
" style="fill: none; stroke: #000000; stroke-width: 0.8; stroke-linejoin: miter; stroke-linecap: square"/>
   </g>
   <g id="patch_11">
    <path d="M 394.363636 320.4 
L 648 320.4 
" style="fill: none; stroke: #000000; stroke-width: 0.8; stroke-linejoin: miter; stroke-linecap: square"/>
   </g>
   <g id="patch_12">
    <path d="M 394.363636 43.2 
L 648 43.2 
" style="fill: none; stroke: #000000; stroke-width: 0.8; stroke-linejoin: miter; stroke-linecap: square"/>
   </g>
   <g id="text_33">
    <!-- Goldberg1995a fm_po_LOS100_exp3174 -->
    <g transform="translate(378.748224 37.2) scale(0.14 -0.14)">
     <use xlink:href="#DejaVuSans-47"/>
     <use xlink:href="#DejaVuSans-6f" x="77.490234"/>
     <use xlink:href="#DejaVuSans-6c" x="138.671875"/>
     <use xlink:href="#DejaVuSans-64" x="166.455078"/>
     <use xlink:href="#DejaVuSans-62" x="229.931641"/>
     <use xlink:href="#DejaVuSans-65" x="293.408203"/>
     <use xlink:href="#DejaVuSans-72" x="354.931641"/>
     <use xlink:href="#DejaVuSans-67" x="394.294922"/>
     <use xlink:href="#DejaVuSans-31" x="457.771484"/>
     <use xlink:href="#DejaVuSans-39" x="521.394531"/>
     <use xlink:href="#DejaVuSans-39" x="585.017578"/>
     <use xlink:href="#DejaVuSans-35" x="648.640625"/>
     <use xlink:href="#DejaVuSans-61" x="712.263672"/>
     <use xlink:href="#DejaVuSans-20" x="773.542969"/>
     <use xlink:href="#DejaVuSans-66" x="805.330078"/>
     <use xlink:href="#DejaVuSans-6d" x="840.535156"/>
     <use xlink:href="#DejaVuSans-5f" x="937.947266"/>
     <use xlink:href="#DejaVuSans-70" x="987.947266"/>
     <use xlink:href="#DejaVuSans-6f" x="1051.423828"/>
     <use xlink:href="#DejaVuSans-5f" x="1112.605469"/>
     <use xlink:href="#DejaVuSans-4c" x="1162.605469"/>
     <use xlink:href="#DejaVuSans-4f" x="1214.693359"/>
     <use xlink:href="#DejaVuSans-53" x="1293.404297"/>
     <use xlink:href="#DejaVuSans-31" x="1356.880859"/>
     <use xlink:href="#DejaVuSans-30" x="1420.503906"/>
     <use xlink:href="#DejaVuSans-30" x="1484.126953"/>
     <use xlink:href="#DejaVuSans-5f" x="1547.75"/>
     <use xlink:href="#DejaVuSans-65" x="1597.75"/>
     <use xlink:href="#DejaVuSans-78" x="1657.523438"/>
     <use xlink:href="#DejaVuSans-70" x="1716.703125"/>
     <use xlink:href="#DejaVuSans-33" x="1780.179688"/>
     <use xlink:href="#DejaVuSans-31" x="1843.802734"/>
     <use xlink:href="#DejaVuSans-37" x="1907.425781"/>
     <use xlink:href="#DejaVuSans-34" x="1971.048828"/>
    </g>
   </g>
   <g id="legend_2">
    <g id="patch_13">
     <path d="M 533.734375 80.834375 
L 641 80.834375 
Q 643 80.834375 643 78.834375 
L 643 50.2 
Q 643 48.2 641 48.2 
L 533.734375 48.2 
Q 531.734375 48.2 531.734375 50.2 
L 531.734375 78.834375 
Q 531.734375 80.834375 533.734375 80.834375 
z
" style="fill: #ffffff; opacity: 0.8; stroke: #cccccc; stroke-linejoin: miter"/>
    </g>
    <g id="line2d_74">
     <g>
      <use xlink:href="#mb599db1041" x="545.734375" y="56.298437" style="stroke: #000000; stroke-linejoin: miter"/>
     </g>
    </g>
    <g id="text_34">
     <!-- reference_data -->
     <g transform="translate(563.734375 59.798437) scale(0.1 -0.1)">
      <use xlink:href="#DejaVuSans-72"/>
      <use xlink:href="#DejaVuSans-65" x="38.863281"/>
      <use xlink:href="#DejaVuSans-66" x="100.386719"/>
      <use xlink:href="#DejaVuSans-65" x="135.591797"/>
      <use xlink:href="#DejaVuSans-72" x="197.115234"/>
      <use xlink:href="#DejaVuSans-65" x="235.978516"/>
      <use xlink:href="#DejaVuSans-6e" x="297.501953"/>
      <use xlink:href="#DejaVuSans-63" x="360.880859"/>
      <use xlink:href="#DejaVuSans-65" x="415.861328"/>
      <use xlink:href="#DejaVuSans-5f" x="477.384766"/>
      <use xlink:href="#DejaVuSans-64" x="527.384766"/>
      <use xlink:href="#DejaVuSans-61" x="590.861328"/>
      <use xlink:href="#DejaVuSans-74" x="652.140625"/>
      <use xlink:href="#DejaVuSans-61" x="691.349609"/>
     </g>
    </g>
    <g id="line2d_75">
     <path d="M 535.734375 71.254687 
L 545.734375 71.254687 
L 555.734375 71.254687 
" style="fill: none; stroke: #0000ff; stroke-width: 1.5; stroke-linecap: square"/>
    </g>
    <g id="text_35">
     <!-- observable -->
     <g transform="translate(563.734375 74.754687) scale(0.1 -0.1)">
      <use xlink:href="#DejaVuSans-6f"/>
      <use xlink:href="#DejaVuSans-62" x="61.181641"/>
      <use xlink:href="#DejaVuSans-73" x="124.658203"/>
      <use xlink:href="#DejaVuSans-65" x="176.757812"/>
      <use xlink:href="#DejaVuSans-72" x="238.28125"/>
      <use xlink:href="#DejaVuSans-76" x="279.394531"/>
      <use xlink:href="#DejaVuSans-61" x="338.574219"/>
      <use xlink:href="#DejaVuSans-62" x="399.853516"/>
      <use xlink:href="#DejaVuSans-6c" x="463.330078"/>
      <use xlink:href="#DejaVuSans-65" x="491.113281"/>
     </g>
    </g>
   </g>
  </g>
 </g>
 <defs>
  <clipPath id="p0af47935a6">
   <rect x="90" y="43.2" width="253.636364" height="277.2"/>
  </clipPath>
  <clipPath id="p90f17ba2f7">
   <rect x="394.363636" y="43.2" width="253.636364" height="277.2"/>
  </clipPath>
 </defs>
</svg>
