<?xml version="1.0" encoding="utf-8" standalone="no"?>
<!DOCTYPE svg PUBLIC "-//W3C//DTD SVG 1.1//EN"
  "http://www.w3.org/Graphics/SVG/1.1/DTD/svg11.dtd">
<svg xmlns:xlink="http://www.w3.org/1999/xlink" width="720pt" height="360pt" viewBox="0 0 720 360" xmlns="http://www.w3.org/2000/svg" version="1.1">
 <metadata>
  <rdf:RDF xmlns:dc="http://purl.org/dc/elements/1.1/" xmlns:cc="http://creativecommons.org/ns#" xmlns:rdf="http://www.w3.org/1999/02/22-rdf-syntax-ns#">
   <cc:Work>
    <dc:type rdf:resource="http://purl.org/dc/dcmitype/StillImage"/>
    <dc:date>2025-07-08T18:39:33.302480</dc:date>
    <dc:format>image/svg+xml</dc:format>
    <dc:creator>
     <cc:Agent>
      <dc:title>Matplotlib v3.9.1, https://matplotlib.org/</dc:title>
     </cc:Agent>
    </dc:creator>
   </cc:Work>
  </rdf:RDF>
 </metadata>
 <defs>
  <style type="text/css">*{stroke-linejoin: round; stroke-linecap: butt}</style>
 </defs>
 <g id="figure_1">
  <g id="patch_1">
   <path d="M 0 360 
L 720 360 
L 720 0 
L 0 0 
z
" style="fill: #ffffff"/>
  </g>
  <g id="axes_1">
   <g id="patch_2">
    <path d="M 90 320.4 
L 343.636364 320.4 
L 343.636364 43.2 
L 90 43.2 
z
" style="fill: #ffffff"/>
   </g>
   <g id="matplotlib.axis_1">
    <g id="xtick_1">
     <g id="line2d_1">
      <defs>
       <path id="m7a03ddc480" d="M 0 0 
L 0 3.5 
" style="stroke: #000000; stroke-width: 0.8"/>
      </defs>
      <g>
       <use xlink:href="#m7a03ddc480" x="110.711085" y="320.4" style="stroke: #000000; stroke-width: 0.8"/>
      </g>
     </g>
     <g id="text_1">
      <!-- 0 -->
      <g transform="translate(107.529835 334.998438) scale(0.1 -0.1)">
       <defs>
        <path id="DejaVuSans-30" d="M 2034 4250 
Q 1547 4250 1301 3770 
Q 1056 3291 1056 2328 
Q 1056 1369 1301 889 
Q 1547 409 2034 409 
Q 2525 409 2770 889 
Q 3016 1369 3016 2328 
Q 3016 3291 2770 3770 
Q 2525 4250 2034 4250 
z
M 2034 4750 
Q 2819 4750 3233 4129 
Q 3647 3509 3647 2328 
Q 3647 1150 3233 529 
Q 2819 -91 2034 -91 
Q 1250 -91 836 529 
Q 422 1150 422 2328 
Q 422 3509 836 4129 
Q 1250 4750 2034 4750 
z
" transform="scale(0.015625)"/>
       </defs>
       <use xlink:href="#DejaVuSans-30"/>
      </g>
     </g>
    </g>
    <g id="xtick_2">
     <g id="line2d_2">
      <g>
       <use xlink:href="#m7a03ddc480" x="146.150997" y="320.4" style="stroke: #000000; stroke-width: 0.8"/>
      </g>
     </g>
     <g id="text_2">
      <!-- 10000 -->
      <g transform="translate(130.244747 334.998438) scale(0.1 -0.1)">
       <defs>
        <path id="DejaVuSans-31" d="M 794 531 
L 1825 531 
L 1825 4091 
L 703 3866 
L 703 4441 
L 1819 4666 
L 2450 4666 
L 2450 531 
L 3481 531 
L 3481 0 
L 794 0 
L 794 531 
z
" transform="scale(0.015625)"/>
       </defs>
       <use xlink:href="#DejaVuSans-31"/>
       <use xlink:href="#DejaVuSans-30" x="63.623047"/>
       <use xlink:href="#DejaVuSans-30" x="127.246094"/>
       <use xlink:href="#DejaVuSans-30" x="190.869141"/>
       <use xlink:href="#DejaVuSans-30" x="254.492188"/>
      </g>
     </g>
    </g>
    <g id="xtick_3">
     <g id="line2d_3">
      <g>
       <use xlink:href="#m7a03ddc480" x="181.590909" y="320.4" style="stroke: #000000; stroke-width: 0.8"/>
      </g>
     </g>
     <g id="text_3">
      <!-- 20000 -->
      <g transform="translate(165.684659 334.998438) scale(0.1 -0.1)">
       <defs>
        <path id="DejaVuSans-32" d="M 1228 531 
L 3431 531 
L 3431 0 
L 469 0 
L 469 531 
Q 828 903 1448 1529 
Q 2069 2156 2228 2338 
Q 2531 2678 2651 2914 
Q 2772 3150 2772 3378 
Q 2772 3750 2511 3984 
Q 2250 4219 1831 4219 
Q 1534 4219 1204 4116 
Q 875 4013 500 3803 
L 500 4441 
Q 881 4594 1212 4672 
Q 1544 4750 1819 4750 
Q 2544 4750 2975 4387 
Q 3406 4025 3406 3419 
Q 3406 3131 3298 2873 
Q 3191 2616 2906 2266 
Q 2828 2175 2409 1742 
Q 1991 1309 1228 531 
z
" transform="scale(0.015625)"/>
       </defs>
       <use xlink:href="#DejaVuSans-32"/>
       <use xlink:href="#DejaVuSans-30" x="63.623047"/>
       <use xlink:href="#DejaVuSans-30" x="127.246094"/>
       <use xlink:href="#DejaVuSans-30" x="190.869141"/>
       <use xlink:href="#DejaVuSans-30" x="254.492188"/>
      </g>
     </g>
    </g>
    <g id="xtick_4">
     <g id="line2d_4">
      <g>
       <use xlink:href="#m7a03ddc480" x="217.030821" y="320.4" style="stroke: #000000; stroke-width: 0.8"/>
      </g>
     </g>
     <g id="text_4">
      <!-- 30000 -->
      <g transform="translate(201.124571 334.998438) scale(0.1 -0.1)">
       <defs>
        <path id="DejaVuSans-33" d="M 2597 2516 
Q 3050 2419 3304 2112 
Q 3559 1806 3559 1356 
Q 3559 666 3084 287 
Q 2609 -91 1734 -91 
Q 1441 -91 1130 -33 
Q 819 25 488 141 
L 488 750 
Q 750 597 1062 519 
Q 1375 441 1716 441 
Q 2309 441 2620 675 
Q 2931 909 2931 1356 
Q 2931 1769 2642 2001 
Q 2353 2234 1838 2234 
L 1294 2234 
L 1294 2753 
L 1863 2753 
Q 2328 2753 2575 2939 
Q 2822 3125 2822 3475 
Q 2822 3834 2567 4026 
Q 2313 4219 1838 4219 
Q 1578 4219 1281 4162 
Q 984 4106 628 3988 
L 628 4550 
Q 988 4650 1302 4700 
Q 1616 4750 1894 4750 
Q 2613 4750 3031 4423 
Q 3450 4097 3450 3541 
Q 3450 3153 3228 2886 
Q 3006 2619 2597 2516 
z
" transform="scale(0.015625)"/>
       </defs>
       <use xlink:href="#DejaVuSans-33"/>
       <use xlink:href="#DejaVuSans-30" x="63.623047"/>
       <use xlink:href="#DejaVuSans-30" x="127.246094"/>
       <use xlink:href="#DejaVuSans-30" x="190.869141"/>
       <use xlink:href="#DejaVuSans-30" x="254.492188"/>
      </g>
     </g>
    </g>
    <g id="xtick_5">
     <g id="line2d_5">
      <g>
       <use xlink:href="#m7a03ddc480" x="252.470733" y="320.4" style="stroke: #000000; stroke-width: 0.8"/>
      </g>
     </g>
     <g id="text_5">
      <!-- 40000 -->
      <g transform="translate(236.564483 334.998438) scale(0.1 -0.1)">
       <defs>
        <path id="DejaVuSans-34" d="M 2419 4116 
L 825 1625 
L 2419 1625 
L 2419 4116 
z
M 2253 4666 
L 3047 4666 
L 3047 1625 
L 3713 1625 
L 3713 1100 
L 3047 1100 
L 3047 0 
L 2419 0 
L 2419 1100 
L 313 1100 
L 313 1709 
L 2253 4666 
z
" transform="scale(0.015625)"/>
       </defs>
       <use xlink:href="#DejaVuSans-34"/>
       <use xlink:href="#DejaVuSans-30" x="63.623047"/>
       <use xlink:href="#DejaVuSans-30" x="127.246094"/>
       <use xlink:href="#DejaVuSans-30" x="190.869141"/>
       <use xlink:href="#DejaVuSans-30" x="254.492188"/>
      </g>
     </g>
    </g>
    <g id="xtick_6">
     <g id="line2d_6">
      <g>
       <use xlink:href="#m7a03ddc480" x="287.910646" y="320.4" style="stroke: #000000; stroke-width: 0.8"/>
      </g>
     </g>
     <g id="text_6">
      <!-- 50000 -->
      <g transform="translate(272.004396 334.998438) scale(0.1 -0.1)">
       <defs>
        <path id="DejaVuSans-35" d="M 691 4666 
L 3169 4666 
L 3169 4134 
L 1269 4134 
L 1269 2991 
Q 1406 3038 1543 3061 
Q 1681 3084 1819 3084 
Q 2600 3084 3056 2656 
Q 3513 2228 3513 1497 
Q 3513 744 3044 326 
Q 2575 -91 1722 -91 
Q 1428 -91 1123 -41 
Q 819 9 494 109 
L 494 744 
Q 775 591 1075 516 
Q 1375 441 1709 441 
Q 2250 441 2565 725 
Q 2881 1009 2881 1497 
Q 2881 1984 2565 2268 
Q 2250 2553 1709 2553 
Q 1456 2553 1204 2497 
Q 953 2441 691 2322 
L 691 4666 
z
" transform="scale(0.015625)"/>
       </defs>
       <use xlink:href="#DejaVuSans-35"/>
       <use xlink:href="#DejaVuSans-30" x="63.623047"/>
       <use xlink:href="#DejaVuSans-30" x="127.246094"/>
       <use xlink:href="#DejaVuSans-30" x="190.869141"/>
       <use xlink:href="#DejaVuSans-30" x="254.492188"/>
      </g>
     </g>
    </g>
    <g id="xtick_7">
     <g id="line2d_7">
      <g>
       <use xlink:href="#m7a03ddc480" x="323.350558" y="320.4" style="stroke: #000000; stroke-width: 0.8"/>
      </g>
     </g>
     <g id="text_7">
      <!-- 60000 -->
      <g transform="translate(307.444308 334.998438) scale(0.1 -0.1)">
       <defs>
        <path id="DejaVuSans-36" d="M 2113 2584 
Q 1688 2584 1439 2293 
Q 1191 2003 1191 1497 
Q 1191 994 1439 701 
Q 1688 409 2113 409 
Q 2538 409 2786 701 
Q 3034 994 3034 1497 
Q 3034 2003 2786 2293 
Q 2538 2584 2113 2584 
z
M 3366 4563 
L 3366 3988 
Q 3128 4100 2886 4159 
Q 2644 4219 2406 4219 
Q 1781 4219 1451 3797 
Q 1122 3375 1075 2522 
Q 1259 2794 1537 2939 
Q 1816 3084 2150 3084 
Q 2853 3084 3261 2657 
Q 3669 2231 3669 1497 
Q 3669 778 3244 343 
Q 2819 -91 2113 -91 
Q 1303 -91 875 529 
Q 447 1150 447 2328 
Q 447 3434 972 4092 
Q 1497 4750 2381 4750 
Q 2619 4750 2861 4703 
Q 3103 4656 3366 4563 
z
" transform="scale(0.015625)"/>
       </defs>
       <use xlink:href="#DejaVuSans-36"/>
       <use xlink:href="#DejaVuSans-30" x="63.623047"/>
       <use xlink:href="#DejaVuSans-30" x="127.246094"/>
       <use xlink:href="#DejaVuSans-30" x="190.869141"/>
       <use xlink:href="#DejaVuSans-30" x="254.492188"/>
      </g>
     </g>
    </g>
    <g id="text_8">
     <!-- time -->
     <g transform="translate(203.262869 350.19625) scale(0.12 -0.12)">
      <defs>
       <path id="DejaVuSans-74" d="M 1172 4494 
L 1172 3500 
L 2356 3500 
L 2356 3053 
L 1172 3053 
L 1172 1153 
Q 1172 725 1289 603 
Q 1406 481 1766 481 
L 2356 481 
L 2356 0 
L 1766 0 
Q 1100 0 847 248 
Q 594 497 594 1153 
L 594 3053 
L 172 3053 
L 172 3500 
L 594 3500 
L 594 4494 
L 1172 4494 
z
" transform="scale(0.015625)"/>
       <path id="DejaVuSans-69" d="M 603 3500 
L 1178 3500 
L 1178 0 
L 603 0 
L 603 3500 
z
M 603 4863 
L 1178 4863 
L 1178 4134 
L 603 4134 
L 603 4863 
z
" transform="scale(0.015625)"/>
       <path id="DejaVuSans-6d" d="M 3328 2828 
Q 3544 3216 3844 3400 
Q 4144 3584 4550 3584 
Q 5097 3584 5394 3201 
Q 5691 2819 5691 2113 
L 5691 0 
L 5113 0 
L 5113 2094 
Q 5113 2597 4934 2840 
Q 4756 3084 4391 3084 
Q 3944 3084 3684 2787 
Q 3425 2491 3425 1978 
L 3425 0 
L 2847 0 
L 2847 2094 
Q 2847 2600 2669 2842 
Q 2491 3084 2119 3084 
Q 1678 3084 1418 2786 
Q 1159 2488 1159 1978 
L 1159 0 
L 581 0 
L 581 3500 
L 1159 3500 
L 1159 2956 
Q 1356 3278 1631 3431 
Q 1906 3584 2284 3584 
Q 2666 3584 2933 3390 
Q 3200 3197 3328 2828 
z
" transform="scale(0.015625)"/>
       <path id="DejaVuSans-65" d="M 3597 1894 
L 3597 1613 
L 953 1613 
Q 991 1019 1311 708 
Q 1631 397 2203 397 
Q 2534 397 2845 478 
Q 3156 559 3463 722 
L 3463 178 
Q 3153 47 2828 -22 
Q 2503 -91 2169 -91 
Q 1331 -91 842 396 
Q 353 884 353 1716 
Q 353 2575 817 3079 
Q 1281 3584 2069 3584 
Q 2775 3584 3186 3129 
Q 3597 2675 3597 1894 
z
M 3022 2063 
Q 3016 2534 2758 2815 
Q 2500 3097 2075 3097 
Q 1594 3097 1305 2825 
Q 1016 2553 972 2059 
L 3022 2063 
z
" transform="scale(0.015625)"/>
      </defs>
      <use xlink:href="#DejaVuSans-74"/>
      <use xlink:href="#DejaVuSans-69" x="39.208984"/>
      <use xlink:href="#DejaVuSans-6d" x="66.992188"/>
      <use xlink:href="#DejaVuSans-65" x="164.404297"/>
     </g>
    </g>
   </g>
   <g id="matplotlib.axis_2">
    <g id="ytick_1">
     <g id="line2d_8">
      <defs>
       <path id="m74ce62e072" d="M 0 0 
L -3.5 0 
" style="stroke: #000000; stroke-width: 0.8"/>
      </defs>
      <g>
       <use xlink:href="#m74ce62e072" x="90" y="307.8" style="stroke: #000000; stroke-width: 0.8"/>
      </g>
     </g>
     <g id="text_9">
      <!-- 0.000000 -->
      <g transform="translate(35.284375 311.599219) scale(0.1 -0.1)">
       <defs>
        <path id="DejaVuSans-2e" d="M 684 794 
L 1344 794 
L 1344 0 
L 684 0 
L 684 794 
z
" transform="scale(0.015625)"/>
       </defs>
       <use xlink:href="#DejaVuSans-30"/>
       <use xlink:href="#DejaVuSans-2e" x="63.623047"/>
       <use xlink:href="#DejaVuSans-30" x="95.410156"/>
       <use xlink:href="#DejaVuSans-30" x="159.033203"/>
       <use xlink:href="#DejaVuSans-30" x="222.65625"/>
       <use xlink:href="#DejaVuSans-30" x="286.279297"/>
       <use xlink:href="#DejaVuSans-30" x="349.902344"/>
       <use xlink:href="#DejaVuSans-30" x="413.525391"/>
      </g>
     </g>
    </g>
    <g id="ytick_2">
     <g id="line2d_9">
      <g>
       <use xlink:href="#m74ce62e072" x="90" y="272.990972" style="stroke: #000000; stroke-width: 0.8"/>
      </g>
     </g>
     <g id="text_10">
      <!-- 0.000025 -->
      <g transform="translate(35.284375 276.790191) scale(0.1 -0.1)">
       <use xlink:href="#DejaVuSans-30"/>
       <use xlink:href="#DejaVuSans-2e" x="63.623047"/>
       <use xlink:href="#DejaVuSans-30" x="95.410156"/>
       <use xlink:href="#DejaVuSans-30" x="159.033203"/>
       <use xlink:href="#DejaVuSans-30" x="222.65625"/>
       <use xlink:href="#DejaVuSans-30" x="286.279297"/>
       <use xlink:href="#DejaVuSans-32" x="349.902344"/>
       <use xlink:href="#DejaVuSans-35" x="413.525391"/>
      </g>
     </g>
    </g>
    <g id="ytick_3">
     <g id="line2d_10">
      <g>
       <use xlink:href="#m74ce62e072" x="90" y="238.181944" style="stroke: #000000; stroke-width: 0.8"/>
      </g>
     </g>
     <g id="text_11">
      <!-- 0.000050 -->
      <g transform="translate(35.284375 241.981163) scale(0.1 -0.1)">
       <use xlink:href="#DejaVuSans-30"/>
       <use xlink:href="#DejaVuSans-2e" x="63.623047"/>
       <use xlink:href="#DejaVuSans-30" x="95.410156"/>
       <use xlink:href="#DejaVuSans-30" x="159.033203"/>
       <use xlink:href="#DejaVuSans-30" x="222.65625"/>
       <use xlink:href="#DejaVuSans-30" x="286.279297"/>
       <use xlink:href="#DejaVuSans-35" x="349.902344"/>
       <use xlink:href="#DejaVuSans-30" x="413.525391"/>
      </g>
     </g>
    </g>
    <g id="ytick_4">
     <g id="line2d_11">
      <g>
       <use xlink:href="#m74ce62e072" x="90" y="203.372916" style="stroke: #000000; stroke-width: 0.8"/>
      </g>
     </g>
     <g id="text_12">
      <!-- 0.000075 -->
      <g transform="translate(35.284375 207.172135) scale(0.1 -0.1)">
       <defs>
        <path id="DejaVuSans-37" d="M 525 4666 
L 3525 4666 
L 3525 4397 
L 1831 0 
L 1172 0 
L 2766 4134 
L 525 4134 
L 525 4666 
z
" transform="scale(0.015625)"/>
       </defs>
       <use xlink:href="#DejaVuSans-30"/>
       <use xlink:href="#DejaVuSans-2e" x="63.623047"/>
       <use xlink:href="#DejaVuSans-30" x="95.410156"/>
       <use xlink:href="#DejaVuSans-30" x="159.033203"/>
       <use xlink:href="#DejaVuSans-30" x="222.65625"/>
       <use xlink:href="#DejaVuSans-30" x="286.279297"/>
       <use xlink:href="#DejaVuSans-37" x="349.902344"/>
       <use xlink:href="#DejaVuSans-35" x="413.525391"/>
      </g>
     </g>
    </g>
    <g id="ytick_5">
     <g id="line2d_12">
      <g>
       <use xlink:href="#m74ce62e072" x="90" y="168.563888" style="stroke: #000000; stroke-width: 0.8"/>
      </g>
     </g>
     <g id="text_13">
      <!-- 0.000100 -->
      <g transform="translate(35.284375 172.363107) scale(0.1 -0.1)">
       <use xlink:href="#DejaVuSans-30"/>
       <use xlink:href="#DejaVuSans-2e" x="63.623047"/>
       <use xlink:href="#DejaVuSans-30" x="95.410156"/>
       <use xlink:href="#DejaVuSans-30" x="159.033203"/>
       <use xlink:href="#DejaVuSans-30" x="222.65625"/>
       <use xlink:href="#DejaVuSans-31" x="286.279297"/>
       <use xlink:href="#DejaVuSans-30" x="349.902344"/>
       <use xlink:href="#DejaVuSans-30" x="413.525391"/>
      </g>
     </g>
    </g>
    <g id="ytick_6">
     <g id="line2d_13">
      <g>
       <use xlink:href="#m74ce62e072" x="90" y="133.75486" style="stroke: #000000; stroke-width: 0.8"/>
      </g>
     </g>
     <g id="text_14">
      <!-- 0.000125 -->
      <g transform="translate(35.284375 137.554079) scale(0.1 -0.1)">
       <use xlink:href="#DejaVuSans-30"/>
       <use xlink:href="#DejaVuSans-2e" x="63.623047"/>
       <use xlink:href="#DejaVuSans-30" x="95.410156"/>
       <use xlink:href="#DejaVuSans-30" x="159.033203"/>
       <use xlink:href="#DejaVuSans-30" x="222.65625"/>
       <use xlink:href="#DejaVuSans-31" x="286.279297"/>
       <use xlink:href="#DejaVuSans-32" x="349.902344"/>
       <use xlink:href="#DejaVuSans-35" x="413.525391"/>
      </g>
     </g>
    </g>
    <g id="ytick_7">
     <g id="line2d_14">
      <g>
       <use xlink:href="#m74ce62e072" x="90" y="98.945833" style="stroke: #000000; stroke-width: 0.8"/>
      </g>
     </g>
     <g id="text_15">
      <!-- 0.000150 -->
      <g transform="translate(35.284375 102.745051) scale(0.1 -0.1)">
       <use xlink:href="#DejaVuSans-30"/>
       <use xlink:href="#DejaVuSans-2e" x="63.623047"/>
       <use xlink:href="#DejaVuSans-30" x="95.410156"/>
       <use xlink:href="#DejaVuSans-30" x="159.033203"/>
       <use xlink:href="#DejaVuSans-30" x="222.65625"/>
       <use xlink:href="#DejaVuSans-31" x="286.279297"/>
       <use xlink:href="#DejaVuSans-35" x="349.902344"/>
       <use xlink:href="#DejaVuSans-30" x="413.525391"/>
      </g>
     </g>
    </g>
    <g id="ytick_8">
     <g id="line2d_15">
      <g>
       <use xlink:href="#m74ce62e072" x="90" y="64.136805" style="stroke: #000000; stroke-width: 0.8"/>
      </g>
     </g>
     <g id="text_16">
      <!-- 0.000175 -->
      <g transform="translate(35.284375 67.936023) scale(0.1 -0.1)">
       <use xlink:href="#DejaVuSans-30"/>
       <use xlink:href="#DejaVuSans-2e" x="63.623047"/>
       <use xlink:href="#DejaVuSans-30" x="95.410156"/>
       <use xlink:href="#DejaVuSans-30" x="159.033203"/>
       <use xlink:href="#DejaVuSans-30" x="222.65625"/>
       <use xlink:href="#DejaVuSans-31" x="286.279297"/>
       <use xlink:href="#DejaVuSans-37" x="349.902344"/>
       <use xlink:href="#DejaVuSans-35" x="413.525391"/>
      </g>
     </g>
    </g>
    <g id="text_17">
     <!-- [Cve_los] -->
     <g transform="translate(28.455 209.378437) rotate(-90) scale(0.12 -0.12)">
      <defs>
       <path id="DejaVuSans-5b" d="M 550 4863 
L 1875 4863 
L 1875 4416 
L 1125 4416 
L 1125 -397 
L 1875 -397 
L 1875 -844 
L 550 -844 
L 550 4863 
z
" transform="scale(0.015625)"/>
       <path id="DejaVuSans-43" d="M 4122 4306 
L 4122 3641 
Q 3803 3938 3442 4084 
Q 3081 4231 2675 4231 
Q 1875 4231 1450 3742 
Q 1025 3253 1025 2328 
Q 1025 1406 1450 917 
Q 1875 428 2675 428 
Q 3081 428 3442 575 
Q 3803 722 4122 1019 
L 4122 359 
Q 3791 134 3420 21 
Q 3050 -91 2638 -91 
Q 1578 -91 968 557 
Q 359 1206 359 2328 
Q 359 3453 968 4101 
Q 1578 4750 2638 4750 
Q 3056 4750 3426 4639 
Q 3797 4528 4122 4306 
z
" transform="scale(0.015625)"/>
       <path id="DejaVuSans-76" d="M 191 3500 
L 800 3500 
L 1894 563 
L 2988 3500 
L 3597 3500 
L 2284 0 
L 1503 0 
L 191 3500 
z
" transform="scale(0.015625)"/>
       <path id="DejaVuSans-5f" d="M 3263 -1063 
L 3263 -1509 
L -63 -1509 
L -63 -1063 
L 3263 -1063 
z
" transform="scale(0.015625)"/>
       <path id="DejaVuSans-6c" d="M 603 4863 
L 1178 4863 
L 1178 0 
L 603 0 
L 603 4863 
z
" transform="scale(0.015625)"/>
       <path id="DejaVuSans-6f" d="M 1959 3097 
Q 1497 3097 1228 2736 
Q 959 2375 959 1747 
Q 959 1119 1226 758 
Q 1494 397 1959 397 
Q 2419 397 2687 759 
Q 2956 1122 2956 1747 
Q 2956 2369 2687 2733 
Q 2419 3097 1959 3097 
z
M 1959 3584 
Q 2709 3584 3137 3096 
Q 3566 2609 3566 1747 
Q 3566 888 3137 398 
Q 2709 -91 1959 -91 
Q 1206 -91 779 398 
Q 353 888 353 1747 
Q 353 2609 779 3096 
Q 1206 3584 1959 3584 
z
" transform="scale(0.015625)"/>
       <path id="DejaVuSans-73" d="M 2834 3397 
L 2834 2853 
Q 2591 2978 2328 3040 
Q 2066 3103 1784 3103 
Q 1356 3103 1142 2972 
Q 928 2841 928 2578 
Q 928 2378 1081 2264 
Q 1234 2150 1697 2047 
L 1894 2003 
Q 2506 1872 2764 1633 
Q 3022 1394 3022 966 
Q 3022 478 2636 193 
Q 2250 -91 1575 -91 
Q 1294 -91 989 -36 
Q 684 19 347 128 
L 347 722 
Q 666 556 975 473 
Q 1284 391 1588 391 
Q 1994 391 2212 530 
Q 2431 669 2431 922 
Q 2431 1156 2273 1281 
Q 2116 1406 1581 1522 
L 1381 1569 
Q 847 1681 609 1914 
Q 372 2147 372 2553 
Q 372 3047 722 3315 
Q 1072 3584 1716 3584 
Q 2034 3584 2315 3537 
Q 2597 3491 2834 3397 
z
" transform="scale(0.015625)"/>
       <path id="DejaVuSans-5d" d="M 1947 4863 
L 1947 -844 
L 622 -844 
L 622 -397 
L 1369 -397 
L 1369 4416 
L 622 4416 
L 622 4863 
L 1947 4863 
z
" transform="scale(0.015625)"/>
      </defs>
      <use xlink:href="#DejaVuSans-5b"/>
      <use xlink:href="#DejaVuSans-43" x="39.013672"/>
      <use xlink:href="#DejaVuSans-76" x="108.837891"/>
      <use xlink:href="#DejaVuSans-65" x="168.017578"/>
      <use xlink:href="#DejaVuSans-5f" x="229.541016"/>
      <use xlink:href="#DejaVuSans-6c" x="279.541016"/>
      <use xlink:href="#DejaVuSans-6f" x="307.324219"/>
      <use xlink:href="#DejaVuSans-73" x="368.505859"/>
      <use xlink:href="#DejaVuSans-5d" x="420.605469"/>
     </g>
    </g>
   </g>
   <g id="line2d_16">
    <defs>
     <path id="m4491c6f786" d="M -5 5 
L 5 5 
L 5 -5 
L -5 -5 
z
" style="stroke: #000000; stroke-linejoin: miter"/>
    </defs>
    <g clip-path="url(#p2485870384)">
     <use xlink:href="#m4491c6f786" x="111.136364" y="116.185541" style="stroke: #000000; stroke-linejoin: miter"/>
     <use xlink:href="#m4491c6f786" x="111.561643" y="225.24248" style="stroke: #000000; stroke-linejoin: miter"/>
     <use xlink:href="#m4491c6f786" x="111.986922" y="256.772838" style="stroke: #000000; stroke-linejoin: miter"/>
     <use xlink:href="#m4491c6f786" x="112.4122" y="280.54706" style="stroke: #000000; stroke-linejoin: miter"/>
     <use xlink:href="#m4491c6f786" x="113.262758" y="298.163467" style="stroke: #000000; stroke-linejoin: miter"/>
     <use xlink:href="#m4491c6f786" x="320.373605" y="118.874539" style="stroke: #000000; stroke-linejoin: miter"/>
     <use xlink:href="#m4491c6f786" x="320.798884" y="223.688253" style="stroke: #000000; stroke-linejoin: miter"/>
     <use xlink:href="#m4491c6f786" x="321.224163" y="252.747062" style="stroke: #000000; stroke-linejoin: miter"/>
     <use xlink:href="#m4491c6f786" x="321.649442" y="280.620292" style="stroke: #000000; stroke-linejoin: miter"/>
     <use xlink:href="#m4491c6f786" x="322.5" y="297.495703" style="stroke: #000000; stroke-linejoin: miter"/>
    </g>
   </g>
   <g id="line2d_17">
    <path d="M 105.607737 307.8 
L 110.715646 307.705706 
L 110.734583 299.213063 
L 110.92396 63.623573 
L 111.032307 106.13905 
L 111.383373 251.663185 
L 111.637593 278.489607 
L 111.903919 286.314417 
L 112.218668 289.483404 
L 112.744473 292.337423 
L 113.59896 295.80716 
L 114.483843 298.575095 
L 115.401041 300.771806 
L 115.815307 301.773557 
L 115.821845 301.402218 
L 115.848219 281.481773 
L 116.028636 57.732914 
L 116.093845 77.355878 
L 116.545222 256.254523 
L 116.801669 276.661081 
L 117.073202 283.04913 
L 117.435245 286.449363 
L 118.114076 290.447908 
L 119.012316 294.507265 
L 119.909265 297.611695 
L 120.766077 299.897582 
L 120.918837 300.519684 
L 120.925634 300.082958 
L 120.952968 278.286577 
L 121.129907 56.460861 
L 121.197365 76.233102 
L 121.661188 256.964397 
L 121.921411 276.348244 
L 122.194645 282.423952 
L 122.571968 285.908152 
L 123.287581 290.180011 
L 124.17646 294.263891 
L 125.080092 297.445698 
L 126.022176 300.245339 
L 126.02732 300.028925 
L 126.049498 286.73997 
L 126.232977 56.18939 
L 126.318634 85.36534 
L 126.717972 249.760757 
L 126.970886 273.867931 
L 127.237111 281.349499 
L 127.583204 285.052018 
L 128.208833 289.054917 
L 129.102213 293.420993 
L 129.919478 296.515618 
L 130.907079 299.380386 
L 131.125374 300.057174 
L 131.131703 299.715208 
L 131.158311 279.710061 
L 131.338067 56.029997 
L 131.408864 78.205074 
L 131.848874 253.932108 
L 132.110734 275.328732 
L 132.386375 281.901158 
L 132.758491 285.476404 
L 133.461376 289.773749 
L 134.359236 293.988855 
L 135.265709 297.244209 
L 136.228862 300.187853 
L 136.23419 299.952767 
L 136.258734 283.660129 
L 136.441895 56.17119 
L 136.52053 82.699617 
L 136.93572 251.520008 
L 137.19117 274.453458 
L 137.457727 281.526501 
L 137.813136 285.194849 
L 138.468422 289.317973 
L 139.368723 293.650963 
L 140.274544 296.98388 
L 141.161342 299.484895 
L 141.331169 299.892982 
L 141.33206 300.259853 
L 141.442101 134.062175 
L 141.544109 56.215632 
L 141.588324 66.010646 
L 142.190788 268.471694 
L 142.451757 279.55164 
L 142.75393 283.869514 
L 143.248397 287.479971 
L 144.099978 292.032161 
L 145.004255 295.740991 
L 145.907708 298.575083 
L 146.435578 299.915941 
L 146.440402 299.730713 
L 146.462681 286.645897 
L 146.647668 55.881487 
L 146.739824 89.412967 
L 147.121221 247.741161 
L 147.375485 273.187018 
L 147.641307 280.968243 
L 147.976474 284.683045 
L 148.589019 288.693205 
L 149.485196 293.156375 
L 150.378694 296.564828 
L 151.313517 299.284876 
L 151.538948 299.885899 
L 151.544246 299.649755 
L 151.567096 285.390823 
L 151.745309 55.925602 
L 151.834783 84.698028 
L 152.235641 249.620392 
L 152.49241 273.820745 
L 152.762694 281.23659 
L 153.114062 284.934288 
L 153.762742 289.073946 
L 154.670156 293.494571 
L 155.537954 296.740329 
L 156.376387 299.174845 
L 156.6423 299.848171 
L 156.647614 299.609777 
L 156.670535 285.245594 
L 156.849397 55.857676 
L 156.939177 85.237589 
L 157.331991 248.398102 
L 157.581897 273.121106 
L 157.845686 280.882031 
L 158.178894 284.60528 
L 158.789775 288.623217 
L 159.685273 293.099916 
L 160.562943 296.46845 
L 161.440881 299.065737 
L 161.745613 300.115117 
L 161.753039 299.57075 
L 161.780927 276.185203 
L 161.956695 56.063185 
L 162.013911 70.997025 
L 162.520524 260.635473 
L 162.773831 276.945199 
L 163.061679 282.651458 
L 163.464667 286.120041 
L 164.224586 290.55184 
L 165.129406 294.611489 
L 166.021434 297.676807 
L 166.848824 300.011127 
L 166.85339 299.861427 
L 166.874326 288.629344 
L 167.060596 55.967236 
L 167.149199 87.241735 
L 167.535357 247.951708 
L 167.788357 273.233844 
L 168.054673 281.03493 
L 168.400884 284.831642 
L 169.026727 288.881446 
L 169.919633 293.286048 
L 170.839862 296.752234 
L 171.768465 299.411452 
L 171.952333 300.006672 
L 171.958489 299.663999 
L 171.985272 279.411598 
L 172.158496 56.053998 
L 172.230163 75.405493 
L 172.689291 255.822253 
L 172.945941 275.623967 
L 173.216099 281.906929 
L 173.580812 285.412408 
L 174.269714 289.64914 
L 175.163453 293.87653 
L 176.017262 296.990875 
L 176.9771 299.668313 
L 177.055508 299.957064 
L 177.061912 299.60365 
L 177.088889 278.990457 
L 177.263289 55.947476 
L 177.335313 76.250282 
L 177.783569 254.512028 
L 178.041753 275.289251 
L 178.313526 281.790173 
L 178.680419 285.353957 
L 179.37344 289.625996 
L 180.272388 293.880293 
L 181.148324 297.064467 
L 182.01512 299.49775 
L 182.158844 300.033412 
L 182.165216 299.686011 
L 182.19207 279.295785 
L 182.3658 56.052912 
L 182.437658 75.826115 
L 182.89799 256.116832 
L 183.155312 275.747126 
L 183.426178 281.971782 
L 183.80539 285.559282 
L 184.50964 289.840861 
L 185.421367 294.096625 
L 186.271042 297.148684 
L 187.19377 299.69837 
L 187.26219 299.999117 
L 187.268444 299.668423 
L 187.293113 282.327969 
L 187.472781 55.946053 
L 187.541014 75.796887 
L 187.995032 255.221178 
L 188.250407 275.399192 
L 188.522806 281.855453 
L 188.897355 285.455288 
L 189.595379 289.729348 
L 190.49002 293.941633 
L 191.358466 297.088009 
L 192.293442 299.681757 
L 192.365682 299.942829 
L 192.37187 299.601362 
L 192.397789 280.530849 
L 192.573635 55.924203 
L 192.652097 79.679412 
L 193.07262 251.331069 
L 193.322167 274.002417 
L 193.597983 281.407233 
L 193.952602 285.06071 
L 194.609306 289.213333 
L 195.504462 293.54906 
L 196.414631 296.920017 
L 197.325136 299.494392 
L 197.469064 299.999453 
L 197.475224 299.657007 
L 197.501262 280.417739 
L 197.681802 55.97887 
L 197.751063 77.478973 
L 198.186219 252.966805 
L 198.438702 274.63529 
L 198.706966 281.531513 
L 199.069911 285.202304 
L 199.748461 289.439293 
L 200.641451 293.712821 
L 201.495535 296.864677 
L 202.429122 299.509088 
L 202.572406 300.0887 
L 202.579207 299.650397 
L 202.607866 275.923769 
L 202.784514 56.051766 
L 202.841999 71.566241 
L 203.335744 259.268375 
L 203.588204 276.502913 
L 203.872221 282.435363 
L 204.266689 285.933124 
L 205.008289 290.316954 
L 205.9115 294.42568 
L 206.807968 297.547698 
L 207.67557 300.082572 
L 207.681031 299.849958 
L 207.703782 285.743165 
L 207.882083 56.121184 
L 207.971916 85.058012 
L 208.373155 249.898267 
L 208.630149 274.013181 
L 208.90067 281.392401 
L 209.252347 285.069771 
L 209.901596 289.187671 
L 210.809656 293.584154 
L 211.677477 296.80966 
L 212.516201 299.229654 
L 212.779121 299.899328 
L 212.784434 299.660943 
L 212.807386 285.26149 
L 212.987163 55.878019 
L 213.077575 86.159393 
L 213.47054 248.738386 
L 213.720462 273.247068 
L 213.984268 280.947378 
L 214.331382 284.763544 
L 214.956187 288.818668 
L 215.844917 293.219843 
L 216.704008 296.498803 
L 217.585511 299.098335 
L 217.882444 299.837453 
L 217.887979 299.576698 
L 217.911448 284.347141 
L 218.09633 55.857319 
L 218.177632 84.286111 
L 218.570302 248.066167 
L 218.822937 273.156412 
L 219.091361 280.965387 
L 219.438733 284.755948 
L 220.070319 288.846952 
L 220.970329 293.289966 
L 221.881554 296.725686 
L 222.802808 299.372949 
L 222.984727 299.814869 
L 222.985595 300.184875 
L 223.093064 138.393497 
L 223.197268 56.135912 
L 223.243034 66.387912 
L 223.811143 265.729293 
L 224.063609 278.473642 
L 224.363412 283.382535 
L 224.821006 286.928985 
L 225.657299 291.54138 
L 226.564534 295.376636 
L 227.478519 298.325996 
L 228.088968 300.024093 
L 228.094459 299.787411 
L 228.117321 285.510127 
L 228.296506 56.021825 
L 228.386715 85.778766 
L 228.78979 250.386745 
L 229.047964 274.172676 
L 229.319726 281.438443 
L 229.673017 285.088794 
L 230.325245 289.214045 
L 231.223257 293.561777 
L 232.094661 296.804051 
L 232.953052 299.275144 
L 233.192327 299.979098 
L 233.198735 299.625478 
L 233.225739 278.97148 
L 233.400698 55.952702 
L 233.473112 76.76099 
L 233.925444 255.244662 
L 234.17512 275.16602 
L 234.452537 281.836075 
L 234.82705 285.43972 
L 235.520593 289.692849 
L 236.418785 293.928295 
L 237.265523 297.008454 
L 238.222328 299.674235 
L 238.295683 299.89828 
L 238.301228 299.653481 
L 238.3243 285.050596 
L 238.50495 55.855807 
L 238.586622 81.962872 
L 239.001589 251.109834 
L 239.261573 274.387556 
L 239.53524 281.483041 
L 239.891007 285.095788 
L 240.561492 289.311963 
L 241.459729 293.637336 
L 242.349082 296.920462 
L 243.272528 299.526542 
L 243.399198 299.878253 
L 243.404733 299.615392 
L 243.42818 284.393434 
L 243.613127 55.899803 
L 243.694456 84.373007 
L 244.087348 248.153917 
L 244.340174 273.212516 
L 244.608802 281.005657 
L 244.956439 284.789538 
L 245.588504 288.876619 
L 246.489198 293.315591 
L 247.404926 296.759996 
L 248.294902 299.320775 
L 248.50237 299.844229 
L 248.507916 299.600229 
L 248.531004 284.985597 
L 248.711851 55.8 
L 248.793608 82.066916 
L 249.209024 251.183533 
L 249.46929 274.39164 
L 249.743254 281.464856 
L 250.099407 285.074801 
L 250.770619 289.297531 
L 251.670502 293.633164 
L 252.554682 296.900551 
L 253.445618 299.43111 
L 253.604811 299.816285 
L 253.605712 300.114405 
L 253.711644 140.927537 
L 253.813038 56.117964 
L 253.858166 64.442094 
L 254.488407 270.037872 
L 254.751191 280.000075 
L 255.069299 284.157249 
L 255.608698 287.923123 
L 256.480035 292.459526 
L 257.377454 296.043896 
L 258.265069 298.764462 
L 258.709224 299.882961 
L 258.714092 299.693202 
L 258.736535 286.372966 
L 258.923017 55.898487 
L 259.004318 84.278877 
L 259.397294 248.140994 
L 259.650223 273.216446 
L 259.918961 281.010866 
L 260.266739 284.794562 
L 260.899063 288.882002 
L 261.800125 293.321281 
L 262.718221 296.77208 
L 263.613288 299.342833 
L 263.812411 299.868786 
L 263.81795 299.625665 
L 263.841014 285.04895 
L 264.021733 55.826158 
L 264.103478 81.998469 
L 264.518713 251.147413 
L 264.778861 274.389551 
L 265.052702 281.473209 
L 265.408695 285.084492 
L 266.079605 289.304354 
L 266.978786 293.635456 
L 267.864961 296.908756 
L 268.774377 299.483113 
L 268.915758 300.112027 
L 268.922683 299.679975 
L 268.950782 276.821 
L 269.129905 56.131052 
L 269.191004 74.164525 
L 269.663625 257.33767 
L 269.920664 276.123235 
L 270.204759 282.312606 
L 270.597082 285.855544 
L 271.341141 290.272932 
L 272.250177 294.415191 
L 273.135141 297.504593 
L 274.019115 299.936245 
L 274.022678 299.85632 
L 274.041163 291.874155 
L 274.228283 55.894578 
L 274.341843 100.112431 
L 274.683928 243.853763 
L 274.943912 272.411951 
L 275.203897 280.621363 
L 275.532298 284.468127 
L 276.120683 288.4052 
L 277.017151 292.938394 
L 277.928041 296.456247 
L 278.849764 299.16912 
L 279.122628 299.905294 
L 279.128161 299.642758 
L 279.151601 284.433299 
L 279.336485 55.923471 
L 279.417812 84.357481 
L 279.810921 248.200934 
L 280.063957 273.250614 
L 280.332809 281.034068 
L 280.680734 284.813529 
L 281.313325 288.898678 
L 282.214767 293.335663 
L 283.135651 296.792135 
L 284.036893 299.373659 
L 284.225798 299.902435 
L 284.231328 299.660556 
L 284.254356 285.138382 
L 284.434874 55.862964 
L 284.525664 86.845093 
L 284.917832 248.814501 
L 285.177785 273.755427 
L 285.45142 281.274476 
L 285.807146 284.991435 
L 286.463869 289.160876 
L 287.368538 293.549173 
L 288.278887 296.920684 
L 289.205928 299.535527 
L 289.329324 299.896216 
L 289.334859 299.633355 
L 289.358306 284.41115 
L 289.543269 55.918093 
L 289.624631 84.416886 
L 290.017825 248.229955 
L 290.270901 273.256013 
L 290.539794 281.032401 
L 290.887773 284.810481 
L 291.520462 288.89639 
L 292.422044 293.334501 
L 293.345032 296.798121 
L 294.251081 299.390235 
L 294.432491 299.921711 
L 294.438907 299.56754 
L 294.465963 278.837858 
L 294.641404 55.884768 
L 294.71401 77.073359 
L 295.165143 255.132225 
L 295.424956 275.508629 
L 295.698444 281.875618 
L 296.067653 285.40728 
L 296.765046 289.686928 
L 297.676654 293.978819 
L 298.564983 297.179551 
L 299.535823 299.863873 
L 299.537667 299.848543 
L 299.549497 297.400091 
L 299.602283 218.562061 
L 299.750218 55.896777 
L 299.781073 61.738966 
L 299.956085 157.203078 
L 300.24081 250.929766 
L 300.4939 274.008529 
L 300.762807 281.26825 
L 301.110805 284.917761 
L 301.759346 289.05981 
L 302.653311 293.42657 
L 303.555496 296.800494 
L 304.46904 299.410714 
L 304.639183 299.946813 
L 304.645589 299.594508 
L 304.672604 278.93634 
L 304.847825 55.914892 
L 304.920377 76.932508 
L 305.371085 255.047215 
L 305.63065 275.488373 
L 305.903877 281.875675 
L 306.272733 285.411037 
L 306.96946 289.687323 
L 307.879436 293.972451 
L 308.747658 297.111118 
L 309.629215 299.569929 
L 309.742533 299.875937 
L 309.748155 299.623828 
L 309.772103 283.895955 
L 309.950386 55.865557 
L 310.032193 81.252274 
L 310.44444 250.443373 
L 310.701483 274.058317 
L 310.97459 281.354612 
L 311.328023 285.006552 
L 311.986693 289.180868 
L 312.878778 293.51115 
L 313.757348 296.788377 
L 314.664143 299.384648 
L 314.845874 300.091605 
L 314.853126 299.606899 
L 314.88155 275.864793 
L 315.053332 56.090983 
L 315.11661 72.014004 
L 315.618344 260.320519 
L 315.881199 277.154316 
L 316.171722 282.748975 
L 316.586755 286.253095 
L 317.361483 290.726281 
L 318.273108 294.771077 
L 319.161434 297.788318 
L 319.949373 300.205797 
L 319.956145 299.775484 
L 319.984686 276.288446 
L 320.160553 56.15309 
L 320.217838 71.156336 
L 320.711687 259.237158 
L 320.964472 276.565043 
L 321.248855 282.511222 
L 321.643832 286.005587 
L 322.386388 290.379994 
L 323.290546 294.477644 
L 324.188126 297.590895 
L 325.148428 300.120762 
L 325.264313 300.380122 
L 325.264313 300.380122 
" clip-path="url(#p2485870384)" style="fill: none; stroke: #0000ff; stroke-width: 1.5; stroke-linecap: square"/>
   </g>
   <g id="patch_3">
    <path d="M 90 320.4 
L 90 43.2 
" style="fill: none; stroke: #000000; stroke-width: 0.8; stroke-linejoin: miter; stroke-linecap: square"/>
   </g>
   <g id="patch_4">
    <path d="M 343.636364 320.4 
L 343.636364 43.2 
" style="fill: none; stroke: #000000; stroke-width: 0.8; stroke-linejoin: miter; stroke-linecap: square"/>
   </g>
   <g id="patch_5">
    <path d="M 90 320.4 
L 343.636364 320.4 
" style="fill: none; stroke: #000000; stroke-width: 0.8; stroke-linejoin: miter; stroke-linecap: square"/>
   </g>
   <g id="patch_6">
    <path d="M 90 43.2 
L 343.636364 43.2 
" style="fill: none; stroke: #000000; stroke-width: 0.8; stroke-linejoin: miter; stroke-linecap: square"/>
   </g>
   <g id="text_18">
    <!-- Goldberg1995a fm_po_LOS25_losartan -->
    <g transform="translate(80.913182 37.2) scale(0.14 -0.14)">
     <defs>
      <path id="DejaVuSans-47" d="M 3809 666 
L 3809 1919 
L 2778 1919 
L 2778 2438 
L 4434 2438 
L 4434 434 
Q 4069 175 3628 42 
Q 3188 -91 2688 -91 
Q 1594 -91 976 548 
Q 359 1188 359 2328 
Q 359 3472 976 4111 
Q 1594 4750 2688 4750 
Q 3144 4750 3555 4637 
Q 3966 4525 4313 4306 
L 4313 3634 
Q 3963 3931 3569 4081 
Q 3175 4231 2741 4231 
Q 1884 4231 1454 3753 
Q 1025 3275 1025 2328 
Q 1025 1384 1454 906 
Q 1884 428 2741 428 
Q 3075 428 3337 486 
Q 3600 544 3809 666 
z
" transform="scale(0.015625)"/>
      <path id="DejaVuSans-64" d="M 2906 2969 
L 2906 4863 
L 3481 4863 
L 3481 0 
L 2906 0 
L 2906 525 
Q 2725 213 2448 61 
Q 2172 -91 1784 -91 
Q 1150 -91 751 415 
Q 353 922 353 1747 
Q 353 2572 751 3078 
Q 1150 3584 1784 3584 
Q 2172 3584 2448 3432 
Q 2725 3281 2906 2969 
z
M 947 1747 
Q 947 1113 1208 752 
Q 1469 391 1925 391 
Q 2381 391 2643 752 
Q 2906 1113 2906 1747 
Q 2906 2381 2643 2742 
Q 2381 3103 1925 3103 
Q 1469 3103 1208 2742 
Q 947 2381 947 1747 
z
" transform="scale(0.015625)"/>
      <path id="DejaVuSans-62" d="M 3116 1747 
Q 3116 2381 2855 2742 
Q 2594 3103 2138 3103 
Q 1681 3103 1420 2742 
Q 1159 2381 1159 1747 
Q 1159 1113 1420 752 
Q 1681 391 2138 391 
Q 2594 391 2855 752 
Q 3116 1113 3116 1747 
z
M 1159 2969 
Q 1341 3281 1617 3432 
Q 1894 3584 2278 3584 
Q 2916 3584 3314 3078 
Q 3713 2572 3713 1747 
Q 3713 922 3314 415 
Q 2916 -91 2278 -91 
Q 1894 -91 1617 61 
Q 1341 213 1159 525 
L 1159 0 
L 581 0 
L 581 4863 
L 1159 4863 
L 1159 2969 
z
" transform="scale(0.015625)"/>
      <path id="DejaVuSans-72" d="M 2631 2963 
Q 2534 3019 2420 3045 
Q 2306 3072 2169 3072 
Q 1681 3072 1420 2755 
Q 1159 2438 1159 1844 
L 1159 0 
L 581 0 
L 581 3500 
L 1159 3500 
L 1159 2956 
Q 1341 3275 1631 3429 
Q 1922 3584 2338 3584 
Q 2397 3584 2469 3576 
Q 2541 3569 2628 3553 
L 2631 2963 
z
" transform="scale(0.015625)"/>
      <path id="DejaVuSans-67" d="M 2906 1791 
Q 2906 2416 2648 2759 
Q 2391 3103 1925 3103 
Q 1463 3103 1205 2759 
Q 947 2416 947 1791 
Q 947 1169 1205 825 
Q 1463 481 1925 481 
Q 2391 481 2648 825 
Q 2906 1169 2906 1791 
z
M 3481 434 
Q 3481 -459 3084 -895 
Q 2688 -1331 1869 -1331 
Q 1566 -1331 1297 -1286 
Q 1028 -1241 775 -1147 
L 775 -588 
Q 1028 -725 1275 -790 
Q 1522 -856 1778 -856 
Q 2344 -856 2625 -561 
Q 2906 -266 2906 331 
L 2906 616 
Q 2728 306 2450 153 
Q 2172 0 1784 0 
Q 1141 0 747 490 
Q 353 981 353 1791 
Q 353 2603 747 3093 
Q 1141 3584 1784 3584 
Q 2172 3584 2450 3431 
Q 2728 3278 2906 2969 
L 2906 3500 
L 3481 3500 
L 3481 434 
z
" transform="scale(0.015625)"/>
      <path id="DejaVuSans-39" d="M 703 97 
L 703 672 
Q 941 559 1184 500 
Q 1428 441 1663 441 
Q 2288 441 2617 861 
Q 2947 1281 2994 2138 
Q 2813 1869 2534 1725 
Q 2256 1581 1919 1581 
Q 1219 1581 811 2004 
Q 403 2428 403 3163 
Q 403 3881 828 4315 
Q 1253 4750 1959 4750 
Q 2769 4750 3195 4129 
Q 3622 3509 3622 2328 
Q 3622 1225 3098 567 
Q 2575 -91 1691 -91 
Q 1453 -91 1209 -44 
Q 966 3 703 97 
z
M 1959 2075 
Q 2384 2075 2632 2365 
Q 2881 2656 2881 3163 
Q 2881 3666 2632 3958 
Q 2384 4250 1959 4250 
Q 1534 4250 1286 3958 
Q 1038 3666 1038 3163 
Q 1038 2656 1286 2365 
Q 1534 2075 1959 2075 
z
" transform="scale(0.015625)"/>
      <path id="DejaVuSans-61" d="M 2194 1759 
Q 1497 1759 1228 1600 
Q 959 1441 959 1056 
Q 959 750 1161 570 
Q 1363 391 1709 391 
Q 2188 391 2477 730 
Q 2766 1069 2766 1631 
L 2766 1759 
L 2194 1759 
z
M 3341 1997 
L 3341 0 
L 2766 0 
L 2766 531 
Q 2569 213 2275 61 
Q 1981 -91 1556 -91 
Q 1019 -91 701 211 
Q 384 513 384 1019 
Q 384 1609 779 1909 
Q 1175 2209 1959 2209 
L 2766 2209 
L 2766 2266 
Q 2766 2663 2505 2880 
Q 2244 3097 1772 3097 
Q 1472 3097 1187 3025 
Q 903 2953 641 2809 
L 641 3341 
Q 956 3463 1253 3523 
Q 1550 3584 1831 3584 
Q 2591 3584 2966 3190 
Q 3341 2797 3341 1997 
z
" transform="scale(0.015625)"/>
      <path id="DejaVuSans-20" transform="scale(0.015625)"/>
      <path id="DejaVuSans-66" d="M 2375 4863 
L 2375 4384 
L 1825 4384 
Q 1516 4384 1395 4259 
Q 1275 4134 1275 3809 
L 1275 3500 
L 2222 3500 
L 2222 3053 
L 1275 3053 
L 1275 0 
L 697 0 
L 697 3053 
L 147 3053 
L 147 3500 
L 697 3500 
L 697 3744 
Q 697 4328 969 4595 
Q 1241 4863 1831 4863 
L 2375 4863 
z
" transform="scale(0.015625)"/>
      <path id="DejaVuSans-70" d="M 1159 525 
L 1159 -1331 
L 581 -1331 
L 581 3500 
L 1159 3500 
L 1159 2969 
Q 1341 3281 1617 3432 
Q 1894 3584 2278 3584 
Q 2916 3584 3314 3078 
Q 3713 2572 3713 1747 
Q 3713 922 3314 415 
Q 2916 -91 2278 -91 
Q 1894 -91 1617 61 
Q 1341 213 1159 525 
z
M 3116 1747 
Q 3116 2381 2855 2742 
Q 2594 3103 2138 3103 
Q 1681 3103 1420 2742 
Q 1159 2381 1159 1747 
Q 1159 1113 1420 752 
Q 1681 391 2138 391 
Q 2594 391 2855 752 
Q 3116 1113 3116 1747 
z
" transform="scale(0.015625)"/>
      <path id="DejaVuSans-4c" d="M 628 4666 
L 1259 4666 
L 1259 531 
L 3531 531 
L 3531 0 
L 628 0 
L 628 4666 
z
" transform="scale(0.015625)"/>
      <path id="DejaVuSans-4f" d="M 2522 4238 
Q 1834 4238 1429 3725 
Q 1025 3213 1025 2328 
Q 1025 1447 1429 934 
Q 1834 422 2522 422 
Q 3209 422 3611 934 
Q 4013 1447 4013 2328 
Q 4013 3213 3611 3725 
Q 3209 4238 2522 4238 
z
M 2522 4750 
Q 3503 4750 4090 4092 
Q 4678 3434 4678 2328 
Q 4678 1225 4090 567 
Q 3503 -91 2522 -91 
Q 1538 -91 948 565 
Q 359 1222 359 2328 
Q 359 3434 948 4092 
Q 1538 4750 2522 4750 
z
" transform="scale(0.015625)"/>
      <path id="DejaVuSans-53" d="M 3425 4513 
L 3425 3897 
Q 3066 4069 2747 4153 
Q 2428 4238 2131 4238 
Q 1616 4238 1336 4038 
Q 1056 3838 1056 3469 
Q 1056 3159 1242 3001 
Q 1428 2844 1947 2747 
L 2328 2669 
Q 3034 2534 3370 2195 
Q 3706 1856 3706 1288 
Q 3706 609 3251 259 
Q 2797 -91 1919 -91 
Q 1588 -91 1214 -16 
Q 841 59 441 206 
L 441 856 
Q 825 641 1194 531 
Q 1563 422 1919 422 
Q 2459 422 2753 634 
Q 3047 847 3047 1241 
Q 3047 1584 2836 1778 
Q 2625 1972 2144 2069 
L 1759 2144 
Q 1053 2284 737 2584 
Q 422 2884 422 3419 
Q 422 4038 858 4394 
Q 1294 4750 2059 4750 
Q 2388 4750 2728 4690 
Q 3069 4631 3425 4513 
z
" transform="scale(0.015625)"/>
      <path id="DejaVuSans-6e" d="M 3513 2113 
L 3513 0 
L 2938 0 
L 2938 2094 
Q 2938 2591 2744 2837 
Q 2550 3084 2163 3084 
Q 1697 3084 1428 2787 
Q 1159 2491 1159 1978 
L 1159 0 
L 581 0 
L 581 3500 
L 1159 3500 
L 1159 2956 
Q 1366 3272 1645 3428 
Q 1925 3584 2291 3584 
Q 2894 3584 3203 3211 
Q 3513 2838 3513 2113 
z
" transform="scale(0.015625)"/>
     </defs>
     <use xlink:href="#DejaVuSans-47"/>
     <use xlink:href="#DejaVuSans-6f" x="77.490234"/>
     <use xlink:href="#DejaVuSans-6c" x="138.671875"/>
     <use xlink:href="#DejaVuSans-64" x="166.455078"/>
     <use xlink:href="#DejaVuSans-62" x="229.931641"/>
     <use xlink:href="#DejaVuSans-65" x="293.408203"/>
     <use xlink:href="#DejaVuSans-72" x="354.931641"/>
     <use xlink:href="#DejaVuSans-67" x="394.294922"/>
     <use xlink:href="#DejaVuSans-31" x="457.771484"/>
     <use xlink:href="#DejaVuSans-39" x="521.394531"/>
     <use xlink:href="#DejaVuSans-39" x="585.017578"/>
     <use xlink:href="#DejaVuSans-35" x="648.640625"/>
     <use xlink:href="#DejaVuSans-61" x="712.263672"/>
     <use xlink:href="#DejaVuSans-20" x="773.542969"/>
     <use xlink:href="#DejaVuSans-66" x="805.330078"/>
     <use xlink:href="#DejaVuSans-6d" x="840.535156"/>
     <use xlink:href="#DejaVuSans-5f" x="937.947266"/>
     <use xlink:href="#DejaVuSans-70" x="987.947266"/>
     <use xlink:href="#DejaVuSans-6f" x="1051.423828"/>
     <use xlink:href="#DejaVuSans-5f" x="1112.605469"/>
     <use xlink:href="#DejaVuSans-4c" x="1162.605469"/>
     <use xlink:href="#DejaVuSans-4f" x="1214.693359"/>
     <use xlink:href="#DejaVuSans-53" x="1293.404297"/>
     <use xlink:href="#DejaVuSans-32" x="1356.880859"/>
     <use xlink:href="#DejaVuSans-35" x="1420.503906"/>
     <use xlink:href="#DejaVuSans-5f" x="1484.126953"/>
     <use xlink:href="#DejaVuSans-6c" x="1534.126953"/>
     <use xlink:href="#DejaVuSans-6f" x="1561.910156"/>
     <use xlink:href="#DejaVuSans-73" x="1623.091797"/>
     <use xlink:href="#DejaVuSans-61" x="1675.191406"/>
     <use xlink:href="#DejaVuSans-72" x="1736.470703"/>
     <use xlink:href="#DejaVuSans-74" x="1777.583984"/>
     <use xlink:href="#DejaVuSans-61" x="1816.792969"/>
     <use xlink:href="#DejaVuSans-6e" x="1878.072266"/>
    </g>
   </g>
   <g id="legend_1">
    <g id="patch_7">
     <path d="M 229.370739 198.117188 
L 336.636364 198.117188 
Q 338.636364 198.117188 338.636364 196.117188 
L 338.636364 167.482813 
Q 338.636364 165.482813 336.636364 165.482813 
L 229.370739 165.482813 
Q 227.370739 165.482813 227.370739 167.482813 
L 227.370739 196.117188 
Q 227.370739 198.117188 229.370739 198.117188 
z
" style="fill: #ffffff; opacity: 0.8; stroke: #cccccc; stroke-linejoin: miter"/>
    </g>
    <g id="line2d_18">
     <g>
      <use xlink:href="#m4491c6f786" x="241.370739" y="173.58125" style="stroke: #000000; stroke-linejoin: miter"/>
     </g>
    </g>
    <g id="text_19">
     <!-- reference_data -->
     <g transform="translate(259.370739 177.08125) scale(0.1 -0.1)">
      <defs>
       <path id="DejaVuSans-63" d="M 3122 3366 
L 3122 2828 
Q 2878 2963 2633 3030 
Q 2388 3097 2138 3097 
Q 1578 3097 1268 2742 
Q 959 2388 959 1747 
Q 959 1106 1268 751 
Q 1578 397 2138 397 
Q 2388 397 2633 464 
Q 2878 531 3122 666 
L 3122 134 
Q 2881 22 2623 -34 
Q 2366 -91 2075 -91 
Q 1284 -91 818 406 
Q 353 903 353 1747 
Q 353 2603 823 3093 
Q 1294 3584 2113 3584 
Q 2378 3584 2631 3529 
Q 2884 3475 3122 3366 
z
" transform="scale(0.015625)"/>
      </defs>
      <use xlink:href="#DejaVuSans-72"/>
      <use xlink:href="#DejaVuSans-65" x="38.863281"/>
      <use xlink:href="#DejaVuSans-66" x="100.386719"/>
      <use xlink:href="#DejaVuSans-65" x="135.591797"/>
      <use xlink:href="#DejaVuSans-72" x="197.115234"/>
      <use xlink:href="#DejaVuSans-65" x="235.978516"/>
      <use xlink:href="#DejaVuSans-6e" x="297.501953"/>
      <use xlink:href="#DejaVuSans-63" x="360.880859"/>
      <use xlink:href="#DejaVuSans-65" x="415.861328"/>
      <use xlink:href="#DejaVuSans-5f" x="477.384766"/>
      <use xlink:href="#DejaVuSans-64" x="527.384766"/>
      <use xlink:href="#DejaVuSans-61" x="590.861328"/>
      <use xlink:href="#DejaVuSans-74" x="652.140625"/>
      <use xlink:href="#DejaVuSans-61" x="691.349609"/>
     </g>
    </g>
    <g id="line2d_19">
     <path d="M 231.370739 188.5375 
L 241.370739 188.5375 
L 251.370739 188.5375 
" style="fill: none; stroke: #0000ff; stroke-width: 1.5; stroke-linecap: square"/>
    </g>
    <g id="text_20">
     <!-- observable -->
     <g transform="translate(259.370739 192.0375) scale(0.1 -0.1)">
      <use xlink:href="#DejaVuSans-6f"/>
      <use xlink:href="#DejaVuSans-62" x="61.181641"/>
      <use xlink:href="#DejaVuSans-73" x="124.658203"/>
      <use xlink:href="#DejaVuSans-65" x="176.757812"/>
      <use xlink:href="#DejaVuSans-72" x="238.28125"/>
      <use xlink:href="#DejaVuSans-76" x="279.394531"/>
      <use xlink:href="#DejaVuSans-61" x="338.574219"/>
      <use xlink:href="#DejaVuSans-62" x="399.853516"/>
      <use xlink:href="#DejaVuSans-6c" x="463.330078"/>
      <use xlink:href="#DejaVuSans-65" x="491.113281"/>
     </g>
    </g>
   </g>
  </g>
  <g id="axes_2">
   <g id="patch_8">
    <path d="M 394.363636 320.4 
L 648 320.4 
L 648 43.2 
L 394.363636 43.2 
z
" style="fill: #ffffff"/>
   </g>
   <g id="matplotlib.axis_3">
    <g id="xtick_8">
     <g id="line2d_20">
      <g>
       <use xlink:href="#m7a03ddc480" x="415.074721" y="320.4" style="stroke: #000000; stroke-width: 0.8"/>
      </g>
     </g>
     <g id="text_21">
      <!-- 0 -->
      <g transform="translate(411.893471 334.998438) scale(0.1 -0.1)">
       <use xlink:href="#DejaVuSans-30"/>
      </g>
     </g>
    </g>
    <g id="xtick_9">
     <g id="line2d_21">
      <g>
       <use xlink:href="#m7a03ddc480" x="450.514633" y="320.4" style="stroke: #000000; stroke-width: 0.8"/>
      </g>
     </g>
     <g id="text_22">
      <!-- 10000 -->
      <g transform="translate(434.608383 334.998438) scale(0.1 -0.1)">
       <use xlink:href="#DejaVuSans-31"/>
       <use xlink:href="#DejaVuSans-30" x="63.623047"/>
       <use xlink:href="#DejaVuSans-30" x="127.246094"/>
       <use xlink:href="#DejaVuSans-30" x="190.869141"/>
       <use xlink:href="#DejaVuSans-30" x="254.492188"/>
      </g>
     </g>
    </g>
    <g id="xtick_10">
     <g id="line2d_22">
      <g>
       <use xlink:href="#m7a03ddc480" x="485.954545" y="320.4" style="stroke: #000000; stroke-width: 0.8"/>
      </g>
     </g>
     <g id="text_23">
      <!-- 20000 -->
      <g transform="translate(470.048295 334.998438) scale(0.1 -0.1)">
       <use xlink:href="#DejaVuSans-32"/>
       <use xlink:href="#DejaVuSans-30" x="63.623047"/>
       <use xlink:href="#DejaVuSans-30" x="127.246094"/>
       <use xlink:href="#DejaVuSans-30" x="190.869141"/>
       <use xlink:href="#DejaVuSans-30" x="254.492188"/>
      </g>
     </g>
    </g>
    <g id="xtick_11">
     <g id="line2d_23">
      <g>
       <use xlink:href="#m7a03ddc480" x="521.394458" y="320.4" style="stroke: #000000; stroke-width: 0.8"/>
      </g>
     </g>
     <g id="text_24">
      <!-- 30000 -->
      <g transform="translate(505.488208 334.998438) scale(0.1 -0.1)">
       <use xlink:href="#DejaVuSans-33"/>
       <use xlink:href="#DejaVuSans-30" x="63.623047"/>
       <use xlink:href="#DejaVuSans-30" x="127.246094"/>
       <use xlink:href="#DejaVuSans-30" x="190.869141"/>
       <use xlink:href="#DejaVuSans-30" x="254.492188"/>
      </g>
     </g>
    </g>
    <g id="xtick_12">
     <g id="line2d_24">
      <g>
       <use xlink:href="#m7a03ddc480" x="556.83437" y="320.4" style="stroke: #000000; stroke-width: 0.8"/>
      </g>
     </g>
     <g id="text_25">
      <!-- 40000 -->
      <g transform="translate(540.92812 334.998438) scale(0.1 -0.1)">
       <use xlink:href="#DejaVuSans-34"/>
       <use xlink:href="#DejaVuSans-30" x="63.623047"/>
       <use xlink:href="#DejaVuSans-30" x="127.246094"/>
       <use xlink:href="#DejaVuSans-30" x="190.869141"/>
       <use xlink:href="#DejaVuSans-30" x="254.492188"/>
      </g>
     </g>
    </g>
    <g id="xtick_13">
     <g id="line2d_25">
      <g>
       <use xlink:href="#m7a03ddc480" x="592.274282" y="320.4" style="stroke: #000000; stroke-width: 0.8"/>
      </g>
     </g>
     <g id="text_26">
      <!-- 50000 -->
      <g transform="translate(576.368032 334.998438) scale(0.1 -0.1)">
       <use xlink:href="#DejaVuSans-35"/>
       <use xlink:href="#DejaVuSans-30" x="63.623047"/>
       <use xlink:href="#DejaVuSans-30" x="127.246094"/>
       <use xlink:href="#DejaVuSans-30" x="190.869141"/>
       <use xlink:href="#DejaVuSans-30" x="254.492188"/>
      </g>
     </g>
    </g>
    <g id="xtick_14">
     <g id="line2d_26">
      <g>
       <use xlink:href="#m7a03ddc480" x="627.714194" y="320.4" style="stroke: #000000; stroke-width: 0.8"/>
      </g>
     </g>
     <g id="text_27">
      <!-- 60000 -->
      <g transform="translate(611.807944 334.998438) scale(0.1 -0.1)">
       <use xlink:href="#DejaVuSans-36"/>
       <use xlink:href="#DejaVuSans-30" x="63.623047"/>
       <use xlink:href="#DejaVuSans-30" x="127.246094"/>
       <use xlink:href="#DejaVuSans-30" x="190.869141"/>
       <use xlink:href="#DejaVuSans-30" x="254.492188"/>
      </g>
     </g>
    </g>
    <g id="text_28">
     <!-- time -->
     <g transform="translate(507.626506 350.19625) scale(0.12 -0.12)">
      <use xlink:href="#DejaVuSans-74"/>
      <use xlink:href="#DejaVuSans-69" x="39.208984"/>
      <use xlink:href="#DejaVuSans-6d" x="66.992188"/>
      <use xlink:href="#DejaVuSans-65" x="164.404297"/>
     </g>
    </g>
   </g>
   <g id="matplotlib.axis_4">
    <g id="ytick_9">
     <g id="line2d_27">
      <g>
       <use xlink:href="#m74ce62e072" x="394.363636" y="275.109528" style="stroke: #000000; stroke-width: 0.8"/>
      </g>
     </g>
     <g id="text_29">
      <!-- $\mathdefault{10^{-5}}$ -->
      <g transform="translate(363.863636 278.908747) scale(0.1 -0.1)">
       <defs>
        <path id="DejaVuSans-2212" d="M 678 2272 
L 4684 2272 
L 4684 1741 
L 678 1741 
L 678 2272 
z
" transform="scale(0.015625)"/>
       </defs>
       <use xlink:href="#DejaVuSans-31" transform="translate(0 0.684375)"/>
       <use xlink:href="#DejaVuSans-30" transform="translate(63.623047 0.684375)"/>
       <use xlink:href="#DejaVuSans-2212" transform="translate(128.203125 38.965625) scale(0.7)"/>
       <use xlink:href="#DejaVuSans-35" transform="translate(186.855469 38.965625) scale(0.7)"/>
      </g>
     </g>
    </g>
    <g id="ytick_10">
     <g id="line2d_28">
      <g>
       <use xlink:href="#m74ce62e072" x="394.363636" y="208.770257" style="stroke: #000000; stroke-width: 0.8"/>
      </g>
     </g>
     <g id="text_30">
      <!-- $\mathdefault{10^{-4}}$ -->
      <g transform="translate(363.863636 212.569476) scale(0.1 -0.1)">
       <use xlink:href="#DejaVuSans-31" transform="translate(0 0.684375)"/>
       <use xlink:href="#DejaVuSans-30" transform="translate(63.623047 0.684375)"/>
       <use xlink:href="#DejaVuSans-2212" transform="translate(128.203125 38.965625) scale(0.7)"/>
       <use xlink:href="#DejaVuSans-34" transform="translate(186.855469 38.965625) scale(0.7)"/>
      </g>
     </g>
    </g>
    <g id="ytick_11">
     <g id="line2d_29">
      <g>
       <use xlink:href="#m74ce62e072" x="394.363636" y="142.430986" style="stroke: #000000; stroke-width: 0.8"/>
      </g>
     </g>
     <g id="text_31">
      <!-- $\mathdefault{10^{-3}}$ -->
      <g transform="translate(363.863636 146.230204) scale(0.1 -0.1)">
       <use xlink:href="#DejaVuSans-31" transform="translate(0 0.765625)"/>
       <use xlink:href="#DejaVuSans-30" transform="translate(63.623047 0.765625)"/>
       <use xlink:href="#DejaVuSans-2212" transform="translate(128.203125 39.046875) scale(0.7)"/>
       <use xlink:href="#DejaVuSans-33" transform="translate(186.855469 39.046875) scale(0.7)"/>
      </g>
     </g>
    </g>
    <g id="ytick_12">
     <g id="line2d_30">
      <g>
       <use xlink:href="#m74ce62e072" x="394.363636" y="76.091714" style="stroke: #000000; stroke-width: 0.8"/>
      </g>
     </g>
     <g id="text_32">
      <!-- $\mathdefault{10^{-2}}$ -->
      <g transform="translate(363.863636 79.890933) scale(0.1 -0.1)">
       <use xlink:href="#DejaVuSans-31" transform="translate(0 0.765625)"/>
       <use xlink:href="#DejaVuSans-30" transform="translate(63.623047 0.765625)"/>
       <use xlink:href="#DejaVuSans-2212" transform="translate(128.203125 39.046875) scale(0.7)"/>
       <use xlink:href="#DejaVuSans-32" transform="translate(186.855469 39.046875) scale(0.7)"/>
      </g>
     </g>
    </g>
    <g id="ytick_13">
     <g id="line2d_31">
      <defs>
       <path id="m3b68d67145" d="M 0 0 
L -2 0 
" style="stroke: #000000; stroke-width: 0.6"/>
      </defs>
      <g>
       <use xlink:href="#m3b68d67145" x="394.363636" y="309.796923" style="stroke: #000000; stroke-width: 0.6"/>
      </g>
     </g>
    </g>
    <g id="ytick_14">
     <g id="line2d_32">
      <g>
       <use xlink:href="#m3b68d67145" x="394.363636" y="301.508578" style="stroke: #000000; stroke-width: 0.6"/>
      </g>
     </g>
    </g>
    <g id="ytick_15">
     <g id="line2d_33">
      <g>
       <use xlink:href="#m3b68d67145" x="394.363636" y="295.079639" style="stroke: #000000; stroke-width: 0.6"/>
      </g>
     </g>
    </g>
    <g id="ytick_16">
     <g id="line2d_34">
      <g>
       <use xlink:href="#m3b68d67145" x="394.363636" y="289.826813" style="stroke: #000000; stroke-width: 0.6"/>
      </g>
     </g>
    </g>
    <g id="ytick_17">
     <g id="line2d_35">
      <g>
       <use xlink:href="#m3b68d67145" x="394.363636" y="285.385611" style="stroke: #000000; stroke-width: 0.6"/>
      </g>
     </g>
    </g>
    <g id="ytick_18">
     <g id="line2d_36">
      <g>
       <use xlink:href="#m3b68d67145" x="394.363636" y="281.538468" style="stroke: #000000; stroke-width: 0.6"/>
      </g>
     </g>
    </g>
    <g id="ytick_19">
     <g id="line2d_37">
      <g>
       <use xlink:href="#m3b68d67145" x="394.363636" y="278.145047" style="stroke: #000000; stroke-width: 0.6"/>
      </g>
     </g>
    </g>
    <g id="ytick_20">
     <g id="line2d_38">
      <g>
       <use xlink:href="#m3b68d67145" x="394.363636" y="255.139418" style="stroke: #000000; stroke-width: 0.6"/>
      </g>
     </g>
    </g>
    <g id="ytick_21">
     <g id="line2d_39">
      <g>
       <use xlink:href="#m3b68d67145" x="394.363636" y="243.457652" style="stroke: #000000; stroke-width: 0.6"/>
      </g>
     </g>
    </g>
    <g id="ytick_22">
     <g id="line2d_40">
      <g>
       <use xlink:href="#m3b68d67145" x="394.363636" y="235.169307" style="stroke: #000000; stroke-width: 0.6"/>
      </g>
     </g>
    </g>
    <g id="ytick_23">
     <g id="line2d_41">
      <g>
       <use xlink:href="#m3b68d67145" x="394.363636" y="228.740367" style="stroke: #000000; stroke-width: 0.6"/>
      </g>
     </g>
    </g>
    <g id="ytick_24">
     <g id="line2d_42">
      <g>
       <use xlink:href="#m3b68d67145" x="394.363636" y="223.487541" style="stroke: #000000; stroke-width: 0.6"/>
      </g>
     </g>
    </g>
    <g id="ytick_25">
     <g id="line2d_43">
      <g>
       <use xlink:href="#m3b68d67145" x="394.363636" y="219.04634" style="stroke: #000000; stroke-width: 0.6"/>
      </g>
     </g>
    </g>
    <g id="ytick_26">
     <g id="line2d_44">
      <g>
       <use xlink:href="#m3b68d67145" x="394.363636" y="215.199197" style="stroke: #000000; stroke-width: 0.6"/>
      </g>
     </g>
    </g>
    <g id="ytick_27">
     <g id="line2d_45">
      <g>
       <use xlink:href="#m3b68d67145" x="394.363636" y="211.805775" style="stroke: #000000; stroke-width: 0.6"/>
      </g>
     </g>
    </g>
    <g id="ytick_28">
     <g id="line2d_46">
      <g>
       <use xlink:href="#m3b68d67145" x="394.363636" y="188.800146" style="stroke: #000000; stroke-width: 0.6"/>
      </g>
     </g>
    </g>
    <g id="ytick_29">
     <g id="line2d_47">
      <g>
       <use xlink:href="#m3b68d67145" x="394.363636" y="177.11838" style="stroke: #000000; stroke-width: 0.6"/>
      </g>
     </g>
    </g>
    <g id="ytick_30">
     <g id="line2d_48">
      <g>
       <use xlink:href="#m3b68d67145" x="394.363636" y="168.830036" style="stroke: #000000; stroke-width: 0.6"/>
      </g>
     </g>
    </g>
    <g id="ytick_31">
     <g id="line2d_49">
      <g>
       <use xlink:href="#m3b68d67145" x="394.363636" y="162.401096" style="stroke: #000000; stroke-width: 0.6"/>
      </g>
     </g>
    </g>
    <g id="ytick_32">
     <g id="line2d_50">
      <g>
       <use xlink:href="#m3b68d67145" x="394.363636" y="157.14827" style="stroke: #000000; stroke-width: 0.6"/>
      </g>
     </g>
    </g>
    <g id="ytick_33">
     <g id="line2d_51">
      <g>
       <use xlink:href="#m3b68d67145" x="394.363636" y="152.707069" style="stroke: #000000; stroke-width: 0.6"/>
      </g>
     </g>
    </g>
    <g id="ytick_34">
     <g id="line2d_52">
      <g>
       <use xlink:href="#m3b68d67145" x="394.363636" y="148.859925" style="stroke: #000000; stroke-width: 0.6"/>
      </g>
     </g>
    </g>
    <g id="ytick_35">
     <g id="line2d_53">
      <g>
       <use xlink:href="#m3b68d67145" x="394.363636" y="145.466504" style="stroke: #000000; stroke-width: 0.6"/>
      </g>
     </g>
    </g>
    <g id="ytick_36">
     <g id="line2d_54">
      <g>
       <use xlink:href="#m3b68d67145" x="394.363636" y="122.460875" style="stroke: #000000; stroke-width: 0.6"/>
      </g>
     </g>
    </g>
    <g id="ytick_37">
     <g id="line2d_55">
      <g>
       <use xlink:href="#m3b68d67145" x="394.363636" y="110.779109" style="stroke: #000000; stroke-width: 0.6"/>
      </g>
     </g>
    </g>
    <g id="ytick_38">
     <g id="line2d_56">
      <g>
       <use xlink:href="#m3b68d67145" x="394.363636" y="102.490764" style="stroke: #000000; stroke-width: 0.6"/>
      </g>
     </g>
    </g>
    <g id="ytick_39">
     <g id="line2d_57">
      <g>
       <use xlink:href="#m3b68d67145" x="394.363636" y="96.061825" style="stroke: #000000; stroke-width: 0.6"/>
      </g>
     </g>
    </g>
    <g id="ytick_40">
     <g id="line2d_58">
      <g>
       <use xlink:href="#m3b68d67145" x="394.363636" y="90.808999" style="stroke: #000000; stroke-width: 0.6"/>
      </g>
     </g>
    </g>
    <g id="ytick_41">
     <g id="line2d_59">
      <g>
       <use xlink:href="#m3b68d67145" x="394.363636" y="86.367797" style="stroke: #000000; stroke-width: 0.6"/>
      </g>
     </g>
    </g>
    <g id="ytick_42">
     <g id="line2d_60">
      <g>
       <use xlink:href="#m3b68d67145" x="394.363636" y="82.520654" style="stroke: #000000; stroke-width: 0.6"/>
      </g>
     </g>
    </g>
    <g id="ytick_43">
     <g id="line2d_61">
      <g>
       <use xlink:href="#m3b68d67145" x="394.363636" y="79.127233" style="stroke: #000000; stroke-width: 0.6"/>
      </g>
     </g>
    </g>
    <g id="ytick_44">
     <g id="line2d_62">
      <g>
       <use xlink:href="#m3b68d67145" x="394.363636" y="56.121604" style="stroke: #000000; stroke-width: 0.6"/>
      </g>
     </g>
    </g>
    <g id="ytick_45">
     <g id="line2d_63">
      <g>
       <use xlink:href="#m3b68d67145" x="394.363636" y="44.439838" style="stroke: #000000; stroke-width: 0.6"/>
      </g>
     </g>
    </g>
    <g id="text_33">
     <!-- [Cve_los] -->
     <g transform="translate(357.034261 209.378437) rotate(-90) scale(0.12 -0.12)">
      <use xlink:href="#DejaVuSans-5b"/>
      <use xlink:href="#DejaVuSans-43" x="39.013672"/>
      <use xlink:href="#DejaVuSans-76" x="108.837891"/>
      <use xlink:href="#DejaVuSans-65" x="168.017578"/>
      <use xlink:href="#DejaVuSans-5f" x="229.541016"/>
      <use xlink:href="#DejaVuSans-6c" x="279.541016"/>
      <use xlink:href="#DejaVuSans-6f" x="307.324219"/>
      <use xlink:href="#DejaVuSans-73" x="368.505859"/>
      <use xlink:href="#DejaVuSans-5d" x="420.605469"/>
     </g>
    </g>
   </g>
   <g id="line2d_64">
    <g clip-path="url(#p7c78f2cf23)">
     <use xlink:href="#m4491c6f786" x="415.5" y="199.570566" style="stroke: #000000; stroke-linejoin: miter"/>
     <use xlink:href="#m4491c6f786" x="415.925279" y="223.828956" style="stroke: #000000; stroke-linejoin: miter"/>
     <use xlink:href="#m4491c6f786" x="416.350558" y="237.690894" style="stroke: #000000; stroke-linejoin: miter"/>
     <use xlink:href="#m4491c6f786" x="416.775837" y="255.760919" style="stroke: #000000; stroke-linejoin: miter"/>
     <use xlink:href="#m4491c6f786" x="417.626395" y="285.712605" style="stroke: #000000; stroke-linejoin: miter"/>
     <use xlink:href="#m4491c6f786" x="624.737242" y="199.977743" style="stroke: #000000; stroke-linejoin: miter"/>
     <use xlink:href="#m4491c6f786" x="625.162521" y="223.291607" style="stroke: #000000; stroke-linejoin: miter"/>
     <use xlink:href="#m4491c6f786" x="625.5878" y="235.503085" style="stroke: #000000; stroke-linejoin: miter"/>
     <use xlink:href="#m4491c6f786" x="626.013078" y="255.838441" style="stroke: #000000; stroke-linejoin: miter"/>
     <use xlink:href="#m4491c6f786" x="626.863636" y="283.782296" style="stroke: #000000; stroke-linejoin: miter"/>
    </g>
   </g>
   <g id="line2d_65">
    <path d="M 415.083936 361 
L 415.208908 198.2929 
L 415.287596 192.586669 
L 415.335414 193.92752 
L 415.504894 208.908597 
L 416.037546 255.403731 
L 416.34019 263.985569 
L 416.722001 268.624818 
L 417.962596 279.410293 
L 420.178943 299.236513 
L 420.185481 297.51379 
L 420.392272 191.899872 
L 420.441179 193.334811 
L 420.607155 207.677212 
L 421.104965 249.460425 
L 421.406668 258.03714 
L 421.798881 262.793048 
L 423.081118 273.926434 
L 425.281416 292.722339 
L 425.282287 293.79108 
L 425.389684 203.196348 
L 425.493543 191.753687 
L 425.535705 192.770731 
L 425.686534 204.977134 
L 426.233003 249.698012 
L 426.532259 257.414335 
L 426.935605 262.071836 
L 428.460999 275.246946 
L 430.384763 291.677239 
L 430.385623 292.725248 
L 430.494097 202.841163 
L 430.596613 191.722586 
L 430.639442 192.756242 
L 430.78876 204.817482 
L 431.334522 249.44562 
L 431.640681 257.28154 
L 432.053331 261.983684 
L 433.668059 275.909907 
L 435.489011 292.01625 
L 435.49534 290.771105 
L 435.701703 191.70434 
L 435.78135 194.95077 
L 436.07469 223.779986 
L 436.446806 249.680263 
L 436.750011 257.229206 
L 437.163473 261.895232 
L 438.849193 276.422404 
L 440.591458 291.306068 
L 440.592307 292.506796 
L 440.701886 202.521104 
L 440.805531 191.720502 
L 440.846624 192.771244 
L 440.99948 205.217719 
L 441.532594 249.053623 
L 441.83247 256.998807 
L 442.232305 261.678474 
L 443.665636 274.07675 
L 445.694805 291.411686 
L 445.695696 292.780458 
L 445.805737 202.392234 
L 445.907746 191.725591 
L 445.95196 192.869709 
L 446.101164 205.060144 
L 446.636836 249.137043 
L 446.939009 257.106086 
L 447.33733 261.752179 
L 448.787746 274.295304 
L 450.799019 291.495632 
L 450.804694 290.581371 
L 451.011305 191.687351 
L 451.115018 196.69723 
L 451.924041 254.594831 
L 452.259208 259.660381 
L 452.964213 266.091396 
L 455.90239 291.38615 
L 455.907882 290.538799 
L 456.108945 191.692396 
L 456.220881 196.895369 
L 457.018217 254.3638 
L 457.356071 259.565911 
L 458.058808 265.992139 
L 461.005741 291.24914 
L 461.011251 290.39782 
L 461.213033 191.684628 
L 461.320769 196.613335 
L 462.139904 254.748129 
L 462.486996 259.833207 
L 463.250597 266.720733 
L 466.108195 291.136724 
L 466.109055 292.232851 
L 466.216281 203.181441 
L 466.320331 191.708138 
L 466.358417 192.552421 
L 466.492687 202.842937 
L 467.068384 249.77657 
L 467.367746 257.237585 
L 467.782247 261.929689 
L 469.440035 276.219351 
L 471.212461 291.845417 
L 471.218604 290.688747 
L 471.424233 191.697159 
L 471.512835 195.517564 
L 472.41831 256.281349 
L 472.804468 261.080165 
L 473.976258 271.290015 
L 476.315774 291.829215 
L 476.322125 290.589194 
L 476.522132 191.707087 
L 476.602758 194.58144 
L 476.863817 219.952771 
L 477.255546 248.917969 
L 477.55272 256.807708 
L 477.957956 261.553942 
L 479.424856 274.236378 
L 481.419144 291.646132 
L 481.425549 290.376276 
L 481.626925 191.694899 
L 481.707952 194.6985 
L 481.970554 220.287968 
L 482.351035 248.554757 
L 482.649985 256.669382 
L 483.044056 261.351565 
L 484.38933 273.009923 
L 486.522481 291.927968 
L 486.528853 290.667247 
L 486.729436 191.706962 
L 486.810277 194.639405 
L 487.072021 220.115142 
L 487.464776 249.040216 
L 487.762728 256.882185 
L 488.169026 261.616324 
L 489.661259 274.511663 
L 491.625827 291.801029 
L 491.63208 290.604862 
L 491.836417 191.694736 
L 491.916821 194.850931 
L 492.205444 223.158192 
L 492.579993 249.499125 
L 492.886443 257.178408 
L 493.312067 261.957275 
L 495.101105 277.358932 
L 496.729318 291.593888 
L 496.735506 290.368234 
L 496.937271 191.692236 
L 497.015733 194.546281 
L 497.278648 220.084059 
L 497.67267 249.031785 
L 497.974753 256.89871 
L 498.381909 261.60172 
L 499.907909 274.780181 
L 501.832504 291.802513 
L 501.83886 290.564444 
L 502.045439 191.69849 
L 502.12632 195.044636 
L 502.439394 225.840494 
L 502.802339 250.104644 
L 503.102163 257.316693 
L 503.528229 262.044579 
L 505.418276 278.30312 
L 506.935847 292.134037 
L 506.942843 290.541066 
L 507.148151 191.706831 
L 507.205636 193.539419 
L 507.399585 211.108909 
L 507.857168 248.175426 
L 508.156963 256.605602 
L 508.551432 261.368059 
L 509.861065 272.731453 
L 512.039206 292.11091 
L 512.04555 290.861674 
L 512.24572 191.714777 
L 512.326569 194.615828 
L 512.588005 220.050749 
L 512.98026 249.019709 
L 513.277832 256.89334 
L 513.683613 261.635593 
L 515.152777 274.335812 
L 517.142561 291.435101 
L 517.148071 290.578372 
L 517.350799 191.686954 
L 517.459293 196.755848 
L 518.264598 254.515866 
L 518.597827 259.593895 
L 519.305939 266.062716 
L 522.245883 291.210224 
L 522.25095 290.531536 
L 522.298724 232.171125 
L 522.45226 191.687999 
L 522.459966 191.684587 
L 522.467673 191.75502 
L 522.529581 194.345435 
L 522.776042 218.055288 
L 523.170784 248.175971 
L 523.470787 256.478273 
L 523.865528 261.205875 
L 525.207648 272.841725 
L 527.348363 291.12846 
L 527.349231 292.495384 
L 527.4567 203.119598 
L 527.560905 191.716463 
L 527.599043 192.579077 
L 527.732964 202.86458 
L 528.316792 250.140203 
L 528.616595 257.425111 
L 529.042631 262.172092 
L 530.891914 278.08441 
L 532.452604 291.89342 
L 532.458981 290.632903 
L 532.660143 191.703405 
L 532.74133 194.700255 
L 533.003958 220.298782 
L 533.384424 248.593436 
L 533.683362 256.719011 
L 534.077417 261.404113 
L 535.422639 273.062426 
L 537.555964 291.727185 
L 537.562371 290.453107 
L 537.764335 191.695496 
L 537.8458 194.770418 
L 538.12263 221.849928 
L 538.497143 248.959752 
L 538.802302 256.938837 
L 539.204557 261.592104 
L 540.719042 274.675649 
L 542.659319 291.430996 
L 542.664864 290.55197 
L 542.868586 191.684414 
L 542.982091 197.24843 
L 543.762043 254.063986 
L 544.090443 259.325362 
L 544.733561 265.295293 
L 547.762637 291.358317 
L 547.767709 290.668267 
L 547.818862 229.242543 
L 547.969057 191.692259 
L 547.976763 191.689445 
L 547.984469 191.760428 
L 548.046395 194.355346 
L 548.292968 218.085173 
L 548.688009 248.222791 
L 548.98824 256.521383 
L 549.383282 261.248048 
L 550.726421 272.891831 
L 552.866007 291.234588 
L 552.871552 290.364253 
L 553.075488 191.678033 
L 553.189111 197.268092 
L 553.95621 253.716968 
L 554.284967 259.144498 
L 554.915084 265.034934 
L 557.969348 292.229995 
L 557.975719 290.954124 
L 558.176674 191.714408 
L 558.257906 194.700441 
L 558.520105 220.262445 
L 558.907366 248.913876 
L 559.211643 256.977667 
L 559.612735 261.651712 
L 561.079406 274.331615 
L 563.072663 291.375374 
L 563.077728 290.692791 
L 563.12548 232.213328 
L 563.278951 191.693612 
L 563.286654 191.689295 
L 563.294357 191.758849 
L 563.35626 194.344548 
L 563.602849 218.0696 
L 563.998052 248.225744 
L 564.298406 256.527026 
L 564.693608 261.254489 
L 566.037296 272.902711 
L 568.176047 291.323656 
L 568.181586 290.453766 
L 568.38537 191.681024 
L 568.498972 197.256431 
L 569.265726 253.721429 
L 569.594335 259.156103 
L 570.224169 265.046341 
L 573.279394 292.221084 
L 573.286319 290.645822 
L 573.493541 191.715906 
L 573.545912 193.365012 
L 573.729637 209.690847 
L 574.20313 248.29813 
L 574.500754 256.628059 
L 574.893076 261.368864 
L 576.17827 272.525402 
L 578.382751 291.569756 
L 578.38829 290.688526 
L 578.591919 191.688848 
L 578.70548 197.249871 
L 579.485433 254.090515 
L 579.813834 259.354864 
L 580.456953 265.325409 
L 583.486068 291.456831 
L 583.491798 290.514073 
L 583.700121 191.692153 
L 583.804851 196.921054 
L 584.601556 254.369977 
L 584.933667 259.514312 
L 585.613702 265.760275 
L 588.589434 291.446148 
L 588.594964 290.577005 
L 588.79851 191.685232 
L 588.912061 197.236116 
L 589.691921 254.061017 
L 590.020283 259.325408 
L 590.663325 265.2955 
L 593.692763 291.423721 
L 593.698495 290.480883 
L 593.906906 191.691537 
L 594.011683 196.930987 
L 594.808527 254.369732 
L 595.140688 259.510748 
L 595.820829 265.756712 
L 598.796127 291.516554 
L 598.801652 290.648068 
L 599.00504 191.687726 
L 599.118548 197.221473 
L 599.897988 254.059827 
L 600.226173 259.331545 
L 600.868869 265.301053 
L 603.899459 291.305815 
L 603.904538 290.614562 
L 603.95576 229.172391 
L 604.10614 191.689251 
L 604.121568 191.762653 
L 604.183583 194.377238 
L 604.430448 218.150148 
L 604.8259 248.260349 
L 605.126443 256.533603 
L 605.521895 261.253542 
L 606.866432 272.907503 
L 609.002819 291.608499 
L 609.009225 290.34416 
L 609.211461 191.691171 
L 609.293083 194.794968 
L 609.570786 221.971679 
L 609.953303 249.318439 
L 610.253852 256.988549 
L 610.663692 261.680767 
L 612.26368 275.485049 
L 614.106169 291.349644 
L 614.111792 290.447293 
L 614.314023 191.685529 
L 614.427948 197.162685 
L 615.209705 254.067017 
L 615.547073 259.417076 
L 616.221808 265.633658 
L 619.20951 292.144651 
L 619.215876 290.877901 
L 619.416969 191.71132 
L 619.498326 194.714562 
L 619.76063 220.292966 
L 620.147994 248.918621 
L 620.452352 256.968868 
L 620.85355 261.639483 
L 622.320777 274.323496 
L 624.311963 291.334583 
L 624.312814 292.574819 
L 624.420101 203.18135 
L 624.524189 191.718429 
L 624.562286 192.566927 
L 624.696145 202.826552 
L 625.280711 250.166193 
L 625.580893 257.45202 
L 626.007468 262.200351 
L 627.86064 278.145167 
L 629.62795 293.243709 
L 629.62795 293.243709 
" clip-path="url(#p7c78f2cf23)" style="fill: none; stroke: #0000ff; stroke-width: 1.5; stroke-linecap: square"/>
   </g>
   <g id="patch_9">
    <path d="M 394.363636 320.4 
L 394.363636 43.2 
" style="fill: none; stroke: #000000; stroke-width: 0.8; stroke-linejoin: miter; stroke-linecap: square"/>
   </g>
   <g id="patch_10">
    <path d="M 648 320.4 
L 648 43.2 
" style="fill: none; stroke: #000000; stroke-width: 0.8; stroke-linejoin: miter; stroke-linecap: square"/>
   </g>
   <g id="patch_11">
    <path d="M 394.363636 320.4 
L 648 320.4 
" style="fill: none; stroke: #000000; stroke-width: 0.8; stroke-linejoin: miter; stroke-linecap: square"/>
   </g>
   <g id="patch_12">
    <path d="M 394.363636 43.2 
L 648 43.2 
" style="fill: none; stroke: #000000; stroke-width: 0.8; stroke-linejoin: miter; stroke-linecap: square"/>
   </g>
   <g id="text_34">
    <!-- Goldberg1995a fm_po_LOS25_losartan -->
    <g transform="translate(385.276818 37.2) scale(0.14 -0.14)">
     <use xlink:href="#DejaVuSans-47"/>
     <use xlink:href="#DejaVuSans-6f" x="77.490234"/>
     <use xlink:href="#DejaVuSans-6c" x="138.671875"/>
     <use xlink:href="#DejaVuSans-64" x="166.455078"/>
     <use xlink:href="#DejaVuSans-62" x="229.931641"/>
     <use xlink:href="#DejaVuSans-65" x="293.408203"/>
     <use xlink:href="#DejaVuSans-72" x="354.931641"/>
     <use xlink:href="#DejaVuSans-67" x="394.294922"/>
     <use xlink:href="#DejaVuSans-31" x="457.771484"/>
     <use xlink:href="#DejaVuSans-39" x="521.394531"/>
     <use xlink:href="#DejaVuSans-39" x="585.017578"/>
     <use xlink:href="#DejaVuSans-35" x="648.640625"/>
     <use xlink:href="#DejaVuSans-61" x="712.263672"/>
     <use xlink:href="#DejaVuSans-20" x="773.542969"/>
     <use xlink:href="#DejaVuSans-66" x="805.330078"/>
     <use xlink:href="#DejaVuSans-6d" x="840.535156"/>
     <use xlink:href="#DejaVuSans-5f" x="937.947266"/>
     <use xlink:href="#DejaVuSans-70" x="987.947266"/>
     <use xlink:href="#DejaVuSans-6f" x="1051.423828"/>
     <use xlink:href="#DejaVuSans-5f" x="1112.605469"/>
     <use xlink:href="#DejaVuSans-4c" x="1162.605469"/>
     <use xlink:href="#DejaVuSans-4f" x="1214.693359"/>
     <use xlink:href="#DejaVuSans-53" x="1293.404297"/>
     <use xlink:href="#DejaVuSans-32" x="1356.880859"/>
     <use xlink:href="#DejaVuSans-35" x="1420.503906"/>
     <use xlink:href="#DejaVuSans-5f" x="1484.126953"/>
     <use xlink:href="#DejaVuSans-6c" x="1534.126953"/>
     <use xlink:href="#DejaVuSans-6f" x="1561.910156"/>
     <use xlink:href="#DejaVuSans-73" x="1623.091797"/>
     <use xlink:href="#DejaVuSans-61" x="1675.191406"/>
     <use xlink:href="#DejaVuSans-72" x="1736.470703"/>
     <use xlink:href="#DejaVuSans-74" x="1777.583984"/>
     <use xlink:href="#DejaVuSans-61" x="1816.792969"/>
     <use xlink:href="#DejaVuSans-6e" x="1878.072266"/>
    </g>
   </g>
   <g id="legend_2">
    <g id="patch_13">
     <path d="M 533.734375 80.834375 
L 641 80.834375 
Q 643 80.834375 643 78.834375 
L 643 50.2 
Q 643 48.2 641 48.2 
L 533.734375 48.2 
Q 531.734375 48.2 531.734375 50.2 
L 531.734375 78.834375 
Q 531.734375 80.834375 533.734375 80.834375 
z
" style="fill: #ffffff; opacity: 0.8; stroke: #cccccc; stroke-linejoin: miter"/>
    </g>
    <g id="line2d_66">
     <g>
      <use xlink:href="#m4491c6f786" x="545.734375" y="56.298437" style="stroke: #000000; stroke-linejoin: miter"/>
     </g>
    </g>
    <g id="text_35">
     <!-- reference_data -->
     <g transform="translate(563.734375 59.798437) scale(0.1 -0.1)">
      <use xlink:href="#DejaVuSans-72"/>
      <use xlink:href="#DejaVuSans-65" x="38.863281"/>
      <use xlink:href="#DejaVuSans-66" x="100.386719"/>
      <use xlink:href="#DejaVuSans-65" x="135.591797"/>
      <use xlink:href="#DejaVuSans-72" x="197.115234"/>
      <use xlink:href="#DejaVuSans-65" x="235.978516"/>
      <use xlink:href="#DejaVuSans-6e" x="297.501953"/>
      <use xlink:href="#DejaVuSans-63" x="360.880859"/>
      <use xlink:href="#DejaVuSans-65" x="415.861328"/>
      <use xlink:href="#DejaVuSans-5f" x="477.384766"/>
      <use xlink:href="#DejaVuSans-64" x="527.384766"/>
      <use xlink:href="#DejaVuSans-61" x="590.861328"/>
      <use xlink:href="#DejaVuSans-74" x="652.140625"/>
      <use xlink:href="#DejaVuSans-61" x="691.349609"/>
     </g>
    </g>
    <g id="line2d_67">
     <path d="M 535.734375 71.254687 
L 545.734375 71.254687 
L 555.734375 71.254687 
" style="fill: none; stroke: #0000ff; stroke-width: 1.5; stroke-linecap: square"/>
    </g>
    <g id="text_36">
     <!-- observable -->
     <g transform="translate(563.734375 74.754687) scale(0.1 -0.1)">
      <use xlink:href="#DejaVuSans-6f"/>
      <use xlink:href="#DejaVuSans-62" x="61.181641"/>
      <use xlink:href="#DejaVuSans-73" x="124.658203"/>
      <use xlink:href="#DejaVuSans-65" x="176.757812"/>
      <use xlink:href="#DejaVuSans-72" x="238.28125"/>
      <use xlink:href="#DejaVuSans-76" x="279.394531"/>
      <use xlink:href="#DejaVuSans-61" x="338.574219"/>
      <use xlink:href="#DejaVuSans-62" x="399.853516"/>
      <use xlink:href="#DejaVuSans-6c" x="463.330078"/>
      <use xlink:href="#DejaVuSans-65" x="491.113281"/>
     </g>
    </g>
   </g>
  </g>
 </g>
 <defs>
  <clipPath id="p2485870384">
   <rect x="90" y="43.2" width="253.636364" height="277.2"/>
  </clipPath>
  <clipPath id="p7c78f2cf23">
   <rect x="394.363636" y="43.2" width="253.636364" height="277.2"/>
  </clipPath>
 </defs>
</svg>
