<?xml version="1.0" encoding="utf-8" standalone="no"?>
<!DOCTYPE svg PUBLIC "-//W3C//DTD SVG 1.1//EN"
  "http://www.w3.org/Graphics/SVG/1.1/DTD/svg11.dtd">
<svg xmlns:xlink="http://www.w3.org/1999/xlink" width="494.918094pt" height="370.537812pt" viewBox="0 0 494.918094 370.537812" xmlns="http://www.w3.org/2000/svg" version="1.1">
 <metadata>
  <rdf:RDF xmlns:dc="http://purl.org/dc/elements/1.1/" xmlns:cc="http://creativecommons.org/ns#" xmlns:rdf="http://www.w3.org/1999/02/22-rdf-syntax-ns#">
   <cc:Work>
    <dc:type rdf:resource="http://purl.org/dc/dcmitype/StillImage"/>
    <dc:date>2026-01-11T14:44:41.452857</dc:date>
    <dc:format>image/svg+xml</dc:format>
    <dc:creator>
     <cc:Agent>
      <dc:title>Matplotlib v3.10.8, https://matplotlib.org/</dc:title>
     </cc:Agent>
    </dc:creator>
   </cc:Work>
  </rdf:RDF>
 </metadata>
 <defs>
  <style type="text/css">*{stroke-linejoin: round; stroke-linecap: butt}</style>
 </defs>
 <g id="figure_1">
  <g id="patch_1">
   <path d="M 0 370.537812 
L 494.918094 370.537812 
L 494.918094 0 
L 0 0 
z
" style="fill: #ffffff"/>
  </g>
  <g id="axes_1">
   <g id="patch_2">
    <path d="M 97.118094 320.4 
L 487.718094 320.4 
L 487.718094 43.2 
L 97.118094 43.2 
z
" style="fill: #ffffff"/>
   </g>
   <g id="matplotlib.axis_1">
    <g id="xtick_1">
     <g id="line2d_1">
      <defs>
       <path id="m10d01c08c9" d="M 0 0 
L 0 3.5 
" style="stroke: #000000; stroke-width: 0.8"/>
      </defs>
      <g>
       <use xlink:href="#m10d01c08c9" x="114.872639" y="320.4" style="stroke: #000000; stroke-width: 0.8"/>
      </g>
     </g>
     <g id="text_1">
      <!-- 0 -->
      <g transform="translate(110.100764 338.797656) scale(0.15 -0.15)">
       <defs>
        <path id="DejaVuSans-30" d="M 2034 4250 
Q 1547 4250 1301 3770 
Q 1056 3291 1056 2328 
Q 1056 1369 1301 889 
Q 1547 409 2034 409 
Q 2525 409 2770 889 
Q 3016 1369 3016 2328 
Q 3016 3291 2770 3770 
Q 2525 4250 2034 4250 
z
M 2034 4750 
Q 2819 4750 3233 4129 
Q 3647 3509 3647 2328 
Q 3647 1150 3233 529 
Q 2819 -91 2034 -91 
Q 1250 -91 836 529 
Q 422 1150 422 2328 
Q 422 3509 836 4129 
Q 1250 4750 2034 4750 
z
" transform="scale(0.015625)"/>
       </defs>
       <use xlink:href="#DejaVuSans-30"/>
      </g>
     </g>
    </g>
    <g id="xtick_2">
     <g id="line2d_2">
      <g>
       <use xlink:href="#m10d01c08c9" x="164.190821" y="320.4" style="stroke: #000000; stroke-width: 0.8"/>
      </g>
     </g>
     <g id="text_2">
      <!-- 5 -->
      <g transform="translate(159.418946 338.797656) scale(0.15 -0.15)">
       <defs>
        <path id="DejaVuSans-35" d="M 691 4666 
L 3169 4666 
L 3169 4134 
L 1269 4134 
L 1269 2991 
Q 1406 3038 1543 3061 
Q 1681 3084 1819 3084 
Q 2600 3084 3056 2656 
Q 3513 2228 3513 1497 
Q 3513 744 3044 326 
Q 2575 -91 1722 -91 
Q 1428 -91 1123 -41 
Q 819 9 494 109 
L 494 744 
Q 775 591 1075 516 
Q 1375 441 1709 441 
Q 2250 441 2565 725 
Q 2881 1009 2881 1497 
Q 2881 1984 2565 2268 
Q 2250 2553 1709 2553 
Q 1456 2553 1204 2497 
Q 953 2441 691 2322 
L 691 4666 
z
" transform="scale(0.015625)"/>
       </defs>
       <use xlink:href="#DejaVuSans-35"/>
      </g>
     </g>
    </g>
    <g id="xtick_3">
     <g id="line2d_3">
      <g>
       <use xlink:href="#m10d01c08c9" x="213.509003" y="320.4" style="stroke: #000000; stroke-width: 0.8"/>
      </g>
     </g>
     <g id="text_3">
      <!-- 10 -->
      <g transform="translate(203.965253 338.797656) scale(0.15 -0.15)">
       <defs>
        <path id="DejaVuSans-31" d="M 794 531 
L 1825 531 
L 1825 4091 
L 703 3866 
L 703 4441 
L 1819 4666 
L 2450 4666 
L 2450 531 
L 3481 531 
L 3481 0 
L 794 0 
L 794 531 
z
" transform="scale(0.015625)"/>
       </defs>
       <use xlink:href="#DejaVuSans-31"/>
       <use xlink:href="#DejaVuSans-30" transform="translate(63.623047 0)"/>
      </g>
     </g>
    </g>
    <g id="xtick_4">
     <g id="line2d_4">
      <g>
       <use xlink:href="#m10d01c08c9" x="262.827185" y="320.4" style="stroke: #000000; stroke-width: 0.8"/>
      </g>
     </g>
     <g id="text_4">
      <!-- 15 -->
      <g transform="translate(253.283435 338.797656) scale(0.15 -0.15)">
       <use xlink:href="#DejaVuSans-31"/>
       <use xlink:href="#DejaVuSans-35" transform="translate(63.623047 0)"/>
      </g>
     </g>
    </g>
    <g id="xtick_5">
     <g id="line2d_5">
      <g>
       <use xlink:href="#m10d01c08c9" x="312.145366" y="320.4" style="stroke: #000000; stroke-width: 0.8"/>
      </g>
     </g>
     <g id="text_5">
      <!-- 20 -->
      <g transform="translate(302.601616 338.797656) scale(0.15 -0.15)">
       <defs>
        <path id="DejaVuSans-32" d="M 1228 531 
L 3431 531 
L 3431 0 
L 469 0 
L 469 531 
Q 828 903 1448 1529 
Q 2069 2156 2228 2338 
Q 2531 2678 2651 2914 
Q 2772 3150 2772 3378 
Q 2772 3750 2511 3984 
Q 2250 4219 1831 4219 
Q 1534 4219 1204 4116 
Q 875 4013 500 3803 
L 500 4441 
Q 881 4594 1212 4672 
Q 1544 4750 1819 4750 
Q 2544 4750 2975 4387 
Q 3406 4025 3406 3419 
Q 3406 3131 3298 2873 
Q 3191 2616 2906 2266 
Q 2828 2175 2409 1742 
Q 1991 1309 1228 531 
z
" transform="scale(0.015625)"/>
       </defs>
       <use xlink:href="#DejaVuSans-32"/>
       <use xlink:href="#DejaVuSans-30" transform="translate(63.623047 0)"/>
      </g>
     </g>
    </g>
    <g id="xtick_6">
     <g id="line2d_6">
      <g>
       <use xlink:href="#m10d01c08c9" x="361.463548" y="320.4" style="stroke: #000000; stroke-width: 0.8"/>
      </g>
     </g>
     <g id="text_6">
      <!-- 25 -->
      <g transform="translate(351.919798 338.797656) scale(0.15 -0.15)">
       <use xlink:href="#DejaVuSans-32"/>
       <use xlink:href="#DejaVuSans-35" transform="translate(63.623047 0)"/>
      </g>
     </g>
    </g>
    <g id="xtick_7">
     <g id="line2d_7">
      <g>
       <use xlink:href="#m10d01c08c9" x="410.78173" y="320.4" style="stroke: #000000; stroke-width: 0.8"/>
      </g>
     </g>
     <g id="text_7">
      <!-- 30 -->
      <g transform="translate(401.23798 338.797656) scale(0.15 -0.15)">
       <defs>
        <path id="DejaVuSans-33" d="M 2597 2516 
Q 3050 2419 3304 2112 
Q 3559 1806 3559 1356 
Q 3559 666 3084 287 
Q 2609 -91 1734 -91 
Q 1441 -91 1130 -33 
Q 819 25 488 141 
L 488 750 
Q 750 597 1062 519 
Q 1375 441 1716 441 
Q 2309 441 2620 675 
Q 2931 909 2931 1356 
Q 2931 1769 2642 2001 
Q 2353 2234 1838 2234 
L 1294 2234 
L 1294 2753 
L 1863 2753 
Q 2328 2753 2575 2939 
Q 2822 3125 2822 3475 
Q 2822 3834 2567 4026 
Q 2313 4219 1838 4219 
Q 1578 4219 1281 4162 
Q 984 4106 628 3988 
L 628 4550 
Q 988 4650 1302 4700 
Q 1616 4750 1894 4750 
Q 2613 4750 3031 4423 
Q 3450 4097 3450 3541 
Q 3450 3153 3228 2886 
Q 3006 2619 2597 2516 
z
" transform="scale(0.015625)"/>
       </defs>
       <use xlink:href="#DejaVuSans-33"/>
       <use xlink:href="#DejaVuSans-30" transform="translate(63.623047 0)"/>
      </g>
     </g>
    </g>
    <g id="xtick_8">
     <g id="line2d_8">
      <g>
       <use xlink:href="#m10d01c08c9" x="460.099912" y="320.4" style="stroke: #000000; stroke-width: 0.8"/>
      </g>
     </g>
     <g id="text_8">
      <!-- 35 -->
      <g transform="translate(450.556162 338.797656) scale(0.15 -0.15)">
       <use xlink:href="#DejaVuSans-33"/>
       <use xlink:href="#DejaVuSans-35" transform="translate(63.623047 0)"/>
      </g>
     </g>
    </g>
    <g id="text_9">
     <!-- Time [hr] -->
     <g transform="translate(245.505594 359.594375) scale(0.18 -0.18)">
      <defs>
       <path id="DejaVuSans-Bold-54" d="M 31 4666 
L 4331 4666 
L 4331 3756 
L 2784 3756 
L 2784 0 
L 1581 0 
L 1581 3756 
L 31 3756 
L 31 4666 
z
" transform="scale(0.015625)"/>
       <path id="DejaVuSans-Bold-69" d="M 538 3500 
L 1656 3500 
L 1656 0 
L 538 0 
L 538 3500 
z
M 538 4863 
L 1656 4863 
L 1656 3950 
L 538 3950 
L 538 4863 
z
" transform="scale(0.015625)"/>
       <path id="DejaVuSans-Bold-6d" d="M 3781 2919 
Q 3994 3244 4286 3414 
Q 4578 3584 4928 3584 
Q 5531 3584 5847 3212 
Q 6163 2841 6163 2131 
L 6163 0 
L 5038 0 
L 5038 1825 
Q 5041 1866 5042 1909 
Q 5044 1953 5044 2034 
Q 5044 2406 4934 2573 
Q 4825 2741 4581 2741 
Q 4263 2741 4089 2478 
Q 3916 2216 3909 1719 
L 3909 0 
L 2784 0 
L 2784 1825 
Q 2784 2406 2684 2573 
Q 2584 2741 2328 2741 
Q 2006 2741 1831 2477 
Q 1656 2213 1656 1722 
L 1656 0 
L 531 0 
L 531 3500 
L 1656 3500 
L 1656 2988 
Q 1863 3284 2130 3434 
Q 2397 3584 2719 3584 
Q 3081 3584 3359 3409 
Q 3638 3234 3781 2919 
z
" transform="scale(0.015625)"/>
       <path id="DejaVuSans-Bold-65" d="M 4031 1759 
L 4031 1441 
L 1416 1441 
Q 1456 1047 1700 850 
Q 1944 653 2381 653 
Q 2734 653 3104 758 
Q 3475 863 3866 1075 
L 3866 213 
Q 3469 63 3072 -14 
Q 2675 -91 2278 -91 
Q 1328 -91 801 392 
Q 275 875 275 1747 
Q 275 2603 792 3093 
Q 1309 3584 2216 3584 
Q 3041 3584 3536 3087 
Q 4031 2591 4031 1759 
z
M 2881 2131 
Q 2881 2450 2695 2645 
Q 2509 2841 2209 2841 
Q 1884 2841 1681 2658 
Q 1478 2475 1428 2131 
L 2881 2131 
z
" transform="scale(0.015625)"/>
       <path id="DejaVuSans-Bold-20" transform="scale(0.015625)"/>
       <path id="DejaVuSans-Bold-5b" d="M 550 4863 
L 2491 4863 
L 2491 4159 
L 1613 4159 
L 1613 -141 
L 2491 -141 
L 2491 -844 
L 550 -844 
L 550 4863 
z
" transform="scale(0.015625)"/>
       <path id="DejaVuSans-Bold-68" d="M 4056 2131 
L 4056 0 
L 2931 0 
L 2931 347 
L 2931 1625 
Q 2931 2084 2911 2256 
Q 2891 2428 2841 2509 
Q 2775 2619 2662 2680 
Q 2550 2741 2406 2741 
Q 2056 2741 1856 2470 
Q 1656 2200 1656 1722 
L 1656 0 
L 538 0 
L 538 4863 
L 1656 4863 
L 1656 2988 
Q 1909 3294 2193 3439 
Q 2478 3584 2822 3584 
Q 3428 3584 3742 3212 
Q 4056 2841 4056 2131 
z
" transform="scale(0.015625)"/>
       <path id="DejaVuSans-Bold-72" d="M 3138 2547 
Q 2991 2616 2845 2648 
Q 2700 2681 2553 2681 
Q 2122 2681 1889 2404 
Q 1656 2128 1656 1613 
L 1656 0 
L 538 0 
L 538 3500 
L 1656 3500 
L 1656 2925 
Q 1872 3269 2151 3426 
Q 2431 3584 2822 3584 
Q 2878 3584 2943 3579 
Q 3009 3575 3134 3559 
L 3138 2547 
z
" transform="scale(0.015625)"/>
       <path id="DejaVuSans-Bold-5d" d="M 2375 -844 
L 434 -844 
L 434 -141 
L 1313 -141 
L 1313 4159 
L 434 4159 
L 434 4863 
L 2375 4863 
L 2375 -844 
z
" transform="scale(0.015625)"/>
      </defs>
      <use xlink:href="#DejaVuSans-Bold-54"/>
      <use xlink:href="#DejaVuSans-Bold-69" transform="translate(68.212891 0)"/>
      <use xlink:href="#DejaVuSans-Bold-6d" transform="translate(102.490234 0)"/>
      <use xlink:href="#DejaVuSans-Bold-65" transform="translate(206.689453 0)"/>
      <use xlink:href="#DejaVuSans-Bold-20" transform="translate(274.511719 0)"/>
      <use xlink:href="#DejaVuSans-Bold-5b" transform="translate(309.326172 0)"/>
      <use xlink:href="#DejaVuSans-Bold-68" transform="translate(355.029297 0)"/>
      <use xlink:href="#DejaVuSans-Bold-72" transform="translate(426.220703 0)"/>
      <use xlink:href="#DejaVuSans-Bold-5d" transform="translate(475.537109 0)"/>
     </g>
    </g>
   </g>
   <g id="matplotlib.axis_2">
    <g id="ytick_1">
     <g id="line2d_9">
      <defs>
       <path id="me05a80dbe9" d="M 0 0 
L -3.5 0 
" style="stroke: #000000; stroke-width: 0.8"/>
      </defs>
      <g>
       <use xlink:href="#me05a80dbe9" x="97.118094" y="314.913425" style="stroke: #000000; stroke-width: 0.8"/>
      </g>
     </g>
     <g id="text_10">
      <!-- −250 -->
      <g transform="translate(48.917312 320.612253) scale(0.15 -0.15)">
       <defs>
        <path id="DejaVuSans-2212" d="M 678 2272 
L 4684 2272 
L 4684 1741 
L 678 1741 
L 678 2272 
z
" transform="scale(0.015625)"/>
       </defs>
       <use xlink:href="#DejaVuSans-2212"/>
       <use xlink:href="#DejaVuSans-32" transform="translate(83.789062 0)"/>
       <use xlink:href="#DejaVuSans-35" transform="translate(147.412109 0)"/>
       <use xlink:href="#DejaVuSans-30" transform="translate(211.035156 0)"/>
      </g>
     </g>
    </g>
    <g id="ytick_2">
     <g id="line2d_10">
      <g>
       <use xlink:href="#me05a80dbe9" x="97.118094" y="275.957222" style="stroke: #000000; stroke-width: 0.8"/>
      </g>
     </g>
     <g id="text_11">
      <!-- −200 -->
      <g transform="translate(48.917312 281.65605) scale(0.15 -0.15)">
       <use xlink:href="#DejaVuSans-2212"/>
       <use xlink:href="#DejaVuSans-32" transform="translate(83.789062 0)"/>
       <use xlink:href="#DejaVuSans-30" transform="translate(147.412109 0)"/>
       <use xlink:href="#DejaVuSans-30" transform="translate(211.035156 0)"/>
      </g>
     </g>
    </g>
    <g id="ytick_3">
     <g id="line2d_11">
      <g>
       <use xlink:href="#me05a80dbe9" x="97.118094" y="237.001018" style="stroke: #000000; stroke-width: 0.8"/>
      </g>
     </g>
     <g id="text_12">
      <!-- −150 -->
      <g transform="translate(48.917312 242.699846) scale(0.15 -0.15)">
       <use xlink:href="#DejaVuSans-2212"/>
       <use xlink:href="#DejaVuSans-31" transform="translate(83.789062 0)"/>
       <use xlink:href="#DejaVuSans-35" transform="translate(147.412109 0)"/>
       <use xlink:href="#DejaVuSans-30" transform="translate(211.035156 0)"/>
      </g>
     </g>
    </g>
    <g id="ytick_4">
     <g id="line2d_12">
      <g>
       <use xlink:href="#me05a80dbe9" x="97.118094" y="198.044814" style="stroke: #000000; stroke-width: 0.8"/>
      </g>
     </g>
     <g id="text_13">
      <!-- −100 -->
      <g transform="translate(48.917312 203.743642) scale(0.15 -0.15)">
       <use xlink:href="#DejaVuSans-2212"/>
       <use xlink:href="#DejaVuSans-31" transform="translate(83.789062 0)"/>
       <use xlink:href="#DejaVuSans-30" transform="translate(147.412109 0)"/>
       <use xlink:href="#DejaVuSans-30" transform="translate(211.035156 0)"/>
      </g>
     </g>
    </g>
    <g id="ytick_5">
     <g id="line2d_13">
      <g>
       <use xlink:href="#me05a80dbe9" x="97.118094" y="159.08861" style="stroke: #000000; stroke-width: 0.8"/>
      </g>
     </g>
     <g id="text_14">
      <!-- −50 -->
      <g transform="translate(58.461062 164.787439) scale(0.15 -0.15)">
       <use xlink:href="#DejaVuSans-2212"/>
       <use xlink:href="#DejaVuSans-35" transform="translate(83.789062 0)"/>
       <use xlink:href="#DejaVuSans-30" transform="translate(147.412109 0)"/>
      </g>
     </g>
    </g>
    <g id="ytick_6">
     <g id="line2d_14">
      <g>
       <use xlink:href="#me05a80dbe9" x="97.118094" y="120.132407" style="stroke: #000000; stroke-width: 0.8"/>
      </g>
     </g>
     <g id="text_15">
      <!-- 0 -->
      <g transform="translate(80.574344 125.831235) scale(0.15 -0.15)">
       <use xlink:href="#DejaVuSans-30"/>
      </g>
     </g>
    </g>
    <g id="ytick_7">
     <g id="line2d_15">
      <g>
       <use xlink:href="#me05a80dbe9" x="97.118094" y="81.176203" style="stroke: #000000; stroke-width: 0.8"/>
      </g>
     </g>
     <g id="text_16">
      <!-- 50 -->
      <g transform="translate(71.030594 86.875031) scale(0.15 -0.15)">
       <use xlink:href="#DejaVuSans-35"/>
       <use xlink:href="#DejaVuSans-30" transform="translate(63.623047 0)"/>
      </g>
     </g>
    </g>
    <g id="text_17">
     <!-- aldosterone change -->
     <g transform="translate(20.877187 282.382031) rotate(-90) scale(0.18 -0.18)">
      <defs>
       <path id="DejaVuSans-Bold-61" d="M 2106 1575 
Q 1756 1575 1579 1456 
Q 1403 1338 1403 1106 
Q 1403 894 1545 773 
Q 1688 653 1941 653 
Q 2256 653 2472 879 
Q 2688 1106 2688 1447 
L 2688 1575 
L 2106 1575 
z
M 3816 1997 
L 3816 0 
L 2688 0 
L 2688 519 
Q 2463 200 2181 54 
Q 1900 -91 1497 -91 
Q 953 -91 614 226 
Q 275 544 275 1050 
Q 275 1666 698 1953 
Q 1122 2241 2028 2241 
L 2688 2241 
L 2688 2328 
Q 2688 2594 2478 2717 
Q 2269 2841 1825 2841 
Q 1466 2841 1156 2769 
Q 847 2697 581 2553 
L 581 3406 
Q 941 3494 1303 3539 
Q 1666 3584 2028 3584 
Q 2975 3584 3395 3211 
Q 3816 2838 3816 1997 
z
" transform="scale(0.015625)"/>
       <path id="DejaVuSans-Bold-6c" d="M 538 4863 
L 1656 4863 
L 1656 0 
L 538 0 
L 538 4863 
z
" transform="scale(0.015625)"/>
       <path id="DejaVuSans-Bold-64" d="M 2919 2988 
L 2919 4863 
L 4044 4863 
L 4044 0 
L 2919 0 
L 2919 506 
Q 2688 197 2409 53 
Q 2131 -91 1766 -91 
Q 1119 -91 703 423 
Q 288 938 288 1747 
Q 288 2556 703 3070 
Q 1119 3584 1766 3584 
Q 2128 3584 2408 3439 
Q 2688 3294 2919 2988 
z
M 2181 722 
Q 2541 722 2730 984 
Q 2919 1247 2919 1747 
Q 2919 2247 2730 2509 
Q 2541 2772 2181 2772 
Q 1825 2772 1636 2509 
Q 1447 2247 1447 1747 
Q 1447 1247 1636 984 
Q 1825 722 2181 722 
z
" transform="scale(0.015625)"/>
       <path id="DejaVuSans-Bold-6f" d="M 2203 2784 
Q 1831 2784 1636 2517 
Q 1441 2250 1441 1747 
Q 1441 1244 1636 976 
Q 1831 709 2203 709 
Q 2569 709 2762 976 
Q 2956 1244 2956 1747 
Q 2956 2250 2762 2517 
Q 2569 2784 2203 2784 
z
M 2203 3584 
Q 3106 3584 3614 3096 
Q 4122 2609 4122 1747 
Q 4122 884 3614 396 
Q 3106 -91 2203 -91 
Q 1297 -91 786 396 
Q 275 884 275 1747 
Q 275 2609 786 3096 
Q 1297 3584 2203 3584 
z
" transform="scale(0.015625)"/>
       <path id="DejaVuSans-Bold-73" d="M 3272 3391 
L 3272 2541 
Q 2913 2691 2578 2766 
Q 2244 2841 1947 2841 
Q 1628 2841 1473 2761 
Q 1319 2681 1319 2516 
Q 1319 2381 1436 2309 
Q 1553 2238 1856 2203 
L 2053 2175 
Q 2913 2066 3209 1816 
Q 3506 1566 3506 1031 
Q 3506 472 3093 190 
Q 2681 -91 1863 -91 
Q 1516 -91 1145 -36 
Q 775 19 384 128 
L 384 978 
Q 719 816 1070 734 
Q 1422 653 1784 653 
Q 2113 653 2278 743 
Q 2444 834 2444 1013 
Q 2444 1163 2330 1236 
Q 2216 1309 1875 1350 
L 1678 1375 
Q 931 1469 631 1722 
Q 331 1975 331 2491 
Q 331 3047 712 3315 
Q 1094 3584 1881 3584 
Q 2191 3584 2531 3537 
Q 2872 3491 3272 3391 
z
" transform="scale(0.015625)"/>
       <path id="DejaVuSans-Bold-74" d="M 1759 4494 
L 1759 3500 
L 2913 3500 
L 2913 2700 
L 1759 2700 
L 1759 1216 
Q 1759 972 1856 886 
Q 1953 800 2241 800 
L 2816 800 
L 2816 0 
L 1856 0 
Q 1194 0 917 276 
Q 641 553 641 1216 
L 641 2700 
L 84 2700 
L 84 3500 
L 641 3500 
L 641 4494 
L 1759 4494 
z
" transform="scale(0.015625)"/>
       <path id="DejaVuSans-Bold-6e" d="M 4056 2131 
L 4056 0 
L 2931 0 
L 2931 347 
L 2931 1631 
Q 2931 2084 2911 2256 
Q 2891 2428 2841 2509 
Q 2775 2619 2662 2680 
Q 2550 2741 2406 2741 
Q 2056 2741 1856 2470 
Q 1656 2200 1656 1722 
L 1656 0 
L 538 0 
L 538 3500 
L 1656 3500 
L 1656 2988 
Q 1909 3294 2193 3439 
Q 2478 3584 2822 3584 
Q 3428 3584 3742 3212 
Q 4056 2841 4056 2131 
z
" transform="scale(0.015625)"/>
       <path id="DejaVuSans-Bold-63" d="M 3366 3391 
L 3366 2478 
Q 3138 2634 2908 2709 
Q 2678 2784 2431 2784 
Q 1963 2784 1702 2511 
Q 1441 2238 1441 1747 
Q 1441 1256 1702 982 
Q 1963 709 2431 709 
Q 2694 709 2930 787 
Q 3166 866 3366 1019 
L 3366 103 
Q 3103 6 2833 -42 
Q 2563 -91 2291 -91 
Q 1344 -91 809 395 
Q 275 881 275 1747 
Q 275 2613 809 3098 
Q 1344 3584 2291 3584 
Q 2566 3584 2833 3536 
Q 3100 3488 3366 3391 
z
" transform="scale(0.015625)"/>
       <path id="DejaVuSans-Bold-67" d="M 2919 594 
Q 2688 288 2409 144 
Q 2131 0 1766 0 
Q 1125 0 706 504 
Q 288 1009 288 1791 
Q 288 2575 706 3076 
Q 1125 3578 1766 3578 
Q 2131 3578 2409 3434 
Q 2688 3291 2919 2981 
L 2919 3500 
L 4044 3500 
L 4044 353 
Q 4044 -491 3511 -936 
Q 2978 -1381 1966 -1381 
Q 1638 -1381 1331 -1331 
Q 1025 -1281 716 -1178 
L 716 -306 
Q 1009 -475 1290 -558 
Q 1572 -641 1856 -641 
Q 2406 -641 2662 -400 
Q 2919 -159 2919 353 
L 2919 594 
z
M 2181 2772 
Q 1834 2772 1640 2515 
Q 1447 2259 1447 1791 
Q 1447 1309 1634 1061 
Q 1822 813 2181 813 
Q 2531 813 2725 1069 
Q 2919 1325 2919 1791 
Q 2919 2259 2725 2515 
Q 2531 2772 2181 2772 
z
" transform="scale(0.015625)"/>
      </defs>
      <use xlink:href="#DejaVuSans-Bold-61"/>
      <use xlink:href="#DejaVuSans-Bold-6c" transform="translate(67.480469 0)"/>
      <use xlink:href="#DejaVuSans-Bold-64" transform="translate(101.757812 0)"/>
      <use xlink:href="#DejaVuSans-Bold-6f" transform="translate(173.339844 0)"/>
      <use xlink:href="#DejaVuSans-Bold-73" transform="translate(242.041016 0)"/>
      <use xlink:href="#DejaVuSans-Bold-74" transform="translate(301.5625 0)"/>
      <use xlink:href="#DejaVuSans-Bold-65" transform="translate(349.365234 0)"/>
      <use xlink:href="#DejaVuSans-Bold-72" transform="translate(417.1875 0)"/>
      <use xlink:href="#DejaVuSans-Bold-6f" transform="translate(466.503906 0)"/>
      <use xlink:href="#DejaVuSans-Bold-6e" transform="translate(535.205078 0)"/>
      <use xlink:href="#DejaVuSans-Bold-65" transform="translate(606.396484 0)"/>
      <use xlink:href="#DejaVuSans-Bold-20" transform="translate(674.21875 0)"/>
      <use xlink:href="#DejaVuSans-Bold-63" transform="translate(709.033203 0)"/>
      <use xlink:href="#DejaVuSans-Bold-68" transform="translate(768.310547 0)"/>
      <use xlink:href="#DejaVuSans-Bold-61" transform="translate(839.501953 0)"/>
      <use xlink:href="#DejaVuSans-Bold-6e" transform="translate(906.982422 0)"/>
      <use xlink:href="#DejaVuSans-Bold-67" transform="translate(978.173828 0)"/>
      <use xlink:href="#DejaVuSans-Bold-65" transform="translate(1049.755859 0)"/>
     </g>
     <!--  [pM] -->
     <g transform="translate(41.173875 208.558125) rotate(-90) scale(0.18 -0.18)">
      <defs>
       <path id="DejaVuSans-Bold-70" d="M 1656 506 
L 1656 -1331 
L 538 -1331 
L 538 3500 
L 1656 3500 
L 1656 2988 
Q 1888 3294 2169 3439 
Q 2450 3584 2816 3584 
Q 3463 3584 3878 3070 
Q 4294 2556 4294 1747 
Q 4294 938 3878 423 
Q 3463 -91 2816 -91 
Q 2450 -91 2169 54 
Q 1888 200 1656 506 
z
M 2400 2772 
Q 2041 2772 1848 2508 
Q 1656 2244 1656 1747 
Q 1656 1250 1848 986 
Q 2041 722 2400 722 
Q 2759 722 2948 984 
Q 3138 1247 3138 1747 
Q 3138 2247 2948 2509 
Q 2759 2772 2400 2772 
z
" transform="scale(0.015625)"/>
       <path id="DejaVuSans-Bold-4d" d="M 588 4666 
L 2119 4666 
L 3181 2169 
L 4250 4666 
L 5778 4666 
L 5778 0 
L 4641 0 
L 4641 3413 
L 3566 897 
L 2803 897 
L 1728 3413 
L 1728 0 
L 588 0 
L 588 4666 
z
" transform="scale(0.015625)"/>
      </defs>
      <use xlink:href="#DejaVuSans-Bold-20"/>
      <use xlink:href="#DejaVuSans-Bold-5b" transform="translate(34.814453 0)"/>
      <use xlink:href="#DejaVuSans-Bold-70" transform="translate(80.517578 0)"/>
      <use xlink:href="#DejaVuSans-Bold-4d" transform="translate(152.099609 0)"/>
      <use xlink:href="#DejaVuSans-Bold-5d" transform="translate(251.611328 0)"/>
     </g>
    </g>
   </g>
   <g id="LineCollection_1">
    <path clip-path="url(#p84304125f1)" style="fill: none; stroke: #000000"/>
    <path d="M 124.736276 208.423977 
L 124.736276 55.8 
" clip-path="url(#p84304125f1)" style="fill: none; stroke: #000000"/>
    <path d="M 134.599912 227.597638 
L 134.599912 88.793368 
" clip-path="url(#p84304125f1)" style="fill: none; stroke: #000000"/>
    <path d="M 154.327185 198.80871 
L 154.327185 157.351915 
" clip-path="url(#p84304125f1)" style="fill: none; stroke: #000000"/>
    <path d="M 203.645366 237.34566 
L 203.645366 115.123909 
" clip-path="url(#p84304125f1)" style="fill: none; stroke: #000000"/>
    <path d="M 351.599912 210.760179 
L 351.599912 129.381042 
" clip-path="url(#p84304125f1)" style="fill: none; stroke: #000000"/>
    <path d="M 371.327185 210.16636 
L 371.327185 103.2991 
" clip-path="url(#p84304125f1)" style="fill: none; stroke: #000000"/>
    <path d="M 440.372639 251.645142 
L 440.372639 95.642513 
" clip-path="url(#p84304125f1)" style="fill: none; stroke: #000000"/>
   </g>
   <g id="LineCollection_2">
    <path clip-path="url(#p84304125f1)" style="fill: none; stroke: #1f77b4"/>
    <path clip-path="url(#p84304125f1)" style="fill: none; stroke: #1f77b4"/>
    <path clip-path="url(#p84304125f1)" style="fill: none; stroke: #1f77b4"/>
    <path clip-path="url(#p84304125f1)" style="fill: none; stroke: #1f77b4"/>
    <path clip-path="url(#p84304125f1)" style="fill: none; stroke: #1f77b4"/>
    <path clip-path="url(#p84304125f1)" style="fill: none; stroke: #1f77b4"/>
    <path clip-path="url(#p84304125f1)" style="fill: none; stroke: #1f77b4"/>
    <path clip-path="url(#p84304125f1)" style="fill: none; stroke: #1f77b4"/>
   </g>
   <g id="LineCollection_3">
    <path clip-path="url(#p84304125f1)" style="fill: none; stroke: #d62728"/>
    <path clip-path="url(#p84304125f1)" style="fill: none; stroke: #d62728"/>
    <path clip-path="url(#p84304125f1)" style="fill: none; stroke: #d62728"/>
    <path clip-path="url(#p84304125f1)" style="fill: none; stroke: #d62728"/>
    <path clip-path="url(#p84304125f1)" style="fill: none; stroke: #d62728"/>
    <path clip-path="url(#p84304125f1)" style="fill: none; stroke: #d62728"/>
    <path clip-path="url(#p84304125f1)" style="fill: none; stroke: #d62728"/>
    <path clip-path="url(#p84304125f1)" style="fill: none; stroke: #d62728"/>
   </g>
   <g id="LineCollection_4">
    <path clip-path="url(#p84304125f1)" style="fill: none; stroke: #2ca02c"/>
    <path d="M 124.736276 224.3804 
L 124.736276 132.867299 
" clip-path="url(#p84304125f1)" style="fill: none; stroke: #2ca02c"/>
    <path d="M 134.599912 265.960031 
L 134.599912 148.344627 
" clip-path="url(#p84304125f1)" style="fill: none; stroke: #2ca02c"/>
    <path d="M 154.327185 304.48423 
L 154.327185 185.946891 
" clip-path="url(#p84304125f1)" style="fill: none; stroke: #2ca02c"/>
    <path d="M 203.645366 307.8 
L 203.645366 182.199928 
" clip-path="url(#p84304125f1)" style="fill: none; stroke: #2ca02c"/>
    <path d="M 351.599912 238.689101 
L 351.599912 157.617386 
" clip-path="url(#p84304125f1)" style="fill: none; stroke: #2ca02c"/>
    <path d="M 371.327185 248.051344 
L 371.327185 125.21508 
" clip-path="url(#p84304125f1)" style="fill: none; stroke: #2ca02c"/>
    <path d="M 440.372639 286.766259 
L 440.372639 187.269487 
" clip-path="url(#p84304125f1)" style="fill: none; stroke: #2ca02c"/>
   </g>
   <g id="line2d_16">
    <path d="M 114.872639 120.132407 
L 469.963548 120.132407 
L 469.963548 120.132407 
" clip-path="url(#p84304125f1)" style="fill: none; stroke: #000000; stroke-width: 2; stroke-linecap: square"/>
   </g>
   <g id="line2d_17">
    <path d="M 114.872639 120.132407 
L 124.736276 132.111988 
L 134.599912 158.195503 
L 154.327185 178.080313 
L 203.645366 176.234785 
L 351.599912 170.07061 
L 371.327185 156.73273 
L 440.372639 173.643828 
" clip-path="url(#p84304125f1)" style="fill: none; stroke-dasharray: 3.7,1.6; stroke-dashoffset: 0; stroke: #000000"/>
    <defs>
     <path id="m16d34586d4" d="M -3 3 
L 3 3 
L 3 -3 
L -3 -3 
z
" style="stroke: #000000; stroke-linejoin: miter"/>
    </defs>
    <g clip-path="url(#p84304125f1)">
     <use xlink:href="#m16d34586d4" x="114.872639" y="120.132407" style="stroke: #000000; stroke-linejoin: miter"/>
     <use xlink:href="#m16d34586d4" x="124.736276" y="132.111988" style="stroke: #000000; stroke-linejoin: miter"/>
     <use xlink:href="#m16d34586d4" x="134.599912" y="158.195503" style="stroke: #000000; stroke-linejoin: miter"/>
     <use xlink:href="#m16d34586d4" x="154.327185" y="178.080313" style="stroke: #000000; stroke-linejoin: miter"/>
     <use xlink:href="#m16d34586d4" x="203.645366" y="176.234785" style="stroke: #000000; stroke-linejoin: miter"/>
     <use xlink:href="#m16d34586d4" x="351.599912" y="170.07061" style="stroke: #000000; stroke-linejoin: miter"/>
     <use xlink:href="#m16d34586d4" x="371.327185" y="156.73273" style="stroke: #000000; stroke-linejoin: miter"/>
     <use xlink:href="#m16d34586d4" x="440.372639" y="173.643828" style="stroke: #000000; stroke-linejoin: miter"/>
    </g>
   </g>
   <g id="line2d_18">
    <path d="M 114.872639 120.132407 
L 116.293003 120.237875 
L 116.648094 120.416197 
L 117.003185 120.748379 
L 117.358276 121.288195 
L 117.713366 122.084597 
L 118.423548 124.595639 
L 119.13373 128.453536 
L 119.843912 133.622272 
L 120.909185 143.342108 
L 125.525366 189.664865 
L 126.94573 200.521834 
L 128.366094 209.354724 
L 129.431366 214.802443 
L 130.496639 219.37961 
L 131.561912 223.205791 
L 132.627185 226.388463 
L 133.692457 229.021058 
L 134.75773 231.183304 
L 135.823003 232.942584 
L 136.888276 234.355587 
L 137.953548 235.469962 
L 139.018821 236.325805 
L 140.084094 236.956947 
L 141.504457 237.49782 
L 142.924821 237.746065 
L 144.345185 237.747497 
L 145.765548 237.539661 
L 147.541003 237.032359 
L 149.316457 236.295775 
L 151.447003 235.165018 
L 153.932639 233.574241 
L 156.773366 231.481198 
L 160.324276 228.565804 
L 164.940457 224.451304 
L 172.042276 217.768182 
L 184.825548 205.714986 
L 191.572276 199.674953 
L 197.608821 194.557615 
L 203.290276 190.018538 
L 208.97173 185.761063 
L 214.653185 181.787956 
L 220.334639 178.094975 
L 226.016094 174.672821 
L 231.697548 171.508678 
L 237.734094 168.412562 
L 243.770639 165.570943 
L 250.162276 162.81693 
L 256.553912 160.301386 
L 263.300639 157.879216 
L 270.402457 155.560588 
L 278.214457 153.251622 
L 286.381548 151.073828 
L 295.258821 148.942773 
L 304.846276 146.87708 
L 315.143912 144.888936 
L 326.506821 142.927201 
L 338.935003 141.013304 
L 352.428457 139.162118 
L 367.342276 137.342923 
L 383.676457 135.5767 
L 401.786094 133.84829 
L 421.316094 132.211104 
L 442.621548 130.651538 
L 465.702457 129.188406 
L 469.963548 128.941203 
L 469.963548 128.941203 
" clip-path="url(#p84304125f1)" style="fill: none; stroke: #1f77b4; stroke-width: 2; stroke-linecap: square"/>
   </g>
   <g id="line2d_19">
    <path d="M 114.872639 120.132407 
L 124.736276 153.863492 
L 134.599912 165.466967 
L 154.327185 183.78453 
L 203.645366 179.494444 
L 351.599912 133.400072 
L 371.327185 150.088314 
L 440.372639 143.680525 
" clip-path="url(#p84304125f1)" style="fill: none; stroke-dasharray: 3.7,1.6; stroke-dashoffset: 0; stroke: #1f77b4"/>
    <defs>
     <path id="mc3ff4273dd" d="M -3 3 
L 3 3 
L 3 -3 
L -3 -3 
z
" style="stroke: #000000; stroke-linejoin: miter"/>
    </defs>
    <g clip-path="url(#p84304125f1)">
     <use xlink:href="#mc3ff4273dd" x="114.872639" y="120.132407" style="fill: #1f77b4; stroke: #000000; stroke-linejoin: miter"/>
     <use xlink:href="#mc3ff4273dd" x="124.736276" y="153.863492" style="fill: #1f77b4; stroke: #000000; stroke-linejoin: miter"/>
     <use xlink:href="#mc3ff4273dd" x="134.599912" y="165.466967" style="fill: #1f77b4; stroke: #000000; stroke-linejoin: miter"/>
     <use xlink:href="#mc3ff4273dd" x="154.327185" y="183.78453" style="fill: #1f77b4; stroke: #000000; stroke-linejoin: miter"/>
     <use xlink:href="#mc3ff4273dd" x="203.645366" y="179.494444" style="fill: #1f77b4; stroke: #000000; stroke-linejoin: miter"/>
     <use xlink:href="#mc3ff4273dd" x="351.599912" y="133.400072" style="fill: #1f77b4; stroke: #000000; stroke-linejoin: miter"/>
     <use xlink:href="#mc3ff4273dd" x="371.327185" y="150.088314" style="fill: #1f77b4; stroke: #000000; stroke-linejoin: miter"/>
     <use xlink:href="#mc3ff4273dd" x="440.372639" y="143.680525" style="fill: #1f77b4; stroke: #000000; stroke-linejoin: miter"/>
    </g>
   </g>
   <g id="line2d_20">
    <path d="M 114.872639 120.132407 
L 115.937912 120.187606 
L 116.293003 120.342123 
L 116.648094 120.694597 
L 117.003185 121.346715 
L 117.358276 122.396918 
L 117.713366 123.92854 
L 118.423548 128.643665 
L 119.13373 135.605302 
L 120.199003 149.438608 
L 123.749912 200.206132 
L 124.815185 212.097841 
L 125.880457 222.028807 
L 126.94573 230.223167 
L 128.011003 236.950475 
L 129.076276 242.465925 
L 130.141548 246.989227 
L 131.206821 250.701373 
L 132.272094 253.748413 
L 133.337366 256.247231 
L 134.402639 258.291241 
L 135.467912 259.955286 
L 136.533185 261.299615 
L 137.598457 262.373011 
L 139.018821 263.45042 
L 140.439185 264.191232 
L 141.859548 264.653889 
L 143.279912 264.884359 
L 144.700276 264.919217 
L 146.47573 264.732013 
L 148.251185 264.330533 
L 150.38173 263.61597 
L 152.867366 262.521439 
L 155.708094 260.997331 
L 158.903912 259.012169 
L 162.809912 256.293809 
L 167.426094 252.78571 
L 173.462639 247.887586 
L 182.695003 240.065955 
L 197.963912 227.139089 
L 206.131003 220.528405 
L 213.587912 214.78043 
L 220.334639 209.850896 
L 227.081366 205.195126 
L 233.828094 200.818469 
L 240.574821 196.718366 
L 247.321548 192.88632 
L 254.068276 189.309645 
L 261.170094 185.803671 
L 268.271912 182.543901 
L 275.728821 179.363905 
L 283.540821 176.274396 
L 291.707912 173.282119 
L 300.585185 170.274625 
L 309.817548 167.385571 
L 319.760094 164.512587 
L 330.412821 161.673346 
L 341.77573 158.881478 
L 353.848821 156.147665 
L 366.632094 153.480717 
L 380.480639 150.823111 
L 395.039366 148.258446 
L 410.308276 145.79331 
L 426.642457 143.384547 
L 443.686821 141.098215 
L 461.441366 138.940201 
L 469.963548 137.979236 
L 469.963548 137.979236 
" clip-path="url(#p84304125f1)" style="fill: none; stroke: #d62728; stroke-width: 2; stroke-linecap: square"/>
   </g>
   <g id="line2d_21">
    <path d="M 114.872639 120.132407 
L 124.736276 170.725609 
L 134.599912 202.450927 
L 154.327185 220.705873 
L 203.645366 209.708484 
L 351.599912 163.488676 
L 371.327185 175.099341 
L 440.372639 178.783952 
" clip-path="url(#p84304125f1)" style="fill: none; stroke-dasharray: 3.7,1.6; stroke-dashoffset: 0; stroke: #d62728"/>
    <defs>
     <path id="m48f3ace5af" d="M -3 3 
L 3 3 
L 3 -3 
L -3 -3 
z
" style="stroke: #000000; stroke-linejoin: miter"/>
    </defs>
    <g clip-path="url(#p84304125f1)">
     <use xlink:href="#m48f3ace5af" x="114.872639" y="120.132407" style="fill: #d62728; stroke: #000000; stroke-linejoin: miter"/>
     <use xlink:href="#m48f3ace5af" x="124.736276" y="170.725609" style="fill: #d62728; stroke: #000000; stroke-linejoin: miter"/>
     <use xlink:href="#m48f3ace5af" x="134.599912" y="202.450927" style="fill: #d62728; stroke: #000000; stroke-linejoin: miter"/>
     <use xlink:href="#m48f3ace5af" x="154.327185" y="220.705873" style="fill: #d62728; stroke: #000000; stroke-linejoin: miter"/>
     <use xlink:href="#m48f3ace5af" x="203.645366" y="209.708484" style="fill: #d62728; stroke: #000000; stroke-linejoin: miter"/>
     <use xlink:href="#m48f3ace5af" x="351.599912" y="163.488676" style="fill: #d62728; stroke: #000000; stroke-linejoin: miter"/>
     <use xlink:href="#m48f3ace5af" x="371.327185" y="175.099341" style="fill: #d62728; stroke: #000000; stroke-linejoin: miter"/>
     <use xlink:href="#m48f3ace5af" x="440.372639" y="178.783952" style="fill: #d62728; stroke: #000000; stroke-linejoin: miter"/>
    </g>
   </g>
   <g id="line2d_22">
    <path d="M 114.872639 120.132407 
L 115.937912 120.214955 
L 116.293003 120.445169 
L 116.648094 120.967717 
L 117.003185 121.927943 
L 117.358276 123.46061 
L 117.713366 125.670798 
L 118.423548 132.321359 
L 119.13373 141.786194 
L 120.199003 159.558892 
L 122.329548 196.364274 
L 123.394821 211.644604 
L 124.460094 224.259001 
L 125.525366 234.477982 
L 126.590639 242.706192 
L 127.655912 249.335368 
L 128.721185 254.695844 
L 129.786457 259.050549 
L 130.85173 262.603747 
L 131.917003 265.512906 
L 132.982276 267.899554 
L 134.047548 269.858047 
L 135.112821 271.462273 
L 136.533185 273.149392 
L 137.953548 274.416464 
L 139.373912 275.344282 
L 140.794276 275.994676 
L 142.214639 276.41564 
L 143.990094 276.675928 
L 145.765548 276.693375 
L 147.896094 276.45458 
L 150.026639 275.985925 
L 152.512276 275.205713 
L 155.353003 274.06833 
L 158.548821 272.54282 
L 162.454821 270.407286 
L 167.071003 267.598758 
L 172.397366 264.088047 
L 179.499185 259.119261 
L 190.862094 250.845829 
L 207.551366 238.72511 
L 217.138821 232.05308 
L 225.661003 226.393799 
L 233.828094 221.24305 
L 241.640094 216.578862 
L 249.452094 212.172906 
L 257.264094 208.018947 
L 265.431185 203.933128 
L 273.598276 200.093329 
L 282.120457 196.328543 
L 290.99773 192.646393 
L 300.585185 188.916959 
L 310.52773 185.291628 
L 321.180457 181.650099 
L 332.188276 178.120796 
L 343.906276 174.59501 
L 356.334457 171.087508 
L 369.472821 167.612295 
L 383.321366 164.183451 
L 397.525003 160.895071 
L 412.438821 157.672294 
L 427.70773 154.600426 
L 443.33173 151.680849 
L 459.665912 148.856418 
L 469.963548 147.18948 
L 469.963548 147.18948 
" clip-path="url(#p84304125f1)" style="fill: none; stroke: #2ca02c; stroke-width: 2; stroke-linecap: square"/>
   </g>
   <g id="line2d_23">
    <path d="M 114.872639 120.132407 
L 124.736276 178.623849 
L 134.599912 207.152329 
L 154.327185 245.215561 
L 203.645366 244.999964 
L 351.599912 198.153243 
L 371.327185 186.633212 
L 440.372639 237.017873 
" clip-path="url(#p84304125f1)" style="fill: none; stroke-dasharray: 3.7,1.6; stroke-dashoffset: 0; stroke: #2ca02c"/>
    <defs>
     <path id="m7a72c5aacb" d="M -3 3 
L 3 3 
L 3 -3 
L -3 -3 
z
" style="stroke: #000000; stroke-linejoin: miter"/>
    </defs>
    <g clip-path="url(#p84304125f1)">
     <use xlink:href="#m7a72c5aacb" x="114.872639" y="120.132407" style="fill: #2ca02c; stroke: #000000; stroke-linejoin: miter"/>
     <use xlink:href="#m7a72c5aacb" x="124.736276" y="178.623849" style="fill: #2ca02c; stroke: #000000; stroke-linejoin: miter"/>
     <use xlink:href="#m7a72c5aacb" x="134.599912" y="207.152329" style="fill: #2ca02c; stroke: #000000; stroke-linejoin: miter"/>
     <use xlink:href="#m7a72c5aacb" x="154.327185" y="245.215561" style="fill: #2ca02c; stroke: #000000; stroke-linejoin: miter"/>
     <use xlink:href="#m7a72c5aacb" x="203.645366" y="244.999964" style="fill: #2ca02c; stroke: #000000; stroke-linejoin: miter"/>
     <use xlink:href="#m7a72c5aacb" x="351.599912" y="198.153243" style="fill: #2ca02c; stroke: #000000; stroke-linejoin: miter"/>
     <use xlink:href="#m7a72c5aacb" x="371.327185" y="186.633212" style="fill: #2ca02c; stroke: #000000; stroke-linejoin: miter"/>
     <use xlink:href="#m7a72c5aacb" x="440.372639" y="237.017873" style="fill: #2ca02c; stroke: #000000; stroke-linejoin: miter"/>
    </g>
   </g>
   <g id="patch_3">
    <path d="M 97.118094 320.4 
L 97.118094 43.2 
" style="fill: none; stroke: #000000; stroke-width: 0.8; stroke-linejoin: miter; stroke-linecap: square"/>
   </g>
   <g id="patch_4">
    <path d="M 487.718094 320.4 
L 487.718094 43.2 
" style="fill: none; stroke: #000000; stroke-width: 0.8; stroke-linejoin: miter; stroke-linecap: square"/>
   </g>
   <g id="patch_5">
    <path d="M 97.118094 320.4 
L 487.718094 320.4 
" style="fill: none; stroke: #000000; stroke-width: 0.8; stroke-linejoin: miter; stroke-linecap: square"/>
   </g>
   <g id="patch_6">
    <path d="M 97.118094 43.2 
L 487.718094 43.2 
" style="fill: none; stroke: #000000; stroke-width: 0.8; stroke-linejoin: miter; stroke-linecap: square"/>
   </g>
   <g id="legend_1">
    <g id="patch_7">
     <path d="M 355.874344 315.4 
L 480.718094 315.4 
Q 482.718094 315.4 482.718094 313.4 
L 482.718094 196.975 
Q 482.718094 194.975 480.718094 194.975 
L 355.874344 194.975 
Q 353.874344 194.975 353.874344 196.975 
L 353.874344 313.4 
Q 353.874344 315.4 355.874344 315.4 
z
" style="fill: #ffffff; opacity: 0.8; stroke: #cccccc; stroke-linejoin: miter"/>
    </g>
    <g id="line2d_24">
     <path d="M 357.874344 203.073438 
L 377.874344 203.073438 
" style="fill: none; stroke: #000000; stroke-width: 2; stroke-linecap: square"/>
    </g>
    <g id="line2d_25"/>
    <g id="text_18">
     <!-- Sim 0 mg -->
     <g transform="translate(385.874344 206.573438) scale(0.1 -0.1)">
      <defs>
       <path id="DejaVuSans-53" d="M 3425 4513 
L 3425 3897 
Q 3066 4069 2747 4153 
Q 2428 4238 2131 4238 
Q 1616 4238 1336 4038 
Q 1056 3838 1056 3469 
Q 1056 3159 1242 3001 
Q 1428 2844 1947 2747 
L 2328 2669 
Q 3034 2534 3370 2195 
Q 3706 1856 3706 1288 
Q 3706 609 3251 259 
Q 2797 -91 1919 -91 
Q 1588 -91 1214 -16 
Q 841 59 441 206 
L 441 856 
Q 825 641 1194 531 
Q 1563 422 1919 422 
Q 2459 422 2753 634 
Q 3047 847 3047 1241 
Q 3047 1584 2836 1778 
Q 2625 1972 2144 2069 
L 1759 2144 
Q 1053 2284 737 2584 
Q 422 2884 422 3419 
Q 422 4038 858 4394 
Q 1294 4750 2059 4750 
Q 2388 4750 2728 4690 
Q 3069 4631 3425 4513 
z
" transform="scale(0.015625)"/>
       <path id="DejaVuSans-69" d="M 603 3500 
L 1178 3500 
L 1178 0 
L 603 0 
L 603 3500 
z
M 603 4863 
L 1178 4863 
L 1178 4134 
L 603 4134 
L 603 4863 
z
" transform="scale(0.015625)"/>
       <path id="DejaVuSans-6d" d="M 3328 2828 
Q 3544 3216 3844 3400 
Q 4144 3584 4550 3584 
Q 5097 3584 5394 3201 
Q 5691 2819 5691 2113 
L 5691 0 
L 5113 0 
L 5113 2094 
Q 5113 2597 4934 2840 
Q 4756 3084 4391 3084 
Q 3944 3084 3684 2787 
Q 3425 2491 3425 1978 
L 3425 0 
L 2847 0 
L 2847 2094 
Q 2847 2600 2669 2842 
Q 2491 3084 2119 3084 
Q 1678 3084 1418 2786 
Q 1159 2488 1159 1978 
L 1159 0 
L 581 0 
L 581 3500 
L 1159 3500 
L 1159 2956 
Q 1356 3278 1631 3431 
Q 1906 3584 2284 3584 
Q 2666 3584 2933 3390 
Q 3200 3197 3328 2828 
z
" transform="scale(0.015625)"/>
       <path id="DejaVuSans-20" transform="scale(0.015625)"/>
       <path id="DejaVuSans-67" d="M 2906 1791 
Q 2906 2416 2648 2759 
Q 2391 3103 1925 3103 
Q 1463 3103 1205 2759 
Q 947 2416 947 1791 
Q 947 1169 1205 825 
Q 1463 481 1925 481 
Q 2391 481 2648 825 
Q 2906 1169 2906 1791 
z
M 3481 434 
Q 3481 -459 3084 -895 
Q 2688 -1331 1869 -1331 
Q 1566 -1331 1297 -1286 
Q 1028 -1241 775 -1147 
L 775 -588 
Q 1028 -725 1275 -790 
Q 1522 -856 1778 -856 
Q 2344 -856 2625 -561 
Q 2906 -266 2906 331 
L 2906 616 
Q 2728 306 2450 153 
Q 2172 0 1784 0 
Q 1141 0 747 490 
Q 353 981 353 1791 
Q 353 2603 747 3093 
Q 1141 3584 1784 3584 
Q 2172 3584 2450 3431 
Q 2728 3278 2906 2969 
L 2906 3500 
L 3481 3500 
L 3481 434 
z
" transform="scale(0.015625)"/>
      </defs>
      <use xlink:href="#DejaVuSans-53"/>
      <use xlink:href="#DejaVuSans-69" transform="translate(63.476562 0)"/>
      <use xlink:href="#DejaVuSans-6d" transform="translate(91.259766 0)"/>
      <use xlink:href="#DejaVuSans-20" transform="translate(188.671875 0)"/>
      <use xlink:href="#DejaVuSans-30" transform="translate(220.458984 0)"/>
      <use xlink:href="#DejaVuSans-20" transform="translate(284.082031 0)"/>
      <use xlink:href="#DejaVuSans-6d" transform="translate(315.869141 0)"/>
      <use xlink:href="#DejaVuSans-67" transform="translate(413.28125 0)"/>
     </g>
    </g>
    <g id="LineCollection_5">
     <path d="M 367.874344 222.751563 
L 367.874344 212.751563 
" style="fill: none; stroke: #000000"/>
    </g>
    <g id="line2d_26">
     <path d="M 357.874344 217.751563 
L 377.874344 217.751563 
" style="fill: none; stroke-dasharray: 3.7,1.6; stroke-dashoffset: 0; stroke: #000000"/>
    </g>
    <g id="line2d_27">
     <g>
      <use xlink:href="#m16d34586d4" x="367.874344" y="217.751563" style="stroke: #000000; stroke-linejoin: miter"/>
     </g>
    </g>
    <g id="text_19">
     <!-- 0 mg±SD (n=6) -->
     <g transform="translate(385.874344 221.251563) scale(0.1 -0.1)">
      <defs>
       <path id="DejaVuSans-b1" d="M 2944 4013 
L 2944 2803 
L 4684 2803 
L 4684 2272 
L 2944 2272 
L 2944 1063 
L 2419 1063 
L 2419 2272 
L 678 2272 
L 678 2803 
L 2419 2803 
L 2419 4013 
L 2944 4013 
z
M 678 531 
L 4684 531 
L 4684 0 
L 678 0 
L 678 531 
z
" transform="scale(0.015625)"/>
       <path id="DejaVuSans-44" d="M 1259 4147 
L 1259 519 
L 2022 519 
Q 2988 519 3436 956 
Q 3884 1394 3884 2338 
Q 3884 3275 3436 3711 
Q 2988 4147 2022 4147 
L 1259 4147 
z
M 628 4666 
L 1925 4666 
Q 3281 4666 3915 4102 
Q 4550 3538 4550 2338 
Q 4550 1131 3912 565 
Q 3275 0 1925 0 
L 628 0 
L 628 4666 
z
" transform="scale(0.015625)"/>
       <path id="DejaVuSans-28" d="M 1984 4856 
Q 1566 4138 1362 3434 
Q 1159 2731 1159 2009 
Q 1159 1288 1364 580 
Q 1569 -128 1984 -844 
L 1484 -844 
Q 1016 -109 783 600 
Q 550 1309 550 2009 
Q 550 2706 781 3412 
Q 1013 4119 1484 4856 
L 1984 4856 
z
" transform="scale(0.015625)"/>
       <path id="DejaVuSans-6e" d="M 3513 2113 
L 3513 0 
L 2938 0 
L 2938 2094 
Q 2938 2591 2744 2837 
Q 2550 3084 2163 3084 
Q 1697 3084 1428 2787 
Q 1159 2491 1159 1978 
L 1159 0 
L 581 0 
L 581 3500 
L 1159 3500 
L 1159 2956 
Q 1366 3272 1645 3428 
Q 1925 3584 2291 3584 
Q 2894 3584 3203 3211 
Q 3513 2838 3513 2113 
z
" transform="scale(0.015625)"/>
       <path id="DejaVuSans-3d" d="M 678 2906 
L 4684 2906 
L 4684 2381 
L 678 2381 
L 678 2906 
z
M 678 1631 
L 4684 1631 
L 4684 1100 
L 678 1100 
L 678 1631 
z
" transform="scale(0.015625)"/>
       <path id="DejaVuSans-36" d="M 2113 2584 
Q 1688 2584 1439 2293 
Q 1191 2003 1191 1497 
Q 1191 994 1439 701 
Q 1688 409 2113 409 
Q 2538 409 2786 701 
Q 3034 994 3034 1497 
Q 3034 2003 2786 2293 
Q 2538 2584 2113 2584 
z
M 3366 4563 
L 3366 3988 
Q 3128 4100 2886 4159 
Q 2644 4219 2406 4219 
Q 1781 4219 1451 3797 
Q 1122 3375 1075 2522 
Q 1259 2794 1537 2939 
Q 1816 3084 2150 3084 
Q 2853 3084 3261 2657 
Q 3669 2231 3669 1497 
Q 3669 778 3244 343 
Q 2819 -91 2113 -91 
Q 1303 -91 875 529 
Q 447 1150 447 2328 
Q 447 3434 972 4092 
Q 1497 4750 2381 4750 
Q 2619 4750 2861 4703 
Q 3103 4656 3366 4563 
z
" transform="scale(0.015625)"/>
       <path id="DejaVuSans-29" d="M 513 4856 
L 1013 4856 
Q 1481 4119 1714 3412 
Q 1947 2706 1947 2009 
Q 1947 1309 1714 600 
Q 1481 -109 1013 -844 
L 513 -844 
Q 928 -128 1133 580 
Q 1338 1288 1338 2009 
Q 1338 2731 1133 3434 
Q 928 4138 513 4856 
z
" transform="scale(0.015625)"/>
      </defs>
      <use xlink:href="#DejaVuSans-30"/>
      <use xlink:href="#DejaVuSans-20" transform="translate(63.623047 0)"/>
      <use xlink:href="#DejaVuSans-6d" transform="translate(95.410156 0)"/>
      <use xlink:href="#DejaVuSans-67" transform="translate(192.822266 0)"/>
      <use xlink:href="#DejaVuSans-b1" transform="translate(256.298828 0)"/>
      <use xlink:href="#DejaVuSans-53" transform="translate(340.087891 0)"/>
      <use xlink:href="#DejaVuSans-44" transform="translate(403.564453 0)"/>
      <use xlink:href="#DejaVuSans-20" transform="translate(480.566406 0)"/>
      <use xlink:href="#DejaVuSans-28" transform="translate(512.353516 0)"/>
      <use xlink:href="#DejaVuSans-6e" transform="translate(551.367188 0)"/>
      <use xlink:href="#DejaVuSans-3d" transform="translate(614.746094 0)"/>
      <use xlink:href="#DejaVuSans-36" transform="translate(698.535156 0)"/>
      <use xlink:href="#DejaVuSans-29" transform="translate(762.158203 0)"/>
     </g>
    </g>
    <g id="line2d_28">
     <path d="M 357.874344 232.429688 
L 377.874344 232.429688 
" style="fill: none; stroke: #1f77b4; stroke-width: 2; stroke-linecap: square"/>
    </g>
    <g id="line2d_29"/>
    <g id="text_20">
     <!-- Sim 40 mg -->
     <g transform="translate(385.874344 235.929688) scale(0.1 -0.1)">
      <defs>
       <path id="DejaVuSans-34" d="M 2419 4116 
L 825 1625 
L 2419 1625 
L 2419 4116 
z
M 2253 4666 
L 3047 4666 
L 3047 1625 
L 3713 1625 
L 3713 1100 
L 3047 1100 
L 3047 0 
L 2419 0 
L 2419 1100 
L 313 1100 
L 313 1709 
L 2253 4666 
z
" transform="scale(0.015625)"/>
      </defs>
      <use xlink:href="#DejaVuSans-53"/>
      <use xlink:href="#DejaVuSans-69" transform="translate(63.476562 0)"/>
      <use xlink:href="#DejaVuSans-6d" transform="translate(91.259766 0)"/>
      <use xlink:href="#DejaVuSans-20" transform="translate(188.671875 0)"/>
      <use xlink:href="#DejaVuSans-34" transform="translate(220.458984 0)"/>
      <use xlink:href="#DejaVuSans-30" transform="translate(284.082031 0)"/>
      <use xlink:href="#DejaVuSans-20" transform="translate(347.705078 0)"/>
      <use xlink:href="#DejaVuSans-6d" transform="translate(379.492188 0)"/>
      <use xlink:href="#DejaVuSans-67" transform="translate(476.904297 0)"/>
     </g>
    </g>
    <g id="LineCollection_6">
     <path d="M 367.874344 252.107813 
L 367.874344 242.107813 
" style="fill: none; stroke: #1f77b4"/>
    </g>
    <g id="line2d_30">
     <path d="M 357.874344 247.107813 
L 377.874344 247.107813 
" style="fill: none; stroke-dasharray: 3.7,1.6; stroke-dashoffset: 0; stroke: #1f77b4"/>
    </g>
    <g id="line2d_31">
     <g>
      <use xlink:href="#mc3ff4273dd" x="367.874344" y="247.107813" style="fill: #1f77b4; stroke: #000000; stroke-linejoin: miter"/>
     </g>
    </g>
    <g id="text_21">
     <!-- 40 mg±SD (n=6) -->
     <g transform="translate(385.874344 250.607813) scale(0.1 -0.1)">
      <use xlink:href="#DejaVuSans-34"/>
      <use xlink:href="#DejaVuSans-30" transform="translate(63.623047 0)"/>
      <use xlink:href="#DejaVuSans-20" transform="translate(127.246094 0)"/>
      <use xlink:href="#DejaVuSans-6d" transform="translate(159.033203 0)"/>
      <use xlink:href="#DejaVuSans-67" transform="translate(256.445312 0)"/>
      <use xlink:href="#DejaVuSans-b1" transform="translate(319.921875 0)"/>
      <use xlink:href="#DejaVuSans-53" transform="translate(403.710938 0)"/>
      <use xlink:href="#DejaVuSans-44" transform="translate(467.1875 0)"/>
      <use xlink:href="#DejaVuSans-20" transform="translate(544.189453 0)"/>
      <use xlink:href="#DejaVuSans-28" transform="translate(575.976562 0)"/>
      <use xlink:href="#DejaVuSans-6e" transform="translate(614.990234 0)"/>
      <use xlink:href="#DejaVuSans-3d" transform="translate(678.369141 0)"/>
      <use xlink:href="#DejaVuSans-36" transform="translate(762.158203 0)"/>
      <use xlink:href="#DejaVuSans-29" transform="translate(825.78125 0)"/>
     </g>
    </g>
    <g id="line2d_32">
     <path d="M 357.874344 261.785938 
L 377.874344 261.785938 
" style="fill: none; stroke: #d62728; stroke-width: 2; stroke-linecap: square"/>
    </g>
    <g id="line2d_33"/>
    <g id="text_22">
     <!-- Sim 80 mg -->
     <g transform="translate(385.874344 265.285938) scale(0.1 -0.1)">
      <defs>
       <path id="DejaVuSans-38" d="M 2034 2216 
Q 1584 2216 1326 1975 
Q 1069 1734 1069 1313 
Q 1069 891 1326 650 
Q 1584 409 2034 409 
Q 2484 409 2743 651 
Q 3003 894 3003 1313 
Q 3003 1734 2745 1975 
Q 2488 2216 2034 2216 
z
M 1403 2484 
Q 997 2584 770 2862 
Q 544 3141 544 3541 
Q 544 4100 942 4425 
Q 1341 4750 2034 4750 
Q 2731 4750 3128 4425 
Q 3525 4100 3525 3541 
Q 3525 3141 3298 2862 
Q 3072 2584 2669 2484 
Q 3125 2378 3379 2068 
Q 3634 1759 3634 1313 
Q 3634 634 3220 271 
Q 2806 -91 2034 -91 
Q 1263 -91 848 271 
Q 434 634 434 1313 
Q 434 1759 690 2068 
Q 947 2378 1403 2484 
z
M 1172 3481 
Q 1172 3119 1398 2916 
Q 1625 2713 2034 2713 
Q 2441 2713 2670 2916 
Q 2900 3119 2900 3481 
Q 2900 3844 2670 4047 
Q 2441 4250 2034 4250 
Q 1625 4250 1398 4047 
Q 1172 3844 1172 3481 
z
" transform="scale(0.015625)"/>
      </defs>
      <use xlink:href="#DejaVuSans-53"/>
      <use xlink:href="#DejaVuSans-69" transform="translate(63.476562 0)"/>
      <use xlink:href="#DejaVuSans-6d" transform="translate(91.259766 0)"/>
      <use xlink:href="#DejaVuSans-20" transform="translate(188.671875 0)"/>
      <use xlink:href="#DejaVuSans-38" transform="translate(220.458984 0)"/>
      <use xlink:href="#DejaVuSans-30" transform="translate(284.082031 0)"/>
      <use xlink:href="#DejaVuSans-20" transform="translate(347.705078 0)"/>
      <use xlink:href="#DejaVuSans-6d" transform="translate(379.492188 0)"/>
      <use xlink:href="#DejaVuSans-67" transform="translate(476.904297 0)"/>
     </g>
    </g>
    <g id="LineCollection_7">
     <path d="M 367.874344 281.464063 
L 367.874344 271.464063 
" style="fill: none; stroke: #d62728"/>
    </g>
    <g id="line2d_34">
     <path d="M 357.874344 276.464063 
L 377.874344 276.464063 
" style="fill: none; stroke-dasharray: 3.7,1.6; stroke-dashoffset: 0; stroke: #d62728"/>
    </g>
    <g id="line2d_35">
     <g>
      <use xlink:href="#m48f3ace5af" x="367.874344" y="276.464063" style="fill: #d62728; stroke: #000000; stroke-linejoin: miter"/>
     </g>
    </g>
    <g id="text_23">
     <!-- 80 mg±SD (n=6) -->
     <g transform="translate(385.874344 279.964063) scale(0.1 -0.1)">
      <use xlink:href="#DejaVuSans-38"/>
      <use xlink:href="#DejaVuSans-30" transform="translate(63.623047 0)"/>
      <use xlink:href="#DejaVuSans-20" transform="translate(127.246094 0)"/>
      <use xlink:href="#DejaVuSans-6d" transform="translate(159.033203 0)"/>
      <use xlink:href="#DejaVuSans-67" transform="translate(256.445312 0)"/>
      <use xlink:href="#DejaVuSans-b1" transform="translate(319.921875 0)"/>
      <use xlink:href="#DejaVuSans-53" transform="translate(403.710938 0)"/>
      <use xlink:href="#DejaVuSans-44" transform="translate(467.1875 0)"/>
      <use xlink:href="#DejaVuSans-20" transform="translate(544.189453 0)"/>
      <use xlink:href="#DejaVuSans-28" transform="translate(575.976562 0)"/>
      <use xlink:href="#DejaVuSans-6e" transform="translate(614.990234 0)"/>
      <use xlink:href="#DejaVuSans-3d" transform="translate(678.369141 0)"/>
      <use xlink:href="#DejaVuSans-36" transform="translate(762.158203 0)"/>
      <use xlink:href="#DejaVuSans-29" transform="translate(825.78125 0)"/>
     </g>
    </g>
    <g id="line2d_36">
     <path d="M 357.874344 291.142187 
L 377.874344 291.142187 
" style="fill: none; stroke: #2ca02c; stroke-width: 2; stroke-linecap: square"/>
    </g>
    <g id="line2d_37"/>
    <g id="text_24">
     <!-- Sim 120 mg -->
     <g transform="translate(385.874344 294.642187) scale(0.1 -0.1)">
      <use xlink:href="#DejaVuSans-53"/>
      <use xlink:href="#DejaVuSans-69" transform="translate(63.476562 0)"/>
      <use xlink:href="#DejaVuSans-6d" transform="translate(91.259766 0)"/>
      <use xlink:href="#DejaVuSans-20" transform="translate(188.671875 0)"/>
      <use xlink:href="#DejaVuSans-31" transform="translate(220.458984 0)"/>
      <use xlink:href="#DejaVuSans-32" transform="translate(284.082031 0)"/>
      <use xlink:href="#DejaVuSans-30" transform="translate(347.705078 0)"/>
      <use xlink:href="#DejaVuSans-20" transform="translate(411.328125 0)"/>
      <use xlink:href="#DejaVuSans-6d" transform="translate(443.115234 0)"/>
      <use xlink:href="#DejaVuSans-67" transform="translate(540.527344 0)"/>
     </g>
    </g>
    <g id="LineCollection_8">
     <path d="M 367.874344 310.820312 
L 367.874344 300.820312 
" style="fill: none; stroke: #2ca02c"/>
    </g>
    <g id="line2d_38">
     <path d="M 357.874344 305.820312 
L 377.874344 305.820312 
" style="fill: none; stroke-dasharray: 3.7,1.6; stroke-dashoffset: 0; stroke: #2ca02c"/>
    </g>
    <g id="line2d_39">
     <g>
      <use xlink:href="#m7a72c5aacb" x="367.874344" y="305.820312" style="fill: #2ca02c; stroke: #000000; stroke-linejoin: miter"/>
     </g>
    </g>
    <g id="text_25">
     <!-- 120 mg±SD (n=6) -->
     <g transform="translate(385.874344 309.320312) scale(0.1 -0.1)">
      <use xlink:href="#DejaVuSans-31"/>
      <use xlink:href="#DejaVuSans-32" transform="translate(63.623047 0)"/>
      <use xlink:href="#DejaVuSans-30" transform="translate(127.246094 0)"/>
      <use xlink:href="#DejaVuSans-20" transform="translate(190.869141 0)"/>
      <use xlink:href="#DejaVuSans-6d" transform="translate(222.65625 0)"/>
      <use xlink:href="#DejaVuSans-67" transform="translate(320.068359 0)"/>
      <use xlink:href="#DejaVuSans-b1" transform="translate(383.544922 0)"/>
      <use xlink:href="#DejaVuSans-53" transform="translate(467.333984 0)"/>
      <use xlink:href="#DejaVuSans-44" transform="translate(530.810547 0)"/>
      <use xlink:href="#DejaVuSans-20" transform="translate(607.8125 0)"/>
      <use xlink:href="#DejaVuSans-28" transform="translate(639.599609 0)"/>
      <use xlink:href="#DejaVuSans-6e" transform="translate(678.613281 0)"/>
      <use xlink:href="#DejaVuSans-3d" transform="translate(741.992188 0)"/>
      <use xlink:href="#DejaVuSans-36" transform="translate(825.78125 0)"/>
      <use xlink:href="#DejaVuSans-29" transform="translate(889.404297 0)"/>
     </g>
    </g>
   </g>
  </g>
  <g id="text_26">
   <!-- Munafo1992 (healthy) -->
   <g transform="translate(129.735281 26.196094) scale(0.25 -0.25)">
    <defs>
     <path id="DejaVuSans-Bold-75" d="M 500 1363 
L 500 3500 
L 1625 3500 
L 1625 3150 
Q 1625 2866 1622 2436 
Q 1619 2006 1619 1863 
Q 1619 1441 1641 1255 
Q 1663 1069 1716 984 
Q 1784 875 1895 815 
Q 2006 756 2150 756 
Q 2500 756 2700 1025 
Q 2900 1294 2900 1772 
L 2900 3500 
L 4019 3500 
L 4019 0 
L 2900 0 
L 2900 506 
Q 2647 200 2364 54 
Q 2081 -91 1741 -91 
Q 1134 -91 817 281 
Q 500 653 500 1363 
z
" transform="scale(0.015625)"/>
     <path id="DejaVuSans-Bold-66" d="M 2841 4863 
L 2841 4128 
L 2222 4128 
Q 1984 4128 1890 4042 
Q 1797 3956 1797 3744 
L 1797 3500 
L 2753 3500 
L 2753 2700 
L 1797 2700 
L 1797 0 
L 678 0 
L 678 2700 
L 122 2700 
L 122 3500 
L 678 3500 
L 678 3744 
Q 678 4316 997 4589 
Q 1316 4863 1984 4863 
L 2841 4863 
z
" transform="scale(0.015625)"/>
     <path id="DejaVuSans-Bold-31" d="M 750 831 
L 1813 831 
L 1813 3847 
L 722 3622 
L 722 4441 
L 1806 4666 
L 2950 4666 
L 2950 831 
L 4013 831 
L 4013 0 
L 750 0 
L 750 831 
z
" transform="scale(0.015625)"/>
     <path id="DejaVuSans-Bold-39" d="M 641 103 
L 641 966 
Q 928 831 1190 764 
Q 1453 697 1709 697 
Q 2247 697 2547 995 
Q 2847 1294 2900 1881 
Q 2688 1725 2447 1647 
Q 2206 1569 1925 1569 
Q 1209 1569 770 1986 
Q 331 2403 331 3084 
Q 331 3838 820 4291 
Q 1309 4744 2131 4744 
Q 3044 4744 3544 4128 
Q 4044 3513 4044 2388 
Q 4044 1231 3459 570 
Q 2875 -91 1856 -91 
Q 1528 -91 1228 -42 
Q 928 6 641 103 
z
M 2125 2350 
Q 2441 2350 2600 2554 
Q 2759 2759 2759 3169 
Q 2759 3575 2600 3781 
Q 2441 3988 2125 3988 
Q 1809 3988 1650 3781 
Q 1491 3575 1491 3169 
Q 1491 2759 1650 2554 
Q 1809 2350 2125 2350 
z
" transform="scale(0.015625)"/>
     <path id="DejaVuSans-Bold-32" d="M 1844 884 
L 3897 884 
L 3897 0 
L 506 0 
L 506 884 
L 2209 2388 
Q 2438 2594 2547 2791 
Q 2656 2988 2656 3200 
Q 2656 3528 2436 3728 
Q 2216 3928 1850 3928 
Q 1569 3928 1234 3808 
Q 900 3688 519 3450 
L 519 4475 
Q 925 4609 1322 4679 
Q 1719 4750 2100 4750 
Q 2938 4750 3402 4381 
Q 3866 4013 3866 3353 
Q 3866 2972 3669 2642 
Q 3472 2313 2841 1759 
L 1844 884 
z
" transform="scale(0.015625)"/>
     <path id="DejaVuSans-Bold-28" d="M 2413 -844 
L 1484 -844 
Q 1006 -72 778 623 
Q 550 1319 550 2003 
Q 550 2688 779 3389 
Q 1009 4091 1484 4856 
L 2413 4856 
Q 2013 4116 1813 3408 
Q 1613 2700 1613 2009 
Q 1613 1319 1811 609 
Q 2009 -100 2413 -844 
z
" transform="scale(0.015625)"/>
     <path id="DejaVuSans-Bold-79" d="M 78 3500 
L 1197 3500 
L 2138 1125 
L 2938 3500 
L 4056 3500 
L 2584 -331 
Q 2363 -916 2067 -1148 
Q 1772 -1381 1288 -1381 
L 641 -1381 
L 641 -647 
L 991 -647 
Q 1275 -647 1404 -556 
Q 1534 -466 1606 -231 
L 1638 -134 
L 78 3500 
z
" transform="scale(0.015625)"/>
     <path id="DejaVuSans-Bold-29" d="M 513 -844 
Q 913 -100 1113 609 
Q 1313 1319 1313 2009 
Q 1313 2700 1113 3408 
Q 913 4116 513 4856 
L 1441 4856 
Q 1916 4091 2145 3389 
Q 2375 2688 2375 2003 
Q 2375 1319 2147 623 
Q 1919 -72 1441 -844 
L 513 -844 
z
" transform="scale(0.015625)"/>
    </defs>
    <use xlink:href="#DejaVuSans-Bold-4d"/>
    <use xlink:href="#DejaVuSans-Bold-75" transform="translate(99.511719 0)"/>
    <use xlink:href="#DejaVuSans-Bold-6e" transform="translate(170.703125 0)"/>
    <use xlink:href="#DejaVuSans-Bold-61" transform="translate(241.894531 0)"/>
    <use xlink:href="#DejaVuSans-Bold-66" transform="translate(309.375 0)"/>
    <use xlink:href="#DejaVuSans-Bold-6f" transform="translate(352.880859 0)"/>
    <use xlink:href="#DejaVuSans-Bold-31" transform="translate(421.582031 0)"/>
    <use xlink:href="#DejaVuSans-Bold-39" transform="translate(491.162109 0)"/>
    <use xlink:href="#DejaVuSans-Bold-39" transform="translate(560.742188 0)"/>
    <use xlink:href="#DejaVuSans-Bold-32" transform="translate(630.322266 0)"/>
    <use xlink:href="#DejaVuSans-Bold-20" transform="translate(699.902344 0)"/>
    <use xlink:href="#DejaVuSans-Bold-28" transform="translate(734.716797 0)"/>
    <use xlink:href="#DejaVuSans-Bold-68" transform="translate(780.419922 0)"/>
    <use xlink:href="#DejaVuSans-Bold-65" transform="translate(851.611328 0)"/>
    <use xlink:href="#DejaVuSans-Bold-61" transform="translate(919.433594 0)"/>
    <use xlink:href="#DejaVuSans-Bold-6c" transform="translate(986.914062 0)"/>
    <use xlink:href="#DejaVuSans-Bold-74" transform="translate(1021.191406 0)"/>
    <use xlink:href="#DejaVuSans-Bold-68" transform="translate(1068.994141 0)"/>
    <use xlink:href="#DejaVuSans-Bold-79" transform="translate(1140.185547 0)"/>
    <use xlink:href="#DejaVuSans-Bold-29" transform="translate(1205.371094 0)"/>
   </g>
  </g>
 </g>
 <defs>
  <clipPath id="p84304125f1">
   <rect x="97.118094" y="43.2" width="390.6" height="277.2"/>
  </clipPath>
 </defs>
</svg>
