<?xml version="1.0" encoding="utf-8" standalone="no"?>
<!DOCTYPE svg PUBLIC "-//W3C//DTD SVG 1.1//EN"
  "http://www.w3.org/Graphics/SVG/1.1/DTD/svg11.dtd">
<svg xmlns:xlink="http://www.w3.org/1999/xlink" width="471.595625pt" height="683.737812pt" viewBox="0 0 471.595625 683.737812" xmlns="http://www.w3.org/2000/svg" version="1.1">
 <metadata>
  <rdf:RDF xmlns:dc="http://purl.org/dc/elements/1.1/" xmlns:cc="http://creativecommons.org/ns#" xmlns:rdf="http://www.w3.org/1999/02/22-rdf-syntax-ns#">
   <cc:Work>
    <dc:type rdf:resource="http://purl.org/dc/dcmitype/StillImage"/>
    <dc:date>2025-10-07T16:18:04.867170</dc:date>
    <dc:format>image/svg+xml</dc:format>
    <dc:creator>
     <cc:Agent>
      <dc:title>Matplotlib v3.10.6, https://matplotlib.org/</dc:title>
     </cc:Agent>
    </dc:creator>
   </cc:Work>
  </rdf:RDF>
 </metadata>
 <defs>
  <style type="text/css">*{stroke-linejoin: round; stroke-linecap: butt}</style>
 </defs>
 <g id="figure_1">
  <g id="patch_1">
   <path d="M 0 683.737812 
L 471.595625 683.737812 
L 471.595625 0 
L 0 0 
z
" style="fill: #ffffff"/>
  </g>
  <g id="axes_1">
   <g id="patch_2">
    <path d="M 73.795625 320.243478 
L 464.395625 320.243478 
L 464.395625 79.2 
L 73.795625 79.2 
z
" style="fill: #ffffff"/>
   </g>
   <g id="matplotlib.axis_1">
    <g id="xtick_1">
     <g id="line2d_1">
      <defs>
       <path id="mb4ba891001" d="M 0 0 
L 0 3.5 
" style="stroke: #000000; stroke-width: 0.8"/>
      </defs>
      <g>
       <use xlink:href="#mb4ba891001" x="91.55017" y="320.243478" style="stroke: #000000; stroke-width: 0.8"/>
      </g>
     </g>
     <g id="text_1">
      <!-- 0 -->
      <g transform="translate(86.778295 338.641135) scale(0.15 -0.15)">
       <defs>
        <path id="DejaVuSans-30" d="M 2034 4250 
Q 1547 4250 1301 3770 
Q 1056 3291 1056 2328 
Q 1056 1369 1301 889 
Q 1547 409 2034 409 
Q 2525 409 2770 889 
Q 3016 1369 3016 2328 
Q 3016 3291 2770 3770 
Q 2525 4250 2034 4250 
z
M 2034 4750 
Q 2819 4750 3233 4129 
Q 3647 3509 3647 2328 
Q 3647 1150 3233 529 
Q 2819 -91 2034 -91 
Q 1250 -91 836 529 
Q 422 1150 422 2328 
Q 422 3509 836 4129 
Q 1250 4750 2034 4750 
z
" transform="scale(0.015625)"/>
       </defs>
       <use xlink:href="#DejaVuSans-30"/>
      </g>
     </g>
    </g>
    <g id="xtick_2">
     <g id="line2d_2">
      <g>
       <use xlink:href="#mb4ba891001" x="140.868352" y="320.243478" style="stroke: #000000; stroke-width: 0.8"/>
      </g>
     </g>
     <g id="text_2">
      <!-- 5 -->
      <g transform="translate(136.096477 338.641135) scale(0.15 -0.15)">
       <defs>
        <path id="DejaVuSans-35" d="M 691 4666 
L 3169 4666 
L 3169 4134 
L 1269 4134 
L 1269 2991 
Q 1406 3038 1543 3061 
Q 1681 3084 1819 3084 
Q 2600 3084 3056 2656 
Q 3513 2228 3513 1497 
Q 3513 744 3044 326 
Q 2575 -91 1722 -91 
Q 1428 -91 1123 -41 
Q 819 9 494 109 
L 494 744 
Q 775 591 1075 516 
Q 1375 441 1709 441 
Q 2250 441 2565 725 
Q 2881 1009 2881 1497 
Q 2881 1984 2565 2268 
Q 2250 2553 1709 2553 
Q 1456 2553 1204 2497 
Q 953 2441 691 2322 
L 691 4666 
z
" transform="scale(0.015625)"/>
       </defs>
       <use xlink:href="#DejaVuSans-35"/>
      </g>
     </g>
    </g>
    <g id="xtick_3">
     <g id="line2d_3">
      <g>
       <use xlink:href="#mb4ba891001" x="190.186534" y="320.243478" style="stroke: #000000; stroke-width: 0.8"/>
      </g>
     </g>
     <g id="text_3">
      <!-- 10 -->
      <g transform="translate(180.642784 338.641135) scale(0.15 -0.15)">
       <defs>
        <path id="DejaVuSans-31" d="M 794 531 
L 1825 531 
L 1825 4091 
L 703 3866 
L 703 4441 
L 1819 4666 
L 2450 4666 
L 2450 531 
L 3481 531 
L 3481 0 
L 794 0 
L 794 531 
z
" transform="scale(0.015625)"/>
       </defs>
       <use xlink:href="#DejaVuSans-31"/>
       <use xlink:href="#DejaVuSans-30" transform="translate(63.623047 0)"/>
      </g>
     </g>
    </g>
    <g id="xtick_4">
     <g id="line2d_4">
      <g>
       <use xlink:href="#mb4ba891001" x="239.504716" y="320.243478" style="stroke: #000000; stroke-width: 0.8"/>
      </g>
     </g>
     <g id="text_4">
      <!-- 15 -->
      <g transform="translate(229.960966 338.641135) scale(0.15 -0.15)">
       <use xlink:href="#DejaVuSans-31"/>
       <use xlink:href="#DejaVuSans-35" transform="translate(63.623047 0)"/>
      </g>
     </g>
    </g>
    <g id="xtick_5">
     <g id="line2d_5">
      <g>
       <use xlink:href="#mb4ba891001" x="288.822898" y="320.243478" style="stroke: #000000; stroke-width: 0.8"/>
      </g>
     </g>
     <g id="text_5">
      <!-- 20 -->
      <g transform="translate(279.279148 338.641135) scale(0.15 -0.15)">
       <defs>
        <path id="DejaVuSans-32" d="M 1228 531 
L 3431 531 
L 3431 0 
L 469 0 
L 469 531 
Q 828 903 1448 1529 
Q 2069 2156 2228 2338 
Q 2531 2678 2651 2914 
Q 2772 3150 2772 3378 
Q 2772 3750 2511 3984 
Q 2250 4219 1831 4219 
Q 1534 4219 1204 4116 
Q 875 4013 500 3803 
L 500 4441 
Q 881 4594 1212 4672 
Q 1544 4750 1819 4750 
Q 2544 4750 2975 4387 
Q 3406 4025 3406 3419 
Q 3406 3131 3298 2873 
Q 3191 2616 2906 2266 
Q 2828 2175 2409 1742 
Q 1991 1309 1228 531 
z
" transform="scale(0.015625)"/>
       </defs>
       <use xlink:href="#DejaVuSans-32"/>
       <use xlink:href="#DejaVuSans-30" transform="translate(63.623047 0)"/>
      </g>
     </g>
    </g>
    <g id="xtick_6">
     <g id="line2d_6">
      <g>
       <use xlink:href="#mb4ba891001" x="338.14108" y="320.243478" style="stroke: #000000; stroke-width: 0.8"/>
      </g>
     </g>
     <g id="text_6">
      <!-- 25 -->
      <g transform="translate(328.59733 338.641135) scale(0.15 -0.15)">
       <use xlink:href="#DejaVuSans-32"/>
       <use xlink:href="#DejaVuSans-35" transform="translate(63.623047 0)"/>
      </g>
     </g>
    </g>
    <g id="xtick_7">
     <g id="line2d_7">
      <g>
       <use xlink:href="#mb4ba891001" x="387.459261" y="320.243478" style="stroke: #000000; stroke-width: 0.8"/>
      </g>
     </g>
     <g id="text_7">
      <!-- 30 -->
      <g transform="translate(377.915511 338.641135) scale(0.15 -0.15)">
       <defs>
        <path id="DejaVuSans-33" d="M 2597 2516 
Q 3050 2419 3304 2112 
Q 3559 1806 3559 1356 
Q 3559 666 3084 287 
Q 2609 -91 1734 -91 
Q 1441 -91 1130 -33 
Q 819 25 488 141 
L 488 750 
Q 750 597 1062 519 
Q 1375 441 1716 441 
Q 2309 441 2620 675 
Q 2931 909 2931 1356 
Q 2931 1769 2642 2001 
Q 2353 2234 1838 2234 
L 1294 2234 
L 1294 2753 
L 1863 2753 
Q 2328 2753 2575 2939 
Q 2822 3125 2822 3475 
Q 2822 3834 2567 4026 
Q 2313 4219 1838 4219 
Q 1578 4219 1281 4162 
Q 984 4106 628 3988 
L 628 4550 
Q 988 4650 1302 4700 
Q 1616 4750 1894 4750 
Q 2613 4750 3031 4423 
Q 3450 4097 3450 3541 
Q 3450 3153 3228 2886 
Q 3006 2619 2597 2516 
z
" transform="scale(0.015625)"/>
       </defs>
       <use xlink:href="#DejaVuSans-33"/>
       <use xlink:href="#DejaVuSans-30" transform="translate(63.623047 0)"/>
      </g>
     </g>
    </g>
    <g id="xtick_8">
     <g id="line2d_8">
      <g>
       <use xlink:href="#mb4ba891001" x="436.777443" y="320.243478" style="stroke: #000000; stroke-width: 0.8"/>
      </g>
     </g>
     <g id="text_8">
      <!-- 35 -->
      <g transform="translate(427.233693 338.641135) scale(0.15 -0.15)">
       <use xlink:href="#DejaVuSans-33"/>
       <use xlink:href="#DejaVuSans-35" transform="translate(63.623047 0)"/>
      </g>
     </g>
    </g>
    <g id="text_9">
     <!-- Time [hr] -->
     <g transform="translate(222.183125 359.437853) scale(0.18 -0.18)">
      <defs>
       <path id="DejaVuSans-Bold-54" d="M 31 4666 
L 4331 4666 
L 4331 3756 
L 2784 3756 
L 2784 0 
L 1581 0 
L 1581 3756 
L 31 3756 
L 31 4666 
z
" transform="scale(0.015625)"/>
       <path id="DejaVuSans-Bold-69" d="M 538 3500 
L 1656 3500 
L 1656 0 
L 538 0 
L 538 3500 
z
M 538 4863 
L 1656 4863 
L 1656 3950 
L 538 3950 
L 538 4863 
z
" transform="scale(0.015625)"/>
       <path id="DejaVuSans-Bold-6d" d="M 3781 2919 
Q 3994 3244 4286 3414 
Q 4578 3584 4928 3584 
Q 5531 3584 5847 3212 
Q 6163 2841 6163 2131 
L 6163 0 
L 5038 0 
L 5038 1825 
Q 5041 1866 5042 1909 
Q 5044 1953 5044 2034 
Q 5044 2406 4934 2573 
Q 4825 2741 4581 2741 
Q 4263 2741 4089 2478 
Q 3916 2216 3909 1719 
L 3909 0 
L 2784 0 
L 2784 1825 
Q 2784 2406 2684 2573 
Q 2584 2741 2328 2741 
Q 2006 2741 1831 2477 
Q 1656 2213 1656 1722 
L 1656 0 
L 531 0 
L 531 3500 
L 1656 3500 
L 1656 2988 
Q 1863 3284 2130 3434 
Q 2397 3584 2719 3584 
Q 3081 3584 3359 3409 
Q 3638 3234 3781 2919 
z
" transform="scale(0.015625)"/>
       <path id="DejaVuSans-Bold-65" d="M 4031 1759 
L 4031 1441 
L 1416 1441 
Q 1456 1047 1700 850 
Q 1944 653 2381 653 
Q 2734 653 3104 758 
Q 3475 863 3866 1075 
L 3866 213 
Q 3469 63 3072 -14 
Q 2675 -91 2278 -91 
Q 1328 -91 801 392 
Q 275 875 275 1747 
Q 275 2603 792 3093 
Q 1309 3584 2216 3584 
Q 3041 3584 3536 3087 
Q 4031 2591 4031 1759 
z
M 2881 2131 
Q 2881 2450 2695 2645 
Q 2509 2841 2209 2841 
Q 1884 2841 1681 2658 
Q 1478 2475 1428 2131 
L 2881 2131 
z
" transform="scale(0.015625)"/>
       <path id="DejaVuSans-Bold-20" transform="scale(0.015625)"/>
       <path id="DejaVuSans-Bold-5b" d="M 550 4863 
L 2491 4863 
L 2491 4159 
L 1613 4159 
L 1613 -141 
L 2491 -141 
L 2491 -844 
L 550 -844 
L 550 4863 
z
" transform="scale(0.015625)"/>
       <path id="DejaVuSans-Bold-68" d="M 4056 2131 
L 4056 0 
L 2931 0 
L 2931 347 
L 2931 1625 
Q 2931 2084 2911 2256 
Q 2891 2428 2841 2509 
Q 2775 2619 2662 2680 
Q 2550 2741 2406 2741 
Q 2056 2741 1856 2470 
Q 1656 2200 1656 1722 
L 1656 0 
L 538 0 
L 538 4863 
L 1656 4863 
L 1656 2988 
Q 1909 3294 2193 3439 
Q 2478 3584 2822 3584 
Q 3428 3584 3742 3212 
Q 4056 2841 4056 2131 
z
" transform="scale(0.015625)"/>
       <path id="DejaVuSans-Bold-72" d="M 3138 2547 
Q 2991 2616 2845 2648 
Q 2700 2681 2553 2681 
Q 2122 2681 1889 2404 
Q 1656 2128 1656 1613 
L 1656 0 
L 538 0 
L 538 3500 
L 1656 3500 
L 1656 2925 
Q 1872 3269 2151 3426 
Q 2431 3584 2822 3584 
Q 2878 3584 2943 3579 
Q 3009 3575 3134 3559 
L 3138 2547 
z
" transform="scale(0.015625)"/>
       <path id="DejaVuSans-Bold-5d" d="M 2375 -844 
L 434 -844 
L 434 -141 
L 1313 -141 
L 1313 4159 
L 434 4159 
L 434 4863 
L 2375 4863 
L 2375 -844 
z
" transform="scale(0.015625)"/>
      </defs>
      <use xlink:href="#DejaVuSans-Bold-54"/>
      <use xlink:href="#DejaVuSans-Bold-69" transform="translate(68.212891 0)"/>
      <use xlink:href="#DejaVuSans-Bold-6d" transform="translate(102.490234 0)"/>
      <use xlink:href="#DejaVuSans-Bold-65" transform="translate(206.689453 0)"/>
      <use xlink:href="#DejaVuSans-Bold-20" transform="translate(274.511719 0)"/>
      <use xlink:href="#DejaVuSans-Bold-5b" transform="translate(309.326172 0)"/>
      <use xlink:href="#DejaVuSans-Bold-68" transform="translate(355.029297 0)"/>
      <use xlink:href="#DejaVuSans-Bold-72" transform="translate(426.220703 0)"/>
      <use xlink:href="#DejaVuSans-Bold-5d" transform="translate(475.537109 0)"/>
     </g>
    </g>
   </g>
   <g id="matplotlib.axis_2">
    <g id="ytick_1">
     <g id="line2d_9">
      <defs>
       <path id="m6626eabaf2" d="M 0 0 
L -3.5 0 
" style="stroke: #000000; stroke-width: 0.8"/>
      </defs>
      <g>
       <use xlink:href="#m6626eabaf2" x="73.795625" y="309.286957" style="stroke: #000000; stroke-width: 0.8"/>
      </g>
     </g>
     <g id="text_10">
      <!-- 0 -->
      <g transform="translate(57.251875 314.985785) scale(0.15 -0.15)">
       <use xlink:href="#DejaVuSans-30"/>
      </g>
     </g>
    </g>
    <g id="ytick_2">
     <g id="line2d_10">
      <g>
       <use xlink:href="#m6626eabaf2" x="73.795625" y="271.751377" style="stroke: #000000; stroke-width: 0.8"/>
      </g>
     </g>
     <g id="text_11">
      <!-- 200 -->
      <g transform="translate(38.164375 277.450206) scale(0.15 -0.15)">
       <use xlink:href="#DejaVuSans-32"/>
       <use xlink:href="#DejaVuSans-30" transform="translate(63.623047 0)"/>
       <use xlink:href="#DejaVuSans-30" transform="translate(127.246094 0)"/>
      </g>
     </g>
    </g>
    <g id="ytick_3">
     <g id="line2d_11">
      <g>
       <use xlink:href="#m6626eabaf2" x="73.795625" y="234.215798" style="stroke: #000000; stroke-width: 0.8"/>
      </g>
     </g>
     <g id="text_12">
      <!-- 400 -->
      <g transform="translate(38.164375 239.914626) scale(0.15 -0.15)">
       <defs>
        <path id="DejaVuSans-34" d="M 2419 4116 
L 825 1625 
L 2419 1625 
L 2419 4116 
z
M 2253 4666 
L 3047 4666 
L 3047 1625 
L 3713 1625 
L 3713 1100 
L 3047 1100 
L 3047 0 
L 2419 0 
L 2419 1100 
L 313 1100 
L 313 1709 
L 2253 4666 
z
" transform="scale(0.015625)"/>
       </defs>
       <use xlink:href="#DejaVuSans-34"/>
       <use xlink:href="#DejaVuSans-30" transform="translate(63.623047 0)"/>
       <use xlink:href="#DejaVuSans-30" transform="translate(127.246094 0)"/>
      </g>
     </g>
    </g>
    <g id="ytick_4">
     <g id="line2d_12">
      <g>
       <use xlink:href="#m6626eabaf2" x="73.795625" y="196.680219" style="stroke: #000000; stroke-width: 0.8"/>
      </g>
     </g>
     <g id="text_13">
      <!-- 600 -->
      <g transform="translate(38.164375 202.379047) scale(0.15 -0.15)">
       <defs>
        <path id="DejaVuSans-36" d="M 2113 2584 
Q 1688 2584 1439 2293 
Q 1191 2003 1191 1497 
Q 1191 994 1439 701 
Q 1688 409 2113 409 
Q 2538 409 2786 701 
Q 3034 994 3034 1497 
Q 3034 2003 2786 2293 
Q 2538 2584 2113 2584 
z
M 3366 4563 
L 3366 3988 
Q 3128 4100 2886 4159 
Q 2644 4219 2406 4219 
Q 1781 4219 1451 3797 
Q 1122 3375 1075 2522 
Q 1259 2794 1537 2939 
Q 1816 3084 2150 3084 
Q 2853 3084 3261 2657 
Q 3669 2231 3669 1497 
Q 3669 778 3244 343 
Q 2819 -91 2113 -91 
Q 1303 -91 875 529 
Q 447 1150 447 2328 
Q 447 3434 972 4092 
Q 1497 4750 2381 4750 
Q 2619 4750 2861 4703 
Q 3103 4656 3366 4563 
z
" transform="scale(0.015625)"/>
       </defs>
       <use xlink:href="#DejaVuSans-36"/>
       <use xlink:href="#DejaVuSans-30" transform="translate(63.623047 0)"/>
       <use xlink:href="#DejaVuSans-30" transform="translate(127.246094 0)"/>
      </g>
     </g>
    </g>
    <g id="ytick_5">
     <g id="line2d_13">
      <g>
       <use xlink:href="#m6626eabaf2" x="73.795625" y="159.14464" style="stroke: #000000; stroke-width: 0.8"/>
      </g>
     </g>
     <g id="text_14">
      <!-- 800 -->
      <g transform="translate(38.164375 164.843468) scale(0.15 -0.15)">
       <defs>
        <path id="DejaVuSans-38" d="M 2034 2216 
Q 1584 2216 1326 1975 
Q 1069 1734 1069 1313 
Q 1069 891 1326 650 
Q 1584 409 2034 409 
Q 2484 409 2743 651 
Q 3003 894 3003 1313 
Q 3003 1734 2745 1975 
Q 2488 2216 2034 2216 
z
M 1403 2484 
Q 997 2584 770 2862 
Q 544 3141 544 3541 
Q 544 4100 942 4425 
Q 1341 4750 2034 4750 
Q 2731 4750 3128 4425 
Q 3525 4100 3525 3541 
Q 3525 3141 3298 2862 
Q 3072 2584 2669 2484 
Q 3125 2378 3379 2068 
Q 3634 1759 3634 1313 
Q 3634 634 3220 271 
Q 2806 -91 2034 -91 
Q 1263 -91 848 271 
Q 434 634 434 1313 
Q 434 1759 690 2068 
Q 947 2378 1403 2484 
z
M 1172 3481 
Q 1172 3119 1398 2916 
Q 1625 2713 2034 2713 
Q 2441 2713 2670 2916 
Q 2900 3119 2900 3481 
Q 2900 3844 2670 4047 
Q 2441 4250 2034 4250 
Q 1625 4250 1398 4047 
Q 1172 3844 1172 3481 
z
" transform="scale(0.015625)"/>
       </defs>
       <use xlink:href="#DejaVuSans-38"/>
       <use xlink:href="#DejaVuSans-30" transform="translate(63.623047 0)"/>
       <use xlink:href="#DejaVuSans-30" transform="translate(127.246094 0)"/>
      </g>
     </g>
    </g>
    <g id="ytick_6">
     <g id="line2d_14">
      <g>
       <use xlink:href="#m6626eabaf2" x="73.795625" y="121.609061" style="stroke: #000000; stroke-width: 0.8"/>
      </g>
     </g>
     <g id="text_15">
      <!-- 1000 -->
      <g transform="translate(28.620625 127.307889) scale(0.15 -0.15)">
       <use xlink:href="#DejaVuSans-31"/>
       <use xlink:href="#DejaVuSans-30" transform="translate(63.623047 0)"/>
       <use xlink:href="#DejaVuSans-30" transform="translate(127.246094 0)"/>
       <use xlink:href="#DejaVuSans-30" transform="translate(190.869141 0)"/>
      </g>
     </g>
    </g>
    <g id="ytick_7">
     <g id="line2d_15">
      <g>
       <use xlink:href="#m6626eabaf2" x="73.795625" y="84.073482" style="stroke: #000000; stroke-width: 0.8"/>
      </g>
     </g>
     <g id="text_16">
      <!-- 1200 -->
      <g transform="translate(28.620625 89.77231) scale(0.15 -0.15)">
       <use xlink:href="#DejaVuSans-31"/>
       <use xlink:href="#DejaVuSans-32" transform="translate(63.623047 0)"/>
       <use xlink:href="#DejaVuSans-30" transform="translate(127.246094 0)"/>
       <use xlink:href="#DejaVuSans-30" transform="translate(190.869141 0)"/>
      </g>
     </g>
    </g>
    <g id="text_17">
     <!-- Losartan [nM] -->
     <g transform="translate(20.877188 271.012989) rotate(-90) scale(0.18 -0.18)">
      <defs>
       <path id="DejaVuSans-Bold-4c" d="M 588 4666 
L 1791 4666 
L 1791 909 
L 3903 909 
L 3903 0 
L 588 0 
L 588 4666 
z
" transform="scale(0.015625)"/>
       <path id="DejaVuSans-Bold-6f" d="M 2203 2784 
Q 1831 2784 1636 2517 
Q 1441 2250 1441 1747 
Q 1441 1244 1636 976 
Q 1831 709 2203 709 
Q 2569 709 2762 976 
Q 2956 1244 2956 1747 
Q 2956 2250 2762 2517 
Q 2569 2784 2203 2784 
z
M 2203 3584 
Q 3106 3584 3614 3096 
Q 4122 2609 4122 1747 
Q 4122 884 3614 396 
Q 3106 -91 2203 -91 
Q 1297 -91 786 396 
Q 275 884 275 1747 
Q 275 2609 786 3096 
Q 1297 3584 2203 3584 
z
" transform="scale(0.015625)"/>
       <path id="DejaVuSans-Bold-73" d="M 3272 3391 
L 3272 2541 
Q 2913 2691 2578 2766 
Q 2244 2841 1947 2841 
Q 1628 2841 1473 2761 
Q 1319 2681 1319 2516 
Q 1319 2381 1436 2309 
Q 1553 2238 1856 2203 
L 2053 2175 
Q 2913 2066 3209 1816 
Q 3506 1566 3506 1031 
Q 3506 472 3093 190 
Q 2681 -91 1863 -91 
Q 1516 -91 1145 -36 
Q 775 19 384 128 
L 384 978 
Q 719 816 1070 734 
Q 1422 653 1784 653 
Q 2113 653 2278 743 
Q 2444 834 2444 1013 
Q 2444 1163 2330 1236 
Q 2216 1309 1875 1350 
L 1678 1375 
Q 931 1469 631 1722 
Q 331 1975 331 2491 
Q 331 3047 712 3315 
Q 1094 3584 1881 3584 
Q 2191 3584 2531 3537 
Q 2872 3491 3272 3391 
z
" transform="scale(0.015625)"/>
       <path id="DejaVuSans-Bold-61" d="M 2106 1575 
Q 1756 1575 1579 1456 
Q 1403 1338 1403 1106 
Q 1403 894 1545 773 
Q 1688 653 1941 653 
Q 2256 653 2472 879 
Q 2688 1106 2688 1447 
L 2688 1575 
L 2106 1575 
z
M 3816 1997 
L 3816 0 
L 2688 0 
L 2688 519 
Q 2463 200 2181 54 
Q 1900 -91 1497 -91 
Q 953 -91 614 226 
Q 275 544 275 1050 
Q 275 1666 698 1953 
Q 1122 2241 2028 2241 
L 2688 2241 
L 2688 2328 
Q 2688 2594 2478 2717 
Q 2269 2841 1825 2841 
Q 1466 2841 1156 2769 
Q 847 2697 581 2553 
L 581 3406 
Q 941 3494 1303 3539 
Q 1666 3584 2028 3584 
Q 2975 3584 3395 3211 
Q 3816 2838 3816 1997 
z
" transform="scale(0.015625)"/>
       <path id="DejaVuSans-Bold-74" d="M 1759 4494 
L 1759 3500 
L 2913 3500 
L 2913 2700 
L 1759 2700 
L 1759 1216 
Q 1759 972 1856 886 
Q 1953 800 2241 800 
L 2816 800 
L 2816 0 
L 1856 0 
Q 1194 0 917 276 
Q 641 553 641 1216 
L 641 2700 
L 84 2700 
L 84 3500 
L 641 3500 
L 641 4494 
L 1759 4494 
z
" transform="scale(0.015625)"/>
       <path id="DejaVuSans-Bold-6e" d="M 4056 2131 
L 4056 0 
L 2931 0 
L 2931 347 
L 2931 1631 
Q 2931 2084 2911 2256 
Q 2891 2428 2841 2509 
Q 2775 2619 2662 2680 
Q 2550 2741 2406 2741 
Q 2056 2741 1856 2470 
Q 1656 2200 1656 1722 
L 1656 0 
L 538 0 
L 538 3500 
L 1656 3500 
L 1656 2988 
Q 1909 3294 2193 3439 
Q 2478 3584 2822 3584 
Q 3428 3584 3742 3212 
Q 4056 2841 4056 2131 
z
" transform="scale(0.015625)"/>
       <path id="DejaVuSans-Bold-4d" d="M 588 4666 
L 2119 4666 
L 3181 2169 
L 4250 4666 
L 5778 4666 
L 5778 0 
L 4641 0 
L 4641 3413 
L 3566 897 
L 2803 897 
L 1728 3413 
L 1728 0 
L 588 0 
L 588 4666 
z
" transform="scale(0.015625)"/>
      </defs>
      <use xlink:href="#DejaVuSans-Bold-4c"/>
      <use xlink:href="#DejaVuSans-Bold-6f" transform="translate(63.720703 0)"/>
      <use xlink:href="#DejaVuSans-Bold-73" transform="translate(132.421875 0)"/>
      <use xlink:href="#DejaVuSans-Bold-61" transform="translate(191.943359 0)"/>
      <use xlink:href="#DejaVuSans-Bold-72" transform="translate(259.423828 0)"/>
      <use xlink:href="#DejaVuSans-Bold-74" transform="translate(308.740234 0)"/>
      <use xlink:href="#DejaVuSans-Bold-61" transform="translate(356.542969 0)"/>
      <use xlink:href="#DejaVuSans-Bold-6e" transform="translate(424.023438 0)"/>
      <use xlink:href="#DejaVuSans-Bold-20" transform="translate(495.214844 0)"/>
      <use xlink:href="#DejaVuSans-Bold-5b" transform="translate(530.029297 0)"/>
      <use xlink:href="#DejaVuSans-Bold-6e" transform="translate(575.732422 0)"/>
      <use xlink:href="#DejaVuSans-Bold-4d" transform="translate(646.923828 0)"/>
      <use xlink:href="#DejaVuSans-Bold-5d" transform="translate(746.435547 0)"/>
     </g>
    </g>
   </g>
   <g id="LineCollection_1">
    <path clip-path="url(#p48a752eb03)" style="fill: none; stroke: #1f77b4"/>
    <path clip-path="url(#p48a752eb03)" style="fill: none; stroke: #1f77b4"/>
   </g>
   <g id="LineCollection_2">
    <path clip-path="url(#p48a752eb03)" style="fill: none; stroke: #d62728"/>
    <path clip-path="url(#p48a752eb03)" style="fill: none; stroke: #d62728"/>
    <path clip-path="url(#p48a752eb03)" style="fill: none; stroke: #d62728"/>
   </g>
   <g id="LineCollection_3">
    <path clip-path="url(#p48a752eb03)" style="fill: none; stroke: #2ca02c"/>
    <path clip-path="url(#p48a752eb03)" style="fill: none; stroke: #2ca02c"/>
    <path clip-path="url(#p48a752eb03)" style="fill: none; stroke: #2ca02c"/>
   </g>
   <g id="line2d_16">
    <path d="M 91.55017 309.286957 
L 446.64108 309.286957 
L 446.64108 309.286957 
" clip-path="url(#p48a752eb03)" style="fill: none; stroke: #000000; stroke-width: 2; stroke-linecap: square"/>
   </g>
   <g id="line2d_17">
    <path d="M 91.55017 309.286957 
L 91.905261 309.188072 
L 92.260352 308.615744 
L 92.615443 307.376725 
L 93.325625 302.928344 
L 94.035807 296.476286 
L 97.586716 260.671188 
L 98.651989 253.750004 
L 99.36217 250.478258 
L 100.072352 248.217689 
L 100.782534 246.876076 
L 101.137625 246.515999 
L 101.492716 246.343871 
L 101.847807 246.345079 
L 102.202898 246.505102 
L 102.91308 247.244996 
L 103.623261 248.455029 
L 104.688534 250.937515 
L 106.108898 255.059748 
L 112.855625 276.000929 
L 114.63108 280.417661 
L 116.406534 284.229061 
L 118.181989 287.472091 
L 119.957443 290.204006 
L 121.732898 292.488906 
L 123.508352 294.390232 
L 125.283807 295.966881 
L 127.059261 297.271474 
L 129.189807 298.541941 
L 131.320352 299.553064 
L 133.805989 300.476946 
L 136.646716 301.277791 
L 139.842534 301.943852 
L 143.748534 302.527707 
L 148.719807 303.040958 
L 155.821625 303.530991 
L 167.184534 304.05888 
L 188.134898 304.77661 
L 221.158352 305.679156 
L 259.50817 306.501381 
L 303.539443 307.217052 
L 355.027625 307.824296 
L 416.813443 308.322741 
L 446.64108 308.498443 
L 446.64108 308.498443 
" clip-path="url(#p48a752eb03)" style="fill: none; stroke: #1f77b4; stroke-width: 2; stroke-linecap: square"/>
   </g>
   <g id="line2d_18">
    <path d="M 101.413807 262.85213 
L 111.277443 290.886744 
" clip-path="url(#p48a752eb03)" style="fill: none; stroke-dasharray: 3.7,1.6; stroke-dashoffset: 0; stroke: #1f77b4"/>
    <defs>
     <path id="m956bad4d4b" d="M -3 3 
L 3 3 
L 3 -3 
L -3 -3 
z
" style="stroke: #000000; stroke-linejoin: miter"/>
    </defs>
    <g clip-path="url(#p48a752eb03)">
     <use xlink:href="#m956bad4d4b" x="101.413807" y="262.85213" style="fill: #1f77b4; stroke: #000000; stroke-linejoin: miter"/>
     <use xlink:href="#m956bad4d4b" x="111.277443" y="290.886744" style="fill: #1f77b4; stroke: #000000; stroke-linejoin: miter"/>
    </g>
   </g>
   <g id="line2d_19">
    <path d="M 91.55017 309.286957 
L 91.905261 309.089185 
L 92.260352 307.944286 
L 92.615443 305.463787 
L 92.970534 301.614618 
L 93.680716 290.406512 
L 94.745989 267.997119 
L 96.876534 220.766096 
L 97.941807 201.883105 
L 98.651989 191.966287 
L 99.36217 184.284456 
L 100.072352 178.778422 
L 100.782534 175.303519 
L 101.137625 174.266872 
L 101.492716 173.660416 
L 101.847807 173.454737 
L 102.202898 173.61977 
L 102.557989 174.12527 
L 102.91308 174.941206 
L 103.623261 177.387282 
L 104.333443 180.733241 
L 105.398716 186.995401 
L 107.17417 199.345281 
L 111.08017 227.311854 
L 112.855625 238.416087 
L 114.63108 248.099919 
L 116.406534 256.373601 
L 117.826898 262.049769 
L 119.247261 266.970565 
L 120.667625 271.218205 
L 122.087989 274.87348 
L 123.508352 278.012217 
L 124.928716 280.70358 
L 126.34908 283.009464 
L 128.124534 285.432359 
L 129.899989 287.429728 
L 131.675443 289.078477 
L 133.450898 290.442472 
L 135.581443 291.776939 
L 137.711989 292.850293 
L 140.197625 293.848875 
L 143.038352 294.740185 
L 146.23417 295.514772 
L 150.495261 296.295856 
L 155.821625 297.024307 
L 163.278534 297.797563 
L 174.641443 298.728075 
L 192.395989 299.942174 
L 215.121807 301.272446 
L 240.333261 302.525659 
L 268.030352 303.67763 
L 298.56817 304.721642 
L 332.656898 305.659273 
L 371.006716 306.485999 
L 415.037989 307.205621 
L 446.64108 307.605142 
L 446.64108 307.605142 
" clip-path="url(#p48a752eb03)" style="fill: none; stroke: #d62728; stroke-width: 2; stroke-linecap: square"/>
   </g>
   <g id="line2d_20">
    <path d="M 101.413807 202.612778 
L 111.277443 266.842662 
L 131.004716 292.185401 
" clip-path="url(#p48a752eb03)" style="fill: none; stroke-dasharray: 3.7,1.6; stroke-dashoffset: 0; stroke: #d62728"/>
    <defs>
     <path id="m1515565507" d="M -3 3 
L 3 3 
L 3 -3 
L -3 -3 
z
" style="stroke: #000000; stroke-linejoin: miter"/>
    </defs>
    <g clip-path="url(#p48a752eb03)">
     <use xlink:href="#m1515565507" x="101.413807" y="202.612778" style="fill: #d62728; stroke: #000000; stroke-linejoin: miter"/>
     <use xlink:href="#m1515565507" x="111.277443" y="266.842662" style="fill: #d62728; stroke: #000000; stroke-linejoin: miter"/>
     <use xlink:href="#m1515565507" x="131.004716" y="292.185401" style="fill: #d62728; stroke: #000000; stroke-linejoin: miter"/>
    </g>
   </g>
   <g id="line2d_21">
    <path d="M 91.55017 309.286957 
L 91.905261 308.990296 
L 92.260352 307.272585 
L 92.615443 303.548165 
L 92.970534 297.759001 
L 93.680716 280.820652 
L 94.745989 246.517571 
L 97.231625 160.716974 
L 98.296898 131.928158 
L 99.00708 116.912558 
L 99.717261 105.382318 
L 100.427443 97.250196 
L 101.137625 92.2986 
L 101.492716 90.92296 
L 101.847807 90.224048 
L 102.202898 90.156522 
L 102.557989 90.673816 
L 102.91308 91.728872 
L 103.623261 95.265179 
L 104.333443 100.400261 
L 105.398716 110.358993 
L 106.81908 126.302484 
L 111.790352 184.810742 
L 113.565807 202.309439 
L 115.341261 217.308786 
L 116.761625 227.585169 
L 118.181989 236.466792 
L 119.602352 244.10403 
L 121.022716 250.649352 
L 122.44308 256.247093 
L 123.863443 261.028657 
L 125.283807 265.110867 
L 126.70417 268.596025 
L 128.124534 271.572832 
L 129.544898 274.117681 
L 131.320352 276.790126 
L 133.095807 278.996515 
L 134.871261 280.824595 
L 136.646716 282.345939 
L 138.777261 283.847865 
L 140.907807 285.071608 
L 143.393443 286.230108 
L 146.23417 287.289547 
L 149.429989 288.240115 
L 153.335989 289.16615 
L 158.307261 290.107419 
L 165.053989 291.142954 
L 174.641443 292.373695 
L 188.489989 293.914419 
L 205.889443 295.622321 
L 225.064352 297.280398 
L 245.659625 298.837332 
L 268.030352 300.300586 
L 292.176534 301.650933 
L 318.09817 302.875611 
L 346.505443 303.99337 
L 378.108534 305.00946 
L 413.262534 305.912313 
L 446.64108 306.592537 
L 446.64108 306.592537 
" clip-path="url(#p48a752eb03)" style="fill: none; stroke: #2ca02c; stroke-width: 2; stroke-linecap: square"/>
   </g>
   <g id="line2d_22">
    <path d="M 101.413807 116.060385 
L 111.277443 197.665625 
L 131.004716 289.304385 
" clip-path="url(#p48a752eb03)" style="fill: none; stroke-dasharray: 3.7,1.6; stroke-dashoffset: 0; stroke: #2ca02c"/>
    <defs>
     <path id="me307a93a97" d="M -3 3 
L 3 3 
L 3 -3 
L -3 -3 
z
" style="stroke: #000000; stroke-linejoin: miter"/>
    </defs>
    <g clip-path="url(#p48a752eb03)">
     <use xlink:href="#me307a93a97" x="101.413807" y="116.060385" style="fill: #2ca02c; stroke: #000000; stroke-linejoin: miter"/>
     <use xlink:href="#me307a93a97" x="111.277443" y="197.665625" style="fill: #2ca02c; stroke: #000000; stroke-linejoin: miter"/>
     <use xlink:href="#me307a93a97" x="131.004716" y="289.304385" style="fill: #2ca02c; stroke: #000000; stroke-linejoin: miter"/>
    </g>
   </g>
   <g id="patch_3">
    <path d="M 73.795625 320.243478 
L 73.795625 79.2 
" style="fill: none; stroke: #000000; stroke-width: 0.8; stroke-linejoin: miter; stroke-linecap: square"/>
   </g>
   <g id="patch_4">
    <path d="M 464.395625 320.243478 
L 464.395625 79.2 
" style="fill: none; stroke: #000000; stroke-width: 0.8; stroke-linejoin: miter; stroke-linecap: square"/>
   </g>
   <g id="patch_5">
    <path d="M 73.795625 320.243478 
L 464.395625 320.243478 
" style="fill: none; stroke: #000000; stroke-width: 0.8; stroke-linejoin: miter; stroke-linecap: square"/>
   </g>
   <g id="patch_6">
    <path d="M 73.795625 79.2 
L 464.395625 79.2 
" style="fill: none; stroke: #000000; stroke-width: 0.8; stroke-linejoin: miter; stroke-linecap: square"/>
   </g>
   <g id="legend_1">
    <g id="patch_7">
     <path d="M 358.920625 167.7975 
L 458.795625 167.7975 
Q 460.395625 167.7975 460.395625 166.1975 
L 460.395625 84.8 
Q 460.395625 83.2 458.795625 83.2 
L 358.920625 83.2 
Q 357.320625 83.2 357.320625 84.8 
L 357.320625 166.1975 
Q 357.320625 167.7975 358.920625 167.7975 
z
" style="fill: #ffffff; opacity: 0.8; stroke: #cccccc; stroke-linejoin: miter"/>
    </g>
    <g id="line2d_23">
     <path d="M 360.520625 89.67875 
L 376.520625 89.67875 
" style="fill: none; stroke: #000000; stroke-width: 2; stroke-linecap: square"/>
    </g>
    <g id="line2d_24"/>
    <g id="text_18">
     <!-- Sim 0 mg -->
     <g transform="translate(382.920625 92.47875) scale(0.08 -0.08)">
      <defs>
       <path id="DejaVuSans-53" d="M 3425 4513 
L 3425 3897 
Q 3066 4069 2747 4153 
Q 2428 4238 2131 4238 
Q 1616 4238 1336 4038 
Q 1056 3838 1056 3469 
Q 1056 3159 1242 3001 
Q 1428 2844 1947 2747 
L 2328 2669 
Q 3034 2534 3370 2195 
Q 3706 1856 3706 1288 
Q 3706 609 3251 259 
Q 2797 -91 1919 -91 
Q 1588 -91 1214 -16 
Q 841 59 441 206 
L 441 856 
Q 825 641 1194 531 
Q 1563 422 1919 422 
Q 2459 422 2753 634 
Q 3047 847 3047 1241 
Q 3047 1584 2836 1778 
Q 2625 1972 2144 2069 
L 1759 2144 
Q 1053 2284 737 2584 
Q 422 2884 422 3419 
Q 422 4038 858 4394 
Q 1294 4750 2059 4750 
Q 2388 4750 2728 4690 
Q 3069 4631 3425 4513 
z
" transform="scale(0.015625)"/>
       <path id="DejaVuSans-69" d="M 603 3500 
L 1178 3500 
L 1178 0 
L 603 0 
L 603 3500 
z
M 603 4863 
L 1178 4863 
L 1178 4134 
L 603 4134 
L 603 4863 
z
" transform="scale(0.015625)"/>
       <path id="DejaVuSans-6d" d="M 3328 2828 
Q 3544 3216 3844 3400 
Q 4144 3584 4550 3584 
Q 5097 3584 5394 3201 
Q 5691 2819 5691 2113 
L 5691 0 
L 5113 0 
L 5113 2094 
Q 5113 2597 4934 2840 
Q 4756 3084 4391 3084 
Q 3944 3084 3684 2787 
Q 3425 2491 3425 1978 
L 3425 0 
L 2847 0 
L 2847 2094 
Q 2847 2600 2669 2842 
Q 2491 3084 2119 3084 
Q 1678 3084 1418 2786 
Q 1159 2488 1159 1978 
L 1159 0 
L 581 0 
L 581 3500 
L 1159 3500 
L 1159 2956 
Q 1356 3278 1631 3431 
Q 1906 3584 2284 3584 
Q 2666 3584 2933 3390 
Q 3200 3197 3328 2828 
z
" transform="scale(0.015625)"/>
       <path id="DejaVuSans-20" transform="scale(0.015625)"/>
       <path id="DejaVuSans-67" d="M 2906 1791 
Q 2906 2416 2648 2759 
Q 2391 3103 1925 3103 
Q 1463 3103 1205 2759 
Q 947 2416 947 1791 
Q 947 1169 1205 825 
Q 1463 481 1925 481 
Q 2391 481 2648 825 
Q 2906 1169 2906 1791 
z
M 3481 434 
Q 3481 -459 3084 -895 
Q 2688 -1331 1869 -1331 
Q 1566 -1331 1297 -1286 
Q 1028 -1241 775 -1147 
L 775 -588 
Q 1028 -725 1275 -790 
Q 1522 -856 1778 -856 
Q 2344 -856 2625 -561 
Q 2906 -266 2906 331 
L 2906 616 
Q 2728 306 2450 153 
Q 2172 0 1784 0 
Q 1141 0 747 490 
Q 353 981 353 1791 
Q 353 2603 747 3093 
Q 1141 3584 1784 3584 
Q 2172 3584 2450 3431 
Q 2728 3278 2906 2969 
L 2906 3500 
L 3481 3500 
L 3481 434 
z
" transform="scale(0.015625)"/>
      </defs>
      <use xlink:href="#DejaVuSans-53"/>
      <use xlink:href="#DejaVuSans-69" transform="translate(63.476562 0)"/>
      <use xlink:href="#DejaVuSans-6d" transform="translate(91.259766 0)"/>
      <use xlink:href="#DejaVuSans-20" transform="translate(188.671875 0)"/>
      <use xlink:href="#DejaVuSans-30" transform="translate(220.458984 0)"/>
      <use xlink:href="#DejaVuSans-20" transform="translate(284.082031 0)"/>
      <use xlink:href="#DejaVuSans-6d" transform="translate(315.869141 0)"/>
      <use xlink:href="#DejaVuSans-67" transform="translate(413.28125 0)"/>
     </g>
    </g>
    <g id="line2d_25">
     <path d="M 360.520625 101.42125 
L 376.520625 101.42125 
" style="fill: none; stroke: #1f77b4; stroke-width: 2; stroke-linecap: square"/>
    </g>
    <g id="line2d_26"/>
    <g id="text_19">
     <!-- Sim 40 mg -->
     <g transform="translate(382.920625 104.22125) scale(0.08 -0.08)">
      <use xlink:href="#DejaVuSans-53"/>
      <use xlink:href="#DejaVuSans-69" transform="translate(63.476562 0)"/>
      <use xlink:href="#DejaVuSans-6d" transform="translate(91.259766 0)"/>
      <use xlink:href="#DejaVuSans-20" transform="translate(188.671875 0)"/>
      <use xlink:href="#DejaVuSans-34" transform="translate(220.458984 0)"/>
      <use xlink:href="#DejaVuSans-30" transform="translate(284.082031 0)"/>
      <use xlink:href="#DejaVuSans-20" transform="translate(347.705078 0)"/>
      <use xlink:href="#DejaVuSans-6d" transform="translate(379.492188 0)"/>
      <use xlink:href="#DejaVuSans-67" transform="translate(476.904297 0)"/>
     </g>
    </g>
    <g id="LineCollection_4">
     <path d="M 368.520625 117.16375 
L 368.520625 109.16375 
" style="fill: none; stroke: #1f77b4"/>
    </g>
    <g id="line2d_27">
     <path d="M 360.520625 113.16375 
L 376.520625 113.16375 
" style="fill: none; stroke-dasharray: 3.7,1.6; stroke-dashoffset: 0; stroke: #1f77b4"/>
    </g>
    <g id="line2d_28">
     <g>
      <use xlink:href="#m956bad4d4b" x="368.520625" y="113.16375" style="fill: #1f77b4; stroke: #000000; stroke-linejoin: miter"/>
     </g>
    </g>
    <g id="text_20">
     <!-- 40 mg±SD (n=6) -->
     <g transform="translate(382.920625 115.96375) scale(0.08 -0.08)">
      <defs>
       <path id="DejaVuSans-b1" d="M 2944 4013 
L 2944 2803 
L 4684 2803 
L 4684 2272 
L 2944 2272 
L 2944 1063 
L 2419 1063 
L 2419 2272 
L 678 2272 
L 678 2803 
L 2419 2803 
L 2419 4013 
L 2944 4013 
z
M 678 531 
L 4684 531 
L 4684 0 
L 678 0 
L 678 531 
z
" transform="scale(0.015625)"/>
       <path id="DejaVuSans-44" d="M 1259 4147 
L 1259 519 
L 2022 519 
Q 2988 519 3436 956 
Q 3884 1394 3884 2338 
Q 3884 3275 3436 3711 
Q 2988 4147 2022 4147 
L 1259 4147 
z
M 628 4666 
L 1925 4666 
Q 3281 4666 3915 4102 
Q 4550 3538 4550 2338 
Q 4550 1131 3912 565 
Q 3275 0 1925 0 
L 628 0 
L 628 4666 
z
" transform="scale(0.015625)"/>
       <path id="DejaVuSans-28" d="M 1984 4856 
Q 1566 4138 1362 3434 
Q 1159 2731 1159 2009 
Q 1159 1288 1364 580 
Q 1569 -128 1984 -844 
L 1484 -844 
Q 1016 -109 783 600 
Q 550 1309 550 2009 
Q 550 2706 781 3412 
Q 1013 4119 1484 4856 
L 1984 4856 
z
" transform="scale(0.015625)"/>
       <path id="DejaVuSans-6e" d="M 3513 2113 
L 3513 0 
L 2938 0 
L 2938 2094 
Q 2938 2591 2744 2837 
Q 2550 3084 2163 3084 
Q 1697 3084 1428 2787 
Q 1159 2491 1159 1978 
L 1159 0 
L 581 0 
L 581 3500 
L 1159 3500 
L 1159 2956 
Q 1366 3272 1645 3428 
Q 1925 3584 2291 3584 
Q 2894 3584 3203 3211 
Q 3513 2838 3513 2113 
z
" transform="scale(0.015625)"/>
       <path id="DejaVuSans-3d" d="M 678 2906 
L 4684 2906 
L 4684 2381 
L 678 2381 
L 678 2906 
z
M 678 1631 
L 4684 1631 
L 4684 1100 
L 678 1100 
L 678 1631 
z
" transform="scale(0.015625)"/>
       <path id="DejaVuSans-29" d="M 513 4856 
L 1013 4856 
Q 1481 4119 1714 3412 
Q 1947 2706 1947 2009 
Q 1947 1309 1714 600 
Q 1481 -109 1013 -844 
L 513 -844 
Q 928 -128 1133 580 
Q 1338 1288 1338 2009 
Q 1338 2731 1133 3434 
Q 928 4138 513 4856 
z
" transform="scale(0.015625)"/>
      </defs>
      <use xlink:href="#DejaVuSans-34"/>
      <use xlink:href="#DejaVuSans-30" transform="translate(63.623047 0)"/>
      <use xlink:href="#DejaVuSans-20" transform="translate(127.246094 0)"/>
      <use xlink:href="#DejaVuSans-6d" transform="translate(159.033203 0)"/>
      <use xlink:href="#DejaVuSans-67" transform="translate(256.445312 0)"/>
      <use xlink:href="#DejaVuSans-b1" transform="translate(319.921875 0)"/>
      <use xlink:href="#DejaVuSans-53" transform="translate(403.710938 0)"/>
      <use xlink:href="#DejaVuSans-44" transform="translate(467.1875 0)"/>
      <use xlink:href="#DejaVuSans-20" transform="translate(544.189453 0)"/>
      <use xlink:href="#DejaVuSans-28" transform="translate(575.976562 0)"/>
      <use xlink:href="#DejaVuSans-6e" transform="translate(614.990234 0)"/>
      <use xlink:href="#DejaVuSans-3d" transform="translate(678.369141 0)"/>
      <use xlink:href="#DejaVuSans-36" transform="translate(762.158203 0)"/>
      <use xlink:href="#DejaVuSans-29" transform="translate(825.78125 0)"/>
     </g>
    </g>
    <g id="line2d_29">
     <path d="M 360.520625 124.90625 
L 376.520625 124.90625 
" style="fill: none; stroke: #d62728; stroke-width: 2; stroke-linecap: square"/>
    </g>
    <g id="line2d_30"/>
    <g id="text_21">
     <!-- Sim 80 mg -->
     <g transform="translate(382.920625 127.70625) scale(0.08 -0.08)">
      <use xlink:href="#DejaVuSans-53"/>
      <use xlink:href="#DejaVuSans-69" transform="translate(63.476562 0)"/>
      <use xlink:href="#DejaVuSans-6d" transform="translate(91.259766 0)"/>
      <use xlink:href="#DejaVuSans-20" transform="translate(188.671875 0)"/>
      <use xlink:href="#DejaVuSans-38" transform="translate(220.458984 0)"/>
      <use xlink:href="#DejaVuSans-30" transform="translate(284.082031 0)"/>
      <use xlink:href="#DejaVuSans-20" transform="translate(347.705078 0)"/>
      <use xlink:href="#DejaVuSans-6d" transform="translate(379.492188 0)"/>
      <use xlink:href="#DejaVuSans-67" transform="translate(476.904297 0)"/>
     </g>
    </g>
    <g id="LineCollection_5">
     <path d="M 368.520625 140.64875 
L 368.520625 132.64875 
" style="fill: none; stroke: #d62728"/>
    </g>
    <g id="line2d_31">
     <path d="M 360.520625 136.64875 
L 376.520625 136.64875 
" style="fill: none; stroke-dasharray: 3.7,1.6; stroke-dashoffset: 0; stroke: #d62728"/>
    </g>
    <g id="line2d_32">
     <g>
      <use xlink:href="#m1515565507" x="368.520625" y="136.64875" style="fill: #d62728; stroke: #000000; stroke-linejoin: miter"/>
     </g>
    </g>
    <g id="text_22">
     <!-- 80 mg±SD (n=6) -->
     <g transform="translate(382.920625 139.44875) scale(0.08 -0.08)">
      <use xlink:href="#DejaVuSans-38"/>
      <use xlink:href="#DejaVuSans-30" transform="translate(63.623047 0)"/>
      <use xlink:href="#DejaVuSans-20" transform="translate(127.246094 0)"/>
      <use xlink:href="#DejaVuSans-6d" transform="translate(159.033203 0)"/>
      <use xlink:href="#DejaVuSans-67" transform="translate(256.445312 0)"/>
      <use xlink:href="#DejaVuSans-b1" transform="translate(319.921875 0)"/>
      <use xlink:href="#DejaVuSans-53" transform="translate(403.710938 0)"/>
      <use xlink:href="#DejaVuSans-44" transform="translate(467.1875 0)"/>
      <use xlink:href="#DejaVuSans-20" transform="translate(544.189453 0)"/>
      <use xlink:href="#DejaVuSans-28" transform="translate(575.976562 0)"/>
      <use xlink:href="#DejaVuSans-6e" transform="translate(614.990234 0)"/>
      <use xlink:href="#DejaVuSans-3d" transform="translate(678.369141 0)"/>
      <use xlink:href="#DejaVuSans-36" transform="translate(762.158203 0)"/>
      <use xlink:href="#DejaVuSans-29" transform="translate(825.78125 0)"/>
     </g>
    </g>
    <g id="line2d_33">
     <path d="M 360.520625 148.39125 
L 376.520625 148.39125 
" style="fill: none; stroke: #2ca02c; stroke-width: 2; stroke-linecap: square"/>
    </g>
    <g id="line2d_34"/>
    <g id="text_23">
     <!-- Sim 120 mg -->
     <g transform="translate(382.920625 151.19125) scale(0.08 -0.08)">
      <use xlink:href="#DejaVuSans-53"/>
      <use xlink:href="#DejaVuSans-69" transform="translate(63.476562 0)"/>
      <use xlink:href="#DejaVuSans-6d" transform="translate(91.259766 0)"/>
      <use xlink:href="#DejaVuSans-20" transform="translate(188.671875 0)"/>
      <use xlink:href="#DejaVuSans-31" transform="translate(220.458984 0)"/>
      <use xlink:href="#DejaVuSans-32" transform="translate(284.082031 0)"/>
      <use xlink:href="#DejaVuSans-30" transform="translate(347.705078 0)"/>
      <use xlink:href="#DejaVuSans-20" transform="translate(411.328125 0)"/>
      <use xlink:href="#DejaVuSans-6d" transform="translate(443.115234 0)"/>
      <use xlink:href="#DejaVuSans-67" transform="translate(540.527344 0)"/>
     </g>
    </g>
    <g id="LineCollection_6">
     <path d="M 368.520625 164.13375 
L 368.520625 156.13375 
" style="fill: none; stroke: #2ca02c"/>
    </g>
    <g id="line2d_35">
     <path d="M 360.520625 160.13375 
L 376.520625 160.13375 
" style="fill: none; stroke-dasharray: 3.7,1.6; stroke-dashoffset: 0; stroke: #2ca02c"/>
    </g>
    <g id="line2d_36">
     <g>
      <use xlink:href="#me307a93a97" x="368.520625" y="160.13375" style="fill: #2ca02c; stroke: #000000; stroke-linejoin: miter"/>
     </g>
    </g>
    <g id="text_24">
     <!-- 120 mg±SD (n=6) -->
     <g transform="translate(382.920625 162.93375) scale(0.08 -0.08)">
      <use xlink:href="#DejaVuSans-31"/>
      <use xlink:href="#DejaVuSans-32" transform="translate(63.623047 0)"/>
      <use xlink:href="#DejaVuSans-30" transform="translate(127.246094 0)"/>
      <use xlink:href="#DejaVuSans-20" transform="translate(190.869141 0)"/>
      <use xlink:href="#DejaVuSans-6d" transform="translate(222.65625 0)"/>
      <use xlink:href="#DejaVuSans-67" transform="translate(320.068359 0)"/>
      <use xlink:href="#DejaVuSans-b1" transform="translate(383.544922 0)"/>
      <use xlink:href="#DejaVuSans-53" transform="translate(467.333984 0)"/>
      <use xlink:href="#DejaVuSans-44" transform="translate(530.810547 0)"/>
      <use xlink:href="#DejaVuSans-20" transform="translate(607.8125 0)"/>
      <use xlink:href="#DejaVuSans-28" transform="translate(639.599609 0)"/>
      <use xlink:href="#DejaVuSans-6e" transform="translate(678.613281 0)"/>
      <use xlink:href="#DejaVuSans-3d" transform="translate(741.992188 0)"/>
      <use xlink:href="#DejaVuSans-36" transform="translate(825.78125 0)"/>
      <use xlink:href="#DejaVuSans-29" transform="translate(889.404297 0)"/>
     </g>
    </g>
   </g>
  </g>
  <g id="axes_2">
   <g id="patch_8">
    <path d="M 73.795625 633.6 
L 464.395625 633.6 
L 464.395625 392.556522 
L 73.795625 392.556522 
z
" style="fill: #ffffff"/>
   </g>
   <g id="matplotlib.axis_3">
    <g id="xtick_9">
     <g id="line2d_37">
      <g>
       <use xlink:href="#mb4ba891001" x="91.55017" y="633.6" style="stroke: #000000; stroke-width: 0.8"/>
      </g>
     </g>
     <g id="text_25">
      <!-- 0 -->
      <g transform="translate(86.778295 651.997656) scale(0.15 -0.15)">
       <use xlink:href="#DejaVuSans-30"/>
      </g>
     </g>
    </g>
    <g id="xtick_10">
     <g id="line2d_38">
      <g>
       <use xlink:href="#mb4ba891001" x="140.868352" y="633.6" style="stroke: #000000; stroke-width: 0.8"/>
      </g>
     </g>
     <g id="text_26">
      <!-- 5 -->
      <g transform="translate(136.096477 651.997656) scale(0.15 -0.15)">
       <use xlink:href="#DejaVuSans-35"/>
      </g>
     </g>
    </g>
    <g id="xtick_11">
     <g id="line2d_39">
      <g>
       <use xlink:href="#mb4ba891001" x="190.186534" y="633.6" style="stroke: #000000; stroke-width: 0.8"/>
      </g>
     </g>
     <g id="text_27">
      <!-- 10 -->
      <g transform="translate(180.642784 651.997656) scale(0.15 -0.15)">
       <use xlink:href="#DejaVuSans-31"/>
       <use xlink:href="#DejaVuSans-30" transform="translate(63.623047 0)"/>
      </g>
     </g>
    </g>
    <g id="xtick_12">
     <g id="line2d_40">
      <g>
       <use xlink:href="#mb4ba891001" x="239.504716" y="633.6" style="stroke: #000000; stroke-width: 0.8"/>
      </g>
     </g>
     <g id="text_28">
      <!-- 15 -->
      <g transform="translate(229.960966 651.997656) scale(0.15 -0.15)">
       <use xlink:href="#DejaVuSans-31"/>
       <use xlink:href="#DejaVuSans-35" transform="translate(63.623047 0)"/>
      </g>
     </g>
    </g>
    <g id="xtick_13">
     <g id="line2d_41">
      <g>
       <use xlink:href="#mb4ba891001" x="288.822898" y="633.6" style="stroke: #000000; stroke-width: 0.8"/>
      </g>
     </g>
     <g id="text_29">
      <!-- 20 -->
      <g transform="translate(279.279148 651.997656) scale(0.15 -0.15)">
       <use xlink:href="#DejaVuSans-32"/>
       <use xlink:href="#DejaVuSans-30" transform="translate(63.623047 0)"/>
      </g>
     </g>
    </g>
    <g id="xtick_14">
     <g id="line2d_42">
      <g>
       <use xlink:href="#mb4ba891001" x="338.14108" y="633.6" style="stroke: #000000; stroke-width: 0.8"/>
      </g>
     </g>
     <g id="text_30">
      <!-- 25 -->
      <g transform="translate(328.59733 651.997656) scale(0.15 -0.15)">
       <use xlink:href="#DejaVuSans-32"/>
       <use xlink:href="#DejaVuSans-35" transform="translate(63.623047 0)"/>
      </g>
     </g>
    </g>
    <g id="xtick_15">
     <g id="line2d_43">
      <g>
       <use xlink:href="#mb4ba891001" x="387.459261" y="633.6" style="stroke: #000000; stroke-width: 0.8"/>
      </g>
     </g>
     <g id="text_31">
      <!-- 30 -->
      <g transform="translate(377.915511 651.997656) scale(0.15 -0.15)">
       <use xlink:href="#DejaVuSans-33"/>
       <use xlink:href="#DejaVuSans-30" transform="translate(63.623047 0)"/>
      </g>
     </g>
    </g>
    <g id="xtick_16">
     <g id="line2d_44">
      <g>
       <use xlink:href="#mb4ba891001" x="436.777443" y="633.6" style="stroke: #000000; stroke-width: 0.8"/>
      </g>
     </g>
     <g id="text_32">
      <!-- 35 -->
      <g transform="translate(427.233693 651.997656) scale(0.15 -0.15)">
       <use xlink:href="#DejaVuSans-33"/>
       <use xlink:href="#DejaVuSans-35" transform="translate(63.623047 0)"/>
      </g>
     </g>
    </g>
    <g id="text_33">
     <!-- Time [hr] -->
     <g transform="translate(222.183125 672.794375) scale(0.18 -0.18)">
      <use xlink:href="#DejaVuSans-Bold-54"/>
      <use xlink:href="#DejaVuSans-Bold-69" transform="translate(68.212891 0)"/>
      <use xlink:href="#DejaVuSans-Bold-6d" transform="translate(102.490234 0)"/>
      <use xlink:href="#DejaVuSans-Bold-65" transform="translate(206.689453 0)"/>
      <use xlink:href="#DejaVuSans-Bold-20" transform="translate(274.511719 0)"/>
      <use xlink:href="#DejaVuSans-Bold-5b" transform="translate(309.326172 0)"/>
      <use xlink:href="#DejaVuSans-Bold-68" transform="translate(355.029297 0)"/>
      <use xlink:href="#DejaVuSans-Bold-72" transform="translate(426.220703 0)"/>
      <use xlink:href="#DejaVuSans-Bold-5d" transform="translate(475.537109 0)"/>
     </g>
    </g>
   </g>
   <g id="matplotlib.axis_4">
    <g id="ytick_8">
     <g id="line2d_45">
      <g>
       <use xlink:href="#m6626eabaf2" x="73.795625" y="622.643478" style="stroke: #000000; stroke-width: 0.8"/>
      </g>
     </g>
     <g id="text_34">
      <!-- 0 -->
      <g transform="translate(57.251875 628.342306) scale(0.15 -0.15)">
       <use xlink:href="#DejaVuSans-30"/>
      </g>
     </g>
    </g>
    <g id="ytick_9">
     <g id="line2d_46">
      <g>
       <use xlink:href="#m6626eabaf2" x="73.795625" y="574.208362" style="stroke: #000000; stroke-width: 0.8"/>
      </g>
     </g>
     <g id="text_35">
      <!-- 500 -->
      <g transform="translate(38.164375 579.90719) scale(0.15 -0.15)">
       <use xlink:href="#DejaVuSans-35"/>
       <use xlink:href="#DejaVuSans-30" transform="translate(63.623047 0)"/>
       <use xlink:href="#DejaVuSans-30" transform="translate(127.246094 0)"/>
      </g>
     </g>
    </g>
    <g id="ytick_10">
     <g id="line2d_47">
      <g>
       <use xlink:href="#m6626eabaf2" x="73.795625" y="525.773245" style="stroke: #000000; stroke-width: 0.8"/>
      </g>
     </g>
     <g id="text_36">
      <!-- 1000 -->
      <g transform="translate(28.620625 531.472073) scale(0.15 -0.15)">
       <use xlink:href="#DejaVuSans-31"/>
       <use xlink:href="#DejaVuSans-30" transform="translate(63.623047 0)"/>
       <use xlink:href="#DejaVuSans-30" transform="translate(127.246094 0)"/>
       <use xlink:href="#DejaVuSans-30" transform="translate(190.869141 0)"/>
      </g>
     </g>
    </g>
    <g id="ytick_11">
     <g id="line2d_48">
      <g>
       <use xlink:href="#m6626eabaf2" x="73.795625" y="477.338129" style="stroke: #000000; stroke-width: 0.8"/>
      </g>
     </g>
     <g id="text_37">
      <!-- 1500 -->
      <g transform="translate(28.620625 483.036957) scale(0.15 -0.15)">
       <use xlink:href="#DejaVuSans-31"/>
       <use xlink:href="#DejaVuSans-35" transform="translate(63.623047 0)"/>
       <use xlink:href="#DejaVuSans-30" transform="translate(127.246094 0)"/>
       <use xlink:href="#DejaVuSans-30" transform="translate(190.869141 0)"/>
      </g>
     </g>
    </g>
    <g id="ytick_12">
     <g id="line2d_49">
      <g>
       <use xlink:href="#m6626eabaf2" x="73.795625" y="428.903012" style="stroke: #000000; stroke-width: 0.8"/>
      </g>
     </g>
     <g id="text_38">
      <!-- 2000 -->
      <g transform="translate(28.620625 434.601841) scale(0.15 -0.15)">
       <use xlink:href="#DejaVuSans-32"/>
       <use xlink:href="#DejaVuSans-30" transform="translate(63.623047 0)"/>
       <use xlink:href="#DejaVuSans-30" transform="translate(127.246094 0)"/>
       <use xlink:href="#DejaVuSans-30" transform="translate(190.869141 0)"/>
      </g>
     </g>
    </g>
    <g id="text_39">
     <!-- E3174 [nM] -->
     <g transform="translate(20.877188 570.99748) rotate(-90) scale(0.18 -0.18)">
      <defs>
       <path id="DejaVuSans-Bold-45" d="M 588 4666 
L 3834 4666 
L 3834 3756 
L 1791 3756 
L 1791 2888 
L 3713 2888 
L 3713 1978 
L 1791 1978 
L 1791 909 
L 3903 909 
L 3903 0 
L 588 0 
L 588 4666 
z
" transform="scale(0.015625)"/>
       <path id="DejaVuSans-Bold-33" d="M 2981 2516 
Q 3453 2394 3698 2092 
Q 3944 1791 3944 1325 
Q 3944 631 3412 270 
Q 2881 -91 1863 -91 
Q 1503 -91 1142 -33 
Q 781 25 428 141 
L 428 1069 
Q 766 900 1098 814 
Q 1431 728 1753 728 
Q 2231 728 2486 893 
Q 2741 1059 2741 1369 
Q 2741 1688 2480 1852 
Q 2219 2016 1709 2016 
L 1228 2016 
L 1228 2791 
L 1734 2791 
Q 2188 2791 2409 2933 
Q 2631 3075 2631 3366 
Q 2631 3634 2415 3781 
Q 2200 3928 1806 3928 
Q 1516 3928 1219 3862 
Q 922 3797 628 3669 
L 628 4550 
Q 984 4650 1334 4700 
Q 1684 4750 2022 4750 
Q 2931 4750 3382 4451 
Q 3834 4153 3834 3553 
Q 3834 3144 3618 2883 
Q 3403 2622 2981 2516 
z
" transform="scale(0.015625)"/>
       <path id="DejaVuSans-Bold-31" d="M 750 831 
L 1813 831 
L 1813 3847 
L 722 3622 
L 722 4441 
L 1806 4666 
L 2950 4666 
L 2950 831 
L 4013 831 
L 4013 0 
L 750 0 
L 750 831 
z
" transform="scale(0.015625)"/>
       <path id="DejaVuSans-Bold-37" d="M 428 4666 
L 3944 4666 
L 3944 3988 
L 2125 0 
L 953 0 
L 2675 3781 
L 428 3781 
L 428 4666 
z
" transform="scale(0.015625)"/>
       <path id="DejaVuSans-Bold-34" d="M 2356 3675 
L 1038 1722 
L 2356 1722 
L 2356 3675 
z
M 2156 4666 
L 3494 4666 
L 3494 1722 
L 4159 1722 
L 4159 850 
L 3494 850 
L 3494 0 
L 2356 0 
L 2356 850 
L 288 850 
L 288 1881 
L 2156 4666 
z
" transform="scale(0.015625)"/>
      </defs>
      <use xlink:href="#DejaVuSans-Bold-45"/>
      <use xlink:href="#DejaVuSans-Bold-33" transform="translate(68.310547 0)"/>
      <use xlink:href="#DejaVuSans-Bold-31" transform="translate(137.890625 0)"/>
      <use xlink:href="#DejaVuSans-Bold-37" transform="translate(207.470703 0)"/>
      <use xlink:href="#DejaVuSans-Bold-34" transform="translate(277.050781 0)"/>
      <use xlink:href="#DejaVuSans-Bold-20" transform="translate(346.630859 0)"/>
      <use xlink:href="#DejaVuSans-Bold-5b" transform="translate(381.445312 0)"/>
      <use xlink:href="#DejaVuSans-Bold-6e" transform="translate(427.148438 0)"/>
      <use xlink:href="#DejaVuSans-Bold-4d" transform="translate(498.339844 0)"/>
      <use xlink:href="#DejaVuSans-Bold-5d" transform="translate(597.851562 0)"/>
     </g>
    </g>
   </g>
   <g id="LineCollection_7">
    <path clip-path="url(#p2127411ca1)" style="fill: none; stroke: #1f77b4"/>
    <path clip-path="url(#p2127411ca1)" style="fill: none; stroke: #1f77b4"/>
    <path clip-path="url(#p2127411ca1)" style="fill: none; stroke: #1f77b4"/>
    <path clip-path="url(#p2127411ca1)" style="fill: none; stroke: #1f77b4"/>
   </g>
   <g id="LineCollection_8">
    <path clip-path="url(#p2127411ca1)" style="fill: none; stroke: #d62728"/>
    <path clip-path="url(#p2127411ca1)" style="fill: none; stroke: #d62728"/>
    <path clip-path="url(#p2127411ca1)" style="fill: none; stroke: #d62728"/>
    <path clip-path="url(#p2127411ca1)" style="fill: none; stroke: #d62728"/>
    <path clip-path="url(#p2127411ca1)" style="fill: none; stroke: #d62728"/>
   </g>
   <g id="LineCollection_9">
    <path d="M 101.413807 606.166967 
L 101.413807 547.142325 
" clip-path="url(#p2127411ca1)" style="fill: none; stroke: #2ca02c"/>
    <path d="M 111.277443 511.436065 
L 111.277443 403.513043 
" clip-path="url(#p2127411ca1)" style="fill: none; stroke: #2ca02c"/>
    <path d="M 131.004716 512.140687 
L 131.004716 459.404697 
" clip-path="url(#p2127411ca1)" style="fill: none; stroke: #2ca02c"/>
    <path d="M 180.322898 597.729574 
L 180.322898 576.930884 
" clip-path="url(#p2127411ca1)" style="fill: none; stroke: #2ca02c"/>
    <path d="M 328.277443 618.527866 
L 328.277443 617.388825 
" clip-path="url(#p2127411ca1)" style="fill: none; stroke: #2ca02c"/>
    <path d="M 348.004716 618.485613 
L 348.004716 617.83913 
" clip-path="url(#p2127411ca1)" style="fill: none; stroke: #2ca02c"/>
   </g>
   <g id="line2d_50">
    <path d="M 91.55017 622.643478 
L 446.64108 622.643478 
L 446.64108 622.643478 
" clip-path="url(#p2127411ca1)" style="fill: none; stroke: #000000; stroke-width: 2; stroke-linecap: square"/>
   </g>
   <g id="line2d_51">
    <path d="M 91.55017 622.643478 
L 93.325625 622.581858 
L 94.035807 622.419642 
L 94.745989 622.088147 
L 95.45617 621.54145 
L 96.166352 620.753797 
L 97.231625 619.111498 
L 98.296898 616.959688 
L 99.717261 613.462042 
L 101.847807 607.428214 
L 105.398716 597.294533 
L 107.17417 592.866683 
L 108.949625 589.083746 
L 110.369989 586.557327 
L 111.790352 584.473594 
L 113.210716 582.812813 
L 114.63108 581.544556 
L 116.051443 580.632345 
L 117.471807 580.037085 
L 118.89217 579.719485 
L 120.312534 579.641681 
L 121.732898 579.768252 
L 123.508352 580.164807 
L 125.638898 580.917236 
L 128.124534 582.074604 
L 131.320352 583.849359 
L 136.291625 586.914915 
L 145.168898 592.391422 
L 150.495261 595.382989 
L 155.466534 597.909636 
L 160.437807 600.177387 
L 165.40908 602.200354 
L 170.735443 604.120013 
L 176.416898 605.916126 
L 182.453443 607.576328 
L 188.84508 609.094945 
L 195.591807 610.471727 
L 203.048716 611.767592 
L 211.215807 612.96301 
L 220.44817 614.087113 
L 230.745807 615.116413 
L 242.818898 616.091848 
L 256.667443 616.981881 
L 273.356716 617.82179 
L 293.596898 618.605808 
L 318.453261 619.33695 
L 349.701261 620.025407 
L 389.116352 620.663677 
L 438.82908 621.236904 
L 446.64108 621.309776 
L 446.64108 621.309776 
" clip-path="url(#p2127411ca1)" style="fill: none; stroke: #1f77b4; stroke-width: 2; stroke-linecap: square"/>
   </g>
   <g id="line2d_52">
    <path d="M 101.413807 614.905548 
L 111.277443 593.332241 
L 131.004716 587.378779 
L 180.322898 606.297497 
" clip-path="url(#p2127411ca1)" style="fill: none; stroke-dasharray: 3.7,1.6; stroke-dashoffset: 0; stroke: #1f77b4"/>
    <g clip-path="url(#p2127411ca1)">
     <use xlink:href="#m956bad4d4b" x="101.413807" y="614.905548" style="fill: #1f77b4; stroke: #000000; stroke-linejoin: miter"/>
     <use xlink:href="#m956bad4d4b" x="111.277443" y="593.332241" style="fill: #1f77b4; stroke: #000000; stroke-linejoin: miter"/>
     <use xlink:href="#m956bad4d4b" x="131.004716" y="587.378779" style="fill: #1f77b4; stroke: #000000; stroke-linejoin: miter"/>
     <use xlink:href="#m956bad4d4b" x="180.322898" y="606.297497" style="fill: #1f77b4; stroke: #000000; stroke-linejoin: miter"/>
    </g>
   </g>
   <g id="line2d_53">
    <path d="M 91.55017 622.643478 
L 92.970534 622.593388 
L 93.680716 622.39627 
L 94.390898 621.92746 
L 95.10108 621.087067 
L 95.811261 619.813789 
L 96.521443 618.086047 
L 97.586716 614.674548 
L 98.651989 610.4041 
L 100.072352 603.709676 
L 102.557989 590.594915 
L 105.398716 575.758544 
L 107.17417 567.466219 
L 108.949625 560.269295 
L 110.369989 555.38371 
L 111.790352 551.28799 
L 113.210716 547.961449 
L 114.275989 545.946027 
L 115.341261 544.315552 
L 116.406534 543.043279 
L 117.471807 542.100802 
L 118.53708 541.45909 
L 119.602352 541.089297 
L 120.667625 540.963363 
L 121.732898 541.054455 
L 122.79817 541.337254 
L 124.218534 541.971972 
L 125.638898 542.854725 
L 127.414352 544.238526 
L 129.544898 546.211274 
L 132.385625 549.198299 
L 136.646716 554.067691 
L 145.168898 563.847431 
L 149.429989 568.382003 
L 153.335989 572.243961 
L 157.241989 575.810614 
L 161.147989 579.086388 
L 165.053989 582.084952 
L 169.31508 585.061489 
L 173.57617 587.756017 
L 177.837261 590.194833 
L 182.453443 592.577484 
L 187.069625 594.719238 
L 192.040898 596.787174 
L 197.367261 598.761474 
L 203.048716 600.62781 
L 209.085261 602.377001 
L 215.831989 604.088815 
L 222.933807 605.656695 
L 230.745807 607.150373 
L 239.267989 608.552539 
L 248.855443 609.900176 
L 259.50817 611.170046 
L 271.581261 612.382759 
L 285.429807 613.546438 
L 301.408898 614.662027 
L 320.228716 615.745482 
L 342.244352 616.782265 
L 368.165989 617.771686 
L 398.348716 618.693785 
L 433.502716 619.538073 
L 446.64108 619.803328 
L 446.64108 619.803328 
" clip-path="url(#p2127411ca1)" style="fill: none; stroke: #d62728; stroke-width: 2; stroke-linecap: square"/>
   </g>
   <g id="line2d_54">
    <path d="M 101.413807 571.69458 
L 111.277443 522.858509 
L 131.004716 537.896277 
L 180.322898 593.634777 
L 328.277443 618.219505 
" clip-path="url(#p2127411ca1)" style="fill: none; stroke-dasharray: 3.7,1.6; stroke-dashoffset: 0; stroke: #d62728"/>
    <g clip-path="url(#p2127411ca1)">
     <use xlink:href="#m1515565507" x="101.413807" y="571.69458" style="fill: #d62728; stroke: #000000; stroke-linejoin: miter"/>
     <use xlink:href="#m1515565507" x="111.277443" y="522.858509" style="fill: #d62728; stroke: #000000; stroke-linejoin: miter"/>
     <use xlink:href="#m1515565507" x="131.004716" y="537.896277" style="fill: #d62728; stroke: #000000; stroke-linejoin: miter"/>
     <use xlink:href="#m1515565507" x="180.322898" y="593.634777" style="fill: #d62728; stroke: #000000; stroke-linejoin: miter"/>
     <use xlink:href="#m1515565507" x="328.277443" y="618.219505" style="fill: #d62728; stroke: #000000; stroke-linejoin: miter"/>
    </g>
   </g>
   <g id="line2d_55">
    <path d="M 91.55017 622.643478 
L 92.970534 622.568794 
L 93.680716 622.277233 
L 94.390898 621.59048 
L 95.10108 620.372488 
L 95.811261 618.547277 
L 96.521443 616.097017 
L 97.586716 611.318932 
L 98.651989 605.412109 
L 100.072352 596.251953 
L 102.557989 578.448065 
L 105.753807 555.831913 
L 107.529261 544.603886 
L 109.304716 534.770712 
L 110.72508 528.02178 
L 112.145443 522.299041 
L 113.565807 517.590365 
L 114.63108 514.69957 
L 115.696352 512.32915 
L 116.761625 510.447594 
L 117.826898 509.020061 
L 118.89217 508.009851 
L 119.957443 507.379625 
L 121.022716 507.092375 
L 122.087989 507.112164 
L 123.153261 507.404668 
L 124.218534 507.937538 
L 125.638898 508.970169 
L 127.059261 510.311778 
L 128.834716 512.336179 
L 130.965261 515.149167 
L 133.805989 519.33155 
L 138.42217 526.625144 
L 145.523989 537.811457 
L 149.78508 544.091622 
L 153.69108 549.455101 
L 157.59708 554.419803 
L 161.147989 558.589768 
L 164.698898 562.445505 
L 168.604898 566.344968 
L 172.510898 569.912125 
L 176.416898 573.174415 
L 180.322898 576.158668 
L 184.583989 579.126953 
L 188.84508 581.82517 
L 193.461261 584.475732 
L 198.077443 586.873859 
L 203.048716 589.206591 
L 208.37508 591.452902 
L 214.056534 593.597175 
L 220.09308 595.628886 
L 226.484716 597.542097 
L 233.231443 599.334819 
L 240.688352 601.08687 
L 248.855443 602.774268 
L 257.732716 604.381104 
L 267.675261 605.950866 
L 278.68308 607.459838 
L 291.111261 608.932831 
L 304.959807 610.346592 
L 320.583807 611.716017 
L 338.338352 613.045661 
L 358.578534 614.332298 
L 381.304352 615.549239 
L 406.870898 616.69154 
L 435.633261 617.749386 
L 446.64108 618.101141 
L 446.64108 618.101141 
" clip-path="url(#p2127411ca1)" style="fill: none; stroke: #2ca02c; stroke-width: 2; stroke-linecap: square"/>
   </g>
   <g id="line2d_56">
    <path d="M 101.413807 576.654646 
L 111.277443 457.474554 
L 131.004716 485.772692 
L 180.322898 587.330229 
L 328.277443 617.958346 
L 348.004716 618.162372 
" clip-path="url(#p2127411ca1)" style="fill: none; stroke-dasharray: 3.7,1.6; stroke-dashoffset: 0; stroke: #2ca02c"/>
    <g clip-path="url(#p2127411ca1)">
     <use xlink:href="#me307a93a97" x="101.413807" y="576.654646" style="fill: #2ca02c; stroke: #000000; stroke-linejoin: miter"/>
     <use xlink:href="#me307a93a97" x="111.277443" y="457.474554" style="fill: #2ca02c; stroke: #000000; stroke-linejoin: miter"/>
     <use xlink:href="#me307a93a97" x="131.004716" y="485.772692" style="fill: #2ca02c; stroke: #000000; stroke-linejoin: miter"/>
     <use xlink:href="#me307a93a97" x="180.322898" y="587.330229" style="fill: #2ca02c; stroke: #000000; stroke-linejoin: miter"/>
     <use xlink:href="#me307a93a97" x="328.277443" y="617.958346" style="fill: #2ca02c; stroke: #000000; stroke-linejoin: miter"/>
     <use xlink:href="#me307a93a97" x="348.004716" y="618.162372" style="fill: #2ca02c; stroke: #000000; stroke-linejoin: miter"/>
    </g>
   </g>
   <g id="patch_9">
    <path d="M 73.795625 633.6 
L 73.795625 392.556522 
" style="fill: none; stroke: #000000; stroke-width: 0.8; stroke-linejoin: miter; stroke-linecap: square"/>
   </g>
   <g id="patch_10">
    <path d="M 464.395625 633.6 
L 464.395625 392.556522 
" style="fill: none; stroke: #000000; stroke-width: 0.8; stroke-linejoin: miter; stroke-linecap: square"/>
   </g>
   <g id="patch_11">
    <path d="M 73.795625 633.6 
L 464.395625 633.6 
" style="fill: none; stroke: #000000; stroke-width: 0.8; stroke-linejoin: miter; stroke-linecap: square"/>
   </g>
   <g id="patch_12">
    <path d="M 73.795625 392.556522 
L 464.395625 392.556522 
" style="fill: none; stroke: #000000; stroke-width: 0.8; stroke-linejoin: miter; stroke-linecap: square"/>
   </g>
   <g id="legend_2">
    <g id="patch_13">
     <path d="M 358.920625 481.154022 
L 458.795625 481.154022 
Q 460.395625 481.154022 460.395625 479.554022 
L 460.395625 398.156522 
Q 460.395625 396.556522 458.795625 396.556522 
L 358.920625 396.556522 
Q 357.320625 396.556522 357.320625 398.156522 
L 357.320625 479.554022 
Q 357.320625 481.154022 358.920625 481.154022 
z
" style="fill: #ffffff; opacity: 0.8; stroke: #cccccc; stroke-linejoin: miter"/>
    </g>
    <g id="line2d_57">
     <path d="M 360.520625 403.035272 
L 376.520625 403.035272 
" style="fill: none; stroke: #000000; stroke-width: 2; stroke-linecap: square"/>
    </g>
    <g id="line2d_58"/>
    <g id="text_40">
     <!-- Sim 0 mg -->
     <g transform="translate(382.920625 405.835272) scale(0.08 -0.08)">
      <use xlink:href="#DejaVuSans-53"/>
      <use xlink:href="#DejaVuSans-69" transform="translate(63.476562 0)"/>
      <use xlink:href="#DejaVuSans-6d" transform="translate(91.259766 0)"/>
      <use xlink:href="#DejaVuSans-20" transform="translate(188.671875 0)"/>
      <use xlink:href="#DejaVuSans-30" transform="translate(220.458984 0)"/>
      <use xlink:href="#DejaVuSans-20" transform="translate(284.082031 0)"/>
      <use xlink:href="#DejaVuSans-6d" transform="translate(315.869141 0)"/>
      <use xlink:href="#DejaVuSans-67" transform="translate(413.28125 0)"/>
     </g>
    </g>
    <g id="line2d_59">
     <path d="M 360.520625 414.777772 
L 376.520625 414.777772 
" style="fill: none; stroke: #1f77b4; stroke-width: 2; stroke-linecap: square"/>
    </g>
    <g id="line2d_60"/>
    <g id="text_41">
     <!-- Sim 40 mg -->
     <g transform="translate(382.920625 417.577772) scale(0.08 -0.08)">
      <use xlink:href="#DejaVuSans-53"/>
      <use xlink:href="#DejaVuSans-69" transform="translate(63.476562 0)"/>
      <use xlink:href="#DejaVuSans-6d" transform="translate(91.259766 0)"/>
      <use xlink:href="#DejaVuSans-20" transform="translate(188.671875 0)"/>
      <use xlink:href="#DejaVuSans-34" transform="translate(220.458984 0)"/>
      <use xlink:href="#DejaVuSans-30" transform="translate(284.082031 0)"/>
      <use xlink:href="#DejaVuSans-20" transform="translate(347.705078 0)"/>
      <use xlink:href="#DejaVuSans-6d" transform="translate(379.492188 0)"/>
      <use xlink:href="#DejaVuSans-67" transform="translate(476.904297 0)"/>
     </g>
    </g>
    <g id="LineCollection_10">
     <path d="M 368.520625 430.520272 
L 368.520625 422.520272 
" style="fill: none; stroke: #1f77b4"/>
    </g>
    <g id="line2d_61">
     <path d="M 360.520625 426.520272 
L 376.520625 426.520272 
" style="fill: none; stroke-dasharray: 3.7,1.6; stroke-dashoffset: 0; stroke: #1f77b4"/>
    </g>
    <g id="line2d_62">
     <g>
      <use xlink:href="#m956bad4d4b" x="368.520625" y="426.520272" style="fill: #1f77b4; stroke: #000000; stroke-linejoin: miter"/>
     </g>
    </g>
    <g id="text_42">
     <!-- 40 mg±SD (n=6) -->
     <g transform="translate(382.920625 429.320272) scale(0.08 -0.08)">
      <use xlink:href="#DejaVuSans-34"/>
      <use xlink:href="#DejaVuSans-30" transform="translate(63.623047 0)"/>
      <use xlink:href="#DejaVuSans-20" transform="translate(127.246094 0)"/>
      <use xlink:href="#DejaVuSans-6d" transform="translate(159.033203 0)"/>
      <use xlink:href="#DejaVuSans-67" transform="translate(256.445312 0)"/>
      <use xlink:href="#DejaVuSans-b1" transform="translate(319.921875 0)"/>
      <use xlink:href="#DejaVuSans-53" transform="translate(403.710938 0)"/>
      <use xlink:href="#DejaVuSans-44" transform="translate(467.1875 0)"/>
      <use xlink:href="#DejaVuSans-20" transform="translate(544.189453 0)"/>
      <use xlink:href="#DejaVuSans-28" transform="translate(575.976562 0)"/>
      <use xlink:href="#DejaVuSans-6e" transform="translate(614.990234 0)"/>
      <use xlink:href="#DejaVuSans-3d" transform="translate(678.369141 0)"/>
      <use xlink:href="#DejaVuSans-36" transform="translate(762.158203 0)"/>
      <use xlink:href="#DejaVuSans-29" transform="translate(825.78125 0)"/>
     </g>
    </g>
    <g id="line2d_63">
     <path d="M 360.520625 438.262772 
L 376.520625 438.262772 
" style="fill: none; stroke: #d62728; stroke-width: 2; stroke-linecap: square"/>
    </g>
    <g id="line2d_64"/>
    <g id="text_43">
     <!-- Sim 80 mg -->
     <g transform="translate(382.920625 441.062772) scale(0.08 -0.08)">
      <use xlink:href="#DejaVuSans-53"/>
      <use xlink:href="#DejaVuSans-69" transform="translate(63.476562 0)"/>
      <use xlink:href="#DejaVuSans-6d" transform="translate(91.259766 0)"/>
      <use xlink:href="#DejaVuSans-20" transform="translate(188.671875 0)"/>
      <use xlink:href="#DejaVuSans-38" transform="translate(220.458984 0)"/>
      <use xlink:href="#DejaVuSans-30" transform="translate(284.082031 0)"/>
      <use xlink:href="#DejaVuSans-20" transform="translate(347.705078 0)"/>
      <use xlink:href="#DejaVuSans-6d" transform="translate(379.492188 0)"/>
      <use xlink:href="#DejaVuSans-67" transform="translate(476.904297 0)"/>
     </g>
    </g>
    <g id="LineCollection_11">
     <path d="M 368.520625 454.005272 
L 368.520625 446.005272 
" style="fill: none; stroke: #d62728"/>
    </g>
    <g id="line2d_65">
     <path d="M 360.520625 450.005272 
L 376.520625 450.005272 
" style="fill: none; stroke-dasharray: 3.7,1.6; stroke-dashoffset: 0; stroke: #d62728"/>
    </g>
    <g id="line2d_66">
     <g>
      <use xlink:href="#m1515565507" x="368.520625" y="450.005272" style="fill: #d62728; stroke: #000000; stroke-linejoin: miter"/>
     </g>
    </g>
    <g id="text_44">
     <!-- 80 mg±SD (n=6) -->
     <g transform="translate(382.920625 452.805272) scale(0.08 -0.08)">
      <use xlink:href="#DejaVuSans-38"/>
      <use xlink:href="#DejaVuSans-30" transform="translate(63.623047 0)"/>
      <use xlink:href="#DejaVuSans-20" transform="translate(127.246094 0)"/>
      <use xlink:href="#DejaVuSans-6d" transform="translate(159.033203 0)"/>
      <use xlink:href="#DejaVuSans-67" transform="translate(256.445312 0)"/>
      <use xlink:href="#DejaVuSans-b1" transform="translate(319.921875 0)"/>
      <use xlink:href="#DejaVuSans-53" transform="translate(403.710938 0)"/>
      <use xlink:href="#DejaVuSans-44" transform="translate(467.1875 0)"/>
      <use xlink:href="#DejaVuSans-20" transform="translate(544.189453 0)"/>
      <use xlink:href="#DejaVuSans-28" transform="translate(575.976562 0)"/>
      <use xlink:href="#DejaVuSans-6e" transform="translate(614.990234 0)"/>
      <use xlink:href="#DejaVuSans-3d" transform="translate(678.369141 0)"/>
      <use xlink:href="#DejaVuSans-36" transform="translate(762.158203 0)"/>
      <use xlink:href="#DejaVuSans-29" transform="translate(825.78125 0)"/>
     </g>
    </g>
    <g id="line2d_67">
     <path d="M 360.520625 461.747772 
L 376.520625 461.747772 
" style="fill: none; stroke: #2ca02c; stroke-width: 2; stroke-linecap: square"/>
    </g>
    <g id="line2d_68"/>
    <g id="text_45">
     <!-- Sim 120 mg -->
     <g transform="translate(382.920625 464.547772) scale(0.08 -0.08)">
      <use xlink:href="#DejaVuSans-53"/>
      <use xlink:href="#DejaVuSans-69" transform="translate(63.476562 0)"/>
      <use xlink:href="#DejaVuSans-6d" transform="translate(91.259766 0)"/>
      <use xlink:href="#DejaVuSans-20" transform="translate(188.671875 0)"/>
      <use xlink:href="#DejaVuSans-31" transform="translate(220.458984 0)"/>
      <use xlink:href="#DejaVuSans-32" transform="translate(284.082031 0)"/>
      <use xlink:href="#DejaVuSans-30" transform="translate(347.705078 0)"/>
      <use xlink:href="#DejaVuSans-20" transform="translate(411.328125 0)"/>
      <use xlink:href="#DejaVuSans-6d" transform="translate(443.115234 0)"/>
      <use xlink:href="#DejaVuSans-67" transform="translate(540.527344 0)"/>
     </g>
    </g>
    <g id="LineCollection_12">
     <path d="M 368.520625 477.490272 
L 368.520625 469.490272 
" style="fill: none; stroke: #2ca02c"/>
    </g>
    <g id="line2d_69">
     <path d="M 360.520625 473.490272 
L 376.520625 473.490272 
" style="fill: none; stroke-dasharray: 3.7,1.6; stroke-dashoffset: 0; stroke: #2ca02c"/>
    </g>
    <g id="line2d_70">
     <g>
      <use xlink:href="#me307a93a97" x="368.520625" y="473.490272" style="fill: #2ca02c; stroke: #000000; stroke-linejoin: miter"/>
     </g>
    </g>
    <g id="text_46">
     <!-- 120 mg±SD (n=6) -->
     <g transform="translate(382.920625 476.290272) scale(0.08 -0.08)">
      <use xlink:href="#DejaVuSans-31"/>
      <use xlink:href="#DejaVuSans-32" transform="translate(63.623047 0)"/>
      <use xlink:href="#DejaVuSans-30" transform="translate(127.246094 0)"/>
      <use xlink:href="#DejaVuSans-20" transform="translate(190.869141 0)"/>
      <use xlink:href="#DejaVuSans-6d" transform="translate(222.65625 0)"/>
      <use xlink:href="#DejaVuSans-67" transform="translate(320.068359 0)"/>
      <use xlink:href="#DejaVuSans-b1" transform="translate(383.544922 0)"/>
      <use xlink:href="#DejaVuSans-53" transform="translate(467.333984 0)"/>
      <use xlink:href="#DejaVuSans-44" transform="translate(530.810547 0)"/>
      <use xlink:href="#DejaVuSans-20" transform="translate(607.8125 0)"/>
      <use xlink:href="#DejaVuSans-28" transform="translate(639.599609 0)"/>
      <use xlink:href="#DejaVuSans-6e" transform="translate(678.613281 0)"/>
      <use xlink:href="#DejaVuSans-3d" transform="translate(741.992188 0)"/>
      <use xlink:href="#DejaVuSans-36" transform="translate(825.78125 0)"/>
      <use xlink:href="#DejaVuSans-29" transform="translate(889.404297 0)"/>
     </g>
    </g>
   </g>
  </g>
  <g id="text_47">
   <!-- Munafo1992 (healthy) -->
   <g transform="translate(106.412812 26.196094) scale(0.25 -0.25)">
    <defs>
     <path id="DejaVuSans-Bold-75" d="M 500 1363 
L 500 3500 
L 1625 3500 
L 1625 3150 
Q 1625 2866 1622 2436 
Q 1619 2006 1619 1863 
Q 1619 1441 1641 1255 
Q 1663 1069 1716 984 
Q 1784 875 1895 815 
Q 2006 756 2150 756 
Q 2500 756 2700 1025 
Q 2900 1294 2900 1772 
L 2900 3500 
L 4019 3500 
L 4019 0 
L 2900 0 
L 2900 506 
Q 2647 200 2364 54 
Q 2081 -91 1741 -91 
Q 1134 -91 817 281 
Q 500 653 500 1363 
z
" transform="scale(0.015625)"/>
     <path id="DejaVuSans-Bold-66" d="M 2841 4863 
L 2841 4128 
L 2222 4128 
Q 1984 4128 1890 4042 
Q 1797 3956 1797 3744 
L 1797 3500 
L 2753 3500 
L 2753 2700 
L 1797 2700 
L 1797 0 
L 678 0 
L 678 2700 
L 122 2700 
L 122 3500 
L 678 3500 
L 678 3744 
Q 678 4316 997 4589 
Q 1316 4863 1984 4863 
L 2841 4863 
z
" transform="scale(0.015625)"/>
     <path id="DejaVuSans-Bold-39" d="M 641 103 
L 641 966 
Q 928 831 1190 764 
Q 1453 697 1709 697 
Q 2247 697 2547 995 
Q 2847 1294 2900 1881 
Q 2688 1725 2447 1647 
Q 2206 1569 1925 1569 
Q 1209 1569 770 1986 
Q 331 2403 331 3084 
Q 331 3838 820 4291 
Q 1309 4744 2131 4744 
Q 3044 4744 3544 4128 
Q 4044 3513 4044 2388 
Q 4044 1231 3459 570 
Q 2875 -91 1856 -91 
Q 1528 -91 1228 -42 
Q 928 6 641 103 
z
M 2125 2350 
Q 2441 2350 2600 2554 
Q 2759 2759 2759 3169 
Q 2759 3575 2600 3781 
Q 2441 3988 2125 3988 
Q 1809 3988 1650 3781 
Q 1491 3575 1491 3169 
Q 1491 2759 1650 2554 
Q 1809 2350 2125 2350 
z
" transform="scale(0.015625)"/>
     <path id="DejaVuSans-Bold-32" d="M 1844 884 
L 3897 884 
L 3897 0 
L 506 0 
L 506 884 
L 2209 2388 
Q 2438 2594 2547 2791 
Q 2656 2988 2656 3200 
Q 2656 3528 2436 3728 
Q 2216 3928 1850 3928 
Q 1569 3928 1234 3808 
Q 900 3688 519 3450 
L 519 4475 
Q 925 4609 1322 4679 
Q 1719 4750 2100 4750 
Q 2938 4750 3402 4381 
Q 3866 4013 3866 3353 
Q 3866 2972 3669 2642 
Q 3472 2313 2841 1759 
L 1844 884 
z
" transform="scale(0.015625)"/>
     <path id="DejaVuSans-Bold-28" d="M 2413 -844 
L 1484 -844 
Q 1006 -72 778 623 
Q 550 1319 550 2003 
Q 550 2688 779 3389 
Q 1009 4091 1484 4856 
L 2413 4856 
Q 2013 4116 1813 3408 
Q 1613 2700 1613 2009 
Q 1613 1319 1811 609 
Q 2009 -100 2413 -844 
z
" transform="scale(0.015625)"/>
     <path id="DejaVuSans-Bold-6c" d="M 538 4863 
L 1656 4863 
L 1656 0 
L 538 0 
L 538 4863 
z
" transform="scale(0.015625)"/>
     <path id="DejaVuSans-Bold-79" d="M 78 3500 
L 1197 3500 
L 2138 1125 
L 2938 3500 
L 4056 3500 
L 2584 -331 
Q 2363 -916 2067 -1148 
Q 1772 -1381 1288 -1381 
L 641 -1381 
L 641 -647 
L 991 -647 
Q 1275 -647 1404 -556 
Q 1534 -466 1606 -231 
L 1638 -134 
L 78 3500 
z
" transform="scale(0.015625)"/>
     <path id="DejaVuSans-Bold-29" d="M 513 -844 
Q 913 -100 1113 609 
Q 1313 1319 1313 2009 
Q 1313 2700 1113 3408 
Q 913 4116 513 4856 
L 1441 4856 
Q 1916 4091 2145 3389 
Q 2375 2688 2375 2003 
Q 2375 1319 2147 623 
Q 1919 -72 1441 -844 
L 513 -844 
z
" transform="scale(0.015625)"/>
    </defs>
    <use xlink:href="#DejaVuSans-Bold-4d"/>
    <use xlink:href="#DejaVuSans-Bold-75" transform="translate(99.511719 0)"/>
    <use xlink:href="#DejaVuSans-Bold-6e" transform="translate(170.703125 0)"/>
    <use xlink:href="#DejaVuSans-Bold-61" transform="translate(241.894531 0)"/>
    <use xlink:href="#DejaVuSans-Bold-66" transform="translate(309.375 0)"/>
    <use xlink:href="#DejaVuSans-Bold-6f" transform="translate(352.880859 0)"/>
    <use xlink:href="#DejaVuSans-Bold-31" transform="translate(421.582031 0)"/>
    <use xlink:href="#DejaVuSans-Bold-39" transform="translate(491.162109 0)"/>
    <use xlink:href="#DejaVuSans-Bold-39" transform="translate(560.742188 0)"/>
    <use xlink:href="#DejaVuSans-Bold-32" transform="translate(630.322266 0)"/>
    <use xlink:href="#DejaVuSans-Bold-20" transform="translate(699.902344 0)"/>
    <use xlink:href="#DejaVuSans-Bold-28" transform="translate(734.716797 0)"/>
    <use xlink:href="#DejaVuSans-Bold-68" transform="translate(780.419922 0)"/>
    <use xlink:href="#DejaVuSans-Bold-65" transform="translate(851.611328 0)"/>
    <use xlink:href="#DejaVuSans-Bold-61" transform="translate(919.433594 0)"/>
    <use xlink:href="#DejaVuSans-Bold-6c" transform="translate(986.914062 0)"/>
    <use xlink:href="#DejaVuSans-Bold-74" transform="translate(1021.191406 0)"/>
    <use xlink:href="#DejaVuSans-Bold-68" transform="translate(1068.994141 0)"/>
    <use xlink:href="#DejaVuSans-Bold-79" transform="translate(1140.185547 0)"/>
    <use xlink:href="#DejaVuSans-Bold-29" transform="translate(1205.371094 0)"/>
   </g>
  </g>
 </g>
 <defs>
  <clipPath id="p48a752eb03">
   <rect x="73.795625" y="79.2" width="390.6" height="241.043478"/>
  </clipPath>
  <clipPath id="p2127411ca1">
   <rect x="73.795625" y="392.556522" width="390.6" height="241.043478"/>
  </clipPath>
 </defs>
</svg>
