<?xml version="1.0" encoding="utf-8" standalone="no"?>
<!DOCTYPE svg PUBLIC "-//W3C//DTD SVG 1.1//EN"
  "http://www.w3.org/Graphics/SVG/1.1/DTD/svg11.dtd">
<svg xmlns:xlink="http://www.w3.org/1999/xlink" width="720pt" height="360pt" viewBox="0 0 720 360" xmlns="http://www.w3.org/2000/svg" version="1.1">
 <metadata>
  <rdf:RDF xmlns:dc="http://purl.org/dc/elements/1.1/" xmlns:cc="http://creativecommons.org/ns#" xmlns:rdf="http://www.w3.org/1999/02/22-rdf-syntax-ns#">
   <cc:Work>
    <dc:type rdf:resource="http://purl.org/dc/dcmitype/StillImage"/>
    <dc:date>2025-07-11T23:14:05.684819</dc:date>
    <dc:format>image/svg+xml</dc:format>
    <dc:creator>
     <cc:Agent>
      <dc:title>Matplotlib v3.10.3, https://matplotlib.org/</dc:title>
     </cc:Agent>
    </dc:creator>
   </cc:Work>
  </rdf:RDF>
 </metadata>
 <defs>
  <style type="text/css">*{stroke-linejoin: round; stroke-linecap: butt}</style>
 </defs>
 <g id="figure_1">
  <g id="patch_1">
   <path d="M 0 360 
L 720 360 
L 720 0 
L 0 0 
z
" style="fill: #ffffff"/>
  </g>
  <g id="axes_1">
   <g id="patch_2">
    <path d="M 90 320.4 
L 343.636364 320.4 
L 343.636364 43.2 
L 90 43.2 
z
" style="fill: #ffffff"/>
   </g>
   <g id="matplotlib.axis_1">
    <g id="xtick_1">
     <g id="line2d_1">
      <defs>
       <path id="mccb8e558a6" d="M 0 0 
L 0 3.5 
" style="stroke: #000000; stroke-width: 0.8"/>
      </defs>
      <g>
       <use xlink:href="#mccb8e558a6" x="115.449907" y="320.4" style="stroke: #000000; stroke-width: 0.8"/>
      </g>
     </g>
     <g id="text_1">
      <!-- 0 -->
      <g transform="translate(112.268657 334.998438) scale(0.1 -0.1)">
       <defs>
        <path id="DejaVuSans-30" d="M 2034 4250 
Q 1547 4250 1301 3770 
Q 1056 3291 1056 2328 
Q 1056 1369 1301 889 
Q 1547 409 2034 409 
Q 2525 409 2770 889 
Q 3016 1369 3016 2328 
Q 3016 3291 2770 3770 
Q 2525 4250 2034 4250 
z
M 2034 4750 
Q 2819 4750 3233 4129 
Q 3647 3509 3647 2328 
Q 3647 1150 3233 529 
Q 2819 -91 2034 -91 
Q 1250 -91 836 529 
Q 422 1150 422 2328 
Q 422 3509 836 4129 
Q 1250 4750 2034 4750 
z
" transform="scale(0.015625)"/>
       </defs>
       <use xlink:href="#DejaVuSans-30"/>
      </g>
     </g>
    </g>
    <g id="xtick_2">
     <g id="line2d_2">
      <g>
       <use xlink:href="#mccb8e558a6" x="151.396104" y="320.4" style="stroke: #000000; stroke-width: 0.8"/>
      </g>
     </g>
     <g id="text_2">
      <!-- 250 -->
      <g transform="translate(141.852354 334.998438) scale(0.1 -0.1)">
       <defs>
        <path id="DejaVuSans-32" d="M 1228 531 
L 3431 531 
L 3431 0 
L 469 0 
L 469 531 
Q 828 903 1448 1529 
Q 2069 2156 2228 2338 
Q 2531 2678 2651 2914 
Q 2772 3150 2772 3378 
Q 2772 3750 2511 3984 
Q 2250 4219 1831 4219 
Q 1534 4219 1204 4116 
Q 875 4013 500 3803 
L 500 4441 
Q 881 4594 1212 4672 
Q 1544 4750 1819 4750 
Q 2544 4750 2975 4387 
Q 3406 4025 3406 3419 
Q 3406 3131 3298 2873 
Q 3191 2616 2906 2266 
Q 2828 2175 2409 1742 
Q 1991 1309 1228 531 
z
" transform="scale(0.015625)"/>
        <path id="DejaVuSans-35" d="M 691 4666 
L 3169 4666 
L 3169 4134 
L 1269 4134 
L 1269 2991 
Q 1406 3038 1543 3061 
Q 1681 3084 1819 3084 
Q 2600 3084 3056 2656 
Q 3513 2228 3513 1497 
Q 3513 744 3044 326 
Q 2575 -91 1722 -91 
Q 1428 -91 1123 -41 
Q 819 9 494 109 
L 494 744 
Q 775 591 1075 516 
Q 1375 441 1709 441 
Q 2250 441 2565 725 
Q 2881 1009 2881 1497 
Q 2881 1984 2565 2268 
Q 2250 2553 1709 2553 
Q 1456 2553 1204 2497 
Q 953 2441 691 2322 
L 691 4666 
z
" transform="scale(0.015625)"/>
       </defs>
       <use xlink:href="#DejaVuSans-32"/>
       <use xlink:href="#DejaVuSans-35" transform="translate(63.623047 0)"/>
       <use xlink:href="#DejaVuSans-30" transform="translate(127.246094 0)"/>
      </g>
     </g>
    </g>
    <g id="xtick_3">
     <g id="line2d_3">
      <g>
       <use xlink:href="#mccb8e558a6" x="187.342301" y="320.4" style="stroke: #000000; stroke-width: 0.8"/>
      </g>
     </g>
     <g id="text_3">
      <!-- 500 -->
      <g transform="translate(177.798551 334.998438) scale(0.1 -0.1)">
       <use xlink:href="#DejaVuSans-35"/>
       <use xlink:href="#DejaVuSans-30" transform="translate(63.623047 0)"/>
       <use xlink:href="#DejaVuSans-30" transform="translate(127.246094 0)"/>
      </g>
     </g>
    </g>
    <g id="xtick_4">
     <g id="line2d_4">
      <g>
       <use xlink:href="#mccb8e558a6" x="223.288497" y="320.4" style="stroke: #000000; stroke-width: 0.8"/>
      </g>
     </g>
     <g id="text_4">
      <!-- 750 -->
      <g transform="translate(213.744747 334.998438) scale(0.1 -0.1)">
       <defs>
        <path id="DejaVuSans-37" d="M 525 4666 
L 3525 4666 
L 3525 4397 
L 1831 0 
L 1172 0 
L 2766 4134 
L 525 4134 
L 525 4666 
z
" transform="scale(0.015625)"/>
       </defs>
       <use xlink:href="#DejaVuSans-37"/>
       <use xlink:href="#DejaVuSans-35" transform="translate(63.623047 0)"/>
       <use xlink:href="#DejaVuSans-30" transform="translate(127.246094 0)"/>
      </g>
     </g>
    </g>
    <g id="xtick_5">
     <g id="line2d_5">
      <g>
       <use xlink:href="#mccb8e558a6" x="259.234694" y="320.4" style="stroke: #000000; stroke-width: 0.8"/>
      </g>
     </g>
     <g id="text_5">
      <!-- 1000 -->
      <g transform="translate(246.509694 334.998438) scale(0.1 -0.1)">
       <defs>
        <path id="DejaVuSans-31" d="M 794 531 
L 1825 531 
L 1825 4091 
L 703 3866 
L 703 4441 
L 1819 4666 
L 2450 4666 
L 2450 531 
L 3481 531 
L 3481 0 
L 794 0 
L 794 531 
z
" transform="scale(0.015625)"/>
       </defs>
       <use xlink:href="#DejaVuSans-31"/>
       <use xlink:href="#DejaVuSans-30" transform="translate(63.623047 0)"/>
       <use xlink:href="#DejaVuSans-30" transform="translate(127.246094 0)"/>
       <use xlink:href="#DejaVuSans-30" transform="translate(190.869141 0)"/>
      </g>
     </g>
    </g>
    <g id="xtick_6">
     <g id="line2d_6">
      <g>
       <use xlink:href="#mccb8e558a6" x="295.180891" y="320.4" style="stroke: #000000; stroke-width: 0.8"/>
      </g>
     </g>
     <g id="text_6">
      <!-- 1250 -->
      <g transform="translate(282.455891 334.998438) scale(0.1 -0.1)">
       <use xlink:href="#DejaVuSans-31"/>
       <use xlink:href="#DejaVuSans-32" transform="translate(63.623047 0)"/>
       <use xlink:href="#DejaVuSans-35" transform="translate(127.246094 0)"/>
       <use xlink:href="#DejaVuSans-30" transform="translate(190.869141 0)"/>
      </g>
     </g>
    </g>
    <g id="xtick_7">
     <g id="line2d_7">
      <g>
       <use xlink:href="#mccb8e558a6" x="331.127087" y="320.4" style="stroke: #000000; stroke-width: 0.8"/>
      </g>
     </g>
     <g id="text_7">
      <!-- 1500 -->
      <g transform="translate(318.402087 334.998438) scale(0.1 -0.1)">
       <use xlink:href="#DejaVuSans-31"/>
       <use xlink:href="#DejaVuSans-35" transform="translate(63.623047 0)"/>
       <use xlink:href="#DejaVuSans-30" transform="translate(127.246094 0)"/>
       <use xlink:href="#DejaVuSans-30" transform="translate(190.869141 0)"/>
      </g>
     </g>
    </g>
    <g id="text_8">
     <!-- time -->
     <g transform="translate(203.262869 350.19625) scale(0.12 -0.12)">
      <defs>
       <path id="DejaVuSans-74" d="M 1172 4494 
L 1172 3500 
L 2356 3500 
L 2356 3053 
L 1172 3053 
L 1172 1153 
Q 1172 725 1289 603 
Q 1406 481 1766 481 
L 2356 481 
L 2356 0 
L 1766 0 
Q 1100 0 847 248 
Q 594 497 594 1153 
L 594 3053 
L 172 3053 
L 172 3500 
L 594 3500 
L 594 4494 
L 1172 4494 
z
" transform="scale(0.015625)"/>
       <path id="DejaVuSans-69" d="M 603 3500 
L 1178 3500 
L 1178 0 
L 603 0 
L 603 3500 
z
M 603 4863 
L 1178 4863 
L 1178 4134 
L 603 4134 
L 603 4863 
z
" transform="scale(0.015625)"/>
       <path id="DejaVuSans-6d" d="M 3328 2828 
Q 3544 3216 3844 3400 
Q 4144 3584 4550 3584 
Q 5097 3584 5394 3201 
Q 5691 2819 5691 2113 
L 5691 0 
L 5113 0 
L 5113 2094 
Q 5113 2597 4934 2840 
Q 4756 3084 4391 3084 
Q 3944 3084 3684 2787 
Q 3425 2491 3425 1978 
L 3425 0 
L 2847 0 
L 2847 2094 
Q 2847 2600 2669 2842 
Q 2491 3084 2119 3084 
Q 1678 3084 1418 2786 
Q 1159 2488 1159 1978 
L 1159 0 
L 581 0 
L 581 3500 
L 1159 3500 
L 1159 2956 
Q 1356 3278 1631 3431 
Q 1906 3584 2284 3584 
Q 2666 3584 2933 3390 
Q 3200 3197 3328 2828 
z
" transform="scale(0.015625)"/>
       <path id="DejaVuSans-65" d="M 3597 1894 
L 3597 1613 
L 953 1613 
Q 991 1019 1311 708 
Q 1631 397 2203 397 
Q 2534 397 2845 478 
Q 3156 559 3463 722 
L 3463 178 
Q 3153 47 2828 -22 
Q 2503 -91 2169 -91 
Q 1331 -91 842 396 
Q 353 884 353 1716 
Q 353 2575 817 3079 
Q 1281 3584 2069 3584 
Q 2775 3584 3186 3129 
Q 3597 2675 3597 1894 
z
M 3022 2063 
Q 3016 2534 2758 2815 
Q 2500 3097 2075 3097 
Q 1594 3097 1305 2825 
Q 1016 2553 972 2059 
L 3022 2063 
z
" transform="scale(0.015625)"/>
      </defs>
      <use xlink:href="#DejaVuSans-74"/>
      <use xlink:href="#DejaVuSans-69" transform="translate(39.208984 0)"/>
      <use xlink:href="#DejaVuSans-6d" transform="translate(66.992188 0)"/>
      <use xlink:href="#DejaVuSans-65" transform="translate(164.404297 0)"/>
     </g>
    </g>
   </g>
   <g id="matplotlib.axis_2">
    <g id="ytick_1">
     <g id="line2d_8">
      <defs>
       <path id="ma1c7ca7b66" d="M 0 0 
L -3.5 0 
" style="stroke: #000000; stroke-width: 0.8"/>
      </defs>
      <g>
       <use xlink:href="#ma1c7ca7b66" x="90" y="284.142421" style="stroke: #000000; stroke-width: 0.8"/>
      </g>
     </g>
     <g id="text_9">
      <!-- 45 -->
      <g transform="translate(70.275 287.94164) scale(0.1 -0.1)">
       <defs>
        <path id="DejaVuSans-34" d="M 2419 4116 
L 825 1625 
L 2419 1625 
L 2419 4116 
z
M 2253 4666 
L 3047 4666 
L 3047 1625 
L 3713 1625 
L 3713 1100 
L 3047 1100 
L 3047 0 
L 2419 0 
L 2419 1100 
L 313 1100 
L 313 1709 
L 2253 4666 
z
" transform="scale(0.015625)"/>
       </defs>
       <use xlink:href="#DejaVuSans-34"/>
       <use xlink:href="#DejaVuSans-35" transform="translate(63.623047 0)"/>
      </g>
     </g>
    </g>
    <g id="ytick_2">
     <g id="line2d_9">
      <g>
       <use xlink:href="#ma1c7ca7b66" x="90" y="235.546573" style="stroke: #000000; stroke-width: 0.8"/>
      </g>
     </g>
     <g id="text_10">
      <!-- 50 -->
      <g transform="translate(70.275 239.345792) scale(0.1 -0.1)">
       <use xlink:href="#DejaVuSans-35"/>
       <use xlink:href="#DejaVuSans-30" transform="translate(63.623047 0)"/>
      </g>
     </g>
    </g>
    <g id="ytick_3">
     <g id="line2d_10">
      <g>
       <use xlink:href="#ma1c7ca7b66" x="90" y="186.950724" style="stroke: #000000; stroke-width: 0.8"/>
      </g>
     </g>
     <g id="text_11">
      <!-- 55 -->
      <g transform="translate(70.275 190.749943) scale(0.1 -0.1)">
       <use xlink:href="#DejaVuSans-35"/>
       <use xlink:href="#DejaVuSans-35" transform="translate(63.623047 0)"/>
      </g>
     </g>
    </g>
    <g id="ytick_4">
     <g id="line2d_11">
      <g>
       <use xlink:href="#ma1c7ca7b66" x="90" y="138.354876" style="stroke: #000000; stroke-width: 0.8"/>
      </g>
     </g>
     <g id="text_12">
      <!-- 60 -->
      <g transform="translate(70.275 142.154095) scale(0.1 -0.1)">
       <defs>
        <path id="DejaVuSans-36" d="M 2113 2584 
Q 1688 2584 1439 2293 
Q 1191 2003 1191 1497 
Q 1191 994 1439 701 
Q 1688 409 2113 409 
Q 2538 409 2786 701 
Q 3034 994 3034 1497 
Q 3034 2003 2786 2293 
Q 2538 2584 2113 2584 
z
M 3366 4563 
L 3366 3988 
Q 3128 4100 2886 4159 
Q 2644 4219 2406 4219 
Q 1781 4219 1451 3797 
Q 1122 3375 1075 2522 
Q 1259 2794 1537 2939 
Q 1816 3084 2150 3084 
Q 2853 3084 3261 2657 
Q 3669 2231 3669 1497 
Q 3669 778 3244 343 
Q 2819 -91 2113 -91 
Q 1303 -91 875 529 
Q 447 1150 447 2328 
Q 447 3434 972 4092 
Q 1497 4750 2381 4750 
Q 2619 4750 2861 4703 
Q 3103 4656 3366 4563 
z
" transform="scale(0.015625)"/>
       </defs>
       <use xlink:href="#DejaVuSans-36"/>
       <use xlink:href="#DejaVuSans-30" transform="translate(63.623047 0)"/>
      </g>
     </g>
    </g>
    <g id="ytick_5">
     <g id="line2d_12">
      <g>
       <use xlink:href="#ma1c7ca7b66" x="90" y="89.759028" style="stroke: #000000; stroke-width: 0.8"/>
      </g>
     </g>
     <g id="text_13">
      <!-- 65 -->
      <g transform="translate(70.275 93.558246) scale(0.1 -0.1)">
       <use xlink:href="#DejaVuSans-36"/>
       <use xlink:href="#DejaVuSans-35" transform="translate(63.623047 0)"/>
      </g>
     </g>
    </g>
    <g id="text_14">
     <!-- DBP -->
     <g transform="translate(63.779375 194.154375) rotate(-90) scale(0.12 -0.12)">
      <defs>
       <path id="DejaVuSans-44" d="M 1259 4147 
L 1259 519 
L 2022 519 
Q 2988 519 3436 956 
Q 3884 1394 3884 2338 
Q 3884 3275 3436 3711 
Q 2988 4147 2022 4147 
L 1259 4147 
z
M 628 4666 
L 1925 4666 
Q 3281 4666 3915 4102 
Q 4550 3538 4550 2338 
Q 4550 1131 3912 565 
Q 3275 0 1925 0 
L 628 0 
L 628 4666 
z
" transform="scale(0.015625)"/>
       <path id="DejaVuSans-42" d="M 1259 2228 
L 1259 519 
L 2272 519 
Q 2781 519 3026 730 
Q 3272 941 3272 1375 
Q 3272 1813 3026 2020 
Q 2781 2228 2272 2228 
L 1259 2228 
z
M 1259 4147 
L 1259 2741 
L 2194 2741 
Q 2656 2741 2882 2914 
Q 3109 3088 3109 3444 
Q 3109 3797 2882 3972 
Q 2656 4147 2194 4147 
L 1259 4147 
z
M 628 4666 
L 2241 4666 
Q 2963 4666 3353 4366 
Q 3744 4066 3744 3513 
Q 3744 3084 3544 2831 
Q 3344 2578 2956 2516 
Q 3422 2416 3680 2098 
Q 3938 1781 3938 1306 
Q 3938 681 3513 340 
Q 3088 0 2303 0 
L 628 0 
L 628 4666 
z
" transform="scale(0.015625)"/>
       <path id="DejaVuSans-50" d="M 1259 4147 
L 1259 2394 
L 2053 2394 
Q 2494 2394 2734 2622 
Q 2975 2850 2975 3272 
Q 2975 3691 2734 3919 
Q 2494 4147 2053 4147 
L 1259 4147 
z
M 628 4666 
L 2053 4666 
Q 2838 4666 3239 4311 
Q 3641 3956 3641 3272 
Q 3641 2581 3239 2228 
Q 2838 1875 2053 1875 
L 1259 1875 
L 1259 0 
L 628 0 
L 628 4666 
z
" transform="scale(0.015625)"/>
      </defs>
      <use xlink:href="#DejaVuSans-44"/>
      <use xlink:href="#DejaVuSans-42" transform="translate(77.001953 0)"/>
      <use xlink:href="#DejaVuSans-50" transform="translate(145.605469 0)"/>
     </g>
    </g>
   </g>
   <g id="LineCollection_1">
    <path d="M 111.136364 171.342241 
L 111.136364 55.8 
" clip-path="url(#pae548e963d)" style="fill: none; stroke: #000000; stroke-width: 1.5"/>
    <path d="M 115.449907 169.077534 
L 115.449907 84.76686 
" clip-path="url(#pae548e963d)" style="fill: none; stroke: #000000; stroke-width: 1.5"/>
    <path d="M 119.763451 215.605524 
L 119.763451 124.270757 
" clip-path="url(#pae548e963d)" style="fill: none; stroke: #000000; stroke-width: 1.5"/>
    <path d="M 124.076994 208.659587 
L 124.076994 159.47836 
" clip-path="url(#pae548e963d)" style="fill: none; stroke: #000000; stroke-width: 1.5"/>
    <path d="M 128.390538 241.524328 
L 128.390538 157.997901 
" clip-path="url(#pae548e963d)" style="fill: none; stroke: #000000; stroke-width: 1.5"/>
    <path d="M 132.704082 236.916761 
L 132.704082 162.75639 
" clip-path="url(#pae548e963d)" style="fill: none; stroke: #000000; stroke-width: 1.5"/>
    <path d="M 137.017625 237.38704 
L 137.017625 174.932891 
" clip-path="url(#pae548e963d)" style="fill: none; stroke: #000000; stroke-width: 1.5"/>
    <path d="M 141.331169 251.516974 
L 141.331169 214.043766 
" clip-path="url(#pae548e963d)" style="fill: none; stroke: #000000; stroke-width: 1.5"/>
    <path d="M 145.644712 263.305844 
L 145.644712 200.069244 
" clip-path="url(#pae548e963d)" style="fill: none; stroke: #000000; stroke-width: 1.5"/>
    <path d="M 149.958256 270.800216 
L 149.958256 222.39605 
" clip-path="url(#pae548e963d)" style="fill: none; stroke: #000000; stroke-width: 1.5"/>
    <path d="M 154.2718 246.677186 
L 154.2718 170.173056 
" clip-path="url(#pae548e963d)" style="fill: none; stroke: #000000; stroke-width: 1.5"/>
    <path d="M 158.585343 274.467674 
L 158.585343 219.82007 
" clip-path="url(#pae548e963d)" style="fill: none; stroke: #000000; stroke-width: 1.5"/>
    <path d="M 162.898887 294.45072 
L 162.898887 218.725447 
" clip-path="url(#pae548e963d)" style="fill: none; stroke: #000000; stroke-width: 1.5"/>
    <path d="M 167.21243 307.8 
L 167.21243 221.145565 
" clip-path="url(#pae548e963d)" style="fill: none; stroke: #000000; stroke-width: 1.5"/>
    <path d="M 171.525974 294.215805 
L 171.525974 230.982799 
" clip-path="url(#pae548e963d)" style="fill: none; stroke: #000000; stroke-width: 1.5"/>
    <path d="M 175.839518 282.583246 
L 175.839518 189.685373 
" clip-path="url(#pae548e963d)" style="fill: none; stroke: #000000; stroke-width: 1.5"/>
    <path d="M 180.153061 293.590563 
L 180.153061 194.451048 
" clip-path="url(#pae548e963d)" style="fill: none; stroke: #000000; stroke-width: 1.5"/>
    <path d="M 184.466605 273.3735 
L 184.466605 226.536033 
" clip-path="url(#pae548e963d)" style="fill: none; stroke: #000000; stroke-width: 1.5"/>
    <path d="M 193.093692 261.038442 
L 193.093692 190.77775 
" clip-path="url(#pae548e963d)" style="fill: none; stroke: #000000; stroke-width: 1.5"/>
    <path d="M 201.720779 266.269905 
L 201.720779 164.000586 
" clip-path="url(#pae548e963d)" style="fill: none; stroke: #000000; stroke-width: 1.5"/>
    <path d="M 322.5 178.091442 
L 322.5 99.245349 
" clip-path="url(#pae548e963d)" style="fill: none; stroke: #000000; stroke-width: 1.5"/>
   </g>
   <g id="line2d_13">
    <path d="M 98.195733 104.337782 
L 116.806471 104.421134 
L 117.299321 104.710214 
L 117.693601 105.245219 
L 118.024991 106.007996 
L 118.522076 107.857599 
L 119.019161 110.720975 
L 119.516245 114.69162 
L 120.312387 123.266447 
L 121.37391 137.921795 
L 124.569856 185.089597 
L 125.769758 199.133717 
L 126.96966 210.542887 
L 128.169562 219.602111 
L 128.969496 224.531125 
L 130.189198 230.637292 
L 131.408899 235.360964 
L 132.6286 239.000091 
L 133.848301 241.788009 
L 135.068002 243.903512 
L 136.287704 245.483175 
L 137.507405 246.631359 
L 138.727106 247.42832 
L 139.946807 247.936303 
L 141.166509 248.204046 
L 142.38621 248.270109 
L 143.605911 248.165384 
L 145.435463 247.741317 
L 147.265015 247.05399 
L 149.094566 246.153276 
L 151.533969 244.685692 
L 154.583222 242.51675 
L 157.632475 240.067071 
L 161.291579 236.857153 
L 166.170383 232.264239 
L 172.87874 225.617304 
L 191.784109 206.716895 
L 198.540985 200.342955 
L 205.001023 194.563981 
L 210.135264 190.216879 
L 216.493519 185.151758 
L 222.934149 180.38518 
L 227.227902 177.408504 
L 233.968199 173.048876 
L 240.708496 169.051638 
L 247.448793 165.38953 
L 254.18909 162.032861 
L 257.559239 160.459653 
L 263.179769 157.979103 
L 268.8003 155.663258 
L 274.42083 153.496706 
L 280.041361 151.465308 
L 291.282422 147.757024 
L 302.523483 144.448597 
L 313.764543 141.469373 
L 325.005604 138.763933 
L 331.127087 137.392241 
L 331.127087 137.392241 
" clip-path="url(#pae548e963d)" style="fill: none; stroke: #0000ff; stroke-width: 1.5; stroke-linecap: square"/>
   </g>
   <g id="line2d_14">
    <path d="M 111.136364 113.57112 
L 115.449907 126.922197 
L 119.763451 169.938141 
L 124.076994 184.068973 
L 128.390538 199.761115 
L 132.704082 199.836575 
L 137.017625 206.159966 
L 141.331169 232.78037 
L 145.644712 231.687544 
L 149.958256 246.598133 
L 154.2718 208.425121 
L 158.585343 247.143872 
L 162.898887 256.588083 
L 167.21243 264.472783 
L 171.525974 262.599302 
L 175.839518 236.13431 
L 180.153061 244.020805 
L 184.466605 249.954767 
L 193.093692 225.908096 
L 201.720779 215.135245 
L 322.5 138.668395 
" clip-path="url(#pae548e963d)" style="fill: none; stroke: #000000; stroke-width: 1.5; stroke-linecap: square"/>
    <defs>
     <path id="mc41d83c73e" d="M -5 5 
L 5 5 
L 5 -5 
L -5 -5 
z
" style="stroke: #000000; stroke-linejoin: miter"/>
    </defs>
    <g clip-path="url(#pae548e963d)">
     <use xlink:href="#mc41d83c73e" x="111.136364" y="113.57112" style="stroke: #000000; stroke-linejoin: miter"/>
     <use xlink:href="#mc41d83c73e" x="115.449907" y="126.922197" style="stroke: #000000; stroke-linejoin: miter"/>
     <use xlink:href="#mc41d83c73e" x="119.763451" y="169.938141" style="stroke: #000000; stroke-linejoin: miter"/>
     <use xlink:href="#mc41d83c73e" x="124.076994" y="184.068973" style="stroke: #000000; stroke-linejoin: miter"/>
     <use xlink:href="#mc41d83c73e" x="128.390538" y="199.761115" style="stroke: #000000; stroke-linejoin: miter"/>
     <use xlink:href="#mc41d83c73e" x="132.704082" y="199.836575" style="stroke: #000000; stroke-linejoin: miter"/>
     <use xlink:href="#mc41d83c73e" x="137.017625" y="206.159966" style="stroke: #000000; stroke-linejoin: miter"/>
     <use xlink:href="#mc41d83c73e" x="141.331169" y="232.78037" style="stroke: #000000; stroke-linejoin: miter"/>
     <use xlink:href="#mc41d83c73e" x="145.644712" y="231.687544" style="stroke: #000000; stroke-linejoin: miter"/>
     <use xlink:href="#mc41d83c73e" x="149.958256" y="246.598133" style="stroke: #000000; stroke-linejoin: miter"/>
     <use xlink:href="#mc41d83c73e" x="154.2718" y="208.425121" style="stroke: #000000; stroke-linejoin: miter"/>
     <use xlink:href="#mc41d83c73e" x="158.585343" y="247.143872" style="stroke: #000000; stroke-linejoin: miter"/>
     <use xlink:href="#mc41d83c73e" x="162.898887" y="256.588083" style="stroke: #000000; stroke-linejoin: miter"/>
     <use xlink:href="#mc41d83c73e" x="167.21243" y="264.472783" style="stroke: #000000; stroke-linejoin: miter"/>
     <use xlink:href="#mc41d83c73e" x="171.525974" y="262.599302" style="stroke: #000000; stroke-linejoin: miter"/>
     <use xlink:href="#mc41d83c73e" x="175.839518" y="236.13431" style="stroke: #000000; stroke-linejoin: miter"/>
     <use xlink:href="#mc41d83c73e" x="180.153061" y="244.020805" style="stroke: #000000; stroke-linejoin: miter"/>
     <use xlink:href="#mc41d83c73e" x="184.466605" y="249.954767" style="stroke: #000000; stroke-linejoin: miter"/>
     <use xlink:href="#mc41d83c73e" x="193.093692" y="225.908096" style="stroke: #000000; stroke-linejoin: miter"/>
     <use xlink:href="#mc41d83c73e" x="201.720779" y="215.135245" style="stroke: #000000; stroke-linejoin: miter"/>
     <use xlink:href="#mc41d83c73e" x="322.5" y="138.668395" style="stroke: #000000; stroke-linejoin: miter"/>
    </g>
   </g>
   <g id="patch_3">
    <path d="M 90 320.4 
L 90 43.2 
" style="fill: none; stroke: #000000; stroke-width: 0.8; stroke-linejoin: miter; stroke-linecap: square"/>
   </g>
   <g id="patch_4">
    <path d="M 343.636364 320.4 
L 343.636364 43.2 
" style="fill: none; stroke: #000000; stroke-width: 0.8; stroke-linejoin: miter; stroke-linecap: square"/>
   </g>
   <g id="patch_5">
    <path d="M 90 320.4 
L 343.636364 320.4 
" style="fill: none; stroke: #000000; stroke-width: 0.8; stroke-linejoin: miter; stroke-linecap: square"/>
   </g>
   <g id="patch_6">
    <path d="M 90 43.2 
L 343.636364 43.2 
" style="fill: none; stroke: #000000; stroke-width: 0.8; stroke-linejoin: miter; stroke-linecap: square"/>
   </g>
   <g id="text_15">
    <!-- Doig1993 fm_po_LOS100_dbp -->
    <g transform="translate(111.913338 37.2) scale(0.14 -0.14)">
     <defs>
      <path id="DejaVuSans-6f" d="M 1959 3097 
Q 1497 3097 1228 2736 
Q 959 2375 959 1747 
Q 959 1119 1226 758 
Q 1494 397 1959 397 
Q 2419 397 2687 759 
Q 2956 1122 2956 1747 
Q 2956 2369 2687 2733 
Q 2419 3097 1959 3097 
z
M 1959 3584 
Q 2709 3584 3137 3096 
Q 3566 2609 3566 1747 
Q 3566 888 3137 398 
Q 2709 -91 1959 -91 
Q 1206 -91 779 398 
Q 353 888 353 1747 
Q 353 2609 779 3096 
Q 1206 3584 1959 3584 
z
" transform="scale(0.015625)"/>
      <path id="DejaVuSans-67" d="M 2906 1791 
Q 2906 2416 2648 2759 
Q 2391 3103 1925 3103 
Q 1463 3103 1205 2759 
Q 947 2416 947 1791 
Q 947 1169 1205 825 
Q 1463 481 1925 481 
Q 2391 481 2648 825 
Q 2906 1169 2906 1791 
z
M 3481 434 
Q 3481 -459 3084 -895 
Q 2688 -1331 1869 -1331 
Q 1566 -1331 1297 -1286 
Q 1028 -1241 775 -1147 
L 775 -588 
Q 1028 -725 1275 -790 
Q 1522 -856 1778 -856 
Q 2344 -856 2625 -561 
Q 2906 -266 2906 331 
L 2906 616 
Q 2728 306 2450 153 
Q 2172 0 1784 0 
Q 1141 0 747 490 
Q 353 981 353 1791 
Q 353 2603 747 3093 
Q 1141 3584 1784 3584 
Q 2172 3584 2450 3431 
Q 2728 3278 2906 2969 
L 2906 3500 
L 3481 3500 
L 3481 434 
z
" transform="scale(0.015625)"/>
      <path id="DejaVuSans-39" d="M 703 97 
L 703 672 
Q 941 559 1184 500 
Q 1428 441 1663 441 
Q 2288 441 2617 861 
Q 2947 1281 2994 2138 
Q 2813 1869 2534 1725 
Q 2256 1581 1919 1581 
Q 1219 1581 811 2004 
Q 403 2428 403 3163 
Q 403 3881 828 4315 
Q 1253 4750 1959 4750 
Q 2769 4750 3195 4129 
Q 3622 3509 3622 2328 
Q 3622 1225 3098 567 
Q 2575 -91 1691 -91 
Q 1453 -91 1209 -44 
Q 966 3 703 97 
z
M 1959 2075 
Q 2384 2075 2632 2365 
Q 2881 2656 2881 3163 
Q 2881 3666 2632 3958 
Q 2384 4250 1959 4250 
Q 1534 4250 1286 3958 
Q 1038 3666 1038 3163 
Q 1038 2656 1286 2365 
Q 1534 2075 1959 2075 
z
" transform="scale(0.015625)"/>
      <path id="DejaVuSans-33" d="M 2597 2516 
Q 3050 2419 3304 2112 
Q 3559 1806 3559 1356 
Q 3559 666 3084 287 
Q 2609 -91 1734 -91 
Q 1441 -91 1130 -33 
Q 819 25 488 141 
L 488 750 
Q 750 597 1062 519 
Q 1375 441 1716 441 
Q 2309 441 2620 675 
Q 2931 909 2931 1356 
Q 2931 1769 2642 2001 
Q 2353 2234 1838 2234 
L 1294 2234 
L 1294 2753 
L 1863 2753 
Q 2328 2753 2575 2939 
Q 2822 3125 2822 3475 
Q 2822 3834 2567 4026 
Q 2313 4219 1838 4219 
Q 1578 4219 1281 4162 
Q 984 4106 628 3988 
L 628 4550 
Q 988 4650 1302 4700 
Q 1616 4750 1894 4750 
Q 2613 4750 3031 4423 
Q 3450 4097 3450 3541 
Q 3450 3153 3228 2886 
Q 3006 2619 2597 2516 
z
" transform="scale(0.015625)"/>
      <path id="DejaVuSans-20" transform="scale(0.015625)"/>
      <path id="DejaVuSans-66" d="M 2375 4863 
L 2375 4384 
L 1825 4384 
Q 1516 4384 1395 4259 
Q 1275 4134 1275 3809 
L 1275 3500 
L 2222 3500 
L 2222 3053 
L 1275 3053 
L 1275 0 
L 697 0 
L 697 3053 
L 147 3053 
L 147 3500 
L 697 3500 
L 697 3744 
Q 697 4328 969 4595 
Q 1241 4863 1831 4863 
L 2375 4863 
z
" transform="scale(0.015625)"/>
      <path id="DejaVuSans-5f" d="M 3263 -1063 
L 3263 -1509 
L -63 -1509 
L -63 -1063 
L 3263 -1063 
z
" transform="scale(0.015625)"/>
      <path id="DejaVuSans-70" d="M 1159 525 
L 1159 -1331 
L 581 -1331 
L 581 3500 
L 1159 3500 
L 1159 2969 
Q 1341 3281 1617 3432 
Q 1894 3584 2278 3584 
Q 2916 3584 3314 3078 
Q 3713 2572 3713 1747 
Q 3713 922 3314 415 
Q 2916 -91 2278 -91 
Q 1894 -91 1617 61 
Q 1341 213 1159 525 
z
M 3116 1747 
Q 3116 2381 2855 2742 
Q 2594 3103 2138 3103 
Q 1681 3103 1420 2742 
Q 1159 2381 1159 1747 
Q 1159 1113 1420 752 
Q 1681 391 2138 391 
Q 2594 391 2855 752 
Q 3116 1113 3116 1747 
z
" transform="scale(0.015625)"/>
      <path id="DejaVuSans-4c" d="M 628 4666 
L 1259 4666 
L 1259 531 
L 3531 531 
L 3531 0 
L 628 0 
L 628 4666 
z
" transform="scale(0.015625)"/>
      <path id="DejaVuSans-4f" d="M 2522 4238 
Q 1834 4238 1429 3725 
Q 1025 3213 1025 2328 
Q 1025 1447 1429 934 
Q 1834 422 2522 422 
Q 3209 422 3611 934 
Q 4013 1447 4013 2328 
Q 4013 3213 3611 3725 
Q 3209 4238 2522 4238 
z
M 2522 4750 
Q 3503 4750 4090 4092 
Q 4678 3434 4678 2328 
Q 4678 1225 4090 567 
Q 3503 -91 2522 -91 
Q 1538 -91 948 565 
Q 359 1222 359 2328 
Q 359 3434 948 4092 
Q 1538 4750 2522 4750 
z
" transform="scale(0.015625)"/>
      <path id="DejaVuSans-53" d="M 3425 4513 
L 3425 3897 
Q 3066 4069 2747 4153 
Q 2428 4238 2131 4238 
Q 1616 4238 1336 4038 
Q 1056 3838 1056 3469 
Q 1056 3159 1242 3001 
Q 1428 2844 1947 2747 
L 2328 2669 
Q 3034 2534 3370 2195 
Q 3706 1856 3706 1288 
Q 3706 609 3251 259 
Q 2797 -91 1919 -91 
Q 1588 -91 1214 -16 
Q 841 59 441 206 
L 441 856 
Q 825 641 1194 531 
Q 1563 422 1919 422 
Q 2459 422 2753 634 
Q 3047 847 3047 1241 
Q 3047 1584 2836 1778 
Q 2625 1972 2144 2069 
L 1759 2144 
Q 1053 2284 737 2584 
Q 422 2884 422 3419 
Q 422 4038 858 4394 
Q 1294 4750 2059 4750 
Q 2388 4750 2728 4690 
Q 3069 4631 3425 4513 
z
" transform="scale(0.015625)"/>
      <path id="DejaVuSans-64" d="M 2906 2969 
L 2906 4863 
L 3481 4863 
L 3481 0 
L 2906 0 
L 2906 525 
Q 2725 213 2448 61 
Q 2172 -91 1784 -91 
Q 1150 -91 751 415 
Q 353 922 353 1747 
Q 353 2572 751 3078 
Q 1150 3584 1784 3584 
Q 2172 3584 2448 3432 
Q 2725 3281 2906 2969 
z
M 947 1747 
Q 947 1113 1208 752 
Q 1469 391 1925 391 
Q 2381 391 2643 752 
Q 2906 1113 2906 1747 
Q 2906 2381 2643 2742 
Q 2381 3103 1925 3103 
Q 1469 3103 1208 2742 
Q 947 2381 947 1747 
z
" transform="scale(0.015625)"/>
      <path id="DejaVuSans-62" d="M 3116 1747 
Q 3116 2381 2855 2742 
Q 2594 3103 2138 3103 
Q 1681 3103 1420 2742 
Q 1159 2381 1159 1747 
Q 1159 1113 1420 752 
Q 1681 391 2138 391 
Q 2594 391 2855 752 
Q 3116 1113 3116 1747 
z
M 1159 2969 
Q 1341 3281 1617 3432 
Q 1894 3584 2278 3584 
Q 2916 3584 3314 3078 
Q 3713 2572 3713 1747 
Q 3713 922 3314 415 
Q 2916 -91 2278 -91 
Q 1894 -91 1617 61 
Q 1341 213 1159 525 
L 1159 0 
L 581 0 
L 581 4863 
L 1159 4863 
L 1159 2969 
z
" transform="scale(0.015625)"/>
     </defs>
     <use xlink:href="#DejaVuSans-44"/>
     <use xlink:href="#DejaVuSans-6f" transform="translate(77.001953 0)"/>
     <use xlink:href="#DejaVuSans-69" transform="translate(138.183594 0)"/>
     <use xlink:href="#DejaVuSans-67" transform="translate(165.966797 0)"/>
     <use xlink:href="#DejaVuSans-31" transform="translate(229.443359 0)"/>
     <use xlink:href="#DejaVuSans-39" transform="translate(293.066406 0)"/>
     <use xlink:href="#DejaVuSans-39" transform="translate(356.689453 0)"/>
     <use xlink:href="#DejaVuSans-33" transform="translate(420.3125 0)"/>
     <use xlink:href="#DejaVuSans-20" transform="translate(483.935547 0)"/>
     <use xlink:href="#DejaVuSans-66" transform="translate(515.722656 0)"/>
     <use xlink:href="#DejaVuSans-6d" transform="translate(550.927734 0)"/>
     <use xlink:href="#DejaVuSans-5f" transform="translate(648.339844 0)"/>
     <use xlink:href="#DejaVuSans-70" transform="translate(698.339844 0)"/>
     <use xlink:href="#DejaVuSans-6f" transform="translate(761.816406 0)"/>
     <use xlink:href="#DejaVuSans-5f" transform="translate(822.998047 0)"/>
     <use xlink:href="#DejaVuSans-4c" transform="translate(872.998047 0)"/>
     <use xlink:href="#DejaVuSans-4f" transform="translate(925.085938 0)"/>
     <use xlink:href="#DejaVuSans-53" transform="translate(1003.796875 0)"/>
     <use xlink:href="#DejaVuSans-31" transform="translate(1067.273438 0)"/>
     <use xlink:href="#DejaVuSans-30" transform="translate(1130.896484 0)"/>
     <use xlink:href="#DejaVuSans-30" transform="translate(1194.519531 0)"/>
     <use xlink:href="#DejaVuSans-5f" transform="translate(1258.142578 0)"/>
     <use xlink:href="#DejaVuSans-64" transform="translate(1308.142578 0)"/>
     <use xlink:href="#DejaVuSans-62" transform="translate(1371.619141 0)"/>
     <use xlink:href="#DejaVuSans-70" transform="translate(1435.095703 0)"/>
    </g>
   </g>
   <g id="legend_1">
    <g id="patch_7">
     <path d="M 200.586364 80.834375 
L 336.636364 80.834375 
Q 338.636364 80.834375 338.636364 78.834375 
L 338.636364 50.2 
Q 338.636364 48.2 336.636364 48.2 
L 200.586364 48.2 
Q 198.586364 48.2 198.586364 50.2 
L 198.586364 78.834375 
Q 198.586364 80.834375 200.586364 80.834375 
z
" style="fill: #ffffff; opacity: 0.8; stroke: #cccccc; stroke-linejoin: miter"/>
    </g>
    <g id="line2d_15">
     <path d="M 202.586364 56.298437 
L 212.586364 56.298437 
L 222.586364 56.298437 
" style="fill: none; stroke: #0000ff; stroke-width: 1.5; stroke-linecap: square"/>
    </g>
    <g id="text_16">
     <!-- observable -->
     <g transform="translate(230.586364 59.798437) scale(0.1 -0.1)">
      <defs>
       <path id="DejaVuSans-73" d="M 2834 3397 
L 2834 2853 
Q 2591 2978 2328 3040 
Q 2066 3103 1784 3103 
Q 1356 3103 1142 2972 
Q 928 2841 928 2578 
Q 928 2378 1081 2264 
Q 1234 2150 1697 2047 
L 1894 2003 
Q 2506 1872 2764 1633 
Q 3022 1394 3022 966 
Q 3022 478 2636 193 
Q 2250 -91 1575 -91 
Q 1294 -91 989 -36 
Q 684 19 347 128 
L 347 722 
Q 666 556 975 473 
Q 1284 391 1588 391 
Q 1994 391 2212 530 
Q 2431 669 2431 922 
Q 2431 1156 2273 1281 
Q 2116 1406 1581 1522 
L 1381 1569 
Q 847 1681 609 1914 
Q 372 2147 372 2553 
Q 372 3047 722 3315 
Q 1072 3584 1716 3584 
Q 2034 3584 2315 3537 
Q 2597 3491 2834 3397 
z
" transform="scale(0.015625)"/>
       <path id="DejaVuSans-72" d="M 2631 2963 
Q 2534 3019 2420 3045 
Q 2306 3072 2169 3072 
Q 1681 3072 1420 2755 
Q 1159 2438 1159 1844 
L 1159 0 
L 581 0 
L 581 3500 
L 1159 3500 
L 1159 2956 
Q 1341 3275 1631 3429 
Q 1922 3584 2338 3584 
Q 2397 3584 2469 3576 
Q 2541 3569 2628 3553 
L 2631 2963 
z
" transform="scale(0.015625)"/>
       <path id="DejaVuSans-76" d="M 191 3500 
L 800 3500 
L 1894 563 
L 2988 3500 
L 3597 3500 
L 2284 0 
L 1503 0 
L 191 3500 
z
" transform="scale(0.015625)"/>
       <path id="DejaVuSans-61" d="M 2194 1759 
Q 1497 1759 1228 1600 
Q 959 1441 959 1056 
Q 959 750 1161 570 
Q 1363 391 1709 391 
Q 2188 391 2477 730 
Q 2766 1069 2766 1631 
L 2766 1759 
L 2194 1759 
z
M 3341 1997 
L 3341 0 
L 2766 0 
L 2766 531 
Q 2569 213 2275 61 
Q 1981 -91 1556 -91 
Q 1019 -91 701 211 
Q 384 513 384 1019 
Q 384 1609 779 1909 
Q 1175 2209 1959 2209 
L 2766 2209 
L 2766 2266 
Q 2766 2663 2505 2880 
Q 2244 3097 1772 3097 
Q 1472 3097 1187 3025 
Q 903 2953 641 2809 
L 641 3341 
Q 956 3463 1253 3523 
Q 1550 3584 1831 3584 
Q 2591 3584 2966 3190 
Q 3341 2797 3341 1997 
z
" transform="scale(0.015625)"/>
       <path id="DejaVuSans-6c" d="M 603 4863 
L 1178 4863 
L 1178 0 
L 603 0 
L 603 4863 
z
" transform="scale(0.015625)"/>
      </defs>
      <use xlink:href="#DejaVuSans-6f"/>
      <use xlink:href="#DejaVuSans-62" transform="translate(61.181641 0)"/>
      <use xlink:href="#DejaVuSans-73" transform="translate(124.658203 0)"/>
      <use xlink:href="#DejaVuSans-65" transform="translate(176.757812 0)"/>
      <use xlink:href="#DejaVuSans-72" transform="translate(238.28125 0)"/>
      <use xlink:href="#DejaVuSans-76" transform="translate(279.394531 0)"/>
      <use xlink:href="#DejaVuSans-61" transform="translate(338.574219 0)"/>
      <use xlink:href="#DejaVuSans-62" transform="translate(399.853516 0)"/>
      <use xlink:href="#DejaVuSans-6c" transform="translate(463.330078 0)"/>
      <use xlink:href="#DejaVuSans-65" transform="translate(491.113281 0)"/>
     </g>
    </g>
    <g id="LineCollection_2">
     <path d="M 212.586364 75.976562 
L 212.586364 65.976562 
" style="fill: none; stroke: #000000; stroke-width: 1.5"/>
    </g>
    <g id="line2d_16">
     <path d="M 202.586364 70.976562 
L 222.586364 70.976562 
" style="fill: none; stroke: #000000; stroke-width: 1.5; stroke-linecap: square"/>
    </g>
    <g id="line2d_17">
     <g>
      <use xlink:href="#mc41d83c73e" x="212.586364" y="70.976562" style="stroke: #000000; stroke-linejoin: miter"/>
     </g>
    </g>
    <g id="text_17">
     <!-- reference_data ± SD -->
     <g transform="translate(230.586364 74.476562) scale(0.1 -0.1)">
      <defs>
       <path id="DejaVuSans-6e" d="M 3513 2113 
L 3513 0 
L 2938 0 
L 2938 2094 
Q 2938 2591 2744 2837 
Q 2550 3084 2163 3084 
Q 1697 3084 1428 2787 
Q 1159 2491 1159 1978 
L 1159 0 
L 581 0 
L 581 3500 
L 1159 3500 
L 1159 2956 
Q 1366 3272 1645 3428 
Q 1925 3584 2291 3584 
Q 2894 3584 3203 3211 
Q 3513 2838 3513 2113 
z
" transform="scale(0.015625)"/>
       <path id="DejaVuSans-63" d="M 3122 3366 
L 3122 2828 
Q 2878 2963 2633 3030 
Q 2388 3097 2138 3097 
Q 1578 3097 1268 2742 
Q 959 2388 959 1747 
Q 959 1106 1268 751 
Q 1578 397 2138 397 
Q 2388 397 2633 464 
Q 2878 531 3122 666 
L 3122 134 
Q 2881 22 2623 -34 
Q 2366 -91 2075 -91 
Q 1284 -91 818 406 
Q 353 903 353 1747 
Q 353 2603 823 3093 
Q 1294 3584 2113 3584 
Q 2378 3584 2631 3529 
Q 2884 3475 3122 3366 
z
" transform="scale(0.015625)"/>
       <path id="DejaVuSans-b1" d="M 2944 4013 
L 2944 2803 
L 4684 2803 
L 4684 2272 
L 2944 2272 
L 2944 1063 
L 2419 1063 
L 2419 2272 
L 678 2272 
L 678 2803 
L 2419 2803 
L 2419 4013 
L 2944 4013 
z
M 678 531 
L 4684 531 
L 4684 0 
L 678 0 
L 678 531 
z
" transform="scale(0.015625)"/>
      </defs>
      <use xlink:href="#DejaVuSans-72"/>
      <use xlink:href="#DejaVuSans-65" transform="translate(38.863281 0)"/>
      <use xlink:href="#DejaVuSans-66" transform="translate(100.386719 0)"/>
      <use xlink:href="#DejaVuSans-65" transform="translate(135.591797 0)"/>
      <use xlink:href="#DejaVuSans-72" transform="translate(197.115234 0)"/>
      <use xlink:href="#DejaVuSans-65" transform="translate(235.978516 0)"/>
      <use xlink:href="#DejaVuSans-6e" transform="translate(297.501953 0)"/>
      <use xlink:href="#DejaVuSans-63" transform="translate(360.880859 0)"/>
      <use xlink:href="#DejaVuSans-65" transform="translate(415.861328 0)"/>
      <use xlink:href="#DejaVuSans-5f" transform="translate(477.384766 0)"/>
      <use xlink:href="#DejaVuSans-64" transform="translate(527.384766 0)"/>
      <use xlink:href="#DejaVuSans-61" transform="translate(590.861328 0)"/>
      <use xlink:href="#DejaVuSans-74" transform="translate(652.140625 0)"/>
      <use xlink:href="#DejaVuSans-61" transform="translate(691.349609 0)"/>
      <use xlink:href="#DejaVuSans-20" transform="translate(752.628906 0)"/>
      <use xlink:href="#DejaVuSans-b1" transform="translate(784.416016 0)"/>
      <use xlink:href="#DejaVuSans-20" transform="translate(868.205078 0)"/>
      <use xlink:href="#DejaVuSans-53" transform="translate(899.992188 0)"/>
      <use xlink:href="#DejaVuSans-44" transform="translate(963.46875 0)"/>
     </g>
    </g>
   </g>
  </g>
  <g id="axes_2">
   <g id="patch_8">
    <path d="M 394.363636 320.4 
L 648 320.4 
L 648 43.2 
L 394.363636 43.2 
z
" style="fill: #ffffff"/>
   </g>
   <g id="matplotlib.axis_3">
    <g id="xtick_8">
     <g id="line2d_18">
      <g>
       <use xlink:href="#mccb8e558a6" x="419.813544" y="320.4" style="stroke: #000000; stroke-width: 0.8"/>
      </g>
     </g>
     <g id="text_18">
      <!-- 0 -->
      <g transform="translate(416.632294 334.998438) scale(0.1 -0.1)">
       <use xlink:href="#DejaVuSans-30"/>
      </g>
     </g>
    </g>
    <g id="xtick_9">
     <g id="line2d_19">
      <g>
       <use xlink:href="#mccb8e558a6" x="455.75974" y="320.4" style="stroke: #000000; stroke-width: 0.8"/>
      </g>
     </g>
     <g id="text_19">
      <!-- 250 -->
      <g transform="translate(446.21599 334.998438) scale(0.1 -0.1)">
       <use xlink:href="#DejaVuSans-32"/>
       <use xlink:href="#DejaVuSans-35" transform="translate(63.623047 0)"/>
       <use xlink:href="#DejaVuSans-30" transform="translate(127.246094 0)"/>
      </g>
     </g>
    </g>
    <g id="xtick_10">
     <g id="line2d_20">
      <g>
       <use xlink:href="#mccb8e558a6" x="491.705937" y="320.4" style="stroke: #000000; stroke-width: 0.8"/>
      </g>
     </g>
     <g id="text_20">
      <!-- 500 -->
      <g transform="translate(482.162187 334.998438) scale(0.1 -0.1)">
       <use xlink:href="#DejaVuSans-35"/>
       <use xlink:href="#DejaVuSans-30" transform="translate(63.623047 0)"/>
       <use xlink:href="#DejaVuSans-30" transform="translate(127.246094 0)"/>
      </g>
     </g>
    </g>
    <g id="xtick_11">
     <g id="line2d_21">
      <g>
       <use xlink:href="#mccb8e558a6" x="527.652134" y="320.4" style="stroke: #000000; stroke-width: 0.8"/>
      </g>
     </g>
     <g id="text_21">
      <!-- 750 -->
      <g transform="translate(518.108384 334.998438) scale(0.1 -0.1)">
       <use xlink:href="#DejaVuSans-37"/>
       <use xlink:href="#DejaVuSans-35" transform="translate(63.623047 0)"/>
       <use xlink:href="#DejaVuSans-30" transform="translate(127.246094 0)"/>
      </g>
     </g>
    </g>
    <g id="xtick_12">
     <g id="line2d_22">
      <g>
       <use xlink:href="#mccb8e558a6" x="563.59833" y="320.4" style="stroke: #000000; stroke-width: 0.8"/>
      </g>
     </g>
     <g id="text_22">
      <!-- 1000 -->
      <g transform="translate(550.87333 334.998438) scale(0.1 -0.1)">
       <use xlink:href="#DejaVuSans-31"/>
       <use xlink:href="#DejaVuSans-30" transform="translate(63.623047 0)"/>
       <use xlink:href="#DejaVuSans-30" transform="translate(127.246094 0)"/>
       <use xlink:href="#DejaVuSans-30" transform="translate(190.869141 0)"/>
      </g>
     </g>
    </g>
    <g id="xtick_13">
     <g id="line2d_23">
      <g>
       <use xlink:href="#mccb8e558a6" x="599.544527" y="320.4" style="stroke: #000000; stroke-width: 0.8"/>
      </g>
     </g>
     <g id="text_23">
      <!-- 1250 -->
      <g transform="translate(586.819527 334.998438) scale(0.1 -0.1)">
       <use xlink:href="#DejaVuSans-31"/>
       <use xlink:href="#DejaVuSans-32" transform="translate(63.623047 0)"/>
       <use xlink:href="#DejaVuSans-35" transform="translate(127.246094 0)"/>
       <use xlink:href="#DejaVuSans-30" transform="translate(190.869141 0)"/>
      </g>
     </g>
    </g>
    <g id="xtick_14">
     <g id="line2d_24">
      <g>
       <use xlink:href="#mccb8e558a6" x="635.490724" y="320.4" style="stroke: #000000; stroke-width: 0.8"/>
      </g>
     </g>
     <g id="text_24">
      <!-- 1500 -->
      <g transform="translate(622.765724 334.998438) scale(0.1 -0.1)">
       <use xlink:href="#DejaVuSans-31"/>
       <use xlink:href="#DejaVuSans-35" transform="translate(63.623047 0)"/>
       <use xlink:href="#DejaVuSans-30" transform="translate(127.246094 0)"/>
       <use xlink:href="#DejaVuSans-30" transform="translate(190.869141 0)"/>
      </g>
     </g>
    </g>
    <g id="text_25">
     <!-- time -->
     <g transform="translate(507.626506 350.19625) scale(0.12 -0.12)">
      <use xlink:href="#DejaVuSans-74"/>
      <use xlink:href="#DejaVuSans-69" transform="translate(39.208984 0)"/>
      <use xlink:href="#DejaVuSans-6d" transform="translate(66.992188 0)"/>
      <use xlink:href="#DejaVuSans-65" transform="translate(164.404297 0)"/>
     </g>
    </g>
   </g>
   <g id="matplotlib.axis_4">
    <g id="ytick_6">
     <g id="line2d_25">
      <defs>
       <path id="m0394db2d24" d="M 0 0 
L -2 0 
" style="stroke: #000000; stroke-width: 0.6"/>
      </defs>
      <g>
       <use xlink:href="#m0394db2d24" x="394.363636" y="260.07204" style="stroke: #000000; stroke-width: 0.6"/>
      </g>
     </g>
     <g id="text_26">
      <!-- $\mathdefault{2\times10^{1}}$ -->
      <g transform="translate(352.763636 263.871259) scale(0.1 -0.1)">
       <defs>
        <path id="DejaVuSans-d7" d="M 4488 3438 
L 3059 2003 
L 4488 575 
L 4116 197 
L 2681 1631 
L 1247 197 
L 878 575 
L 2303 2003 
L 878 3438 
L 1247 3816 
L 2681 2381 
L 4116 3816 
L 4488 3438 
z
" transform="scale(0.015625)"/>
       </defs>
       <use xlink:href="#DejaVuSans-32" transform="translate(0 0.684375)"/>
       <use xlink:href="#DejaVuSans-d7" transform="translate(83.105469 0.684375)"/>
       <use xlink:href="#DejaVuSans-31" transform="translate(186.376953 0.684375)"/>
       <use xlink:href="#DejaVuSans-30" transform="translate(250 0.684375)"/>
       <use xlink:href="#DejaVuSans-31" transform="translate(314.580078 38.965625) scale(0.7)"/>
      </g>
     </g>
    </g>
    <g id="ytick_7">
     <g id="line2d_26">
      <g>
       <use xlink:href="#m0394db2d24" x="394.363636" y="189.993844" style="stroke: #000000; stroke-width: 0.6"/>
      </g>
     </g>
     <g id="text_27">
      <!-- $\mathdefault{3\times10^{1}}$ -->
      <g transform="translate(352.763636 193.793063) scale(0.1 -0.1)">
       <use xlink:href="#DejaVuSans-33" transform="translate(0 0.684375)"/>
       <use xlink:href="#DejaVuSans-d7" transform="translate(83.105469 0.684375)"/>
       <use xlink:href="#DejaVuSans-31" transform="translate(186.376953 0.684375)"/>
       <use xlink:href="#DejaVuSans-30" transform="translate(250 0.684375)"/>
       <use xlink:href="#DejaVuSans-31" transform="translate(314.580078 38.965625) scale(0.7)"/>
      </g>
     </g>
    </g>
    <g id="ytick_8">
     <g id="line2d_27">
      <g>
       <use xlink:href="#m0394db2d24" x="394.363636" y="140.272572" style="stroke: #000000; stroke-width: 0.6"/>
      </g>
     </g>
     <g id="text_28">
      <!-- $\mathdefault{4\times10^{1}}$ -->
      <g transform="translate(352.763636 144.071791) scale(0.1 -0.1)">
       <use xlink:href="#DejaVuSans-34" transform="translate(0 0.684375)"/>
       <use xlink:href="#DejaVuSans-d7" transform="translate(83.105469 0.684375)"/>
       <use xlink:href="#DejaVuSans-31" transform="translate(186.376953 0.684375)"/>
       <use xlink:href="#DejaVuSans-30" transform="translate(250 0.684375)"/>
       <use xlink:href="#DejaVuSans-31" transform="translate(314.580078 38.965625) scale(0.7)"/>
      </g>
     </g>
    </g>
    <g id="ytick_9">
     <g id="line2d_28">
      <g>
       <use xlink:href="#m0394db2d24" x="394.363636" y="101.705758" style="stroke: #000000; stroke-width: 0.6"/>
      </g>
     </g>
    </g>
    <g id="ytick_10">
     <g id="line2d_29">
      <g>
       <use xlink:href="#m0394db2d24" x="394.363636" y="70.194376" style="stroke: #000000; stroke-width: 0.6"/>
      </g>
     </g>
     <g id="text_29">
      <!-- $\mathdefault{6\times10^{1}}$ -->
      <g transform="translate(352.763636 73.993595) scale(0.1 -0.1)">
       <use xlink:href="#DejaVuSans-36" transform="translate(0 0.684375)"/>
       <use xlink:href="#DejaVuSans-d7" transform="translate(83.105469 0.684375)"/>
       <use xlink:href="#DejaVuSans-31" transform="translate(186.376953 0.684375)"/>
       <use xlink:href="#DejaVuSans-30" transform="translate(250 0.684375)"/>
       <use xlink:href="#DejaVuSans-31" transform="translate(314.580078 38.965625) scale(0.7)"/>
      </g>
     </g>
    </g>
    <g id="ytick_11">
     <g id="line2d_30">
      <g>
       <use xlink:href="#m0394db2d24" x="394.363636" y="43.551882" style="stroke: #000000; stroke-width: 0.6"/>
      </g>
     </g>
    </g>
    <g id="text_30">
     <!-- DBP -->
     <g transform="translate(346.268011 194.154375) rotate(-90) scale(0.12 -0.12)">
      <use xlink:href="#DejaVuSans-44"/>
      <use xlink:href="#DejaVuSans-42" transform="translate(77.001953 0)"/>
      <use xlink:href="#DejaVuSans-50" transform="translate(145.605469 0)"/>
     </g>
    </g>
   </g>
   <g id="LineCollection_3">
    <path d="M 415.5 80.25859 
L 415.5 47.310802 
" clip-path="url(#p674da48b60)" style="fill: none; stroke: #000000; stroke-width: 1.5"/>
    <path d="M 419.813544 79.548591 
L 419.813544 54.999869 
" clip-path="url(#p674da48b60)" style="fill: none; stroke: #000000; stroke-width: 1.5"/>
    <path d="M 424.127087 94.755252 
L 424.127087 66.069734 
" clip-path="url(#p674da48b60)" style="fill: none; stroke: #000000; stroke-width: 1.5"/>
    <path d="M 428.440631 92.398404 
L 428.440631 76.571159 
" clip-path="url(#p674da48b60)" style="fill: none; stroke: #000000; stroke-width: 1.5"/>
    <path d="M 432.754174 103.844967 
L 432.754174 76.116488 
" clip-path="url(#p674da48b60)" style="fill: none; stroke: #000000; stroke-width: 1.5"/>
    <path d="M 437.067718 102.193762 
L 437.067718 77.582168 
" clip-path="url(#p674da48b60)" style="fill: none; stroke: #000000; stroke-width: 1.5"/>
    <path d="M 441.381262 102.361574 
L 441.381262 81.390293 
" clip-path="url(#p674da48b60)" style="fill: none; stroke: #000000; stroke-width: 1.5"/>
    <path d="M 445.694805 107.481157 
L 445.694805 94.222519 
" clip-path="url(#p674da48b60)" style="fill: none; stroke: #000000; stroke-width: 1.5"/>
    <path d="M 450.008349 111.871711 
L 450.008349 89.527351 
" clip-path="url(#p674da48b60)" style="fill: none; stroke: #000000; stroke-width: 1.5"/>
    <path d="M 454.321892 114.721984 
L 454.321892 97.090858 
" clip-path="url(#p674da48b60)" style="fill: none; stroke: #000000; stroke-width: 1.5"/>
    <path d="M 458.635436 105.710468 
L 458.635436 79.891679 
" clip-path="url(#p674da48b60)" style="fill: none; stroke: #000000; stroke-width: 1.5"/>
    <path d="M 462.94898 116.134117 
L 462.94898 96.201128 
" clip-path="url(#p674da48b60)" style="fill: none; stroke: #000000; stroke-width: 1.5"/>
    <path d="M 467.262523 124.037987 
L 467.262523 95.824434 
" clip-path="url(#p674da48b60)" style="fill: none; stroke: #000000; stroke-width: 1.5"/>
    <path d="M 471.576067 129.526845 
L 471.576067 96.658375 
" clip-path="url(#p674da48b60)" style="fill: none; stroke: #000000; stroke-width: 1.5"/>
    <path d="M 475.88961 123.94294 
L 475.88961 100.090198 
" clip-path="url(#p674da48b60)" style="fill: none; stroke: #000000; stroke-width: 1.5"/>
    <path d="M 480.203154 119.300599 
L 480.203154 86.119355 
" clip-path="url(#p674da48b60)" style="fill: none; stroke: #000000; stroke-width: 1.5"/>
    <path d="M 484.516698 123.690221 
L 484.516698 87.675115 
" clip-path="url(#p674da48b60)" style="fill: none; stroke: #000000; stroke-width: 1.5"/>
    <path d="M 488.830241 115.711603 
L 488.830241 98.530452 
" clip-path="url(#p674da48b60)" style="fill: none; stroke: #000000; stroke-width: 1.5"/>
    <path d="M 497.457328 111.01855 
L 497.457328 86.474728 
" clip-path="url(#p674da48b60)" style="fill: none; stroke: #000000; stroke-width: 1.5"/>
    <path d="M 506.084416 112.993396 
L 506.084416 77.967456 
" clip-path="url(#p674da48b60)" style="fill: none; stroke: #000000; stroke-width: 1.5"/>
    <path d="M 626.863636 82.39197 
L 626.863636 58.975232 
" clip-path="url(#p674da48b60)" style="fill: none; stroke: #000000; stroke-width: 1.5"/>
   </g>
   <g id="line2d_31">
    <path d="M 402.559369 60.395487 
L 421.662958 60.499816 
L 422.222933 60.745225 
L 422.720017 61.18096 
L 423.217102 61.888382 
L 423.879882 63.319616 
L 424.676024 65.77934 
L 425.737546 70.066067 
L 429.733427 87.773873 
L 430.933329 91.846397 
L 432.133231 95.170516 
L 433.333133 97.831789 
L 434.552834 99.968502 
L 435.772535 101.639758 
L 436.992236 102.938408 
L 438.211938 103.939941 
L 439.431639 104.703807 
L 441.261191 105.502577 
L 443.090742 105.984092 
L 444.920294 106.228259 
L 447.359697 106.279316 
L 449.799099 106.098239 
L 452.848352 105.636765 
L 456.507456 104.839604 
L 460.77641 103.683438 
L 466.874916 101.77347 
L 476.022675 98.637625 
L 494.318193 92.342089 
L 503.827484 89.337906 
L 511.691315 87.058098 
L 518.710278 85.191322 
L 527.297785 83.123043 
L 534.961687 81.469033 
L 545.072133 79.540489 
L 555.182578 77.86652 
L 567.543406 76.110722 
L 578.784467 74.741404 
L 590.025527 73.546477 
L 606.887119 72.009936 
L 623.74871 70.70802 
L 635.490724 69.909305 
L 635.490724 69.909305 
" clip-path="url(#p674da48b60)" style="fill: none; stroke: #0000ff; stroke-width: 1.5; stroke-linecap: square"/>
   </g>
   <g id="line2d_32">
    <path d="M 415.5 63.000767 
L 419.813544 66.838745 
L 424.127087 79.818053 
L 428.440631 84.303673 
L 432.754174 89.425249 
L 437.067718 89.450248 
L 441.381262 91.558053 
L 445.694805 100.72473 
L 450.008349 100.338691 
L 454.321892 105.681696 
L 458.635436 92.319405 
L 462.94898 105.880422 
L 467.262523 109.356148 
L 471.576067 112.312446 
L 475.88961 111.605407 
L 480.203154 101.914916 
L 484.516698 104.746258 
L 488.830241 106.907622 
L 497.457328 98.311327 
L 506.084416 94.594661 
L 626.863636 70.287322 
" clip-path="url(#p674da48b60)" style="fill: none; stroke: #000000; stroke-width: 1.5; stroke-linecap: square"/>
    <g clip-path="url(#p674da48b60)">
     <use xlink:href="#mc41d83c73e" x="415.5" y="63.000767" style="stroke: #000000; stroke-linejoin: miter"/>
     <use xlink:href="#mc41d83c73e" x="419.813544" y="66.838745" style="stroke: #000000; stroke-linejoin: miter"/>
     <use xlink:href="#mc41d83c73e" x="424.127087" y="79.818053" style="stroke: #000000; stroke-linejoin: miter"/>
     <use xlink:href="#mc41d83c73e" x="428.440631" y="84.303673" style="stroke: #000000; stroke-linejoin: miter"/>
     <use xlink:href="#mc41d83c73e" x="432.754174" y="89.425249" style="stroke: #000000; stroke-linejoin: miter"/>
     <use xlink:href="#mc41d83c73e" x="437.067718" y="89.450248" style="stroke: #000000; stroke-linejoin: miter"/>
     <use xlink:href="#mc41d83c73e" x="441.381262" y="91.558053" style="stroke: #000000; stroke-linejoin: miter"/>
     <use xlink:href="#mc41d83c73e" x="445.694805" y="100.72473" style="stroke: #000000; stroke-linejoin: miter"/>
     <use xlink:href="#mc41d83c73e" x="450.008349" y="100.338691" style="stroke: #000000; stroke-linejoin: miter"/>
     <use xlink:href="#mc41d83c73e" x="454.321892" y="105.681696" style="stroke: #000000; stroke-linejoin: miter"/>
     <use xlink:href="#mc41d83c73e" x="458.635436" y="92.319405" style="stroke: #000000; stroke-linejoin: miter"/>
     <use xlink:href="#mc41d83c73e" x="462.94898" y="105.880422" style="stroke: #000000; stroke-linejoin: miter"/>
     <use xlink:href="#mc41d83c73e" x="467.262523" y="109.356148" style="stroke: #000000; stroke-linejoin: miter"/>
     <use xlink:href="#mc41d83c73e" x="471.576067" y="112.312446" style="stroke: #000000; stroke-linejoin: miter"/>
     <use xlink:href="#mc41d83c73e" x="475.88961" y="111.605407" style="stroke: #000000; stroke-linejoin: miter"/>
     <use xlink:href="#mc41d83c73e" x="480.203154" y="101.914916" style="stroke: #000000; stroke-linejoin: miter"/>
     <use xlink:href="#mc41d83c73e" x="484.516698" y="104.746258" style="stroke: #000000; stroke-linejoin: miter"/>
     <use xlink:href="#mc41d83c73e" x="488.830241" y="106.907622" style="stroke: #000000; stroke-linejoin: miter"/>
     <use xlink:href="#mc41d83c73e" x="497.457328" y="98.311327" style="stroke: #000000; stroke-linejoin: miter"/>
     <use xlink:href="#mc41d83c73e" x="506.084416" y="94.594661" style="stroke: #000000; stroke-linejoin: miter"/>
     <use xlink:href="#mc41d83c73e" x="626.863636" y="70.287322" style="stroke: #000000; stroke-linejoin: miter"/>
    </g>
   </g>
   <g id="patch_9">
    <path d="M 394.363636 320.4 
L 394.363636 43.2 
" style="fill: none; stroke: #000000; stroke-width: 0.8; stroke-linejoin: miter; stroke-linecap: square"/>
   </g>
   <g id="patch_10">
    <path d="M 648 320.4 
L 648 43.2 
" style="fill: none; stroke: #000000; stroke-width: 0.8; stroke-linejoin: miter; stroke-linecap: square"/>
   </g>
   <g id="patch_11">
    <path d="M 394.363636 320.4 
L 648 320.4 
" style="fill: none; stroke: #000000; stroke-width: 0.8; stroke-linejoin: miter; stroke-linecap: square"/>
   </g>
   <g id="patch_12">
    <path d="M 394.363636 43.2 
L 648 43.2 
" style="fill: none; stroke: #000000; stroke-width: 0.8; stroke-linejoin: miter; stroke-linecap: square"/>
   </g>
   <g id="text_31">
    <!-- Doig1993 fm_po_LOS100_dbp -->
    <g transform="translate(416.276974 37.2) scale(0.14 -0.14)">
     <use xlink:href="#DejaVuSans-44"/>
     <use xlink:href="#DejaVuSans-6f" transform="translate(77.001953 0)"/>
     <use xlink:href="#DejaVuSans-69" transform="translate(138.183594 0)"/>
     <use xlink:href="#DejaVuSans-67" transform="translate(165.966797 0)"/>
     <use xlink:href="#DejaVuSans-31" transform="translate(229.443359 0)"/>
     <use xlink:href="#DejaVuSans-39" transform="translate(293.066406 0)"/>
     <use xlink:href="#DejaVuSans-39" transform="translate(356.689453 0)"/>
     <use xlink:href="#DejaVuSans-33" transform="translate(420.3125 0)"/>
     <use xlink:href="#DejaVuSans-20" transform="translate(483.935547 0)"/>
     <use xlink:href="#DejaVuSans-66" transform="translate(515.722656 0)"/>
     <use xlink:href="#DejaVuSans-6d" transform="translate(550.927734 0)"/>
     <use xlink:href="#DejaVuSans-5f" transform="translate(648.339844 0)"/>
     <use xlink:href="#DejaVuSans-70" transform="translate(698.339844 0)"/>
     <use xlink:href="#DejaVuSans-6f" transform="translate(761.816406 0)"/>
     <use xlink:href="#DejaVuSans-5f" transform="translate(822.998047 0)"/>
     <use xlink:href="#DejaVuSans-4c" transform="translate(872.998047 0)"/>
     <use xlink:href="#DejaVuSans-4f" transform="translate(925.085938 0)"/>
     <use xlink:href="#DejaVuSans-53" transform="translate(1003.796875 0)"/>
     <use xlink:href="#DejaVuSans-31" transform="translate(1067.273438 0)"/>
     <use xlink:href="#DejaVuSans-30" transform="translate(1130.896484 0)"/>
     <use xlink:href="#DejaVuSans-30" transform="translate(1194.519531 0)"/>
     <use xlink:href="#DejaVuSans-5f" transform="translate(1258.142578 0)"/>
     <use xlink:href="#DejaVuSans-64" transform="translate(1308.142578 0)"/>
     <use xlink:href="#DejaVuSans-62" transform="translate(1371.619141 0)"/>
     <use xlink:href="#DejaVuSans-70" transform="translate(1435.095703 0)"/>
    </g>
   </g>
   <g id="legend_2">
    <g id="patch_13">
     <path d="M 401.363636 315.4 
L 537.413636 315.4 
Q 539.413636 315.4 539.413636 313.4 
L 539.413636 284.765625 
Q 539.413636 282.765625 537.413636 282.765625 
L 401.363636 282.765625 
Q 399.363636 282.765625 399.363636 284.765625 
L 399.363636 313.4 
Q 399.363636 315.4 401.363636 315.4 
z
" style="fill: #ffffff; opacity: 0.8; stroke: #cccccc; stroke-linejoin: miter"/>
    </g>
    <g id="line2d_33">
     <path d="M 403.363636 290.864062 
L 413.363636 290.864062 
L 423.363636 290.864062 
" style="fill: none; stroke: #0000ff; stroke-width: 1.5; stroke-linecap: square"/>
    </g>
    <g id="text_32">
     <!-- observable -->
     <g transform="translate(431.363636 294.364062) scale(0.1 -0.1)">
      <use xlink:href="#DejaVuSans-6f"/>
      <use xlink:href="#DejaVuSans-62" transform="translate(61.181641 0)"/>
      <use xlink:href="#DejaVuSans-73" transform="translate(124.658203 0)"/>
      <use xlink:href="#DejaVuSans-65" transform="translate(176.757812 0)"/>
      <use xlink:href="#DejaVuSans-72" transform="translate(238.28125 0)"/>
      <use xlink:href="#DejaVuSans-76" transform="translate(279.394531 0)"/>
      <use xlink:href="#DejaVuSans-61" transform="translate(338.574219 0)"/>
      <use xlink:href="#DejaVuSans-62" transform="translate(399.853516 0)"/>
      <use xlink:href="#DejaVuSans-6c" transform="translate(463.330078 0)"/>
      <use xlink:href="#DejaVuSans-65" transform="translate(491.113281 0)"/>
     </g>
    </g>
    <g id="LineCollection_4">
     <path d="M 413.363636 310.542188 
L 413.363636 300.542188 
" style="fill: none; stroke: #000000; stroke-width: 1.5"/>
    </g>
    <g id="line2d_34">
     <path d="M 403.363636 305.542188 
L 423.363636 305.542188 
" style="fill: none; stroke: #000000; stroke-width: 1.5; stroke-linecap: square"/>
    </g>
    <g id="line2d_35">
     <g>
      <use xlink:href="#mc41d83c73e" x="413.363636" y="305.542188" style="stroke: #000000; stroke-linejoin: miter"/>
     </g>
    </g>
    <g id="text_33">
     <!-- reference_data ± SD -->
     <g transform="translate(431.363636 309.042188) scale(0.1 -0.1)">
      <use xlink:href="#DejaVuSans-72"/>
      <use xlink:href="#DejaVuSans-65" transform="translate(38.863281 0)"/>
      <use xlink:href="#DejaVuSans-66" transform="translate(100.386719 0)"/>
      <use xlink:href="#DejaVuSans-65" transform="translate(135.591797 0)"/>
      <use xlink:href="#DejaVuSans-72" transform="translate(197.115234 0)"/>
      <use xlink:href="#DejaVuSans-65" transform="translate(235.978516 0)"/>
      <use xlink:href="#DejaVuSans-6e" transform="translate(297.501953 0)"/>
      <use xlink:href="#DejaVuSans-63" transform="translate(360.880859 0)"/>
      <use xlink:href="#DejaVuSans-65" transform="translate(415.861328 0)"/>
      <use xlink:href="#DejaVuSans-5f" transform="translate(477.384766 0)"/>
      <use xlink:href="#DejaVuSans-64" transform="translate(527.384766 0)"/>
      <use xlink:href="#DejaVuSans-61" transform="translate(590.861328 0)"/>
      <use xlink:href="#DejaVuSans-74" transform="translate(652.140625 0)"/>
      <use xlink:href="#DejaVuSans-61" transform="translate(691.349609 0)"/>
      <use xlink:href="#DejaVuSans-20" transform="translate(752.628906 0)"/>
      <use xlink:href="#DejaVuSans-b1" transform="translate(784.416016 0)"/>
      <use xlink:href="#DejaVuSans-20" transform="translate(868.205078 0)"/>
      <use xlink:href="#DejaVuSans-53" transform="translate(899.992188 0)"/>
      <use xlink:href="#DejaVuSans-44" transform="translate(963.46875 0)"/>
     </g>
    </g>
   </g>
  </g>
 </g>
 <defs>
  <clipPath id="pae548e963d">
   <rect x="90" y="43.2" width="253.636364" height="277.2"/>
  </clipPath>
  <clipPath id="p674da48b60">
   <rect x="394.363636" y="43.2" width="253.636364" height="277.2"/>
  </clipPath>
 </defs>
</svg>
