<?xml version="1.0" encoding="utf-8" standalone="no"?>
<!DOCTYPE svg PUBLIC "-//W3C//DTD SVG 1.1//EN"
  "http://www.w3.org/Graphics/SVG/1.1/DTD/svg11.dtd">
<svg xmlns:xlink="http://www.w3.org/1999/xlink" width="360pt" height="360pt" viewBox="0 0 360 360" xmlns="http://www.w3.org/2000/svg" version="1.1">
 <metadata>
  <rdf:RDF xmlns:dc="http://purl.org/dc/elements/1.1/" xmlns:cc="http://creativecommons.org/ns#" xmlns:rdf="http://www.w3.org/1999/02/22-rdf-syntax-ns#">
   <cc:Work>
    <dc:type rdf:resource="http://purl.org/dc/dcmitype/StillImage"/>
    <dc:date>2025-07-11T23:14:01.657890</dc:date>
    <dc:format>image/svg+xml</dc:format>
    <dc:creator>
     <cc:Agent>
      <dc:title>Matplotlib v3.10.3, https://matplotlib.org/</dc:title>
     </cc:Agent>
    </dc:creator>
   </cc:Work>
  </rdf:RDF>
 </metadata>
 <defs>
  <style type="text/css">*{stroke-linejoin: round; stroke-linecap: butt}</style>
 </defs>
 <g id="figure_1">
  <g id="patch_1">
   <path d="M 0 360 
L 360 360 
L 360 0 
L 0 0 
z
" style="fill: #ffffff"/>
  </g>
  <g id="axes_1">
   <g id="patch_2">
    <path d="M 76.11399 324.707885 
L 356.99976 324.707885 
L 356.99976 3.00024 
L 76.11399 3.00024 
z
" style="fill: #ffffff"/>
   </g>
   <g id="matplotlib.axis_1">
    <g id="xtick_1">
     <g id="line2d_1">
      <defs>
       <path id="m37f2d6f333" d="M 0 0 
L 0 3.5 
" style="stroke: #000000; stroke-width: 0.8"/>
      </defs>
      <g>
       <use xlink:href="#m37f2d6f333" x="88.881525" y="324.707885" style="stroke: #000000; stroke-width: 0.8"/>
      </g>
     </g>
     <g id="text_1">
      <!-- 0 -->
      <g transform="translate(85.700275 339.306323) scale(0.1 -0.1)">
       <defs>
        <path id="DejaVuSans-30" d="M 2034 4250 
Q 1547 4250 1301 3770 
Q 1056 3291 1056 2328 
Q 1056 1369 1301 889 
Q 1547 409 2034 409 
Q 2525 409 2770 889 
Q 3016 1369 3016 2328 
Q 3016 3291 2770 3770 
Q 2525 4250 2034 4250 
z
M 2034 4750 
Q 2819 4750 3233 4129 
Q 3647 3509 3647 2328 
Q 3647 1150 3233 529 
Q 2819 -91 2034 -91 
Q 1250 -91 836 529 
Q 422 1150 422 2328 
Q 422 3509 836 4129 
Q 1250 4750 2034 4750 
z
" transform="scale(0.015625)"/>
       </defs>
       <use xlink:href="#DejaVuSans-30"/>
      </g>
     </g>
    </g>
    <g id="xtick_2">
     <g id="line2d_2">
      <g>
       <use xlink:href="#m37f2d6f333" x="140.467525" y="324.707885" style="stroke: #000000; stroke-width: 0.8"/>
      </g>
     </g>
     <g id="text_2">
      <!-- 20 -->
      <g transform="translate(134.105025 339.306323) scale(0.1 -0.1)">
       <defs>
        <path id="DejaVuSans-32" d="M 1228 531 
L 3431 531 
L 3431 0 
L 469 0 
L 469 531 
Q 828 903 1448 1529 
Q 2069 2156 2228 2338 
Q 2531 2678 2651 2914 
Q 2772 3150 2772 3378 
Q 2772 3750 2511 3984 
Q 2250 4219 1831 4219 
Q 1534 4219 1204 4116 
Q 875 4013 500 3803 
L 500 4441 
Q 881 4594 1212 4672 
Q 1544 4750 1819 4750 
Q 2544 4750 2975 4387 
Q 3406 4025 3406 3419 
Q 3406 3131 3298 2873 
Q 3191 2616 2906 2266 
Q 2828 2175 2409 1742 
Q 1991 1309 1228 531 
z
" transform="scale(0.015625)"/>
       </defs>
       <use xlink:href="#DejaVuSans-32"/>
       <use xlink:href="#DejaVuSans-30" transform="translate(63.623047 0)"/>
      </g>
     </g>
    </g>
    <g id="xtick_3">
     <g id="line2d_3">
      <g>
       <use xlink:href="#m37f2d6f333" x="192.053525" y="324.707885" style="stroke: #000000; stroke-width: 0.8"/>
      </g>
     </g>
     <g id="text_3">
      <!-- 40 -->
      <g transform="translate(185.691025 339.306323) scale(0.1 -0.1)">
       <defs>
        <path id="DejaVuSans-34" d="M 2419 4116 
L 825 1625 
L 2419 1625 
L 2419 4116 
z
M 2253 4666 
L 3047 4666 
L 3047 1625 
L 3713 1625 
L 3713 1100 
L 3047 1100 
L 3047 0 
L 2419 0 
L 2419 1100 
L 313 1100 
L 313 1709 
L 2253 4666 
z
" transform="scale(0.015625)"/>
       </defs>
       <use xlink:href="#DejaVuSans-34"/>
       <use xlink:href="#DejaVuSans-30" transform="translate(63.623047 0)"/>
      </g>
     </g>
    </g>
    <g id="xtick_4">
     <g id="line2d_4">
      <g>
       <use xlink:href="#m37f2d6f333" x="243.639525" y="324.707885" style="stroke: #000000; stroke-width: 0.8"/>
      </g>
     </g>
     <g id="text_4">
      <!-- 60 -->
      <g transform="translate(237.277025 339.306323) scale(0.1 -0.1)">
       <defs>
        <path id="DejaVuSans-36" d="M 2113 2584 
Q 1688 2584 1439 2293 
Q 1191 2003 1191 1497 
Q 1191 994 1439 701 
Q 1688 409 2113 409 
Q 2538 409 2786 701 
Q 3034 994 3034 1497 
Q 3034 2003 2786 2293 
Q 2538 2584 2113 2584 
z
M 3366 4563 
L 3366 3988 
Q 3128 4100 2886 4159 
Q 2644 4219 2406 4219 
Q 1781 4219 1451 3797 
Q 1122 3375 1075 2522 
Q 1259 2794 1537 2939 
Q 1816 3084 2150 3084 
Q 2853 3084 3261 2657 
Q 3669 2231 3669 1497 
Q 3669 778 3244 343 
Q 2819 -91 2113 -91 
Q 1303 -91 875 529 
Q 447 1150 447 2328 
Q 447 3434 972 4092 
Q 1497 4750 2381 4750 
Q 2619 4750 2861 4703 
Q 3103 4656 3366 4563 
z
" transform="scale(0.015625)"/>
       </defs>
       <use xlink:href="#DejaVuSans-36"/>
       <use xlink:href="#DejaVuSans-30" transform="translate(63.623047 0)"/>
      </g>
     </g>
    </g>
    <g id="xtick_5">
     <g id="line2d_5">
      <g>
       <use xlink:href="#m37f2d6f333" x="295.225525" y="324.707885" style="stroke: #000000; stroke-width: 0.8"/>
      </g>
     </g>
     <g id="text_5">
      <!-- 80 -->
      <g transform="translate(288.863025 339.306323) scale(0.1 -0.1)">
       <defs>
        <path id="DejaVuSans-38" d="M 2034 2216 
Q 1584 2216 1326 1975 
Q 1069 1734 1069 1313 
Q 1069 891 1326 650 
Q 1584 409 2034 409 
Q 2484 409 2743 651 
Q 3003 894 3003 1313 
Q 3003 1734 2745 1975 
Q 2488 2216 2034 2216 
z
M 1403 2484 
Q 997 2584 770 2862 
Q 544 3141 544 3541 
Q 544 4100 942 4425 
Q 1341 4750 2034 4750 
Q 2731 4750 3128 4425 
Q 3525 4100 3525 3541 
Q 3525 3141 3298 2862 
Q 3072 2584 2669 2484 
Q 3125 2378 3379 2068 
Q 3634 1759 3634 1313 
Q 3634 634 3220 271 
Q 2806 -91 2034 -91 
Q 1263 -91 848 271 
Q 434 634 434 1313 
Q 434 1759 690 2068 
Q 947 2378 1403 2484 
z
M 1172 3481 
Q 1172 3119 1398 2916 
Q 1625 2713 2034 2713 
Q 2441 2713 2670 2916 
Q 2900 3119 2900 3481 
Q 2900 3844 2670 4047 
Q 2441 4250 2034 4250 
Q 1625 4250 1398 4047 
Q 1172 3844 1172 3481 
z
" transform="scale(0.015625)"/>
       </defs>
       <use xlink:href="#DejaVuSans-38"/>
       <use xlink:href="#DejaVuSans-30" transform="translate(63.623047 0)"/>
      </g>
     </g>
    </g>
    <g id="xtick_6">
     <g id="line2d_6">
      <g>
       <use xlink:href="#m37f2d6f333" x="346.811525" y="324.707885" style="stroke: #000000; stroke-width: 0.8"/>
      </g>
     </g>
     <g id="text_6">
      <!-- 100 -->
      <g transform="translate(337.267775 339.306323) scale(0.1 -0.1)">
       <defs>
        <path id="DejaVuSans-31" d="M 794 531 
L 1825 531 
L 1825 4091 
L 703 3866 
L 703 4441 
L 1819 4666 
L 2450 4666 
L 2450 531 
L 3481 531 
L 3481 0 
L 794 0 
L 794 531 
z
" transform="scale(0.015625)"/>
       </defs>
       <use xlink:href="#DejaVuSans-31"/>
       <use xlink:href="#DejaVuSans-30" transform="translate(63.623047 0)"/>
       <use xlink:href="#DejaVuSans-30" transform="translate(127.246094 0)"/>
      </g>
     </g>
    </g>
    <g id="text_7">
     <!-- Index (ordered optimizer run) -->
     <g transform="translate(127.87875 354.504135) scale(0.12 -0.12)">
      <defs>
       <path id="DejaVuSans-49" d="M 628 4666 
L 1259 4666 
L 1259 0 
L 628 0 
L 628 4666 
z
" transform="scale(0.015625)"/>
       <path id="DejaVuSans-6e" d="M 3513 2113 
L 3513 0 
L 2938 0 
L 2938 2094 
Q 2938 2591 2744 2837 
Q 2550 3084 2163 3084 
Q 1697 3084 1428 2787 
Q 1159 2491 1159 1978 
L 1159 0 
L 581 0 
L 581 3500 
L 1159 3500 
L 1159 2956 
Q 1366 3272 1645 3428 
Q 1925 3584 2291 3584 
Q 2894 3584 3203 3211 
Q 3513 2838 3513 2113 
z
" transform="scale(0.015625)"/>
       <path id="DejaVuSans-64" d="M 2906 2969 
L 2906 4863 
L 3481 4863 
L 3481 0 
L 2906 0 
L 2906 525 
Q 2725 213 2448 61 
Q 2172 -91 1784 -91 
Q 1150 -91 751 415 
Q 353 922 353 1747 
Q 353 2572 751 3078 
Q 1150 3584 1784 3584 
Q 2172 3584 2448 3432 
Q 2725 3281 2906 2969 
z
M 947 1747 
Q 947 1113 1208 752 
Q 1469 391 1925 391 
Q 2381 391 2643 752 
Q 2906 1113 2906 1747 
Q 2906 2381 2643 2742 
Q 2381 3103 1925 3103 
Q 1469 3103 1208 2742 
Q 947 2381 947 1747 
z
" transform="scale(0.015625)"/>
       <path id="DejaVuSans-65" d="M 3597 1894 
L 3597 1613 
L 953 1613 
Q 991 1019 1311 708 
Q 1631 397 2203 397 
Q 2534 397 2845 478 
Q 3156 559 3463 722 
L 3463 178 
Q 3153 47 2828 -22 
Q 2503 -91 2169 -91 
Q 1331 -91 842 396 
Q 353 884 353 1716 
Q 353 2575 817 3079 
Q 1281 3584 2069 3584 
Q 2775 3584 3186 3129 
Q 3597 2675 3597 1894 
z
M 3022 2063 
Q 3016 2534 2758 2815 
Q 2500 3097 2075 3097 
Q 1594 3097 1305 2825 
Q 1016 2553 972 2059 
L 3022 2063 
z
" transform="scale(0.015625)"/>
       <path id="DejaVuSans-78" d="M 3513 3500 
L 2247 1797 
L 3578 0 
L 2900 0 
L 1881 1375 
L 863 0 
L 184 0 
L 1544 1831 
L 300 3500 
L 978 3500 
L 1906 2253 
L 2834 3500 
L 3513 3500 
z
" transform="scale(0.015625)"/>
       <path id="DejaVuSans-20" transform="scale(0.015625)"/>
       <path id="DejaVuSans-28" d="M 1984 4856 
Q 1566 4138 1362 3434 
Q 1159 2731 1159 2009 
Q 1159 1288 1364 580 
Q 1569 -128 1984 -844 
L 1484 -844 
Q 1016 -109 783 600 
Q 550 1309 550 2009 
Q 550 2706 781 3412 
Q 1013 4119 1484 4856 
L 1984 4856 
z
" transform="scale(0.015625)"/>
       <path id="DejaVuSans-6f" d="M 1959 3097 
Q 1497 3097 1228 2736 
Q 959 2375 959 1747 
Q 959 1119 1226 758 
Q 1494 397 1959 397 
Q 2419 397 2687 759 
Q 2956 1122 2956 1747 
Q 2956 2369 2687 2733 
Q 2419 3097 1959 3097 
z
M 1959 3584 
Q 2709 3584 3137 3096 
Q 3566 2609 3566 1747 
Q 3566 888 3137 398 
Q 2709 -91 1959 -91 
Q 1206 -91 779 398 
Q 353 888 353 1747 
Q 353 2609 779 3096 
Q 1206 3584 1959 3584 
z
" transform="scale(0.015625)"/>
       <path id="DejaVuSans-72" d="M 2631 2963 
Q 2534 3019 2420 3045 
Q 2306 3072 2169 3072 
Q 1681 3072 1420 2755 
Q 1159 2438 1159 1844 
L 1159 0 
L 581 0 
L 581 3500 
L 1159 3500 
L 1159 2956 
Q 1341 3275 1631 3429 
Q 1922 3584 2338 3584 
Q 2397 3584 2469 3576 
Q 2541 3569 2628 3553 
L 2631 2963 
z
" transform="scale(0.015625)"/>
       <path id="DejaVuSans-70" d="M 1159 525 
L 1159 -1331 
L 581 -1331 
L 581 3500 
L 1159 3500 
L 1159 2969 
Q 1341 3281 1617 3432 
Q 1894 3584 2278 3584 
Q 2916 3584 3314 3078 
Q 3713 2572 3713 1747 
Q 3713 922 3314 415 
Q 2916 -91 2278 -91 
Q 1894 -91 1617 61 
Q 1341 213 1159 525 
z
M 3116 1747 
Q 3116 2381 2855 2742 
Q 2594 3103 2138 3103 
Q 1681 3103 1420 2742 
Q 1159 2381 1159 1747 
Q 1159 1113 1420 752 
Q 1681 391 2138 391 
Q 2594 391 2855 752 
Q 3116 1113 3116 1747 
z
" transform="scale(0.015625)"/>
       <path id="DejaVuSans-74" d="M 1172 4494 
L 1172 3500 
L 2356 3500 
L 2356 3053 
L 1172 3053 
L 1172 1153 
Q 1172 725 1289 603 
Q 1406 481 1766 481 
L 2356 481 
L 2356 0 
L 1766 0 
Q 1100 0 847 248 
Q 594 497 594 1153 
L 594 3053 
L 172 3053 
L 172 3500 
L 594 3500 
L 594 4494 
L 1172 4494 
z
" transform="scale(0.015625)"/>
       <path id="DejaVuSans-69" d="M 603 3500 
L 1178 3500 
L 1178 0 
L 603 0 
L 603 3500 
z
M 603 4863 
L 1178 4863 
L 1178 4134 
L 603 4134 
L 603 4863 
z
" transform="scale(0.015625)"/>
       <path id="DejaVuSans-6d" d="M 3328 2828 
Q 3544 3216 3844 3400 
Q 4144 3584 4550 3584 
Q 5097 3584 5394 3201 
Q 5691 2819 5691 2113 
L 5691 0 
L 5113 0 
L 5113 2094 
Q 5113 2597 4934 2840 
Q 4756 3084 4391 3084 
Q 3944 3084 3684 2787 
Q 3425 2491 3425 1978 
L 3425 0 
L 2847 0 
L 2847 2094 
Q 2847 2600 2669 2842 
Q 2491 3084 2119 3084 
Q 1678 3084 1418 2786 
Q 1159 2488 1159 1978 
L 1159 0 
L 581 0 
L 581 3500 
L 1159 3500 
L 1159 2956 
Q 1356 3278 1631 3431 
Q 1906 3584 2284 3584 
Q 2666 3584 2933 3390 
Q 3200 3197 3328 2828 
z
" transform="scale(0.015625)"/>
       <path id="DejaVuSans-7a" d="M 353 3500 
L 3084 3500 
L 3084 2975 
L 922 459 
L 3084 459 
L 3084 0 
L 275 0 
L 275 525 
L 2438 3041 
L 353 3041 
L 353 3500 
z
" transform="scale(0.015625)"/>
       <path id="DejaVuSans-75" d="M 544 1381 
L 544 3500 
L 1119 3500 
L 1119 1403 
Q 1119 906 1312 657 
Q 1506 409 1894 409 
Q 2359 409 2629 706 
Q 2900 1003 2900 1516 
L 2900 3500 
L 3475 3500 
L 3475 0 
L 2900 0 
L 2900 538 
Q 2691 219 2414 64 
Q 2138 -91 1772 -91 
Q 1169 -91 856 284 
Q 544 659 544 1381 
z
M 1991 3584 
L 1991 3584 
z
" transform="scale(0.015625)"/>
       <path id="DejaVuSans-29" d="M 513 4856 
L 1013 4856 
Q 1481 4119 1714 3412 
Q 1947 2706 1947 2009 
Q 1947 1309 1714 600 
Q 1481 -109 1013 -844 
L 513 -844 
Q 928 -128 1133 580 
Q 1338 1288 1338 2009 
Q 1338 2731 1133 3434 
Q 928 4138 513 4856 
z
" transform="scale(0.015625)"/>
      </defs>
      <use xlink:href="#DejaVuSans-49"/>
      <use xlink:href="#DejaVuSans-6e" transform="translate(29.492188 0)"/>
      <use xlink:href="#DejaVuSans-64" transform="translate(92.871094 0)"/>
      <use xlink:href="#DejaVuSans-65" transform="translate(156.347656 0)"/>
      <use xlink:href="#DejaVuSans-78" transform="translate(216.121094 0)"/>
      <use xlink:href="#DejaVuSans-20" transform="translate(275.300781 0)"/>
      <use xlink:href="#DejaVuSans-28" transform="translate(307.087891 0)"/>
      <use xlink:href="#DejaVuSans-6f" transform="translate(346.101562 0)"/>
      <use xlink:href="#DejaVuSans-72" transform="translate(407.283203 0)"/>
      <use xlink:href="#DejaVuSans-64" transform="translate(446.646484 0)"/>
      <use xlink:href="#DejaVuSans-65" transform="translate(510.123047 0)"/>
      <use xlink:href="#DejaVuSans-72" transform="translate(571.646484 0)"/>
      <use xlink:href="#DejaVuSans-65" transform="translate(610.509766 0)"/>
      <use xlink:href="#DejaVuSans-64" transform="translate(672.033203 0)"/>
      <use xlink:href="#DejaVuSans-20" transform="translate(735.509766 0)"/>
      <use xlink:href="#DejaVuSans-6f" transform="translate(767.296875 0)"/>
      <use xlink:href="#DejaVuSans-70" transform="translate(828.478516 0)"/>
      <use xlink:href="#DejaVuSans-74" transform="translate(891.955078 0)"/>
      <use xlink:href="#DejaVuSans-69" transform="translate(931.164062 0)"/>
      <use xlink:href="#DejaVuSans-6d" transform="translate(958.947266 0)"/>
      <use xlink:href="#DejaVuSans-69" transform="translate(1056.359375 0)"/>
      <use xlink:href="#DejaVuSans-7a" transform="translate(1084.142578 0)"/>
      <use xlink:href="#DejaVuSans-65" transform="translate(1136.632812 0)"/>
      <use xlink:href="#DejaVuSans-72" transform="translate(1198.15625 0)"/>
      <use xlink:href="#DejaVuSans-20" transform="translate(1239.269531 0)"/>
      <use xlink:href="#DejaVuSans-72" transform="translate(1271.056641 0)"/>
      <use xlink:href="#DejaVuSans-75" transform="translate(1312.169922 0)"/>
      <use xlink:href="#DejaVuSans-6e" transform="translate(1375.548828 0)"/>
      <use xlink:href="#DejaVuSans-29" transform="translate(1438.927734 0)"/>
     </g>
    </g>
   </g>
   <g id="matplotlib.axis_2">
    <g id="ytick_1">
     <g id="line2d_7">
      <defs>
       <path id="m4a76e505d9" d="M 0 0 
L -3.5 0 
" style="stroke: #000000; stroke-width: 0.8"/>
      </defs>
      <g>
       <use xlink:href="#m4a76e505d9" x="76.11399" y="310.08481" style="stroke: #000000; stroke-width: 0.8"/>
      </g>
     </g>
     <g id="text_8">
      <!-- $\mathdefault{10^{0}}$ -->
      <g transform="translate(51.51399 313.884029) scale(0.1 -0.1)">
       <use xlink:href="#DejaVuSans-31" transform="translate(0 0.765625)"/>
       <use xlink:href="#DejaVuSans-30" transform="translate(63.623047 0.765625)"/>
       <use xlink:href="#DejaVuSans-30" transform="translate(128.203125 39.046875) scale(0.7)"/>
      </g>
     </g>
    </g>
    <g id="ytick_2">
     <g id="line2d_8">
      <defs>
       <path id="m9460c9ee35" d="M 0 0 
L -2 0 
" style="stroke: #000000; stroke-width: 0.6"/>
      </defs>
      <g>
       <use xlink:href="#m9460c9ee35" x="76.11399" y="266.608002" style="stroke: #000000; stroke-width: 0.6"/>
      </g>
     </g>
     <g id="text_9">
      <!-- $\mathdefault{1.02\times10^{0}}$ -->
      <g transform="translate(18.61399 270.40722) scale(0.1 -0.1)">
       <defs>
        <path id="DejaVuSans-2e" d="M 684 794 
L 1344 794 
L 1344 0 
L 684 0 
L 684 794 
z
" transform="scale(0.015625)"/>
        <path id="DejaVuSans-d7" d="M 4488 3438 
L 3059 2003 
L 4488 575 
L 4116 197 
L 2681 1631 
L 1247 197 
L 878 575 
L 2303 2003 
L 878 3438 
L 1247 3816 
L 2681 2381 
L 4116 3816 
L 4488 3438 
z
" transform="scale(0.015625)"/>
       </defs>
       <use xlink:href="#DejaVuSans-31" transform="translate(0 0.765625)"/>
       <use xlink:href="#DejaVuSans-2e" transform="translate(63.623047 0.765625)"/>
       <use xlink:href="#DejaVuSans-30" transform="translate(95.410156 0.765625)"/>
       <use xlink:href="#DejaVuSans-32" transform="translate(159.033203 0.765625)"/>
       <use xlink:href="#DejaVuSans-d7" transform="translate(242.138672 0.765625)"/>
       <use xlink:href="#DejaVuSans-31" transform="translate(345.410156 0.765625)"/>
       <use xlink:href="#DejaVuSans-30" transform="translate(409.033203 0.765625)"/>
       <use xlink:href="#DejaVuSans-30" transform="translate(473.613281 39.046875) scale(0.7)"/>
      </g>
     </g>
    </g>
    <g id="ytick_3">
     <g id="line2d_9">
      <g>
       <use xlink:href="#m9460c9ee35" x="76.11399" y="223.975457" style="stroke: #000000; stroke-width: 0.6"/>
      </g>
     </g>
     <g id="text_10">
      <!-- $\mathdefault{1.04\times10^{0}}$ -->
      <g transform="translate(18.61399 227.774675) scale(0.1 -0.1)">
       <use xlink:href="#DejaVuSans-31" transform="translate(0 0.765625)"/>
       <use xlink:href="#DejaVuSans-2e" transform="translate(63.623047 0.765625)"/>
       <use xlink:href="#DejaVuSans-30" transform="translate(95.410156 0.765625)"/>
       <use xlink:href="#DejaVuSans-34" transform="translate(159.033203 0.765625)"/>
       <use xlink:href="#DejaVuSans-d7" transform="translate(242.138672 0.765625)"/>
       <use xlink:href="#DejaVuSans-31" transform="translate(345.410156 0.765625)"/>
       <use xlink:href="#DejaVuSans-30" transform="translate(409.033203 0.765625)"/>
       <use xlink:href="#DejaVuSans-30" transform="translate(473.613281 39.046875) scale(0.7)"/>
      </g>
     </g>
    </g>
    <g id="ytick_4">
     <g id="line2d_10">
      <g>
       <use xlink:href="#m9460c9ee35" x="76.11399" y="182.15501" style="stroke: #000000; stroke-width: 0.6"/>
      </g>
     </g>
     <g id="text_11">
      <!-- $\mathdefault{1.06\times10^{0}}$ -->
      <g transform="translate(18.61399 185.954228) scale(0.1 -0.1)">
       <use xlink:href="#DejaVuSans-31" transform="translate(0 0.765625)"/>
       <use xlink:href="#DejaVuSans-2e" transform="translate(63.623047 0.765625)"/>
       <use xlink:href="#DejaVuSans-30" transform="translate(95.410156 0.765625)"/>
       <use xlink:href="#DejaVuSans-36" transform="translate(159.033203 0.765625)"/>
       <use xlink:href="#DejaVuSans-d7" transform="translate(242.138672 0.765625)"/>
       <use xlink:href="#DejaVuSans-31" transform="translate(345.410156 0.765625)"/>
       <use xlink:href="#DejaVuSans-30" transform="translate(409.033203 0.765625)"/>
       <use xlink:href="#DejaVuSans-30" transform="translate(473.613281 39.046875) scale(0.7)"/>
      </g>
     </g>
    </g>
    <g id="ytick_5">
     <g id="line2d_11">
      <g>
       <use xlink:href="#m9460c9ee35" x="76.11399" y="141.116299" style="stroke: #000000; stroke-width: 0.6"/>
      </g>
     </g>
     <g id="text_12">
      <!-- $\mathdefault{1.08\times10^{0}}$ -->
      <g transform="translate(18.61399 144.915518) scale(0.1 -0.1)">
       <use xlink:href="#DejaVuSans-31" transform="translate(0 0.765625)"/>
       <use xlink:href="#DejaVuSans-2e" transform="translate(63.623047 0.765625)"/>
       <use xlink:href="#DejaVuSans-30" transform="translate(95.410156 0.765625)"/>
       <use xlink:href="#DejaVuSans-38" transform="translate(159.033203 0.765625)"/>
       <use xlink:href="#DejaVuSans-d7" transform="translate(242.138672 0.765625)"/>
       <use xlink:href="#DejaVuSans-31" transform="translate(345.410156 0.765625)"/>
       <use xlink:href="#DejaVuSans-30" transform="translate(409.033203 0.765625)"/>
       <use xlink:href="#DejaVuSans-30" transform="translate(473.613281 39.046875) scale(0.7)"/>
      </g>
     </g>
    </g>
    <g id="ytick_6">
     <g id="line2d_12">
      <g>
       <use xlink:href="#m9460c9ee35" x="76.11399" y="100.830635" style="stroke: #000000; stroke-width: 0.6"/>
      </g>
     </g>
     <g id="text_13">
      <!-- $\mathdefault{1.1\times10^{0}}$ -->
      <g transform="translate(24.91399 104.629854) scale(0.1 -0.1)">
       <use xlink:href="#DejaVuSans-31" transform="translate(0 0.765625)"/>
       <use xlink:href="#DejaVuSans-2e" transform="translate(63.623047 0.765625)"/>
       <use xlink:href="#DejaVuSans-31" transform="translate(95.410156 0.765625)"/>
       <use xlink:href="#DejaVuSans-d7" transform="translate(178.515625 0.765625)"/>
       <use xlink:href="#DejaVuSans-31" transform="translate(281.787109 0.765625)"/>
       <use xlink:href="#DejaVuSans-30" transform="translate(345.410156 0.765625)"/>
       <use xlink:href="#DejaVuSans-30" transform="translate(409.990234 39.046875) scale(0.7)"/>
      </g>
     </g>
    </g>
    <g id="ytick_7">
     <g id="line2d_13">
      <g>
       <use xlink:href="#m9460c9ee35" x="76.11399" y="61.270879" style="stroke: #000000; stroke-width: 0.6"/>
      </g>
     </g>
     <g id="text_14">
      <!-- $\mathdefault{1.12\times10^{0}}$ -->
      <g transform="translate(18.61399 65.070097) scale(0.1 -0.1)">
       <use xlink:href="#DejaVuSans-31" transform="translate(0 0.765625)"/>
       <use xlink:href="#DejaVuSans-2e" transform="translate(63.623047 0.765625)"/>
       <use xlink:href="#DejaVuSans-31" transform="translate(95.410156 0.765625)"/>
       <use xlink:href="#DejaVuSans-32" transform="translate(159.033203 0.765625)"/>
       <use xlink:href="#DejaVuSans-d7" transform="translate(242.138672 0.765625)"/>
       <use xlink:href="#DejaVuSans-31" transform="translate(345.410156 0.765625)"/>
       <use xlink:href="#DejaVuSans-30" transform="translate(409.033203 0.765625)"/>
       <use xlink:href="#DejaVuSans-30" transform="translate(473.613281 39.046875) scale(0.7)"/>
      </g>
     </g>
    </g>
    <g id="ytick_8">
     <g id="line2d_14">
      <g>
       <use xlink:href="#m9460c9ee35" x="76.11399" y="22.411332" style="stroke: #000000; stroke-width: 0.6"/>
      </g>
     </g>
     <g id="text_15">
      <!-- $\mathdefault{1.14\times10^{0}}$ -->
      <g transform="translate(18.61399 26.21055) scale(0.1 -0.1)">
       <use xlink:href="#DejaVuSans-31" transform="translate(0 0.765625)"/>
       <use xlink:href="#DejaVuSans-2e" transform="translate(63.623047 0.765625)"/>
       <use xlink:href="#DejaVuSans-31" transform="translate(95.410156 0.765625)"/>
       <use xlink:href="#DejaVuSans-34" transform="translate(159.033203 0.765625)"/>
       <use xlink:href="#DejaVuSans-d7" transform="translate(242.138672 0.765625)"/>
       <use xlink:href="#DejaVuSans-31" transform="translate(345.410156 0.765625)"/>
       <use xlink:href="#DejaVuSans-30" transform="translate(409.033203 0.765625)"/>
       <use xlink:href="#DejaVuSans-30" transform="translate(473.613281 39.046875) scale(0.7)"/>
      </g>
     </g>
    </g>
    <g id="text_16">
     <!-- Offset cost value (relative to best start) -->
     <g transform="translate(12.118365 282.536875) rotate(-90) scale(0.12 -0.12)">
      <defs>
       <path id="DejaVuSans-4f" d="M 2522 4238 
Q 1834 4238 1429 3725 
Q 1025 3213 1025 2328 
Q 1025 1447 1429 934 
Q 1834 422 2522 422 
Q 3209 422 3611 934 
Q 4013 1447 4013 2328 
Q 4013 3213 3611 3725 
Q 3209 4238 2522 4238 
z
M 2522 4750 
Q 3503 4750 4090 4092 
Q 4678 3434 4678 2328 
Q 4678 1225 4090 567 
Q 3503 -91 2522 -91 
Q 1538 -91 948 565 
Q 359 1222 359 2328 
Q 359 3434 948 4092 
Q 1538 4750 2522 4750 
z
" transform="scale(0.015625)"/>
       <path id="DejaVuSans-66" d="M 2375 4863 
L 2375 4384 
L 1825 4384 
Q 1516 4384 1395 4259 
Q 1275 4134 1275 3809 
L 1275 3500 
L 2222 3500 
L 2222 3053 
L 1275 3053 
L 1275 0 
L 697 0 
L 697 3053 
L 147 3053 
L 147 3500 
L 697 3500 
L 697 3744 
Q 697 4328 969 4595 
Q 1241 4863 1831 4863 
L 2375 4863 
z
" transform="scale(0.015625)"/>
       <path id="DejaVuSans-73" d="M 2834 3397 
L 2834 2853 
Q 2591 2978 2328 3040 
Q 2066 3103 1784 3103 
Q 1356 3103 1142 2972 
Q 928 2841 928 2578 
Q 928 2378 1081 2264 
Q 1234 2150 1697 2047 
L 1894 2003 
Q 2506 1872 2764 1633 
Q 3022 1394 3022 966 
Q 3022 478 2636 193 
Q 2250 -91 1575 -91 
Q 1294 -91 989 -36 
Q 684 19 347 128 
L 347 722 
Q 666 556 975 473 
Q 1284 391 1588 391 
Q 1994 391 2212 530 
Q 2431 669 2431 922 
Q 2431 1156 2273 1281 
Q 2116 1406 1581 1522 
L 1381 1569 
Q 847 1681 609 1914 
Q 372 2147 372 2553 
Q 372 3047 722 3315 
Q 1072 3584 1716 3584 
Q 2034 3584 2315 3537 
Q 2597 3491 2834 3397 
z
" transform="scale(0.015625)"/>
       <path id="DejaVuSans-63" d="M 3122 3366 
L 3122 2828 
Q 2878 2963 2633 3030 
Q 2388 3097 2138 3097 
Q 1578 3097 1268 2742 
Q 959 2388 959 1747 
Q 959 1106 1268 751 
Q 1578 397 2138 397 
Q 2388 397 2633 464 
Q 2878 531 3122 666 
L 3122 134 
Q 2881 22 2623 -34 
Q 2366 -91 2075 -91 
Q 1284 -91 818 406 
Q 353 903 353 1747 
Q 353 2603 823 3093 
Q 1294 3584 2113 3584 
Q 2378 3584 2631 3529 
Q 2884 3475 3122 3366 
z
" transform="scale(0.015625)"/>
       <path id="DejaVuSans-76" d="M 191 3500 
L 800 3500 
L 1894 563 
L 2988 3500 
L 3597 3500 
L 2284 0 
L 1503 0 
L 191 3500 
z
" transform="scale(0.015625)"/>
       <path id="DejaVuSans-61" d="M 2194 1759 
Q 1497 1759 1228 1600 
Q 959 1441 959 1056 
Q 959 750 1161 570 
Q 1363 391 1709 391 
Q 2188 391 2477 730 
Q 2766 1069 2766 1631 
L 2766 1759 
L 2194 1759 
z
M 3341 1997 
L 3341 0 
L 2766 0 
L 2766 531 
Q 2569 213 2275 61 
Q 1981 -91 1556 -91 
Q 1019 -91 701 211 
Q 384 513 384 1019 
Q 384 1609 779 1909 
Q 1175 2209 1959 2209 
L 2766 2209 
L 2766 2266 
Q 2766 2663 2505 2880 
Q 2244 3097 1772 3097 
Q 1472 3097 1187 3025 
Q 903 2953 641 2809 
L 641 3341 
Q 956 3463 1253 3523 
Q 1550 3584 1831 3584 
Q 2591 3584 2966 3190 
Q 3341 2797 3341 1997 
z
" transform="scale(0.015625)"/>
       <path id="DejaVuSans-6c" d="M 603 4863 
L 1178 4863 
L 1178 0 
L 603 0 
L 603 4863 
z
" transform="scale(0.015625)"/>
       <path id="DejaVuSans-62" d="M 3116 1747 
Q 3116 2381 2855 2742 
Q 2594 3103 2138 3103 
Q 1681 3103 1420 2742 
Q 1159 2381 1159 1747 
Q 1159 1113 1420 752 
Q 1681 391 2138 391 
Q 2594 391 2855 752 
Q 3116 1113 3116 1747 
z
M 1159 2969 
Q 1341 3281 1617 3432 
Q 1894 3584 2278 3584 
Q 2916 3584 3314 3078 
Q 3713 2572 3713 1747 
Q 3713 922 3314 415 
Q 2916 -91 2278 -91 
Q 1894 -91 1617 61 
Q 1341 213 1159 525 
L 1159 0 
L 581 0 
L 581 4863 
L 1159 4863 
L 1159 2969 
z
" transform="scale(0.015625)"/>
      </defs>
      <use xlink:href="#DejaVuSans-4f"/>
      <use xlink:href="#DejaVuSans-66" transform="translate(78.710938 0)"/>
      <use xlink:href="#DejaVuSans-66" transform="translate(113.916016 0)"/>
      <use xlink:href="#DejaVuSans-73" transform="translate(149.121094 0)"/>
      <use xlink:href="#DejaVuSans-65" transform="translate(201.220703 0)"/>
      <use xlink:href="#DejaVuSans-74" transform="translate(262.744141 0)"/>
      <use xlink:href="#DejaVuSans-20" transform="translate(301.953125 0)"/>
      <use xlink:href="#DejaVuSans-63" transform="translate(333.740234 0)"/>
      <use xlink:href="#DejaVuSans-6f" transform="translate(388.720703 0)"/>
      <use xlink:href="#DejaVuSans-73" transform="translate(449.902344 0)"/>
      <use xlink:href="#DejaVuSans-74" transform="translate(502.001953 0)"/>
      <use xlink:href="#DejaVuSans-20" transform="translate(541.210938 0)"/>
      <use xlink:href="#DejaVuSans-76" transform="translate(572.998047 0)"/>
      <use xlink:href="#DejaVuSans-61" transform="translate(632.177734 0)"/>
      <use xlink:href="#DejaVuSans-6c" transform="translate(693.457031 0)"/>
      <use xlink:href="#DejaVuSans-75" transform="translate(721.240234 0)"/>
      <use xlink:href="#DejaVuSans-65" transform="translate(784.619141 0)"/>
      <use xlink:href="#DejaVuSans-20" transform="translate(846.142578 0)"/>
      <use xlink:href="#DejaVuSans-28" transform="translate(877.929688 0)"/>
      <use xlink:href="#DejaVuSans-72" transform="translate(916.943359 0)"/>
      <use xlink:href="#DejaVuSans-65" transform="translate(955.806641 0)"/>
      <use xlink:href="#DejaVuSans-6c" transform="translate(1017.330078 0)"/>
      <use xlink:href="#DejaVuSans-61" transform="translate(1045.113281 0)"/>
      <use xlink:href="#DejaVuSans-74" transform="translate(1106.392578 0)"/>
      <use xlink:href="#DejaVuSans-69" transform="translate(1145.601562 0)"/>
      <use xlink:href="#DejaVuSans-76" transform="translate(1173.384766 0)"/>
      <use xlink:href="#DejaVuSans-65" transform="translate(1232.564453 0)"/>
      <use xlink:href="#DejaVuSans-20" transform="translate(1294.087891 0)"/>
      <use xlink:href="#DejaVuSans-74" transform="translate(1325.875 0)"/>
      <use xlink:href="#DejaVuSans-6f" transform="translate(1365.083984 0)"/>
      <use xlink:href="#DejaVuSans-20" transform="translate(1426.265625 0)"/>
      <use xlink:href="#DejaVuSans-62" transform="translate(1458.052734 0)"/>
      <use xlink:href="#DejaVuSans-65" transform="translate(1521.529297 0)"/>
      <use xlink:href="#DejaVuSans-73" transform="translate(1583.052734 0)"/>
      <use xlink:href="#DejaVuSans-74" transform="translate(1635.152344 0)"/>
      <use xlink:href="#DejaVuSans-20" transform="translate(1674.361328 0)"/>
      <use xlink:href="#DejaVuSans-73" transform="translate(1706.148438 0)"/>
      <use xlink:href="#DejaVuSans-74" transform="translate(1758.248047 0)"/>
      <use xlink:href="#DejaVuSans-61" transform="translate(1797.457031 0)"/>
      <use xlink:href="#DejaVuSans-72" transform="translate(1858.736328 0)"/>
      <use xlink:href="#DejaVuSans-74" transform="translate(1899.849609 0)"/>
      <use xlink:href="#DejaVuSans-29" transform="translate(1939.058594 0)"/>
     </g>
    </g>
   </g>
   <g id="line2d_15">
    <path d="M 88.881525 310.08481 
L 91.460825 291.955435 
L 94.040125 277.44799 
L 96.619425 274.656216 
L 99.198725 273.463644 
L 101.778025 270.032638 
L 104.357325 269.291511 
L 106.936625 268.221831 
L 109.515925 267.732014 
L 112.095225 265.894511 
L 114.674525 260.009025 
L 117.253825 259.930769 
L 119.833125 259.499233 
L 122.412425 259.392976 
L 124.991725 258.874673 
L 127.571025 258.779174 
L 130.150325 258.657648 
L 132.729625 258.626715 
L 135.308925 258.038627 
L 137.888225 257.874321 
L 140.467525 257.738208 
L 143.046825 257.222835 
L 145.626125 256.754096 
L 148.205425 256.220284 
L 150.784725 255.367458 
L 153.364025 255.016095 
L 155.943325 254.974224 
L 158.522625 254.906451 
L 161.101925 254.896882 
L 163.681225 254.868425 
L 166.260525 254.725201 
L 168.839825 254.524264 
L 171.419125 253.984534 
L 173.998425 253.940907 
L 176.577725 253.784747 
L 179.157025 253.712406 
L 181.736325 253.702498 
L 184.315625 253.594854 
L 186.894925 253.546231 
L 189.474225 253.51389 
L 192.053525 253.512036 
L 194.632825 253.458217 
L 197.212125 253.436397 
L 199.791425 253.410644 
L 202.370725 253.382923 
L 204.950025 253.374994 
L 207.529325 253.365335 
L 210.108625 253.359693 
L 212.687925 253.350043 
L 215.267225 253.349176 
L 217.846525 253.348151 
L 220.425825 253.326741 
L 223.005125 253.304314 
L 225.584425 253.28172 
L 228.163725 253.278731 
L 230.743025 253.256917 
L 233.322325 253.222963 
L 235.901625 253.216088 
L 238.480925 253.21421 
L 241.060225 253.207963 
L 243.639525 253.206146 
L 246.218825 253.199465 
L 248.798125 253.19585 
L 251.377425 253.195481 
L 253.956725 253.194876 
L 256.536025 253.176181 
L 259.115325 253.169562 
L 261.694625 253.164478 
L 264.273925 253.126308 
L 266.853225 253.119524 
L 269.432525 253.108816 
L 272.011825 253.096995 
L 274.591125 253.096081 
L 277.170425 253.088015 
L 279.749725 253.079421 
L 282.329025 253.077227 
L 284.908325 253.076309 
L 287.487625 253.07505 
L 290.066925 253.075036 
L 292.646225 253.075033 
L 295.225525 253.075028 
L 297.804825 253.075009 
L 300.384125 253.075001 
L 302.963425 253.074989 
L 305.542725 253.074968 
L 308.122025 253.074933 
L 310.701325 253.074913 
L 313.280625 253.074886 
L 315.859925 253.074876 
L 318.439225 253.074852 
L 321.018525 253.074834 
L 323.597825 253.074721 
L 326.177125 253.074708 
L 328.756425 253.074662 
L 331.335725 253.074656 
L 333.915025 253.074623 
L 336.494325 253.07079 
L 339.073625 253.067707 
L 341.652925 253.040872 
L 344.232225 17.623315 
" clip-path="url(#p8f85c481ae)" style="fill: none; stroke: #000000; stroke-width: 1.5; stroke-linecap: square"/>
    <defs>
     <path id="m68e1a9d54f" d="M 0 3 
C 0.795609 3 1.55874 2.683901 2.12132 2.12132 
C 2.683901 1.55874 3 0.795609 3 0 
C 3 -0.795609 2.683901 -1.55874 2.12132 -2.12132 
C 1.55874 -2.683901 0.795609 -3 0 -3 
C -0.795609 -3 -1.55874 -2.683901 -2.12132 -2.12132 
C -2.683901 -1.55874 -3 -0.795609 -3 0 
C -3 0.795609 -2.683901 1.55874 -2.12132 2.12132 
C -1.55874 2.683901 -0.795609 3 0 3 
z
" style="stroke: #000000"/>
    </defs>
    <g clip-path="url(#p8f85c481ae)">
     <use xlink:href="#m68e1a9d54f" x="88.881525" y="310.08481" style="stroke: #000000"/>
     <use xlink:href="#m68e1a9d54f" x="91.460825" y="291.955435" style="stroke: #000000"/>
     <use xlink:href="#m68e1a9d54f" x="94.040125" y="277.44799" style="stroke: #000000"/>
     <use xlink:href="#m68e1a9d54f" x="96.619425" y="274.656216" style="stroke: #000000"/>
     <use xlink:href="#m68e1a9d54f" x="99.198725" y="273.463644" style="stroke: #000000"/>
     <use xlink:href="#m68e1a9d54f" x="101.778025" y="270.032638" style="stroke: #000000"/>
     <use xlink:href="#m68e1a9d54f" x="104.357325" y="269.291511" style="stroke: #000000"/>
     <use xlink:href="#m68e1a9d54f" x="106.936625" y="268.221831" style="stroke: #000000"/>
     <use xlink:href="#m68e1a9d54f" x="109.515925" y="267.732014" style="stroke: #000000"/>
     <use xlink:href="#m68e1a9d54f" x="112.095225" y="265.894511" style="stroke: #000000"/>
     <use xlink:href="#m68e1a9d54f" x="114.674525" y="260.009025" style="stroke: #000000"/>
     <use xlink:href="#m68e1a9d54f" x="117.253825" y="259.930769" style="stroke: #000000"/>
     <use xlink:href="#m68e1a9d54f" x="119.833125" y="259.499233" style="stroke: #000000"/>
     <use xlink:href="#m68e1a9d54f" x="122.412425" y="259.392976" style="stroke: #000000"/>
     <use xlink:href="#m68e1a9d54f" x="124.991725" y="258.874673" style="stroke: #000000"/>
     <use xlink:href="#m68e1a9d54f" x="127.571025" y="258.779174" style="stroke: #000000"/>
     <use xlink:href="#m68e1a9d54f" x="130.150325" y="258.657648" style="stroke: #000000"/>
     <use xlink:href="#m68e1a9d54f" x="132.729625" y="258.626715" style="stroke: #000000"/>
     <use xlink:href="#m68e1a9d54f" x="135.308925" y="258.038627" style="stroke: #000000"/>
     <use xlink:href="#m68e1a9d54f" x="137.888225" y="257.874321" style="stroke: #000000"/>
     <use xlink:href="#m68e1a9d54f" x="140.467525" y="257.738208" style="stroke: #000000"/>
     <use xlink:href="#m68e1a9d54f" x="143.046825" y="257.222835" style="stroke: #000000"/>
     <use xlink:href="#m68e1a9d54f" x="145.626125" y="256.754096" style="stroke: #000000"/>
     <use xlink:href="#m68e1a9d54f" x="148.205425" y="256.220284" style="stroke: #000000"/>
     <use xlink:href="#m68e1a9d54f" x="150.784725" y="255.367458" style="stroke: #000000"/>
     <use xlink:href="#m68e1a9d54f" x="153.364025" y="255.016095" style="stroke: #000000"/>
     <use xlink:href="#m68e1a9d54f" x="155.943325" y="254.974224" style="stroke: #000000"/>
     <use xlink:href="#m68e1a9d54f" x="158.522625" y="254.906451" style="stroke: #000000"/>
     <use xlink:href="#m68e1a9d54f" x="161.101925" y="254.896882" style="stroke: #000000"/>
     <use xlink:href="#m68e1a9d54f" x="163.681225" y="254.868425" style="stroke: #000000"/>
     <use xlink:href="#m68e1a9d54f" x="166.260525" y="254.725201" style="stroke: #000000"/>
     <use xlink:href="#m68e1a9d54f" x="168.839825" y="254.524264" style="stroke: #000000"/>
     <use xlink:href="#m68e1a9d54f" x="171.419125" y="253.984534" style="stroke: #000000"/>
     <use xlink:href="#m68e1a9d54f" x="173.998425" y="253.940907" style="stroke: #000000"/>
     <use xlink:href="#m68e1a9d54f" x="176.577725" y="253.784747" style="stroke: #000000"/>
     <use xlink:href="#m68e1a9d54f" x="179.157025" y="253.712406" style="stroke: #000000"/>
     <use xlink:href="#m68e1a9d54f" x="181.736325" y="253.702498" style="stroke: #000000"/>
     <use xlink:href="#m68e1a9d54f" x="184.315625" y="253.594854" style="stroke: #000000"/>
     <use xlink:href="#m68e1a9d54f" x="186.894925" y="253.546231" style="stroke: #000000"/>
     <use xlink:href="#m68e1a9d54f" x="189.474225" y="253.51389" style="stroke: #000000"/>
     <use xlink:href="#m68e1a9d54f" x="192.053525" y="253.512036" style="stroke: #000000"/>
     <use xlink:href="#m68e1a9d54f" x="194.632825" y="253.458217" style="stroke: #000000"/>
     <use xlink:href="#m68e1a9d54f" x="197.212125" y="253.436397" style="stroke: #000000"/>
     <use xlink:href="#m68e1a9d54f" x="199.791425" y="253.410644" style="stroke: #000000"/>
     <use xlink:href="#m68e1a9d54f" x="202.370725" y="253.382923" style="stroke: #000000"/>
     <use xlink:href="#m68e1a9d54f" x="204.950025" y="253.374994" style="stroke: #000000"/>
     <use xlink:href="#m68e1a9d54f" x="207.529325" y="253.365335" style="stroke: #000000"/>
     <use xlink:href="#m68e1a9d54f" x="210.108625" y="253.359693" style="stroke: #000000"/>
     <use xlink:href="#m68e1a9d54f" x="212.687925" y="253.350043" style="stroke: #000000"/>
     <use xlink:href="#m68e1a9d54f" x="215.267225" y="253.349176" style="stroke: #000000"/>
     <use xlink:href="#m68e1a9d54f" x="217.846525" y="253.348151" style="stroke: #000000"/>
     <use xlink:href="#m68e1a9d54f" x="220.425825" y="253.326741" style="stroke: #000000"/>
     <use xlink:href="#m68e1a9d54f" x="223.005125" y="253.304314" style="stroke: #000000"/>
     <use xlink:href="#m68e1a9d54f" x="225.584425" y="253.28172" style="stroke: #000000"/>
     <use xlink:href="#m68e1a9d54f" x="228.163725" y="253.278731" style="stroke: #000000"/>
     <use xlink:href="#m68e1a9d54f" x="230.743025" y="253.256917" style="stroke: #000000"/>
     <use xlink:href="#m68e1a9d54f" x="233.322325" y="253.222963" style="stroke: #000000"/>
     <use xlink:href="#m68e1a9d54f" x="235.901625" y="253.216088" style="stroke: #000000"/>
     <use xlink:href="#m68e1a9d54f" x="238.480925" y="253.21421" style="stroke: #000000"/>
     <use xlink:href="#m68e1a9d54f" x="241.060225" y="253.207963" style="stroke: #000000"/>
     <use xlink:href="#m68e1a9d54f" x="243.639525" y="253.206146" style="stroke: #000000"/>
     <use xlink:href="#m68e1a9d54f" x="246.218825" y="253.199465" style="stroke: #000000"/>
     <use xlink:href="#m68e1a9d54f" x="248.798125" y="253.19585" style="stroke: #000000"/>
     <use xlink:href="#m68e1a9d54f" x="251.377425" y="253.195481" style="stroke: #000000"/>
     <use xlink:href="#m68e1a9d54f" x="253.956725" y="253.194876" style="stroke: #000000"/>
     <use xlink:href="#m68e1a9d54f" x="256.536025" y="253.176181" style="stroke: #000000"/>
     <use xlink:href="#m68e1a9d54f" x="259.115325" y="253.169562" style="stroke: #000000"/>
     <use xlink:href="#m68e1a9d54f" x="261.694625" y="253.164478" style="stroke: #000000"/>
     <use xlink:href="#m68e1a9d54f" x="264.273925" y="253.126308" style="stroke: #000000"/>
     <use xlink:href="#m68e1a9d54f" x="266.853225" y="253.119524" style="stroke: #000000"/>
     <use xlink:href="#m68e1a9d54f" x="269.432525" y="253.108816" style="stroke: #000000"/>
     <use xlink:href="#m68e1a9d54f" x="272.011825" y="253.096995" style="stroke: #000000"/>
     <use xlink:href="#m68e1a9d54f" x="274.591125" y="253.096081" style="stroke: #000000"/>
     <use xlink:href="#m68e1a9d54f" x="277.170425" y="253.088015" style="stroke: #000000"/>
     <use xlink:href="#m68e1a9d54f" x="279.749725" y="253.079421" style="stroke: #000000"/>
     <use xlink:href="#m68e1a9d54f" x="282.329025" y="253.077227" style="stroke: #000000"/>
     <use xlink:href="#m68e1a9d54f" x="284.908325" y="253.076309" style="stroke: #000000"/>
     <use xlink:href="#m68e1a9d54f" x="287.487625" y="253.07505" style="stroke: #000000"/>
     <use xlink:href="#m68e1a9d54f" x="290.066925" y="253.075036" style="stroke: #000000"/>
     <use xlink:href="#m68e1a9d54f" x="292.646225" y="253.075033" style="stroke: #000000"/>
     <use xlink:href="#m68e1a9d54f" x="295.225525" y="253.075028" style="stroke: #000000"/>
     <use xlink:href="#m68e1a9d54f" x="297.804825" y="253.075009" style="stroke: #000000"/>
     <use xlink:href="#m68e1a9d54f" x="300.384125" y="253.075001" style="stroke: #000000"/>
     <use xlink:href="#m68e1a9d54f" x="302.963425" y="253.074989" style="stroke: #000000"/>
     <use xlink:href="#m68e1a9d54f" x="305.542725" y="253.074968" style="stroke: #000000"/>
     <use xlink:href="#m68e1a9d54f" x="308.122025" y="253.074933" style="stroke: #000000"/>
     <use xlink:href="#m68e1a9d54f" x="310.701325" y="253.074913" style="stroke: #000000"/>
     <use xlink:href="#m68e1a9d54f" x="313.280625" y="253.074886" style="stroke: #000000"/>
     <use xlink:href="#m68e1a9d54f" x="315.859925" y="253.074876" style="stroke: #000000"/>
     <use xlink:href="#m68e1a9d54f" x="318.439225" y="253.074852" style="stroke: #000000"/>
     <use xlink:href="#m68e1a9d54f" x="321.018525" y="253.074834" style="stroke: #000000"/>
     <use xlink:href="#m68e1a9d54f" x="323.597825" y="253.074721" style="stroke: #000000"/>
     <use xlink:href="#m68e1a9d54f" x="326.177125" y="253.074708" style="stroke: #000000"/>
     <use xlink:href="#m68e1a9d54f" x="328.756425" y="253.074662" style="stroke: #000000"/>
     <use xlink:href="#m68e1a9d54f" x="331.335725" y="253.074656" style="stroke: #000000"/>
     <use xlink:href="#m68e1a9d54f" x="333.915025" y="253.074623" style="stroke: #000000"/>
     <use xlink:href="#m68e1a9d54f" x="336.494325" y="253.07079" style="stroke: #000000"/>
     <use xlink:href="#m68e1a9d54f" x="339.073625" y="253.067707" style="stroke: #000000"/>
     <use xlink:href="#m68e1a9d54f" x="341.652925" y="253.040872" style="stroke: #000000"/>
     <use xlink:href="#m68e1a9d54f" x="344.232225" y="17.623315" style="stroke: #000000"/>
    </g>
   </g>
   <g id="patch_3">
    <path d="M 76.11399 324.707885 
L 76.11399 3.00024 
" style="fill: none; stroke: #000000; stroke-width: 0.8; stroke-linejoin: miter; stroke-linecap: square"/>
   </g>
   <g id="patch_4">
    <path d="M 356.99976 324.707885 
L 356.99976 3.00024 
" style="fill: none; stroke: #000000; stroke-width: 0.8; stroke-linejoin: miter; stroke-linecap: square"/>
   </g>
   <g id="patch_5">
    <path d="M 76.11399 324.707885 
L 356.99976 324.707885 
" style="fill: none; stroke: #000000; stroke-width: 0.8; stroke-linejoin: miter; stroke-linecap: square"/>
   </g>
   <g id="patch_6">
    <path d="M 76.11399 3.00024 
L 356.99976 3.00024 
" style="fill: none; stroke: #000000; stroke-width: 0.8; stroke-linejoin: miter; stroke-linecap: square"/>
   </g>
  </g>
 </g>
 <defs>
  <clipPath id="p8f85c481ae">
   <rect x="76.11399" y="3.00024" width="280.88577" height="321.707645"/>
  </clipPath>
 </defs>
</svg>
