<?xml version="1.0" encoding="utf-8" standalone="no"?>
<!DOCTYPE svg PUBLIC "-//W3C//DTD SVG 1.1//EN"
  "http://www.w3.org/Graphics/SVG/1.1/DTD/svg11.dtd">
<svg xmlns:xlink="http://www.w3.org/1999/xlink" width="471.595625pt" height="683.737812pt" viewBox="0 0 471.595625 683.737812" xmlns="http://www.w3.org/2000/svg" version="1.1">
 <metadata>
  <rdf:RDF xmlns:dc="http://purl.org/dc/elements/1.1/" xmlns:cc="http://creativecommons.org/ns#" xmlns:rdf="http://www.w3.org/1999/02/22-rdf-syntax-ns#">
   <cc:Work>
    <dc:type rdf:resource="http://purl.org/dc/dcmitype/StillImage"/>
    <dc:date>2025-10-07T16:18:10.741360</dc:date>
    <dc:format>image/svg+xml</dc:format>
    <dc:creator>
     <cc:Agent>
      <dc:title>Matplotlib v3.10.6, https://matplotlib.org/</dc:title>
     </cc:Agent>
    </dc:creator>
   </cc:Work>
  </rdf:RDF>
 </metadata>
 <defs>
  <style type="text/css">*{stroke-linejoin: round; stroke-linecap: butt}</style>
 </defs>
 <g id="figure_1">
  <g id="patch_1">
   <path d="M 0 683.737812 
L 471.595625 683.737812 
L 471.595625 0 
L 0 0 
z
" style="fill: #ffffff"/>
  </g>
  <g id="axes_1">
   <g id="patch_2">
    <path d="M 73.795625 320.243478 
L 464.395625 320.243478 
L 464.395625 79.2 
L 73.795625 79.2 
z
" style="fill: #ffffff"/>
   </g>
   <g id="matplotlib.axis_1">
    <g id="xtick_1">
     <g id="line2d_1">
      <defs>
       <path id="m421ec52323" d="M 0 0 
L 0 3.5 
" style="stroke: #000000; stroke-width: 0.8"/>
      </defs>
      <g>
       <use xlink:href="#m421ec52323" x="91.55017" y="320.243478" style="stroke: #000000; stroke-width: 0.8"/>
      </g>
     </g>
     <g id="text_1">
      <!-- 0 -->
      <g transform="translate(86.778295 338.641135) scale(0.15 -0.15)">
       <defs>
        <path id="DejaVuSans-30" d="M 2034 4250 
Q 1547 4250 1301 3770 
Q 1056 3291 1056 2328 
Q 1056 1369 1301 889 
Q 1547 409 2034 409 
Q 2525 409 2770 889 
Q 3016 1369 3016 2328 
Q 3016 3291 2770 3770 
Q 2525 4250 2034 4250 
z
M 2034 4750 
Q 2819 4750 3233 4129 
Q 3647 3509 3647 2328 
Q 3647 1150 3233 529 
Q 2819 -91 2034 -91 
Q 1250 -91 836 529 
Q 422 1150 422 2328 
Q 422 3509 836 4129 
Q 1250 4750 2034 4750 
z
" transform="scale(0.015625)"/>
       </defs>
       <use xlink:href="#DejaVuSans-30"/>
      </g>
     </g>
    </g>
    <g id="xtick_2">
     <g id="line2d_2">
      <g>
       <use xlink:href="#m421ec52323" x="147.033125" y="320.243478" style="stroke: #000000; stroke-width: 0.8"/>
      </g>
     </g>
     <g id="text_2">
      <!-- 5 -->
      <g transform="translate(142.26125 338.641135) scale(0.15 -0.15)">
       <defs>
        <path id="DejaVuSans-35" d="M 691 4666 
L 3169 4666 
L 3169 4134 
L 1269 4134 
L 1269 2991 
Q 1406 3038 1543 3061 
Q 1681 3084 1819 3084 
Q 2600 3084 3056 2656 
Q 3513 2228 3513 1497 
Q 3513 744 3044 326 
Q 2575 -91 1722 -91 
Q 1428 -91 1123 -41 
Q 819 9 494 109 
L 494 744 
Q 775 591 1075 516 
Q 1375 441 1709 441 
Q 2250 441 2565 725 
Q 2881 1009 2881 1497 
Q 2881 1984 2565 2268 
Q 2250 2553 1709 2553 
Q 1456 2553 1204 2497 
Q 953 2441 691 2322 
L 691 4666 
z
" transform="scale(0.015625)"/>
       </defs>
       <use xlink:href="#DejaVuSans-35"/>
      </g>
     </g>
    </g>
    <g id="xtick_3">
     <g id="line2d_3">
      <g>
       <use xlink:href="#m421ec52323" x="202.51608" y="320.243478" style="stroke: #000000; stroke-width: 0.8"/>
      </g>
     </g>
     <g id="text_3">
      <!-- 10 -->
      <g transform="translate(192.97233 338.641135) scale(0.15 -0.15)">
       <defs>
        <path id="DejaVuSans-31" d="M 794 531 
L 1825 531 
L 1825 4091 
L 703 3866 
L 703 4441 
L 1819 4666 
L 2450 4666 
L 2450 531 
L 3481 531 
L 3481 0 
L 794 0 
L 794 531 
z
" transform="scale(0.015625)"/>
       </defs>
       <use xlink:href="#DejaVuSans-31"/>
       <use xlink:href="#DejaVuSans-30" transform="translate(63.623047 0)"/>
      </g>
     </g>
    </g>
    <g id="xtick_4">
     <g id="line2d_4">
      <g>
       <use xlink:href="#m421ec52323" x="257.999034" y="320.243478" style="stroke: #000000; stroke-width: 0.8"/>
      </g>
     </g>
     <g id="text_4">
      <!-- 15 -->
      <g transform="translate(248.455284 338.641135) scale(0.15 -0.15)">
       <use xlink:href="#DejaVuSans-31"/>
       <use xlink:href="#DejaVuSans-35" transform="translate(63.623047 0)"/>
      </g>
     </g>
    </g>
    <g id="xtick_5">
     <g id="line2d_5">
      <g>
       <use xlink:href="#m421ec52323" x="313.481989" y="320.243478" style="stroke: #000000; stroke-width: 0.8"/>
      </g>
     </g>
     <g id="text_5">
      <!-- 20 -->
      <g transform="translate(303.938239 338.641135) scale(0.15 -0.15)">
       <defs>
        <path id="DejaVuSans-32" d="M 1228 531 
L 3431 531 
L 3431 0 
L 469 0 
L 469 531 
Q 828 903 1448 1529 
Q 2069 2156 2228 2338 
Q 2531 2678 2651 2914 
Q 2772 3150 2772 3378 
Q 2772 3750 2511 3984 
Q 2250 4219 1831 4219 
Q 1534 4219 1204 4116 
Q 875 4013 500 3803 
L 500 4441 
Q 881 4594 1212 4672 
Q 1544 4750 1819 4750 
Q 2544 4750 2975 4387 
Q 3406 4025 3406 3419 
Q 3406 3131 3298 2873 
Q 3191 2616 2906 2266 
Q 2828 2175 2409 1742 
Q 1991 1309 1228 531 
z
" transform="scale(0.015625)"/>
       </defs>
       <use xlink:href="#DejaVuSans-32"/>
       <use xlink:href="#DejaVuSans-30" transform="translate(63.623047 0)"/>
      </g>
     </g>
    </g>
    <g id="xtick_6">
     <g id="line2d_6">
      <g>
       <use xlink:href="#m421ec52323" x="368.964943" y="320.243478" style="stroke: #000000; stroke-width: 0.8"/>
      </g>
     </g>
     <g id="text_6">
      <!-- 25 -->
      <g transform="translate(359.421193 338.641135) scale(0.15 -0.15)">
       <use xlink:href="#DejaVuSans-32"/>
       <use xlink:href="#DejaVuSans-35" transform="translate(63.623047 0)"/>
      </g>
     </g>
    </g>
    <g id="xtick_7">
     <g id="line2d_7">
      <g>
       <use xlink:href="#m421ec52323" x="424.447898" y="320.243478" style="stroke: #000000; stroke-width: 0.8"/>
      </g>
     </g>
     <g id="text_7">
      <!-- 30 -->
      <g transform="translate(414.904148 338.641135) scale(0.15 -0.15)">
       <defs>
        <path id="DejaVuSans-33" d="M 2597 2516 
Q 3050 2419 3304 2112 
Q 3559 1806 3559 1356 
Q 3559 666 3084 287 
Q 2609 -91 1734 -91 
Q 1441 -91 1130 -33 
Q 819 25 488 141 
L 488 750 
Q 750 597 1062 519 
Q 1375 441 1716 441 
Q 2309 441 2620 675 
Q 2931 909 2931 1356 
Q 2931 1769 2642 2001 
Q 2353 2234 1838 2234 
L 1294 2234 
L 1294 2753 
L 1863 2753 
Q 2328 2753 2575 2939 
Q 2822 3125 2822 3475 
Q 2822 3834 2567 4026 
Q 2313 4219 1838 4219 
Q 1578 4219 1281 4162 
Q 984 4106 628 3988 
L 628 4550 
Q 988 4650 1302 4700 
Q 1616 4750 1894 4750 
Q 2613 4750 3031 4423 
Q 3450 4097 3450 3541 
Q 3450 3153 3228 2886 
Q 3006 2619 2597 2516 
z
" transform="scale(0.015625)"/>
       </defs>
       <use xlink:href="#DejaVuSans-33"/>
       <use xlink:href="#DejaVuSans-30" transform="translate(63.623047 0)"/>
      </g>
     </g>
    </g>
    <g id="text_8">
     <!-- Time [hr] -->
     <g transform="translate(222.183125 359.437853) scale(0.18 -0.18)">
      <defs>
       <path id="DejaVuSans-Bold-54" d="M 31 4666 
L 4331 4666 
L 4331 3756 
L 2784 3756 
L 2784 0 
L 1581 0 
L 1581 3756 
L 31 3756 
L 31 4666 
z
" transform="scale(0.015625)"/>
       <path id="DejaVuSans-Bold-69" d="M 538 3500 
L 1656 3500 
L 1656 0 
L 538 0 
L 538 3500 
z
M 538 4863 
L 1656 4863 
L 1656 3950 
L 538 3950 
L 538 4863 
z
" transform="scale(0.015625)"/>
       <path id="DejaVuSans-Bold-6d" d="M 3781 2919 
Q 3994 3244 4286 3414 
Q 4578 3584 4928 3584 
Q 5531 3584 5847 3212 
Q 6163 2841 6163 2131 
L 6163 0 
L 5038 0 
L 5038 1825 
Q 5041 1866 5042 1909 
Q 5044 1953 5044 2034 
Q 5044 2406 4934 2573 
Q 4825 2741 4581 2741 
Q 4263 2741 4089 2478 
Q 3916 2216 3909 1719 
L 3909 0 
L 2784 0 
L 2784 1825 
Q 2784 2406 2684 2573 
Q 2584 2741 2328 2741 
Q 2006 2741 1831 2477 
Q 1656 2213 1656 1722 
L 1656 0 
L 531 0 
L 531 3500 
L 1656 3500 
L 1656 2988 
Q 1863 3284 2130 3434 
Q 2397 3584 2719 3584 
Q 3081 3584 3359 3409 
Q 3638 3234 3781 2919 
z
" transform="scale(0.015625)"/>
       <path id="DejaVuSans-Bold-65" d="M 4031 1759 
L 4031 1441 
L 1416 1441 
Q 1456 1047 1700 850 
Q 1944 653 2381 653 
Q 2734 653 3104 758 
Q 3475 863 3866 1075 
L 3866 213 
Q 3469 63 3072 -14 
Q 2675 -91 2278 -91 
Q 1328 -91 801 392 
Q 275 875 275 1747 
Q 275 2603 792 3093 
Q 1309 3584 2216 3584 
Q 3041 3584 3536 3087 
Q 4031 2591 4031 1759 
z
M 2881 2131 
Q 2881 2450 2695 2645 
Q 2509 2841 2209 2841 
Q 1884 2841 1681 2658 
Q 1478 2475 1428 2131 
L 2881 2131 
z
" transform="scale(0.015625)"/>
       <path id="DejaVuSans-Bold-20" transform="scale(0.015625)"/>
       <path id="DejaVuSans-Bold-5b" d="M 550 4863 
L 2491 4863 
L 2491 4159 
L 1613 4159 
L 1613 -141 
L 2491 -141 
L 2491 -844 
L 550 -844 
L 550 4863 
z
" transform="scale(0.015625)"/>
       <path id="DejaVuSans-Bold-68" d="M 4056 2131 
L 4056 0 
L 2931 0 
L 2931 347 
L 2931 1625 
Q 2931 2084 2911 2256 
Q 2891 2428 2841 2509 
Q 2775 2619 2662 2680 
Q 2550 2741 2406 2741 
Q 2056 2741 1856 2470 
Q 1656 2200 1656 1722 
L 1656 0 
L 538 0 
L 538 4863 
L 1656 4863 
L 1656 2988 
Q 1909 3294 2193 3439 
Q 2478 3584 2822 3584 
Q 3428 3584 3742 3212 
Q 4056 2841 4056 2131 
z
" transform="scale(0.015625)"/>
       <path id="DejaVuSans-Bold-72" d="M 3138 2547 
Q 2991 2616 2845 2648 
Q 2700 2681 2553 2681 
Q 2122 2681 1889 2404 
Q 1656 2128 1656 1613 
L 1656 0 
L 538 0 
L 538 3500 
L 1656 3500 
L 1656 2925 
Q 1872 3269 2151 3426 
Q 2431 3584 2822 3584 
Q 2878 3584 2943 3579 
Q 3009 3575 3134 3559 
L 3138 2547 
z
" transform="scale(0.015625)"/>
       <path id="DejaVuSans-Bold-5d" d="M 2375 -844 
L 434 -844 
L 434 -141 
L 1313 -141 
L 1313 4159 
L 434 4159 
L 434 4863 
L 2375 4863 
L 2375 -844 
z
" transform="scale(0.015625)"/>
      </defs>
      <use xlink:href="#DejaVuSans-Bold-54"/>
      <use xlink:href="#DejaVuSans-Bold-69" transform="translate(68.212891 0)"/>
      <use xlink:href="#DejaVuSans-Bold-6d" transform="translate(102.490234 0)"/>
      <use xlink:href="#DejaVuSans-Bold-65" transform="translate(206.689453 0)"/>
      <use xlink:href="#DejaVuSans-Bold-20" transform="translate(274.511719 0)"/>
      <use xlink:href="#DejaVuSans-Bold-5b" transform="translate(309.326172 0)"/>
      <use xlink:href="#DejaVuSans-Bold-68" transform="translate(355.029297 0)"/>
      <use xlink:href="#DejaVuSans-Bold-72" transform="translate(426.220703 0)"/>
      <use xlink:href="#DejaVuSans-Bold-5d" transform="translate(475.537109 0)"/>
     </g>
    </g>
   </g>
   <g id="matplotlib.axis_2">
    <g id="ytick_1">
     <g id="line2d_8">
      <defs>
       <path id="m98e39c4e5a" d="M 0 0 
L -3.5 0 
" style="stroke: #000000; stroke-width: 0.8"/>
      </defs>
      <g>
       <use xlink:href="#m98e39c4e5a" x="73.795625" y="309.286957" style="stroke: #000000; stroke-width: 0.8"/>
      </g>
     </g>
     <g id="text_9">
      <!-- 0 -->
      <g transform="translate(57.251875 314.985785) scale(0.15 -0.15)">
       <use xlink:href="#DejaVuSans-30"/>
      </g>
     </g>
    </g>
    <g id="ytick_2">
     <g id="line2d_9">
      <g>
       <use xlink:href="#m98e39c4e5a" x="73.795625" y="268.566126" style="stroke: #000000; stroke-width: 0.8"/>
      </g>
     </g>
     <g id="text_10">
      <!-- 500 -->
      <g transform="translate(38.164375 274.264954) scale(0.15 -0.15)">
       <use xlink:href="#DejaVuSans-35"/>
       <use xlink:href="#DejaVuSans-30" transform="translate(63.623047 0)"/>
       <use xlink:href="#DejaVuSans-30" transform="translate(127.246094 0)"/>
      </g>
     </g>
    </g>
    <g id="ytick_3">
     <g id="line2d_10">
      <g>
       <use xlink:href="#m98e39c4e5a" x="73.795625" y="227.845296" style="stroke: #000000; stroke-width: 0.8"/>
      </g>
     </g>
     <g id="text_11">
      <!-- 1000 -->
      <g transform="translate(28.620625 233.544124) scale(0.15 -0.15)">
       <use xlink:href="#DejaVuSans-31"/>
       <use xlink:href="#DejaVuSans-30" transform="translate(63.623047 0)"/>
       <use xlink:href="#DejaVuSans-30" transform="translate(127.246094 0)"/>
       <use xlink:href="#DejaVuSans-30" transform="translate(190.869141 0)"/>
      </g>
     </g>
    </g>
    <g id="ytick_4">
     <g id="line2d_11">
      <g>
       <use xlink:href="#m98e39c4e5a" x="73.795625" y="187.124466" style="stroke: #000000; stroke-width: 0.8"/>
      </g>
     </g>
     <g id="text_12">
      <!-- 1500 -->
      <g transform="translate(28.620625 192.823294) scale(0.15 -0.15)">
       <use xlink:href="#DejaVuSans-31"/>
       <use xlink:href="#DejaVuSans-35" transform="translate(63.623047 0)"/>
       <use xlink:href="#DejaVuSans-30" transform="translate(127.246094 0)"/>
       <use xlink:href="#DejaVuSans-30" transform="translate(190.869141 0)"/>
      </g>
     </g>
    </g>
    <g id="ytick_5">
     <g id="line2d_12">
      <g>
       <use xlink:href="#m98e39c4e5a" x="73.795625" y="146.403636" style="stroke: #000000; stroke-width: 0.8"/>
      </g>
     </g>
     <g id="text_13">
      <!-- 2000 -->
      <g transform="translate(28.620625 152.102464) scale(0.15 -0.15)">
       <use xlink:href="#DejaVuSans-32"/>
       <use xlink:href="#DejaVuSans-30" transform="translate(63.623047 0)"/>
       <use xlink:href="#DejaVuSans-30" transform="translate(127.246094 0)"/>
       <use xlink:href="#DejaVuSans-30" transform="translate(190.869141 0)"/>
      </g>
     </g>
    </g>
    <g id="ytick_6">
     <g id="line2d_13">
      <g>
       <use xlink:href="#m98e39c4e5a" x="73.795625" y="105.682806" style="stroke: #000000; stroke-width: 0.8"/>
      </g>
     </g>
     <g id="text_14">
      <!-- 2500 -->
      <g transform="translate(28.620625 111.381634) scale(0.15 -0.15)">
       <use xlink:href="#DejaVuSans-32"/>
       <use xlink:href="#DejaVuSans-35" transform="translate(63.623047 0)"/>
       <use xlink:href="#DejaVuSans-30" transform="translate(127.246094 0)"/>
       <use xlink:href="#DejaVuSans-30" transform="translate(190.869141 0)"/>
      </g>
     </g>
    </g>
    <g id="text_15">
     <!-- Losartan [nM] -->
     <g transform="translate(20.877188 271.012989) rotate(-90) scale(0.18 -0.18)">
      <defs>
       <path id="DejaVuSans-Bold-4c" d="M 588 4666 
L 1791 4666 
L 1791 909 
L 3903 909 
L 3903 0 
L 588 0 
L 588 4666 
z
" transform="scale(0.015625)"/>
       <path id="DejaVuSans-Bold-6f" d="M 2203 2784 
Q 1831 2784 1636 2517 
Q 1441 2250 1441 1747 
Q 1441 1244 1636 976 
Q 1831 709 2203 709 
Q 2569 709 2762 976 
Q 2956 1244 2956 1747 
Q 2956 2250 2762 2517 
Q 2569 2784 2203 2784 
z
M 2203 3584 
Q 3106 3584 3614 3096 
Q 4122 2609 4122 1747 
Q 4122 884 3614 396 
Q 3106 -91 2203 -91 
Q 1297 -91 786 396 
Q 275 884 275 1747 
Q 275 2609 786 3096 
Q 1297 3584 2203 3584 
z
" transform="scale(0.015625)"/>
       <path id="DejaVuSans-Bold-73" d="M 3272 3391 
L 3272 2541 
Q 2913 2691 2578 2766 
Q 2244 2841 1947 2841 
Q 1628 2841 1473 2761 
Q 1319 2681 1319 2516 
Q 1319 2381 1436 2309 
Q 1553 2238 1856 2203 
L 2053 2175 
Q 2913 2066 3209 1816 
Q 3506 1566 3506 1031 
Q 3506 472 3093 190 
Q 2681 -91 1863 -91 
Q 1516 -91 1145 -36 
Q 775 19 384 128 
L 384 978 
Q 719 816 1070 734 
Q 1422 653 1784 653 
Q 2113 653 2278 743 
Q 2444 834 2444 1013 
Q 2444 1163 2330 1236 
Q 2216 1309 1875 1350 
L 1678 1375 
Q 931 1469 631 1722 
Q 331 1975 331 2491 
Q 331 3047 712 3315 
Q 1094 3584 1881 3584 
Q 2191 3584 2531 3537 
Q 2872 3491 3272 3391 
z
" transform="scale(0.015625)"/>
       <path id="DejaVuSans-Bold-61" d="M 2106 1575 
Q 1756 1575 1579 1456 
Q 1403 1338 1403 1106 
Q 1403 894 1545 773 
Q 1688 653 1941 653 
Q 2256 653 2472 879 
Q 2688 1106 2688 1447 
L 2688 1575 
L 2106 1575 
z
M 3816 1997 
L 3816 0 
L 2688 0 
L 2688 519 
Q 2463 200 2181 54 
Q 1900 -91 1497 -91 
Q 953 -91 614 226 
Q 275 544 275 1050 
Q 275 1666 698 1953 
Q 1122 2241 2028 2241 
L 2688 2241 
L 2688 2328 
Q 2688 2594 2478 2717 
Q 2269 2841 1825 2841 
Q 1466 2841 1156 2769 
Q 847 2697 581 2553 
L 581 3406 
Q 941 3494 1303 3539 
Q 1666 3584 2028 3584 
Q 2975 3584 3395 3211 
Q 3816 2838 3816 1997 
z
" transform="scale(0.015625)"/>
       <path id="DejaVuSans-Bold-74" d="M 1759 4494 
L 1759 3500 
L 2913 3500 
L 2913 2700 
L 1759 2700 
L 1759 1216 
Q 1759 972 1856 886 
Q 1953 800 2241 800 
L 2816 800 
L 2816 0 
L 1856 0 
Q 1194 0 917 276 
Q 641 553 641 1216 
L 641 2700 
L 84 2700 
L 84 3500 
L 641 3500 
L 641 4494 
L 1759 4494 
z
" transform="scale(0.015625)"/>
       <path id="DejaVuSans-Bold-6e" d="M 4056 2131 
L 4056 0 
L 2931 0 
L 2931 347 
L 2931 1631 
Q 2931 2084 2911 2256 
Q 2891 2428 2841 2509 
Q 2775 2619 2662 2680 
Q 2550 2741 2406 2741 
Q 2056 2741 1856 2470 
Q 1656 2200 1656 1722 
L 1656 0 
L 538 0 
L 538 3500 
L 1656 3500 
L 1656 2988 
Q 1909 3294 2193 3439 
Q 2478 3584 2822 3584 
Q 3428 3584 3742 3212 
Q 4056 2841 4056 2131 
z
" transform="scale(0.015625)"/>
       <path id="DejaVuSans-Bold-4d" d="M 588 4666 
L 2119 4666 
L 3181 2169 
L 4250 4666 
L 5778 4666 
L 5778 0 
L 4641 0 
L 4641 3413 
L 3566 897 
L 2803 897 
L 1728 3413 
L 1728 0 
L 588 0 
L 588 4666 
z
" transform="scale(0.015625)"/>
      </defs>
      <use xlink:href="#DejaVuSans-Bold-4c"/>
      <use xlink:href="#DejaVuSans-Bold-6f" transform="translate(63.720703 0)"/>
      <use xlink:href="#DejaVuSans-Bold-73" transform="translate(132.421875 0)"/>
      <use xlink:href="#DejaVuSans-Bold-61" transform="translate(191.943359 0)"/>
      <use xlink:href="#DejaVuSans-Bold-72" transform="translate(259.423828 0)"/>
      <use xlink:href="#DejaVuSans-Bold-74" transform="translate(308.740234 0)"/>
      <use xlink:href="#DejaVuSans-Bold-61" transform="translate(356.542969 0)"/>
      <use xlink:href="#DejaVuSans-Bold-6e" transform="translate(424.023438 0)"/>
      <use xlink:href="#DejaVuSans-Bold-20" transform="translate(495.214844 0)"/>
      <use xlink:href="#DejaVuSans-Bold-5b" transform="translate(530.029297 0)"/>
      <use xlink:href="#DejaVuSans-Bold-6e" transform="translate(575.732422 0)"/>
      <use xlink:href="#DejaVuSans-Bold-4d" transform="translate(646.923828 0)"/>
      <use xlink:href="#DejaVuSans-Bold-5d" transform="translate(746.435547 0)"/>
     </g>
    </g>
   </g>
   <g id="line2d_14">
    <path d="M 91.55017 309.286957 
L 446.64108 309.286957 
L 446.64108 309.286957 
" clip-path="url(#p35d048bff6)" style="fill: none; stroke: #000000; stroke-width: 2; stroke-linecap: square"/>
   </g>
   <g id="line2d_15">
    <path d="M 91.55017 309.286957 
L 92.260352 309.154224 
L 92.970534 308.50179 
L 93.680716 307.302347 
L 95.10108 303.888128 
L 97.231625 298.463623 
L 98.651989 295.655415 
L 99.36217 294.590915 
L 100.072352 293.755136 
L 100.782534 293.137279 
L 101.492716 292.720623 
L 102.202898 292.485031 
L 102.91308 292.40882 
L 103.623261 292.470101 
L 105.043625 292.921764 
L 106.463989 293.688421 
L 108.594534 295.167991 
L 114.275989 299.373412 
L 117.116716 301.138299 
L 119.957443 302.589574 
L 122.79817 303.747858 
L 125.638898 304.655089 
L 129.189807 305.505942 
L 132.740716 306.117548 
L 137.001807 306.627181 
L 142.683261 307.058363 
L 150.495261 307.391435 
L 162.568352 307.649182 
L 188.84508 307.930343 
L 254.891989 308.380873 
L 343.664716 308.758862 
L 446.64108 309.004639 
L 446.64108 309.004639 
" clip-path="url(#p35d048bff6)" style="fill: none; stroke: #ff7f0e; stroke-width: 2; stroke-linecap: square"/>
   </g>
   <g id="line2d_16">
    <path d="M 91.55017 309.286957 
L 94.324318 308.411351 
L 97.098466 299.541184 
L 102.646761 295.471502 
L 113.743352 302.142199 
L 124.839943 305.210121 
L 135.936534 307.08315 
L 158.129716 307.42402 
L 202.51608 308.93584 
" clip-path="url(#p35d048bff6)" style="fill: none; stroke-dasharray: 3.7,1.6; stroke-dashoffset: 0; stroke: #ff7f0e"/>
    <defs>
     <path id="m2fd2165e21" d="M -3 3 
L 3 3 
L 3 -3 
L -3 -3 
z
" style="stroke: #000000; stroke-linejoin: miter"/>
    </defs>
    <g clip-path="url(#p35d048bff6)">
     <use xlink:href="#m2fd2165e21" x="91.55017" y="309.286957" style="fill: #ff7f0e; stroke: #000000; stroke-linejoin: miter"/>
     <use xlink:href="#m2fd2165e21" x="94.324318" y="308.411351" style="fill: #ff7f0e; stroke: #000000; stroke-linejoin: miter"/>
     <use xlink:href="#m2fd2165e21" x="97.098466" y="299.541184" style="fill: #ff7f0e; stroke: #000000; stroke-linejoin: miter"/>
     <use xlink:href="#m2fd2165e21" x="102.646761" y="295.471502" style="fill: #ff7f0e; stroke: #000000; stroke-linejoin: miter"/>
     <use xlink:href="#m2fd2165e21" x="113.743352" y="302.142199" style="fill: #ff7f0e; stroke: #000000; stroke-linejoin: miter"/>
     <use xlink:href="#m2fd2165e21" x="124.839943" y="305.210121" style="fill: #ff7f0e; stroke: #000000; stroke-linejoin: miter"/>
     <use xlink:href="#m2fd2165e21" x="135.936534" y="307.08315" style="fill: #ff7f0e; stroke: #000000; stroke-linejoin: miter"/>
     <use xlink:href="#m2fd2165e21" x="158.129716" y="307.42402" style="fill: #ff7f0e; stroke: #000000; stroke-linejoin: miter"/>
     <use xlink:href="#m2fd2165e21" x="202.51608" y="308.93584" style="fill: #ff7f0e; stroke: #000000; stroke-linejoin: miter"/>
    </g>
   </g>
   <g id="line2d_17">
    <path d="M 91.55017 309.286957 
L 92.260352 309.021472 
L 92.970534 307.715434 
L 93.680716 305.308115 
L 95.10108 298.396975 
L 97.231625 287.172452 
L 98.651989 281.191747 
L 99.36217 278.878015 
L 100.072352 277.033704 
L 100.782534 275.64508 
L 101.492716 274.684155 
L 102.202898 274.113749 
L 102.91308 273.891478 
L 103.623261 273.972823 
L 104.333443 274.313404 
L 105.043625 274.870596 
L 106.463989 276.479169 
L 107.884352 278.524037 
L 115.696352 290.612358 
L 117.826898 293.22356 
L 119.957443 295.44744 
L 122.087989 297.313331 
L 124.218534 298.862917 
L 126.34908 300.140824 
L 128.479625 301.189751 
L 131.320352 302.298015 
L 134.16108 303.144717 
L 137.711989 303.928765 
L 141.97308 304.585491 
L 146.944352 305.096285 
L 153.335989 305.514877 
L 162.568352 305.881986 
L 178.902534 306.277929 
L 214.411625 306.875138 
L 266.96508 307.535091 
L 329.46108 308.088973 
L 406.160716 308.535534 
L 446.64108 308.699505 
L 446.64108 308.699505 
" clip-path="url(#p35d048bff6)" style="fill: none; stroke: #d62728; stroke-width: 2; stroke-linecap: square"/>
   </g>
   <g id="line2d_18">
    <path d="M 91.55017 309.286957 
L 94.324318 308.724505 
L 97.098466 286.354512 
L 102.646761 276.618015 
L 113.743352 296.395839 
L 124.839943 301.289862 
L 135.936534 305.027211 
L 158.129716 307.261562 
" clip-path="url(#p35d048bff6)" style="fill: none; stroke-dasharray: 3.7,1.6; stroke-dashoffset: 0; stroke: #d62728"/>
    <defs>
     <path id="mbe21619c05" d="M -3 3 
L 3 3 
L 3 -3 
L -3 -3 
z
" style="stroke: #000000; stroke-linejoin: miter"/>
    </defs>
    <g clip-path="url(#p35d048bff6)">
     <use xlink:href="#mbe21619c05" x="91.55017" y="309.286957" style="fill: #d62728; stroke: #000000; stroke-linejoin: miter"/>
     <use xlink:href="#mbe21619c05" x="94.324318" y="308.724505" style="fill: #d62728; stroke: #000000; stroke-linejoin: miter"/>
     <use xlink:href="#mbe21619c05" x="97.098466" y="286.354512" style="fill: #d62728; stroke: #000000; stroke-linejoin: miter"/>
     <use xlink:href="#mbe21619c05" x="102.646761" y="276.618015" style="fill: #d62728; stroke: #000000; stroke-linejoin: miter"/>
     <use xlink:href="#mbe21619c05" x="113.743352" y="296.395839" style="fill: #d62728; stroke: #000000; stroke-linejoin: miter"/>
     <use xlink:href="#mbe21619c05" x="124.839943" y="301.289862" style="fill: #d62728; stroke: #000000; stroke-linejoin: miter"/>
     <use xlink:href="#mbe21619c05" x="135.936534" y="305.027211" style="fill: #d62728; stroke: #000000; stroke-linejoin: miter"/>
     <use xlink:href="#mbe21619c05" x="158.129716" y="307.261562" style="fill: #d62728; stroke: #000000; stroke-linejoin: miter"/>
    </g>
   </g>
   <g id="line2d_19">
    <path d="M 91.55017 309.286957 
L 92.260352 308.755908 
L 92.970534 306.139188 
L 93.680716 301.291148 
L 94.390898 294.746681 
L 98.651989 249.725769 
L 99.36217 244.323683 
L 100.072352 239.896557 
L 100.782534 236.449105 
L 101.492716 233.949107 
L 102.202898 232.337482 
L 102.91308 231.536995 
L 103.623261 231.459521 
L 104.333443 232.0119 
L 105.043625 233.100477 
L 105.753807 234.634509 
L 107.17417 238.70416 
L 108.594534 243.62563 
L 114.275989 264.309005 
L 116.406534 270.827631 
L 118.53708 276.386503 
L 119.957443 279.580263 
L 121.377807 282.39728 
L 122.79817 284.871576 
L 124.218534 287.038288 
L 126.34908 289.785868 
L 128.479625 292.023744 
L 130.61017 293.844012 
L 132.740716 295.324519 
L 134.871261 296.529961 
L 137.001807 297.513509 
L 139.842534 298.553497 
L 142.683261 299.356012 
L 146.23417 300.116253 
L 150.495261 300.781734 
L 156.176716 301.405388 
L 163.278534 301.946991 
L 174.641443 302.560281 
L 193.816352 303.342105 
L 224.35417 304.354557 
L 260.573443 305.329629 
L 301.053807 306.193052 
L 347.215625 306.950251 
L 400.479261 307.596745 
L 446.64108 308.010431 
L 446.64108 308.010431 
" clip-path="url(#p35d048bff6)" style="fill: none; stroke: #2ca02c; stroke-width: 2; stroke-linecap: square"/>
   </g>
   <g id="line2d_20">
    <path d="M 91.55017 309.286957 
L 94.324318 303.056622 
L 97.098466 173.262495 
L 102.646761 197.575811 
L 113.743352 276.950455 
L 124.839943 294.786757 
L 135.936534 301.448767 
L 158.129716 305.234973 
L 180.322898 307.974125 
" clip-path="url(#p35d048bff6)" style="fill: none; stroke-dasharray: 3.7,1.6; stroke-dashoffset: 0; stroke: #2ca02c"/>
    <defs>
     <path id="m121770150b" d="M -3 3 
L 3 3 
L 3 -3 
L -3 -3 
z
" style="stroke: #000000; stroke-linejoin: miter"/>
    </defs>
    <g clip-path="url(#p35d048bff6)">
     <use xlink:href="#m121770150b" x="91.55017" y="309.286957" style="fill: #2ca02c; stroke: #000000; stroke-linejoin: miter"/>
     <use xlink:href="#m121770150b" x="94.324318" y="303.056622" style="fill: #2ca02c; stroke: #000000; stroke-linejoin: miter"/>
     <use xlink:href="#m121770150b" x="97.098466" y="173.262495" style="fill: #2ca02c; stroke: #000000; stroke-linejoin: miter"/>
     <use xlink:href="#m121770150b" x="102.646761" y="197.575811" style="fill: #2ca02c; stroke: #000000; stroke-linejoin: miter"/>
     <use xlink:href="#m121770150b" x="113.743352" y="276.950455" style="fill: #2ca02c; stroke: #000000; stroke-linejoin: miter"/>
     <use xlink:href="#m121770150b" x="124.839943" y="294.786757" style="fill: #2ca02c; stroke: #000000; stroke-linejoin: miter"/>
     <use xlink:href="#m121770150b" x="135.936534" y="301.448767" style="fill: #2ca02c; stroke: #000000; stroke-linejoin: miter"/>
     <use xlink:href="#m121770150b" x="158.129716" y="305.234973" style="fill: #2ca02c; stroke: #000000; stroke-linejoin: miter"/>
     <use xlink:href="#m121770150b" x="180.322898" y="307.974125" style="fill: #2ca02c; stroke: #000000; stroke-linejoin: miter"/>
    </g>
   </g>
   <g id="line2d_21">
    <path d="M 91.55017 309.286957 
L 92.260352 308.224542 
L 92.970534 302.972788 
L 93.680716 293.146154 
L 94.390898 279.646715 
L 95.811261 246.013983 
L 97.941807 193.171666 
L 99.36217 164.221257 
L 100.072352 152.743928 
L 100.782534 143.438428 
L 101.492716 136.302931 
L 102.202898 131.258588 
L 102.91308 128.171237 
L 103.623261 126.870066 
L 104.333443 127.162894 
L 105.043625 128.848179 
L 105.753807 131.724088 
L 106.463989 135.595082 
L 107.884352 145.597335 
L 110.014898 163.924421 
L 114.275989 201.875131 
L 116.406534 218.286433 
L 117.826898 227.853311 
L 119.247261 236.30945 
L 120.667625 243.711502 
L 122.087989 250.147862 
L 123.508352 255.720732 
L 124.928716 260.534183 
L 126.34908 264.68706 
L 127.769443 268.269388 
L 129.189807 271.361046 
L 130.61017 274.031763 
L 132.030534 276.341816 
L 133.450898 278.343009 
L 135.581443 280.860985 
L 137.711989 282.906046 
L 139.842534 284.575955 
L 141.97308 285.948017 
L 144.103625 287.083413 
L 146.944352 288.311394 
L 149.78508 289.291694 
L 153.335989 290.265546 
L 157.59708 291.179347 
L 162.568352 292.018594 
L 169.67017 292.969647 
L 179.612716 294.048899 
L 194.526534 295.417468 
L 214.411625 297.006131 
L 237.137443 298.591534 
L 261.283625 300.051573 
L 287.560352 301.414934 
L 315.967625 302.663447 
L 347.215625 303.809427 
L 381.304352 304.834748 
L 419.65417 305.760736 
L 446.64108 306.294379 
L 446.64108 306.294379 
" clip-path="url(#p35d048bff6)" style="fill: none; stroke: #1f77b4; stroke-width: 2; stroke-linecap: square"/>
   </g>
   <g id="line2d_22">
    <path d="M 91.55017 309.286957 
L 94.324318 308.267142 
L 97.098466 244.873518 
L 102.646761 90.156522 
L 113.743352 174.012105 
L 124.839943 255.115024 
L 135.936534 290.290598 
L 158.129716 302.223501 
L 180.322898 306.026061 
L 202.51608 308.397512 
L 224.709261 308.916621 
" clip-path="url(#p35d048bff6)" style="fill: none; stroke-dasharray: 3.7,1.6; stroke-dashoffset: 0; stroke: #1f77b4"/>
    <defs>
     <path id="m925d9578a0" d="M -3 3 
L 3 3 
L 3 -3 
L -3 -3 
z
" style="stroke: #000000; stroke-linejoin: miter"/>
    </defs>
    <g clip-path="url(#p35d048bff6)">
     <use xlink:href="#m925d9578a0" x="91.55017" y="309.286957" style="fill: #1f77b4; stroke: #000000; stroke-linejoin: miter"/>
     <use xlink:href="#m925d9578a0" x="94.324318" y="308.267142" style="fill: #1f77b4; stroke: #000000; stroke-linejoin: miter"/>
     <use xlink:href="#m925d9578a0" x="97.098466" y="244.873518" style="fill: #1f77b4; stroke: #000000; stroke-linejoin: miter"/>
     <use xlink:href="#m925d9578a0" x="102.646761" y="90.156522" style="fill: #1f77b4; stroke: #000000; stroke-linejoin: miter"/>
     <use xlink:href="#m925d9578a0" x="113.743352" y="174.012105" style="fill: #1f77b4; stroke: #000000; stroke-linejoin: miter"/>
     <use xlink:href="#m925d9578a0" x="124.839943" y="255.115024" style="fill: #1f77b4; stroke: #000000; stroke-linejoin: miter"/>
     <use xlink:href="#m925d9578a0" x="135.936534" y="290.290598" style="fill: #1f77b4; stroke: #000000; stroke-linejoin: miter"/>
     <use xlink:href="#m925d9578a0" x="158.129716" y="302.223501" style="fill: #1f77b4; stroke: #000000; stroke-linejoin: miter"/>
     <use xlink:href="#m925d9578a0" x="180.322898" y="306.026061" style="fill: #1f77b4; stroke: #000000; stroke-linejoin: miter"/>
     <use xlink:href="#m925d9578a0" x="202.51608" y="308.397512" style="fill: #1f77b4; stroke: #000000; stroke-linejoin: miter"/>
     <use xlink:href="#m925d9578a0" x="224.709261" y="308.916621" style="fill: #1f77b4; stroke: #000000; stroke-linejoin: miter"/>
    </g>
   </g>
   <g id="patch_3">
    <path d="M 73.795625 320.243478 
L 73.795625 79.2 
" style="fill: none; stroke: #000000; stroke-width: 0.8; stroke-linejoin: miter; stroke-linecap: square"/>
   </g>
   <g id="patch_4">
    <path d="M 464.395625 320.243478 
L 464.395625 79.2 
" style="fill: none; stroke: #000000; stroke-width: 0.8; stroke-linejoin: miter; stroke-linecap: square"/>
   </g>
   <g id="patch_5">
    <path d="M 73.795625 320.243478 
L 464.395625 320.243478 
" style="fill: none; stroke: #000000; stroke-width: 0.8; stroke-linejoin: miter; stroke-linecap: square"/>
   </g>
   <g id="patch_6">
    <path d="M 73.795625 79.2 
L 464.395625 79.2 
" style="fill: none; stroke: #000000; stroke-width: 0.8; stroke-linejoin: miter; stroke-linecap: square"/>
   </g>
   <g id="legend_1">
    <g id="patch_7">
     <path d="M 376.863125 191.2825 
L 458.795625 191.2825 
Q 460.395625 191.2825 460.395625 189.6825 
L 460.395625 84.8 
Q 460.395625 83.2 458.795625 83.2 
L 376.863125 83.2 
Q 375.263125 83.2 375.263125 84.8 
L 375.263125 189.6825 
Q 375.263125 191.2825 376.863125 191.2825 
z
" style="fill: #ffffff; opacity: 0.8; stroke: #cccccc; stroke-linejoin: miter"/>
    </g>
    <g id="line2d_23">
     <path d="M 378.463125 89.67875 
L 394.463125 89.67875 
" style="fill: none; stroke: #000000; stroke-width: 2; stroke-linecap: square"/>
    </g>
    <g id="line2d_24"/>
    <g id="text_16">
     <!-- Sim 0 mg -->
     <g transform="translate(400.863125 92.47875) scale(0.08 -0.08)">
      <defs>
       <path id="DejaVuSans-53" d="M 3425 4513 
L 3425 3897 
Q 3066 4069 2747 4153 
Q 2428 4238 2131 4238 
Q 1616 4238 1336 4038 
Q 1056 3838 1056 3469 
Q 1056 3159 1242 3001 
Q 1428 2844 1947 2747 
L 2328 2669 
Q 3034 2534 3370 2195 
Q 3706 1856 3706 1288 
Q 3706 609 3251 259 
Q 2797 -91 1919 -91 
Q 1588 -91 1214 -16 
Q 841 59 441 206 
L 441 856 
Q 825 641 1194 531 
Q 1563 422 1919 422 
Q 2459 422 2753 634 
Q 3047 847 3047 1241 
Q 3047 1584 2836 1778 
Q 2625 1972 2144 2069 
L 1759 2144 
Q 1053 2284 737 2584 
Q 422 2884 422 3419 
Q 422 4038 858 4394 
Q 1294 4750 2059 4750 
Q 2388 4750 2728 4690 
Q 3069 4631 3425 4513 
z
" transform="scale(0.015625)"/>
       <path id="DejaVuSans-69" d="M 603 3500 
L 1178 3500 
L 1178 0 
L 603 0 
L 603 3500 
z
M 603 4863 
L 1178 4863 
L 1178 4134 
L 603 4134 
L 603 4863 
z
" transform="scale(0.015625)"/>
       <path id="DejaVuSans-6d" d="M 3328 2828 
Q 3544 3216 3844 3400 
Q 4144 3584 4550 3584 
Q 5097 3584 5394 3201 
Q 5691 2819 5691 2113 
L 5691 0 
L 5113 0 
L 5113 2094 
Q 5113 2597 4934 2840 
Q 4756 3084 4391 3084 
Q 3944 3084 3684 2787 
Q 3425 2491 3425 1978 
L 3425 0 
L 2847 0 
L 2847 2094 
Q 2847 2600 2669 2842 
Q 2491 3084 2119 3084 
Q 1678 3084 1418 2786 
Q 1159 2488 1159 1978 
L 1159 0 
L 581 0 
L 581 3500 
L 1159 3500 
L 1159 2956 
Q 1356 3278 1631 3431 
Q 1906 3584 2284 3584 
Q 2666 3584 2933 3390 
Q 3200 3197 3328 2828 
z
" transform="scale(0.015625)"/>
       <path id="DejaVuSans-20" transform="scale(0.015625)"/>
       <path id="DejaVuSans-67" d="M 2906 1791 
Q 2906 2416 2648 2759 
Q 2391 3103 1925 3103 
Q 1463 3103 1205 2759 
Q 947 2416 947 1791 
Q 947 1169 1205 825 
Q 1463 481 1925 481 
Q 2391 481 2648 825 
Q 2906 1169 2906 1791 
z
M 3481 434 
Q 3481 -459 3084 -895 
Q 2688 -1331 1869 -1331 
Q 1566 -1331 1297 -1286 
Q 1028 -1241 775 -1147 
L 775 -588 
Q 1028 -725 1275 -790 
Q 1522 -856 1778 -856 
Q 2344 -856 2625 -561 
Q 2906 -266 2906 331 
L 2906 616 
Q 2728 306 2450 153 
Q 2172 0 1784 0 
Q 1141 0 747 490 
Q 353 981 353 1791 
Q 353 2603 747 3093 
Q 1141 3584 1784 3584 
Q 2172 3584 2450 3431 
Q 2728 3278 2906 2969 
L 2906 3500 
L 3481 3500 
L 3481 434 
z
" transform="scale(0.015625)"/>
      </defs>
      <use xlink:href="#DejaVuSans-53"/>
      <use xlink:href="#DejaVuSans-69" transform="translate(63.476562 0)"/>
      <use xlink:href="#DejaVuSans-6d" transform="translate(91.259766 0)"/>
      <use xlink:href="#DejaVuSans-20" transform="translate(188.671875 0)"/>
      <use xlink:href="#DejaVuSans-30" transform="translate(220.458984 0)"/>
      <use xlink:href="#DejaVuSans-20" transform="translate(284.082031 0)"/>
      <use xlink:href="#DejaVuSans-6d" transform="translate(315.869141 0)"/>
      <use xlink:href="#DejaVuSans-67" transform="translate(413.28125 0)"/>
     </g>
    </g>
    <g id="line2d_25">
     <path d="M 378.463125 101.42125 
L 394.463125 101.42125 
" style="fill: none; stroke: #ff7f0e; stroke-width: 2; stroke-linecap: square"/>
    </g>
    <g id="line2d_26"/>
    <g id="text_17">
     <!-- Sim 25 mg -->
     <g transform="translate(400.863125 104.22125) scale(0.08 -0.08)">
      <use xlink:href="#DejaVuSans-53"/>
      <use xlink:href="#DejaVuSans-69" transform="translate(63.476562 0)"/>
      <use xlink:href="#DejaVuSans-6d" transform="translate(91.259766 0)"/>
      <use xlink:href="#DejaVuSans-20" transform="translate(188.671875 0)"/>
      <use xlink:href="#DejaVuSans-32" transform="translate(220.458984 0)"/>
      <use xlink:href="#DejaVuSans-35" transform="translate(284.082031 0)"/>
      <use xlink:href="#DejaVuSans-20" transform="translate(347.705078 0)"/>
      <use xlink:href="#DejaVuSans-6d" transform="translate(379.492188 0)"/>
      <use xlink:href="#DejaVuSans-67" transform="translate(476.904297 0)"/>
     </g>
    </g>
    <g id="line2d_27">
     <path d="M 378.463125 113.16375 
L 394.463125 113.16375 
" style="fill: none; stroke-dasharray: 3.7,1.6; stroke-dashoffset: 0; stroke: #ff7f0e"/>
    </g>
    <g id="line2d_28">
     <g>
      <use xlink:href="#m2fd2165e21" x="386.463125" y="113.16375" style="fill: #ff7f0e; stroke: #000000; stroke-linejoin: miter"/>
     </g>
    </g>
    <g id="text_18">
     <!-- 25 mg (n=6) -->
     <g transform="translate(400.863125 115.96375) scale(0.08 -0.08)">
      <defs>
       <path id="DejaVuSans-28" d="M 1984 4856 
Q 1566 4138 1362 3434 
Q 1159 2731 1159 2009 
Q 1159 1288 1364 580 
Q 1569 -128 1984 -844 
L 1484 -844 
Q 1016 -109 783 600 
Q 550 1309 550 2009 
Q 550 2706 781 3412 
Q 1013 4119 1484 4856 
L 1984 4856 
z
" transform="scale(0.015625)"/>
       <path id="DejaVuSans-6e" d="M 3513 2113 
L 3513 0 
L 2938 0 
L 2938 2094 
Q 2938 2591 2744 2837 
Q 2550 3084 2163 3084 
Q 1697 3084 1428 2787 
Q 1159 2491 1159 1978 
L 1159 0 
L 581 0 
L 581 3500 
L 1159 3500 
L 1159 2956 
Q 1366 3272 1645 3428 
Q 1925 3584 2291 3584 
Q 2894 3584 3203 3211 
Q 3513 2838 3513 2113 
z
" transform="scale(0.015625)"/>
       <path id="DejaVuSans-3d" d="M 678 2906 
L 4684 2906 
L 4684 2381 
L 678 2381 
L 678 2906 
z
M 678 1631 
L 4684 1631 
L 4684 1100 
L 678 1100 
L 678 1631 
z
" transform="scale(0.015625)"/>
       <path id="DejaVuSans-36" d="M 2113 2584 
Q 1688 2584 1439 2293 
Q 1191 2003 1191 1497 
Q 1191 994 1439 701 
Q 1688 409 2113 409 
Q 2538 409 2786 701 
Q 3034 994 3034 1497 
Q 3034 2003 2786 2293 
Q 2538 2584 2113 2584 
z
M 3366 4563 
L 3366 3988 
Q 3128 4100 2886 4159 
Q 2644 4219 2406 4219 
Q 1781 4219 1451 3797 
Q 1122 3375 1075 2522 
Q 1259 2794 1537 2939 
Q 1816 3084 2150 3084 
Q 2853 3084 3261 2657 
Q 3669 2231 3669 1497 
Q 3669 778 3244 343 
Q 2819 -91 2113 -91 
Q 1303 -91 875 529 
Q 447 1150 447 2328 
Q 447 3434 972 4092 
Q 1497 4750 2381 4750 
Q 2619 4750 2861 4703 
Q 3103 4656 3366 4563 
z
" transform="scale(0.015625)"/>
       <path id="DejaVuSans-29" d="M 513 4856 
L 1013 4856 
Q 1481 4119 1714 3412 
Q 1947 2706 1947 2009 
Q 1947 1309 1714 600 
Q 1481 -109 1013 -844 
L 513 -844 
Q 928 -128 1133 580 
Q 1338 1288 1338 2009 
Q 1338 2731 1133 3434 
Q 928 4138 513 4856 
z
" transform="scale(0.015625)"/>
      </defs>
      <use xlink:href="#DejaVuSans-32"/>
      <use xlink:href="#DejaVuSans-35" transform="translate(63.623047 0)"/>
      <use xlink:href="#DejaVuSans-20" transform="translate(127.246094 0)"/>
      <use xlink:href="#DejaVuSans-6d" transform="translate(159.033203 0)"/>
      <use xlink:href="#DejaVuSans-67" transform="translate(256.445312 0)"/>
      <use xlink:href="#DejaVuSans-20" transform="translate(319.921875 0)"/>
      <use xlink:href="#DejaVuSans-28" transform="translate(351.708984 0)"/>
      <use xlink:href="#DejaVuSans-6e" transform="translate(390.722656 0)"/>
      <use xlink:href="#DejaVuSans-3d" transform="translate(454.101562 0)"/>
      <use xlink:href="#DejaVuSans-36" transform="translate(537.890625 0)"/>
      <use xlink:href="#DejaVuSans-29" transform="translate(601.513672 0)"/>
     </g>
    </g>
    <g id="line2d_29">
     <path d="M 378.463125 124.90625 
L 394.463125 124.90625 
" style="fill: none; stroke: #d62728; stroke-width: 2; stroke-linecap: square"/>
    </g>
    <g id="line2d_30"/>
    <g id="text_19">
     <!-- Sim 50 mg -->
     <g transform="translate(400.863125 127.70625) scale(0.08 -0.08)">
      <use xlink:href="#DejaVuSans-53"/>
      <use xlink:href="#DejaVuSans-69" transform="translate(63.476562 0)"/>
      <use xlink:href="#DejaVuSans-6d" transform="translate(91.259766 0)"/>
      <use xlink:href="#DejaVuSans-20" transform="translate(188.671875 0)"/>
      <use xlink:href="#DejaVuSans-35" transform="translate(220.458984 0)"/>
      <use xlink:href="#DejaVuSans-30" transform="translate(284.082031 0)"/>
      <use xlink:href="#DejaVuSans-20" transform="translate(347.705078 0)"/>
      <use xlink:href="#DejaVuSans-6d" transform="translate(379.492188 0)"/>
      <use xlink:href="#DejaVuSans-67" transform="translate(476.904297 0)"/>
     </g>
    </g>
    <g id="line2d_31">
     <path d="M 378.463125 136.64875 
L 394.463125 136.64875 
" style="fill: none; stroke-dasharray: 3.7,1.6; stroke-dashoffset: 0; stroke: #d62728"/>
    </g>
    <g id="line2d_32">
     <g>
      <use xlink:href="#mbe21619c05" x="386.463125" y="136.64875" style="fill: #d62728; stroke: #000000; stroke-linejoin: miter"/>
     </g>
    </g>
    <g id="text_20">
     <!-- 50 mg (n=6) -->
     <g transform="translate(400.863125 139.44875) scale(0.08 -0.08)">
      <use xlink:href="#DejaVuSans-35"/>
      <use xlink:href="#DejaVuSans-30" transform="translate(63.623047 0)"/>
      <use xlink:href="#DejaVuSans-20" transform="translate(127.246094 0)"/>
      <use xlink:href="#DejaVuSans-6d" transform="translate(159.033203 0)"/>
      <use xlink:href="#DejaVuSans-67" transform="translate(256.445312 0)"/>
      <use xlink:href="#DejaVuSans-20" transform="translate(319.921875 0)"/>
      <use xlink:href="#DejaVuSans-28" transform="translate(351.708984 0)"/>
      <use xlink:href="#DejaVuSans-6e" transform="translate(390.722656 0)"/>
      <use xlink:href="#DejaVuSans-3d" transform="translate(454.101562 0)"/>
      <use xlink:href="#DejaVuSans-36" transform="translate(537.890625 0)"/>
      <use xlink:href="#DejaVuSans-29" transform="translate(601.513672 0)"/>
     </g>
    </g>
    <g id="line2d_33">
     <path d="M 378.463125 148.39125 
L 394.463125 148.39125 
" style="fill: none; stroke: #2ca02c; stroke-width: 2; stroke-linecap: square"/>
    </g>
    <g id="line2d_34"/>
    <g id="text_21">
     <!-- Sim 100 mg -->
     <g transform="translate(400.863125 151.19125) scale(0.08 -0.08)">
      <use xlink:href="#DejaVuSans-53"/>
      <use xlink:href="#DejaVuSans-69" transform="translate(63.476562 0)"/>
      <use xlink:href="#DejaVuSans-6d" transform="translate(91.259766 0)"/>
      <use xlink:href="#DejaVuSans-20" transform="translate(188.671875 0)"/>
      <use xlink:href="#DejaVuSans-31" transform="translate(220.458984 0)"/>
      <use xlink:href="#DejaVuSans-30" transform="translate(284.082031 0)"/>
      <use xlink:href="#DejaVuSans-30" transform="translate(347.705078 0)"/>
      <use xlink:href="#DejaVuSans-20" transform="translate(411.328125 0)"/>
      <use xlink:href="#DejaVuSans-6d" transform="translate(443.115234 0)"/>
      <use xlink:href="#DejaVuSans-67" transform="translate(540.527344 0)"/>
     </g>
    </g>
    <g id="line2d_35">
     <path d="M 378.463125 160.13375 
L 394.463125 160.13375 
" style="fill: none; stroke-dasharray: 3.7,1.6; stroke-dashoffset: 0; stroke: #2ca02c"/>
    </g>
    <g id="line2d_36">
     <g>
      <use xlink:href="#m121770150b" x="386.463125" y="160.13375" style="fill: #2ca02c; stroke: #000000; stroke-linejoin: miter"/>
     </g>
    </g>
    <g id="text_22">
     <!-- 100 mg (n=6) -->
     <g transform="translate(400.863125 162.93375) scale(0.08 -0.08)">
      <use xlink:href="#DejaVuSans-31"/>
      <use xlink:href="#DejaVuSans-30" transform="translate(63.623047 0)"/>
      <use xlink:href="#DejaVuSans-30" transform="translate(127.246094 0)"/>
      <use xlink:href="#DejaVuSans-20" transform="translate(190.869141 0)"/>
      <use xlink:href="#DejaVuSans-6d" transform="translate(222.65625 0)"/>
      <use xlink:href="#DejaVuSans-67" transform="translate(320.068359 0)"/>
      <use xlink:href="#DejaVuSans-20" transform="translate(383.544922 0)"/>
      <use xlink:href="#DejaVuSans-28" transform="translate(415.332031 0)"/>
      <use xlink:href="#DejaVuSans-6e" transform="translate(454.345703 0)"/>
      <use xlink:href="#DejaVuSans-3d" transform="translate(517.724609 0)"/>
      <use xlink:href="#DejaVuSans-36" transform="translate(601.513672 0)"/>
      <use xlink:href="#DejaVuSans-29" transform="translate(665.136719 0)"/>
     </g>
    </g>
    <g id="line2d_37">
     <path d="M 378.463125 171.87625 
L 394.463125 171.87625 
" style="fill: none; stroke: #1f77b4; stroke-width: 2; stroke-linecap: square"/>
    </g>
    <g id="line2d_38"/>
    <g id="text_23">
     <!-- Sim 200 mg -->
     <g transform="translate(400.863125 174.67625) scale(0.08 -0.08)">
      <use xlink:href="#DejaVuSans-53"/>
      <use xlink:href="#DejaVuSans-69" transform="translate(63.476562 0)"/>
      <use xlink:href="#DejaVuSans-6d" transform="translate(91.259766 0)"/>
      <use xlink:href="#DejaVuSans-20" transform="translate(188.671875 0)"/>
      <use xlink:href="#DejaVuSans-32" transform="translate(220.458984 0)"/>
      <use xlink:href="#DejaVuSans-30" transform="translate(284.082031 0)"/>
      <use xlink:href="#DejaVuSans-30" transform="translate(347.705078 0)"/>
      <use xlink:href="#DejaVuSans-20" transform="translate(411.328125 0)"/>
      <use xlink:href="#DejaVuSans-6d" transform="translate(443.115234 0)"/>
      <use xlink:href="#DejaVuSans-67" transform="translate(540.527344 0)"/>
     </g>
    </g>
    <g id="line2d_39">
     <path d="M 378.463125 183.61875 
L 394.463125 183.61875 
" style="fill: none; stroke-dasharray: 3.7,1.6; stroke-dashoffset: 0; stroke: #1f77b4"/>
    </g>
    <g id="line2d_40">
     <g>
      <use xlink:href="#m925d9578a0" x="386.463125" y="183.61875" style="fill: #1f77b4; stroke: #000000; stroke-linejoin: miter"/>
     </g>
    </g>
    <g id="text_24">
     <!-- 200 mg (n=6) -->
     <g transform="translate(400.863125 186.41875) scale(0.08 -0.08)">
      <use xlink:href="#DejaVuSans-32"/>
      <use xlink:href="#DejaVuSans-30" transform="translate(63.623047 0)"/>
      <use xlink:href="#DejaVuSans-30" transform="translate(127.246094 0)"/>
      <use xlink:href="#DejaVuSans-20" transform="translate(190.869141 0)"/>
      <use xlink:href="#DejaVuSans-6d" transform="translate(222.65625 0)"/>
      <use xlink:href="#DejaVuSans-67" transform="translate(320.068359 0)"/>
      <use xlink:href="#DejaVuSans-20" transform="translate(383.544922 0)"/>
      <use xlink:href="#DejaVuSans-28" transform="translate(415.332031 0)"/>
      <use xlink:href="#DejaVuSans-6e" transform="translate(454.345703 0)"/>
      <use xlink:href="#DejaVuSans-3d" transform="translate(517.724609 0)"/>
      <use xlink:href="#DejaVuSans-36" transform="translate(601.513672 0)"/>
      <use xlink:href="#DejaVuSans-29" transform="translate(665.136719 0)"/>
     </g>
    </g>
   </g>
  </g>
  <g id="axes_2">
   <g id="patch_8">
    <path d="M 73.795625 633.6 
L 464.395625 633.6 
L 464.395625 392.556522 
L 73.795625 392.556522 
z
" style="fill: #ffffff"/>
   </g>
   <g id="matplotlib.axis_3">
    <g id="xtick_8">
     <g id="line2d_41">
      <g>
       <use xlink:href="#m421ec52323" x="91.55017" y="633.6" style="stroke: #000000; stroke-width: 0.8"/>
      </g>
     </g>
     <g id="text_25">
      <!-- 0 -->
      <g transform="translate(86.778295 651.997656) scale(0.15 -0.15)">
       <use xlink:href="#DejaVuSans-30"/>
      </g>
     </g>
    </g>
    <g id="xtick_9">
     <g id="line2d_42">
      <g>
       <use xlink:href="#m421ec52323" x="147.033125" y="633.6" style="stroke: #000000; stroke-width: 0.8"/>
      </g>
     </g>
     <g id="text_26">
      <!-- 5 -->
      <g transform="translate(142.26125 651.997656) scale(0.15 -0.15)">
       <use xlink:href="#DejaVuSans-35"/>
      </g>
     </g>
    </g>
    <g id="xtick_10">
     <g id="line2d_43">
      <g>
       <use xlink:href="#m421ec52323" x="202.51608" y="633.6" style="stroke: #000000; stroke-width: 0.8"/>
      </g>
     </g>
     <g id="text_27">
      <!-- 10 -->
      <g transform="translate(192.97233 651.997656) scale(0.15 -0.15)">
       <use xlink:href="#DejaVuSans-31"/>
       <use xlink:href="#DejaVuSans-30" transform="translate(63.623047 0)"/>
      </g>
     </g>
    </g>
    <g id="xtick_11">
     <g id="line2d_44">
      <g>
       <use xlink:href="#m421ec52323" x="257.999034" y="633.6" style="stroke: #000000; stroke-width: 0.8"/>
      </g>
     </g>
     <g id="text_28">
      <!-- 15 -->
      <g transform="translate(248.455284 651.997656) scale(0.15 -0.15)">
       <use xlink:href="#DejaVuSans-31"/>
       <use xlink:href="#DejaVuSans-35" transform="translate(63.623047 0)"/>
      </g>
     </g>
    </g>
    <g id="xtick_12">
     <g id="line2d_45">
      <g>
       <use xlink:href="#m421ec52323" x="313.481989" y="633.6" style="stroke: #000000; stroke-width: 0.8"/>
      </g>
     </g>
     <g id="text_29">
      <!-- 20 -->
      <g transform="translate(303.938239 651.997656) scale(0.15 -0.15)">
       <use xlink:href="#DejaVuSans-32"/>
       <use xlink:href="#DejaVuSans-30" transform="translate(63.623047 0)"/>
      </g>
     </g>
    </g>
    <g id="xtick_13">
     <g id="line2d_46">
      <g>
       <use xlink:href="#m421ec52323" x="368.964943" y="633.6" style="stroke: #000000; stroke-width: 0.8"/>
      </g>
     </g>
     <g id="text_30">
      <!-- 25 -->
      <g transform="translate(359.421193 651.997656) scale(0.15 -0.15)">
       <use xlink:href="#DejaVuSans-32"/>
       <use xlink:href="#DejaVuSans-35" transform="translate(63.623047 0)"/>
      </g>
     </g>
    </g>
    <g id="xtick_14">
     <g id="line2d_47">
      <g>
       <use xlink:href="#m421ec52323" x="424.447898" y="633.6" style="stroke: #000000; stroke-width: 0.8"/>
      </g>
     </g>
     <g id="text_31">
      <!-- 30 -->
      <g transform="translate(414.904148 651.997656) scale(0.15 -0.15)">
       <use xlink:href="#DejaVuSans-33"/>
       <use xlink:href="#DejaVuSans-30" transform="translate(63.623047 0)"/>
      </g>
     </g>
    </g>
    <g id="text_32">
     <!-- Time [hr] -->
     <g transform="translate(222.183125 672.794375) scale(0.18 -0.18)">
      <use xlink:href="#DejaVuSans-Bold-54"/>
      <use xlink:href="#DejaVuSans-Bold-69" transform="translate(68.212891 0)"/>
      <use xlink:href="#DejaVuSans-Bold-6d" transform="translate(102.490234 0)"/>
      <use xlink:href="#DejaVuSans-Bold-65" transform="translate(206.689453 0)"/>
      <use xlink:href="#DejaVuSans-Bold-20" transform="translate(274.511719 0)"/>
      <use xlink:href="#DejaVuSans-Bold-5b" transform="translate(309.326172 0)"/>
      <use xlink:href="#DejaVuSans-Bold-68" transform="translate(355.029297 0)"/>
      <use xlink:href="#DejaVuSans-Bold-72" transform="translate(426.220703 0)"/>
      <use xlink:href="#DejaVuSans-Bold-5d" transform="translate(475.537109 0)"/>
     </g>
    </g>
   </g>
   <g id="matplotlib.axis_4">
    <g id="ytick_7">
     <g id="line2d_48">
      <g>
       <use xlink:href="#m98e39c4e5a" x="73.795625" y="622.643478" style="stroke: #000000; stroke-width: 0.8"/>
      </g>
     </g>
     <g id="text_33">
      <!-- 0 -->
      <g transform="translate(57.251875 628.342306) scale(0.15 -0.15)">
       <use xlink:href="#DejaVuSans-30"/>
      </g>
     </g>
    </g>
    <g id="ytick_8">
     <g id="line2d_49">
      <g>
       <use xlink:href="#m98e39c4e5a" x="73.795625" y="577.115094" style="stroke: #000000; stroke-width: 0.8"/>
      </g>
     </g>
     <g id="text_34">
      <!-- 1000 -->
      <g transform="translate(28.620625 582.813922) scale(0.15 -0.15)">
       <use xlink:href="#DejaVuSans-31"/>
       <use xlink:href="#DejaVuSans-30" transform="translate(63.623047 0)"/>
       <use xlink:href="#DejaVuSans-30" transform="translate(127.246094 0)"/>
       <use xlink:href="#DejaVuSans-30" transform="translate(190.869141 0)"/>
      </g>
     </g>
    </g>
    <g id="ytick_9">
     <g id="line2d_50">
      <g>
       <use xlink:href="#m98e39c4e5a" x="73.795625" y="531.58671" style="stroke: #000000; stroke-width: 0.8"/>
      </g>
     </g>
     <g id="text_35">
      <!-- 2000 -->
      <g transform="translate(28.620625 537.285538) scale(0.15 -0.15)">
       <use xlink:href="#DejaVuSans-32"/>
       <use xlink:href="#DejaVuSans-30" transform="translate(63.623047 0)"/>
       <use xlink:href="#DejaVuSans-30" transform="translate(127.246094 0)"/>
       <use xlink:href="#DejaVuSans-30" transform="translate(190.869141 0)"/>
      </g>
     </g>
    </g>
    <g id="ytick_10">
     <g id="line2d_51">
      <g>
       <use xlink:href="#m98e39c4e5a" x="73.795625" y="486.058326" style="stroke: #000000; stroke-width: 0.8"/>
      </g>
     </g>
     <g id="text_36">
      <!-- 3000 -->
      <g transform="translate(28.620625 491.757154) scale(0.15 -0.15)">
       <use xlink:href="#DejaVuSans-33"/>
       <use xlink:href="#DejaVuSans-30" transform="translate(63.623047 0)"/>
       <use xlink:href="#DejaVuSans-30" transform="translate(127.246094 0)"/>
       <use xlink:href="#DejaVuSans-30" transform="translate(190.869141 0)"/>
      </g>
     </g>
    </g>
    <g id="ytick_11">
     <g id="line2d_52">
      <g>
       <use xlink:href="#m98e39c4e5a" x="73.795625" y="440.529942" style="stroke: #000000; stroke-width: 0.8"/>
      </g>
     </g>
     <g id="text_37">
      <!-- 4000 -->
      <g transform="translate(28.620625 446.22877) scale(0.15 -0.15)">
       <defs>
        <path id="DejaVuSans-34" d="M 2419 4116 
L 825 1625 
L 2419 1625 
L 2419 4116 
z
M 2253 4666 
L 3047 4666 
L 3047 1625 
L 3713 1625 
L 3713 1100 
L 3047 1100 
L 3047 0 
L 2419 0 
L 2419 1100 
L 313 1100 
L 313 1709 
L 2253 4666 
z
" transform="scale(0.015625)"/>
       </defs>
       <use xlink:href="#DejaVuSans-34"/>
       <use xlink:href="#DejaVuSans-30" transform="translate(63.623047 0)"/>
       <use xlink:href="#DejaVuSans-30" transform="translate(127.246094 0)"/>
       <use xlink:href="#DejaVuSans-30" transform="translate(190.869141 0)"/>
      </g>
     </g>
    </g>
    <g id="ytick_12">
     <g id="line2d_53">
      <g>
       <use xlink:href="#m98e39c4e5a" x="73.795625" y="395.001557" style="stroke: #000000; stroke-width: 0.8"/>
      </g>
     </g>
     <g id="text_38">
      <!-- 5000 -->
      <g transform="translate(28.620625 400.700386) scale(0.15 -0.15)">
       <use xlink:href="#DejaVuSans-35"/>
       <use xlink:href="#DejaVuSans-30" transform="translate(63.623047 0)"/>
       <use xlink:href="#DejaVuSans-30" transform="translate(127.246094 0)"/>
       <use xlink:href="#DejaVuSans-30" transform="translate(190.869141 0)"/>
      </g>
     </g>
    </g>
    <g id="text_39">
     <!-- E3174 [nM] -->
     <g transform="translate(20.877188 570.99748) rotate(-90) scale(0.18 -0.18)">
      <defs>
       <path id="DejaVuSans-Bold-45" d="M 588 4666 
L 3834 4666 
L 3834 3756 
L 1791 3756 
L 1791 2888 
L 3713 2888 
L 3713 1978 
L 1791 1978 
L 1791 909 
L 3903 909 
L 3903 0 
L 588 0 
L 588 4666 
z
" transform="scale(0.015625)"/>
       <path id="DejaVuSans-Bold-33" d="M 2981 2516 
Q 3453 2394 3698 2092 
Q 3944 1791 3944 1325 
Q 3944 631 3412 270 
Q 2881 -91 1863 -91 
Q 1503 -91 1142 -33 
Q 781 25 428 141 
L 428 1069 
Q 766 900 1098 814 
Q 1431 728 1753 728 
Q 2231 728 2486 893 
Q 2741 1059 2741 1369 
Q 2741 1688 2480 1852 
Q 2219 2016 1709 2016 
L 1228 2016 
L 1228 2791 
L 1734 2791 
Q 2188 2791 2409 2933 
Q 2631 3075 2631 3366 
Q 2631 3634 2415 3781 
Q 2200 3928 1806 3928 
Q 1516 3928 1219 3862 
Q 922 3797 628 3669 
L 628 4550 
Q 984 4650 1334 4700 
Q 1684 4750 2022 4750 
Q 2931 4750 3382 4451 
Q 3834 4153 3834 3553 
Q 3834 3144 3618 2883 
Q 3403 2622 2981 2516 
z
" transform="scale(0.015625)"/>
       <path id="DejaVuSans-Bold-31" d="M 750 831 
L 1813 831 
L 1813 3847 
L 722 3622 
L 722 4441 
L 1806 4666 
L 2950 4666 
L 2950 831 
L 4013 831 
L 4013 0 
L 750 0 
L 750 831 
z
" transform="scale(0.015625)"/>
       <path id="DejaVuSans-Bold-37" d="M 428 4666 
L 3944 4666 
L 3944 3988 
L 2125 0 
L 953 0 
L 2675 3781 
L 428 3781 
L 428 4666 
z
" transform="scale(0.015625)"/>
       <path id="DejaVuSans-Bold-34" d="M 2356 3675 
L 1038 1722 
L 2356 1722 
L 2356 3675 
z
M 2156 4666 
L 3494 4666 
L 3494 1722 
L 4159 1722 
L 4159 850 
L 3494 850 
L 3494 0 
L 2356 0 
L 2356 850 
L 288 850 
L 288 1881 
L 2156 4666 
z
" transform="scale(0.015625)"/>
      </defs>
      <use xlink:href="#DejaVuSans-Bold-45"/>
      <use xlink:href="#DejaVuSans-Bold-33" transform="translate(68.310547 0)"/>
      <use xlink:href="#DejaVuSans-Bold-31" transform="translate(137.890625 0)"/>
      <use xlink:href="#DejaVuSans-Bold-37" transform="translate(207.470703 0)"/>
      <use xlink:href="#DejaVuSans-Bold-34" transform="translate(277.050781 0)"/>
      <use xlink:href="#DejaVuSans-Bold-20" transform="translate(346.630859 0)"/>
      <use xlink:href="#DejaVuSans-Bold-5b" transform="translate(381.445312 0)"/>
      <use xlink:href="#DejaVuSans-Bold-6e" transform="translate(427.148438 0)"/>
      <use xlink:href="#DejaVuSans-Bold-4d" transform="translate(498.339844 0)"/>
      <use xlink:href="#DejaVuSans-Bold-5d" transform="translate(597.851562 0)"/>
     </g>
    </g>
   </g>
   <g id="line2d_54">
    <path d="M 91.55017 622.643478 
L 446.64108 622.643478 
L 446.64108 622.643478 
" clip-path="url(#pcf99cee7b2)" style="fill: none; stroke: #000000; stroke-width: 2; stroke-linecap: square"/>
   </g>
   <g id="line2d_55">
    <path d="M 91.55017 622.643478 
L 94.390898 622.572974 
L 95.811261 622.345901 
L 97.231625 621.892792 
L 98.651989 621.205098 
L 100.782534 619.814322 
L 104.333443 617.022154 
L 107.884352 614.326461 
L 110.014898 612.957876 
L 112.145443 611.828439 
L 114.275989 610.944011 
L 116.406534 610.291498 
L 118.53708 609.847356 
L 121.377807 609.530579 
L 124.218534 609.46658 
L 127.769443 609.648802 
L 132.030534 610.12354 
L 138.42217 611.109424 
L 158.307261 614.357703 
L 167.539625 615.583262 
L 177.48217 616.672362 
L 188.134898 617.61243 
L 200.207989 618.451593 
L 214.411625 619.205746 
L 231.455989 619.87216 
L 252.051261 620.443206 
L 278.327989 620.939128 
L 313.83708 621.37429 
L 364.97017 621.762478 
L 441.669807 622.105068 
L 446.64108 622.121471 
L 446.64108 622.121471 
" clip-path="url(#pcf99cee7b2)" style="fill: none; stroke: #ff7f0e; stroke-width: 2; stroke-linecap: square"/>
   </g>
   <g id="line2d_56">
    <path d="M 91.55017 622.643478 
L 102.646761 621.873977 
L 113.743352 610.34468 
L 124.839943 603.975413 
L 135.936534 603.802006 
L 158.129716 610.308103 
L 180.322898 614.326711 
L 202.51608 616.271561 
L 224.709261 618.593445 
" clip-path="url(#pcf99cee7b2)" style="fill: none; stroke-dasharray: 3.7,1.6; stroke-dashoffset: 0; stroke: #ff7f0e"/>
    <g clip-path="url(#pcf99cee7b2)">
     <use xlink:href="#m2fd2165e21" x="91.55017" y="622.643478" style="fill: #ff7f0e; stroke: #000000; stroke-linejoin: miter"/>
     <use xlink:href="#m2fd2165e21" x="102.646761" y="621.873977" style="fill: #ff7f0e; stroke: #000000; stroke-linejoin: miter"/>
     <use xlink:href="#m2fd2165e21" x="113.743352" y="610.34468" style="fill: #ff7f0e; stroke: #000000; stroke-linejoin: miter"/>
     <use xlink:href="#m2fd2165e21" x="124.839943" y="603.975413" style="fill: #ff7f0e; stroke: #000000; stroke-linejoin: miter"/>
     <use xlink:href="#m2fd2165e21" x="135.936534" y="603.802006" style="fill: #ff7f0e; stroke: #000000; stroke-linejoin: miter"/>
     <use xlink:href="#m2fd2165e21" x="158.129716" y="610.308103" style="fill: #ff7f0e; stroke: #000000; stroke-linejoin: miter"/>
     <use xlink:href="#m2fd2165e21" x="180.322898" y="614.326711" style="fill: #ff7f0e; stroke: #000000; stroke-linejoin: miter"/>
     <use xlink:href="#m2fd2165e21" x="202.51608" y="616.271561" style="fill: #ff7f0e; stroke: #000000; stroke-linejoin: miter"/>
     <use xlink:href="#m2fd2165e21" x="224.709261" y="618.593445" style="fill: #ff7f0e; stroke: #000000; stroke-linejoin: miter"/>
    </g>
   </g>
   <g id="line2d_57">
    <path d="M 91.55017 622.643478 
L 93.680716 622.596773 
L 95.10108 622.331006 
L 96.521443 621.677365 
L 97.941807 620.573312 
L 99.36217 619.053665 
L 100.782534 617.209758 
L 103.623261 612.993659 
L 107.17417 607.719682 
L 109.304716 604.940207 
L 111.435261 602.583376 
L 113.565807 600.683361 
L 114.98617 599.667676 
L 116.406534 598.842553 
L 117.826898 598.195258 
L 119.957443 597.52523 
L 122.087989 597.168998 
L 124.218534 597.07401 
L 126.34908 597.191341 
L 129.189807 597.603449 
L 132.740716 598.410008 
L 137.001807 599.636972 
L 145.523989 602.397891 
L 154.04617 605.079839 
L 161.147989 607.083522 
L 168.249807 608.844401 
L 175.351625 610.372565 
L 183.163625 611.813191 
L 191.685807 613.138395 
L 200.91817 614.333004 
L 210.860716 615.392272 
L 222.223625 616.374675 
L 235.006898 617.255791 
L 249.920716 618.06045 
L 267.675261 618.793853 
L 289.690898 619.472716 
L 317.387989 620.094462 
L 353.607261 620.672873 
L 401.899625 621.207535 
L 446.64108 621.55893 
L 446.64108 621.55893 
" clip-path="url(#pcf99cee7b2)" style="fill: none; stroke: #d62728; stroke-width: 2; stroke-linecap: square"/>
   </g>
   <g id="line2d_58">
    <path d="M 91.55017 622.643478 
L 102.646761 613.570084 
L 113.743352 581.030288 
L 124.839943 579.168577 
L 135.936534 584.21467 
L 158.129716 601.253304 
L 180.322898 610.259378 
L 202.51608 613.916237 
L 224.709261 616.958272 
L 357.868352 622.033579 
" clip-path="url(#pcf99cee7b2)" style="fill: none; stroke-dasharray: 3.7,1.6; stroke-dashoffset: 0; stroke: #d62728"/>
    <g clip-path="url(#pcf99cee7b2)">
     <use xlink:href="#mbe21619c05" x="91.55017" y="622.643478" style="fill: #d62728; stroke: #000000; stroke-linejoin: miter"/>
     <use xlink:href="#mbe21619c05" x="102.646761" y="613.570084" style="fill: #d62728; stroke: #000000; stroke-linejoin: miter"/>
     <use xlink:href="#mbe21619c05" x="113.743352" y="581.030288" style="fill: #d62728; stroke: #000000; stroke-linejoin: miter"/>
     <use xlink:href="#mbe21619c05" x="124.839943" y="579.168577" style="fill: #d62728; stroke: #000000; stroke-linejoin: miter"/>
     <use xlink:href="#mbe21619c05" x="135.936534" y="584.21467" style="fill: #d62728; stroke: #000000; stroke-linejoin: miter"/>
     <use xlink:href="#mbe21619c05" x="158.129716" y="601.253304" style="fill: #d62728; stroke: #000000; stroke-linejoin: miter"/>
     <use xlink:href="#mbe21619c05" x="180.322898" y="610.259378" style="fill: #d62728; stroke: #000000; stroke-linejoin: miter"/>
     <use xlink:href="#mbe21619c05" x="202.51608" y="613.916237" style="fill: #d62728; stroke: #000000; stroke-linejoin: miter"/>
     <use xlink:href="#mbe21619c05" x="224.709261" y="616.958272" style="fill: #d62728; stroke: #000000; stroke-linejoin: miter"/>
     <use xlink:href="#mbe21619c05" x="357.868352" y="622.033579" style="fill: #d62728; stroke: #000000; stroke-linejoin: miter"/>
    </g>
   </g>
   <g id="line2d_59">
    <path d="M 91.55017 622.643478 
L 93.680716 622.551248 
L 94.390898 622.370029 
L 95.10108 622.036473 
L 95.811261 621.51849 
L 96.521443 620.799157 
L 97.231625 619.875429 
L 98.651989 617.454674 
L 100.072352 614.398064 
L 102.202898 609.034978 
L 107.884352 594.03229 
L 110.014898 589.174678 
L 112.145443 585.027317 
L 113.565807 582.688437 
L 114.98617 580.693382 
L 116.406534 579.033582 
L 117.826898 577.693209 
L 119.247261 576.651336 
L 120.667625 575.883803 
L 122.087989 575.364767 
L 123.508352 575.067919 
L 124.928716 574.967406 
L 126.34908 575.03848 
L 128.479625 575.41654 
L 130.61017 576.058264 
L 133.450898 577.220219 
L 137.001807 579.003792 
L 141.97308 581.824141 
L 154.04617 588.793608 
L 159.727625 591.770587 
L 165.40908 594.475625 
L 171.090534 596.907066 
L 176.771989 599.080237 
L 182.453443 601.017542 
L 188.84508 602.945399 
L 195.236716 604.639261 
L 202.338534 606.284326 
L 210.150534 607.848536 
L 218.672716 609.309675 
L 227.90508 610.654751 
L 237.847625 611.878752 
L 249.210534 613.050164 
L 261.993807 614.141328 
L 276.907625 615.183526 
L 293.951989 616.148941 
L 314.547261 617.084553 
L 339.403625 617.978507 
L 369.231261 618.819126 
L 405.450534 619.608759 
L 446.64108 620.294482 
L 446.64108 620.294482 
" clip-path="url(#pcf99cee7b2)" style="fill: none; stroke: #2ca02c; stroke-width: 2; stroke-linecap: square"/>
   </g>
   <g id="line2d_60">
    <path d="M 91.55017 622.643478 
L 97.098466 621.360246 
L 102.646761 564.77136 
L 113.743352 498.739304 
L 124.839943 515.77106 
L 135.936534 551.610721 
L 158.129716 586.630344 
L 180.322898 600.30764 
L 202.51608 607.87678 
L 224.709261 611.97788 
L 357.868352 620.55945 
L 424.447898 622.394885 
" clip-path="url(#pcf99cee7b2)" style="fill: none; stroke-dasharray: 3.7,1.6; stroke-dashoffset: 0; stroke: #2ca02c"/>
    <g clip-path="url(#pcf99cee7b2)">
     <use xlink:href="#m121770150b" x="91.55017" y="622.643478" style="fill: #2ca02c; stroke: #000000; stroke-linejoin: miter"/>
     <use xlink:href="#m121770150b" x="97.098466" y="621.360246" style="fill: #2ca02c; stroke: #000000; stroke-linejoin: miter"/>
     <use xlink:href="#m121770150b" x="102.646761" y="564.77136" style="fill: #2ca02c; stroke: #000000; stroke-linejoin: miter"/>
     <use xlink:href="#m121770150b" x="113.743352" y="498.739304" style="fill: #2ca02c; stroke: #000000; stroke-linejoin: miter"/>
     <use xlink:href="#m121770150b" x="124.839943" y="515.77106" style="fill: #2ca02c; stroke: #000000; stroke-linejoin: miter"/>
     <use xlink:href="#m121770150b" x="135.936534" y="551.610721" style="fill: #2ca02c; stroke: #000000; stroke-linejoin: miter"/>
     <use xlink:href="#m121770150b" x="158.129716" y="586.630344" style="fill: #2ca02c; stroke: #000000; stroke-linejoin: miter"/>
     <use xlink:href="#m121770150b" x="180.322898" y="600.30764" style="fill: #2ca02c; stroke: #000000; stroke-linejoin: miter"/>
     <use xlink:href="#m121770150b" x="202.51608" y="607.87678" style="fill: #2ca02c; stroke: #000000; stroke-linejoin: miter"/>
     <use xlink:href="#m121770150b" x="224.709261" y="611.97788" style="fill: #2ca02c; stroke: #000000; stroke-linejoin: miter"/>
     <use xlink:href="#m121770150b" x="357.868352" y="620.55945" style="fill: #2ca02c; stroke: #000000; stroke-linejoin: miter"/>
     <use xlink:href="#m121770150b" x="424.447898" y="622.394885" style="fill: #2ca02c; stroke: #000000; stroke-linejoin: miter"/>
    </g>
   </g>
   <g id="line2d_61">
    <path d="M 91.55017 622.643478 
L 92.970534 622.607541 
L 93.680716 622.46365 
L 94.390898 622.118767 
L 95.10108 621.498977 
L 95.811261 620.560698 
L 96.521443 619.290785 
L 97.231625 617.70019 
L 98.651989 613.67412 
L 100.072352 608.776271 
L 102.202898 600.452385 
L 107.884352 577.463728 
L 110.014898 569.719797 
L 112.145443 562.806695 
L 114.275989 556.845585 
L 115.696352 553.435523 
L 117.116716 550.486224 
L 118.53708 547.994651 
L 119.957443 545.948576 
L 121.377807 544.327822 
L 122.79817 543.105913 
L 124.218534 542.251892 
L 125.638898 541.732112 
L 127.059261 541.511836 
L 128.479625 541.556526 
L 129.899989 541.832841 
L 131.320352 542.309314 
L 133.450898 543.336238 
L 135.581443 544.660922 
L 138.42217 546.763426 
L 141.97308 549.737789 
L 148.364716 555.490732 
L 155.466534 561.809893 
L 160.437807 565.957092 
L 165.40908 569.808042 
L 170.380352 573.348474 
L 175.351625 576.585302 
L 180.322898 579.536132 
L 185.29417 582.223252 
L 190.265443 584.670285 
L 195.946898 587.202571 
L 201.628352 589.48385 
L 208.019989 591.786675 
L 214.411625 593.845861 
L 221.513443 595.887032 
L 228.615261 597.704751 
L 236.427261 599.484131 
L 244.949443 601.202577 
L 254.181807 602.844622 
L 264.834534 604.504891 
L 276.197443 606.049844 
L 288.980716 607.563158 
L 303.184352 609.021509 
L 319.518534 610.469067 
L 337.983261 611.873361 
L 358.578534 613.212275 
L 382.014534 614.50693 
L 408.291261 615.729639 
L 437.408716 616.859831 
L 446.64108 617.176613 
L 446.64108 617.176613 
" clip-path="url(#pcf99cee7b2)" style="fill: none; stroke: #1f77b4; stroke-width: 2; stroke-linecap: square"/>
   </g>
   <g id="line2d_62">
    <path d="M 91.55017 622.643478 
L 97.098466 622.431112 
L 102.646761 575.566053 
L 113.743352 403.513043 
L 124.839943 414.132084 
L 135.936534 469.729828 
L 158.129716 550.269465 
L 180.322898 580.745741 
L 202.51608 595.483226 
L 224.709261 604.509531 
L 357.868352 619.400282 
L 424.447898 621.49149 
" clip-path="url(#pcf99cee7b2)" style="fill: none; stroke-dasharray: 3.7,1.6; stroke-dashoffset: 0; stroke: #1f77b4"/>
    <g clip-path="url(#pcf99cee7b2)">
     <use xlink:href="#m925d9578a0" x="91.55017" y="622.643478" style="fill: #1f77b4; stroke: #000000; stroke-linejoin: miter"/>
     <use xlink:href="#m925d9578a0" x="97.098466" y="622.431112" style="fill: #1f77b4; stroke: #000000; stroke-linejoin: miter"/>
     <use xlink:href="#m925d9578a0" x="102.646761" y="575.566053" style="fill: #1f77b4; stroke: #000000; stroke-linejoin: miter"/>
     <use xlink:href="#m925d9578a0" x="113.743352" y="403.513043" style="fill: #1f77b4; stroke: #000000; stroke-linejoin: miter"/>
     <use xlink:href="#m925d9578a0" x="124.839943" y="414.132084" style="fill: #1f77b4; stroke: #000000; stroke-linejoin: miter"/>
     <use xlink:href="#m925d9578a0" x="135.936534" y="469.729828" style="fill: #1f77b4; stroke: #000000; stroke-linejoin: miter"/>
     <use xlink:href="#m925d9578a0" x="158.129716" y="550.269465" style="fill: #1f77b4; stroke: #000000; stroke-linejoin: miter"/>
     <use xlink:href="#m925d9578a0" x="180.322898" y="580.745741" style="fill: #1f77b4; stroke: #000000; stroke-linejoin: miter"/>
     <use xlink:href="#m925d9578a0" x="202.51608" y="595.483226" style="fill: #1f77b4; stroke: #000000; stroke-linejoin: miter"/>
     <use xlink:href="#m925d9578a0" x="224.709261" y="604.509531" style="fill: #1f77b4; stroke: #000000; stroke-linejoin: miter"/>
     <use xlink:href="#m925d9578a0" x="357.868352" y="619.400282" style="fill: #1f77b4; stroke: #000000; stroke-linejoin: miter"/>
     <use xlink:href="#m925d9578a0" x="424.447898" y="621.49149" style="fill: #1f77b4; stroke: #000000; stroke-linejoin: miter"/>
    </g>
   </g>
   <g id="patch_9">
    <path d="M 73.795625 633.6 
L 73.795625 392.556522 
" style="fill: none; stroke: #000000; stroke-width: 0.8; stroke-linejoin: miter; stroke-linecap: square"/>
   </g>
   <g id="patch_10">
    <path d="M 464.395625 633.6 
L 464.395625 392.556522 
" style="fill: none; stroke: #000000; stroke-width: 0.8; stroke-linejoin: miter; stroke-linecap: square"/>
   </g>
   <g id="patch_11">
    <path d="M 73.795625 633.6 
L 464.395625 633.6 
" style="fill: none; stroke: #000000; stroke-width: 0.8; stroke-linejoin: miter; stroke-linecap: square"/>
   </g>
   <g id="patch_12">
    <path d="M 73.795625 392.556522 
L 464.395625 392.556522 
" style="fill: none; stroke: #000000; stroke-width: 0.8; stroke-linejoin: miter; stroke-linecap: square"/>
   </g>
   <g id="legend_2">
    <g id="patch_13">
     <path d="M 376.863125 504.639022 
L 458.795625 504.639022 
Q 460.395625 504.639022 460.395625 503.039022 
L 460.395625 398.156522 
Q 460.395625 396.556522 458.795625 396.556522 
L 376.863125 396.556522 
Q 375.263125 396.556522 375.263125 398.156522 
L 375.263125 503.039022 
Q 375.263125 504.639022 376.863125 504.639022 
z
" style="fill: #ffffff; opacity: 0.8; stroke: #cccccc; stroke-linejoin: miter"/>
    </g>
    <g id="line2d_63">
     <path d="M 378.463125 403.035272 
L 394.463125 403.035272 
" style="fill: none; stroke: #000000; stroke-width: 2; stroke-linecap: square"/>
    </g>
    <g id="line2d_64"/>
    <g id="text_40">
     <!-- Sim 0 mg -->
     <g transform="translate(400.863125 405.835272) scale(0.08 -0.08)">
      <use xlink:href="#DejaVuSans-53"/>
      <use xlink:href="#DejaVuSans-69" transform="translate(63.476562 0)"/>
      <use xlink:href="#DejaVuSans-6d" transform="translate(91.259766 0)"/>
      <use xlink:href="#DejaVuSans-20" transform="translate(188.671875 0)"/>
      <use xlink:href="#DejaVuSans-30" transform="translate(220.458984 0)"/>
      <use xlink:href="#DejaVuSans-20" transform="translate(284.082031 0)"/>
      <use xlink:href="#DejaVuSans-6d" transform="translate(315.869141 0)"/>
      <use xlink:href="#DejaVuSans-67" transform="translate(413.28125 0)"/>
     </g>
    </g>
    <g id="line2d_65">
     <path d="M 378.463125 414.777772 
L 394.463125 414.777772 
" style="fill: none; stroke: #ff7f0e; stroke-width: 2; stroke-linecap: square"/>
    </g>
    <g id="line2d_66"/>
    <g id="text_41">
     <!-- Sim 25 mg -->
     <g transform="translate(400.863125 417.577772) scale(0.08 -0.08)">
      <use xlink:href="#DejaVuSans-53"/>
      <use xlink:href="#DejaVuSans-69" transform="translate(63.476562 0)"/>
      <use xlink:href="#DejaVuSans-6d" transform="translate(91.259766 0)"/>
      <use xlink:href="#DejaVuSans-20" transform="translate(188.671875 0)"/>
      <use xlink:href="#DejaVuSans-32" transform="translate(220.458984 0)"/>
      <use xlink:href="#DejaVuSans-35" transform="translate(284.082031 0)"/>
      <use xlink:href="#DejaVuSans-20" transform="translate(347.705078 0)"/>
      <use xlink:href="#DejaVuSans-6d" transform="translate(379.492188 0)"/>
      <use xlink:href="#DejaVuSans-67" transform="translate(476.904297 0)"/>
     </g>
    </g>
    <g id="line2d_67">
     <path d="M 378.463125 426.520272 
L 394.463125 426.520272 
" style="fill: none; stroke-dasharray: 3.7,1.6; stroke-dashoffset: 0; stroke: #ff7f0e"/>
    </g>
    <g id="line2d_68">
     <g>
      <use xlink:href="#m2fd2165e21" x="386.463125" y="426.520272" style="fill: #ff7f0e; stroke: #000000; stroke-linejoin: miter"/>
     </g>
    </g>
    <g id="text_42">
     <!-- 25 mg (n=6) -->
     <g transform="translate(400.863125 429.320272) scale(0.08 -0.08)">
      <use xlink:href="#DejaVuSans-32"/>
      <use xlink:href="#DejaVuSans-35" transform="translate(63.623047 0)"/>
      <use xlink:href="#DejaVuSans-20" transform="translate(127.246094 0)"/>
      <use xlink:href="#DejaVuSans-6d" transform="translate(159.033203 0)"/>
      <use xlink:href="#DejaVuSans-67" transform="translate(256.445312 0)"/>
      <use xlink:href="#DejaVuSans-20" transform="translate(319.921875 0)"/>
      <use xlink:href="#DejaVuSans-28" transform="translate(351.708984 0)"/>
      <use xlink:href="#DejaVuSans-6e" transform="translate(390.722656 0)"/>
      <use xlink:href="#DejaVuSans-3d" transform="translate(454.101562 0)"/>
      <use xlink:href="#DejaVuSans-36" transform="translate(537.890625 0)"/>
      <use xlink:href="#DejaVuSans-29" transform="translate(601.513672 0)"/>
     </g>
    </g>
    <g id="line2d_69">
     <path d="M 378.463125 438.262772 
L 394.463125 438.262772 
" style="fill: none; stroke: #d62728; stroke-width: 2; stroke-linecap: square"/>
    </g>
    <g id="line2d_70"/>
    <g id="text_43">
     <!-- Sim 50 mg -->
     <g transform="translate(400.863125 441.062772) scale(0.08 -0.08)">
      <use xlink:href="#DejaVuSans-53"/>
      <use xlink:href="#DejaVuSans-69" transform="translate(63.476562 0)"/>
      <use xlink:href="#DejaVuSans-6d" transform="translate(91.259766 0)"/>
      <use xlink:href="#DejaVuSans-20" transform="translate(188.671875 0)"/>
      <use xlink:href="#DejaVuSans-35" transform="translate(220.458984 0)"/>
      <use xlink:href="#DejaVuSans-30" transform="translate(284.082031 0)"/>
      <use xlink:href="#DejaVuSans-20" transform="translate(347.705078 0)"/>
      <use xlink:href="#DejaVuSans-6d" transform="translate(379.492188 0)"/>
      <use xlink:href="#DejaVuSans-67" transform="translate(476.904297 0)"/>
     </g>
    </g>
    <g id="line2d_71">
     <path d="M 378.463125 450.005272 
L 394.463125 450.005272 
" style="fill: none; stroke-dasharray: 3.7,1.6; stroke-dashoffset: 0; stroke: #d62728"/>
    </g>
    <g id="line2d_72">
     <g>
      <use xlink:href="#mbe21619c05" x="386.463125" y="450.005272" style="fill: #d62728; stroke: #000000; stroke-linejoin: miter"/>
     </g>
    </g>
    <g id="text_44">
     <!-- 50 mg (n=6) -->
     <g transform="translate(400.863125 452.805272) scale(0.08 -0.08)">
      <use xlink:href="#DejaVuSans-35"/>
      <use xlink:href="#DejaVuSans-30" transform="translate(63.623047 0)"/>
      <use xlink:href="#DejaVuSans-20" transform="translate(127.246094 0)"/>
      <use xlink:href="#DejaVuSans-6d" transform="translate(159.033203 0)"/>
      <use xlink:href="#DejaVuSans-67" transform="translate(256.445312 0)"/>
      <use xlink:href="#DejaVuSans-20" transform="translate(319.921875 0)"/>
      <use xlink:href="#DejaVuSans-28" transform="translate(351.708984 0)"/>
      <use xlink:href="#DejaVuSans-6e" transform="translate(390.722656 0)"/>
      <use xlink:href="#DejaVuSans-3d" transform="translate(454.101562 0)"/>
      <use xlink:href="#DejaVuSans-36" transform="translate(537.890625 0)"/>
      <use xlink:href="#DejaVuSans-29" transform="translate(601.513672 0)"/>
     </g>
    </g>
    <g id="line2d_73">
     <path d="M 378.463125 461.747772 
L 394.463125 461.747772 
" style="fill: none; stroke: #2ca02c; stroke-width: 2; stroke-linecap: square"/>
    </g>
    <g id="line2d_74"/>
    <g id="text_45">
     <!-- Sim 100 mg -->
     <g transform="translate(400.863125 464.547772) scale(0.08 -0.08)">
      <use xlink:href="#DejaVuSans-53"/>
      <use xlink:href="#DejaVuSans-69" transform="translate(63.476562 0)"/>
      <use xlink:href="#DejaVuSans-6d" transform="translate(91.259766 0)"/>
      <use xlink:href="#DejaVuSans-20" transform="translate(188.671875 0)"/>
      <use xlink:href="#DejaVuSans-31" transform="translate(220.458984 0)"/>
      <use xlink:href="#DejaVuSans-30" transform="translate(284.082031 0)"/>
      <use xlink:href="#DejaVuSans-30" transform="translate(347.705078 0)"/>
      <use xlink:href="#DejaVuSans-20" transform="translate(411.328125 0)"/>
      <use xlink:href="#DejaVuSans-6d" transform="translate(443.115234 0)"/>
      <use xlink:href="#DejaVuSans-67" transform="translate(540.527344 0)"/>
     </g>
    </g>
    <g id="line2d_75">
     <path d="M 378.463125 473.490272 
L 394.463125 473.490272 
" style="fill: none; stroke-dasharray: 3.7,1.6; stroke-dashoffset: 0; stroke: #2ca02c"/>
    </g>
    <g id="line2d_76">
     <g>
      <use xlink:href="#m121770150b" x="386.463125" y="473.490272" style="fill: #2ca02c; stroke: #000000; stroke-linejoin: miter"/>
     </g>
    </g>
    <g id="text_46">
     <!-- 100 mg (n=6) -->
     <g transform="translate(400.863125 476.290272) scale(0.08 -0.08)">
      <use xlink:href="#DejaVuSans-31"/>
      <use xlink:href="#DejaVuSans-30" transform="translate(63.623047 0)"/>
      <use xlink:href="#DejaVuSans-30" transform="translate(127.246094 0)"/>
      <use xlink:href="#DejaVuSans-20" transform="translate(190.869141 0)"/>
      <use xlink:href="#DejaVuSans-6d" transform="translate(222.65625 0)"/>
      <use xlink:href="#DejaVuSans-67" transform="translate(320.068359 0)"/>
      <use xlink:href="#DejaVuSans-20" transform="translate(383.544922 0)"/>
      <use xlink:href="#DejaVuSans-28" transform="translate(415.332031 0)"/>
      <use xlink:href="#DejaVuSans-6e" transform="translate(454.345703 0)"/>
      <use xlink:href="#DejaVuSans-3d" transform="translate(517.724609 0)"/>
      <use xlink:href="#DejaVuSans-36" transform="translate(601.513672 0)"/>
      <use xlink:href="#DejaVuSans-29" transform="translate(665.136719 0)"/>
     </g>
    </g>
    <g id="line2d_77">
     <path d="M 378.463125 485.232772 
L 394.463125 485.232772 
" style="fill: none; stroke: #1f77b4; stroke-width: 2; stroke-linecap: square"/>
    </g>
    <g id="line2d_78"/>
    <g id="text_47">
     <!-- Sim 200 mg -->
     <g transform="translate(400.863125 488.032772) scale(0.08 -0.08)">
      <use xlink:href="#DejaVuSans-53"/>
      <use xlink:href="#DejaVuSans-69" transform="translate(63.476562 0)"/>
      <use xlink:href="#DejaVuSans-6d" transform="translate(91.259766 0)"/>
      <use xlink:href="#DejaVuSans-20" transform="translate(188.671875 0)"/>
      <use xlink:href="#DejaVuSans-32" transform="translate(220.458984 0)"/>
      <use xlink:href="#DejaVuSans-30" transform="translate(284.082031 0)"/>
      <use xlink:href="#DejaVuSans-30" transform="translate(347.705078 0)"/>
      <use xlink:href="#DejaVuSans-20" transform="translate(411.328125 0)"/>
      <use xlink:href="#DejaVuSans-6d" transform="translate(443.115234 0)"/>
      <use xlink:href="#DejaVuSans-67" transform="translate(540.527344 0)"/>
     </g>
    </g>
    <g id="line2d_79">
     <path d="M 378.463125 496.975272 
L 394.463125 496.975272 
" style="fill: none; stroke-dasharray: 3.7,1.6; stroke-dashoffset: 0; stroke: #1f77b4"/>
    </g>
    <g id="line2d_80">
     <g>
      <use xlink:href="#m925d9578a0" x="386.463125" y="496.975272" style="fill: #1f77b4; stroke: #000000; stroke-linejoin: miter"/>
     </g>
    </g>
    <g id="text_48">
     <!-- 200 mg (n=6) -->
     <g transform="translate(400.863125 499.775272) scale(0.08 -0.08)">
      <use xlink:href="#DejaVuSans-32"/>
      <use xlink:href="#DejaVuSans-30" transform="translate(63.623047 0)"/>
      <use xlink:href="#DejaVuSans-30" transform="translate(127.246094 0)"/>
      <use xlink:href="#DejaVuSans-20" transform="translate(190.869141 0)"/>
      <use xlink:href="#DejaVuSans-6d" transform="translate(222.65625 0)"/>
      <use xlink:href="#DejaVuSans-67" transform="translate(320.068359 0)"/>
      <use xlink:href="#DejaVuSans-20" transform="translate(383.544922 0)"/>
      <use xlink:href="#DejaVuSans-28" transform="translate(415.332031 0)"/>
      <use xlink:href="#DejaVuSans-6e" transform="translate(454.345703 0)"/>
      <use xlink:href="#DejaVuSans-3d" transform="translate(517.724609 0)"/>
      <use xlink:href="#DejaVuSans-36" transform="translate(601.513672 0)"/>
      <use xlink:href="#DejaVuSans-29" transform="translate(665.136719 0)"/>
     </g>
    </g>
   </g>
  </g>
  <g id="text_49">
   <!-- Ohtawa1993 (healthy) -->
   <g transform="translate(105.190156 26.196094) scale(0.25 -0.25)">
    <defs>
     <path id="DejaVuSans-Bold-4f" d="M 2719 3878 
Q 2169 3878 1866 3472 
Q 1563 3066 1563 2328 
Q 1563 1594 1866 1187 
Q 2169 781 2719 781 
Q 3272 781 3575 1187 
Q 3878 1594 3878 2328 
Q 3878 3066 3575 3472 
Q 3272 3878 2719 3878 
z
M 2719 4750 
Q 3844 4750 4481 4106 
Q 5119 3463 5119 2328 
Q 5119 1197 4481 553 
Q 3844 -91 2719 -91 
Q 1597 -91 958 553 
Q 319 1197 319 2328 
Q 319 3463 958 4106 
Q 1597 4750 2719 4750 
z
" transform="scale(0.015625)"/>
     <path id="DejaVuSans-Bold-77" d="M 225 3500 
L 1313 3500 
L 1900 1088 
L 2491 3500 
L 3425 3500 
L 4013 1113 
L 4603 3500 
L 5691 3500 
L 4769 0 
L 3547 0 
L 2956 2406 
L 2369 0 
L 1147 0 
L 225 3500 
z
" transform="scale(0.015625)"/>
     <path id="DejaVuSans-Bold-39" d="M 641 103 
L 641 966 
Q 928 831 1190 764 
Q 1453 697 1709 697 
Q 2247 697 2547 995 
Q 2847 1294 2900 1881 
Q 2688 1725 2447 1647 
Q 2206 1569 1925 1569 
Q 1209 1569 770 1986 
Q 331 2403 331 3084 
Q 331 3838 820 4291 
Q 1309 4744 2131 4744 
Q 3044 4744 3544 4128 
Q 4044 3513 4044 2388 
Q 4044 1231 3459 570 
Q 2875 -91 1856 -91 
Q 1528 -91 1228 -42 
Q 928 6 641 103 
z
M 2125 2350 
Q 2441 2350 2600 2554 
Q 2759 2759 2759 3169 
Q 2759 3575 2600 3781 
Q 2441 3988 2125 3988 
Q 1809 3988 1650 3781 
Q 1491 3575 1491 3169 
Q 1491 2759 1650 2554 
Q 1809 2350 2125 2350 
z
" transform="scale(0.015625)"/>
     <path id="DejaVuSans-Bold-28" d="M 2413 -844 
L 1484 -844 
Q 1006 -72 778 623 
Q 550 1319 550 2003 
Q 550 2688 779 3389 
Q 1009 4091 1484 4856 
L 2413 4856 
Q 2013 4116 1813 3408 
Q 1613 2700 1613 2009 
Q 1613 1319 1811 609 
Q 2009 -100 2413 -844 
z
" transform="scale(0.015625)"/>
     <path id="DejaVuSans-Bold-6c" d="M 538 4863 
L 1656 4863 
L 1656 0 
L 538 0 
L 538 4863 
z
" transform="scale(0.015625)"/>
     <path id="DejaVuSans-Bold-79" d="M 78 3500 
L 1197 3500 
L 2138 1125 
L 2938 3500 
L 4056 3500 
L 2584 -331 
Q 2363 -916 2067 -1148 
Q 1772 -1381 1288 -1381 
L 641 -1381 
L 641 -647 
L 991 -647 
Q 1275 -647 1404 -556 
Q 1534 -466 1606 -231 
L 1638 -134 
L 78 3500 
z
" transform="scale(0.015625)"/>
     <path id="DejaVuSans-Bold-29" d="M 513 -844 
Q 913 -100 1113 609 
Q 1313 1319 1313 2009 
Q 1313 2700 1113 3408 
Q 913 4116 513 4856 
L 1441 4856 
Q 1916 4091 2145 3389 
Q 2375 2688 2375 2003 
Q 2375 1319 2147 623 
Q 1919 -72 1441 -844 
L 513 -844 
z
" transform="scale(0.015625)"/>
    </defs>
    <use xlink:href="#DejaVuSans-Bold-4f"/>
    <use xlink:href="#DejaVuSans-Bold-68" transform="translate(85.009766 0)"/>
    <use xlink:href="#DejaVuSans-Bold-74" transform="translate(156.201172 0)"/>
    <use xlink:href="#DejaVuSans-Bold-61" transform="translate(204.003906 0)"/>
    <use xlink:href="#DejaVuSans-Bold-77" transform="translate(271.484375 0)"/>
    <use xlink:href="#DejaVuSans-Bold-61" transform="translate(363.867188 0)"/>
    <use xlink:href="#DejaVuSans-Bold-31" transform="translate(431.347656 0)"/>
    <use xlink:href="#DejaVuSans-Bold-39" transform="translate(500.927734 0)"/>
    <use xlink:href="#DejaVuSans-Bold-39" transform="translate(570.507812 0)"/>
    <use xlink:href="#DejaVuSans-Bold-33" transform="translate(640.087891 0)"/>
    <use xlink:href="#DejaVuSans-Bold-20" transform="translate(709.667969 0)"/>
    <use xlink:href="#DejaVuSans-Bold-28" transform="translate(744.482422 0)"/>
    <use xlink:href="#DejaVuSans-Bold-68" transform="translate(790.185547 0)"/>
    <use xlink:href="#DejaVuSans-Bold-65" transform="translate(861.376953 0)"/>
    <use xlink:href="#DejaVuSans-Bold-61" transform="translate(929.199219 0)"/>
    <use xlink:href="#DejaVuSans-Bold-6c" transform="translate(996.679688 0)"/>
    <use xlink:href="#DejaVuSans-Bold-74" transform="translate(1030.957031 0)"/>
    <use xlink:href="#DejaVuSans-Bold-68" transform="translate(1078.759766 0)"/>
    <use xlink:href="#DejaVuSans-Bold-79" transform="translate(1149.951172 0)"/>
    <use xlink:href="#DejaVuSans-Bold-29" transform="translate(1215.136719 0)"/>
   </g>
  </g>
 </g>
 <defs>
  <clipPath id="p35d048bff6">
   <rect x="73.795625" y="79.2" width="390.6" height="241.043478"/>
  </clipPath>
  <clipPath id="pcf99cee7b2">
   <rect x="73.795625" y="392.556522" width="390.6" height="241.043478"/>
  </clipPath>
 </defs>
</svg>
