<?xml version="1.0" encoding="utf-8" standalone="no"?>
<!DOCTYPE svg PUBLIC "-//W3C//DTD SVG 1.1//EN"
  "http://www.w3.org/Graphics/SVG/1.1/DTD/svg11.dtd">
<svg xmlns:xlink="http://www.w3.org/1999/xlink" width="486.975125pt" height="683.737812pt" viewBox="0 0 486.975125 683.737812" xmlns="http://www.w3.org/2000/svg" version="1.1">
 <metadata>
  <rdf:RDF xmlns:dc="http://purl.org/dc/elements/1.1/" xmlns:cc="http://creativecommons.org/ns#" xmlns:rdf="http://www.w3.org/1999/02/22-rdf-syntax-ns#">
   <cc:Work>
    <dc:type rdf:resource="http://purl.org/dc/dcmitype/StillImage"/>
    <dc:date>2025-12-03T16:33:24.506543</dc:date>
    <dc:format>image/svg+xml</dc:format>
    <dc:creator>
     <cc:Agent>
      <dc:title>Matplotlib v3.10.7, https://matplotlib.org/</dc:title>
     </cc:Agent>
    </dc:creator>
   </cc:Work>
  </rdf:RDF>
 </metadata>
 <defs>
  <style type="text/css">*{stroke-linejoin: round; stroke-linecap: butt}</style>
 </defs>
 <g id="figure_1">
  <g id="patch_1">
   <path d="M 0 683.737812 
L 486.975125 683.737812 
L 486.975125 0 
L 0 0 
z
" style="fill: #ffffff"/>
  </g>
  <g id="axes_1">
   <g id="patch_2">
    <path d="M 89.175125 320.243478 
L 479.775125 320.243478 
L 479.775125 79.2 
L 89.175125 79.2 
z
" style="fill: #ffffff"/>
   </g>
   <g id="matplotlib.axis_1">
    <g id="xtick_1">
     <g id="line2d_1">
      <defs>
       <path id="m29d3fd2bc9" d="M 0 0 
L 0 3.5 
" style="stroke: #000000; stroke-width: 0.8"/>
      </defs>
      <g>
       <use xlink:href="#m29d3fd2bc9" x="106.92967" y="320.243478" style="stroke: #000000; stroke-width: 0.8"/>
      </g>
     </g>
     <g id="text_1">
      <!-- 0.0 -->
      <g transform="translate(95.002327 338.641135) scale(0.15 -0.15)">
       <defs>
        <path id="DejaVuSans-30" d="M 2034 4250 
Q 1547 4250 1301 3770 
Q 1056 3291 1056 2328 
Q 1056 1369 1301 889 
Q 1547 409 2034 409 
Q 2525 409 2770 889 
Q 3016 1369 3016 2328 
Q 3016 3291 2770 3770 
Q 2525 4250 2034 4250 
z
M 2034 4750 
Q 2819 4750 3233 4129 
Q 3647 3509 3647 2328 
Q 3647 1150 3233 529 
Q 2819 -91 2034 -91 
Q 1250 -91 836 529 
Q 422 1150 422 2328 
Q 422 3509 836 4129 
Q 1250 4750 2034 4750 
z
" transform="scale(0.015625)"/>
        <path id="DejaVuSans-2e" d="M 684 794 
L 1344 794 
L 1344 0 
L 684 0 
L 684 794 
z
" transform="scale(0.015625)"/>
       </defs>
       <use xlink:href="#DejaVuSans-30"/>
       <use xlink:href="#DejaVuSans-2e" transform="translate(63.623047 0)"/>
       <use xlink:href="#DejaVuSans-30" transform="translate(95.410156 0)"/>
      </g>
     </g>
    </g>
    <g id="xtick_2">
     <g id="line2d_2">
      <g>
       <use xlink:href="#m29d3fd2bc9" x="166.111489" y="320.243478" style="stroke: #000000; stroke-width: 0.8"/>
      </g>
     </g>
     <g id="text_2">
      <!-- 2.5 -->
      <g transform="translate(154.184145 338.641135) scale(0.15 -0.15)">
       <defs>
        <path id="DejaVuSans-32" d="M 1228 531 
L 3431 531 
L 3431 0 
L 469 0 
L 469 531 
Q 828 903 1448 1529 
Q 2069 2156 2228 2338 
Q 2531 2678 2651 2914 
Q 2772 3150 2772 3378 
Q 2772 3750 2511 3984 
Q 2250 4219 1831 4219 
Q 1534 4219 1204 4116 
Q 875 4013 500 3803 
L 500 4441 
Q 881 4594 1212 4672 
Q 1544 4750 1819 4750 
Q 2544 4750 2975 4387 
Q 3406 4025 3406 3419 
Q 3406 3131 3298 2873 
Q 3191 2616 2906 2266 
Q 2828 2175 2409 1742 
Q 1991 1309 1228 531 
z
" transform="scale(0.015625)"/>
        <path id="DejaVuSans-35" d="M 691 4666 
L 3169 4666 
L 3169 4134 
L 1269 4134 
L 1269 2991 
Q 1406 3038 1543 3061 
Q 1681 3084 1819 3084 
Q 2600 3084 3056 2656 
Q 3513 2228 3513 1497 
Q 3513 744 3044 326 
Q 2575 -91 1722 -91 
Q 1428 -91 1123 -41 
Q 819 9 494 109 
L 494 744 
Q 775 591 1075 516 
Q 1375 441 1709 441 
Q 2250 441 2565 725 
Q 2881 1009 2881 1497 
Q 2881 1984 2565 2268 
Q 2250 2553 1709 2553 
Q 1456 2553 1204 2497 
Q 953 2441 691 2322 
L 691 4666 
z
" transform="scale(0.015625)"/>
       </defs>
       <use xlink:href="#DejaVuSans-32"/>
       <use xlink:href="#DejaVuSans-2e" transform="translate(63.623047 0)"/>
       <use xlink:href="#DejaVuSans-35" transform="translate(95.410156 0)"/>
      </g>
     </g>
    </g>
    <g id="xtick_3">
     <g id="line2d_3">
      <g>
       <use xlink:href="#m29d3fd2bc9" x="225.293307" y="320.243478" style="stroke: #000000; stroke-width: 0.8"/>
      </g>
     </g>
     <g id="text_3">
      <!-- 5.0 -->
      <g transform="translate(213.365963 338.641135) scale(0.15 -0.15)">
       <use xlink:href="#DejaVuSans-35"/>
       <use xlink:href="#DejaVuSans-2e" transform="translate(63.623047 0)"/>
       <use xlink:href="#DejaVuSans-30" transform="translate(95.410156 0)"/>
      </g>
     </g>
    </g>
    <g id="xtick_4">
     <g id="line2d_4">
      <g>
       <use xlink:href="#m29d3fd2bc9" x="284.475125" y="320.243478" style="stroke: #000000; stroke-width: 0.8"/>
      </g>
     </g>
     <g id="text_4">
      <!-- 7.5 -->
      <g transform="translate(272.547781 338.641135) scale(0.15 -0.15)">
       <defs>
        <path id="DejaVuSans-37" d="M 525 4666 
L 3525 4666 
L 3525 4397 
L 1831 0 
L 1172 0 
L 2766 4134 
L 525 4134 
L 525 4666 
z
" transform="scale(0.015625)"/>
       </defs>
       <use xlink:href="#DejaVuSans-37"/>
       <use xlink:href="#DejaVuSans-2e" transform="translate(63.623047 0)"/>
       <use xlink:href="#DejaVuSans-35" transform="translate(95.410156 0)"/>
      </g>
     </g>
    </g>
    <g id="xtick_5">
     <g id="line2d_5">
      <g>
       <use xlink:href="#m29d3fd2bc9" x="343.656943" y="320.243478" style="stroke: #000000; stroke-width: 0.8"/>
      </g>
     </g>
     <g id="text_5">
      <!-- 10.0 -->
      <g transform="translate(326.957724 338.641135) scale(0.15 -0.15)">
       <defs>
        <path id="DejaVuSans-31" d="M 794 531 
L 1825 531 
L 1825 4091 
L 703 3866 
L 703 4441 
L 1819 4666 
L 2450 4666 
L 2450 531 
L 3481 531 
L 3481 0 
L 794 0 
L 794 531 
z
" transform="scale(0.015625)"/>
       </defs>
       <use xlink:href="#DejaVuSans-31"/>
       <use xlink:href="#DejaVuSans-30" transform="translate(63.623047 0)"/>
       <use xlink:href="#DejaVuSans-2e" transform="translate(127.246094 0)"/>
       <use xlink:href="#DejaVuSans-30" transform="translate(159.033203 0)"/>
      </g>
     </g>
    </g>
    <g id="xtick_6">
     <g id="line2d_6">
      <g>
       <use xlink:href="#m29d3fd2bc9" x="402.838761" y="320.243478" style="stroke: #000000; stroke-width: 0.8"/>
      </g>
     </g>
     <g id="text_6">
      <!-- 12.5 -->
      <g transform="translate(386.139543 338.641135) scale(0.15 -0.15)">
       <use xlink:href="#DejaVuSans-31"/>
       <use xlink:href="#DejaVuSans-32" transform="translate(63.623047 0)"/>
       <use xlink:href="#DejaVuSans-2e" transform="translate(127.246094 0)"/>
       <use xlink:href="#DejaVuSans-35" transform="translate(159.033203 0)"/>
      </g>
     </g>
    </g>
    <g id="xtick_7">
     <g id="line2d_7">
      <g>
       <use xlink:href="#m29d3fd2bc9" x="462.02058" y="320.243478" style="stroke: #000000; stroke-width: 0.8"/>
      </g>
     </g>
     <g id="text_7">
      <!-- 15.0 -->
      <g transform="translate(445.321361 338.641135) scale(0.15 -0.15)">
       <use xlink:href="#DejaVuSans-31"/>
       <use xlink:href="#DejaVuSans-35" transform="translate(63.623047 0)"/>
       <use xlink:href="#DejaVuSans-2e" transform="translate(127.246094 0)"/>
       <use xlink:href="#DejaVuSans-30" transform="translate(159.033203 0)"/>
      </g>
     </g>
    </g>
    <g id="text_8">
     <!-- Time [hr] -->
     <g transform="translate(237.562625 359.437853) scale(0.18 -0.18)">
      <defs>
       <path id="DejaVuSans-Bold-54" d="M 31 4666 
L 4331 4666 
L 4331 3756 
L 2784 3756 
L 2784 0 
L 1581 0 
L 1581 3756 
L 31 3756 
L 31 4666 
z
" transform="scale(0.015625)"/>
       <path id="DejaVuSans-Bold-69" d="M 538 3500 
L 1656 3500 
L 1656 0 
L 538 0 
L 538 3500 
z
M 538 4863 
L 1656 4863 
L 1656 3950 
L 538 3950 
L 538 4863 
z
" transform="scale(0.015625)"/>
       <path id="DejaVuSans-Bold-6d" d="M 3781 2919 
Q 3994 3244 4286 3414 
Q 4578 3584 4928 3584 
Q 5531 3584 5847 3212 
Q 6163 2841 6163 2131 
L 6163 0 
L 5038 0 
L 5038 1825 
Q 5041 1866 5042 1909 
Q 5044 1953 5044 2034 
Q 5044 2406 4934 2573 
Q 4825 2741 4581 2741 
Q 4263 2741 4089 2478 
Q 3916 2216 3909 1719 
L 3909 0 
L 2784 0 
L 2784 1825 
Q 2784 2406 2684 2573 
Q 2584 2741 2328 2741 
Q 2006 2741 1831 2477 
Q 1656 2213 1656 1722 
L 1656 0 
L 531 0 
L 531 3500 
L 1656 3500 
L 1656 2988 
Q 1863 3284 2130 3434 
Q 2397 3584 2719 3584 
Q 3081 3584 3359 3409 
Q 3638 3234 3781 2919 
z
" transform="scale(0.015625)"/>
       <path id="DejaVuSans-Bold-65" d="M 4031 1759 
L 4031 1441 
L 1416 1441 
Q 1456 1047 1700 850 
Q 1944 653 2381 653 
Q 2734 653 3104 758 
Q 3475 863 3866 1075 
L 3866 213 
Q 3469 63 3072 -14 
Q 2675 -91 2278 -91 
Q 1328 -91 801 392 
Q 275 875 275 1747 
Q 275 2603 792 3093 
Q 1309 3584 2216 3584 
Q 3041 3584 3536 3087 
Q 4031 2591 4031 1759 
z
M 2881 2131 
Q 2881 2450 2695 2645 
Q 2509 2841 2209 2841 
Q 1884 2841 1681 2658 
Q 1478 2475 1428 2131 
L 2881 2131 
z
" transform="scale(0.015625)"/>
       <path id="DejaVuSans-Bold-20" transform="scale(0.015625)"/>
       <path id="DejaVuSans-Bold-5b" d="M 550 4863 
L 2491 4863 
L 2491 4159 
L 1613 4159 
L 1613 -141 
L 2491 -141 
L 2491 -844 
L 550 -844 
L 550 4863 
z
" transform="scale(0.015625)"/>
       <path id="DejaVuSans-Bold-68" d="M 4056 2131 
L 4056 0 
L 2931 0 
L 2931 347 
L 2931 1625 
Q 2931 2084 2911 2256 
Q 2891 2428 2841 2509 
Q 2775 2619 2662 2680 
Q 2550 2741 2406 2741 
Q 2056 2741 1856 2470 
Q 1656 2200 1656 1722 
L 1656 0 
L 538 0 
L 538 4863 
L 1656 4863 
L 1656 2988 
Q 1909 3294 2193 3439 
Q 2478 3584 2822 3584 
Q 3428 3584 3742 3212 
Q 4056 2841 4056 2131 
z
" transform="scale(0.015625)"/>
       <path id="DejaVuSans-Bold-72" d="M 3138 2547 
Q 2991 2616 2845 2648 
Q 2700 2681 2553 2681 
Q 2122 2681 1889 2404 
Q 1656 2128 1656 1613 
L 1656 0 
L 538 0 
L 538 3500 
L 1656 3500 
L 1656 2925 
Q 1872 3269 2151 3426 
Q 2431 3584 2822 3584 
Q 2878 3584 2943 3579 
Q 3009 3575 3134 3559 
L 3138 2547 
z
" transform="scale(0.015625)"/>
       <path id="DejaVuSans-Bold-5d" d="M 2375 -844 
L 434 -844 
L 434 -141 
L 1313 -141 
L 1313 4159 
L 434 4159 
L 434 4863 
L 2375 4863 
L 2375 -844 
z
" transform="scale(0.015625)"/>
      </defs>
      <use xlink:href="#DejaVuSans-Bold-54"/>
      <use xlink:href="#DejaVuSans-Bold-69" transform="translate(68.212891 0)"/>
      <use xlink:href="#DejaVuSans-Bold-6d" transform="translate(102.490234 0)"/>
      <use xlink:href="#DejaVuSans-Bold-65" transform="translate(206.689453 0)"/>
      <use xlink:href="#DejaVuSans-Bold-20" transform="translate(274.511719 0)"/>
      <use xlink:href="#DejaVuSans-Bold-5b" transform="translate(309.326172 0)"/>
      <use xlink:href="#DejaVuSans-Bold-68" transform="translate(355.029297 0)"/>
      <use xlink:href="#DejaVuSans-Bold-72" transform="translate(426.220703 0)"/>
      <use xlink:href="#DejaVuSans-Bold-5d" transform="translate(475.537109 0)"/>
     </g>
    </g>
   </g>
   <g id="matplotlib.axis_2">
    <g id="ytick_1">
     <g id="line2d_8">
      <defs>
       <path id="mffb52cd53f" d="M 0 0 
L -3.5 0 
" style="stroke: #000000; stroke-width: 0.8"/>
      </defs>
      <g>
       <use xlink:href="#mffb52cd53f" x="89.175125" y="309.286957" style="stroke: #000000; stroke-width: 0.8"/>
      </g>
     </g>
     <g id="text_9">
      <!-- 0 -->
      <g transform="translate(72.631375 314.985785) scale(0.15 -0.15)">
       <use xlink:href="#DejaVuSans-30"/>
      </g>
     </g>
    </g>
    <g id="ytick_2">
     <g id="line2d_9">
      <g>
       <use xlink:href="#mffb52cd53f" x="89.175125" y="268.097025" style="stroke: #000000; stroke-width: 0.8"/>
      </g>
     </g>
     <g id="text_10">
      <!-- 5 -->
      <g transform="translate(72.631375 273.795853) scale(0.15 -0.15)">
       <use xlink:href="#DejaVuSans-35"/>
      </g>
     </g>
    </g>
    <g id="ytick_3">
     <g id="line2d_10">
      <g>
       <use xlink:href="#mffb52cd53f" x="89.175125" y="226.907094" style="stroke: #000000; stroke-width: 0.8"/>
      </g>
     </g>
     <g id="text_11">
      <!-- 10 -->
      <g transform="translate(63.087625 232.605922) scale(0.15 -0.15)">
       <use xlink:href="#DejaVuSans-31"/>
       <use xlink:href="#DejaVuSans-30" transform="translate(63.623047 0)"/>
      </g>
     </g>
    </g>
    <g id="ytick_4">
     <g id="line2d_11">
      <g>
       <use xlink:href="#mffb52cd53f" x="89.175125" y="185.717162" style="stroke: #000000; stroke-width: 0.8"/>
      </g>
     </g>
     <g id="text_12">
      <!-- 15 -->
      <g transform="translate(63.087625 191.415991) scale(0.15 -0.15)">
       <use xlink:href="#DejaVuSans-31"/>
       <use xlink:href="#DejaVuSans-35" transform="translate(63.623047 0)"/>
      </g>
     </g>
    </g>
    <g id="ytick_5">
     <g id="line2d_12">
      <g>
       <use xlink:href="#mffb52cd53f" x="89.175125" y="144.527231" style="stroke: #000000; stroke-width: 0.8"/>
      </g>
     </g>
     <g id="text_13">
      <!-- 20 -->
      <g transform="translate(63.087625 150.226059) scale(0.15 -0.15)">
       <use xlink:href="#DejaVuSans-32"/>
       <use xlink:href="#DejaVuSans-30" transform="translate(63.623047 0)"/>
      </g>
     </g>
    </g>
    <g id="ytick_6">
     <g id="line2d_13">
      <g>
       <use xlink:href="#mffb52cd53f" x="89.175125" y="103.3373" style="stroke: #000000; stroke-width: 0.8"/>
      </g>
     </g>
     <g id="text_14">
      <!-- 25 -->
      <g transform="translate(63.087625 109.036128) scale(0.15 -0.15)">
       <use xlink:href="#DejaVuSans-32"/>
       <use xlink:href="#DejaVuSans-35" transform="translate(63.623047 0)"/>
      </g>
     </g>
    </g>
    <g id="text_15">
     <!-- Losartan/E3174 -->
     <g transform="translate(35.188125 278.774083) rotate(-90) scale(0.18 -0.18)">
      <defs>
       <path id="DejaVuSans-Bold-4c" d="M 588 4666 
L 1791 4666 
L 1791 909 
L 3903 909 
L 3903 0 
L 588 0 
L 588 4666 
z
" transform="scale(0.015625)"/>
       <path id="DejaVuSans-Bold-6f" d="M 2203 2784 
Q 1831 2784 1636 2517 
Q 1441 2250 1441 1747 
Q 1441 1244 1636 976 
Q 1831 709 2203 709 
Q 2569 709 2762 976 
Q 2956 1244 2956 1747 
Q 2956 2250 2762 2517 
Q 2569 2784 2203 2784 
z
M 2203 3584 
Q 3106 3584 3614 3096 
Q 4122 2609 4122 1747 
Q 4122 884 3614 396 
Q 3106 -91 2203 -91 
Q 1297 -91 786 396 
Q 275 884 275 1747 
Q 275 2609 786 3096 
Q 1297 3584 2203 3584 
z
" transform="scale(0.015625)"/>
       <path id="DejaVuSans-Bold-73" d="M 3272 3391 
L 3272 2541 
Q 2913 2691 2578 2766 
Q 2244 2841 1947 2841 
Q 1628 2841 1473 2761 
Q 1319 2681 1319 2516 
Q 1319 2381 1436 2309 
Q 1553 2238 1856 2203 
L 2053 2175 
Q 2913 2066 3209 1816 
Q 3506 1566 3506 1031 
Q 3506 472 3093 190 
Q 2681 -91 1863 -91 
Q 1516 -91 1145 -36 
Q 775 19 384 128 
L 384 978 
Q 719 816 1070 734 
Q 1422 653 1784 653 
Q 2113 653 2278 743 
Q 2444 834 2444 1013 
Q 2444 1163 2330 1236 
Q 2216 1309 1875 1350 
L 1678 1375 
Q 931 1469 631 1722 
Q 331 1975 331 2491 
Q 331 3047 712 3315 
Q 1094 3584 1881 3584 
Q 2191 3584 2531 3537 
Q 2872 3491 3272 3391 
z
" transform="scale(0.015625)"/>
       <path id="DejaVuSans-Bold-61" d="M 2106 1575 
Q 1756 1575 1579 1456 
Q 1403 1338 1403 1106 
Q 1403 894 1545 773 
Q 1688 653 1941 653 
Q 2256 653 2472 879 
Q 2688 1106 2688 1447 
L 2688 1575 
L 2106 1575 
z
M 3816 1997 
L 3816 0 
L 2688 0 
L 2688 519 
Q 2463 200 2181 54 
Q 1900 -91 1497 -91 
Q 953 -91 614 226 
Q 275 544 275 1050 
Q 275 1666 698 1953 
Q 1122 2241 2028 2241 
L 2688 2241 
L 2688 2328 
Q 2688 2594 2478 2717 
Q 2269 2841 1825 2841 
Q 1466 2841 1156 2769 
Q 847 2697 581 2553 
L 581 3406 
Q 941 3494 1303 3539 
Q 1666 3584 2028 3584 
Q 2975 3584 3395 3211 
Q 3816 2838 3816 1997 
z
" transform="scale(0.015625)"/>
       <path id="DejaVuSans-Bold-74" d="M 1759 4494 
L 1759 3500 
L 2913 3500 
L 2913 2700 
L 1759 2700 
L 1759 1216 
Q 1759 972 1856 886 
Q 1953 800 2241 800 
L 2816 800 
L 2816 0 
L 1856 0 
Q 1194 0 917 276 
Q 641 553 641 1216 
L 641 2700 
L 84 2700 
L 84 3500 
L 641 3500 
L 641 4494 
L 1759 4494 
z
" transform="scale(0.015625)"/>
       <path id="DejaVuSans-Bold-6e" d="M 4056 2131 
L 4056 0 
L 2931 0 
L 2931 347 
L 2931 1631 
Q 2931 2084 2911 2256 
Q 2891 2428 2841 2509 
Q 2775 2619 2662 2680 
Q 2550 2741 2406 2741 
Q 2056 2741 1856 2470 
Q 1656 2200 1656 1722 
L 1656 0 
L 538 0 
L 538 3500 
L 1656 3500 
L 1656 2988 
Q 1909 3294 2193 3439 
Q 2478 3584 2822 3584 
Q 3428 3584 3742 3212 
Q 4056 2841 4056 2131 
z
" transform="scale(0.015625)"/>
       <path id="DejaVuSans-Bold-2f" d="M 1644 4666 
L 2338 4666 
L 691 -594 
L 0 -594 
L 1644 4666 
z
" transform="scale(0.015625)"/>
       <path id="DejaVuSans-Bold-45" d="M 588 4666 
L 3834 4666 
L 3834 3756 
L 1791 3756 
L 1791 2888 
L 3713 2888 
L 3713 1978 
L 1791 1978 
L 1791 909 
L 3903 909 
L 3903 0 
L 588 0 
L 588 4666 
z
" transform="scale(0.015625)"/>
       <path id="DejaVuSans-Bold-33" d="M 2981 2516 
Q 3453 2394 3698 2092 
Q 3944 1791 3944 1325 
Q 3944 631 3412 270 
Q 2881 -91 1863 -91 
Q 1503 -91 1142 -33 
Q 781 25 428 141 
L 428 1069 
Q 766 900 1098 814 
Q 1431 728 1753 728 
Q 2231 728 2486 893 
Q 2741 1059 2741 1369 
Q 2741 1688 2480 1852 
Q 2219 2016 1709 2016 
L 1228 2016 
L 1228 2791 
L 1734 2791 
Q 2188 2791 2409 2933 
Q 2631 3075 2631 3366 
Q 2631 3634 2415 3781 
Q 2200 3928 1806 3928 
Q 1516 3928 1219 3862 
Q 922 3797 628 3669 
L 628 4550 
Q 984 4650 1334 4700 
Q 1684 4750 2022 4750 
Q 2931 4750 3382 4451 
Q 3834 4153 3834 3553 
Q 3834 3144 3618 2883 
Q 3403 2622 2981 2516 
z
" transform="scale(0.015625)"/>
       <path id="DejaVuSans-Bold-31" d="M 750 831 
L 1813 831 
L 1813 3847 
L 722 3622 
L 722 4441 
L 1806 4666 
L 2950 4666 
L 2950 831 
L 4013 831 
L 4013 0 
L 750 0 
L 750 831 
z
" transform="scale(0.015625)"/>
       <path id="DejaVuSans-Bold-37" d="M 428 4666 
L 3944 4666 
L 3944 3988 
L 2125 0 
L 953 0 
L 2675 3781 
L 428 3781 
L 428 4666 
z
" transform="scale(0.015625)"/>
       <path id="DejaVuSans-Bold-34" d="M 2356 3675 
L 1038 1722 
L 2356 1722 
L 2356 3675 
z
M 2156 4666 
L 3494 4666 
L 3494 1722 
L 4159 1722 
L 4159 850 
L 3494 850 
L 3494 0 
L 2356 0 
L 2356 850 
L 288 850 
L 288 1881 
L 2156 4666 
z
" transform="scale(0.015625)"/>
      </defs>
      <use xlink:href="#DejaVuSans-Bold-4c"/>
      <use xlink:href="#DejaVuSans-Bold-6f" transform="translate(63.720703 0)"/>
      <use xlink:href="#DejaVuSans-Bold-73" transform="translate(132.421875 0)"/>
      <use xlink:href="#DejaVuSans-Bold-61" transform="translate(191.943359 0)"/>
      <use xlink:href="#DejaVuSans-Bold-72" transform="translate(259.423828 0)"/>
      <use xlink:href="#DejaVuSans-Bold-74" transform="translate(308.740234 0)"/>
      <use xlink:href="#DejaVuSans-Bold-61" transform="translate(356.542969 0)"/>
      <use xlink:href="#DejaVuSans-Bold-6e" transform="translate(424.023438 0)"/>
      <use xlink:href="#DejaVuSans-Bold-2f" transform="translate(495.214844 0)"/>
      <use xlink:href="#DejaVuSans-Bold-45" transform="translate(531.738281 0)"/>
      <use xlink:href="#DejaVuSans-Bold-33" transform="translate(600.048828 0)"/>
      <use xlink:href="#DejaVuSans-Bold-31" transform="translate(669.628906 0)"/>
      <use xlink:href="#DejaVuSans-Bold-37" transform="translate(739.208984 0)"/>
      <use xlink:href="#DejaVuSans-Bold-34" transform="translate(808.789062 0)"/>
     </g>
     <!--  [-] -->
     <g transform="translate(55.344187 214.816427) rotate(-90) scale(0.18 -0.18)">
      <defs>
       <path id="DejaVuSans-Bold-2d" d="M 347 2297 
L 2309 2297 
L 2309 1388 
L 347 1388 
L 347 2297 
z
" transform="scale(0.015625)"/>
      </defs>
      <use xlink:href="#DejaVuSans-Bold-20"/>
      <use xlink:href="#DejaVuSans-Bold-5b" transform="translate(34.814453 0)"/>
      <use xlink:href="#DejaVuSans-Bold-2d" transform="translate(80.517578 0)"/>
      <use xlink:href="#DejaVuSans-Bold-5d" transform="translate(122.021484 0)"/>
     </g>
    </g>
   </g>
   <g id="LineCollection_1">
    <path clip-path="url(#p0d5e7e87af)" style="fill: none; stroke: #000000"/>
    <path d="M 201.62058 202.193135 
L 201.62058 146.174828 
" clip-path="url(#p0d5e7e87af)" style="fill: none; stroke: #000000"/>
    <path d="M 248.966034 174.183982 
L 248.966034 90.156522 
" clip-path="url(#p0d5e7e87af)" style="fill: none; stroke: #000000"/>
   </g>
   <g id="LineCollection_2">
    <path clip-path="url(#p0d5e7e87af)" style="fill: none; stroke: #d62728"/>
    <path d="M 201.62058 301.872769 
L 201.62058 204.005492 
" clip-path="url(#p0d5e7e87af)" style="fill: none; stroke: #d62728"/>
    <path d="M 248.966034 281.360183 
L 248.966034 197.332723 
" clip-path="url(#p0d5e7e87af)" style="fill: none; stroke: #d62728"/>
   </g>
   <g id="line2d_14">
    <path d="M 106.92967 309.286957 
L 110.48058 309.173735 
L 114.74167 308.82944 
L 119.002761 308.269244 
L 123.263852 307.482201 
L 127.524943 306.447438 
L 131.075852 305.376828 
L 134.626761 304.09912 
L 138.17767 302.597749 
L 141.72858 300.857176 
L 145.279489 298.863751 
L 148.830398 296.606616 
L 152.381307 294.078777 
L 155.932216 291.278357 
L 159.483125 288.210017 
L 163.744216 284.192835 
L 168.005307 279.848435 
L 172.97658 274.449628 
L 180.78858 265.573781 
L 187.890398 257.598229 
L 192.151489 253.098488 
L 195.702398 249.613559 
L 199.253307 246.427747 
L 202.804216 243.583036 
L 205.644943 241.572318 
L 208.48567 239.806219 
L 211.326398 238.287173 
L 214.167125 237.012577 
L 217.007852 235.975454 
L 219.84858 235.165238 
L 222.689307 234.568586 
L 225.530034 234.170175 
L 229.080943 233.925639 
L 232.631852 233.931426 
L 236.182761 234.154159 
L 240.443852 234.662841 
L 244.704943 235.38672 
L 249.676216 236.442731 
L 256.067852 238.041395 
L 264.590034 240.43013 
L 302.939852 251.49502 
L 314.302761 254.38913 
L 325.66567 257.04401 
L 337.02858 259.464296 
L 348.391489 261.66259 
L 360.46458 263.772923 
L 373.247852 265.776438 
L 386.741307 267.659064 
L 400.944943 269.41107 
L 415.858761 271.026593 
L 432.192943 272.5655 
L 449.237307 273.948603 
L 462.02058 274.855847 
L 462.02058 274.855847 
" clip-path="url(#p0d5e7e87af)" style="fill: none; stroke: #000000; stroke-width: 2; stroke-linecap: square"/>
   </g>
   <g id="line2d_15">
    <path d="M 106.92967 309.286957 
L 201.62058 174.183982 
L 248.966034 132.170252 
" clip-path="url(#p0d5e7e87af)" style="fill: none; stroke-dasharray: 3.7,1.6; stroke-dashoffset: 0; stroke: #000000"/>
    <defs>
     <path id="m2a84b89911" d="M -3 3 
L 3 3 
L 3 -3 
L -3 -3 
z
" style="stroke: #000000; stroke-linejoin: miter"/>
    </defs>
    <g clip-path="url(#p0d5e7e87af)">
     <use xlink:href="#m2a84b89911" x="106.92967" y="309.286957" style="stroke: #000000; stroke-linejoin: miter"/>
     <use xlink:href="#m2a84b89911" x="201.62058" y="174.183982" style="stroke: #000000; stroke-linejoin: miter"/>
     <use xlink:href="#m2a84b89911" x="248.966034" y="132.170252" style="stroke: #000000; stroke-linejoin: miter"/>
    </g>
   </g>
   <g id="line2d_16">
    <path d="M 106.92967 309.286957 
L 111.900943 309.151752 
L 117.582398 308.75452 
L 123.263852 308.112544 
L 128.235125 307.332522 
L 133.206398 306.320177 
L 137.467489 305.244021 
L 141.72858 303.956195 
L 145.98967 302.442157 
L 150.250761 300.692913 
L 154.511852 298.706824 
L 158.772943 296.491366 
L 163.744216 293.641737 
L 169.42567 290.09838 
L 177.947852 284.453675 
L 186.470034 278.863739 
L 191.441307 275.844736 
L 195.702398 273.490267 
L 199.963489 271.39965 
L 203.514398 269.881373 
L 207.065307 268.576805 
L 210.616216 267.487828 
L 214.167125 266.60993 
L 217.718034 265.933367 
L 221.979125 265.367791 
L 226.240216 265.043846 
L 230.501307 264.930416 
L 235.47258 265.022208 
L 241.154034 265.364704 
L 247.54567 265.977641 
L 256.067852 267.046251 
L 268.140943 268.818984 
L 300.809307 273.716919 
L 316.433307 275.777337 
L 331.347125 277.522737 
L 346.971125 279.128451 
L 363.305307 280.585381 
L 381.059852 281.942539 
L 400.234761 283.180286 
L 420.830034 284.287234 
L 443.555852 285.287248 
L 462.02058 285.958156 
L 462.02058 285.958156 
" clip-path="url(#p0d5e7e87af)" style="fill: none; stroke: #d62728; stroke-width: 2; stroke-linecap: square"/>
   </g>
   <g id="line2d_17">
    <path d="M 106.92967 309.286957 
L 201.62058 252.93913 
L 248.966034 239.346453 
" clip-path="url(#p0d5e7e87af)" style="fill: none; stroke-dasharray: 3.7,1.6; stroke-dashoffset: 0; stroke: #d62728"/>
    <defs>
     <path id="m733a02ac31" d="M -3 3 
L 3 3 
L 3 -3 
L -3 -3 
z
" style="stroke: #000000; stroke-linejoin: miter"/>
    </defs>
    <g clip-path="url(#p0d5e7e87af)">
     <use xlink:href="#m733a02ac31" x="106.92967" y="309.286957" style="fill: #d62728; stroke: #000000; stroke-linejoin: miter"/>
     <use xlink:href="#m733a02ac31" x="201.62058" y="252.93913" style="fill: #d62728; stroke: #000000; stroke-linejoin: miter"/>
     <use xlink:href="#m733a02ac31" x="248.966034" y="239.346453" style="fill: #d62728; stroke: #000000; stroke-linejoin: miter"/>
    </g>
   </g>
   <g id="patch_3">
    <path d="M 89.175125 320.243478 
L 89.175125 79.2 
" style="fill: none; stroke: #000000; stroke-width: 0.8; stroke-linejoin: miter; stroke-linecap: square"/>
   </g>
   <g id="patch_4">
    <path d="M 479.775125 320.243478 
L 479.775125 79.2 
" style="fill: none; stroke: #000000; stroke-width: 0.8; stroke-linejoin: miter; stroke-linecap: square"/>
   </g>
   <g id="patch_5">
    <path d="M 89.175125 320.243478 
L 479.775125 320.243478 
" style="fill: none; stroke: #000000; stroke-width: 0.8; stroke-linejoin: miter; stroke-linecap: square"/>
   </g>
   <g id="patch_6">
    <path d="M 89.175125 79.2 
L 479.775125 79.2 
" style="fill: none; stroke: #000000; stroke-width: 0.8; stroke-linejoin: miter; stroke-linecap: square"/>
   </g>
   <g id="legend_1">
    <g id="patch_7">
     <path d="M 325.022 145.9125 
L 472.775125 145.9125 
Q 474.775125 145.9125 474.775125 143.9125 
L 474.775125 86.2 
Q 474.775125 84.2 472.775125 84.2 
L 325.022 84.2 
Q 323.022 84.2 323.022 86.2 
L 323.022 143.9125 
Q 323.022 145.9125 325.022 145.9125 
z
" style="fill: #ffffff; opacity: 0.8; stroke: #cccccc; stroke-linejoin: miter"/>
    </g>
    <g id="line2d_18">
     <path d="M 327.022 92.298437 
L 347.022 92.298437 
" style="fill: none; stroke: #000000; stroke-width: 2; stroke-linecap: square"/>
    </g>
    <g id="line2d_19"/>
    <g id="text_16">
     <!-- Sim *1/*1 25 mg -->
     <g transform="translate(355.022 95.798437) scale(0.1 -0.1)">
      <defs>
       <path id="DejaVuSans-53" d="M 3425 4513 
L 3425 3897 
Q 3066 4069 2747 4153 
Q 2428 4238 2131 4238 
Q 1616 4238 1336 4038 
Q 1056 3838 1056 3469 
Q 1056 3159 1242 3001 
Q 1428 2844 1947 2747 
L 2328 2669 
Q 3034 2534 3370 2195 
Q 3706 1856 3706 1288 
Q 3706 609 3251 259 
Q 2797 -91 1919 -91 
Q 1588 -91 1214 -16 
Q 841 59 441 206 
L 441 856 
Q 825 641 1194 531 
Q 1563 422 1919 422 
Q 2459 422 2753 634 
Q 3047 847 3047 1241 
Q 3047 1584 2836 1778 
Q 2625 1972 2144 2069 
L 1759 2144 
Q 1053 2284 737 2584 
Q 422 2884 422 3419 
Q 422 4038 858 4394 
Q 1294 4750 2059 4750 
Q 2388 4750 2728 4690 
Q 3069 4631 3425 4513 
z
" transform="scale(0.015625)"/>
       <path id="DejaVuSans-69" d="M 603 3500 
L 1178 3500 
L 1178 0 
L 603 0 
L 603 3500 
z
M 603 4863 
L 1178 4863 
L 1178 4134 
L 603 4134 
L 603 4863 
z
" transform="scale(0.015625)"/>
       <path id="DejaVuSans-6d" d="M 3328 2828 
Q 3544 3216 3844 3400 
Q 4144 3584 4550 3584 
Q 5097 3584 5394 3201 
Q 5691 2819 5691 2113 
L 5691 0 
L 5113 0 
L 5113 2094 
Q 5113 2597 4934 2840 
Q 4756 3084 4391 3084 
Q 3944 3084 3684 2787 
Q 3425 2491 3425 1978 
L 3425 0 
L 2847 0 
L 2847 2094 
Q 2847 2600 2669 2842 
Q 2491 3084 2119 3084 
Q 1678 3084 1418 2786 
Q 1159 2488 1159 1978 
L 1159 0 
L 581 0 
L 581 3500 
L 1159 3500 
L 1159 2956 
Q 1356 3278 1631 3431 
Q 1906 3584 2284 3584 
Q 2666 3584 2933 3390 
Q 3200 3197 3328 2828 
z
" transform="scale(0.015625)"/>
       <path id="DejaVuSans-20" transform="scale(0.015625)"/>
       <path id="DejaVuSans-2a" d="M 3009 3897 
L 1888 3291 
L 3009 2681 
L 2828 2375 
L 1778 3009 
L 1778 1831 
L 1422 1831 
L 1422 3009 
L 372 2375 
L 191 2681 
L 1313 3291 
L 191 3897 
L 372 4206 
L 1422 3572 
L 1422 4750 
L 1778 4750 
L 1778 3572 
L 2828 4206 
L 3009 3897 
z
" transform="scale(0.015625)"/>
       <path id="DejaVuSans-2f" d="M 1625 4666 
L 2156 4666 
L 531 -594 
L 0 -594 
L 1625 4666 
z
" transform="scale(0.015625)"/>
       <path id="DejaVuSans-67" d="M 2906 1791 
Q 2906 2416 2648 2759 
Q 2391 3103 1925 3103 
Q 1463 3103 1205 2759 
Q 947 2416 947 1791 
Q 947 1169 1205 825 
Q 1463 481 1925 481 
Q 2391 481 2648 825 
Q 2906 1169 2906 1791 
z
M 3481 434 
Q 3481 -459 3084 -895 
Q 2688 -1331 1869 -1331 
Q 1566 -1331 1297 -1286 
Q 1028 -1241 775 -1147 
L 775 -588 
Q 1028 -725 1275 -790 
Q 1522 -856 1778 -856 
Q 2344 -856 2625 -561 
Q 2906 -266 2906 331 
L 2906 616 
Q 2728 306 2450 153 
Q 2172 0 1784 0 
Q 1141 0 747 490 
Q 353 981 353 1791 
Q 353 2603 747 3093 
Q 1141 3584 1784 3584 
Q 2172 3584 2450 3431 
Q 2728 3278 2906 2969 
L 2906 3500 
L 3481 3500 
L 3481 434 
z
" transform="scale(0.015625)"/>
      </defs>
      <use xlink:href="#DejaVuSans-53"/>
      <use xlink:href="#DejaVuSans-69" transform="translate(63.476562 0)"/>
      <use xlink:href="#DejaVuSans-6d" transform="translate(91.259766 0)"/>
      <use xlink:href="#DejaVuSans-20" transform="translate(188.671875 0)"/>
      <use xlink:href="#DejaVuSans-2a" transform="translate(220.458984 0)"/>
      <use xlink:href="#DejaVuSans-31" transform="translate(270.458984 0)"/>
      <use xlink:href="#DejaVuSans-2f" transform="translate(334.082031 0)"/>
      <use xlink:href="#DejaVuSans-2a" transform="translate(367.773438 0)"/>
      <use xlink:href="#DejaVuSans-31" transform="translate(417.773438 0)"/>
      <use xlink:href="#DejaVuSans-20" transform="translate(481.396484 0)"/>
      <use xlink:href="#DejaVuSans-32" transform="translate(513.183594 0)"/>
      <use xlink:href="#DejaVuSans-35" transform="translate(576.806641 0)"/>
      <use xlink:href="#DejaVuSans-20" transform="translate(640.429688 0)"/>
      <use xlink:href="#DejaVuSans-6d" transform="translate(672.216797 0)"/>
      <use xlink:href="#DejaVuSans-67" transform="translate(769.628906 0)"/>
     </g>
    </g>
    <g id="LineCollection_3">
     <path d="M 337.022 111.976562 
L 337.022 101.976562 
" style="fill: none; stroke: #000000"/>
    </g>
    <g id="line2d_20">
     <path d="M 327.022 106.976562 
L 347.022 106.976562 
" style="fill: none; stroke-dasharray: 3.7,1.6; stroke-dashoffset: 0; stroke: #000000"/>
    </g>
    <g id="line2d_21">
     <g>
      <use xlink:href="#m2a84b89911" x="337.022" y="106.976562" style="stroke: #000000; stroke-linejoin: miter"/>
     </g>
    </g>
    <g id="text_17">
     <!-- *1/*1 25 mg±SD (n=4) -->
     <g transform="translate(355.022 110.476562) scale(0.1 -0.1)">
      <defs>
       <path id="DejaVuSans-b1" d="M 2944 4013 
L 2944 2803 
L 4684 2803 
L 4684 2272 
L 2944 2272 
L 2944 1063 
L 2419 1063 
L 2419 2272 
L 678 2272 
L 678 2803 
L 2419 2803 
L 2419 4013 
L 2944 4013 
z
M 678 531 
L 4684 531 
L 4684 0 
L 678 0 
L 678 531 
z
" transform="scale(0.015625)"/>
       <path id="DejaVuSans-44" d="M 1259 4147 
L 1259 519 
L 2022 519 
Q 2988 519 3436 956 
Q 3884 1394 3884 2338 
Q 3884 3275 3436 3711 
Q 2988 4147 2022 4147 
L 1259 4147 
z
M 628 4666 
L 1925 4666 
Q 3281 4666 3915 4102 
Q 4550 3538 4550 2338 
Q 4550 1131 3912 565 
Q 3275 0 1925 0 
L 628 0 
L 628 4666 
z
" transform="scale(0.015625)"/>
       <path id="DejaVuSans-28" d="M 1984 4856 
Q 1566 4138 1362 3434 
Q 1159 2731 1159 2009 
Q 1159 1288 1364 580 
Q 1569 -128 1984 -844 
L 1484 -844 
Q 1016 -109 783 600 
Q 550 1309 550 2009 
Q 550 2706 781 3412 
Q 1013 4119 1484 4856 
L 1984 4856 
z
" transform="scale(0.015625)"/>
       <path id="DejaVuSans-6e" d="M 3513 2113 
L 3513 0 
L 2938 0 
L 2938 2094 
Q 2938 2591 2744 2837 
Q 2550 3084 2163 3084 
Q 1697 3084 1428 2787 
Q 1159 2491 1159 1978 
L 1159 0 
L 581 0 
L 581 3500 
L 1159 3500 
L 1159 2956 
Q 1366 3272 1645 3428 
Q 1925 3584 2291 3584 
Q 2894 3584 3203 3211 
Q 3513 2838 3513 2113 
z
" transform="scale(0.015625)"/>
       <path id="DejaVuSans-3d" d="M 678 2906 
L 4684 2906 
L 4684 2381 
L 678 2381 
L 678 2906 
z
M 678 1631 
L 4684 1631 
L 4684 1100 
L 678 1100 
L 678 1631 
z
" transform="scale(0.015625)"/>
       <path id="DejaVuSans-34" d="M 2419 4116 
L 825 1625 
L 2419 1625 
L 2419 4116 
z
M 2253 4666 
L 3047 4666 
L 3047 1625 
L 3713 1625 
L 3713 1100 
L 3047 1100 
L 3047 0 
L 2419 0 
L 2419 1100 
L 313 1100 
L 313 1709 
L 2253 4666 
z
" transform="scale(0.015625)"/>
       <path id="DejaVuSans-29" d="M 513 4856 
L 1013 4856 
Q 1481 4119 1714 3412 
Q 1947 2706 1947 2009 
Q 1947 1309 1714 600 
Q 1481 -109 1013 -844 
L 513 -844 
Q 928 -128 1133 580 
Q 1338 1288 1338 2009 
Q 1338 2731 1133 3434 
Q 928 4138 513 4856 
z
" transform="scale(0.015625)"/>
      </defs>
      <use xlink:href="#DejaVuSans-2a"/>
      <use xlink:href="#DejaVuSans-31" transform="translate(50 0)"/>
      <use xlink:href="#DejaVuSans-2f" transform="translate(113.623047 0)"/>
      <use xlink:href="#DejaVuSans-2a" transform="translate(147.314453 0)"/>
      <use xlink:href="#DejaVuSans-31" transform="translate(197.314453 0)"/>
      <use xlink:href="#DejaVuSans-20" transform="translate(260.9375 0)"/>
      <use xlink:href="#DejaVuSans-32" transform="translate(292.724609 0)"/>
      <use xlink:href="#DejaVuSans-35" transform="translate(356.347656 0)"/>
      <use xlink:href="#DejaVuSans-20" transform="translate(419.970703 0)"/>
      <use xlink:href="#DejaVuSans-6d" transform="translate(451.757812 0)"/>
      <use xlink:href="#DejaVuSans-67" transform="translate(549.169922 0)"/>
      <use xlink:href="#DejaVuSans-b1" transform="translate(612.646484 0)"/>
      <use xlink:href="#DejaVuSans-53" transform="translate(696.435547 0)"/>
      <use xlink:href="#DejaVuSans-44" transform="translate(759.912109 0)"/>
      <use xlink:href="#DejaVuSans-20" transform="translate(836.914062 0)"/>
      <use xlink:href="#DejaVuSans-28" transform="translate(868.701172 0)"/>
      <use xlink:href="#DejaVuSans-6e" transform="translate(907.714844 0)"/>
      <use xlink:href="#DejaVuSans-3d" transform="translate(971.09375 0)"/>
      <use xlink:href="#DejaVuSans-34" transform="translate(1054.882812 0)"/>
      <use xlink:href="#DejaVuSans-29" transform="translate(1118.505859 0)"/>
     </g>
    </g>
    <g id="line2d_22">
     <path d="M 327.022 121.654687 
L 347.022 121.654687 
" style="fill: none; stroke: #d62728; stroke-width: 2; stroke-linecap: square"/>
    </g>
    <g id="line2d_23"/>
    <g id="text_18">
     <!-- Sim *1/*3 25 mg -->
     <g transform="translate(355.022 125.154687) scale(0.1 -0.1)">
      <defs>
       <path id="DejaVuSans-33" d="M 2597 2516 
Q 3050 2419 3304 2112 
Q 3559 1806 3559 1356 
Q 3559 666 3084 287 
Q 2609 -91 1734 -91 
Q 1441 -91 1130 -33 
Q 819 25 488 141 
L 488 750 
Q 750 597 1062 519 
Q 1375 441 1716 441 
Q 2309 441 2620 675 
Q 2931 909 2931 1356 
Q 2931 1769 2642 2001 
Q 2353 2234 1838 2234 
L 1294 2234 
L 1294 2753 
L 1863 2753 
Q 2328 2753 2575 2939 
Q 2822 3125 2822 3475 
Q 2822 3834 2567 4026 
Q 2313 4219 1838 4219 
Q 1578 4219 1281 4162 
Q 984 4106 628 3988 
L 628 4550 
Q 988 4650 1302 4700 
Q 1616 4750 1894 4750 
Q 2613 4750 3031 4423 
Q 3450 4097 3450 3541 
Q 3450 3153 3228 2886 
Q 3006 2619 2597 2516 
z
" transform="scale(0.015625)"/>
      </defs>
      <use xlink:href="#DejaVuSans-53"/>
      <use xlink:href="#DejaVuSans-69" transform="translate(63.476562 0)"/>
      <use xlink:href="#DejaVuSans-6d" transform="translate(91.259766 0)"/>
      <use xlink:href="#DejaVuSans-20" transform="translate(188.671875 0)"/>
      <use xlink:href="#DejaVuSans-2a" transform="translate(220.458984 0)"/>
      <use xlink:href="#DejaVuSans-31" transform="translate(270.458984 0)"/>
      <use xlink:href="#DejaVuSans-2f" transform="translate(334.082031 0)"/>
      <use xlink:href="#DejaVuSans-2a" transform="translate(367.773438 0)"/>
      <use xlink:href="#DejaVuSans-33" transform="translate(417.773438 0)"/>
      <use xlink:href="#DejaVuSans-20" transform="translate(481.396484 0)"/>
      <use xlink:href="#DejaVuSans-32" transform="translate(513.183594 0)"/>
      <use xlink:href="#DejaVuSans-35" transform="translate(576.806641 0)"/>
      <use xlink:href="#DejaVuSans-20" transform="translate(640.429688 0)"/>
      <use xlink:href="#DejaVuSans-6d" transform="translate(672.216797 0)"/>
      <use xlink:href="#DejaVuSans-67" transform="translate(769.628906 0)"/>
     </g>
    </g>
    <g id="LineCollection_4">
     <path d="M 337.022 141.332812 
L 337.022 131.332812 
" style="fill: none; stroke: #d62728"/>
    </g>
    <g id="line2d_24">
     <path d="M 327.022 136.332812 
L 347.022 136.332812 
" style="fill: none; stroke-dasharray: 3.7,1.6; stroke-dashoffset: 0; stroke: #d62728"/>
    </g>
    <g id="line2d_25">
     <g>
      <use xlink:href="#m733a02ac31" x="337.022" y="136.332812" style="fill: #d62728; stroke: #000000; stroke-linejoin: miter"/>
     </g>
    </g>
    <g id="text_19">
     <!-- *1/*3 25 mg±SD (n=3) -->
     <g transform="translate(355.022 139.832812) scale(0.1 -0.1)">
      <use xlink:href="#DejaVuSans-2a"/>
      <use xlink:href="#DejaVuSans-31" transform="translate(50 0)"/>
      <use xlink:href="#DejaVuSans-2f" transform="translate(113.623047 0)"/>
      <use xlink:href="#DejaVuSans-2a" transform="translate(147.314453 0)"/>
      <use xlink:href="#DejaVuSans-33" transform="translate(197.314453 0)"/>
      <use xlink:href="#DejaVuSans-20" transform="translate(260.9375 0)"/>
      <use xlink:href="#DejaVuSans-32" transform="translate(292.724609 0)"/>
      <use xlink:href="#DejaVuSans-35" transform="translate(356.347656 0)"/>
      <use xlink:href="#DejaVuSans-20" transform="translate(419.970703 0)"/>
      <use xlink:href="#DejaVuSans-6d" transform="translate(451.757812 0)"/>
      <use xlink:href="#DejaVuSans-67" transform="translate(549.169922 0)"/>
      <use xlink:href="#DejaVuSans-b1" transform="translate(612.646484 0)"/>
      <use xlink:href="#DejaVuSans-53" transform="translate(696.435547 0)"/>
      <use xlink:href="#DejaVuSans-44" transform="translate(759.912109 0)"/>
      <use xlink:href="#DejaVuSans-20" transform="translate(836.914062 0)"/>
      <use xlink:href="#DejaVuSans-28" transform="translate(868.701172 0)"/>
      <use xlink:href="#DejaVuSans-6e" transform="translate(907.714844 0)"/>
      <use xlink:href="#DejaVuSans-3d" transform="translate(971.09375 0)"/>
      <use xlink:href="#DejaVuSans-33" transform="translate(1054.882812 0)"/>
      <use xlink:href="#DejaVuSans-29" transform="translate(1118.505859 0)"/>
     </g>
    </g>
   </g>
  </g>
  <g id="axes_2">
   <g id="patch_8">
    <path d="M 89.175125 633.6 
L 479.775125 633.6 
L 479.775125 392.556522 
L 89.175125 392.556522 
z
" style="fill: #ffffff"/>
   </g>
   <g id="matplotlib.axis_3">
    <g id="xtick_8">
     <g id="line2d_26">
      <g>
       <use xlink:href="#m29d3fd2bc9" x="106.92967" y="633.6" style="stroke: #000000; stroke-width: 0.8"/>
      </g>
     </g>
     <g id="text_20">
      <!-- 0.0 -->
      <g transform="translate(95.002327 651.997656) scale(0.15 -0.15)">
       <use xlink:href="#DejaVuSans-30"/>
       <use xlink:href="#DejaVuSans-2e" transform="translate(63.623047 0)"/>
       <use xlink:href="#DejaVuSans-30" transform="translate(95.410156 0)"/>
      </g>
     </g>
    </g>
    <g id="xtick_9">
     <g id="line2d_27">
      <g>
       <use xlink:href="#m29d3fd2bc9" x="166.111489" y="633.6" style="stroke: #000000; stroke-width: 0.8"/>
      </g>
     </g>
     <g id="text_21">
      <!-- 2.5 -->
      <g transform="translate(154.184145 651.997656) scale(0.15 -0.15)">
       <use xlink:href="#DejaVuSans-32"/>
       <use xlink:href="#DejaVuSans-2e" transform="translate(63.623047 0)"/>
       <use xlink:href="#DejaVuSans-35" transform="translate(95.410156 0)"/>
      </g>
     </g>
    </g>
    <g id="xtick_10">
     <g id="line2d_28">
      <g>
       <use xlink:href="#m29d3fd2bc9" x="225.293307" y="633.6" style="stroke: #000000; stroke-width: 0.8"/>
      </g>
     </g>
     <g id="text_22">
      <!-- 5.0 -->
      <g transform="translate(213.365963 651.997656) scale(0.15 -0.15)">
       <use xlink:href="#DejaVuSans-35"/>
       <use xlink:href="#DejaVuSans-2e" transform="translate(63.623047 0)"/>
       <use xlink:href="#DejaVuSans-30" transform="translate(95.410156 0)"/>
      </g>
     </g>
    </g>
    <g id="xtick_11">
     <g id="line2d_29">
      <g>
       <use xlink:href="#m29d3fd2bc9" x="284.475125" y="633.6" style="stroke: #000000; stroke-width: 0.8"/>
      </g>
     </g>
     <g id="text_23">
      <!-- 7.5 -->
      <g transform="translate(272.547781 651.997656) scale(0.15 -0.15)">
       <use xlink:href="#DejaVuSans-37"/>
       <use xlink:href="#DejaVuSans-2e" transform="translate(63.623047 0)"/>
       <use xlink:href="#DejaVuSans-35" transform="translate(95.410156 0)"/>
      </g>
     </g>
    </g>
    <g id="xtick_12">
     <g id="line2d_30">
      <g>
       <use xlink:href="#m29d3fd2bc9" x="343.656943" y="633.6" style="stroke: #000000; stroke-width: 0.8"/>
      </g>
     </g>
     <g id="text_24">
      <!-- 10.0 -->
      <g transform="translate(326.957724 651.997656) scale(0.15 -0.15)">
       <use xlink:href="#DejaVuSans-31"/>
       <use xlink:href="#DejaVuSans-30" transform="translate(63.623047 0)"/>
       <use xlink:href="#DejaVuSans-2e" transform="translate(127.246094 0)"/>
       <use xlink:href="#DejaVuSans-30" transform="translate(159.033203 0)"/>
      </g>
     </g>
    </g>
    <g id="xtick_13">
     <g id="line2d_31">
      <g>
       <use xlink:href="#m29d3fd2bc9" x="402.838761" y="633.6" style="stroke: #000000; stroke-width: 0.8"/>
      </g>
     </g>
     <g id="text_25">
      <!-- 12.5 -->
      <g transform="translate(386.139543 651.997656) scale(0.15 -0.15)">
       <use xlink:href="#DejaVuSans-31"/>
       <use xlink:href="#DejaVuSans-32" transform="translate(63.623047 0)"/>
       <use xlink:href="#DejaVuSans-2e" transform="translate(127.246094 0)"/>
       <use xlink:href="#DejaVuSans-35" transform="translate(159.033203 0)"/>
      </g>
     </g>
    </g>
    <g id="xtick_14">
     <g id="line2d_32">
      <g>
       <use xlink:href="#m29d3fd2bc9" x="462.02058" y="633.6" style="stroke: #000000; stroke-width: 0.8"/>
      </g>
     </g>
     <g id="text_26">
      <!-- 15.0 -->
      <g transform="translate(445.321361 651.997656) scale(0.15 -0.15)">
       <use xlink:href="#DejaVuSans-31"/>
       <use xlink:href="#DejaVuSans-35" transform="translate(63.623047 0)"/>
       <use xlink:href="#DejaVuSans-2e" transform="translate(127.246094 0)"/>
       <use xlink:href="#DejaVuSans-30" transform="translate(159.033203 0)"/>
      </g>
     </g>
    </g>
    <g id="text_27">
     <!-- Time [hr] -->
     <g transform="translate(237.562625 672.794375) scale(0.18 -0.18)">
      <use xlink:href="#DejaVuSans-Bold-54"/>
      <use xlink:href="#DejaVuSans-Bold-69" transform="translate(68.212891 0)"/>
      <use xlink:href="#DejaVuSans-Bold-6d" transform="translate(102.490234 0)"/>
      <use xlink:href="#DejaVuSans-Bold-65" transform="translate(206.689453 0)"/>
      <use xlink:href="#DejaVuSans-Bold-20" transform="translate(274.511719 0)"/>
      <use xlink:href="#DejaVuSans-Bold-5b" transform="translate(309.326172 0)"/>
      <use xlink:href="#DejaVuSans-Bold-68" transform="translate(355.029297 0)"/>
      <use xlink:href="#DejaVuSans-Bold-72" transform="translate(426.220703 0)"/>
      <use xlink:href="#DejaVuSans-Bold-5d" transform="translate(475.537109 0)"/>
     </g>
    </g>
   </g>
   <g id="matplotlib.axis_4">
    <g id="ytick_7">
     <g id="line2d_33">
      <g>
       <use xlink:href="#mffb52cd53f" x="89.175125" y="622.643478" style="stroke: #000000; stroke-width: 0.8"/>
      </g>
     </g>
     <g id="text_28">
      <!-- 0.0 -->
      <g transform="translate(58.320437 628.342306) scale(0.15 -0.15)">
       <use xlink:href="#DejaVuSans-30"/>
       <use xlink:href="#DejaVuSans-2e" transform="translate(63.623047 0)"/>
       <use xlink:href="#DejaVuSans-30" transform="translate(95.410156 0)"/>
      </g>
     </g>
    </g>
    <g id="ytick_8">
     <g id="line2d_34">
      <g>
       <use xlink:href="#mffb52cd53f" x="89.175125" y="585.351029" style="stroke: #000000; stroke-width: 0.8"/>
      </g>
     </g>
     <g id="text_29">
      <!-- 2.5 -->
      <g transform="translate(58.320437 591.049857) scale(0.15 -0.15)">
       <use xlink:href="#DejaVuSans-32"/>
       <use xlink:href="#DejaVuSans-2e" transform="translate(63.623047 0)"/>
       <use xlink:href="#DejaVuSans-35" transform="translate(95.410156 0)"/>
      </g>
     </g>
    </g>
    <g id="ytick_9">
     <g id="line2d_35">
      <g>
       <use xlink:href="#mffb52cd53f" x="89.175125" y="548.058579" style="stroke: #000000; stroke-width: 0.8"/>
      </g>
     </g>
     <g id="text_30">
      <!-- 5.0 -->
      <g transform="translate(58.320437 553.757407) scale(0.15 -0.15)">
       <use xlink:href="#DejaVuSans-35"/>
       <use xlink:href="#DejaVuSans-2e" transform="translate(63.623047 0)"/>
       <use xlink:href="#DejaVuSans-30" transform="translate(95.410156 0)"/>
      </g>
     </g>
    </g>
    <g id="ytick_10">
     <g id="line2d_36">
      <g>
       <use xlink:href="#mffb52cd53f" x="89.175125" y="510.766129" style="stroke: #000000; stroke-width: 0.8"/>
      </g>
     </g>
     <g id="text_31">
      <!-- 7.5 -->
      <g transform="translate(58.320437 516.464957) scale(0.15 -0.15)">
       <use xlink:href="#DejaVuSans-37"/>
       <use xlink:href="#DejaVuSans-2e" transform="translate(63.623047 0)"/>
       <use xlink:href="#DejaVuSans-35" transform="translate(95.410156 0)"/>
      </g>
     </g>
    </g>
    <g id="ytick_11">
     <g id="line2d_37">
      <g>
       <use xlink:href="#mffb52cd53f" x="89.175125" y="473.473679" style="stroke: #000000; stroke-width: 0.8"/>
      </g>
     </g>
     <g id="text_32">
      <!-- 10.0 -->
      <g transform="translate(48.776687 479.172507) scale(0.15 -0.15)">
       <use xlink:href="#DejaVuSans-31"/>
       <use xlink:href="#DejaVuSans-30" transform="translate(63.623047 0)"/>
       <use xlink:href="#DejaVuSans-2e" transform="translate(127.246094 0)"/>
       <use xlink:href="#DejaVuSans-30" transform="translate(159.033203 0)"/>
      </g>
     </g>
    </g>
    <g id="ytick_12">
     <g id="line2d_38">
      <g>
       <use xlink:href="#mffb52cd53f" x="89.175125" y="436.181229" style="stroke: #000000; stroke-width: 0.8"/>
      </g>
     </g>
     <g id="text_33">
      <!-- 12.5 -->
      <g transform="translate(48.776687 441.880058) scale(0.15 -0.15)">
       <use xlink:href="#DejaVuSans-31"/>
       <use xlink:href="#DejaVuSans-32" transform="translate(63.623047 0)"/>
       <use xlink:href="#DejaVuSans-2e" transform="translate(127.246094 0)"/>
       <use xlink:href="#DejaVuSans-35" transform="translate(159.033203 0)"/>
      </g>
     </g>
    </g>
    <g id="ytick_13">
     <g id="line2d_39">
      <g>
       <use xlink:href="#mffb52cd53f" x="89.175125" y="398.88878" style="stroke: #000000; stroke-width: 0.8"/>
      </g>
     </g>
     <g id="text_34">
      <!-- 15.0 -->
      <g transform="translate(48.776687 404.587608) scale(0.15 -0.15)">
       <use xlink:href="#DejaVuSans-31"/>
       <use xlink:href="#DejaVuSans-35" transform="translate(63.623047 0)"/>
       <use xlink:href="#DejaVuSans-2e" transform="translate(127.246094 0)"/>
       <use xlink:href="#DejaVuSans-30" transform="translate(159.033203 0)"/>
      </g>
     </g>
    </g>
    <g id="text_35">
     <!-- Losartan/E3174 -->
     <g transform="translate(20.877187 592.130605) rotate(-90) scale(0.18 -0.18)">
      <use xlink:href="#DejaVuSans-Bold-4c"/>
      <use xlink:href="#DejaVuSans-Bold-6f" transform="translate(63.720703 0)"/>
      <use xlink:href="#DejaVuSans-Bold-73" transform="translate(132.421875 0)"/>
      <use xlink:href="#DejaVuSans-Bold-61" transform="translate(191.943359 0)"/>
      <use xlink:href="#DejaVuSans-Bold-72" transform="translate(259.423828 0)"/>
      <use xlink:href="#DejaVuSans-Bold-74" transform="translate(308.740234 0)"/>
      <use xlink:href="#DejaVuSans-Bold-61" transform="translate(356.542969 0)"/>
      <use xlink:href="#DejaVuSans-Bold-6e" transform="translate(424.023438 0)"/>
      <use xlink:href="#DejaVuSans-Bold-2f" transform="translate(495.214844 0)"/>
      <use xlink:href="#DejaVuSans-Bold-45" transform="translate(531.738281 0)"/>
      <use xlink:href="#DejaVuSans-Bold-33" transform="translate(600.048828 0)"/>
      <use xlink:href="#DejaVuSans-Bold-31" transform="translate(669.628906 0)"/>
      <use xlink:href="#DejaVuSans-Bold-37" transform="translate(739.208984 0)"/>
      <use xlink:href="#DejaVuSans-Bold-34" transform="translate(808.789062 0)"/>
     </g>
     <!--  urine [-] -->
     <g transform="translate(41.03325 557.747792) rotate(-90) scale(0.18 -0.18)">
      <defs>
       <path id="DejaVuSans-Bold-75" d="M 500 1363 
L 500 3500 
L 1625 3500 
L 1625 3150 
Q 1625 2866 1622 2436 
Q 1619 2006 1619 1863 
Q 1619 1441 1641 1255 
Q 1663 1069 1716 984 
Q 1784 875 1895 815 
Q 2006 756 2150 756 
Q 2500 756 2700 1025 
Q 2900 1294 2900 1772 
L 2900 3500 
L 4019 3500 
L 4019 0 
L 2900 0 
L 2900 506 
Q 2647 200 2364 54 
Q 2081 -91 1741 -91 
Q 1134 -91 817 281 
Q 500 653 500 1363 
z
" transform="scale(0.015625)"/>
      </defs>
      <use xlink:href="#DejaVuSans-Bold-20"/>
      <use xlink:href="#DejaVuSans-Bold-75" transform="translate(34.814453 0)"/>
      <use xlink:href="#DejaVuSans-Bold-72" transform="translate(106.005859 0)"/>
      <use xlink:href="#DejaVuSans-Bold-69" transform="translate(155.322266 0)"/>
      <use xlink:href="#DejaVuSans-Bold-6e" transform="translate(189.599609 0)"/>
      <use xlink:href="#DejaVuSans-Bold-65" transform="translate(260.791016 0)"/>
      <use xlink:href="#DejaVuSans-Bold-20" transform="translate(328.613281 0)"/>
      <use xlink:href="#DejaVuSans-Bold-5b" transform="translate(363.427734 0)"/>
      <use xlink:href="#DejaVuSans-Bold-2d" transform="translate(409.130859 0)"/>
      <use xlink:href="#DejaVuSans-Bold-5d" transform="translate(450.634766 0)"/>
     </g>
    </g>
   </g>
   <g id="LineCollection_5">
    <path clip-path="url(#p37a1c71c40)" style="fill: none; stroke: #000000"/>
    <path d="M 154.275125 613.245781 
L 154.275125 598.627141 
" clip-path="url(#p37a1c71c40)" style="fill: none; stroke: #000000"/>
    <path d="M 248.966034 550.296126 
L 248.966034 539.257561 
" clip-path="url(#p37a1c71c40)" style="fill: none; stroke: #000000"/>
    <path d="M 343.656943 558.947974 
L 343.656943 403.513043 
" clip-path="url(#p37a1c71c40)" style="fill: none; stroke: #000000"/>
   </g>
   <g id="LineCollection_6">
    <path clip-path="url(#p37a1c71c40)" style="fill: none; stroke: #d62728"/>
    <path d="M 154.275125 619.212573 
L 154.275125 610.262385 
" clip-path="url(#p37a1c71c40)" style="fill: none; stroke: #d62728"/>
    <path d="M 248.966034 607.278989 
L 248.966034 579.831746 
" clip-path="url(#p37a1c71c40)" style="fill: none; stroke: #d62728"/>
    <path d="M 343.656943 574.759973 
L 343.656943 545.224353 
" clip-path="url(#p37a1c71c40)" style="fill: none; stroke: #d62728"/>
   </g>
   <g id="line2d_40">
    <path d="M 106.92967 622.643478 
L 112.611125 622.526603 
L 120.423125 622.133806 
L 128.945307 621.472856 
L 138.887852 620.459238 
L 150.960943 618.978677 
L 172.266398 616.07995 
L 192.151489 613.471816 
L 207.065307 611.743846 
L 221.268943 610.321199 
L 236.182761 609.059644 
L 251.806761 607.969613 
L 268.851125 607.011548 
L 288.026034 606.168433 
L 309.331489 605.45883 
L 334.187852 604.856089 
L 364.015489 604.359126 
L 401.655125 603.963903 
L 451.367852 603.67715 
L 462.02058 603.637792 
L 462.02058 603.637792 
" clip-path="url(#p37a1c71c40)" style="fill: none; stroke: #000000; stroke-width: 2; stroke-linecap: square"/>
   </g>
   <g id="line2d_41">
    <path d="M 106.92967 622.643478 
L 154.275125 605.936461 
L 248.966034 544.776843 
L 343.656943 481.230509 
" clip-path="url(#p37a1c71c40)" style="fill: none; stroke-dasharray: 3.7,1.6; stroke-dashoffset: 0; stroke: #000000"/>
    <g clip-path="url(#p37a1c71c40)">
     <use xlink:href="#m2a84b89911" x="106.92967" y="622.643478" style="stroke: #000000; stroke-linejoin: miter"/>
     <use xlink:href="#m2a84b89911" x="154.275125" y="605.936461" style="stroke: #000000; stroke-linejoin: miter"/>
     <use xlink:href="#m2a84b89911" x="248.966034" y="544.776843" style="stroke: #000000; stroke-linejoin: miter"/>
     <use xlink:href="#m2a84b89911" x="343.656943" y="481.230509" style="stroke: #000000; stroke-linejoin: miter"/>
    </g>
   </g>
   <g id="line2d_42">
    <path d="M 106.92967 622.643478 
L 114.031489 622.529444 
L 123.974034 622.140516 
L 135.336943 621.4666 
L 148.830398 620.433275 
L 170.846034 618.480413 
L 195.702398 616.342405 
L 213.456943 615.039933 
L 231.211489 613.961856 
L 249.676216 613.062293 
L 270.271489 612.282979 
L 293.707489 611.620665 
L 322.114761 611.051123 
L 356.91367 610.58873 
L 401.655125 610.228326 
L 462.02058 609.968684 
L 462.02058 609.968684 
" clip-path="url(#p37a1c71c40)" style="fill: none; stroke: #d62728; stroke-width: 2; stroke-linecap: square"/>
   </g>
   <g id="line2d_43">
    <path d="M 106.92967 622.643478 
L 154.275125 614.737479 
L 248.966034 593.555367 
L 343.656943 559.992163 
" clip-path="url(#p37a1c71c40)" style="fill: none; stroke-dasharray: 3.7,1.6; stroke-dashoffset: 0; stroke: #d62728"/>
    <g clip-path="url(#p37a1c71c40)">
     <use xlink:href="#m733a02ac31" x="106.92967" y="622.643478" style="fill: #d62728; stroke: #000000; stroke-linejoin: miter"/>
     <use xlink:href="#m733a02ac31" x="154.275125" y="614.737479" style="fill: #d62728; stroke: #000000; stroke-linejoin: miter"/>
     <use xlink:href="#m733a02ac31" x="248.966034" y="593.555367" style="fill: #d62728; stroke: #000000; stroke-linejoin: miter"/>
     <use xlink:href="#m733a02ac31" x="343.656943" y="559.992163" style="fill: #d62728; stroke: #000000; stroke-linejoin: miter"/>
    </g>
   </g>
   <g id="patch_9">
    <path d="M 89.175125 633.6 
L 89.175125 392.556522 
" style="fill: none; stroke: #000000; stroke-width: 0.8; stroke-linejoin: miter; stroke-linecap: square"/>
   </g>
   <g id="patch_10">
    <path d="M 479.775125 633.6 
L 479.775125 392.556522 
" style="fill: none; stroke: #000000; stroke-width: 0.8; stroke-linejoin: miter; stroke-linecap: square"/>
   </g>
   <g id="patch_11">
    <path d="M 89.175125 633.6 
L 479.775125 633.6 
" style="fill: none; stroke: #000000; stroke-width: 0.8; stroke-linejoin: miter; stroke-linecap: square"/>
   </g>
   <g id="patch_12">
    <path d="M 89.175125 392.556522 
L 479.775125 392.556522 
" style="fill: none; stroke: #000000; stroke-width: 0.8; stroke-linejoin: miter; stroke-linecap: square"/>
   </g>
   <g id="legend_2">
    <g id="patch_13">
     <path d="M 325.022 459.269022 
L 472.775125 459.269022 
Q 474.775125 459.269022 474.775125 457.269022 
L 474.775125 399.556522 
Q 474.775125 397.556522 472.775125 397.556522 
L 325.022 397.556522 
Q 323.022 397.556522 323.022 399.556522 
L 323.022 457.269022 
Q 323.022 459.269022 325.022 459.269022 
z
" style="fill: #ffffff; opacity: 0.8; stroke: #cccccc; stroke-linejoin: miter"/>
    </g>
    <g id="line2d_44">
     <path d="M 327.022 405.654959 
L 347.022 405.654959 
" style="fill: none; stroke: #000000; stroke-width: 2; stroke-linecap: square"/>
    </g>
    <g id="line2d_45"/>
    <g id="text_36">
     <!-- Sim *1/*1 25 mg -->
     <g transform="translate(355.022 409.154959) scale(0.1 -0.1)">
      <use xlink:href="#DejaVuSans-53"/>
      <use xlink:href="#DejaVuSans-69" transform="translate(63.476562 0)"/>
      <use xlink:href="#DejaVuSans-6d" transform="translate(91.259766 0)"/>
      <use xlink:href="#DejaVuSans-20" transform="translate(188.671875 0)"/>
      <use xlink:href="#DejaVuSans-2a" transform="translate(220.458984 0)"/>
      <use xlink:href="#DejaVuSans-31" transform="translate(270.458984 0)"/>
      <use xlink:href="#DejaVuSans-2f" transform="translate(334.082031 0)"/>
      <use xlink:href="#DejaVuSans-2a" transform="translate(367.773438 0)"/>
      <use xlink:href="#DejaVuSans-31" transform="translate(417.773438 0)"/>
      <use xlink:href="#DejaVuSans-20" transform="translate(481.396484 0)"/>
      <use xlink:href="#DejaVuSans-32" transform="translate(513.183594 0)"/>
      <use xlink:href="#DejaVuSans-35" transform="translate(576.806641 0)"/>
      <use xlink:href="#DejaVuSans-20" transform="translate(640.429688 0)"/>
      <use xlink:href="#DejaVuSans-6d" transform="translate(672.216797 0)"/>
      <use xlink:href="#DejaVuSans-67" transform="translate(769.628906 0)"/>
     </g>
    </g>
    <g id="LineCollection_7">
     <path d="M 337.022 425.333084 
L 337.022 415.333084 
" style="fill: none; stroke: #000000"/>
    </g>
    <g id="line2d_46">
     <path d="M 327.022 420.333084 
L 347.022 420.333084 
" style="fill: none; stroke-dasharray: 3.7,1.6; stroke-dashoffset: 0; stroke: #000000"/>
    </g>
    <g id="line2d_47">
     <g>
      <use xlink:href="#m2a84b89911" x="337.022" y="420.333084" style="stroke: #000000; stroke-linejoin: miter"/>
     </g>
    </g>
    <g id="text_37">
     <!-- *1/*1 25 mg±SD (n=4) -->
     <g transform="translate(355.022 423.833084) scale(0.1 -0.1)">
      <use xlink:href="#DejaVuSans-2a"/>
      <use xlink:href="#DejaVuSans-31" transform="translate(50 0)"/>
      <use xlink:href="#DejaVuSans-2f" transform="translate(113.623047 0)"/>
      <use xlink:href="#DejaVuSans-2a" transform="translate(147.314453 0)"/>
      <use xlink:href="#DejaVuSans-31" transform="translate(197.314453 0)"/>
      <use xlink:href="#DejaVuSans-20" transform="translate(260.9375 0)"/>
      <use xlink:href="#DejaVuSans-32" transform="translate(292.724609 0)"/>
      <use xlink:href="#DejaVuSans-35" transform="translate(356.347656 0)"/>
      <use xlink:href="#DejaVuSans-20" transform="translate(419.970703 0)"/>
      <use xlink:href="#DejaVuSans-6d" transform="translate(451.757812 0)"/>
      <use xlink:href="#DejaVuSans-67" transform="translate(549.169922 0)"/>
      <use xlink:href="#DejaVuSans-b1" transform="translate(612.646484 0)"/>
      <use xlink:href="#DejaVuSans-53" transform="translate(696.435547 0)"/>
      <use xlink:href="#DejaVuSans-44" transform="translate(759.912109 0)"/>
      <use xlink:href="#DejaVuSans-20" transform="translate(836.914062 0)"/>
      <use xlink:href="#DejaVuSans-28" transform="translate(868.701172 0)"/>
      <use xlink:href="#DejaVuSans-6e" transform="translate(907.714844 0)"/>
      <use xlink:href="#DejaVuSans-3d" transform="translate(971.09375 0)"/>
      <use xlink:href="#DejaVuSans-34" transform="translate(1054.882812 0)"/>
      <use xlink:href="#DejaVuSans-29" transform="translate(1118.505859 0)"/>
     </g>
    </g>
    <g id="line2d_48">
     <path d="M 327.022 435.011209 
L 347.022 435.011209 
" style="fill: none; stroke: #d62728; stroke-width: 2; stroke-linecap: square"/>
    </g>
    <g id="line2d_49"/>
    <g id="text_38">
     <!-- Sim *1/*3 25 mg -->
     <g transform="translate(355.022 438.511209) scale(0.1 -0.1)">
      <use xlink:href="#DejaVuSans-53"/>
      <use xlink:href="#DejaVuSans-69" transform="translate(63.476562 0)"/>
      <use xlink:href="#DejaVuSans-6d" transform="translate(91.259766 0)"/>
      <use xlink:href="#DejaVuSans-20" transform="translate(188.671875 0)"/>
      <use xlink:href="#DejaVuSans-2a" transform="translate(220.458984 0)"/>
      <use xlink:href="#DejaVuSans-31" transform="translate(270.458984 0)"/>
      <use xlink:href="#DejaVuSans-2f" transform="translate(334.082031 0)"/>
      <use xlink:href="#DejaVuSans-2a" transform="translate(367.773438 0)"/>
      <use xlink:href="#DejaVuSans-33" transform="translate(417.773438 0)"/>
      <use xlink:href="#DejaVuSans-20" transform="translate(481.396484 0)"/>
      <use xlink:href="#DejaVuSans-32" transform="translate(513.183594 0)"/>
      <use xlink:href="#DejaVuSans-35" transform="translate(576.806641 0)"/>
      <use xlink:href="#DejaVuSans-20" transform="translate(640.429688 0)"/>
      <use xlink:href="#DejaVuSans-6d" transform="translate(672.216797 0)"/>
      <use xlink:href="#DejaVuSans-67" transform="translate(769.628906 0)"/>
     </g>
    </g>
    <g id="LineCollection_8">
     <path d="M 337.022 454.689334 
L 337.022 444.689334 
" style="fill: none; stroke: #d62728"/>
    </g>
    <g id="line2d_50">
     <path d="M 327.022 449.689334 
L 347.022 449.689334 
" style="fill: none; stroke-dasharray: 3.7,1.6; stroke-dashoffset: 0; stroke: #d62728"/>
    </g>
    <g id="line2d_51">
     <g>
      <use xlink:href="#m733a02ac31" x="337.022" y="449.689334" style="fill: #d62728; stroke: #000000; stroke-linejoin: miter"/>
     </g>
    </g>
    <g id="text_39">
     <!-- *1/*3 25 mg±SD (n=3) -->
     <g transform="translate(355.022 453.189334) scale(0.1 -0.1)">
      <use xlink:href="#DejaVuSans-2a"/>
      <use xlink:href="#DejaVuSans-31" transform="translate(50 0)"/>
      <use xlink:href="#DejaVuSans-2f" transform="translate(113.623047 0)"/>
      <use xlink:href="#DejaVuSans-2a" transform="translate(147.314453 0)"/>
      <use xlink:href="#DejaVuSans-33" transform="translate(197.314453 0)"/>
      <use xlink:href="#DejaVuSans-20" transform="translate(260.9375 0)"/>
      <use xlink:href="#DejaVuSans-32" transform="translate(292.724609 0)"/>
      <use xlink:href="#DejaVuSans-35" transform="translate(356.347656 0)"/>
      <use xlink:href="#DejaVuSans-20" transform="translate(419.970703 0)"/>
      <use xlink:href="#DejaVuSans-6d" transform="translate(451.757812 0)"/>
      <use xlink:href="#DejaVuSans-67" transform="translate(549.169922 0)"/>
      <use xlink:href="#DejaVuSans-b1" transform="translate(612.646484 0)"/>
      <use xlink:href="#DejaVuSans-53" transform="translate(696.435547 0)"/>
      <use xlink:href="#DejaVuSans-44" transform="translate(759.912109 0)"/>
      <use xlink:href="#DejaVuSans-20" transform="translate(836.914062 0)"/>
      <use xlink:href="#DejaVuSans-28" transform="translate(868.701172 0)"/>
      <use xlink:href="#DejaVuSans-6e" transform="translate(907.714844 0)"/>
      <use xlink:href="#DejaVuSans-3d" transform="translate(971.09375 0)"/>
      <use xlink:href="#DejaVuSans-33" transform="translate(1054.882812 0)"/>
      <use xlink:href="#DejaVuSans-29" transform="translate(1118.505859 0)"/>
     </g>
    </g>
   </g>
  </g>
  <g id="text_40">
   <!-- Sekino2003 (healthy) -->
   <g transform="translate(126.925125 26.196094) scale(0.25 -0.25)">
    <defs>
     <path id="DejaVuSans-Bold-53" d="M 3834 4519 
L 3834 3531 
Q 3450 3703 3084 3790 
Q 2719 3878 2394 3878 
Q 1963 3878 1756 3759 
Q 1550 3641 1550 3391 
Q 1550 3203 1689 3098 
Q 1828 2994 2194 2919 
L 2706 2816 
Q 3484 2659 3812 2340 
Q 4141 2022 4141 1434 
Q 4141 663 3683 286 
Q 3225 -91 2284 -91 
Q 1841 -91 1394 -6 
Q 947 78 500 244 
L 500 1259 
Q 947 1022 1364 901 
Q 1781 781 2169 781 
Q 2563 781 2772 912 
Q 2981 1044 2981 1288 
Q 2981 1506 2839 1625 
Q 2697 1744 2272 1838 
L 1806 1941 
Q 1106 2091 782 2419 
Q 459 2747 459 3303 
Q 459 4000 909 4375 
Q 1359 4750 2203 4750 
Q 2588 4750 2994 4692 
Q 3400 4634 3834 4519 
z
" transform="scale(0.015625)"/>
     <path id="DejaVuSans-Bold-6b" d="M 538 4863 
L 1656 4863 
L 1656 2216 
L 2944 3500 
L 4244 3500 
L 2534 1894 
L 4378 0 
L 3022 0 
L 1656 1459 
L 1656 0 
L 538 0 
L 538 4863 
z
" transform="scale(0.015625)"/>
     <path id="DejaVuSans-Bold-32" d="M 1844 884 
L 3897 884 
L 3897 0 
L 506 0 
L 506 884 
L 2209 2388 
Q 2438 2594 2547 2791 
Q 2656 2988 2656 3200 
Q 2656 3528 2436 3728 
Q 2216 3928 1850 3928 
Q 1569 3928 1234 3808 
Q 900 3688 519 3450 
L 519 4475 
Q 925 4609 1322 4679 
Q 1719 4750 2100 4750 
Q 2938 4750 3402 4381 
Q 3866 4013 3866 3353 
Q 3866 2972 3669 2642 
Q 3472 2313 2841 1759 
L 1844 884 
z
" transform="scale(0.015625)"/>
     <path id="DejaVuSans-Bold-30" d="M 2944 2338 
Q 2944 3213 2780 3570 
Q 2616 3928 2228 3928 
Q 1841 3928 1675 3570 
Q 1509 3213 1509 2338 
Q 1509 1453 1675 1090 
Q 1841 728 2228 728 
Q 2613 728 2778 1090 
Q 2944 1453 2944 2338 
z
M 4147 2328 
Q 4147 1169 3647 539 
Q 3147 -91 2228 -91 
Q 1306 -91 806 539 
Q 306 1169 306 2328 
Q 306 3491 806 4120 
Q 1306 4750 2228 4750 
Q 3147 4750 3647 4120 
Q 4147 3491 4147 2328 
z
" transform="scale(0.015625)"/>
     <path id="DejaVuSans-Bold-28" d="M 2413 -844 
L 1484 -844 
Q 1006 -72 778 623 
Q 550 1319 550 2003 
Q 550 2688 779 3389 
Q 1009 4091 1484 4856 
L 2413 4856 
Q 2013 4116 1813 3408 
Q 1613 2700 1613 2009 
Q 1613 1319 1811 609 
Q 2009 -100 2413 -844 
z
" transform="scale(0.015625)"/>
     <path id="DejaVuSans-Bold-6c" d="M 538 4863 
L 1656 4863 
L 1656 0 
L 538 0 
L 538 4863 
z
" transform="scale(0.015625)"/>
     <path id="DejaVuSans-Bold-79" d="M 78 3500 
L 1197 3500 
L 2138 1125 
L 2938 3500 
L 4056 3500 
L 2584 -331 
Q 2363 -916 2067 -1148 
Q 1772 -1381 1288 -1381 
L 641 -1381 
L 641 -647 
L 991 -647 
Q 1275 -647 1404 -556 
Q 1534 -466 1606 -231 
L 1638 -134 
L 78 3500 
z
" transform="scale(0.015625)"/>
     <path id="DejaVuSans-Bold-29" d="M 513 -844 
Q 913 -100 1113 609 
Q 1313 1319 1313 2009 
Q 1313 2700 1113 3408 
Q 913 4116 513 4856 
L 1441 4856 
Q 1916 4091 2145 3389 
Q 2375 2688 2375 2003 
Q 2375 1319 2147 623 
Q 1919 -72 1441 -844 
L 513 -844 
z
" transform="scale(0.015625)"/>
    </defs>
    <use xlink:href="#DejaVuSans-Bold-53"/>
    <use xlink:href="#DejaVuSans-Bold-65" transform="translate(72.021484 0)"/>
    <use xlink:href="#DejaVuSans-Bold-6b" transform="translate(139.84375 0)"/>
    <use xlink:href="#DejaVuSans-Bold-69" transform="translate(206.347656 0)"/>
    <use xlink:href="#DejaVuSans-Bold-6e" transform="translate(240.625 0)"/>
    <use xlink:href="#DejaVuSans-Bold-6f" transform="translate(311.816406 0)"/>
    <use xlink:href="#DejaVuSans-Bold-32" transform="translate(380.517578 0)"/>
    <use xlink:href="#DejaVuSans-Bold-30" transform="translate(450.097656 0)"/>
    <use xlink:href="#DejaVuSans-Bold-30" transform="translate(519.677734 0)"/>
    <use xlink:href="#DejaVuSans-Bold-33" transform="translate(589.257812 0)"/>
    <use xlink:href="#DejaVuSans-Bold-20" transform="translate(658.837891 0)"/>
    <use xlink:href="#DejaVuSans-Bold-28" transform="translate(693.652344 0)"/>
    <use xlink:href="#DejaVuSans-Bold-68" transform="translate(739.355469 0)"/>
    <use xlink:href="#DejaVuSans-Bold-65" transform="translate(810.546875 0)"/>
    <use xlink:href="#DejaVuSans-Bold-61" transform="translate(878.369141 0)"/>
    <use xlink:href="#DejaVuSans-Bold-6c" transform="translate(945.849609 0)"/>
    <use xlink:href="#DejaVuSans-Bold-74" transform="translate(980.126953 0)"/>
    <use xlink:href="#DejaVuSans-Bold-68" transform="translate(1027.929688 0)"/>
    <use xlink:href="#DejaVuSans-Bold-79" transform="translate(1099.121094 0)"/>
    <use xlink:href="#DejaVuSans-Bold-29" transform="translate(1164.306641 0)"/>
   </g>
  </g>
 </g>
 <defs>
  <clipPath id="p0d5e7e87af">
   <rect x="89.175125" y="79.2" width="390.6" height="241.043478"/>
  </clipPath>
  <clipPath id="p37a1c71c40">
   <rect x="89.175125" y="392.556522" width="390.6" height="241.043478"/>
  </clipPath>
 </defs>
</svg>
