<?xml version="1.0" encoding="utf-8" standalone="no"?>
<!DOCTYPE svg PUBLIC "-//W3C//DTD SVG 1.1//EN"
  "http://www.w3.org/Graphics/SVG/1.1/DTD/svg11.dtd">
<svg xmlns:xlink="http://www.w3.org/1999/xlink" width="852.651875pt" height="683.737812pt" viewBox="0 0 852.651875 683.737812" xmlns="http://www.w3.org/2000/svg" version="1.1">
 <metadata>
  <rdf:RDF xmlns:dc="http://purl.org/dc/elements/1.1/" xmlns:cc="http://creativecommons.org/ns#" xmlns:rdf="http://www.w3.org/1999/02/22-rdf-syntax-ns#">
   <cc:Work>
    <dc:type rdf:resource="http://purl.org/dc/dcmitype/StillImage"/>
    <dc:date>2026-01-11T14:44:17.954054</dc:date>
    <dc:format>image/svg+xml</dc:format>
    <dc:creator>
     <cc:Agent>
      <dc:title>Matplotlib v3.10.8, https://matplotlib.org/</dc:title>
     </cc:Agent>
    </dc:creator>
   </cc:Work>
  </rdf:RDF>
 </metadata>
 <defs>
  <style type="text/css">*{stroke-linejoin: round; stroke-linecap: butt}</style>
 </defs>
 <g id="figure_1">
  <g id="patch_1">
   <path d="M 0 683.737812 
L 852.651875 683.737812 
L 852.651875 0 
L 0 0 
z
" style="fill: #ffffff"/>
  </g>
  <g id="axes_1">
   <g id="patch_2">
    <path d="M 64.251875 320.243478 
L 403.904049 320.243478 
L 403.904049 79.2 
L 64.251875 79.2 
z
" style="fill: #ffffff"/>
   </g>
   <g id="matplotlib.axis_1">
    <g id="xtick_1">
     <g id="line2d_1">
      <defs>
       <path id="m8ad8fc9432" d="M 0 0 
L 0 3.5 
" style="stroke: #000000; stroke-width: 0.8"/>
      </defs>
      <g>
       <use xlink:href="#m8ad8fc9432" x="79.69061" y="320.243478" style="stroke: #000000; stroke-width: 0.8"/>
      </g>
     </g>
     <g id="text_1">
      <!-- 0 -->
      <g transform="translate(74.918735 338.641135) scale(0.15 -0.15)">
       <defs>
        <path id="DejaVuSans-30" d="M 2034 4250 
Q 1547 4250 1301 3770 
Q 1056 3291 1056 2328 
Q 1056 1369 1301 889 
Q 1547 409 2034 409 
Q 2525 409 2770 889 
Q 3016 1369 3016 2328 
Q 3016 3291 2770 3770 
Q 2525 4250 2034 4250 
z
M 2034 4750 
Q 2819 4750 3233 4129 
Q 3647 3509 3647 2328 
Q 3647 1150 3233 529 
Q 2819 -91 2034 -91 
Q 1250 -91 836 529 
Q 422 1150 422 2328 
Q 422 3509 836 4129 
Q 1250 4750 2034 4750 
z
" transform="scale(0.015625)"/>
       </defs>
       <use xlink:href="#DejaVuSans-30"/>
      </g>
     </g>
    </g>
    <g id="xtick_2">
     <g id="line2d_2">
      <g>
       <use xlink:href="#m8ad8fc9432" x="141.445551" y="320.243478" style="stroke: #000000; stroke-width: 0.8"/>
      </g>
     </g>
     <g id="text_2">
      <!-- 5 -->
      <g transform="translate(136.673676 338.641135) scale(0.15 -0.15)">
       <defs>
        <path id="DejaVuSans-35" d="M 691 4666 
L 3169 4666 
L 3169 4134 
L 1269 4134 
L 1269 2991 
Q 1406 3038 1543 3061 
Q 1681 3084 1819 3084 
Q 2600 3084 3056 2656 
Q 3513 2228 3513 1497 
Q 3513 744 3044 326 
Q 2575 -91 1722 -91 
Q 1428 -91 1123 -41 
Q 819 9 494 109 
L 494 744 
Q 775 591 1075 516 
Q 1375 441 1709 441 
Q 2250 441 2565 725 
Q 2881 1009 2881 1497 
Q 2881 1984 2565 2268 
Q 2250 2553 1709 2553 
Q 1456 2553 1204 2497 
Q 953 2441 691 2322 
L 691 4666 
z
" transform="scale(0.015625)"/>
       </defs>
       <use xlink:href="#DejaVuSans-35"/>
      </g>
     </g>
    </g>
    <g id="xtick_3">
     <g id="line2d_3">
      <g>
       <use xlink:href="#m8ad8fc9432" x="203.200492" y="320.243478" style="stroke: #000000; stroke-width: 0.8"/>
      </g>
     </g>
     <g id="text_3">
      <!-- 10 -->
      <g transform="translate(193.656742 338.641135) scale(0.15 -0.15)">
       <defs>
        <path id="DejaVuSans-31" d="M 794 531 
L 1825 531 
L 1825 4091 
L 703 3866 
L 703 4441 
L 1819 4666 
L 2450 4666 
L 2450 531 
L 3481 531 
L 3481 0 
L 794 0 
L 794 531 
z
" transform="scale(0.015625)"/>
       </defs>
       <use xlink:href="#DejaVuSans-31"/>
       <use xlink:href="#DejaVuSans-30" transform="translate(63.623047 0)"/>
      </g>
     </g>
    </g>
    <g id="xtick_4">
     <g id="line2d_4">
      <g>
       <use xlink:href="#m8ad8fc9432" x="264.955432" y="320.243478" style="stroke: #000000; stroke-width: 0.8"/>
      </g>
     </g>
     <g id="text_4">
      <!-- 15 -->
      <g transform="translate(255.411682 338.641135) scale(0.15 -0.15)">
       <use xlink:href="#DejaVuSans-31"/>
       <use xlink:href="#DejaVuSans-35" transform="translate(63.623047 0)"/>
      </g>
     </g>
    </g>
    <g id="xtick_5">
     <g id="line2d_5">
      <g>
       <use xlink:href="#m8ad8fc9432" x="326.710373" y="320.243478" style="stroke: #000000; stroke-width: 0.8"/>
      </g>
     </g>
     <g id="text_5">
      <!-- 20 -->
      <g transform="translate(317.166623 338.641135) scale(0.15 -0.15)">
       <defs>
        <path id="DejaVuSans-32" d="M 1228 531 
L 3431 531 
L 3431 0 
L 469 0 
L 469 531 
Q 828 903 1448 1529 
Q 2069 2156 2228 2338 
Q 2531 2678 2651 2914 
Q 2772 3150 2772 3378 
Q 2772 3750 2511 3984 
Q 2250 4219 1831 4219 
Q 1534 4219 1204 4116 
Q 875 4013 500 3803 
L 500 4441 
Q 881 4594 1212 4672 
Q 1544 4750 1819 4750 
Q 2544 4750 2975 4387 
Q 3406 4025 3406 3419 
Q 3406 3131 3298 2873 
Q 3191 2616 2906 2266 
Q 2828 2175 2409 1742 
Q 1991 1309 1228 531 
z
" transform="scale(0.015625)"/>
       </defs>
       <use xlink:href="#DejaVuSans-32"/>
       <use xlink:href="#DejaVuSans-30" transform="translate(63.623047 0)"/>
      </g>
     </g>
    </g>
    <g id="xtick_6">
     <g id="line2d_6">
      <g>
       <use xlink:href="#m8ad8fc9432" x="388.465314" y="320.243478" style="stroke: #000000; stroke-width: 0.8"/>
      </g>
     </g>
     <g id="text_6">
      <!-- 25 -->
      <g transform="translate(378.921564 338.641135) scale(0.15 -0.15)">
       <use xlink:href="#DejaVuSans-32"/>
       <use xlink:href="#DejaVuSans-35" transform="translate(63.623047 0)"/>
      </g>
     </g>
    </g>
    <g id="text_7">
     <!-- Time [hr] -->
     <g transform="translate(187.165462 359.437853) scale(0.18 -0.18)">
      <defs>
       <path id="DejaVuSans-Bold-54" d="M 31 4666 
L 4331 4666 
L 4331 3756 
L 2784 3756 
L 2784 0 
L 1581 0 
L 1581 3756 
L 31 3756 
L 31 4666 
z
" transform="scale(0.015625)"/>
       <path id="DejaVuSans-Bold-69" d="M 538 3500 
L 1656 3500 
L 1656 0 
L 538 0 
L 538 3500 
z
M 538 4863 
L 1656 4863 
L 1656 3950 
L 538 3950 
L 538 4863 
z
" transform="scale(0.015625)"/>
       <path id="DejaVuSans-Bold-6d" d="M 3781 2919 
Q 3994 3244 4286 3414 
Q 4578 3584 4928 3584 
Q 5531 3584 5847 3212 
Q 6163 2841 6163 2131 
L 6163 0 
L 5038 0 
L 5038 1825 
Q 5041 1866 5042 1909 
Q 5044 1953 5044 2034 
Q 5044 2406 4934 2573 
Q 4825 2741 4581 2741 
Q 4263 2741 4089 2478 
Q 3916 2216 3909 1719 
L 3909 0 
L 2784 0 
L 2784 1825 
Q 2784 2406 2684 2573 
Q 2584 2741 2328 2741 
Q 2006 2741 1831 2477 
Q 1656 2213 1656 1722 
L 1656 0 
L 531 0 
L 531 3500 
L 1656 3500 
L 1656 2988 
Q 1863 3284 2130 3434 
Q 2397 3584 2719 3584 
Q 3081 3584 3359 3409 
Q 3638 3234 3781 2919 
z
" transform="scale(0.015625)"/>
       <path id="DejaVuSans-Bold-65" d="M 4031 1759 
L 4031 1441 
L 1416 1441 
Q 1456 1047 1700 850 
Q 1944 653 2381 653 
Q 2734 653 3104 758 
Q 3475 863 3866 1075 
L 3866 213 
Q 3469 63 3072 -14 
Q 2675 -91 2278 -91 
Q 1328 -91 801 392 
Q 275 875 275 1747 
Q 275 2603 792 3093 
Q 1309 3584 2216 3584 
Q 3041 3584 3536 3087 
Q 4031 2591 4031 1759 
z
M 2881 2131 
Q 2881 2450 2695 2645 
Q 2509 2841 2209 2841 
Q 1884 2841 1681 2658 
Q 1478 2475 1428 2131 
L 2881 2131 
z
" transform="scale(0.015625)"/>
       <path id="DejaVuSans-Bold-20" transform="scale(0.015625)"/>
       <path id="DejaVuSans-Bold-5b" d="M 550 4863 
L 2491 4863 
L 2491 4159 
L 1613 4159 
L 1613 -141 
L 2491 -141 
L 2491 -844 
L 550 -844 
L 550 4863 
z
" transform="scale(0.015625)"/>
       <path id="DejaVuSans-Bold-68" d="M 4056 2131 
L 4056 0 
L 2931 0 
L 2931 347 
L 2931 1625 
Q 2931 2084 2911 2256 
Q 2891 2428 2841 2509 
Q 2775 2619 2662 2680 
Q 2550 2741 2406 2741 
Q 2056 2741 1856 2470 
Q 1656 2200 1656 1722 
L 1656 0 
L 538 0 
L 538 4863 
L 1656 4863 
L 1656 2988 
Q 1909 3294 2193 3439 
Q 2478 3584 2822 3584 
Q 3428 3584 3742 3212 
Q 4056 2841 4056 2131 
z
" transform="scale(0.015625)"/>
       <path id="DejaVuSans-Bold-72" d="M 3138 2547 
Q 2991 2616 2845 2648 
Q 2700 2681 2553 2681 
Q 2122 2681 1889 2404 
Q 1656 2128 1656 1613 
L 1656 0 
L 538 0 
L 538 3500 
L 1656 3500 
L 1656 2925 
Q 1872 3269 2151 3426 
Q 2431 3584 2822 3584 
Q 2878 3584 2943 3579 
Q 3009 3575 3134 3559 
L 3138 2547 
z
" transform="scale(0.015625)"/>
       <path id="DejaVuSans-Bold-5d" d="M 2375 -844 
L 434 -844 
L 434 -141 
L 1313 -141 
L 1313 4159 
L 434 4159 
L 434 4863 
L 2375 4863 
L 2375 -844 
z
" transform="scale(0.015625)"/>
      </defs>
      <use xlink:href="#DejaVuSans-Bold-54"/>
      <use xlink:href="#DejaVuSans-Bold-69" transform="translate(68.212891 0)"/>
      <use xlink:href="#DejaVuSans-Bold-6d" transform="translate(102.490234 0)"/>
      <use xlink:href="#DejaVuSans-Bold-65" transform="translate(206.689453 0)"/>
      <use xlink:href="#DejaVuSans-Bold-20" transform="translate(274.511719 0)"/>
      <use xlink:href="#DejaVuSans-Bold-5b" transform="translate(309.326172 0)"/>
      <use xlink:href="#DejaVuSans-Bold-68" transform="translate(355.029297 0)"/>
      <use xlink:href="#DejaVuSans-Bold-72" transform="translate(426.220703 0)"/>
      <use xlink:href="#DejaVuSans-Bold-5d" transform="translate(475.537109 0)"/>
     </g>
    </g>
   </g>
   <g id="matplotlib.axis_2">
    <g id="ytick_1">
     <g id="line2d_7">
      <defs>
       <path id="m61bab6e982" d="M 0 0 
L -3.5 0 
" style="stroke: #000000; stroke-width: 0.8"/>
      </defs>
      <g>
       <use xlink:href="#m61bab6e982" x="64.251875" y="292.008472" style="stroke: #000000; stroke-width: 0.8"/>
      </g>
     </g>
     <g id="text_8">
      <!-- 0 -->
      <g transform="translate(47.708125 297.707301) scale(0.15 -0.15)">
       <use xlink:href="#DejaVuSans-30"/>
      </g>
     </g>
    </g>
    <g id="ytick_2">
     <g id="line2d_8">
      <g>
       <use xlink:href="#m61bab6e982" x="64.251875" y="237.92256" style="stroke: #000000; stroke-width: 0.8"/>
      </g>
     </g>
     <g id="text_9">
      <!-- 100 -->
      <g transform="translate(28.620625 243.621388) scale(0.15 -0.15)">
       <use xlink:href="#DejaVuSans-31"/>
       <use xlink:href="#DejaVuSans-30" transform="translate(63.623047 0)"/>
       <use xlink:href="#DejaVuSans-30" transform="translate(127.246094 0)"/>
      </g>
     </g>
    </g>
    <g id="ytick_3">
     <g id="line2d_9">
      <g>
       <use xlink:href="#m61bab6e982" x="64.251875" y="183.836648" style="stroke: #000000; stroke-width: 0.8"/>
      </g>
     </g>
     <g id="text_10">
      <!-- 200 -->
      <g transform="translate(28.620625 189.535476) scale(0.15 -0.15)">
       <use xlink:href="#DejaVuSans-32"/>
       <use xlink:href="#DejaVuSans-30" transform="translate(63.623047 0)"/>
       <use xlink:href="#DejaVuSans-30" transform="translate(127.246094 0)"/>
      </g>
     </g>
    </g>
    <g id="ytick_4">
     <g id="line2d_10">
      <g>
       <use xlink:href="#m61bab6e982" x="64.251875" y="129.750736" style="stroke: #000000; stroke-width: 0.8"/>
      </g>
     </g>
     <g id="text_11">
      <!-- 300 -->
      <g transform="translate(28.620625 135.449564) scale(0.15 -0.15)">
       <defs>
        <path id="DejaVuSans-33" d="M 2597 2516 
Q 3050 2419 3304 2112 
Q 3559 1806 3559 1356 
Q 3559 666 3084 287 
Q 2609 -91 1734 -91 
Q 1441 -91 1130 -33 
Q 819 25 488 141 
L 488 750 
Q 750 597 1062 519 
Q 1375 441 1716 441 
Q 2309 441 2620 675 
Q 2931 909 2931 1356 
Q 2931 1769 2642 2001 
Q 2353 2234 1838 2234 
L 1294 2234 
L 1294 2753 
L 1863 2753 
Q 2328 2753 2575 2939 
Q 2822 3125 2822 3475 
Q 2822 3834 2567 4026 
Q 2313 4219 1838 4219 
Q 1578 4219 1281 4162 
Q 984 4106 628 3988 
L 628 4550 
Q 988 4650 1302 4700 
Q 1616 4750 1894 4750 
Q 2613 4750 3031 4423 
Q 3450 4097 3450 3541 
Q 3450 3153 3228 2886 
Q 3006 2619 2597 2516 
z
" transform="scale(0.015625)"/>
       </defs>
       <use xlink:href="#DejaVuSans-33"/>
       <use xlink:href="#DejaVuSans-30" transform="translate(63.623047 0)"/>
       <use xlink:href="#DejaVuSans-30" transform="translate(127.246094 0)"/>
      </g>
     </g>
    </g>
    <g id="text_12">
     <!-- Losartan [nM] -->
     <g transform="translate(20.877187 271.012989) rotate(-90) scale(0.18 -0.18)">
      <defs>
       <path id="DejaVuSans-Bold-4c" d="M 588 4666 
L 1791 4666 
L 1791 909 
L 3903 909 
L 3903 0 
L 588 0 
L 588 4666 
z
" transform="scale(0.015625)"/>
       <path id="DejaVuSans-Bold-6f" d="M 2203 2784 
Q 1831 2784 1636 2517 
Q 1441 2250 1441 1747 
Q 1441 1244 1636 976 
Q 1831 709 2203 709 
Q 2569 709 2762 976 
Q 2956 1244 2956 1747 
Q 2956 2250 2762 2517 
Q 2569 2784 2203 2784 
z
M 2203 3584 
Q 3106 3584 3614 3096 
Q 4122 2609 4122 1747 
Q 4122 884 3614 396 
Q 3106 -91 2203 -91 
Q 1297 -91 786 396 
Q 275 884 275 1747 
Q 275 2609 786 3096 
Q 1297 3584 2203 3584 
z
" transform="scale(0.015625)"/>
       <path id="DejaVuSans-Bold-73" d="M 3272 3391 
L 3272 2541 
Q 2913 2691 2578 2766 
Q 2244 2841 1947 2841 
Q 1628 2841 1473 2761 
Q 1319 2681 1319 2516 
Q 1319 2381 1436 2309 
Q 1553 2238 1856 2203 
L 2053 2175 
Q 2913 2066 3209 1816 
Q 3506 1566 3506 1031 
Q 3506 472 3093 190 
Q 2681 -91 1863 -91 
Q 1516 -91 1145 -36 
Q 775 19 384 128 
L 384 978 
Q 719 816 1070 734 
Q 1422 653 1784 653 
Q 2113 653 2278 743 
Q 2444 834 2444 1013 
Q 2444 1163 2330 1236 
Q 2216 1309 1875 1350 
L 1678 1375 
Q 931 1469 631 1722 
Q 331 1975 331 2491 
Q 331 3047 712 3315 
Q 1094 3584 1881 3584 
Q 2191 3584 2531 3537 
Q 2872 3491 3272 3391 
z
" transform="scale(0.015625)"/>
       <path id="DejaVuSans-Bold-61" d="M 2106 1575 
Q 1756 1575 1579 1456 
Q 1403 1338 1403 1106 
Q 1403 894 1545 773 
Q 1688 653 1941 653 
Q 2256 653 2472 879 
Q 2688 1106 2688 1447 
L 2688 1575 
L 2106 1575 
z
M 3816 1997 
L 3816 0 
L 2688 0 
L 2688 519 
Q 2463 200 2181 54 
Q 1900 -91 1497 -91 
Q 953 -91 614 226 
Q 275 544 275 1050 
Q 275 1666 698 1953 
Q 1122 2241 2028 2241 
L 2688 2241 
L 2688 2328 
Q 2688 2594 2478 2717 
Q 2269 2841 1825 2841 
Q 1466 2841 1156 2769 
Q 847 2697 581 2553 
L 581 3406 
Q 941 3494 1303 3539 
Q 1666 3584 2028 3584 
Q 2975 3584 3395 3211 
Q 3816 2838 3816 1997 
z
" transform="scale(0.015625)"/>
       <path id="DejaVuSans-Bold-74" d="M 1759 4494 
L 1759 3500 
L 2913 3500 
L 2913 2700 
L 1759 2700 
L 1759 1216 
Q 1759 972 1856 886 
Q 1953 800 2241 800 
L 2816 800 
L 2816 0 
L 1856 0 
Q 1194 0 917 276 
Q 641 553 641 1216 
L 641 2700 
L 84 2700 
L 84 3500 
L 641 3500 
L 641 4494 
L 1759 4494 
z
" transform="scale(0.015625)"/>
       <path id="DejaVuSans-Bold-6e" d="M 4056 2131 
L 4056 0 
L 2931 0 
L 2931 347 
L 2931 1631 
Q 2931 2084 2911 2256 
Q 2891 2428 2841 2509 
Q 2775 2619 2662 2680 
Q 2550 2741 2406 2741 
Q 2056 2741 1856 2470 
Q 1656 2200 1656 1722 
L 1656 0 
L 538 0 
L 538 3500 
L 1656 3500 
L 1656 2988 
Q 1909 3294 2193 3439 
Q 2478 3584 2822 3584 
Q 3428 3584 3742 3212 
Q 4056 2841 4056 2131 
z
" transform="scale(0.015625)"/>
       <path id="DejaVuSans-Bold-4d" d="M 588 4666 
L 2119 4666 
L 3181 2169 
L 4250 4666 
L 5778 4666 
L 5778 0 
L 4641 0 
L 4641 3413 
L 3566 897 
L 2803 897 
L 1728 3413 
L 1728 0 
L 588 0 
L 588 4666 
z
" transform="scale(0.015625)"/>
      </defs>
      <use xlink:href="#DejaVuSans-Bold-4c"/>
      <use xlink:href="#DejaVuSans-Bold-6f" transform="translate(63.720703 0)"/>
      <use xlink:href="#DejaVuSans-Bold-73" transform="translate(132.421875 0)"/>
      <use xlink:href="#DejaVuSans-Bold-61" transform="translate(191.943359 0)"/>
      <use xlink:href="#DejaVuSans-Bold-72" transform="translate(259.423828 0)"/>
      <use xlink:href="#DejaVuSans-Bold-74" transform="translate(308.740234 0)"/>
      <use xlink:href="#DejaVuSans-Bold-61" transform="translate(356.542969 0)"/>
      <use xlink:href="#DejaVuSans-Bold-6e" transform="translate(424.023438 0)"/>
      <use xlink:href="#DejaVuSans-Bold-20" transform="translate(495.214844 0)"/>
      <use xlink:href="#DejaVuSans-Bold-5b" transform="translate(530.029297 0)"/>
      <use xlink:href="#DejaVuSans-Bold-6e" transform="translate(575.732422 0)"/>
      <use xlink:href="#DejaVuSans-Bold-4d" transform="translate(646.923828 0)"/>
      <use xlink:href="#DejaVuSans-Bold-5d" transform="translate(746.435547 0)"/>
     </g>
    </g>
   </g>
   <g id="LineCollection_1">
    <path clip-path="url(#p1d3d73b7d2)" style="fill: none; stroke: #000000"/>
    <path d="M 92.041598 309.286957 
L 92.041598 212.113845 
" clip-path="url(#p1d3d73b7d2)" style="fill: none; stroke: #000000"/>
    <path d="M 104.392586 273.937039 
L 104.392586 118.100881 
" clip-path="url(#p1d3d73b7d2)" style="fill: none; stroke: #000000"/>
    <path d="M 116.743575 273.918472 
L 116.743575 93.060395 
" clip-path="url(#p1d3d73b7d2)" style="fill: none; stroke: #000000"/>
    <path d="M 129.094563 268.955879 
L 129.094563 180.703141 
" clip-path="url(#p1d3d73b7d2)" style="fill: none; stroke: #000000"/>
    <path d="M 153.796539 281.291839 
L 153.796539 242.044736 
" clip-path="url(#p1d3d73b7d2)" style="fill: none; stroke: #000000"/>
    <path d="M 190.849503 290.228903 
L 190.849503 273.30253 
" clip-path="url(#p1d3d73b7d2)" style="fill: none; stroke: #000000"/>
    <path d="M 227.902468 292.99431 
L 227.902468 281.417182 
" clip-path="url(#p1d3d73b7d2)" style="fill: none; stroke: #000000"/>
    <path d="M 376.114326 292.800018 
L 376.114326 290.702054 
" clip-path="url(#p1d3d73b7d2)" style="fill: none; stroke: #000000"/>
   </g>
   <g id="line2d_11">
    <path d="M 79.69061 292.008472 
L 80.30816 291.185504 
L 80.925709 286.806207 
L 81.543258 278.116338 
L 82.160808 265.709826 
L 83.395907 233.744201 
L 85.866104 165.275704 
L 87.101203 137.319949 
L 88.336302 115.955183 
L 88.953851 107.836906 
L 89.571401 101.37469 
L 90.18895 96.486253 
L 90.8065 93.067331 
L 91.424049 90.99951 
L 92.041598 90.156522 
L 92.659148 90.409229 
L 93.276697 91.629477 
L 93.894247 93.692978 
L 94.511796 96.481417 
L 95.746895 103.797733 
L 96.981994 112.793251 
L 98.834642 128.062726 
L 103.775037 169.733043 
L 105.627685 183.658562 
L 107.480333 196.205933 
L 109.332982 207.333478 
L 111.18563 217.087803 
L 113.038278 225.564592 
L 114.890926 232.883162 
L 116.743575 239.170512 
L 118.596223 244.551746 
L 120.448871 249.144646 
L 122.301519 253.056913 
L 124.154167 256.385072 
L 126.006816 259.214376 
L 127.859464 261.619316 
L 129.712112 263.664428 
L 131.56476 265.405256 
L 133.417409 266.88935 
L 135.887606 268.537925 
L 138.357804 269.88097 
L 140.828001 270.982119 
L 143.915749 272.094582 
L 147.621045 273.140584 
L 151.943891 274.080673 
L 156.884286 274.909641 
L 163.05978 275.717928 
L 171.705472 276.612876 
L 184.674009 277.708842 
L 204.43559 279.133869 
L 229.137567 280.690061 
L 256.92729 282.213588 
L 286.569662 283.613059 
L 318.682231 284.904413 
L 353.882547 286.092897 
L 388.465314 287.0667 
L 388.465314 287.0667 
" clip-path="url(#p1d3d73b7d2)" style="fill: none; stroke: #000000; stroke-width: 2; stroke-linecap: square"/>
   </g>
   <g id="line2d_12">
    <path d="M 79.69061 291.880583 
L 92.041598 260.700401 
L 104.392586 196.01896 
L 116.743575 183.489433 
L 129.094563 224.82951 
L 153.796539 261.668288 
L 190.849503 281.765717 
L 227.902468 287.205746 
L 376.114326 291.751036 
" clip-path="url(#p1d3d73b7d2)" style="fill: none; stroke-dasharray: 3.7,1.6; stroke-dashoffset: 0; stroke: #000000"/>
    <defs>
     <path id="m8c2be9ecea" d="M -3 3 
L 3 3 
L 3 -3 
L -3 -3 
z
" style="stroke: #000000; stroke-linejoin: miter"/>
    </defs>
    <g clip-path="url(#p1d3d73b7d2)">
     <use xlink:href="#m8c2be9ecea" x="79.69061" y="291.880583" style="stroke: #000000; stroke-linejoin: miter"/>
     <use xlink:href="#m8c2be9ecea" x="92.041598" y="260.700401" style="stroke: #000000; stroke-linejoin: miter"/>
     <use xlink:href="#m8c2be9ecea" x="104.392586" y="196.01896" style="stroke: #000000; stroke-linejoin: miter"/>
     <use xlink:href="#m8c2be9ecea" x="116.743575" y="183.489433" style="stroke: #000000; stroke-linejoin: miter"/>
     <use xlink:href="#m8c2be9ecea" x="129.094563" y="224.82951" style="stroke: #000000; stroke-linejoin: miter"/>
     <use xlink:href="#m8c2be9ecea" x="153.796539" y="261.668288" style="stroke: #000000; stroke-linejoin: miter"/>
     <use xlink:href="#m8c2be9ecea" x="190.849503" y="281.765717" style="stroke: #000000; stroke-linejoin: miter"/>
     <use xlink:href="#m8c2be9ecea" x="227.902468" y="287.205746" style="stroke: #000000; stroke-linejoin: miter"/>
     <use xlink:href="#m8c2be9ecea" x="376.114326" y="291.751036" style="stroke: #000000; stroke-linejoin: miter"/>
    </g>
   </g>
   <g id="patch_3">
    <path d="M 64.251875 320.243478 
L 64.251875 79.2 
" style="fill: none; stroke: #000000; stroke-width: 0.8; stroke-linejoin: miter; stroke-linecap: square"/>
   </g>
   <g id="patch_4">
    <path d="M 403.904049 320.243478 
L 403.904049 79.2 
" style="fill: none; stroke: #000000; stroke-width: 0.8; stroke-linejoin: miter; stroke-linecap: square"/>
   </g>
   <g id="patch_5">
    <path d="M 64.251875 320.243478 
L 403.904049 320.243478 
" style="fill: none; stroke: #000000; stroke-width: 0.8; stroke-linejoin: miter; stroke-linecap: square"/>
   </g>
   <g id="patch_6">
    <path d="M 64.251875 79.2 
L 403.904049 79.2 
" style="fill: none; stroke: #000000; stroke-width: 0.8; stroke-linejoin: miter; stroke-linecap: square"/>
   </g>
   <g id="legend_1">
    <g id="patch_7">
     <path d="M 236.727486 116.55625 
L 396.904049 116.55625 
Q 398.904049 116.55625 398.904049 114.55625 
L 398.904049 86.2 
Q 398.904049 84.2 396.904049 84.2 
L 236.727486 84.2 
Q 234.727486 84.2 234.727486 86.2 
L 234.727486 114.55625 
Q 234.727486 116.55625 236.727486 116.55625 
z
" style="fill: #ffffff; opacity: 0.8; stroke: #cccccc; stroke-linejoin: miter"/>
    </g>
    <g id="line2d_13">
     <path d="M 238.727486 92.298437 
L 258.727486 92.298437 
" style="fill: none; stroke: #000000; stroke-width: 2; stroke-linecap: square"/>
    </g>
    <g id="line2d_14"/>
    <g id="text_13">
     <!-- Sim 50 mg -->
     <g transform="translate(266.727486 95.798437) scale(0.1 -0.1)">
      <defs>
       <path id="DejaVuSans-53" d="M 3425 4513 
L 3425 3897 
Q 3066 4069 2747 4153 
Q 2428 4238 2131 4238 
Q 1616 4238 1336 4038 
Q 1056 3838 1056 3469 
Q 1056 3159 1242 3001 
Q 1428 2844 1947 2747 
L 2328 2669 
Q 3034 2534 3370 2195 
Q 3706 1856 3706 1288 
Q 3706 609 3251 259 
Q 2797 -91 1919 -91 
Q 1588 -91 1214 -16 
Q 841 59 441 206 
L 441 856 
Q 825 641 1194 531 
Q 1563 422 1919 422 
Q 2459 422 2753 634 
Q 3047 847 3047 1241 
Q 3047 1584 2836 1778 
Q 2625 1972 2144 2069 
L 1759 2144 
Q 1053 2284 737 2584 
Q 422 2884 422 3419 
Q 422 4038 858 4394 
Q 1294 4750 2059 4750 
Q 2388 4750 2728 4690 
Q 3069 4631 3425 4513 
z
" transform="scale(0.015625)"/>
       <path id="DejaVuSans-69" d="M 603 3500 
L 1178 3500 
L 1178 0 
L 603 0 
L 603 3500 
z
M 603 4863 
L 1178 4863 
L 1178 4134 
L 603 4134 
L 603 4863 
z
" transform="scale(0.015625)"/>
       <path id="DejaVuSans-6d" d="M 3328 2828 
Q 3544 3216 3844 3400 
Q 4144 3584 4550 3584 
Q 5097 3584 5394 3201 
Q 5691 2819 5691 2113 
L 5691 0 
L 5113 0 
L 5113 2094 
Q 5113 2597 4934 2840 
Q 4756 3084 4391 3084 
Q 3944 3084 3684 2787 
Q 3425 2491 3425 1978 
L 3425 0 
L 2847 0 
L 2847 2094 
Q 2847 2600 2669 2842 
Q 2491 3084 2119 3084 
Q 1678 3084 1418 2786 
Q 1159 2488 1159 1978 
L 1159 0 
L 581 0 
L 581 3500 
L 1159 3500 
L 1159 2956 
Q 1356 3278 1631 3431 
Q 1906 3584 2284 3584 
Q 2666 3584 2933 3390 
Q 3200 3197 3328 2828 
z
" transform="scale(0.015625)"/>
       <path id="DejaVuSans-20" transform="scale(0.015625)"/>
       <path id="DejaVuSans-67" d="M 2906 1791 
Q 2906 2416 2648 2759 
Q 2391 3103 1925 3103 
Q 1463 3103 1205 2759 
Q 947 2416 947 1791 
Q 947 1169 1205 825 
Q 1463 481 1925 481 
Q 2391 481 2648 825 
Q 2906 1169 2906 1791 
z
M 3481 434 
Q 3481 -459 3084 -895 
Q 2688 -1331 1869 -1331 
Q 1566 -1331 1297 -1286 
Q 1028 -1241 775 -1147 
L 775 -588 
Q 1028 -725 1275 -790 
Q 1522 -856 1778 -856 
Q 2344 -856 2625 -561 
Q 2906 -266 2906 331 
L 2906 616 
Q 2728 306 2450 153 
Q 2172 0 1784 0 
Q 1141 0 747 490 
Q 353 981 353 1791 
Q 353 2603 747 3093 
Q 1141 3584 1784 3584 
Q 2172 3584 2450 3431 
Q 2728 3278 2906 2969 
L 2906 3500 
L 3481 3500 
L 3481 434 
z
" transform="scale(0.015625)"/>
      </defs>
      <use xlink:href="#DejaVuSans-53"/>
      <use xlink:href="#DejaVuSans-69" transform="translate(63.476562 0)"/>
      <use xlink:href="#DejaVuSans-6d" transform="translate(91.259766 0)"/>
      <use xlink:href="#DejaVuSans-20" transform="translate(188.671875 0)"/>
      <use xlink:href="#DejaVuSans-35" transform="translate(220.458984 0)"/>
      <use xlink:href="#DejaVuSans-30" transform="translate(284.082031 0)"/>
      <use xlink:href="#DejaVuSans-20" transform="translate(347.705078 0)"/>
      <use xlink:href="#DejaVuSans-6d" transform="translate(379.492188 0)"/>
      <use xlink:href="#DejaVuSans-67" transform="translate(476.904297 0)"/>
     </g>
    </g>
    <g id="LineCollection_2">
     <path d="M 248.727486 111.976562 
L 248.727486 101.976562 
" style="fill: none; stroke: #000000"/>
    </g>
    <g id="line2d_15">
     <path d="M 238.727486 106.976562 
L 258.727486 106.976562 
" style="fill: none; stroke-dasharray: 3.7,1.6; stroke-dashoffset: 0; stroke: #000000"/>
    </g>
    <g id="line2d_16">
     <g>
      <use xlink:href="#m8c2be9ecea" x="248.727486" y="106.976562" style="stroke: #000000; stroke-linejoin: miter"/>
     </g>
    </g>
    <g id="text_14">
     <!-- LOS50 50 mg±SD (n=16) -->
     <g transform="translate(266.727486 110.476562) scale(0.1 -0.1)">
      <defs>
       <path id="DejaVuSans-4c" d="M 628 4666 
L 1259 4666 
L 1259 531 
L 3531 531 
L 3531 0 
L 628 0 
L 628 4666 
z
" transform="scale(0.015625)"/>
       <path id="DejaVuSans-4f" d="M 2522 4238 
Q 1834 4238 1429 3725 
Q 1025 3213 1025 2328 
Q 1025 1447 1429 934 
Q 1834 422 2522 422 
Q 3209 422 3611 934 
Q 4013 1447 4013 2328 
Q 4013 3213 3611 3725 
Q 3209 4238 2522 4238 
z
M 2522 4750 
Q 3503 4750 4090 4092 
Q 4678 3434 4678 2328 
Q 4678 1225 4090 567 
Q 3503 -91 2522 -91 
Q 1538 -91 948 565 
Q 359 1222 359 2328 
Q 359 3434 948 4092 
Q 1538 4750 2522 4750 
z
" transform="scale(0.015625)"/>
       <path id="DejaVuSans-b1" d="M 2944 4013 
L 2944 2803 
L 4684 2803 
L 4684 2272 
L 2944 2272 
L 2944 1063 
L 2419 1063 
L 2419 2272 
L 678 2272 
L 678 2803 
L 2419 2803 
L 2419 4013 
L 2944 4013 
z
M 678 531 
L 4684 531 
L 4684 0 
L 678 0 
L 678 531 
z
" transform="scale(0.015625)"/>
       <path id="DejaVuSans-44" d="M 1259 4147 
L 1259 519 
L 2022 519 
Q 2988 519 3436 956 
Q 3884 1394 3884 2338 
Q 3884 3275 3436 3711 
Q 2988 4147 2022 4147 
L 1259 4147 
z
M 628 4666 
L 1925 4666 
Q 3281 4666 3915 4102 
Q 4550 3538 4550 2338 
Q 4550 1131 3912 565 
Q 3275 0 1925 0 
L 628 0 
L 628 4666 
z
" transform="scale(0.015625)"/>
       <path id="DejaVuSans-28" d="M 1984 4856 
Q 1566 4138 1362 3434 
Q 1159 2731 1159 2009 
Q 1159 1288 1364 580 
Q 1569 -128 1984 -844 
L 1484 -844 
Q 1016 -109 783 600 
Q 550 1309 550 2009 
Q 550 2706 781 3412 
Q 1013 4119 1484 4856 
L 1984 4856 
z
" transform="scale(0.015625)"/>
       <path id="DejaVuSans-6e" d="M 3513 2113 
L 3513 0 
L 2938 0 
L 2938 2094 
Q 2938 2591 2744 2837 
Q 2550 3084 2163 3084 
Q 1697 3084 1428 2787 
Q 1159 2491 1159 1978 
L 1159 0 
L 581 0 
L 581 3500 
L 1159 3500 
L 1159 2956 
Q 1366 3272 1645 3428 
Q 1925 3584 2291 3584 
Q 2894 3584 3203 3211 
Q 3513 2838 3513 2113 
z
" transform="scale(0.015625)"/>
       <path id="DejaVuSans-3d" d="M 678 2906 
L 4684 2906 
L 4684 2381 
L 678 2381 
L 678 2906 
z
M 678 1631 
L 4684 1631 
L 4684 1100 
L 678 1100 
L 678 1631 
z
" transform="scale(0.015625)"/>
       <path id="DejaVuSans-36" d="M 2113 2584 
Q 1688 2584 1439 2293 
Q 1191 2003 1191 1497 
Q 1191 994 1439 701 
Q 1688 409 2113 409 
Q 2538 409 2786 701 
Q 3034 994 3034 1497 
Q 3034 2003 2786 2293 
Q 2538 2584 2113 2584 
z
M 3366 4563 
L 3366 3988 
Q 3128 4100 2886 4159 
Q 2644 4219 2406 4219 
Q 1781 4219 1451 3797 
Q 1122 3375 1075 2522 
Q 1259 2794 1537 2939 
Q 1816 3084 2150 3084 
Q 2853 3084 3261 2657 
Q 3669 2231 3669 1497 
Q 3669 778 3244 343 
Q 2819 -91 2113 -91 
Q 1303 -91 875 529 
Q 447 1150 447 2328 
Q 447 3434 972 4092 
Q 1497 4750 2381 4750 
Q 2619 4750 2861 4703 
Q 3103 4656 3366 4563 
z
" transform="scale(0.015625)"/>
       <path id="DejaVuSans-29" d="M 513 4856 
L 1013 4856 
Q 1481 4119 1714 3412 
Q 1947 2706 1947 2009 
Q 1947 1309 1714 600 
Q 1481 -109 1013 -844 
L 513 -844 
Q 928 -128 1133 580 
Q 1338 1288 1338 2009 
Q 1338 2731 1133 3434 
Q 928 4138 513 4856 
z
" transform="scale(0.015625)"/>
      </defs>
      <use xlink:href="#DejaVuSans-4c"/>
      <use xlink:href="#DejaVuSans-4f" transform="translate(52.087891 0)"/>
      <use xlink:href="#DejaVuSans-53" transform="translate(130.798828 0)"/>
      <use xlink:href="#DejaVuSans-35" transform="translate(194.275391 0)"/>
      <use xlink:href="#DejaVuSans-30" transform="translate(257.898438 0)"/>
      <use xlink:href="#DejaVuSans-20" transform="translate(321.521484 0)"/>
      <use xlink:href="#DejaVuSans-35" transform="translate(353.308594 0)"/>
      <use xlink:href="#DejaVuSans-30" transform="translate(416.931641 0)"/>
      <use xlink:href="#DejaVuSans-20" transform="translate(480.554688 0)"/>
      <use xlink:href="#DejaVuSans-6d" transform="translate(512.341797 0)"/>
      <use xlink:href="#DejaVuSans-67" transform="translate(609.753906 0)"/>
      <use xlink:href="#DejaVuSans-b1" transform="translate(673.230469 0)"/>
      <use xlink:href="#DejaVuSans-53" transform="translate(757.019531 0)"/>
      <use xlink:href="#DejaVuSans-44" transform="translate(820.496094 0)"/>
      <use xlink:href="#DejaVuSans-20" transform="translate(897.498047 0)"/>
      <use xlink:href="#DejaVuSans-28" transform="translate(929.285156 0)"/>
      <use xlink:href="#DejaVuSans-6e" transform="translate(968.298828 0)"/>
      <use xlink:href="#DejaVuSans-3d" transform="translate(1031.677734 0)"/>
      <use xlink:href="#DejaVuSans-31" transform="translate(1115.466797 0)"/>
      <use xlink:href="#DejaVuSans-36" transform="translate(1179.089844 0)"/>
      <use xlink:href="#DejaVuSans-29" transform="translate(1242.712891 0)"/>
     </g>
    </g>
   </g>
  </g>
  <g id="axes_2">
   <g id="patch_8">
    <path d="M 505.799701 320.243478 
L 845.451875 320.243478 
L 845.451875 79.2 
L 505.799701 79.2 
z
" style="fill: #ffffff"/>
   </g>
   <g id="matplotlib.axis_3">
    <g id="xtick_7">
     <g id="line2d_17">
      <g>
       <use xlink:href="#m8ad8fc9432" x="521.238436" y="320.243478" style="stroke: #000000; stroke-width: 0.8"/>
      </g>
     </g>
     <g id="text_15">
      <!-- 0 -->
      <g transform="translate(516.466561 338.641135) scale(0.15 -0.15)">
       <use xlink:href="#DejaVuSans-30"/>
      </g>
     </g>
    </g>
    <g id="xtick_8">
     <g id="line2d_18">
      <g>
       <use xlink:href="#m8ad8fc9432" x="582.993377" y="320.243478" style="stroke: #000000; stroke-width: 0.8"/>
      </g>
     </g>
     <g id="text_16">
      <!-- 5 -->
      <g transform="translate(578.221502 338.641135) scale(0.15 -0.15)">
       <use xlink:href="#DejaVuSans-35"/>
      </g>
     </g>
    </g>
    <g id="xtick_9">
     <g id="line2d_19">
      <g>
       <use xlink:href="#m8ad8fc9432" x="644.748318" y="320.243478" style="stroke: #000000; stroke-width: 0.8"/>
      </g>
     </g>
     <g id="text_17">
      <!-- 10 -->
      <g transform="translate(635.204568 338.641135) scale(0.15 -0.15)">
       <use xlink:href="#DejaVuSans-31"/>
       <use xlink:href="#DejaVuSans-30" transform="translate(63.623047 0)"/>
      </g>
     </g>
    </g>
    <g id="xtick_10">
     <g id="line2d_20">
      <g>
       <use xlink:href="#m8ad8fc9432" x="706.503258" y="320.243478" style="stroke: #000000; stroke-width: 0.8"/>
      </g>
     </g>
     <g id="text_18">
      <!-- 15 -->
      <g transform="translate(696.959508 338.641135) scale(0.15 -0.15)">
       <use xlink:href="#DejaVuSans-31"/>
       <use xlink:href="#DejaVuSans-35" transform="translate(63.623047 0)"/>
      </g>
     </g>
    </g>
    <g id="xtick_11">
     <g id="line2d_21">
      <g>
       <use xlink:href="#m8ad8fc9432" x="768.258199" y="320.243478" style="stroke: #000000; stroke-width: 0.8"/>
      </g>
     </g>
     <g id="text_19">
      <!-- 20 -->
      <g transform="translate(758.714449 338.641135) scale(0.15 -0.15)">
       <use xlink:href="#DejaVuSans-32"/>
       <use xlink:href="#DejaVuSans-30" transform="translate(63.623047 0)"/>
      </g>
     </g>
    </g>
    <g id="xtick_12">
     <g id="line2d_22">
      <g>
       <use xlink:href="#m8ad8fc9432" x="830.01314" y="320.243478" style="stroke: #000000; stroke-width: 0.8"/>
      </g>
     </g>
     <g id="text_20">
      <!-- 25 -->
      <g transform="translate(820.46939 338.641135) scale(0.15 -0.15)">
       <use xlink:href="#DejaVuSans-32"/>
       <use xlink:href="#DejaVuSans-35" transform="translate(63.623047 0)"/>
      </g>
     </g>
    </g>
    <g id="text_21">
     <!-- Time [hr] -->
     <g transform="translate(628.713288 359.437853) scale(0.18 -0.18)">
      <use xlink:href="#DejaVuSans-Bold-54"/>
      <use xlink:href="#DejaVuSans-Bold-69" transform="translate(68.212891 0)"/>
      <use xlink:href="#DejaVuSans-Bold-6d" transform="translate(102.490234 0)"/>
      <use xlink:href="#DejaVuSans-Bold-65" transform="translate(206.689453 0)"/>
      <use xlink:href="#DejaVuSans-Bold-20" transform="translate(274.511719 0)"/>
      <use xlink:href="#DejaVuSans-Bold-5b" transform="translate(309.326172 0)"/>
      <use xlink:href="#DejaVuSans-Bold-68" transform="translate(355.029297 0)"/>
      <use xlink:href="#DejaVuSans-Bold-72" transform="translate(426.220703 0)"/>
      <use xlink:href="#DejaVuSans-Bold-5d" transform="translate(475.537109 0)"/>
     </g>
    </g>
   </g>
   <g id="matplotlib.axis_4">
    <g id="ytick_5">
     <g id="line2d_23">
      <g>
       <use xlink:href="#m61bab6e982" x="505.799701" y="307.441663" style="stroke: #000000; stroke-width: 0.8"/>
      </g>
     </g>
     <g id="text_22">
      <!-- 0 -->
      <g transform="translate(489.255951 313.140491) scale(0.15 -0.15)">
       <use xlink:href="#DejaVuSans-30"/>
      </g>
     </g>
    </g>
    <g id="ytick_6">
     <g id="line2d_24">
      <g>
       <use xlink:href="#m61bab6e982" x="505.799701" y="262.228486" style="stroke: #000000; stroke-width: 0.8"/>
      </g>
     </g>
     <g id="text_23">
      <!-- 100 -->
      <g transform="translate(470.168451 267.927314) scale(0.15 -0.15)">
       <use xlink:href="#DejaVuSans-31"/>
       <use xlink:href="#DejaVuSans-30" transform="translate(63.623047 0)"/>
       <use xlink:href="#DejaVuSans-30" transform="translate(127.246094 0)"/>
      </g>
     </g>
    </g>
    <g id="ytick_7">
     <g id="line2d_25">
      <g>
       <use xlink:href="#m61bab6e982" x="505.799701" y="217.015309" style="stroke: #000000; stroke-width: 0.8"/>
      </g>
     </g>
     <g id="text_24">
      <!-- 200 -->
      <g transform="translate(470.168451 222.714137) scale(0.15 -0.15)">
       <use xlink:href="#DejaVuSans-32"/>
       <use xlink:href="#DejaVuSans-30" transform="translate(63.623047 0)"/>
       <use xlink:href="#DejaVuSans-30" transform="translate(127.246094 0)"/>
      </g>
     </g>
    </g>
    <g id="ytick_8">
     <g id="line2d_26">
      <g>
       <use xlink:href="#m61bab6e982" x="505.799701" y="171.802132" style="stroke: #000000; stroke-width: 0.8"/>
      </g>
     </g>
     <g id="text_25">
      <!-- 300 -->
      <g transform="translate(470.168451 177.50096) scale(0.15 -0.15)">
       <use xlink:href="#DejaVuSans-33"/>
       <use xlink:href="#DejaVuSans-30" transform="translate(63.623047 0)"/>
       <use xlink:href="#DejaVuSans-30" transform="translate(127.246094 0)"/>
      </g>
     </g>
    </g>
    <g id="ytick_9">
     <g id="line2d_27">
      <g>
       <use xlink:href="#m61bab6e982" x="505.799701" y="126.588955" style="stroke: #000000; stroke-width: 0.8"/>
      </g>
     </g>
     <g id="text_26">
      <!-- 400 -->
      <g transform="translate(470.168451 132.287783) scale(0.15 -0.15)">
       <defs>
        <path id="DejaVuSans-34" d="M 2419 4116 
L 825 1625 
L 2419 1625 
L 2419 4116 
z
M 2253 4666 
L 3047 4666 
L 3047 1625 
L 3713 1625 
L 3713 1100 
L 3047 1100 
L 3047 0 
L 2419 0 
L 2419 1100 
L 313 1100 
L 313 1709 
L 2253 4666 
z
" transform="scale(0.015625)"/>
       </defs>
       <use xlink:href="#DejaVuSans-34"/>
       <use xlink:href="#DejaVuSans-30" transform="translate(63.623047 0)"/>
       <use xlink:href="#DejaVuSans-30" transform="translate(127.246094 0)"/>
      </g>
     </g>
    </g>
    <g id="ytick_10">
     <g id="line2d_28">
      <g>
       <use xlink:href="#m61bab6e982" x="505.799701" y="81.375778" style="stroke: #000000; stroke-width: 0.8"/>
      </g>
     </g>
     <g id="text_27">
      <!-- 500 -->
      <g transform="translate(470.168451 87.074606) scale(0.15 -0.15)">
       <use xlink:href="#DejaVuSans-35"/>
       <use xlink:href="#DejaVuSans-30" transform="translate(63.623047 0)"/>
       <use xlink:href="#DejaVuSans-30" transform="translate(127.246094 0)"/>
      </g>
     </g>
    </g>
    <g id="text_28">
     <!-- E3174 [nM] -->
     <g transform="translate(462.425014 257.640958) rotate(-90) scale(0.18 -0.18)">
      <defs>
       <path id="DejaVuSans-Bold-45" d="M 588 4666 
L 3834 4666 
L 3834 3756 
L 1791 3756 
L 1791 2888 
L 3713 2888 
L 3713 1978 
L 1791 1978 
L 1791 909 
L 3903 909 
L 3903 0 
L 588 0 
L 588 4666 
z
" transform="scale(0.015625)"/>
       <path id="DejaVuSans-Bold-33" d="M 2981 2516 
Q 3453 2394 3698 2092 
Q 3944 1791 3944 1325 
Q 3944 631 3412 270 
Q 2881 -91 1863 -91 
Q 1503 -91 1142 -33 
Q 781 25 428 141 
L 428 1069 
Q 766 900 1098 814 
Q 1431 728 1753 728 
Q 2231 728 2486 893 
Q 2741 1059 2741 1369 
Q 2741 1688 2480 1852 
Q 2219 2016 1709 2016 
L 1228 2016 
L 1228 2791 
L 1734 2791 
Q 2188 2791 2409 2933 
Q 2631 3075 2631 3366 
Q 2631 3634 2415 3781 
Q 2200 3928 1806 3928 
Q 1516 3928 1219 3862 
Q 922 3797 628 3669 
L 628 4550 
Q 984 4650 1334 4700 
Q 1684 4750 2022 4750 
Q 2931 4750 3382 4451 
Q 3834 4153 3834 3553 
Q 3834 3144 3618 2883 
Q 3403 2622 2981 2516 
z
" transform="scale(0.015625)"/>
       <path id="DejaVuSans-Bold-31" d="M 750 831 
L 1813 831 
L 1813 3847 
L 722 3622 
L 722 4441 
L 1806 4666 
L 2950 4666 
L 2950 831 
L 4013 831 
L 4013 0 
L 750 0 
L 750 831 
z
" transform="scale(0.015625)"/>
       <path id="DejaVuSans-Bold-37" d="M 428 4666 
L 3944 4666 
L 3944 3988 
L 2125 0 
L 953 0 
L 2675 3781 
L 428 3781 
L 428 4666 
z
" transform="scale(0.015625)"/>
       <path id="DejaVuSans-Bold-34" d="M 2356 3675 
L 1038 1722 
L 2356 1722 
L 2356 3675 
z
M 2156 4666 
L 3494 4666 
L 3494 1722 
L 4159 1722 
L 4159 850 
L 3494 850 
L 3494 0 
L 2356 0 
L 2356 850 
L 288 850 
L 288 1881 
L 2156 4666 
z
" transform="scale(0.015625)"/>
      </defs>
      <use xlink:href="#DejaVuSans-Bold-45"/>
      <use xlink:href="#DejaVuSans-Bold-33" transform="translate(68.310547 0)"/>
      <use xlink:href="#DejaVuSans-Bold-31" transform="translate(137.890625 0)"/>
      <use xlink:href="#DejaVuSans-Bold-37" transform="translate(207.470703 0)"/>
      <use xlink:href="#DejaVuSans-Bold-34" transform="translate(277.050781 0)"/>
      <use xlink:href="#DejaVuSans-Bold-20" transform="translate(346.630859 0)"/>
      <use xlink:href="#DejaVuSans-Bold-5b" transform="translate(381.445312 0)"/>
      <use xlink:href="#DejaVuSans-Bold-6e" transform="translate(427.148438 0)"/>
      <use xlink:href="#DejaVuSans-Bold-4d" transform="translate(498.339844 0)"/>
      <use xlink:href="#DejaVuSans-Bold-5d" transform="translate(597.851562 0)"/>
     </g>
    </g>
   </g>
   <g id="LineCollection_3">
    <path d="M 521.238436 302.956414 
L 521.238436 295.426683 
" clip-path="url(#pd48cc9d94f)" style="fill: none; stroke: #000000"/>
    <path d="M 533.589424 303.906587 
L 533.589424 297.572777 
" clip-path="url(#pd48cc9d94f)" style="fill: none; stroke: #000000"/>
    <path d="M 545.940413 309.286957 
L 545.940413 234.255701 
" clip-path="url(#pd48cc9d94f)" style="fill: none; stroke: #000000"/>
    <path d="M 558.291401 301.681808 
L 558.291401 116.538959 
" clip-path="url(#pd48cc9d94f)" style="fill: none; stroke: #000000"/>
    <path d="M 570.642389 242.37689 
L 570.642389 90.156522 
" clip-path="url(#pd48cc9d94f)" style="fill: none; stroke: #000000"/>
    <path d="M 595.344365 204.615743 
L 595.344365 141.863125 
" clip-path="url(#pd48cc9d94f)" style="fill: none; stroke: #000000"/>
    <path d="M 632.39733 239.732143 
L 632.39733 201.485344 
" clip-path="url(#pd48cc9d94f)" style="fill: none; stroke: #000000"/>
    <path d="M 669.450294 269.495797 
L 669.450294 248.064649 
" clip-path="url(#pd48cc9d94f)" style="fill: none; stroke: #000000"/>
    <path d="M 817.662152 300.730049 
L 817.662152 293.569404 
" clip-path="url(#pd48cc9d94f)" style="fill: none; stroke: #000000"/>
   </g>
   <g id="line2d_29">
    <path d="M 521.238436 307.441663 
L 522.473535 307.412268 
L 523.091084 307.283987 
L 523.708634 306.949795 
L 524.326183 306.296145 
L 524.943733 305.219088 
L 525.561282 303.634677 
L 526.178832 301.483655 
L 526.796381 298.732159 
L 528.03148 291.407213 
L 529.266579 281.801083 
L 530.501677 270.264558 
L 532.354326 250.347074 
L 539.764918 166.366694 
L 541.617567 149.095793 
L 543.470215 134.220837 
L 544.705314 125.678042 
L 545.940413 118.223935 
L 547.175511 111.826844 
L 548.41061 106.4406 
L 549.645709 102.008872 
L 550.880808 98.468742 
L 552.115907 95.753586 
L 553.351005 93.795354 
L 554.586104 92.52632 
L 555.203654 92.129507 
L 555.821203 91.880397 
L 556.438752 91.771141 
L 557.056302 91.794094 
L 557.673851 91.941834 
L 558.90895 92.583141 
L 560.144049 93.640421 
L 561.379148 95.063006 
L 562.614247 96.804229 
L 564.466895 99.921104 
L 566.319543 103.53144 
L 568.789741 108.924559 
L 571.877488 116.299973 
L 576.817883 128.833463 
L 584.846025 149.255892 
L 589.168871 159.695958 
L 593.491717 169.555046 
L 597.197013 177.498449 
L 600.90231 184.962043 
L 604.607606 191.950918 
L 608.312903 198.479761 
L 612.018199 204.569039 
L 615.723496 210.242398 
L 619.428792 215.524923 
L 623.134088 220.441996 
L 626.839385 225.018561 
L 630.544681 229.278661 
L 634.249978 233.245177 
L 638.572824 237.530428 
L 642.895669 241.477306 
L 647.218515 245.115214 
L 651.541361 248.471121 
L 655.864207 251.569695 
L 660.804602 254.82461 
L 665.744998 257.803198 
L 670.685393 260.532805 
L 676.243337 263.336471 
L 681.801282 265.887191 
L 687.976776 268.458098 
L 694.15227 270.783971 
L 700.945314 273.093974 
L 707.738357 275.176103 
L 715.14895 277.221485 
L 723.177092 279.2072 
L 731.822784 281.116439 
L 741.086025 282.938041 
L 751.584365 284.767214 
L 762.700254 286.477236 
L 775.051243 288.152123 
L 788.63733 289.77097 
L 804.076065 291.380932 
L 821.367448 292.951833 
L 830.01314 293.660899 
L 830.01314 293.660899 
" clip-path="url(#pd48cc9d94f)" style="fill: none; stroke: #000000; stroke-width: 2; stroke-linecap: square"/>
   </g>
   <g id="line2d_30">
    <path d="M 521.238436 299.191549 
L 533.589424 300.739682 
L 545.940413 271.771329 
L 558.291401 209.110384 
L 570.642389 166.266706 
L 595.344365 173.239434 
L 632.39733 220.608743 
L 669.450294 258.780223 
L 817.662152 297.149727 
" clip-path="url(#pd48cc9d94f)" style="fill: none; stroke-dasharray: 3.7,1.6; stroke-dashoffset: 0; stroke: #000000"/>
    <g clip-path="url(#pd48cc9d94f)">
     <use xlink:href="#m8c2be9ecea" x="521.238436" y="299.191549" style="stroke: #000000; stroke-linejoin: miter"/>
     <use xlink:href="#m8c2be9ecea" x="533.589424" y="300.739682" style="stroke: #000000; stroke-linejoin: miter"/>
     <use xlink:href="#m8c2be9ecea" x="545.940413" y="271.771329" style="stroke: #000000; stroke-linejoin: miter"/>
     <use xlink:href="#m8c2be9ecea" x="558.291401" y="209.110384" style="stroke: #000000; stroke-linejoin: miter"/>
     <use xlink:href="#m8c2be9ecea" x="570.642389" y="166.266706" style="stroke: #000000; stroke-linejoin: miter"/>
     <use xlink:href="#m8c2be9ecea" x="595.344365" y="173.239434" style="stroke: #000000; stroke-linejoin: miter"/>
     <use xlink:href="#m8c2be9ecea" x="632.39733" y="220.608743" style="stroke: #000000; stroke-linejoin: miter"/>
     <use xlink:href="#m8c2be9ecea" x="669.450294" y="258.780223" style="stroke: #000000; stroke-linejoin: miter"/>
     <use xlink:href="#m8c2be9ecea" x="817.662152" y="297.149727" style="stroke: #000000; stroke-linejoin: miter"/>
    </g>
   </g>
   <g id="patch_9">
    <path d="M 505.799701 320.243478 
L 505.799701 79.2 
" style="fill: none; stroke: #000000; stroke-width: 0.8; stroke-linejoin: miter; stroke-linecap: square"/>
   </g>
   <g id="patch_10">
    <path d="M 845.451875 320.243478 
L 845.451875 79.2 
" style="fill: none; stroke: #000000; stroke-width: 0.8; stroke-linejoin: miter; stroke-linecap: square"/>
   </g>
   <g id="patch_11">
    <path d="M 505.799701 320.243478 
L 845.451875 320.243478 
" style="fill: none; stroke: #000000; stroke-width: 0.8; stroke-linejoin: miter; stroke-linecap: square"/>
   </g>
   <g id="patch_12">
    <path d="M 505.799701 79.2 
L 845.451875 79.2 
" style="fill: none; stroke: #000000; stroke-width: 0.8; stroke-linejoin: miter; stroke-linecap: square"/>
   </g>
   <g id="legend_2">
    <g id="patch_13">
     <path d="M 678.275313 116.55625 
L 838.451875 116.55625 
Q 840.451875 116.55625 840.451875 114.55625 
L 840.451875 86.2 
Q 840.451875 84.2 838.451875 84.2 
L 678.275313 84.2 
Q 676.275313 84.2 676.275313 86.2 
L 676.275313 114.55625 
Q 676.275313 116.55625 678.275313 116.55625 
z
" style="fill: #ffffff; opacity: 0.8; stroke: #cccccc; stroke-linejoin: miter"/>
    </g>
    <g id="line2d_31">
     <path d="M 680.275313 92.298437 
L 700.275313 92.298437 
" style="fill: none; stroke: #000000; stroke-width: 2; stroke-linecap: square"/>
    </g>
    <g id="line2d_32"/>
    <g id="text_29">
     <!-- Sim 50 mg -->
     <g transform="translate(708.275313 95.798437) scale(0.1 -0.1)">
      <use xlink:href="#DejaVuSans-53"/>
      <use xlink:href="#DejaVuSans-69" transform="translate(63.476562 0)"/>
      <use xlink:href="#DejaVuSans-6d" transform="translate(91.259766 0)"/>
      <use xlink:href="#DejaVuSans-20" transform="translate(188.671875 0)"/>
      <use xlink:href="#DejaVuSans-35" transform="translate(220.458984 0)"/>
      <use xlink:href="#DejaVuSans-30" transform="translate(284.082031 0)"/>
      <use xlink:href="#DejaVuSans-20" transform="translate(347.705078 0)"/>
      <use xlink:href="#DejaVuSans-6d" transform="translate(379.492188 0)"/>
      <use xlink:href="#DejaVuSans-67" transform="translate(476.904297 0)"/>
     </g>
    </g>
    <g id="LineCollection_4">
     <path d="M 690.275313 111.976562 
L 690.275313 101.976562 
" style="fill: none; stroke: #000000"/>
    </g>
    <g id="line2d_33">
     <path d="M 680.275313 106.976562 
L 700.275313 106.976562 
" style="fill: none; stroke-dasharray: 3.7,1.6; stroke-dashoffset: 0; stroke: #000000"/>
    </g>
    <g id="line2d_34">
     <g>
      <use xlink:href="#m8c2be9ecea" x="690.275313" y="106.976562" style="stroke: #000000; stroke-linejoin: miter"/>
     </g>
    </g>
    <g id="text_30">
     <!-- LOS50 50 mg±SD (n=16) -->
     <g transform="translate(708.275313 110.476562) scale(0.1 -0.1)">
      <use xlink:href="#DejaVuSans-4c"/>
      <use xlink:href="#DejaVuSans-4f" transform="translate(52.087891 0)"/>
      <use xlink:href="#DejaVuSans-53" transform="translate(130.798828 0)"/>
      <use xlink:href="#DejaVuSans-35" transform="translate(194.275391 0)"/>
      <use xlink:href="#DejaVuSans-30" transform="translate(257.898438 0)"/>
      <use xlink:href="#DejaVuSans-20" transform="translate(321.521484 0)"/>
      <use xlink:href="#DejaVuSans-35" transform="translate(353.308594 0)"/>
      <use xlink:href="#DejaVuSans-30" transform="translate(416.931641 0)"/>
      <use xlink:href="#DejaVuSans-20" transform="translate(480.554688 0)"/>
      <use xlink:href="#DejaVuSans-6d" transform="translate(512.341797 0)"/>
      <use xlink:href="#DejaVuSans-67" transform="translate(609.753906 0)"/>
      <use xlink:href="#DejaVuSans-b1" transform="translate(673.230469 0)"/>
      <use xlink:href="#DejaVuSans-53" transform="translate(757.019531 0)"/>
      <use xlink:href="#DejaVuSans-44" transform="translate(820.496094 0)"/>
      <use xlink:href="#DejaVuSans-20" transform="translate(897.498047 0)"/>
      <use xlink:href="#DejaVuSans-28" transform="translate(929.285156 0)"/>
      <use xlink:href="#DejaVuSans-6e" transform="translate(968.298828 0)"/>
      <use xlink:href="#DejaVuSans-3d" transform="translate(1031.677734 0)"/>
      <use xlink:href="#DejaVuSans-31" transform="translate(1115.466797 0)"/>
      <use xlink:href="#DejaVuSans-36" transform="translate(1179.089844 0)"/>
      <use xlink:href="#DejaVuSans-29" transform="translate(1242.712891 0)"/>
     </g>
    </g>
   </g>
  </g>
  <g id="axes_3">
   <g id="patch_14">
    <path d="M 64.251875 633.6 
L 403.904049 633.6 
L 403.904049 392.556522 
L 64.251875 392.556522 
z
" style="fill: #ffffff"/>
   </g>
   <g id="matplotlib.axis_5">
    <g id="xtick_13">
     <g id="line2d_35">
      <g>
       <use xlink:href="#m8ad8fc9432" x="79.69061" y="633.6" style="stroke: #000000; stroke-width: 0.8"/>
      </g>
     </g>
     <g id="text_31">
      <!-- 0 -->
      <g transform="translate(74.918735 651.997656) scale(0.15 -0.15)">
       <use xlink:href="#DejaVuSans-30"/>
      </g>
     </g>
    </g>
    <g id="xtick_14">
     <g id="line2d_36">
      <g>
       <use xlink:href="#m8ad8fc9432" x="141.445551" y="633.6" style="stroke: #000000; stroke-width: 0.8"/>
      </g>
     </g>
     <g id="text_32">
      <!-- 5 -->
      <g transform="translate(136.673676 651.997656) scale(0.15 -0.15)">
       <use xlink:href="#DejaVuSans-35"/>
      </g>
     </g>
    </g>
    <g id="xtick_15">
     <g id="line2d_37">
      <g>
       <use xlink:href="#m8ad8fc9432" x="203.200492" y="633.6" style="stroke: #000000; stroke-width: 0.8"/>
      </g>
     </g>
     <g id="text_33">
      <!-- 10 -->
      <g transform="translate(193.656742 651.997656) scale(0.15 -0.15)">
       <use xlink:href="#DejaVuSans-31"/>
       <use xlink:href="#DejaVuSans-30" transform="translate(63.623047 0)"/>
      </g>
     </g>
    </g>
    <g id="xtick_16">
     <g id="line2d_38">
      <g>
       <use xlink:href="#m8ad8fc9432" x="264.955432" y="633.6" style="stroke: #000000; stroke-width: 0.8"/>
      </g>
     </g>
     <g id="text_34">
      <!-- 15 -->
      <g transform="translate(255.411682 651.997656) scale(0.15 -0.15)">
       <use xlink:href="#DejaVuSans-31"/>
       <use xlink:href="#DejaVuSans-35" transform="translate(63.623047 0)"/>
      </g>
     </g>
    </g>
    <g id="xtick_17">
     <g id="line2d_39">
      <g>
       <use xlink:href="#m8ad8fc9432" x="326.710373" y="633.6" style="stroke: #000000; stroke-width: 0.8"/>
      </g>
     </g>
     <g id="text_35">
      <!-- 20 -->
      <g transform="translate(317.166623 651.997656) scale(0.15 -0.15)">
       <use xlink:href="#DejaVuSans-32"/>
       <use xlink:href="#DejaVuSans-30" transform="translate(63.623047 0)"/>
      </g>
     </g>
    </g>
    <g id="xtick_18">
     <g id="line2d_40">
      <g>
       <use xlink:href="#m8ad8fc9432" x="388.465314" y="633.6" style="stroke: #000000; stroke-width: 0.8"/>
      </g>
     </g>
     <g id="text_36">
      <!-- 25 -->
      <g transform="translate(378.921564 651.997656) scale(0.15 -0.15)">
       <use xlink:href="#DejaVuSans-32"/>
       <use xlink:href="#DejaVuSans-35" transform="translate(63.623047 0)"/>
      </g>
     </g>
    </g>
    <g id="text_37">
     <!-- Time [hr] -->
     <g transform="translate(187.165462 672.794375) scale(0.18 -0.18)">
      <use xlink:href="#DejaVuSans-Bold-54"/>
      <use xlink:href="#DejaVuSans-Bold-69" transform="translate(68.212891 0)"/>
      <use xlink:href="#DejaVuSans-Bold-6d" transform="translate(102.490234 0)"/>
      <use xlink:href="#DejaVuSans-Bold-65" transform="translate(206.689453 0)"/>
      <use xlink:href="#DejaVuSans-Bold-20" transform="translate(274.511719 0)"/>
      <use xlink:href="#DejaVuSans-Bold-5b" transform="translate(309.326172 0)"/>
      <use xlink:href="#DejaVuSans-Bold-68" transform="translate(355.029297 0)"/>
      <use xlink:href="#DejaVuSans-Bold-72" transform="translate(426.220703 0)"/>
      <use xlink:href="#DejaVuSans-Bold-5d" transform="translate(475.537109 0)"/>
     </g>
    </g>
   </g>
   <g id="matplotlib.axis_6">
    <g id="ytick_11">
     <g id="line2d_41">
      <g>
       <use xlink:href="#m61bab6e982" x="64.251875" y="622.643478" style="stroke: #000000; stroke-width: 0.8"/>
      </g>
     </g>
     <g id="text_38">
      <!-- 0 -->
      <g transform="translate(47.708125 628.342306) scale(0.15 -0.15)">
       <use xlink:href="#DejaVuSans-30"/>
      </g>
     </g>
    </g>
    <g id="ytick_12">
     <g id="line2d_42">
      <g>
       <use xlink:href="#m61bab6e982" x="64.251875" y="566.521739" style="stroke: #000000; stroke-width: 0.8"/>
      </g>
     </g>
     <g id="text_39">
      <!-- 1 -->
      <g transform="translate(47.708125 572.220567) scale(0.15 -0.15)">
       <use xlink:href="#DejaVuSans-31"/>
      </g>
     </g>
    </g>
    <g id="ytick_13">
     <g id="line2d_43">
      <g>
       <use xlink:href="#m61bab6e982" x="64.251875" y="510.4" style="stroke: #000000; stroke-width: 0.8"/>
      </g>
     </g>
     <g id="text_40">
      <!-- 2 -->
      <g transform="translate(47.708125 516.098828) scale(0.15 -0.15)">
       <use xlink:href="#DejaVuSans-32"/>
      </g>
     </g>
    </g>
    <g id="ytick_14">
     <g id="line2d_44">
      <g>
       <use xlink:href="#m61bab6e982" x="64.251875" y="454.278261" style="stroke: #000000; stroke-width: 0.8"/>
      </g>
     </g>
     <g id="text_41">
      <!-- 3 -->
      <g transform="translate(47.708125 459.977089) scale(0.15 -0.15)">
       <use xlink:href="#DejaVuSans-33"/>
      </g>
     </g>
    </g>
    <g id="ytick_15">
     <g id="line2d_45">
      <g>
       <use xlink:href="#m61bab6e982" x="64.251875" y="398.156522" style="stroke: #000000; stroke-width: 0.8"/>
      </g>
     </g>
     <g id="text_42">
      <!-- 4 -->
      <g transform="translate(47.708125 403.85535) scale(0.15 -0.15)">
       <use xlink:href="#DejaVuSans-34"/>
      </g>
     </g>
    </g>
    <g id="text_43">
     <!-- Losartan urine [µmole] -->
     <g transform="translate(39.945 629.954511) rotate(-90) scale(0.18 -0.18)">
      <defs>
       <path id="DejaVuSans-Bold-75" d="M 500 1363 
L 500 3500 
L 1625 3500 
L 1625 3150 
Q 1625 2866 1622 2436 
Q 1619 2006 1619 1863 
Q 1619 1441 1641 1255 
Q 1663 1069 1716 984 
Q 1784 875 1895 815 
Q 2006 756 2150 756 
Q 2500 756 2700 1025 
Q 2900 1294 2900 1772 
L 2900 3500 
L 4019 3500 
L 4019 0 
L 2900 0 
L 2900 506 
Q 2647 200 2364 54 
Q 2081 -91 1741 -91 
Q 1134 -91 817 281 
Q 500 653 500 1363 
z
" transform="scale(0.015625)"/>
       <path id="DejaVuSans-Bold-b5" d="M 544 -1338 
L 544 3500 
L 1672 3500 
L 1672 1466 
Q 1672 1103 1828 926 
Q 1984 750 2303 750 
Q 2625 750 2781 926 
Q 2938 1103 2938 1466 
L 2938 3500 
L 4063 3500 
L 4063 1159 
Q 4063 938 4114 850 
Q 4166 763 4288 763 
Q 4344 763 4395 778 
Q 4447 794 4506 831 
L 4506 50 
Q 4341 -22 4195 -56 
Q 4050 -91 3909 -91 
Q 3631 -91 3454 26 
Q 3278 144 3169 403 
Q 3022 156 2811 32 
Q 2600 -91 2322 -91 
Q 2091 -91 1928 -17 
Q 1766 56 1672 206 
L 1672 -1338 
L 544 -1338 
z
" transform="scale(0.015625)"/>
       <path id="DejaVuSans-Bold-6c" d="M 538 4863 
L 1656 4863 
L 1656 0 
L 538 0 
L 538 4863 
z
" transform="scale(0.015625)"/>
      </defs>
      <use xlink:href="#DejaVuSans-Bold-4c"/>
      <use xlink:href="#DejaVuSans-Bold-6f" transform="translate(63.720703 0)"/>
      <use xlink:href="#DejaVuSans-Bold-73" transform="translate(132.421875 0)"/>
      <use xlink:href="#DejaVuSans-Bold-61" transform="translate(191.943359 0)"/>
      <use xlink:href="#DejaVuSans-Bold-72" transform="translate(259.423828 0)"/>
      <use xlink:href="#DejaVuSans-Bold-74" transform="translate(308.740234 0)"/>
      <use xlink:href="#DejaVuSans-Bold-61" transform="translate(356.542969 0)"/>
      <use xlink:href="#DejaVuSans-Bold-6e" transform="translate(424.023438 0)"/>
      <use xlink:href="#DejaVuSans-Bold-20" transform="translate(495.214844 0)"/>
      <use xlink:href="#DejaVuSans-Bold-75" transform="translate(530.029297 0)"/>
      <use xlink:href="#DejaVuSans-Bold-72" transform="translate(601.220703 0)"/>
      <use xlink:href="#DejaVuSans-Bold-69" transform="translate(650.537109 0)"/>
      <use xlink:href="#DejaVuSans-Bold-6e" transform="translate(684.814453 0)"/>
      <use xlink:href="#DejaVuSans-Bold-65" transform="translate(756.005859 0)"/>
      <use xlink:href="#DejaVuSans-Bold-20" transform="translate(823.828125 0)"/>
      <use xlink:href="#DejaVuSans-Bold-5b" transform="translate(858.642578 0)"/>
      <use xlink:href="#DejaVuSans-Bold-b5" transform="translate(904.345703 0)"/>
      <use xlink:href="#DejaVuSans-Bold-6d" transform="translate(977.929688 0)"/>
      <use xlink:href="#DejaVuSans-Bold-6f" transform="translate(1082.128906 0)"/>
      <use xlink:href="#DejaVuSans-Bold-6c" transform="translate(1150.830078 0)"/>
      <use xlink:href="#DejaVuSans-Bold-65" transform="translate(1185.107422 0)"/>
      <use xlink:href="#DejaVuSans-Bold-5d" transform="translate(1252.929688 0)"/>
     </g>
    </g>
   </g>
   <g id="LineCollection_5">
    <path clip-path="url(#p50bf27ac59)" style="fill: none; stroke: #000000"/>
    <path d="M 376.114326 525.252174 
L 376.114326 403.513043 
" clip-path="url(#p50bf27ac59)" style="fill: none; stroke: #000000"/>
   </g>
   <g id="line2d_46">
    <path d="M 79.69061 622.643478 
L 81.543258 622.565298 
L 82.778357 622.19852 
L 84.013456 621.377856 
L 85.248555 620.045652 
L 86.483654 618.225662 
L 87.718752 615.990121 
L 89.571401 612.065988 
L 92.659148 604.788998 
L 96.364444 596.201829 
L 98.834642 591.065793 
L 101.304839 586.540508 
L 103.157488 583.552991 
L 105.010136 580.895217 
L 106.862784 578.540564 
L 109.332982 575.819837 
L 111.803179 573.510667 
L 114.273377 571.544493 
L 116.743575 569.860581 
L 119.831322 568.07422 
L 122.919069 566.565072 
L 126.624365 565.029349 
L 130.947211 563.512818 
L 135.887606 562.029482 
L 142.0631 560.419022 
L 150.091243 558.572421 
L 160.589583 556.402505 
L 173.55812 553.954623 
L 188.379306 551.380593 
L 204.43559 548.815191 
L 221.726974 546.283717 
L 239.635907 543.891497 
L 258.162389 541.640514 
L 277.92397 539.466917 
L 298.3031 537.447528 
L 319.91733 535.527214 
L 342.766658 533.718723 
L 367.468634 531.990842 
L 388.465314 530.68696 
L 388.465314 530.68696 
" clip-path="url(#p50bf27ac59)" style="fill: none; stroke: #000000; stroke-width: 2; stroke-linecap: square"/>
   </g>
   <g id="line2d_47">
    <g clip-path="url(#p50bf27ac59)">
     <use xlink:href="#m8c2be9ecea" x="79.69061" y="622.643478" style="stroke: #000000; stroke-linejoin: miter"/>
     <use xlink:href="#m8c2be9ecea" x="376.114326" y="464.382609" style="stroke: #000000; stroke-linejoin: miter"/>
    </g>
   </g>
   <g id="patch_15">
    <path d="M 64.251875 633.6 
L 64.251875 392.556522 
" style="fill: none; stroke: #000000; stroke-width: 0.8; stroke-linejoin: miter; stroke-linecap: square"/>
   </g>
   <g id="patch_16">
    <path d="M 403.904049 633.6 
L 403.904049 392.556522 
" style="fill: none; stroke: #000000; stroke-width: 0.8; stroke-linejoin: miter; stroke-linecap: square"/>
   </g>
   <g id="patch_17">
    <path d="M 64.251875 633.6 
L 403.904049 633.6 
" style="fill: none; stroke: #000000; stroke-width: 0.8; stroke-linejoin: miter; stroke-linecap: square"/>
   </g>
   <g id="patch_18">
    <path d="M 64.251875 392.556522 
L 403.904049 392.556522 
" style="fill: none; stroke: #000000; stroke-width: 0.8; stroke-linejoin: miter; stroke-linecap: square"/>
   </g>
   <g id="legend_3">
    <g id="patch_19">
     <path d="M 236.727486 429.912772 
L 396.904049 429.912772 
Q 398.904049 429.912772 398.904049 427.912772 
L 398.904049 399.556522 
Q 398.904049 397.556522 396.904049 397.556522 
L 236.727486 397.556522 
Q 234.727486 397.556522 234.727486 399.556522 
L 234.727486 427.912772 
Q 234.727486 429.912772 236.727486 429.912772 
z
" style="fill: #ffffff; opacity: 0.8; stroke: #cccccc; stroke-linejoin: miter"/>
    </g>
    <g id="line2d_48">
     <path d="M 238.727486 405.654959 
L 258.727486 405.654959 
" style="fill: none; stroke: #000000; stroke-width: 2; stroke-linecap: square"/>
    </g>
    <g id="line2d_49"/>
    <g id="text_44">
     <!-- Sim 50 mg -->
     <g transform="translate(266.727486 409.154959) scale(0.1 -0.1)">
      <use xlink:href="#DejaVuSans-53"/>
      <use xlink:href="#DejaVuSans-69" transform="translate(63.476562 0)"/>
      <use xlink:href="#DejaVuSans-6d" transform="translate(91.259766 0)"/>
      <use xlink:href="#DejaVuSans-20" transform="translate(188.671875 0)"/>
      <use xlink:href="#DejaVuSans-35" transform="translate(220.458984 0)"/>
      <use xlink:href="#DejaVuSans-30" transform="translate(284.082031 0)"/>
      <use xlink:href="#DejaVuSans-20" transform="translate(347.705078 0)"/>
      <use xlink:href="#DejaVuSans-6d" transform="translate(379.492188 0)"/>
      <use xlink:href="#DejaVuSans-67" transform="translate(476.904297 0)"/>
     </g>
    </g>
    <g id="LineCollection_6">
     <path d="M 248.727486 425.333084 
L 248.727486 415.333084 
" style="fill: none; stroke: #000000"/>
    </g>
    <g id="line2d_50"/>
    <g id="line2d_51">
     <g>
      <use xlink:href="#m8c2be9ecea" x="248.727486" y="420.333084" style="stroke: #000000; stroke-linejoin: miter"/>
     </g>
    </g>
    <g id="text_45">
     <!-- LOS50 50 mg±SD (n=13) -->
     <g transform="translate(266.727486 423.833084) scale(0.1 -0.1)">
      <use xlink:href="#DejaVuSans-4c"/>
      <use xlink:href="#DejaVuSans-4f" transform="translate(52.087891 0)"/>
      <use xlink:href="#DejaVuSans-53" transform="translate(130.798828 0)"/>
      <use xlink:href="#DejaVuSans-35" transform="translate(194.275391 0)"/>
      <use xlink:href="#DejaVuSans-30" transform="translate(257.898438 0)"/>
      <use xlink:href="#DejaVuSans-20" transform="translate(321.521484 0)"/>
      <use xlink:href="#DejaVuSans-35" transform="translate(353.308594 0)"/>
      <use xlink:href="#DejaVuSans-30" transform="translate(416.931641 0)"/>
      <use xlink:href="#DejaVuSans-20" transform="translate(480.554688 0)"/>
      <use xlink:href="#DejaVuSans-6d" transform="translate(512.341797 0)"/>
      <use xlink:href="#DejaVuSans-67" transform="translate(609.753906 0)"/>
      <use xlink:href="#DejaVuSans-b1" transform="translate(673.230469 0)"/>
      <use xlink:href="#DejaVuSans-53" transform="translate(757.019531 0)"/>
      <use xlink:href="#DejaVuSans-44" transform="translate(820.496094 0)"/>
      <use xlink:href="#DejaVuSans-20" transform="translate(897.498047 0)"/>
      <use xlink:href="#DejaVuSans-28" transform="translate(929.285156 0)"/>
      <use xlink:href="#DejaVuSans-6e" transform="translate(968.298828 0)"/>
      <use xlink:href="#DejaVuSans-3d" transform="translate(1031.677734 0)"/>
      <use xlink:href="#DejaVuSans-31" transform="translate(1115.466797 0)"/>
      <use xlink:href="#DejaVuSans-33" transform="translate(1179.089844 0)"/>
      <use xlink:href="#DejaVuSans-29" transform="translate(1242.712891 0)"/>
     </g>
    </g>
   </g>
  </g>
  <g id="axes_4">
   <g id="patch_20">
    <path d="M 505.799701 633.6 
L 845.451875 633.6 
L 845.451875 392.556522 
L 505.799701 392.556522 
z
" style="fill: #ffffff"/>
   </g>
   <g id="matplotlib.axis_7">
    <g id="xtick_19">
     <g id="line2d_52">
      <g>
       <use xlink:href="#m8ad8fc9432" x="521.238436" y="633.6" style="stroke: #000000; stroke-width: 0.8"/>
      </g>
     </g>
     <g id="text_46">
      <!-- 0 -->
      <g transform="translate(516.466561 651.997656) scale(0.15 -0.15)">
       <use xlink:href="#DejaVuSans-30"/>
      </g>
     </g>
    </g>
    <g id="xtick_20">
     <g id="line2d_53">
      <g>
       <use xlink:href="#m8ad8fc9432" x="582.993377" y="633.6" style="stroke: #000000; stroke-width: 0.8"/>
      </g>
     </g>
     <g id="text_47">
      <!-- 5 -->
      <g transform="translate(578.221502 651.997656) scale(0.15 -0.15)">
       <use xlink:href="#DejaVuSans-35"/>
      </g>
     </g>
    </g>
    <g id="xtick_21">
     <g id="line2d_54">
      <g>
       <use xlink:href="#m8ad8fc9432" x="644.748318" y="633.6" style="stroke: #000000; stroke-width: 0.8"/>
      </g>
     </g>
     <g id="text_48">
      <!-- 10 -->
      <g transform="translate(635.204568 651.997656) scale(0.15 -0.15)">
       <use xlink:href="#DejaVuSans-31"/>
       <use xlink:href="#DejaVuSans-30" transform="translate(63.623047 0)"/>
      </g>
     </g>
    </g>
    <g id="xtick_22">
     <g id="line2d_55">
      <g>
       <use xlink:href="#m8ad8fc9432" x="706.503258" y="633.6" style="stroke: #000000; stroke-width: 0.8"/>
      </g>
     </g>
     <g id="text_49">
      <!-- 15 -->
      <g transform="translate(696.959508 651.997656) scale(0.15 -0.15)">
       <use xlink:href="#DejaVuSans-31"/>
       <use xlink:href="#DejaVuSans-35" transform="translate(63.623047 0)"/>
      </g>
     </g>
    </g>
    <g id="xtick_23">
     <g id="line2d_56">
      <g>
       <use xlink:href="#m8ad8fc9432" x="768.258199" y="633.6" style="stroke: #000000; stroke-width: 0.8"/>
      </g>
     </g>
     <g id="text_50">
      <!-- 20 -->
      <g transform="translate(758.714449 651.997656) scale(0.15 -0.15)">
       <use xlink:href="#DejaVuSans-32"/>
       <use xlink:href="#DejaVuSans-30" transform="translate(63.623047 0)"/>
      </g>
     </g>
    </g>
    <g id="xtick_24">
     <g id="line2d_57">
      <g>
       <use xlink:href="#m8ad8fc9432" x="830.01314" y="633.6" style="stroke: #000000; stroke-width: 0.8"/>
      </g>
     </g>
     <g id="text_51">
      <!-- 25 -->
      <g transform="translate(820.46939 651.997656) scale(0.15 -0.15)">
       <use xlink:href="#DejaVuSans-32"/>
       <use xlink:href="#DejaVuSans-35" transform="translate(63.623047 0)"/>
      </g>
     </g>
    </g>
    <g id="text_52">
     <!-- Time [hr] -->
     <g transform="translate(628.713288 672.794375) scale(0.18 -0.18)">
      <use xlink:href="#DejaVuSans-Bold-54"/>
      <use xlink:href="#DejaVuSans-Bold-69" transform="translate(68.212891 0)"/>
      <use xlink:href="#DejaVuSans-Bold-6d" transform="translate(102.490234 0)"/>
      <use xlink:href="#DejaVuSans-Bold-65" transform="translate(206.689453 0)"/>
      <use xlink:href="#DejaVuSans-Bold-20" transform="translate(274.511719 0)"/>
      <use xlink:href="#DejaVuSans-Bold-5b" transform="translate(309.326172 0)"/>
      <use xlink:href="#DejaVuSans-Bold-68" transform="translate(355.029297 0)"/>
      <use xlink:href="#DejaVuSans-Bold-72" transform="translate(426.220703 0)"/>
      <use xlink:href="#DejaVuSans-Bold-5d" transform="translate(475.537109 0)"/>
     </g>
    </g>
   </g>
   <g id="matplotlib.axis_8">
    <g id="ytick_16">
     <g id="line2d_58">
      <g>
       <use xlink:href="#m61bab6e982" x="505.799701" y="622.643478" style="stroke: #000000; stroke-width: 0.8"/>
      </g>
     </g>
     <g id="text_53">
      <!-- 0 -->
      <g transform="translate(489.255951 628.342306) scale(0.15 -0.15)">
       <use xlink:href="#DejaVuSans-30"/>
      </g>
     </g>
    </g>
    <g id="ytick_17">
     <g id="line2d_59">
      <g>
       <use xlink:href="#m61bab6e982" x="505.799701" y="583.789967" style="stroke: #000000; stroke-width: 0.8"/>
      </g>
     </g>
     <g id="text_54">
      <!-- 1 -->
      <g transform="translate(489.255951 589.488795) scale(0.15 -0.15)">
       <use xlink:href="#DejaVuSans-31"/>
      </g>
     </g>
    </g>
    <g id="ytick_18">
     <g id="line2d_60">
      <g>
       <use xlink:href="#m61bab6e982" x="505.799701" y="544.936455" style="stroke: #000000; stroke-width: 0.8"/>
      </g>
     </g>
     <g id="text_55">
      <!-- 2 -->
      <g transform="translate(489.255951 550.635283) scale(0.15 -0.15)">
       <use xlink:href="#DejaVuSans-32"/>
      </g>
     </g>
    </g>
    <g id="ytick_19">
     <g id="line2d_61">
      <g>
       <use xlink:href="#m61bab6e982" x="505.799701" y="506.082943" style="stroke: #000000; stroke-width: 0.8"/>
      </g>
     </g>
     <g id="text_56">
      <!-- 3 -->
      <g transform="translate(489.255951 511.781771) scale(0.15 -0.15)">
       <use xlink:href="#DejaVuSans-33"/>
      </g>
     </g>
    </g>
    <g id="ytick_20">
     <g id="line2d_62">
      <g>
       <use xlink:href="#m61bab6e982" x="505.799701" y="467.229431" style="stroke: #000000; stroke-width: 0.8"/>
      </g>
     </g>
     <g id="text_57">
      <!-- 4 -->
      <g transform="translate(489.255951 472.92826) scale(0.15 -0.15)">
       <use xlink:href="#DejaVuSans-34"/>
      </g>
     </g>
    </g>
    <g id="ytick_21">
     <g id="line2d_63">
      <g>
       <use xlink:href="#m61bab6e982" x="505.799701" y="428.37592" style="stroke: #000000; stroke-width: 0.8"/>
      </g>
     </g>
     <g id="text_58">
      <!-- 5 -->
      <g transform="translate(489.255951 434.074748) scale(0.15 -0.15)">
       <use xlink:href="#DejaVuSans-35"/>
      </g>
     </g>
    </g>
    <g id="text_59">
     <!-- E3174 urine [µmole] -->
     <g transform="translate(481.492826 616.58248) rotate(-90) scale(0.18 -0.18)">
      <use xlink:href="#DejaVuSans-Bold-45"/>
      <use xlink:href="#DejaVuSans-Bold-33" transform="translate(68.310547 0)"/>
      <use xlink:href="#DejaVuSans-Bold-31" transform="translate(137.890625 0)"/>
      <use xlink:href="#DejaVuSans-Bold-37" transform="translate(207.470703 0)"/>
      <use xlink:href="#DejaVuSans-Bold-34" transform="translate(277.050781 0)"/>
      <use xlink:href="#DejaVuSans-Bold-20" transform="translate(346.630859 0)"/>
      <use xlink:href="#DejaVuSans-Bold-75" transform="translate(381.445312 0)"/>
      <use xlink:href="#DejaVuSans-Bold-72" transform="translate(452.636719 0)"/>
      <use xlink:href="#DejaVuSans-Bold-69" transform="translate(501.953125 0)"/>
      <use xlink:href="#DejaVuSans-Bold-6e" transform="translate(536.230469 0)"/>
      <use xlink:href="#DejaVuSans-Bold-65" transform="translate(607.421875 0)"/>
      <use xlink:href="#DejaVuSans-Bold-20" transform="translate(675.244141 0)"/>
      <use xlink:href="#DejaVuSans-Bold-5b" transform="translate(710.058594 0)"/>
      <use xlink:href="#DejaVuSans-Bold-b5" transform="translate(755.761719 0)"/>
      <use xlink:href="#DejaVuSans-Bold-6d" transform="translate(829.345703 0)"/>
      <use xlink:href="#DejaVuSans-Bold-6f" transform="translate(933.544922 0)"/>
      <use xlink:href="#DejaVuSans-Bold-6c" transform="translate(1002.246094 0)"/>
      <use xlink:href="#DejaVuSans-Bold-65" transform="translate(1036.523438 0)"/>
      <use xlink:href="#DejaVuSans-Bold-5d" transform="translate(1104.345703 0)"/>
     </g>
    </g>
   </g>
   <g id="LineCollection_7">
    <path clip-path="url(#p8884340c4f)" style="fill: none; stroke: #000000"/>
    <path d="M 817.662152 470.937793 
L 817.662152 403.513043 
" clip-path="url(#p8884340c4f)" style="fill: none; stroke: #000000"/>
   </g>
   <g id="line2d_64">
    <path d="M 521.238436 622.643478 
L 528.03148 622.548905 
L 530.501677 622.313587 
L 532.971875 621.854947 
L 535.442073 621.135649 
L 537.91227 620.149998 
L 540.382468 618.91569 
L 543.470215 617.072548 
L 546.557962 614.966984 
L 550.880808 611.723419 
L 558.90895 605.326646 
L 566.319543 599.525195 
L 571.877488 595.432167 
L 577.435432 591.620002 
L 582.993377 588.102531 
L 588.551322 584.873728 
L 594.109266 581.917322 
L 599.667211 579.212477 
L 605.842705 576.475161 
L 612.018199 573.99125 
L 618.811243 571.518528 
L 625.604286 569.285428 
L 633.014879 567.088027 
L 641.043021 564.951238 
L 649.688713 562.893391 
L 658.951954 560.926748 
L 668.832745 559.058306 
L 679.948634 557.192952 
L 691.682073 555.449598 
L 704.65061 553.744613 
L 719.471796 552.028942 
L 735.528081 550.397466 
L 753.437013 548.802469 
L 773.816144 547.219554 
L 796.047922 545.719919 
L 820.749899 544.278798 
L 830.01314 543.79046 
L 830.01314 543.79046 
" clip-path="url(#p8884340c4f)" style="fill: none; stroke: #000000; stroke-width: 2; stroke-linecap: square"/>
   </g>
   <g id="line2d_65">
    <g clip-path="url(#p8884340c4f)">
     <use xlink:href="#m8c2be9ecea" x="521.238436" y="622.643478" style="stroke: #000000; stroke-linejoin: miter"/>
     <use xlink:href="#m8c2be9ecea" x="817.662152" y="437.225418" style="stroke: #000000; stroke-linejoin: miter"/>
    </g>
   </g>
   <g id="patch_21">
    <path d="M 505.799701 633.6 
L 505.799701 392.556522 
" style="fill: none; stroke: #000000; stroke-width: 0.8; stroke-linejoin: miter; stroke-linecap: square"/>
   </g>
   <g id="patch_22">
    <path d="M 845.451875 633.6 
L 845.451875 392.556522 
" style="fill: none; stroke: #000000; stroke-width: 0.8; stroke-linejoin: miter; stroke-linecap: square"/>
   </g>
   <g id="patch_23">
    <path d="M 505.799701 633.6 
L 845.451875 633.6 
" style="fill: none; stroke: #000000; stroke-width: 0.8; stroke-linejoin: miter; stroke-linecap: square"/>
   </g>
   <g id="patch_24">
    <path d="M 505.799701 392.556522 
L 845.451875 392.556522 
" style="fill: none; stroke: #000000; stroke-width: 0.8; stroke-linejoin: miter; stroke-linecap: square"/>
   </g>
   <g id="legend_4">
    <g id="patch_25">
     <path d="M 678.275313 429.912772 
L 838.451875 429.912772 
Q 840.451875 429.912772 840.451875 427.912772 
L 840.451875 399.556522 
Q 840.451875 397.556522 838.451875 397.556522 
L 678.275313 397.556522 
Q 676.275313 397.556522 676.275313 399.556522 
L 676.275313 427.912772 
Q 676.275313 429.912772 678.275313 429.912772 
z
" style="fill: #ffffff; opacity: 0.8; stroke: #cccccc; stroke-linejoin: miter"/>
    </g>
    <g id="line2d_66">
     <path d="M 680.275313 405.654959 
L 700.275313 405.654959 
" style="fill: none; stroke: #000000; stroke-width: 2; stroke-linecap: square"/>
    </g>
    <g id="line2d_67"/>
    <g id="text_60">
     <!-- Sim 50 mg -->
     <g transform="translate(708.275313 409.154959) scale(0.1 -0.1)">
      <use xlink:href="#DejaVuSans-53"/>
      <use xlink:href="#DejaVuSans-69" transform="translate(63.476562 0)"/>
      <use xlink:href="#DejaVuSans-6d" transform="translate(91.259766 0)"/>
      <use xlink:href="#DejaVuSans-20" transform="translate(188.671875 0)"/>
      <use xlink:href="#DejaVuSans-35" transform="translate(220.458984 0)"/>
      <use xlink:href="#DejaVuSans-30" transform="translate(284.082031 0)"/>
      <use xlink:href="#DejaVuSans-20" transform="translate(347.705078 0)"/>
      <use xlink:href="#DejaVuSans-6d" transform="translate(379.492188 0)"/>
      <use xlink:href="#DejaVuSans-67" transform="translate(476.904297 0)"/>
     </g>
    </g>
    <g id="LineCollection_8">
     <path d="M 690.275313 425.333084 
L 690.275313 415.333084 
" style="fill: none; stroke: #000000"/>
    </g>
    <g id="line2d_68"/>
    <g id="line2d_69">
     <g>
      <use xlink:href="#m8c2be9ecea" x="690.275313" y="420.333084" style="stroke: #000000; stroke-linejoin: miter"/>
     </g>
    </g>
    <g id="text_61">
     <!-- LOS50 50 mg±SD (n=13) -->
     <g transform="translate(708.275313 423.833084) scale(0.1 -0.1)">
      <use xlink:href="#DejaVuSans-4c"/>
      <use xlink:href="#DejaVuSans-4f" transform="translate(52.087891 0)"/>
      <use xlink:href="#DejaVuSans-53" transform="translate(130.798828 0)"/>
      <use xlink:href="#DejaVuSans-35" transform="translate(194.275391 0)"/>
      <use xlink:href="#DejaVuSans-30" transform="translate(257.898438 0)"/>
      <use xlink:href="#DejaVuSans-20" transform="translate(321.521484 0)"/>
      <use xlink:href="#DejaVuSans-35" transform="translate(353.308594 0)"/>
      <use xlink:href="#DejaVuSans-30" transform="translate(416.931641 0)"/>
      <use xlink:href="#DejaVuSans-20" transform="translate(480.554688 0)"/>
      <use xlink:href="#DejaVuSans-6d" transform="translate(512.341797 0)"/>
      <use xlink:href="#DejaVuSans-67" transform="translate(609.753906 0)"/>
      <use xlink:href="#DejaVuSans-b1" transform="translate(673.230469 0)"/>
      <use xlink:href="#DejaVuSans-53" transform="translate(757.019531 0)"/>
      <use xlink:href="#DejaVuSans-44" transform="translate(820.496094 0)"/>
      <use xlink:href="#DejaVuSans-20" transform="translate(897.498047 0)"/>
      <use xlink:href="#DejaVuSans-28" transform="translate(929.285156 0)"/>
      <use xlink:href="#DejaVuSans-6e" transform="translate(968.298828 0)"/>
      <use xlink:href="#DejaVuSans-3d" transform="translate(1031.677734 0)"/>
      <use xlink:href="#DejaVuSans-31" transform="translate(1115.466797 0)"/>
      <use xlink:href="#DejaVuSans-33" transform="translate(1179.089844 0)"/>
      <use xlink:href="#DejaVuSans-29" transform="translate(1242.712891 0)"/>
     </g>
    </g>
   </g>
  </g>
  <g id="text_62">
   <!-- Fischer2002 (healthy) -->
   <g transform="translate(287.351484 26.196094) scale(0.25 -0.25)">
    <defs>
     <path id="DejaVuSans-Bold-46" d="M 588 4666 
L 3834 4666 
L 3834 3756 
L 1791 3756 
L 1791 2888 
L 3713 2888 
L 3713 1978 
L 1791 1978 
L 1791 0 
L 588 0 
L 588 4666 
z
" transform="scale(0.015625)"/>
     <path id="DejaVuSans-Bold-63" d="M 3366 3391 
L 3366 2478 
Q 3138 2634 2908 2709 
Q 2678 2784 2431 2784 
Q 1963 2784 1702 2511 
Q 1441 2238 1441 1747 
Q 1441 1256 1702 982 
Q 1963 709 2431 709 
Q 2694 709 2930 787 
Q 3166 866 3366 1019 
L 3366 103 
Q 3103 6 2833 -42 
Q 2563 -91 2291 -91 
Q 1344 -91 809 395 
Q 275 881 275 1747 
Q 275 2613 809 3098 
Q 1344 3584 2291 3584 
Q 2566 3584 2833 3536 
Q 3100 3488 3366 3391 
z
" transform="scale(0.015625)"/>
     <path id="DejaVuSans-Bold-32" d="M 1844 884 
L 3897 884 
L 3897 0 
L 506 0 
L 506 884 
L 2209 2388 
Q 2438 2594 2547 2791 
Q 2656 2988 2656 3200 
Q 2656 3528 2436 3728 
Q 2216 3928 1850 3928 
Q 1569 3928 1234 3808 
Q 900 3688 519 3450 
L 519 4475 
Q 925 4609 1322 4679 
Q 1719 4750 2100 4750 
Q 2938 4750 3402 4381 
Q 3866 4013 3866 3353 
Q 3866 2972 3669 2642 
Q 3472 2313 2841 1759 
L 1844 884 
z
" transform="scale(0.015625)"/>
     <path id="DejaVuSans-Bold-30" d="M 2944 2338 
Q 2944 3213 2780 3570 
Q 2616 3928 2228 3928 
Q 1841 3928 1675 3570 
Q 1509 3213 1509 2338 
Q 1509 1453 1675 1090 
Q 1841 728 2228 728 
Q 2613 728 2778 1090 
Q 2944 1453 2944 2338 
z
M 4147 2328 
Q 4147 1169 3647 539 
Q 3147 -91 2228 -91 
Q 1306 -91 806 539 
Q 306 1169 306 2328 
Q 306 3491 806 4120 
Q 1306 4750 2228 4750 
Q 3147 4750 3647 4120 
Q 4147 3491 4147 2328 
z
" transform="scale(0.015625)"/>
     <path id="DejaVuSans-Bold-28" d="M 2413 -844 
L 1484 -844 
Q 1006 -72 778 623 
Q 550 1319 550 2003 
Q 550 2688 779 3389 
Q 1009 4091 1484 4856 
L 2413 4856 
Q 2013 4116 1813 3408 
Q 1613 2700 1613 2009 
Q 1613 1319 1811 609 
Q 2009 -100 2413 -844 
z
" transform="scale(0.015625)"/>
     <path id="DejaVuSans-Bold-79" d="M 78 3500 
L 1197 3500 
L 2138 1125 
L 2938 3500 
L 4056 3500 
L 2584 -331 
Q 2363 -916 2067 -1148 
Q 1772 -1381 1288 -1381 
L 641 -1381 
L 641 -647 
L 991 -647 
Q 1275 -647 1404 -556 
Q 1534 -466 1606 -231 
L 1638 -134 
L 78 3500 
z
" transform="scale(0.015625)"/>
     <path id="DejaVuSans-Bold-29" d="M 513 -844 
Q 913 -100 1113 609 
Q 1313 1319 1313 2009 
Q 1313 2700 1113 3408 
Q 913 4116 513 4856 
L 1441 4856 
Q 1916 4091 2145 3389 
Q 2375 2688 2375 2003 
Q 2375 1319 2147 623 
Q 1919 -72 1441 -844 
L 513 -844 
z
" transform="scale(0.015625)"/>
    </defs>
    <use xlink:href="#DejaVuSans-Bold-46"/>
    <use xlink:href="#DejaVuSans-Bold-69" transform="translate(68.310547 0)"/>
    <use xlink:href="#DejaVuSans-Bold-73" transform="translate(102.587891 0)"/>
    <use xlink:href="#DejaVuSans-Bold-63" transform="translate(162.109375 0)"/>
    <use xlink:href="#DejaVuSans-Bold-68" transform="translate(221.386719 0)"/>
    <use xlink:href="#DejaVuSans-Bold-65" transform="translate(292.578125 0)"/>
    <use xlink:href="#DejaVuSans-Bold-72" transform="translate(360.400391 0)"/>
    <use xlink:href="#DejaVuSans-Bold-32" transform="translate(409.716797 0)"/>
    <use xlink:href="#DejaVuSans-Bold-30" transform="translate(479.296875 0)"/>
    <use xlink:href="#DejaVuSans-Bold-30" transform="translate(548.876953 0)"/>
    <use xlink:href="#DejaVuSans-Bold-32" transform="translate(618.457031 0)"/>
    <use xlink:href="#DejaVuSans-Bold-20" transform="translate(688.037109 0)"/>
    <use xlink:href="#DejaVuSans-Bold-28" transform="translate(722.851562 0)"/>
    <use xlink:href="#DejaVuSans-Bold-68" transform="translate(768.554688 0)"/>
    <use xlink:href="#DejaVuSans-Bold-65" transform="translate(839.746094 0)"/>
    <use xlink:href="#DejaVuSans-Bold-61" transform="translate(907.568359 0)"/>
    <use xlink:href="#DejaVuSans-Bold-6c" transform="translate(975.048828 0)"/>
    <use xlink:href="#DejaVuSans-Bold-74" transform="translate(1009.326172 0)"/>
    <use xlink:href="#DejaVuSans-Bold-68" transform="translate(1057.128906 0)"/>
    <use xlink:href="#DejaVuSans-Bold-79" transform="translate(1128.320312 0)"/>
    <use xlink:href="#DejaVuSans-Bold-29" transform="translate(1193.505859 0)"/>
   </g>
  </g>
 </g>
 <defs>
  <clipPath id="p1d3d73b7d2">
   <rect x="64.251875" y="79.2" width="339.652174" height="241.043478"/>
  </clipPath>
  <clipPath id="pd48cc9d94f">
   <rect x="505.799701" y="79.2" width="339.652174" height="241.043478"/>
  </clipPath>
  <clipPath id="p50bf27ac59">
   <rect x="64.251875" y="392.556522" width="339.652174" height="241.043478"/>
  </clipPath>
  <clipPath id="p8884340c4f">
   <rect x="505.799701" y="392.556522" width="339.652174" height="241.043478"/>
  </clipPath>
 </defs>
</svg>
