<?xml version="1.0" encoding="utf-8" standalone="no"?>
<!DOCTYPE svg PUBLIC "-//W3C//DTD SVG 1.1//EN"
  "http://www.w3.org/Graphics/SVG/1.1/DTD/svg11.dtd">
<svg xmlns:xlink="http://www.w3.org/1999/xlink" width="471.827656pt" height="683.737812pt" viewBox="0 0 471.827656 683.737812" xmlns="http://www.w3.org/2000/svg" version="1.1">
 <metadata>
  <rdf:RDF xmlns:dc="http://purl.org/dc/elements/1.1/" xmlns:cc="http://creativecommons.org/ns#" xmlns:rdf="http://www.w3.org/1999/02/22-rdf-syntax-ns#">
   <cc:Work>
    <dc:type rdf:resource="http://purl.org/dc/dcmitype/StillImage"/>
    <dc:date>2025-12-03T16:33:27.553566</dc:date>
    <dc:format>image/svg+xml</dc:format>
    <dc:creator>
     <cc:Agent>
      <dc:title>Matplotlib v3.10.7, https://matplotlib.org/</dc:title>
     </cc:Agent>
    </dc:creator>
   </cc:Work>
  </rdf:RDF>
 </metadata>
 <defs>
  <style type="text/css">*{stroke-linejoin: round; stroke-linecap: butt}</style>
 </defs>
 <g id="figure_1">
  <g id="patch_1">
   <path d="M 0 683.737812 
L 471.827656 683.737812 
L 471.827656 0 
L 0 0 
z
" style="fill: #ffffff"/>
  </g>
  <g id="axes_1">
   <g id="patch_2">
    <path d="M 73.795625 320.243478 
L 464.395625 320.243478 
L 464.395625 79.2 
L 73.795625 79.2 
z
" style="fill: #ffffff"/>
   </g>
   <g id="matplotlib.axis_1">
    <g id="xtick_1">
     <g id="line2d_1">
      <defs>
       <path id="m7913dc369b" d="M 0 0 
L 0 3.5 
" style="stroke: #000000; stroke-width: 0.8"/>
      </defs>
      <g>
       <use xlink:href="#m7913dc369b" x="89.506032" y="320.243478" style="stroke: #000000; stroke-width: 0.8"/>
      </g>
     </g>
     <g id="text_1">
      <!-- −20 -->
      <g transform="translate(73.677517 338.641135) scale(0.15 -0.15)">
       <defs>
        <path id="DejaVuSans-2212" d="M 678 2272 
L 4684 2272 
L 4684 1741 
L 678 1741 
L 678 2272 
z
" transform="scale(0.015625)"/>
        <path id="DejaVuSans-32" d="M 1228 531 
L 3431 531 
L 3431 0 
L 469 0 
L 469 531 
Q 828 903 1448 1529 
Q 2069 2156 2228 2338 
Q 2531 2678 2651 2914 
Q 2772 3150 2772 3378 
Q 2772 3750 2511 3984 
Q 2250 4219 1831 4219 
Q 1534 4219 1204 4116 
Q 875 4013 500 3803 
L 500 4441 
Q 881 4594 1212 4672 
Q 1544 4750 1819 4750 
Q 2544 4750 2975 4387 
Q 3406 4025 3406 3419 
Q 3406 3131 3298 2873 
Q 3191 2616 2906 2266 
Q 2828 2175 2409 1742 
Q 1991 1309 1228 531 
z
" transform="scale(0.015625)"/>
        <path id="DejaVuSans-30" d="M 2034 4250 
Q 1547 4250 1301 3770 
Q 1056 3291 1056 2328 
Q 1056 1369 1301 889 
Q 1547 409 2034 409 
Q 2525 409 2770 889 
Q 3016 1369 3016 2328 
Q 3016 3291 2770 3770 
Q 2525 4250 2034 4250 
z
M 2034 4750 
Q 2819 4750 3233 4129 
Q 3647 3509 3647 2328 
Q 3647 1150 3233 529 
Q 2819 -91 2034 -91 
Q 1250 -91 836 529 
Q 422 1150 422 2328 
Q 422 3509 836 4129 
Q 1250 4750 2034 4750 
z
" transform="scale(0.015625)"/>
       </defs>
       <use xlink:href="#DejaVuSans-2212"/>
       <use xlink:href="#DejaVuSans-32" transform="translate(83.789062 0)"/>
       <use xlink:href="#DejaVuSans-30" transform="translate(147.412109 0)"/>
      </g>
     </g>
    </g>
    <g id="xtick_2">
     <g id="line2d_2">
      <g>
       <use xlink:href="#m7913dc369b" x="168.058068" y="320.243478" style="stroke: #000000; stroke-width: 0.8"/>
      </g>
     </g>
     <g id="text_2">
      <!-- 0 -->
      <g transform="translate(163.286193 338.641135) scale(0.15 -0.15)">
       <use xlink:href="#DejaVuSans-30"/>
      </g>
     </g>
    </g>
    <g id="xtick_3">
     <g id="line2d_3">
      <g>
       <use xlink:href="#m7913dc369b" x="246.610105" y="320.243478" style="stroke: #000000; stroke-width: 0.8"/>
      </g>
     </g>
     <g id="text_3">
      <!-- 20 -->
      <g transform="translate(237.066355 338.641135) scale(0.15 -0.15)">
       <use xlink:href="#DejaVuSans-32"/>
       <use xlink:href="#DejaVuSans-30" transform="translate(63.623047 0)"/>
      </g>
     </g>
    </g>
    <g id="xtick_4">
     <g id="line2d_4">
      <g>
       <use xlink:href="#m7913dc369b" x="325.162141" y="320.243478" style="stroke: #000000; stroke-width: 0.8"/>
      </g>
     </g>
     <g id="text_4">
      <!-- 40 -->
      <g transform="translate(315.618391 338.641135) scale(0.15 -0.15)">
       <defs>
        <path id="DejaVuSans-34" d="M 2419 4116 
L 825 1625 
L 2419 1625 
L 2419 4116 
z
M 2253 4666 
L 3047 4666 
L 3047 1625 
L 3713 1625 
L 3713 1100 
L 3047 1100 
L 3047 0 
L 2419 0 
L 2419 1100 
L 313 1100 
L 313 1709 
L 2253 4666 
z
" transform="scale(0.015625)"/>
       </defs>
       <use xlink:href="#DejaVuSans-34"/>
       <use xlink:href="#DejaVuSans-30" transform="translate(63.623047 0)"/>
      </g>
     </g>
    </g>
    <g id="xtick_5">
     <g id="line2d_5">
      <g>
       <use xlink:href="#m7913dc369b" x="403.714177" y="320.243478" style="stroke: #000000; stroke-width: 0.8"/>
      </g>
     </g>
     <g id="text_5">
      <!-- 60 -->
      <g transform="translate(394.170427 338.641135) scale(0.15 -0.15)">
       <defs>
        <path id="DejaVuSans-36" d="M 2113 2584 
Q 1688 2584 1439 2293 
Q 1191 2003 1191 1497 
Q 1191 994 1439 701 
Q 1688 409 2113 409 
Q 2538 409 2786 701 
Q 3034 994 3034 1497 
Q 3034 2003 2786 2293 
Q 2538 2584 2113 2584 
z
M 3366 4563 
L 3366 3988 
Q 3128 4100 2886 4159 
Q 2644 4219 2406 4219 
Q 1781 4219 1451 3797 
Q 1122 3375 1075 2522 
Q 1259 2794 1537 2939 
Q 1816 3084 2150 3084 
Q 2853 3084 3261 2657 
Q 3669 2231 3669 1497 
Q 3669 778 3244 343 
Q 2819 -91 2113 -91 
Q 1303 -91 875 529 
Q 447 1150 447 2328 
Q 447 3434 972 4092 
Q 1497 4750 2381 4750 
Q 2619 4750 2861 4703 
Q 3103 4656 3366 4563 
z
" transform="scale(0.015625)"/>
       </defs>
       <use xlink:href="#DejaVuSans-36"/>
       <use xlink:href="#DejaVuSans-30" transform="translate(63.623047 0)"/>
      </g>
     </g>
    </g>
    <g id="text_6">
     <!-- Time [hr] -->
     <g transform="translate(222.183125 359.437853) scale(0.18 -0.18)">
      <defs>
       <path id="DejaVuSans-Bold-54" d="M 31 4666 
L 4331 4666 
L 4331 3756 
L 2784 3756 
L 2784 0 
L 1581 0 
L 1581 3756 
L 31 3756 
L 31 4666 
z
" transform="scale(0.015625)"/>
       <path id="DejaVuSans-Bold-69" d="M 538 3500 
L 1656 3500 
L 1656 0 
L 538 0 
L 538 3500 
z
M 538 4863 
L 1656 4863 
L 1656 3950 
L 538 3950 
L 538 4863 
z
" transform="scale(0.015625)"/>
       <path id="DejaVuSans-Bold-6d" d="M 3781 2919 
Q 3994 3244 4286 3414 
Q 4578 3584 4928 3584 
Q 5531 3584 5847 3212 
Q 6163 2841 6163 2131 
L 6163 0 
L 5038 0 
L 5038 1825 
Q 5041 1866 5042 1909 
Q 5044 1953 5044 2034 
Q 5044 2406 4934 2573 
Q 4825 2741 4581 2741 
Q 4263 2741 4089 2478 
Q 3916 2216 3909 1719 
L 3909 0 
L 2784 0 
L 2784 1825 
Q 2784 2406 2684 2573 
Q 2584 2741 2328 2741 
Q 2006 2741 1831 2477 
Q 1656 2213 1656 1722 
L 1656 0 
L 531 0 
L 531 3500 
L 1656 3500 
L 1656 2988 
Q 1863 3284 2130 3434 
Q 2397 3584 2719 3584 
Q 3081 3584 3359 3409 
Q 3638 3234 3781 2919 
z
" transform="scale(0.015625)"/>
       <path id="DejaVuSans-Bold-65" d="M 4031 1759 
L 4031 1441 
L 1416 1441 
Q 1456 1047 1700 850 
Q 1944 653 2381 653 
Q 2734 653 3104 758 
Q 3475 863 3866 1075 
L 3866 213 
Q 3469 63 3072 -14 
Q 2675 -91 2278 -91 
Q 1328 -91 801 392 
Q 275 875 275 1747 
Q 275 2603 792 3093 
Q 1309 3584 2216 3584 
Q 3041 3584 3536 3087 
Q 4031 2591 4031 1759 
z
M 2881 2131 
Q 2881 2450 2695 2645 
Q 2509 2841 2209 2841 
Q 1884 2841 1681 2658 
Q 1478 2475 1428 2131 
L 2881 2131 
z
" transform="scale(0.015625)"/>
       <path id="DejaVuSans-Bold-20" transform="scale(0.015625)"/>
       <path id="DejaVuSans-Bold-5b" d="M 550 4863 
L 2491 4863 
L 2491 4159 
L 1613 4159 
L 1613 -141 
L 2491 -141 
L 2491 -844 
L 550 -844 
L 550 4863 
z
" transform="scale(0.015625)"/>
       <path id="DejaVuSans-Bold-68" d="M 4056 2131 
L 4056 0 
L 2931 0 
L 2931 347 
L 2931 1625 
Q 2931 2084 2911 2256 
Q 2891 2428 2841 2509 
Q 2775 2619 2662 2680 
Q 2550 2741 2406 2741 
Q 2056 2741 1856 2470 
Q 1656 2200 1656 1722 
L 1656 0 
L 538 0 
L 538 4863 
L 1656 4863 
L 1656 2988 
Q 1909 3294 2193 3439 
Q 2478 3584 2822 3584 
Q 3428 3584 3742 3212 
Q 4056 2841 4056 2131 
z
" transform="scale(0.015625)"/>
       <path id="DejaVuSans-Bold-72" d="M 3138 2547 
Q 2991 2616 2845 2648 
Q 2700 2681 2553 2681 
Q 2122 2681 1889 2404 
Q 1656 2128 1656 1613 
L 1656 0 
L 538 0 
L 538 3500 
L 1656 3500 
L 1656 2925 
Q 1872 3269 2151 3426 
Q 2431 3584 2822 3584 
Q 2878 3584 2943 3579 
Q 3009 3575 3134 3559 
L 3138 2547 
z
" transform="scale(0.015625)"/>
       <path id="DejaVuSans-Bold-5d" d="M 2375 -844 
L 434 -844 
L 434 -141 
L 1313 -141 
L 1313 4159 
L 434 4159 
L 434 4863 
L 2375 4863 
L 2375 -844 
z
" transform="scale(0.015625)"/>
      </defs>
      <use xlink:href="#DejaVuSans-Bold-54"/>
      <use xlink:href="#DejaVuSans-Bold-69" transform="translate(68.212891 0)"/>
      <use xlink:href="#DejaVuSans-Bold-6d" transform="translate(102.490234 0)"/>
      <use xlink:href="#DejaVuSans-Bold-65" transform="translate(206.689453 0)"/>
      <use xlink:href="#DejaVuSans-Bold-20" transform="translate(274.511719 0)"/>
      <use xlink:href="#DejaVuSans-Bold-5b" transform="translate(309.326172 0)"/>
      <use xlink:href="#DejaVuSans-Bold-68" transform="translate(355.029297 0)"/>
      <use xlink:href="#DejaVuSans-Bold-72" transform="translate(426.220703 0)"/>
      <use xlink:href="#DejaVuSans-Bold-5d" transform="translate(475.537109 0)"/>
     </g>
    </g>
   </g>
   <g id="matplotlib.axis_2">
    <g id="ytick_1">
     <g id="line2d_6">
      <defs>
       <path id="m9f9530f8a6" d="M 0 0 
L -3.5 0 
" style="stroke: #000000; stroke-width: 0.8"/>
      </defs>
      <g>
       <use xlink:href="#m9f9530f8a6" x="73.795625" y="309.286957" style="stroke: #000000; stroke-width: 0.8"/>
      </g>
     </g>
     <g id="text_7">
      <!-- 0 -->
      <g transform="translate(57.251875 314.985785) scale(0.15 -0.15)">
       <use xlink:href="#DejaVuSans-30"/>
      </g>
     </g>
    </g>
    <g id="ytick_2">
     <g id="line2d_7">
      <g>
       <use xlink:href="#m9f9530f8a6" x="73.795625" y="258.852077" style="stroke: #000000; stroke-width: 0.8"/>
      </g>
     </g>
     <g id="text_8">
      <!-- 500 -->
      <g transform="translate(38.164375 264.550905) scale(0.15 -0.15)">
       <defs>
        <path id="DejaVuSans-35" d="M 691 4666 
L 3169 4666 
L 3169 4134 
L 1269 4134 
L 1269 2991 
Q 1406 3038 1543 3061 
Q 1681 3084 1819 3084 
Q 2600 3084 3056 2656 
Q 3513 2228 3513 1497 
Q 3513 744 3044 326 
Q 2575 -91 1722 -91 
Q 1428 -91 1123 -41 
Q 819 9 494 109 
L 494 744 
Q 775 591 1075 516 
Q 1375 441 1709 441 
Q 2250 441 2565 725 
Q 2881 1009 2881 1497 
Q 2881 1984 2565 2268 
Q 2250 2553 1709 2553 
Q 1456 2553 1204 2497 
Q 953 2441 691 2322 
L 691 4666 
z
" transform="scale(0.015625)"/>
       </defs>
       <use xlink:href="#DejaVuSans-35"/>
       <use xlink:href="#DejaVuSans-30" transform="translate(63.623047 0)"/>
       <use xlink:href="#DejaVuSans-30" transform="translate(127.246094 0)"/>
      </g>
     </g>
    </g>
    <g id="ytick_3">
     <g id="line2d_8">
      <g>
       <use xlink:href="#m9f9530f8a6" x="73.795625" y="208.417197" style="stroke: #000000; stroke-width: 0.8"/>
      </g>
     </g>
     <g id="text_9">
      <!-- 1000 -->
      <g transform="translate(28.620625 214.116025) scale(0.15 -0.15)">
       <defs>
        <path id="DejaVuSans-31" d="M 794 531 
L 1825 531 
L 1825 4091 
L 703 3866 
L 703 4441 
L 1819 4666 
L 2450 4666 
L 2450 531 
L 3481 531 
L 3481 0 
L 794 0 
L 794 531 
z
" transform="scale(0.015625)"/>
       </defs>
       <use xlink:href="#DejaVuSans-31"/>
       <use xlink:href="#DejaVuSans-30" transform="translate(63.623047 0)"/>
       <use xlink:href="#DejaVuSans-30" transform="translate(127.246094 0)"/>
       <use xlink:href="#DejaVuSans-30" transform="translate(190.869141 0)"/>
      </g>
     </g>
    </g>
    <g id="ytick_4">
     <g id="line2d_9">
      <g>
       <use xlink:href="#m9f9530f8a6" x="73.795625" y="157.982317" style="stroke: #000000; stroke-width: 0.8"/>
      </g>
     </g>
     <g id="text_10">
      <!-- 1500 -->
      <g transform="translate(28.620625 163.681145) scale(0.15 -0.15)">
       <use xlink:href="#DejaVuSans-31"/>
       <use xlink:href="#DejaVuSans-35" transform="translate(63.623047 0)"/>
       <use xlink:href="#DejaVuSans-30" transform="translate(127.246094 0)"/>
       <use xlink:href="#DejaVuSans-30" transform="translate(190.869141 0)"/>
      </g>
     </g>
    </g>
    <g id="ytick_5">
     <g id="line2d_10">
      <g>
       <use xlink:href="#m9f9530f8a6" x="73.795625" y="107.547437" style="stroke: #000000; stroke-width: 0.8"/>
      </g>
     </g>
     <g id="text_11">
      <!-- 2000 -->
      <g transform="translate(28.620625 113.246265) scale(0.15 -0.15)">
       <use xlink:href="#DejaVuSans-32"/>
       <use xlink:href="#DejaVuSans-30" transform="translate(63.623047 0)"/>
       <use xlink:href="#DejaVuSans-30" transform="translate(127.246094 0)"/>
       <use xlink:href="#DejaVuSans-30" transform="translate(190.869141 0)"/>
      </g>
     </g>
    </g>
    <g id="text_12">
     <!-- Losartan [nM] -->
     <g transform="translate(20.877188 271.012989) rotate(-90) scale(0.18 -0.18)">
      <defs>
       <path id="DejaVuSans-Bold-4c" d="M 588 4666 
L 1791 4666 
L 1791 909 
L 3903 909 
L 3903 0 
L 588 0 
L 588 4666 
z
" transform="scale(0.015625)"/>
       <path id="DejaVuSans-Bold-6f" d="M 2203 2784 
Q 1831 2784 1636 2517 
Q 1441 2250 1441 1747 
Q 1441 1244 1636 976 
Q 1831 709 2203 709 
Q 2569 709 2762 976 
Q 2956 1244 2956 1747 
Q 2956 2250 2762 2517 
Q 2569 2784 2203 2784 
z
M 2203 3584 
Q 3106 3584 3614 3096 
Q 4122 2609 4122 1747 
Q 4122 884 3614 396 
Q 3106 -91 2203 -91 
Q 1297 -91 786 396 
Q 275 884 275 1747 
Q 275 2609 786 3096 
Q 1297 3584 2203 3584 
z
" transform="scale(0.015625)"/>
       <path id="DejaVuSans-Bold-73" d="M 3272 3391 
L 3272 2541 
Q 2913 2691 2578 2766 
Q 2244 2841 1947 2841 
Q 1628 2841 1473 2761 
Q 1319 2681 1319 2516 
Q 1319 2381 1436 2309 
Q 1553 2238 1856 2203 
L 2053 2175 
Q 2913 2066 3209 1816 
Q 3506 1566 3506 1031 
Q 3506 472 3093 190 
Q 2681 -91 1863 -91 
Q 1516 -91 1145 -36 
Q 775 19 384 128 
L 384 978 
Q 719 816 1070 734 
Q 1422 653 1784 653 
Q 2113 653 2278 743 
Q 2444 834 2444 1013 
Q 2444 1163 2330 1236 
Q 2216 1309 1875 1350 
L 1678 1375 
Q 931 1469 631 1722 
Q 331 1975 331 2491 
Q 331 3047 712 3315 
Q 1094 3584 1881 3584 
Q 2191 3584 2531 3537 
Q 2872 3491 3272 3391 
z
" transform="scale(0.015625)"/>
       <path id="DejaVuSans-Bold-61" d="M 2106 1575 
Q 1756 1575 1579 1456 
Q 1403 1338 1403 1106 
Q 1403 894 1545 773 
Q 1688 653 1941 653 
Q 2256 653 2472 879 
Q 2688 1106 2688 1447 
L 2688 1575 
L 2106 1575 
z
M 3816 1997 
L 3816 0 
L 2688 0 
L 2688 519 
Q 2463 200 2181 54 
Q 1900 -91 1497 -91 
Q 953 -91 614 226 
Q 275 544 275 1050 
Q 275 1666 698 1953 
Q 1122 2241 2028 2241 
L 2688 2241 
L 2688 2328 
Q 2688 2594 2478 2717 
Q 2269 2841 1825 2841 
Q 1466 2841 1156 2769 
Q 847 2697 581 2553 
L 581 3406 
Q 941 3494 1303 3539 
Q 1666 3584 2028 3584 
Q 2975 3584 3395 3211 
Q 3816 2838 3816 1997 
z
" transform="scale(0.015625)"/>
       <path id="DejaVuSans-Bold-74" d="M 1759 4494 
L 1759 3500 
L 2913 3500 
L 2913 2700 
L 1759 2700 
L 1759 1216 
Q 1759 972 1856 886 
Q 1953 800 2241 800 
L 2816 800 
L 2816 0 
L 1856 0 
Q 1194 0 917 276 
Q 641 553 641 1216 
L 641 2700 
L 84 2700 
L 84 3500 
L 641 3500 
L 641 4494 
L 1759 4494 
z
" transform="scale(0.015625)"/>
       <path id="DejaVuSans-Bold-6e" d="M 4056 2131 
L 4056 0 
L 2931 0 
L 2931 347 
L 2931 1631 
Q 2931 2084 2911 2256 
Q 2891 2428 2841 2509 
Q 2775 2619 2662 2680 
Q 2550 2741 2406 2741 
Q 2056 2741 1856 2470 
Q 1656 2200 1656 1722 
L 1656 0 
L 538 0 
L 538 3500 
L 1656 3500 
L 1656 2988 
Q 1909 3294 2193 3439 
Q 2478 3584 2822 3584 
Q 3428 3584 3742 3212 
Q 4056 2841 4056 2131 
z
" transform="scale(0.015625)"/>
       <path id="DejaVuSans-Bold-4d" d="M 588 4666 
L 2119 4666 
L 3181 2169 
L 4250 4666 
L 5778 4666 
L 5778 0 
L 4641 0 
L 4641 3413 
L 3566 897 
L 2803 897 
L 1728 3413 
L 1728 0 
L 588 0 
L 588 4666 
z
" transform="scale(0.015625)"/>
      </defs>
      <use xlink:href="#DejaVuSans-Bold-4c"/>
      <use xlink:href="#DejaVuSans-Bold-6f" transform="translate(63.720703 0)"/>
      <use xlink:href="#DejaVuSans-Bold-73" transform="translate(132.421875 0)"/>
      <use xlink:href="#DejaVuSans-Bold-61" transform="translate(191.943359 0)"/>
      <use xlink:href="#DejaVuSans-Bold-72" transform="translate(259.423828 0)"/>
      <use xlink:href="#DejaVuSans-Bold-74" transform="translate(308.740234 0)"/>
      <use xlink:href="#DejaVuSans-Bold-61" transform="translate(356.542969 0)"/>
      <use xlink:href="#DejaVuSans-Bold-6e" transform="translate(424.023438 0)"/>
      <use xlink:href="#DejaVuSans-Bold-20" transform="translate(495.214844 0)"/>
      <use xlink:href="#DejaVuSans-Bold-5b" transform="translate(530.029297 0)"/>
      <use xlink:href="#DejaVuSans-Bold-6e" transform="translate(575.732422 0)"/>
      <use xlink:href="#DejaVuSans-Bold-4d" transform="translate(646.923828 0)"/>
      <use xlink:href="#DejaVuSans-Bold-5d" transform="translate(746.435547 0)"/>
     </g>
    </g>
   </g>
   <g id="LineCollection_1">
    <path clip-path="url(#p7b2f3d4031)" style="fill: none; stroke: #000000"/>
    <path clip-path="url(#p7b2f3d4031)" style="fill: none; stroke: #000000"/>
    <path clip-path="url(#p7b2f3d4031)" style="fill: none; stroke: #000000"/>
    <path clip-path="url(#p7b2f3d4031)" style="fill: none; stroke: #000000"/>
    <path clip-path="url(#p7b2f3d4031)" style="fill: none; stroke: #000000"/>
    <path clip-path="url(#p7b2f3d4031)" style="fill: none; stroke: #000000"/>
    <path clip-path="url(#p7b2f3d4031)" style="fill: none; stroke: #000000"/>
    <path clip-path="url(#p7b2f3d4031)" style="fill: none; stroke: #000000"/>
    <path clip-path="url(#p7b2f3d4031)" style="fill: none; stroke: #000000"/>
    <path clip-path="url(#p7b2f3d4031)" style="fill: none; stroke: #000000"/>
    <path clip-path="url(#p7b2f3d4031)" style="fill: none; stroke: #000000"/>
    <path clip-path="url(#p7b2f3d4031)" style="fill: none; stroke: #000000"/>
    <path clip-path="url(#p7b2f3d4031)" style="fill: none; stroke: #000000"/>
   </g>
   <g id="LineCollection_2">
    <path clip-path="url(#p7b2f3d4031)" style="fill: none; stroke: #66c2a4"/>
    <path clip-path="url(#p7b2f3d4031)" style="fill: none; stroke: #66c2a4"/>
    <path clip-path="url(#p7b2f3d4031)" style="fill: none; stroke: #66c2a4"/>
    <path clip-path="url(#p7b2f3d4031)" style="fill: none; stroke: #66c2a4"/>
    <path clip-path="url(#p7b2f3d4031)" style="fill: none; stroke: #66c2a4"/>
    <path clip-path="url(#p7b2f3d4031)" style="fill: none; stroke: #66c2a4"/>
    <path clip-path="url(#p7b2f3d4031)" style="fill: none; stroke: #66c2a4"/>
    <path clip-path="url(#p7b2f3d4031)" style="fill: none; stroke: #66c2a4"/>
    <path clip-path="url(#p7b2f3d4031)" style="fill: none; stroke: #66c2a4"/>
    <path clip-path="url(#p7b2f3d4031)" style="fill: none; stroke: #66c2a4"/>
    <path clip-path="url(#p7b2f3d4031)" style="fill: none; stroke: #66c2a4"/>
    <path clip-path="url(#p7b2f3d4031)" style="fill: none; stroke: #66c2a4"/>
    <path clip-path="url(#p7b2f3d4031)" style="fill: none; stroke: #66c2a4"/>
    <path clip-path="url(#p7b2f3d4031)" style="fill: none; stroke: #66c2a4"/>
   </g>
   <g id="LineCollection_3">
    <path clip-path="url(#p7b2f3d4031)" style="fill: none; stroke: #006d2c"/>
    <path clip-path="url(#p7b2f3d4031)" style="fill: none; stroke: #006d2c"/>
    <path clip-path="url(#p7b2f3d4031)" style="fill: none; stroke: #006d2c"/>
    <path clip-path="url(#p7b2f3d4031)" style="fill: none; stroke: #006d2c"/>
    <path clip-path="url(#p7b2f3d4031)" style="fill: none; stroke: #006d2c"/>
    <path clip-path="url(#p7b2f3d4031)" style="fill: none; stroke: #006d2c"/>
    <path clip-path="url(#p7b2f3d4031)" style="fill: none; stroke: #006d2c"/>
    <path clip-path="url(#p7b2f3d4031)" style="fill: none; stroke: #006d2c"/>
    <path clip-path="url(#p7b2f3d4031)" style="fill: none; stroke: #006d2c"/>
    <path clip-path="url(#p7b2f3d4031)" style="fill: none; stroke: #006d2c"/>
    <path clip-path="url(#p7b2f3d4031)" style="fill: none; stroke: #006d2c"/>
    <path clip-path="url(#p7b2f3d4031)" style="fill: none; stroke: #006d2c"/>
    <path clip-path="url(#p7b2f3d4031)" style="fill: none; stroke: #006d2c"/>
    <path clip-path="url(#p7b2f3d4031)" style="fill: none; stroke: #006d2c"/>
    <path clip-path="url(#p7b2f3d4031)" style="fill: none; stroke: #006d2c"/>
    <path clip-path="url(#p7b2f3d4031)" style="fill: none; stroke: #006d2c"/>
    <path clip-path="url(#p7b2f3d4031)" style="fill: none; stroke: #006d2c"/>
    <path clip-path="url(#p7b2f3d4031)" style="fill: none; stroke: #006d2c"/>
   </g>
   <g id="line2d_11">
    <path d="M 73.6071 307.031765 
L 73.795625 307.038196 
L 73.795625 307.038196 
L 73.98415 306.770912 
L 74.172675 305.304231 
L 74.549725 298.128856 
L 75.303824 274.664336 
L 76.057924 252.209648 
L 76.623498 240.59156 
L 77.000548 235.733398 
L 77.377598 233.030457 
L 77.566123 232.404298 
L 77.754648 232.208913 
L 77.943173 232.402292 
L 78.320222 233.786169 
L 78.885797 237.74972 
L 79.828421 247.110423 
L 81.71367 266.675592 
L 82.84482 275.99266 
L 83.787444 282.097346 
L 84.730068 286.882914 
L 85.672693 290.584662 
L 86.615317 293.426354 
L 87.557942 295.599227 
L 88.500566 297.258544 
L 89.443191 298.526858 
L 90.57434 299.664991 
L 91.705489 300.49901 
L 93.025163 301.20445 
L 94.721887 301.833054 
L 96.795661 302.347148 
L 99.812059 302.840595 
L 104.713706 303.388039 
L 114.328476 304.207372 
L 128.467842 305.187723 
L 144.492458 306.071299 
L 162.590847 306.842361 
L 168.058068 307.036647 
L 168.058068 307.036647 
L 168.568657 303.364412 
L 169.079245 290.553996 
L 170.100421 258.07366 
L 170.61101 245.587816 
L 171.121598 237.289145 
L 171.632186 233.06475 
L 172.142774 232.295501 
L 172.653363 234.171137 
L 173.163951 237.882279 
L 174.185127 248.12865 
L 175.716892 264.228792 
L 176.738068 273.196165 
L 177.759245 280.364722 
L 178.780421 285.907676 
L 179.801598 290.11602 
L 180.822774 293.279285 
L 181.843951 295.645073 
L 182.865127 297.411626 
L 183.886304 298.732367 
L 184.90748 299.723709 
L 185.928657 300.472869 
L 187.460421 301.279429 
L 188.992186 301.834273 
L 191.034539 302.341229 
L 194.098068 302.842685 
L 199.203951 303.409002 
L 209.415715 304.269837 
L 223.712186 305.24757 
L 240.05101 306.133285 
L 258.432186 306.899727 
L 279.876892 307.561788 
L 304.895715 308.105899 
L 336.041598 308.550031 
L 375.86748 308.883775 
L 423.352186 309.090522 
L 423.352186 309.090522 
" clip-path="url(#p7b2f3d4031)" style="fill: none; stroke: #000000; stroke-width: 2; stroke-linecap: square"/>
   </g>
   <g id="line2d_12">
    <path d="M 169.367269 201.206564 
L 170.021869 159.579434 
L 171.00377 179.103688 
L 171.98567 179.039347 
L 172.967571 214.232175 
L 173.949471 240.262392 
L 175.913272 264.594463 
L 179.840874 285.097762 
L 183.768476 291.162874 
L 191.623679 303.149156 
L 199.478883 306.16882 
L 207.334087 307.670766 
L 215.18929 308.6216 
" clip-path="url(#p7b2f3d4031)" style="fill: none; stroke-dasharray: 3.7,1.6; stroke-dashoffset: 0; stroke: #000000"/>
    <defs>
     <path id="m1b40fbfd10" d="M -3 3 
L 3 3 
L 3 -3 
L -3 -3 
z
" style="stroke: #000000; stroke-linejoin: miter"/>
    </defs>
    <g clip-path="url(#p7b2f3d4031)">
     <use xlink:href="#m1b40fbfd10" x="169.367269" y="201.206564" style="stroke: #000000; stroke-linejoin: miter"/>
     <use xlink:href="#m1b40fbfd10" x="170.021869" y="159.579434" style="stroke: #000000; stroke-linejoin: miter"/>
     <use xlink:href="#m1b40fbfd10" x="171.00377" y="179.103688" style="stroke: #000000; stroke-linejoin: miter"/>
     <use xlink:href="#m1b40fbfd10" x="171.98567" y="179.039347" style="stroke: #000000; stroke-linejoin: miter"/>
     <use xlink:href="#m1b40fbfd10" x="172.967571" y="214.232175" style="stroke: #000000; stroke-linejoin: miter"/>
     <use xlink:href="#m1b40fbfd10" x="173.949471" y="240.262392" style="stroke: #000000; stroke-linejoin: miter"/>
     <use xlink:href="#m1b40fbfd10" x="175.913272" y="264.594463" style="stroke: #000000; stroke-linejoin: miter"/>
     <use xlink:href="#m1b40fbfd10" x="179.840874" y="285.097762" style="stroke: #000000; stroke-linejoin: miter"/>
     <use xlink:href="#m1b40fbfd10" x="183.768476" y="291.162874" style="stroke: #000000; stroke-linejoin: miter"/>
     <use xlink:href="#m1b40fbfd10" x="191.623679" y="303.149156" style="stroke: #000000; stroke-linejoin: miter"/>
     <use xlink:href="#m1b40fbfd10" x="199.478883" y="306.16882" style="stroke: #000000; stroke-linejoin: miter"/>
     <use xlink:href="#m1b40fbfd10" x="207.334087" y="307.670766" style="stroke: #000000; stroke-linejoin: miter"/>
     <use xlink:href="#m1b40fbfd10" x="215.18929" y="308.6216" style="stroke: #000000; stroke-linejoin: miter"/>
    </g>
   </g>
   <g id="line2d_13">
    <path d="M 73.6071 306.57884 
L 73.795625 306.586885 
L 73.795625 306.586885 
L 73.98415 306.320334 
L 74.172675 304.845578 
L 74.549725 297.548455 
L 75.303824 273.054007 
L 76.246449 243.85491 
L 76.812023 232.635293 
L 77.189073 228.152076 
L 77.566123 225.860033 
L 77.754648 225.443803 
L 77.943173 225.457874 
L 78.131697 225.858286 
L 78.508747 227.64319 
L 79.074322 232.162157 
L 80.016946 242.302927 
L 81.902195 262.941695 
L 83.033344 272.684753 
L 83.975969 279.064787 
L 84.918593 284.073622 
L 85.861218 287.959273 
L 86.803842 290.954319 
L 87.746467 293.25634 
L 88.689091 295.025358 
L 89.631715 296.387623 
L 90.762865 297.621802 
L 91.894014 298.537415 
L 93.213688 299.323935 
L 94.721887 299.972789 
L 96.795661 300.597377 
L 99.623535 301.181418 
L 103.959607 301.820347 
L 111.877652 302.727448 
L 123.566195 303.834851 
L 136.762937 304.860011 
L 151.467878 305.776886 
L 168.058068 306.585425 
L 168.058068 306.585425 
L 168.568657 302.884691 
L 169.079245 289.737162 
L 170.100421 255.21252 
L 170.61101 241.424486 
L 171.121598 231.945252 
L 171.632186 226.795645 
L 172.142774 225.406408 
L 172.653363 226.957394 
L 173.163951 230.595359 
L 174.185127 241.218676 
L 176.22748 263.543273 
L 177.248657 272.324213 
L 178.269833 279.25111 
L 179.29101 284.578768 
L 180.312186 288.621362 
L 181.333363 291.668026 
L 182.354539 293.958281 
L 183.375715 295.681053 
L 184.396892 296.981488 
L 185.418068 297.969352 
L 186.949833 299.038851 
L 188.481598 299.778571 
L 190.523951 300.456875 
L 193.076892 301.033748 
L 197.161598 301.67887 
L 204.309833 302.532091 
L 215.542774 303.633772 
L 228.818068 304.702491 
L 243.114539 305.628489 
L 259.453363 306.460023 
L 278.345127 307.188796 
L 300.300421 307.803175 
L 326.340421 308.303147 
L 359.018068 308.699513 
L 402.418068 308.990784 
L 423.352186 309.074102 
L 423.352186 309.074102 
" clip-path="url(#p7b2f3d4031)" style="fill: none; stroke: #66c2a4; stroke-width: 2; stroke-linecap: square"/>
   </g>
   <g id="line2d_14">
    <path d="M 168.712669 287.954184 
L 169.367269 192.18951 
L 170.021869 114.081531 
L 171.00377 90.156522 
L 171.98567 160.933367 
L 172.967571 208.852014 
L 173.949471 231.056719 
L 175.913272 269.05509 
L 179.840874 289.189979 
L 183.768476 298.135542 
L 191.623679 303.871309 
L 199.478883 306.683071 
L 207.334087 308.131373 
L 215.18929 308.650929 
" clip-path="url(#p7b2f3d4031)" style="fill: none; stroke-dasharray: 3.7,1.6; stroke-dashoffset: 0; stroke: #66c2a4"/>
    <defs>
     <path id="mf1db06f9fd" d="M -3 3 
L 3 3 
L 3 -3 
L -3 -3 
z
" style="stroke: #000000; stroke-linejoin: miter"/>
    </defs>
    <g clip-path="url(#p7b2f3d4031)">
     <use xlink:href="#mf1db06f9fd" x="168.712669" y="287.954184" style="fill: #66c2a4; stroke: #000000; stroke-linejoin: miter"/>
     <use xlink:href="#mf1db06f9fd" x="169.367269" y="192.18951" style="fill: #66c2a4; stroke: #000000; stroke-linejoin: miter"/>
     <use xlink:href="#mf1db06f9fd" x="170.021869" y="114.081531" style="fill: #66c2a4; stroke: #000000; stroke-linejoin: miter"/>
     <use xlink:href="#mf1db06f9fd" x="171.00377" y="90.156522" style="fill: #66c2a4; stroke: #000000; stroke-linejoin: miter"/>
     <use xlink:href="#mf1db06f9fd" x="171.98567" y="160.933367" style="fill: #66c2a4; stroke: #000000; stroke-linejoin: miter"/>
     <use xlink:href="#mf1db06f9fd" x="172.967571" y="208.852014" style="fill: #66c2a4; stroke: #000000; stroke-linejoin: miter"/>
     <use xlink:href="#mf1db06f9fd" x="173.949471" y="231.056719" style="fill: #66c2a4; stroke: #000000; stroke-linejoin: miter"/>
     <use xlink:href="#mf1db06f9fd" x="175.913272" y="269.05509" style="fill: #66c2a4; stroke: #000000; stroke-linejoin: miter"/>
     <use xlink:href="#mf1db06f9fd" x="179.840874" y="289.189979" style="fill: #66c2a4; stroke: #000000; stroke-linejoin: miter"/>
     <use xlink:href="#mf1db06f9fd" x="183.768476" y="298.135542" style="fill: #66c2a4; stroke: #000000; stroke-linejoin: miter"/>
     <use xlink:href="#mf1db06f9fd" x="191.623679" y="303.871309" style="fill: #66c2a4; stroke: #000000; stroke-linejoin: miter"/>
     <use xlink:href="#mf1db06f9fd" x="199.478883" y="306.683071" style="fill: #66c2a4; stroke: #000000; stroke-linejoin: miter"/>
     <use xlink:href="#mf1db06f9fd" x="207.334087" y="308.131373" style="fill: #66c2a4; stroke: #000000; stroke-linejoin: miter"/>
     <use xlink:href="#mf1db06f9fd" x="215.18929" y="308.650929" style="fill: #66c2a4; stroke: #000000; stroke-linejoin: miter"/>
    </g>
   </g>
   <g id="line2d_15">
    <path d="M 73.6071 306.453103 
L 73.795625 306.461455 
L 73.795625 306.461455 
L 73.98415 306.194922 
L 74.172675 304.717089 
L 74.549725 297.388282 
L 75.303824 272.693476 
L 76.246449 243.092381 
L 76.812023 231.640241 
L 77.189073 227.028663 
L 77.566123 224.63617 
L 77.754648 224.180886 
L 77.943173 224.163374 
L 78.131697 224.539507 
L 78.508747 226.296549 
L 79.074322 230.818862 
L 80.016946 241.050207 
L 81.902195 261.980709 
L 83.033344 271.881582 
L 83.975969 278.367784 
L 84.918593 283.460874 
L 85.861218 287.412399 
L 86.803842 290.458691 
L 87.746467 292.800599 
L 88.689091 294.600783 
L 89.631715 295.987555 
L 90.762865 297.244562 
L 91.894014 298.177729 
L 93.213688 298.980016 
L 94.721887 299.64264 
L 96.607136 300.232555 
L 99.246485 300.811735 
L 103.394032 301.460715 
L 110.746503 302.348039 
L 122.057996 303.477718 
L 135.066213 304.548219 
L 149.394105 305.500408 
L 165.607245 306.349247 
L 168.058068 306.459827 
L 168.058068 306.459827 
L 168.568657 302.749562 
L 169.079245 289.526242 
L 170.100421 254.631061 
L 170.61101 240.617305 
L 171.121598 230.932579 
L 171.632186 225.620234 
L 172.142774 224.121415 
L 172.653363 225.616427 
L 173.163951 229.245755 
L 174.185127 239.953435 
L 176.22748 262.591656 
L 177.248657 271.514945 
L 178.269833 278.557087 
L 179.29101 283.974419 
L 180.312186 288.08564 
L 181.333363 291.184577 
L 182.354539 293.514713 
L 183.375715 295.268082 
L 184.396892 296.592192 
L 185.418068 297.598581 
L 186.439245 298.37072 
L 187.97101 299.220813 
L 189.502774 299.824851 
L 191.545127 300.400353 
L 194.608657 301.00362 
L 199.714539 301.728455 
L 208.905127 302.76058 
L 221.159245 303.900902 
L 234.434539 304.911681 
L 249.241598 305.816958 
L 266.09101 306.621513 
L 285.493363 307.31973 
L 308.469833 307.914048 
L 336.041598 308.395318 
L 370.761598 308.769183 
L 417.735715 309.038768 
L 423.352186 309.059658 
L 423.352186 309.059658 
" clip-path="url(#p7b2f3d4031)" style="fill: none; stroke: #006d2c; stroke-width: 2; stroke-linecap: square"/>
   </g>
   <g id="line2d_16">
    <path d="M 168.058068 308.070591 
L 168.712669 281.329067 
L 169.367269 273.720985 
L 170.021869 204.357515 
L 171.00377 178.445059 
L 171.98567 178.388154 
L 172.967571 175.674102 
L 173.949471 191.338609 
L 175.913272 229.794245 
L 179.840874 266.05179 
L 183.768476 279.382225 
L 191.623679 292.410291 
L 199.478883 299.070661 
L 207.334087 300.723969 
L 215.18929 303.91866 
L 226.972096 306.814882 
L 238.754901 306.725303 
L 262.320512 308.112531 
" clip-path="url(#p7b2f3d4031)" style="fill: none; stroke-dasharray: 3.7,1.6; stroke-dashoffset: 0; stroke: #006d2c"/>
    <defs>
     <path id="m39bec6ec14" d="M -3 3 
L 3 3 
L 3 -3 
L -3 -3 
z
" style="stroke: #000000; stroke-linejoin: miter"/>
    </defs>
    <g clip-path="url(#p7b2f3d4031)">
     <use xlink:href="#m39bec6ec14" x="168.058068" y="308.070591" style="fill: #006d2c; stroke: #000000; stroke-linejoin: miter"/>
     <use xlink:href="#m39bec6ec14" x="168.712669" y="281.329067" style="fill: #006d2c; stroke: #000000; stroke-linejoin: miter"/>
     <use xlink:href="#m39bec6ec14" x="169.367269" y="273.720985" style="fill: #006d2c; stroke: #000000; stroke-linejoin: miter"/>
     <use xlink:href="#m39bec6ec14" x="170.021869" y="204.357515" style="fill: #006d2c; stroke: #000000; stroke-linejoin: miter"/>
     <use xlink:href="#m39bec6ec14" x="171.00377" y="178.445059" style="fill: #006d2c; stroke: #000000; stroke-linejoin: miter"/>
     <use xlink:href="#m39bec6ec14" x="171.98567" y="178.388154" style="fill: #006d2c; stroke: #000000; stroke-linejoin: miter"/>
     <use xlink:href="#m39bec6ec14" x="172.967571" y="175.674102" style="fill: #006d2c; stroke: #000000; stroke-linejoin: miter"/>
     <use xlink:href="#m39bec6ec14" x="173.949471" y="191.338609" style="fill: #006d2c; stroke: #000000; stroke-linejoin: miter"/>
     <use xlink:href="#m39bec6ec14" x="175.913272" y="229.794245" style="fill: #006d2c; stroke: #000000; stroke-linejoin: miter"/>
     <use xlink:href="#m39bec6ec14" x="179.840874" y="266.05179" style="fill: #006d2c; stroke: #000000; stroke-linejoin: miter"/>
     <use xlink:href="#m39bec6ec14" x="183.768476" y="279.382225" style="fill: #006d2c; stroke: #000000; stroke-linejoin: miter"/>
     <use xlink:href="#m39bec6ec14" x="191.623679" y="292.410291" style="fill: #006d2c; stroke: #000000; stroke-linejoin: miter"/>
     <use xlink:href="#m39bec6ec14" x="199.478883" y="299.070661" style="fill: #006d2c; stroke: #000000; stroke-linejoin: miter"/>
     <use xlink:href="#m39bec6ec14" x="207.334087" y="300.723969" style="fill: #006d2c; stroke: #000000; stroke-linejoin: miter"/>
     <use xlink:href="#m39bec6ec14" x="215.18929" y="303.91866" style="fill: #006d2c; stroke: #000000; stroke-linejoin: miter"/>
     <use xlink:href="#m39bec6ec14" x="226.972096" y="306.814882" style="fill: #006d2c; stroke: #000000; stroke-linejoin: miter"/>
     <use xlink:href="#m39bec6ec14" x="238.754901" y="306.725303" style="fill: #006d2c; stroke: #000000; stroke-linejoin: miter"/>
     <use xlink:href="#m39bec6ec14" x="262.320512" y="308.112531" style="fill: #006d2c; stroke: #000000; stroke-linejoin: miter"/>
    </g>
   </g>
   <g id="patch_3">
    <path d="M 73.795625 320.243478 
L 73.795625 79.2 
" style="fill: none; stroke: #000000; stroke-width: 0.8; stroke-linejoin: miter; stroke-linecap: square"/>
   </g>
   <g id="patch_4">
    <path d="M 464.395625 320.243478 
L 464.395625 79.2 
" style="fill: none; stroke: #000000; stroke-width: 0.8; stroke-linejoin: miter; stroke-linecap: square"/>
   </g>
   <g id="patch_5">
    <path d="M 73.795625 320.243478 
L 464.395625 320.243478 
" style="fill: none; stroke: #000000; stroke-width: 0.8; stroke-linejoin: miter; stroke-linecap: square"/>
   </g>
   <g id="patch_6">
    <path d="M 73.795625 79.2 
L 464.395625 79.2 
" style="fill: none; stroke: #000000; stroke-width: 0.8; stroke-linejoin: miter; stroke-linecap: square"/>
   </g>
   <g id="legend_1">
    <g id="patch_7">
     <path d="M 335.505 175.26875 
L 457.395625 175.26875 
Q 459.395625 175.26875 459.395625 173.26875 
L 459.395625 86.2 
Q 459.395625 84.2 457.395625 84.2 
L 335.505 84.2 
Q 333.505 84.2 333.505 86.2 
L 333.505 173.26875 
Q 333.505 175.26875 335.505 175.26875 
z
" style="fill: #ffffff; opacity: 0.8; stroke: #cccccc; stroke-linejoin: miter"/>
    </g>
    <g id="line2d_17">
     <path d="M 337.505 92.298437 
L 357.505 92.298437 
" style="fill: none; stroke: #000000; stroke-width: 2; stroke-linecap: square"/>
    </g>
    <g id="line2d_18"/>
    <g id="text_13">
     <!-- Sim group1 -->
     <g transform="translate(365.505 95.798437) scale(0.1 -0.1)">
      <defs>
       <path id="DejaVuSans-53" d="M 3425 4513 
L 3425 3897 
Q 3066 4069 2747 4153 
Q 2428 4238 2131 4238 
Q 1616 4238 1336 4038 
Q 1056 3838 1056 3469 
Q 1056 3159 1242 3001 
Q 1428 2844 1947 2747 
L 2328 2669 
Q 3034 2534 3370 2195 
Q 3706 1856 3706 1288 
Q 3706 609 3251 259 
Q 2797 -91 1919 -91 
Q 1588 -91 1214 -16 
Q 841 59 441 206 
L 441 856 
Q 825 641 1194 531 
Q 1563 422 1919 422 
Q 2459 422 2753 634 
Q 3047 847 3047 1241 
Q 3047 1584 2836 1778 
Q 2625 1972 2144 2069 
L 1759 2144 
Q 1053 2284 737 2584 
Q 422 2884 422 3419 
Q 422 4038 858 4394 
Q 1294 4750 2059 4750 
Q 2388 4750 2728 4690 
Q 3069 4631 3425 4513 
z
" transform="scale(0.015625)"/>
       <path id="DejaVuSans-69" d="M 603 3500 
L 1178 3500 
L 1178 0 
L 603 0 
L 603 3500 
z
M 603 4863 
L 1178 4863 
L 1178 4134 
L 603 4134 
L 603 4863 
z
" transform="scale(0.015625)"/>
       <path id="DejaVuSans-6d" d="M 3328 2828 
Q 3544 3216 3844 3400 
Q 4144 3584 4550 3584 
Q 5097 3584 5394 3201 
Q 5691 2819 5691 2113 
L 5691 0 
L 5113 0 
L 5113 2094 
Q 5113 2597 4934 2840 
Q 4756 3084 4391 3084 
Q 3944 3084 3684 2787 
Q 3425 2491 3425 1978 
L 3425 0 
L 2847 0 
L 2847 2094 
Q 2847 2600 2669 2842 
Q 2491 3084 2119 3084 
Q 1678 3084 1418 2786 
Q 1159 2488 1159 1978 
L 1159 0 
L 581 0 
L 581 3500 
L 1159 3500 
L 1159 2956 
Q 1356 3278 1631 3431 
Q 1906 3584 2284 3584 
Q 2666 3584 2933 3390 
Q 3200 3197 3328 2828 
z
" transform="scale(0.015625)"/>
       <path id="DejaVuSans-20" transform="scale(0.015625)"/>
       <path id="DejaVuSans-67" d="M 2906 1791 
Q 2906 2416 2648 2759 
Q 2391 3103 1925 3103 
Q 1463 3103 1205 2759 
Q 947 2416 947 1791 
Q 947 1169 1205 825 
Q 1463 481 1925 481 
Q 2391 481 2648 825 
Q 2906 1169 2906 1791 
z
M 3481 434 
Q 3481 -459 3084 -895 
Q 2688 -1331 1869 -1331 
Q 1566 -1331 1297 -1286 
Q 1028 -1241 775 -1147 
L 775 -588 
Q 1028 -725 1275 -790 
Q 1522 -856 1778 -856 
Q 2344 -856 2625 -561 
Q 2906 -266 2906 331 
L 2906 616 
Q 2728 306 2450 153 
Q 2172 0 1784 0 
Q 1141 0 747 490 
Q 353 981 353 1791 
Q 353 2603 747 3093 
Q 1141 3584 1784 3584 
Q 2172 3584 2450 3431 
Q 2728 3278 2906 2969 
L 2906 3500 
L 3481 3500 
L 3481 434 
z
" transform="scale(0.015625)"/>
       <path id="DejaVuSans-72" d="M 2631 2963 
Q 2534 3019 2420 3045 
Q 2306 3072 2169 3072 
Q 1681 3072 1420 2755 
Q 1159 2438 1159 1844 
L 1159 0 
L 581 0 
L 581 3500 
L 1159 3500 
L 1159 2956 
Q 1341 3275 1631 3429 
Q 1922 3584 2338 3584 
Q 2397 3584 2469 3576 
Q 2541 3569 2628 3553 
L 2631 2963 
z
" transform="scale(0.015625)"/>
       <path id="DejaVuSans-6f" d="M 1959 3097 
Q 1497 3097 1228 2736 
Q 959 2375 959 1747 
Q 959 1119 1226 758 
Q 1494 397 1959 397 
Q 2419 397 2687 759 
Q 2956 1122 2956 1747 
Q 2956 2369 2687 2733 
Q 2419 3097 1959 3097 
z
M 1959 3584 
Q 2709 3584 3137 3096 
Q 3566 2609 3566 1747 
Q 3566 888 3137 398 
Q 2709 -91 1959 -91 
Q 1206 -91 779 398 
Q 353 888 353 1747 
Q 353 2609 779 3096 
Q 1206 3584 1959 3584 
z
" transform="scale(0.015625)"/>
       <path id="DejaVuSans-75" d="M 544 1381 
L 544 3500 
L 1119 3500 
L 1119 1403 
Q 1119 906 1312 657 
Q 1506 409 1894 409 
Q 2359 409 2629 706 
Q 2900 1003 2900 1516 
L 2900 3500 
L 3475 3500 
L 3475 0 
L 2900 0 
L 2900 538 
Q 2691 219 2414 64 
Q 2138 -91 1772 -91 
Q 1169 -91 856 284 
Q 544 659 544 1381 
z
M 1991 3584 
L 1991 3584 
z
" transform="scale(0.015625)"/>
       <path id="DejaVuSans-70" d="M 1159 525 
L 1159 -1331 
L 581 -1331 
L 581 3500 
L 1159 3500 
L 1159 2969 
Q 1341 3281 1617 3432 
Q 1894 3584 2278 3584 
Q 2916 3584 3314 3078 
Q 3713 2572 3713 1747 
Q 3713 922 3314 415 
Q 2916 -91 2278 -91 
Q 1894 -91 1617 61 
Q 1341 213 1159 525 
z
M 3116 1747 
Q 3116 2381 2855 2742 
Q 2594 3103 2138 3103 
Q 1681 3103 1420 2742 
Q 1159 2381 1159 1747 
Q 1159 1113 1420 752 
Q 1681 391 2138 391 
Q 2594 391 2855 752 
Q 3116 1113 3116 1747 
z
" transform="scale(0.015625)"/>
      </defs>
      <use xlink:href="#DejaVuSans-53"/>
      <use xlink:href="#DejaVuSans-69" transform="translate(63.476562 0)"/>
      <use xlink:href="#DejaVuSans-6d" transform="translate(91.259766 0)"/>
      <use xlink:href="#DejaVuSans-20" transform="translate(188.671875 0)"/>
      <use xlink:href="#DejaVuSans-67" transform="translate(220.458984 0)"/>
      <use xlink:href="#DejaVuSans-72" transform="translate(283.935547 0)"/>
      <use xlink:href="#DejaVuSans-6f" transform="translate(322.798828 0)"/>
      <use xlink:href="#DejaVuSans-75" transform="translate(383.980469 0)"/>
      <use xlink:href="#DejaVuSans-70" transform="translate(447.359375 0)"/>
      <use xlink:href="#DejaVuSans-31" transform="translate(510.835938 0)"/>
     </g>
    </g>
    <g id="LineCollection_4">
     <path d="M 347.505 111.976562 
L 347.505 101.976562 
" style="fill: none; stroke: #000000"/>
    </g>
    <g id="line2d_19">
     <path d="M 337.505 106.976562 
L 357.505 106.976562 
" style="fill: none; stroke-dasharray: 3.7,1.6; stroke-dashoffset: 0; stroke: #000000"/>
    </g>
    <g id="line2d_20">
     <g>
      <use xlink:href="#m1b40fbfd10" x="347.505" y="106.976562" style="stroke: #000000; stroke-linejoin: miter"/>
     </g>
    </g>
    <g id="text_14">
     <!-- group1±SD (n=6) -->
     <g transform="translate(365.505 110.476562) scale(0.1 -0.1)">
      <defs>
       <path id="DejaVuSans-b1" d="M 2944 4013 
L 2944 2803 
L 4684 2803 
L 4684 2272 
L 2944 2272 
L 2944 1063 
L 2419 1063 
L 2419 2272 
L 678 2272 
L 678 2803 
L 2419 2803 
L 2419 4013 
L 2944 4013 
z
M 678 531 
L 4684 531 
L 4684 0 
L 678 0 
L 678 531 
z
" transform="scale(0.015625)"/>
       <path id="DejaVuSans-44" d="M 1259 4147 
L 1259 519 
L 2022 519 
Q 2988 519 3436 956 
Q 3884 1394 3884 2338 
Q 3884 3275 3436 3711 
Q 2988 4147 2022 4147 
L 1259 4147 
z
M 628 4666 
L 1925 4666 
Q 3281 4666 3915 4102 
Q 4550 3538 4550 2338 
Q 4550 1131 3912 565 
Q 3275 0 1925 0 
L 628 0 
L 628 4666 
z
" transform="scale(0.015625)"/>
       <path id="DejaVuSans-28" d="M 1984 4856 
Q 1566 4138 1362 3434 
Q 1159 2731 1159 2009 
Q 1159 1288 1364 580 
Q 1569 -128 1984 -844 
L 1484 -844 
Q 1016 -109 783 600 
Q 550 1309 550 2009 
Q 550 2706 781 3412 
Q 1013 4119 1484 4856 
L 1984 4856 
z
" transform="scale(0.015625)"/>
       <path id="DejaVuSans-6e" d="M 3513 2113 
L 3513 0 
L 2938 0 
L 2938 2094 
Q 2938 2591 2744 2837 
Q 2550 3084 2163 3084 
Q 1697 3084 1428 2787 
Q 1159 2491 1159 1978 
L 1159 0 
L 581 0 
L 581 3500 
L 1159 3500 
L 1159 2956 
Q 1366 3272 1645 3428 
Q 1925 3584 2291 3584 
Q 2894 3584 3203 3211 
Q 3513 2838 3513 2113 
z
" transform="scale(0.015625)"/>
       <path id="DejaVuSans-3d" d="M 678 2906 
L 4684 2906 
L 4684 2381 
L 678 2381 
L 678 2906 
z
M 678 1631 
L 4684 1631 
L 4684 1100 
L 678 1100 
L 678 1631 
z
" transform="scale(0.015625)"/>
       <path id="DejaVuSans-29" d="M 513 4856 
L 1013 4856 
Q 1481 4119 1714 3412 
Q 1947 2706 1947 2009 
Q 1947 1309 1714 600 
Q 1481 -109 1013 -844 
L 513 -844 
Q 928 -128 1133 580 
Q 1338 1288 1338 2009 
Q 1338 2731 1133 3434 
Q 928 4138 513 4856 
z
" transform="scale(0.015625)"/>
      </defs>
      <use xlink:href="#DejaVuSans-67"/>
      <use xlink:href="#DejaVuSans-72" transform="translate(63.476562 0)"/>
      <use xlink:href="#DejaVuSans-6f" transform="translate(102.339844 0)"/>
      <use xlink:href="#DejaVuSans-75" transform="translate(163.521484 0)"/>
      <use xlink:href="#DejaVuSans-70" transform="translate(226.900391 0)"/>
      <use xlink:href="#DejaVuSans-31" transform="translate(290.376953 0)"/>
      <use xlink:href="#DejaVuSans-b1" transform="translate(354 0)"/>
      <use xlink:href="#DejaVuSans-53" transform="translate(437.789062 0)"/>
      <use xlink:href="#DejaVuSans-44" transform="translate(501.265625 0)"/>
      <use xlink:href="#DejaVuSans-20" transform="translate(578.267578 0)"/>
      <use xlink:href="#DejaVuSans-28" transform="translate(610.054688 0)"/>
      <use xlink:href="#DejaVuSans-6e" transform="translate(649.068359 0)"/>
      <use xlink:href="#DejaVuSans-3d" transform="translate(712.447266 0)"/>
      <use xlink:href="#DejaVuSans-36" transform="translate(796.236328 0)"/>
      <use xlink:href="#DejaVuSans-29" transform="translate(859.859375 0)"/>
     </g>
    </g>
    <g id="line2d_21">
     <path d="M 337.505 121.654688 
L 357.505 121.654688 
" style="fill: none; stroke: #66c2a4; stroke-width: 2; stroke-linecap: square"/>
    </g>
    <g id="line2d_22"/>
    <g id="text_15">
     <!-- Sim group2 -->
     <g transform="translate(365.505 125.154688) scale(0.1 -0.1)">
      <use xlink:href="#DejaVuSans-53"/>
      <use xlink:href="#DejaVuSans-69" transform="translate(63.476562 0)"/>
      <use xlink:href="#DejaVuSans-6d" transform="translate(91.259766 0)"/>
      <use xlink:href="#DejaVuSans-20" transform="translate(188.671875 0)"/>
      <use xlink:href="#DejaVuSans-67" transform="translate(220.458984 0)"/>
      <use xlink:href="#DejaVuSans-72" transform="translate(283.935547 0)"/>
      <use xlink:href="#DejaVuSans-6f" transform="translate(322.798828 0)"/>
      <use xlink:href="#DejaVuSans-75" transform="translate(383.980469 0)"/>
      <use xlink:href="#DejaVuSans-70" transform="translate(447.359375 0)"/>
      <use xlink:href="#DejaVuSans-32" transform="translate(510.835938 0)"/>
     </g>
    </g>
    <g id="LineCollection_5">
     <path d="M 347.505 141.332812 
L 347.505 131.332812 
" style="fill: none; stroke: #66c2a4"/>
    </g>
    <g id="line2d_23">
     <path d="M 337.505 136.332812 
L 357.505 136.332812 
" style="fill: none; stroke-dasharray: 3.7,1.6; stroke-dashoffset: 0; stroke: #66c2a4"/>
    </g>
    <g id="line2d_24">
     <g>
      <use xlink:href="#mf1db06f9fd" x="347.505" y="136.332812" style="fill: #66c2a4; stroke: #000000; stroke-linejoin: miter"/>
     </g>
    </g>
    <g id="text_16">
     <!-- group2±SD (n=6) -->
     <g transform="translate(365.505 139.832812) scale(0.1 -0.1)">
      <use xlink:href="#DejaVuSans-67"/>
      <use xlink:href="#DejaVuSans-72" transform="translate(63.476562 0)"/>
      <use xlink:href="#DejaVuSans-6f" transform="translate(102.339844 0)"/>
      <use xlink:href="#DejaVuSans-75" transform="translate(163.521484 0)"/>
      <use xlink:href="#DejaVuSans-70" transform="translate(226.900391 0)"/>
      <use xlink:href="#DejaVuSans-32" transform="translate(290.376953 0)"/>
      <use xlink:href="#DejaVuSans-b1" transform="translate(354 0)"/>
      <use xlink:href="#DejaVuSans-53" transform="translate(437.789062 0)"/>
      <use xlink:href="#DejaVuSans-44" transform="translate(501.265625 0)"/>
      <use xlink:href="#DejaVuSans-20" transform="translate(578.267578 0)"/>
      <use xlink:href="#DejaVuSans-28" transform="translate(610.054688 0)"/>
      <use xlink:href="#DejaVuSans-6e" transform="translate(649.068359 0)"/>
      <use xlink:href="#DejaVuSans-3d" transform="translate(712.447266 0)"/>
      <use xlink:href="#DejaVuSans-36" transform="translate(796.236328 0)"/>
      <use xlink:href="#DejaVuSans-29" transform="translate(859.859375 0)"/>
     </g>
    </g>
    <g id="line2d_25">
     <path d="M 337.505 151.010937 
L 357.505 151.010937 
" style="fill: none; stroke: #006d2c; stroke-width: 2; stroke-linecap: square"/>
    </g>
    <g id="line2d_26"/>
    <g id="text_17">
     <!-- Sim group3 -->
     <g transform="translate(365.505 154.510937) scale(0.1 -0.1)">
      <defs>
       <path id="DejaVuSans-33" d="M 2597 2516 
Q 3050 2419 3304 2112 
Q 3559 1806 3559 1356 
Q 3559 666 3084 287 
Q 2609 -91 1734 -91 
Q 1441 -91 1130 -33 
Q 819 25 488 141 
L 488 750 
Q 750 597 1062 519 
Q 1375 441 1716 441 
Q 2309 441 2620 675 
Q 2931 909 2931 1356 
Q 2931 1769 2642 2001 
Q 2353 2234 1838 2234 
L 1294 2234 
L 1294 2753 
L 1863 2753 
Q 2328 2753 2575 2939 
Q 2822 3125 2822 3475 
Q 2822 3834 2567 4026 
Q 2313 4219 1838 4219 
Q 1578 4219 1281 4162 
Q 984 4106 628 3988 
L 628 4550 
Q 988 4650 1302 4700 
Q 1616 4750 1894 4750 
Q 2613 4750 3031 4423 
Q 3450 4097 3450 3541 
Q 3450 3153 3228 2886 
Q 3006 2619 2597 2516 
z
" transform="scale(0.015625)"/>
      </defs>
      <use xlink:href="#DejaVuSans-53"/>
      <use xlink:href="#DejaVuSans-69" transform="translate(63.476562 0)"/>
      <use xlink:href="#DejaVuSans-6d" transform="translate(91.259766 0)"/>
      <use xlink:href="#DejaVuSans-20" transform="translate(188.671875 0)"/>
      <use xlink:href="#DejaVuSans-67" transform="translate(220.458984 0)"/>
      <use xlink:href="#DejaVuSans-72" transform="translate(283.935547 0)"/>
      <use xlink:href="#DejaVuSans-6f" transform="translate(322.798828 0)"/>
      <use xlink:href="#DejaVuSans-75" transform="translate(383.980469 0)"/>
      <use xlink:href="#DejaVuSans-70" transform="translate(447.359375 0)"/>
      <use xlink:href="#DejaVuSans-33" transform="translate(510.835938 0)"/>
     </g>
    </g>
    <g id="LineCollection_6">
     <path d="M 347.505 170.689062 
L 347.505 160.689062 
" style="fill: none; stroke: #006d2c"/>
    </g>
    <g id="line2d_27">
     <path d="M 337.505 165.689062 
L 357.505 165.689062 
" style="fill: none; stroke-dasharray: 3.7,1.6; stroke-dashoffset: 0; stroke: #006d2c"/>
    </g>
    <g id="line2d_28">
     <g>
      <use xlink:href="#m39bec6ec14" x="347.505" y="165.689062" style="fill: #006d2c; stroke: #000000; stroke-linejoin: miter"/>
     </g>
    </g>
    <g id="text_18">
     <!-- group3±SD (n=6) -->
     <g transform="translate(365.505 169.189062) scale(0.1 -0.1)">
      <use xlink:href="#DejaVuSans-67"/>
      <use xlink:href="#DejaVuSans-72" transform="translate(63.476562 0)"/>
      <use xlink:href="#DejaVuSans-6f" transform="translate(102.339844 0)"/>
      <use xlink:href="#DejaVuSans-75" transform="translate(163.521484 0)"/>
      <use xlink:href="#DejaVuSans-70" transform="translate(226.900391 0)"/>
      <use xlink:href="#DejaVuSans-33" transform="translate(290.376953 0)"/>
      <use xlink:href="#DejaVuSans-b1" transform="translate(354 0)"/>
      <use xlink:href="#DejaVuSans-53" transform="translate(437.789062 0)"/>
      <use xlink:href="#DejaVuSans-44" transform="translate(501.265625 0)"/>
      <use xlink:href="#DejaVuSans-20" transform="translate(578.267578 0)"/>
      <use xlink:href="#DejaVuSans-28" transform="translate(610.054688 0)"/>
      <use xlink:href="#DejaVuSans-6e" transform="translate(649.068359 0)"/>
      <use xlink:href="#DejaVuSans-3d" transform="translate(712.447266 0)"/>
      <use xlink:href="#DejaVuSans-36" transform="translate(796.236328 0)"/>
      <use xlink:href="#DejaVuSans-29" transform="translate(859.859375 0)"/>
     </g>
    </g>
   </g>
  </g>
  <g id="axes_2">
   <g id="patch_8">
    <path d="M 73.795625 633.6 
L 464.395625 633.6 
L 464.395625 392.556522 
L 73.795625 392.556522 
z
" style="fill: #ffffff"/>
   </g>
   <g id="matplotlib.axis_3">
    <g id="xtick_6">
     <g id="line2d_29">
      <g>
       <use xlink:href="#m7913dc369b" x="89.506032" y="633.6" style="stroke: #000000; stroke-width: 0.8"/>
      </g>
     </g>
     <g id="text_19">
      <!-- −20 -->
      <g transform="translate(73.677517 651.997656) scale(0.15 -0.15)">
       <use xlink:href="#DejaVuSans-2212"/>
       <use xlink:href="#DejaVuSans-32" transform="translate(83.789062 0)"/>
       <use xlink:href="#DejaVuSans-30" transform="translate(147.412109 0)"/>
      </g>
     </g>
    </g>
    <g id="xtick_7">
     <g id="line2d_30">
      <g>
       <use xlink:href="#m7913dc369b" x="168.058068" y="633.6" style="stroke: #000000; stroke-width: 0.8"/>
      </g>
     </g>
     <g id="text_20">
      <!-- 0 -->
      <g transform="translate(163.286193 651.997656) scale(0.15 -0.15)">
       <use xlink:href="#DejaVuSans-30"/>
      </g>
     </g>
    </g>
    <g id="xtick_8">
     <g id="line2d_31">
      <g>
       <use xlink:href="#m7913dc369b" x="246.610105" y="633.6" style="stroke: #000000; stroke-width: 0.8"/>
      </g>
     </g>
     <g id="text_21">
      <!-- 20 -->
      <g transform="translate(237.066355 651.997656) scale(0.15 -0.15)">
       <use xlink:href="#DejaVuSans-32"/>
       <use xlink:href="#DejaVuSans-30" transform="translate(63.623047 0)"/>
      </g>
     </g>
    </g>
    <g id="xtick_9">
     <g id="line2d_32">
      <g>
       <use xlink:href="#m7913dc369b" x="325.162141" y="633.6" style="stroke: #000000; stroke-width: 0.8"/>
      </g>
     </g>
     <g id="text_22">
      <!-- 40 -->
      <g transform="translate(315.618391 651.997656) scale(0.15 -0.15)">
       <use xlink:href="#DejaVuSans-34"/>
       <use xlink:href="#DejaVuSans-30" transform="translate(63.623047 0)"/>
      </g>
     </g>
    </g>
    <g id="xtick_10">
     <g id="line2d_33">
      <g>
       <use xlink:href="#m7913dc369b" x="403.714177" y="633.6" style="stroke: #000000; stroke-width: 0.8"/>
      </g>
     </g>
     <g id="text_23">
      <!-- 60 -->
      <g transform="translate(394.170427 651.997656) scale(0.15 -0.15)">
       <use xlink:href="#DejaVuSans-36"/>
       <use xlink:href="#DejaVuSans-30" transform="translate(63.623047 0)"/>
      </g>
     </g>
    </g>
    <g id="text_24">
     <!-- Time [hr] -->
     <g transform="translate(222.183125 672.794375) scale(0.18 -0.18)">
      <use xlink:href="#DejaVuSans-Bold-54"/>
      <use xlink:href="#DejaVuSans-Bold-69" transform="translate(68.212891 0)"/>
      <use xlink:href="#DejaVuSans-Bold-6d" transform="translate(102.490234 0)"/>
      <use xlink:href="#DejaVuSans-Bold-65" transform="translate(206.689453 0)"/>
      <use xlink:href="#DejaVuSans-Bold-20" transform="translate(274.511719 0)"/>
      <use xlink:href="#DejaVuSans-Bold-5b" transform="translate(309.326172 0)"/>
      <use xlink:href="#DejaVuSans-Bold-68" transform="translate(355.029297 0)"/>
      <use xlink:href="#DejaVuSans-Bold-72" transform="translate(426.220703 0)"/>
      <use xlink:href="#DejaVuSans-Bold-5d" transform="translate(475.537109 0)"/>
     </g>
    </g>
   </g>
   <g id="matplotlib.axis_4">
    <g id="ytick_6">
     <g id="line2d_34">
      <g>
       <use xlink:href="#m9f9530f8a6" x="73.795625" y="622.643478" style="stroke: #000000; stroke-width: 0.8"/>
      </g>
     </g>
     <g id="text_25">
      <!-- 0 -->
      <g transform="translate(57.251875 628.342306) scale(0.15 -0.15)">
       <use xlink:href="#DejaVuSans-30"/>
      </g>
     </g>
    </g>
    <g id="ytick_7">
     <g id="line2d_35">
      <g>
       <use xlink:href="#m9f9530f8a6" x="73.795625" y="585.919964" style="stroke: #000000; stroke-width: 0.8"/>
      </g>
     </g>
     <g id="text_26">
      <!-- 250 -->
      <g transform="translate(38.164375 591.618792) scale(0.15 -0.15)">
       <use xlink:href="#DejaVuSans-32"/>
       <use xlink:href="#DejaVuSans-35" transform="translate(63.623047 0)"/>
       <use xlink:href="#DejaVuSans-30" transform="translate(127.246094 0)"/>
      </g>
     </g>
    </g>
    <g id="ytick_8">
     <g id="line2d_36">
      <g>
       <use xlink:href="#m9f9530f8a6" x="73.795625" y="549.196449" style="stroke: #000000; stroke-width: 0.8"/>
      </g>
     </g>
     <g id="text_27">
      <!-- 500 -->
      <g transform="translate(38.164375 554.895278) scale(0.15 -0.15)">
       <use xlink:href="#DejaVuSans-35"/>
       <use xlink:href="#DejaVuSans-30" transform="translate(63.623047 0)"/>
       <use xlink:href="#DejaVuSans-30" transform="translate(127.246094 0)"/>
      </g>
     </g>
    </g>
    <g id="ytick_9">
     <g id="line2d_37">
      <g>
       <use xlink:href="#m9f9530f8a6" x="73.795625" y="512.472935" style="stroke: #000000; stroke-width: 0.8"/>
      </g>
     </g>
     <g id="text_28">
      <!-- 750 -->
      <g transform="translate(38.164375 518.171763) scale(0.15 -0.15)">
       <defs>
        <path id="DejaVuSans-37" d="M 525 4666 
L 3525 4666 
L 3525 4397 
L 1831 0 
L 1172 0 
L 2766 4134 
L 525 4134 
L 525 4666 
z
" transform="scale(0.015625)"/>
       </defs>
       <use xlink:href="#DejaVuSans-37"/>
       <use xlink:href="#DejaVuSans-35" transform="translate(63.623047 0)"/>
       <use xlink:href="#DejaVuSans-30" transform="translate(127.246094 0)"/>
      </g>
     </g>
    </g>
    <g id="ytick_10">
     <g id="line2d_38">
      <g>
       <use xlink:href="#m9f9530f8a6" x="73.795625" y="475.749421" style="stroke: #000000; stroke-width: 0.8"/>
      </g>
     </g>
     <g id="text_29">
      <!-- 1000 -->
      <g transform="translate(28.620625 481.448249) scale(0.15 -0.15)">
       <use xlink:href="#DejaVuSans-31"/>
       <use xlink:href="#DejaVuSans-30" transform="translate(63.623047 0)"/>
       <use xlink:href="#DejaVuSans-30" transform="translate(127.246094 0)"/>
       <use xlink:href="#DejaVuSans-30" transform="translate(190.869141 0)"/>
      </g>
     </g>
    </g>
    <g id="ytick_11">
     <g id="line2d_39">
      <g>
       <use xlink:href="#m9f9530f8a6" x="73.795625" y="439.025906" style="stroke: #000000; stroke-width: 0.8"/>
      </g>
     </g>
     <g id="text_30">
      <!-- 1250 -->
      <g transform="translate(28.620625 444.724734) scale(0.15 -0.15)">
       <use xlink:href="#DejaVuSans-31"/>
       <use xlink:href="#DejaVuSans-32" transform="translate(63.623047 0)"/>
       <use xlink:href="#DejaVuSans-35" transform="translate(127.246094 0)"/>
       <use xlink:href="#DejaVuSans-30" transform="translate(190.869141 0)"/>
      </g>
     </g>
    </g>
    <g id="ytick_12">
     <g id="line2d_40">
      <g>
       <use xlink:href="#m9f9530f8a6" x="73.795625" y="402.302392" style="stroke: #000000; stroke-width: 0.8"/>
      </g>
     </g>
     <g id="text_31">
      <!-- 1500 -->
      <g transform="translate(28.620625 408.00122) scale(0.15 -0.15)">
       <use xlink:href="#DejaVuSans-31"/>
       <use xlink:href="#DejaVuSans-35" transform="translate(63.623047 0)"/>
       <use xlink:href="#DejaVuSans-30" transform="translate(127.246094 0)"/>
       <use xlink:href="#DejaVuSans-30" transform="translate(190.869141 0)"/>
      </g>
     </g>
    </g>
    <g id="text_32">
     <!-- E3174 [nM] -->
     <g transform="translate(20.877188 570.99748) rotate(-90) scale(0.18 -0.18)">
      <defs>
       <path id="DejaVuSans-Bold-45" d="M 588 4666 
L 3834 4666 
L 3834 3756 
L 1791 3756 
L 1791 2888 
L 3713 2888 
L 3713 1978 
L 1791 1978 
L 1791 909 
L 3903 909 
L 3903 0 
L 588 0 
L 588 4666 
z
" transform="scale(0.015625)"/>
       <path id="DejaVuSans-Bold-33" d="M 2981 2516 
Q 3453 2394 3698 2092 
Q 3944 1791 3944 1325 
Q 3944 631 3412 270 
Q 2881 -91 1863 -91 
Q 1503 -91 1142 -33 
Q 781 25 428 141 
L 428 1069 
Q 766 900 1098 814 
Q 1431 728 1753 728 
Q 2231 728 2486 893 
Q 2741 1059 2741 1369 
Q 2741 1688 2480 1852 
Q 2219 2016 1709 2016 
L 1228 2016 
L 1228 2791 
L 1734 2791 
Q 2188 2791 2409 2933 
Q 2631 3075 2631 3366 
Q 2631 3634 2415 3781 
Q 2200 3928 1806 3928 
Q 1516 3928 1219 3862 
Q 922 3797 628 3669 
L 628 4550 
Q 984 4650 1334 4700 
Q 1684 4750 2022 4750 
Q 2931 4750 3382 4451 
Q 3834 4153 3834 3553 
Q 3834 3144 3618 2883 
Q 3403 2622 2981 2516 
z
" transform="scale(0.015625)"/>
       <path id="DejaVuSans-Bold-31" d="M 750 831 
L 1813 831 
L 1813 3847 
L 722 3622 
L 722 4441 
L 1806 4666 
L 2950 4666 
L 2950 831 
L 4013 831 
L 4013 0 
L 750 0 
L 750 831 
z
" transform="scale(0.015625)"/>
       <path id="DejaVuSans-Bold-37" d="M 428 4666 
L 3944 4666 
L 3944 3988 
L 2125 0 
L 953 0 
L 2675 3781 
L 428 3781 
L 428 4666 
z
" transform="scale(0.015625)"/>
       <path id="DejaVuSans-Bold-34" d="M 2356 3675 
L 1038 1722 
L 2356 1722 
L 2356 3675 
z
M 2156 4666 
L 3494 4666 
L 3494 1722 
L 4159 1722 
L 4159 850 
L 3494 850 
L 3494 0 
L 2356 0 
L 2356 850 
L 288 850 
L 288 1881 
L 2156 4666 
z
" transform="scale(0.015625)"/>
      </defs>
      <use xlink:href="#DejaVuSans-Bold-45"/>
      <use xlink:href="#DejaVuSans-Bold-33" transform="translate(68.310547 0)"/>
      <use xlink:href="#DejaVuSans-Bold-31" transform="translate(137.890625 0)"/>
      <use xlink:href="#DejaVuSans-Bold-37" transform="translate(207.470703 0)"/>
      <use xlink:href="#DejaVuSans-Bold-34" transform="translate(277.050781 0)"/>
      <use xlink:href="#DejaVuSans-Bold-20" transform="translate(346.630859 0)"/>
      <use xlink:href="#DejaVuSans-Bold-5b" transform="translate(381.445312 0)"/>
      <use xlink:href="#DejaVuSans-Bold-6e" transform="translate(427.148438 0)"/>
      <use xlink:href="#DejaVuSans-Bold-4d" transform="translate(498.339844 0)"/>
      <use xlink:href="#DejaVuSans-Bold-5d" transform="translate(597.851562 0)"/>
     </g>
    </g>
   </g>
   <g id="LineCollection_7">
    <path clip-path="url(#pb6a52a1bce)" style="fill: none; stroke: #000000"/>
    <path clip-path="url(#pb6a52a1bce)" style="fill: none; stroke: #000000"/>
    <path clip-path="url(#pb6a52a1bce)" style="fill: none; stroke: #000000"/>
    <path clip-path="url(#pb6a52a1bce)" style="fill: none; stroke: #000000"/>
    <path clip-path="url(#pb6a52a1bce)" style="fill: none; stroke: #000000"/>
    <path clip-path="url(#pb6a52a1bce)" style="fill: none; stroke: #000000"/>
    <path clip-path="url(#pb6a52a1bce)" style="fill: none; stroke: #000000"/>
    <path clip-path="url(#pb6a52a1bce)" style="fill: none; stroke: #000000"/>
    <path clip-path="url(#pb6a52a1bce)" style="fill: none; stroke: #000000"/>
    <path clip-path="url(#pb6a52a1bce)" style="fill: none; stroke: #000000"/>
    <path clip-path="url(#pb6a52a1bce)" style="fill: none; stroke: #000000"/>
    <path clip-path="url(#pb6a52a1bce)" style="fill: none; stroke: #000000"/>
    <path clip-path="url(#pb6a52a1bce)" style="fill: none; stroke: #000000"/>
    <path clip-path="url(#pb6a52a1bce)" style="fill: none; stroke: #000000"/>
    <path clip-path="url(#pb6a52a1bce)" style="fill: none; stroke: #000000"/>
    <path clip-path="url(#pb6a52a1bce)" style="fill: none; stroke: #000000"/>
    <path clip-path="url(#pb6a52a1bce)" style="fill: none; stroke: #000000"/>
    <path clip-path="url(#pb6a52a1bce)" style="fill: none; stroke: #000000"/>
    <path clip-path="url(#pb6a52a1bce)" style="fill: none; stroke: #000000"/>
    <path clip-path="url(#pb6a52a1bce)" style="fill: none; stroke: #000000"/>
    <path clip-path="url(#pb6a52a1bce)" style="fill: none; stroke: #000000"/>
   </g>
   <g id="LineCollection_8">
    <path clip-path="url(#pb6a52a1bce)" style="fill: none; stroke: #66c2a4"/>
    <path clip-path="url(#pb6a52a1bce)" style="fill: none; stroke: #66c2a4"/>
    <path clip-path="url(#pb6a52a1bce)" style="fill: none; stroke: #66c2a4"/>
    <path clip-path="url(#pb6a52a1bce)" style="fill: none; stroke: #66c2a4"/>
    <path clip-path="url(#pb6a52a1bce)" style="fill: none; stroke: #66c2a4"/>
    <path clip-path="url(#pb6a52a1bce)" style="fill: none; stroke: #66c2a4"/>
    <path clip-path="url(#pb6a52a1bce)" style="fill: none; stroke: #66c2a4"/>
    <path clip-path="url(#pb6a52a1bce)" style="fill: none; stroke: #66c2a4"/>
    <path clip-path="url(#pb6a52a1bce)" style="fill: none; stroke: #66c2a4"/>
    <path clip-path="url(#pb6a52a1bce)" style="fill: none; stroke: #66c2a4"/>
    <path clip-path="url(#pb6a52a1bce)" style="fill: none; stroke: #66c2a4"/>
    <path clip-path="url(#pb6a52a1bce)" style="fill: none; stroke: #66c2a4"/>
    <path clip-path="url(#pb6a52a1bce)" style="fill: none; stroke: #66c2a4"/>
    <path clip-path="url(#pb6a52a1bce)" style="fill: none; stroke: #66c2a4"/>
    <path clip-path="url(#pb6a52a1bce)" style="fill: none; stroke: #66c2a4"/>
    <path clip-path="url(#pb6a52a1bce)" style="fill: none; stroke: #66c2a4"/>
    <path clip-path="url(#pb6a52a1bce)" style="fill: none; stroke: #66c2a4"/>
    <path clip-path="url(#pb6a52a1bce)" style="fill: none; stroke: #66c2a4"/>
    <path clip-path="url(#pb6a52a1bce)" style="fill: none; stroke: #66c2a4"/>
    <path clip-path="url(#pb6a52a1bce)" style="fill: none; stroke: #66c2a4"/>
    <path clip-path="url(#pb6a52a1bce)" style="fill: none; stroke: #66c2a4"/>
   </g>
   <g id="LineCollection_9">
    <path clip-path="url(#pb6a52a1bce)" style="fill: none; stroke: #006d2c"/>
    <path clip-path="url(#pb6a52a1bce)" style="fill: none; stroke: #006d2c"/>
    <path clip-path="url(#pb6a52a1bce)" style="fill: none; stroke: #006d2c"/>
    <path clip-path="url(#pb6a52a1bce)" style="fill: none; stroke: #006d2c"/>
    <path clip-path="url(#pb6a52a1bce)" style="fill: none; stroke: #006d2c"/>
    <path clip-path="url(#pb6a52a1bce)" style="fill: none; stroke: #006d2c"/>
    <path clip-path="url(#pb6a52a1bce)" style="fill: none; stroke: #006d2c"/>
    <path clip-path="url(#pb6a52a1bce)" style="fill: none; stroke: #006d2c"/>
    <path clip-path="url(#pb6a52a1bce)" style="fill: none; stroke: #006d2c"/>
    <path clip-path="url(#pb6a52a1bce)" style="fill: none; stroke: #006d2c"/>
    <path clip-path="url(#pb6a52a1bce)" style="fill: none; stroke: #006d2c"/>
    <path clip-path="url(#pb6a52a1bce)" style="fill: none; stroke: #006d2c"/>
    <path clip-path="url(#pb6a52a1bce)" style="fill: none; stroke: #006d2c"/>
    <path clip-path="url(#pb6a52a1bce)" style="fill: none; stroke: #006d2c"/>
    <path clip-path="url(#pb6a52a1bce)" style="fill: none; stroke: #006d2c"/>
    <path clip-path="url(#pb6a52a1bce)" style="fill: none; stroke: #006d2c"/>
    <path clip-path="url(#pb6a52a1bce)" style="fill: none; stroke: #006d2c"/>
    <path clip-path="url(#pb6a52a1bce)" style="fill: none; stroke: #006d2c"/>
    <path clip-path="url(#pb6a52a1bce)" style="fill: none; stroke: #006d2c"/>
    <path clip-path="url(#pb6a52a1bce)" style="fill: none; stroke: #006d2c"/>
    <path clip-path="url(#pb6a52a1bce)" style="fill: none; stroke: #006d2c"/>
    <path clip-path="url(#pb6a52a1bce)" style="fill: none; stroke: #006d2c"/>
   </g>
   <g id="line2d_41">
    <path d="M 73.6071 611.704208 
L 74.3612 611.759059 
L 74.549725 611.616192 
L 74.738249 611.305193 
L 75.115299 609.978091 
L 75.492349 607.498973 
L 76.057924 601.495219 
L 76.812023 589.886226 
L 78.131697 564.436536 
L 79.639896 536.010573 
L 80.582521 521.521077 
L 81.525145 510.324295 
L 82.279245 503.753424 
L 83.033344 499.148471 
L 83.598919 496.852177 
L 84.164494 495.430275 
L 84.541544 494.914421 
L 84.918593 494.707303 
L 85.295643 494.778445 
L 85.672693 495.098794 
L 86.238268 495.987104 
L 86.992367 497.802983 
L 87.934992 500.845915 
L 89.254666 506.063506 
L 91.516964 516.216602 
L 95.287462 533.083022 
L 97.549761 542.167947 
L 99.623535 549.635022 
L 101.697308 556.292161 
L 103.771082 562.197498 
L 105.844856 567.424801 
L 107.91863 572.050009 
L 109.992403 576.14507 
L 112.066177 579.775469 
L 114.328476 583.274328 
L 116.590774 586.355832 
L 118.853073 589.077291 
L 121.303896 591.676263 
L 123.75472 593.963966 
L 126.394068 596.131372 
L 129.221942 598.165176 
L 132.23834 600.059032 
L 135.443263 601.812415 
L 139.025236 603.512887 
L 142.984258 605.134384 
L 147.320331 606.662091 
L 152.221978 608.143082 
L 157.6892 609.555646 
L 163.910521 610.927471 
L 168.568657 611.770377 
L 169.079245 611.105938 
L 169.589833 608.727614 
L 170.100421 604.138082 
L 170.61101 597.43275 
L 171.632186 579.545663 
L 173.674539 539.954707 
L 174.695715 523.595974 
L 175.716892 511.041333 
L 176.738068 502.367134 
L 177.248657 499.376823 
L 177.759245 497.193124 
L 178.269833 495.738043 
L 178.780421 494.931566 
L 179.29101 494.694941 
L 179.801598 494.952941 
L 180.312186 495.635325 
L 180.822774 496.67766 
L 181.843951 499.615342 
L 182.865127 503.372956 
L 184.396892 509.90474 
L 190.523951 537.106768 
L 192.566304 544.974444 
L 194.608657 552.039749 
L 196.65101 558.336053 
L 198.693363 563.926151 
L 200.735715 568.882199 
L 202.778068 573.275985 
L 204.820421 577.17456 
L 206.862774 580.638585 
L 208.905127 583.721991 
L 210.94748 586.472267 
L 213.500421 589.504492 
L 216.053363 592.150586 
L 218.606304 594.469302 
L 221.159245 596.510047 
L 224.222774 598.650022 
L 227.286304 600.508581 
L 230.860421 602.385094 
L 234.434539 604.005282 
L 238.519245 605.604533 
L 243.114539 607.147721 
L 248.220421 608.613812 
L 253.836892 609.992902 
L 260.474539 611.381667 
L 268.133363 612.738373 
L 276.813363 614.035846 
L 286.514539 615.256049 
L 297.74748 616.434967 
L 310.001598 617.496736 
L 323.78748 618.470307 
L 339.615715 619.360685 
L 357.486304 620.138888 
L 378.420421 620.818968 
L 402.928657 621.384359 
L 423.352186 621.719166 
L 423.352186 621.719166 
" clip-path="url(#pb6a52a1bce)" style="fill: none; stroke: #000000; stroke-width: 2; stroke-linecap: square"/>
   </g>
   <g id="line2d_42">
    <path d="M 168.058068 613.226033 
L 168.712669 613.712153 
L 169.367269 612.796849 
L 170.021869 607.03129 
L 171.00377 564.170782 
L 171.98567 549.659117 
L 172.967571 484.480977 
L 173.949471 451.708604 
L 175.913272 403.513043 
L 179.840874 423.752053 
L 183.768476 455.222369 
L 191.623679 517.387016 
L 199.478883 547.397088 
L 207.334087 569.326984 
L 215.18929 587.759582 
L 226.972096 599.502361 
L 238.754901 605.264513 
L 262.320512 612.533255 
L 285.886123 616.549278 
L 309.451734 618.682766 
L 356.582955 620.999904 
" clip-path="url(#pb6a52a1bce)" style="fill: none; stroke-dasharray: 3.7,1.6; stroke-dashoffset: 0; stroke: #000000"/>
    <g clip-path="url(#pb6a52a1bce)">
     <use xlink:href="#m1b40fbfd10" x="168.058068" y="613.226033" style="stroke: #000000; stroke-linejoin: miter"/>
     <use xlink:href="#m1b40fbfd10" x="168.712669" y="613.712153" style="stroke: #000000; stroke-linejoin: miter"/>
     <use xlink:href="#m1b40fbfd10" x="169.367269" y="612.796849" style="stroke: #000000; stroke-linejoin: miter"/>
     <use xlink:href="#m1b40fbfd10" x="170.021869" y="607.03129" style="stroke: #000000; stroke-linejoin: miter"/>
     <use xlink:href="#m1b40fbfd10" x="171.00377" y="564.170782" style="stroke: #000000; stroke-linejoin: miter"/>
     <use xlink:href="#m1b40fbfd10" x="171.98567" y="549.659117" style="stroke: #000000; stroke-linejoin: miter"/>
     <use xlink:href="#m1b40fbfd10" x="172.967571" y="484.480977" style="stroke: #000000; stroke-linejoin: miter"/>
     <use xlink:href="#m1b40fbfd10" x="173.949471" y="451.708604" style="stroke: #000000; stroke-linejoin: miter"/>
     <use xlink:href="#m1b40fbfd10" x="175.913272" y="403.513043" style="stroke: #000000; stroke-linejoin: miter"/>
     <use xlink:href="#m1b40fbfd10" x="179.840874" y="423.752053" style="stroke: #000000; stroke-linejoin: miter"/>
     <use xlink:href="#m1b40fbfd10" x="183.768476" y="455.222369" style="stroke: #000000; stroke-linejoin: miter"/>
     <use xlink:href="#m1b40fbfd10" x="191.623679" y="517.387016" style="stroke: #000000; stroke-linejoin: miter"/>
     <use xlink:href="#m1b40fbfd10" x="199.478883" y="547.397088" style="stroke: #000000; stroke-linejoin: miter"/>
     <use xlink:href="#m1b40fbfd10" x="207.334087" y="569.326984" style="stroke: #000000; stroke-linejoin: miter"/>
     <use xlink:href="#m1b40fbfd10" x="215.18929" y="587.759582" style="stroke: #000000; stroke-linejoin: miter"/>
     <use xlink:href="#m1b40fbfd10" x="226.972096" y="599.502361" style="stroke: #000000; stroke-linejoin: miter"/>
     <use xlink:href="#m1b40fbfd10" x="238.754901" y="605.264513" style="stroke: #000000; stroke-linejoin: miter"/>
     <use xlink:href="#m1b40fbfd10" x="262.320512" y="612.533255" style="stroke: #000000; stroke-linejoin: miter"/>
     <use xlink:href="#m1b40fbfd10" x="285.886123" y="616.549278" style="stroke: #000000; stroke-linejoin: miter"/>
     <use xlink:href="#m1b40fbfd10" x="309.451734" y="618.682766" style="stroke: #000000; stroke-linejoin: miter"/>
     <use xlink:href="#m1b40fbfd10" x="356.582955" y="620.999904" style="stroke: #000000; stroke-linejoin: miter"/>
    </g>
   </g>
   <g id="line2d_43">
    <path d="M 73.6071 604.907885 
L 74.3612 605.064136 
L 74.549725 604.943134 
L 74.738249 604.648829 
L 75.115299 603.326853 
L 75.492349 600.793949 
L 76.057924 594.557696 
L 76.812023 582.31643 
L 77.943173 559.048325 
L 79.828421 519.874248 
L 80.959571 501.045907 
L 81.902195 489.048817 
L 82.656295 481.860003 
L 83.410394 476.645345 
L 83.975969 473.897021 
L 84.541544 472.029919 
L 85.107118 470.938601 
L 85.484168 470.591405 
L 85.861218 470.514716 
L 86.238268 470.681243 
L 86.615317 471.065333 
L 87.180892 471.997547 
L 87.934992 473.793351 
L 88.877616 476.720268 
L 90.19729 481.679897 
L 92.271064 490.514616 
L 97.172711 511.654572 
L 99.623535 521.181175 
L 102.074358 529.800763 
L 104.336657 536.971557 
L 106.598955 543.442583 
L 108.861254 549.278044 
L 111.123553 554.542748 
L 113.574376 559.672819 
L 116.0252 564.27523 
L 118.476023 568.412748 
L 120.926847 572.140672 
L 123.566195 575.75279 
L 126.205544 578.998795 
L 129.033417 582.122131 
L 131.86129 584.925874 
L 134.877688 587.610836 
L 138.082611 590.16461 
L 141.476059 592.579992 
L 145.058032 594.854188 
L 148.82853 596.987957 
L 152.976077 599.074298 
L 157.31215 601.009353 
L 162.025272 602.873589 
L 167.303969 604.715193 
L 168.568657 605.066819 
L 169.079245 604.452612 
L 169.589833 602.053202 
L 170.100421 597.313134 
L 170.61101 590.294056 
L 171.632186 571.276976 
L 174.185127 518.124826 
L 175.206304 501.267339 
L 176.22748 488.362459 
L 177.248657 479.340628 
L 177.759245 476.157044 
L 178.269833 473.764032 
L 178.780421 472.084437 
L 179.29101 471.040613 
L 179.801598 470.55708 
L 180.312186 470.562312 
L 180.822774 470.989849 
L 181.333363 471.778899 
L 182.354539 474.22767 
L 183.375715 477.537583 
L 184.90748 483.507168 
L 187.97101 496.862231 
L 191.545127 512.094904 
L 194.098068 521.957379 
L 196.65101 530.835194 
L 199.203951 538.762255 
L 201.756892 545.819623 
L 204.309833 552.10056 
L 206.862774 557.696079 
L 209.415715 562.68956 
L 211.968657 567.155265 
L 214.521598 571.158458 
L 217.074539 574.756136 
L 219.62748 577.997927 
L 222.180421 580.926992 
L 225.243951 584.08155 
L 228.30748 586.895209 
L 231.37101 589.415056 
L 234.945127 592.036377 
L 238.519245 594.364815 
L 242.093363 596.444158 
L 246.178068 598.561735 
L 250.773363 600.666335 
L 255.368657 602.525299 
L 260.474539 604.351223 
L 266.09101 606.117958 
L 272.218068 607.806889 
L 278.855715 609.405427 
L 286.003951 610.905485 
L 294.173363 612.388504 
L 302.853363 613.741607 
L 312.554539 615.03082 
L 323.276892 616.230744 
L 335.020421 617.323418 
L 348.295715 618.332712 
L 363.102774 619.232407 
L 379.952186 620.029161 
L 399.354539 620.718582 
L 422.33101 621.303794 
L 423.352186 621.325201 
L 423.352186 621.325201 
" clip-path="url(#pb6a52a1bce)" style="fill: none; stroke: #66c2a4; stroke-width: 2; stroke-linecap: square"/>
   </g>
   <g id="line2d_44">
    <path d="M 168.058068 615.360041 
L 168.712669 615.674918 
L 169.367269 615.22811 
L 170.021869 612.882608 
L 171.00377 578.215224 
L 171.98567 522.233004 
L 172.967571 471.674238 
L 173.949471 434.212299 
L 175.913272 418.510117 
L 179.840874 442.224766 
L 183.768476 486.694932 
L 191.623679 535.260187 
L 199.478883 561.273534 
L 207.334087 581.77238 
L 215.18929 594.938254 
L 226.972096 605.598047 
L 238.754901 610.451153 
L 262.320512 615.827965 
L 285.886123 617.716911 
L 309.451734 619.251734 
L 356.582955 620.948152 
" clip-path="url(#pb6a52a1bce)" style="fill: none; stroke-dasharray: 3.7,1.6; stroke-dashoffset: 0; stroke: #66c2a4"/>
    <g clip-path="url(#pb6a52a1bce)">
     <use xlink:href="#mf1db06f9fd" x="168.058068" y="615.360041" style="fill: #66c2a4; stroke: #000000; stroke-linejoin: miter"/>
     <use xlink:href="#mf1db06f9fd" x="168.712669" y="615.674918" style="fill: #66c2a4; stroke: #000000; stroke-linejoin: miter"/>
     <use xlink:href="#mf1db06f9fd" x="169.367269" y="615.22811" style="fill: #66c2a4; stroke: #000000; stroke-linejoin: miter"/>
     <use xlink:href="#mf1db06f9fd" x="170.021869" y="612.882608" style="fill: #66c2a4; stroke: #000000; stroke-linejoin: miter"/>
     <use xlink:href="#mf1db06f9fd" x="171.00377" y="578.215224" style="fill: #66c2a4; stroke: #000000; stroke-linejoin: miter"/>
     <use xlink:href="#mf1db06f9fd" x="171.98567" y="522.233004" style="fill: #66c2a4; stroke: #000000; stroke-linejoin: miter"/>
     <use xlink:href="#mf1db06f9fd" x="172.967571" y="471.674238" style="fill: #66c2a4; stroke: #000000; stroke-linejoin: miter"/>
     <use xlink:href="#mf1db06f9fd" x="173.949471" y="434.212299" style="fill: #66c2a4; stroke: #000000; stroke-linejoin: miter"/>
     <use xlink:href="#mf1db06f9fd" x="175.913272" y="418.510117" style="fill: #66c2a4; stroke: #000000; stroke-linejoin: miter"/>
     <use xlink:href="#mf1db06f9fd" x="179.840874" y="442.224766" style="fill: #66c2a4; stroke: #000000; stroke-linejoin: miter"/>
     <use xlink:href="#mf1db06f9fd" x="183.768476" y="486.694932" style="fill: #66c2a4; stroke: #000000; stroke-linejoin: miter"/>
     <use xlink:href="#mf1db06f9fd" x="191.623679" y="535.260187" style="fill: #66c2a4; stroke: #000000; stroke-linejoin: miter"/>
     <use xlink:href="#mf1db06f9fd" x="199.478883" y="561.273534" style="fill: #66c2a4; stroke: #000000; stroke-linejoin: miter"/>
     <use xlink:href="#mf1db06f9fd" x="207.334087" y="581.77238" style="fill: #66c2a4; stroke: #000000; stroke-linejoin: miter"/>
     <use xlink:href="#mf1db06f9fd" x="215.18929" y="594.938254" style="fill: #66c2a4; stroke: #000000; stroke-linejoin: miter"/>
     <use xlink:href="#mf1db06f9fd" x="226.972096" y="605.598047" style="fill: #66c2a4; stroke: #000000; stroke-linejoin: miter"/>
     <use xlink:href="#mf1db06f9fd" x="238.754901" y="610.451153" style="fill: #66c2a4; stroke: #000000; stroke-linejoin: miter"/>
     <use xlink:href="#mf1db06f9fd" x="262.320512" y="615.827965" style="fill: #66c2a4; stroke: #000000; stroke-linejoin: miter"/>
     <use xlink:href="#mf1db06f9fd" x="285.886123" y="617.716911" style="fill: #66c2a4; stroke: #000000; stroke-linejoin: miter"/>
     <use xlink:href="#mf1db06f9fd" x="309.451734" y="619.251734" style="fill: #66c2a4; stroke: #000000; stroke-linejoin: miter"/>
     <use xlink:href="#mf1db06f9fd" x="356.582955" y="620.948152" style="fill: #66c2a4; stroke: #000000; stroke-linejoin: miter"/>
    </g>
   </g>
   <g id="line2d_45">
    <path d="M 73.6071 597.601763 
L 74.3612 597.861648 
L 74.549725 597.765904 
L 74.738249 597.496015 
L 75.115299 596.217874 
L 75.492349 593.717107 
L 76.057924 587.493586 
L 76.812023 575.176825 
L 77.943173 551.553566 
L 80.016946 507.539953 
L 81.148096 488.44192 
L 82.09072 476.164661 
L 82.84482 468.692915 
L 83.598919 463.140024 
L 84.353019 459.288123 
L 84.918593 457.372323 
L 85.484168 456.179346 
L 85.861218 455.738251 
L 86.238268 455.549271 
L 86.615317 455.587312 
L 86.992367 455.828902 
L 87.557942 456.525687 
L 88.312041 457.977424 
L 89.254666 460.445359 
L 90.385815 464.087953 
L 92.082539 470.386439 
L 100.943209 504.592611 
L 103.582557 513.385789 
L 106.221906 521.400301 
L 108.861254 528.688158 
L 111.500602 535.313585 
L 114.139951 541.341318 
L 116.779299 546.832098 
L 119.418648 551.841228 
L 122.246521 556.73 
L 125.074394 561.177154 
L 127.902268 565.230676 
L 130.918666 569.168163 
L 133.935064 572.751027 
L 137.139987 576.213355 
L 140.533435 579.537385 
L 143.926883 582.551295 
L 147.508856 585.436657 
L 151.279354 588.185446 
L 155.238376 590.793039 
L 159.385924 593.257671 
L 163.721996 595.579896 
L 168.058068 597.675638 
L 168.058068 597.675638 
L 168.568657 597.852892 
L 169.079245 597.305641 
L 169.589833 594.960231 
L 170.100421 590.246231 
L 170.61101 583.210952 
L 171.632186 563.996364 
L 174.695715 499.966509 
L 175.716892 484.073198 
L 176.738068 472.088568 
L 177.759245 463.776672 
L 178.269833 460.846991 
L 178.780421 458.638461 
L 179.29101 457.076485 
L 179.801598 456.088071 
L 180.312186 455.603691 
L 180.822774 455.558461 
L 181.333363 455.892789 
L 181.843951 456.552648 
L 182.354539 457.489561 
L 183.375715 460.02713 
L 184.396892 463.218816 
L 185.928657 468.769875 
L 189.502774 483.024062 
L 193.076892 496.914237 
L 195.629833 506.051369 
L 198.182774 514.446113 
L 200.735715 522.117068 
L 203.288657 529.113593 
L 205.841598 535.494186 
L 208.394539 541.317348 
L 210.94748 546.637996 
L 213.500421 551.50628 
L 216.053363 555.967415 
L 219.116892 560.840098 
L 222.180421 565.246571 
L 225.243951 569.240919 
L 228.30748 572.870354 
L 231.37101 576.176108 
L 234.434539 579.194211 
L 238.008657 582.393597 
L 241.582774 585.28757 
L 245.156892 587.913332 
L 249.241598 590.626567 
L 253.326304 593.071733 
L 257.921598 595.544657 
L 262.516892 597.762621 
L 267.622774 599.969322 
L 272.728657 601.942067 
L 278.345127 603.87984 
L 284.472186 605.755784 
L 291.109833 607.549066 
L 298.258068 609.244228 
L 305.916892 610.83042 
L 314.086304 612.300663 
L 323.276892 613.72458 
L 333.488657 615.068099 
L 344.21101 616.254683 
L 356.465127 617.379993 
L 369.740421 618.373289 
L 384.54748 619.25971 
L 401.396892 620.04561 
L 420.799245 620.726628 
L 423.352186 620.80176 
L 423.352186 620.80176 
" clip-path="url(#pb6a52a1bce)" style="fill: none; stroke: #006d2c; stroke-width: 2; stroke-linecap: square"/>
   </g>
   <g id="line2d_46">
    <path d="M 168.058068 604.658708 
L 168.712669 603.163908 
L 169.367269 613.751639 
L 170.021869 603.158349 
L 171.00377 596.535774 
L 171.98567 581.6128 
L 172.967571 570.516329 
L 173.949471 558.154444 
L 175.913272 508.900212 
L 179.840874 496.629154 
L 183.768476 500.41137 
L 191.623679 523.274339 
L 199.478883 569.384762 
L 207.334087 558.134725 
L 215.18929 573.137614 
L 226.972096 591.640732 
L 238.754901 595.814077 
L 262.320512 606.109786 
L 285.886123 612.271613 
L 309.451734 615.534536 
L 356.582955 618.862697 
L 403.714177 619.889515 
" clip-path="url(#pb6a52a1bce)" style="fill: none; stroke-dasharray: 3.7,1.6; stroke-dashoffset: 0; stroke: #006d2c"/>
    <g clip-path="url(#pb6a52a1bce)">
     <use xlink:href="#m39bec6ec14" x="168.058068" y="604.658708" style="fill: #006d2c; stroke: #000000; stroke-linejoin: miter"/>
     <use xlink:href="#m39bec6ec14" x="168.712669" y="603.163908" style="fill: #006d2c; stroke: #000000; stroke-linejoin: miter"/>
     <use xlink:href="#m39bec6ec14" x="169.367269" y="613.751639" style="fill: #006d2c; stroke: #000000; stroke-linejoin: miter"/>
     <use xlink:href="#m39bec6ec14" x="170.021869" y="603.158349" style="fill: #006d2c; stroke: #000000; stroke-linejoin: miter"/>
     <use xlink:href="#m39bec6ec14" x="171.00377" y="596.535774" style="fill: #006d2c; stroke: #000000; stroke-linejoin: miter"/>
     <use xlink:href="#m39bec6ec14" x="171.98567" y="581.6128" style="fill: #006d2c; stroke: #000000; stroke-linejoin: miter"/>
     <use xlink:href="#m39bec6ec14" x="172.967571" y="570.516329" style="fill: #006d2c; stroke: #000000; stroke-linejoin: miter"/>
     <use xlink:href="#m39bec6ec14" x="173.949471" y="558.154444" style="fill: #006d2c; stroke: #000000; stroke-linejoin: miter"/>
     <use xlink:href="#m39bec6ec14" x="175.913272" y="508.900212" style="fill: #006d2c; stroke: #000000; stroke-linejoin: miter"/>
     <use xlink:href="#m39bec6ec14" x="179.840874" y="496.629154" style="fill: #006d2c; stroke: #000000; stroke-linejoin: miter"/>
     <use xlink:href="#m39bec6ec14" x="183.768476" y="500.41137" style="fill: #006d2c; stroke: #000000; stroke-linejoin: miter"/>
     <use xlink:href="#m39bec6ec14" x="191.623679" y="523.274339" style="fill: #006d2c; stroke: #000000; stroke-linejoin: miter"/>
     <use xlink:href="#m39bec6ec14" x="199.478883" y="569.384762" style="fill: #006d2c; stroke: #000000; stroke-linejoin: miter"/>
     <use xlink:href="#m39bec6ec14" x="207.334087" y="558.134725" style="fill: #006d2c; stroke: #000000; stroke-linejoin: miter"/>
     <use xlink:href="#m39bec6ec14" x="215.18929" y="573.137614" style="fill: #006d2c; stroke: #000000; stroke-linejoin: miter"/>
     <use xlink:href="#m39bec6ec14" x="226.972096" y="591.640732" style="fill: #006d2c; stroke: #000000; stroke-linejoin: miter"/>
     <use xlink:href="#m39bec6ec14" x="238.754901" y="595.814077" style="fill: #006d2c; stroke: #000000; stroke-linejoin: miter"/>
     <use xlink:href="#m39bec6ec14" x="262.320512" y="606.109786" style="fill: #006d2c; stroke: #000000; stroke-linejoin: miter"/>
     <use xlink:href="#m39bec6ec14" x="285.886123" y="612.271613" style="fill: #006d2c; stroke: #000000; stroke-linejoin: miter"/>
     <use xlink:href="#m39bec6ec14" x="309.451734" y="615.534536" style="fill: #006d2c; stroke: #000000; stroke-linejoin: miter"/>
     <use xlink:href="#m39bec6ec14" x="356.582955" y="618.862697" style="fill: #006d2c; stroke: #000000; stroke-linejoin: miter"/>
     <use xlink:href="#m39bec6ec14" x="403.714177" y="619.889515" style="fill: #006d2c; stroke: #000000; stroke-linejoin: miter"/>
    </g>
   </g>
   <g id="patch_9">
    <path d="M 73.795625 633.6 
L 73.795625 392.556522 
" style="fill: none; stroke: #000000; stroke-width: 0.8; stroke-linejoin: miter; stroke-linecap: square"/>
   </g>
   <g id="patch_10">
    <path d="M 464.395625 633.6 
L 464.395625 392.556522 
" style="fill: none; stroke: #000000; stroke-width: 0.8; stroke-linejoin: miter; stroke-linecap: square"/>
   </g>
   <g id="patch_11">
    <path d="M 73.795625 633.6 
L 464.395625 633.6 
" style="fill: none; stroke: #000000; stroke-width: 0.8; stroke-linejoin: miter; stroke-linecap: square"/>
   </g>
   <g id="patch_12">
    <path d="M 73.795625 392.556522 
L 464.395625 392.556522 
" style="fill: none; stroke: #000000; stroke-width: 0.8; stroke-linejoin: miter; stroke-linecap: square"/>
   </g>
   <g id="legend_2">
    <g id="patch_13">
     <path d="M 335.505 488.625272 
L 457.395625 488.625272 
Q 459.395625 488.625272 459.395625 486.625272 
L 459.395625 399.556522 
Q 459.395625 397.556522 457.395625 397.556522 
L 335.505 397.556522 
Q 333.505 397.556522 333.505 399.556522 
L 333.505 486.625272 
Q 333.505 488.625272 335.505 488.625272 
z
" style="fill: #ffffff; opacity: 0.8; stroke: #cccccc; stroke-linejoin: miter"/>
    </g>
    <g id="line2d_47">
     <path d="M 337.505 405.654959 
L 357.505 405.654959 
" style="fill: none; stroke: #000000; stroke-width: 2; stroke-linecap: square"/>
    </g>
    <g id="line2d_48"/>
    <g id="text_33">
     <!-- Sim group1 -->
     <g transform="translate(365.505 409.154959) scale(0.1 -0.1)">
      <use xlink:href="#DejaVuSans-53"/>
      <use xlink:href="#DejaVuSans-69" transform="translate(63.476562 0)"/>
      <use xlink:href="#DejaVuSans-6d" transform="translate(91.259766 0)"/>
      <use xlink:href="#DejaVuSans-20" transform="translate(188.671875 0)"/>
      <use xlink:href="#DejaVuSans-67" transform="translate(220.458984 0)"/>
      <use xlink:href="#DejaVuSans-72" transform="translate(283.935547 0)"/>
      <use xlink:href="#DejaVuSans-6f" transform="translate(322.798828 0)"/>
      <use xlink:href="#DejaVuSans-75" transform="translate(383.980469 0)"/>
      <use xlink:href="#DejaVuSans-70" transform="translate(447.359375 0)"/>
      <use xlink:href="#DejaVuSans-31" transform="translate(510.835938 0)"/>
     </g>
    </g>
    <g id="LineCollection_10">
     <path d="M 347.505 425.333084 
L 347.505 415.333084 
" style="fill: none; stroke: #000000"/>
    </g>
    <g id="line2d_49">
     <path d="M 337.505 420.333084 
L 357.505 420.333084 
" style="fill: none; stroke-dasharray: 3.7,1.6; stroke-dashoffset: 0; stroke: #000000"/>
    </g>
    <g id="line2d_50">
     <g>
      <use xlink:href="#m1b40fbfd10" x="347.505" y="420.333084" style="stroke: #000000; stroke-linejoin: miter"/>
     </g>
    </g>
    <g id="text_34">
     <!-- group1±SD (n=6) -->
     <g transform="translate(365.505 423.833084) scale(0.1 -0.1)">
      <use xlink:href="#DejaVuSans-67"/>
      <use xlink:href="#DejaVuSans-72" transform="translate(63.476562 0)"/>
      <use xlink:href="#DejaVuSans-6f" transform="translate(102.339844 0)"/>
      <use xlink:href="#DejaVuSans-75" transform="translate(163.521484 0)"/>
      <use xlink:href="#DejaVuSans-70" transform="translate(226.900391 0)"/>
      <use xlink:href="#DejaVuSans-31" transform="translate(290.376953 0)"/>
      <use xlink:href="#DejaVuSans-b1" transform="translate(354 0)"/>
      <use xlink:href="#DejaVuSans-53" transform="translate(437.789062 0)"/>
      <use xlink:href="#DejaVuSans-44" transform="translate(501.265625 0)"/>
      <use xlink:href="#DejaVuSans-20" transform="translate(578.267578 0)"/>
      <use xlink:href="#DejaVuSans-28" transform="translate(610.054688 0)"/>
      <use xlink:href="#DejaVuSans-6e" transform="translate(649.068359 0)"/>
      <use xlink:href="#DejaVuSans-3d" transform="translate(712.447266 0)"/>
      <use xlink:href="#DejaVuSans-36" transform="translate(796.236328 0)"/>
      <use xlink:href="#DejaVuSans-29" transform="translate(859.859375 0)"/>
     </g>
    </g>
    <g id="line2d_51">
     <path d="M 337.505 435.011209 
L 357.505 435.011209 
" style="fill: none; stroke: #66c2a4; stroke-width: 2; stroke-linecap: square"/>
    </g>
    <g id="line2d_52"/>
    <g id="text_35">
     <!-- Sim group2 -->
     <g transform="translate(365.505 438.511209) scale(0.1 -0.1)">
      <use xlink:href="#DejaVuSans-53"/>
      <use xlink:href="#DejaVuSans-69" transform="translate(63.476562 0)"/>
      <use xlink:href="#DejaVuSans-6d" transform="translate(91.259766 0)"/>
      <use xlink:href="#DejaVuSans-20" transform="translate(188.671875 0)"/>
      <use xlink:href="#DejaVuSans-67" transform="translate(220.458984 0)"/>
      <use xlink:href="#DejaVuSans-72" transform="translate(283.935547 0)"/>
      <use xlink:href="#DejaVuSans-6f" transform="translate(322.798828 0)"/>
      <use xlink:href="#DejaVuSans-75" transform="translate(383.980469 0)"/>
      <use xlink:href="#DejaVuSans-70" transform="translate(447.359375 0)"/>
      <use xlink:href="#DejaVuSans-32" transform="translate(510.835938 0)"/>
     </g>
    </g>
    <g id="LineCollection_11">
     <path d="M 347.505 454.689334 
L 347.505 444.689334 
" style="fill: none; stroke: #66c2a4"/>
    </g>
    <g id="line2d_53">
     <path d="M 337.505 449.689334 
L 357.505 449.689334 
" style="fill: none; stroke-dasharray: 3.7,1.6; stroke-dashoffset: 0; stroke: #66c2a4"/>
    </g>
    <g id="line2d_54">
     <g>
      <use xlink:href="#mf1db06f9fd" x="347.505" y="449.689334" style="fill: #66c2a4; stroke: #000000; stroke-linejoin: miter"/>
     </g>
    </g>
    <g id="text_36">
     <!-- group2±SD (n=6) -->
     <g transform="translate(365.505 453.189334) scale(0.1 -0.1)">
      <use xlink:href="#DejaVuSans-67"/>
      <use xlink:href="#DejaVuSans-72" transform="translate(63.476562 0)"/>
      <use xlink:href="#DejaVuSans-6f" transform="translate(102.339844 0)"/>
      <use xlink:href="#DejaVuSans-75" transform="translate(163.521484 0)"/>
      <use xlink:href="#DejaVuSans-70" transform="translate(226.900391 0)"/>
      <use xlink:href="#DejaVuSans-32" transform="translate(290.376953 0)"/>
      <use xlink:href="#DejaVuSans-b1" transform="translate(354 0)"/>
      <use xlink:href="#DejaVuSans-53" transform="translate(437.789062 0)"/>
      <use xlink:href="#DejaVuSans-44" transform="translate(501.265625 0)"/>
      <use xlink:href="#DejaVuSans-20" transform="translate(578.267578 0)"/>
      <use xlink:href="#DejaVuSans-28" transform="translate(610.054688 0)"/>
      <use xlink:href="#DejaVuSans-6e" transform="translate(649.068359 0)"/>
      <use xlink:href="#DejaVuSans-3d" transform="translate(712.447266 0)"/>
      <use xlink:href="#DejaVuSans-36" transform="translate(796.236328 0)"/>
      <use xlink:href="#DejaVuSans-29" transform="translate(859.859375 0)"/>
     </g>
    </g>
    <g id="line2d_55">
     <path d="M 337.505 464.367459 
L 357.505 464.367459 
" style="fill: none; stroke: #006d2c; stroke-width: 2; stroke-linecap: square"/>
    </g>
    <g id="line2d_56"/>
    <g id="text_37">
     <!-- Sim group3 -->
     <g transform="translate(365.505 467.867459) scale(0.1 -0.1)">
      <use xlink:href="#DejaVuSans-53"/>
      <use xlink:href="#DejaVuSans-69" transform="translate(63.476562 0)"/>
      <use xlink:href="#DejaVuSans-6d" transform="translate(91.259766 0)"/>
      <use xlink:href="#DejaVuSans-20" transform="translate(188.671875 0)"/>
      <use xlink:href="#DejaVuSans-67" transform="translate(220.458984 0)"/>
      <use xlink:href="#DejaVuSans-72" transform="translate(283.935547 0)"/>
      <use xlink:href="#DejaVuSans-6f" transform="translate(322.798828 0)"/>
      <use xlink:href="#DejaVuSans-75" transform="translate(383.980469 0)"/>
      <use xlink:href="#DejaVuSans-70" transform="translate(447.359375 0)"/>
      <use xlink:href="#DejaVuSans-33" transform="translate(510.835938 0)"/>
     </g>
    </g>
    <g id="LineCollection_12">
     <path d="M 347.505 484.045584 
L 347.505 474.045584 
" style="fill: none; stroke: #006d2c"/>
    </g>
    <g id="line2d_57">
     <path d="M 337.505 479.045584 
L 357.505 479.045584 
" style="fill: none; stroke-dasharray: 3.7,1.6; stroke-dashoffset: 0; stroke: #006d2c"/>
    </g>
    <g id="line2d_58">
     <g>
      <use xlink:href="#m39bec6ec14" x="347.505" y="479.045584" style="fill: #006d2c; stroke: #000000; stroke-linejoin: miter"/>
     </g>
    </g>
    <g id="text_38">
     <!-- group3±SD (n=6) -->
     <g transform="translate(365.505 482.545584) scale(0.1 -0.1)">
      <use xlink:href="#DejaVuSans-67"/>
      <use xlink:href="#DejaVuSans-72" transform="translate(63.476562 0)"/>
      <use xlink:href="#DejaVuSans-6f" transform="translate(102.339844 0)"/>
      <use xlink:href="#DejaVuSans-75" transform="translate(163.521484 0)"/>
      <use xlink:href="#DejaVuSans-70" transform="translate(226.900391 0)"/>
      <use xlink:href="#DejaVuSans-33" transform="translate(290.376953 0)"/>
      <use xlink:href="#DejaVuSans-b1" transform="translate(354 0)"/>
      <use xlink:href="#DejaVuSans-53" transform="translate(437.789062 0)"/>
      <use xlink:href="#DejaVuSans-44" transform="translate(501.265625 0)"/>
      <use xlink:href="#DejaVuSans-20" transform="translate(578.267578 0)"/>
      <use xlink:href="#DejaVuSans-28" transform="translate(610.054688 0)"/>
      <use xlink:href="#DejaVuSans-6e" transform="translate(649.068359 0)"/>
      <use xlink:href="#DejaVuSans-3d" transform="translate(712.447266 0)"/>
      <use xlink:href="#DejaVuSans-36" transform="translate(796.236328 0)"/>
      <use xlink:href="#DejaVuSans-29" transform="translate(859.859375 0)"/>
     </g>
    </g>
   </g>
  </g>
  <g id="text_39">
   <!-- Sica1995 (renal impairment) -->
   <g transform="translate(60.963594 26.196094) scale(0.25 -0.25)">
    <defs>
     <path id="DejaVuSans-Bold-53" d="M 3834 4519 
L 3834 3531 
Q 3450 3703 3084 3790 
Q 2719 3878 2394 3878 
Q 1963 3878 1756 3759 
Q 1550 3641 1550 3391 
Q 1550 3203 1689 3098 
Q 1828 2994 2194 2919 
L 2706 2816 
Q 3484 2659 3812 2340 
Q 4141 2022 4141 1434 
Q 4141 663 3683 286 
Q 3225 -91 2284 -91 
Q 1841 -91 1394 -6 
Q 947 78 500 244 
L 500 1259 
Q 947 1022 1364 901 
Q 1781 781 2169 781 
Q 2563 781 2772 912 
Q 2981 1044 2981 1288 
Q 2981 1506 2839 1625 
Q 2697 1744 2272 1838 
L 1806 1941 
Q 1106 2091 782 2419 
Q 459 2747 459 3303 
Q 459 4000 909 4375 
Q 1359 4750 2203 4750 
Q 2588 4750 2994 4692 
Q 3400 4634 3834 4519 
z
" transform="scale(0.015625)"/>
     <path id="DejaVuSans-Bold-63" d="M 3366 3391 
L 3366 2478 
Q 3138 2634 2908 2709 
Q 2678 2784 2431 2784 
Q 1963 2784 1702 2511 
Q 1441 2238 1441 1747 
Q 1441 1256 1702 982 
Q 1963 709 2431 709 
Q 2694 709 2930 787 
Q 3166 866 3366 1019 
L 3366 103 
Q 3103 6 2833 -42 
Q 2563 -91 2291 -91 
Q 1344 -91 809 395 
Q 275 881 275 1747 
Q 275 2613 809 3098 
Q 1344 3584 2291 3584 
Q 2566 3584 2833 3536 
Q 3100 3488 3366 3391 
z
" transform="scale(0.015625)"/>
     <path id="DejaVuSans-Bold-39" d="M 641 103 
L 641 966 
Q 928 831 1190 764 
Q 1453 697 1709 697 
Q 2247 697 2547 995 
Q 2847 1294 2900 1881 
Q 2688 1725 2447 1647 
Q 2206 1569 1925 1569 
Q 1209 1569 770 1986 
Q 331 2403 331 3084 
Q 331 3838 820 4291 
Q 1309 4744 2131 4744 
Q 3044 4744 3544 4128 
Q 4044 3513 4044 2388 
Q 4044 1231 3459 570 
Q 2875 -91 1856 -91 
Q 1528 -91 1228 -42 
Q 928 6 641 103 
z
M 2125 2350 
Q 2441 2350 2600 2554 
Q 2759 2759 2759 3169 
Q 2759 3575 2600 3781 
Q 2441 3988 2125 3988 
Q 1809 3988 1650 3781 
Q 1491 3575 1491 3169 
Q 1491 2759 1650 2554 
Q 1809 2350 2125 2350 
z
" transform="scale(0.015625)"/>
     <path id="DejaVuSans-Bold-35" d="M 678 4666 
L 3669 4666 
L 3669 3781 
L 1638 3781 
L 1638 3059 
Q 1775 3097 1914 3117 
Q 2053 3138 2203 3138 
Q 3056 3138 3531 2711 
Q 4006 2284 4006 1522 
Q 4006 766 3489 337 
Q 2972 -91 2053 -91 
Q 1656 -91 1267 -14 
Q 878 63 494 219 
L 494 1166 
Q 875 947 1217 837 
Q 1559 728 1863 728 
Q 2300 728 2551 942 
Q 2803 1156 2803 1522 
Q 2803 1891 2551 2103 
Q 2300 2316 1863 2316 
Q 1603 2316 1309 2248 
Q 1016 2181 678 2041 
L 678 4666 
z
" transform="scale(0.015625)"/>
     <path id="DejaVuSans-Bold-28" d="M 2413 -844 
L 1484 -844 
Q 1006 -72 778 623 
Q 550 1319 550 2003 
Q 550 2688 779 3389 
Q 1009 4091 1484 4856 
L 2413 4856 
Q 2013 4116 1813 3408 
Q 1613 2700 1613 2009 
Q 1613 1319 1811 609 
Q 2009 -100 2413 -844 
z
" transform="scale(0.015625)"/>
     <path id="DejaVuSans-Bold-6c" d="M 538 4863 
L 1656 4863 
L 1656 0 
L 538 0 
L 538 4863 
z
" transform="scale(0.015625)"/>
     <path id="DejaVuSans-Bold-70" d="M 1656 506 
L 1656 -1331 
L 538 -1331 
L 538 3500 
L 1656 3500 
L 1656 2988 
Q 1888 3294 2169 3439 
Q 2450 3584 2816 3584 
Q 3463 3584 3878 3070 
Q 4294 2556 4294 1747 
Q 4294 938 3878 423 
Q 3463 -91 2816 -91 
Q 2450 -91 2169 54 
Q 1888 200 1656 506 
z
M 2400 2772 
Q 2041 2772 1848 2508 
Q 1656 2244 1656 1747 
Q 1656 1250 1848 986 
Q 2041 722 2400 722 
Q 2759 722 2948 984 
Q 3138 1247 3138 1747 
Q 3138 2247 2948 2509 
Q 2759 2772 2400 2772 
z
" transform="scale(0.015625)"/>
     <path id="DejaVuSans-Bold-29" d="M 513 -844 
Q 913 -100 1113 609 
Q 1313 1319 1313 2009 
Q 1313 2700 1113 3408 
Q 913 4116 513 4856 
L 1441 4856 
Q 1916 4091 2145 3389 
Q 2375 2688 2375 2003 
Q 2375 1319 2147 623 
Q 1919 -72 1441 -844 
L 513 -844 
z
" transform="scale(0.015625)"/>
    </defs>
    <use xlink:href="#DejaVuSans-Bold-53"/>
    <use xlink:href="#DejaVuSans-Bold-69" transform="translate(72.021484 0)"/>
    <use xlink:href="#DejaVuSans-Bold-63" transform="translate(106.298828 0)"/>
    <use xlink:href="#DejaVuSans-Bold-61" transform="translate(165.576172 0)"/>
    <use xlink:href="#DejaVuSans-Bold-31" transform="translate(233.056641 0)"/>
    <use xlink:href="#DejaVuSans-Bold-39" transform="translate(302.636719 0)"/>
    <use xlink:href="#DejaVuSans-Bold-39" transform="translate(372.216797 0)"/>
    <use xlink:href="#DejaVuSans-Bold-35" transform="translate(441.796875 0)"/>
    <use xlink:href="#DejaVuSans-Bold-20" transform="translate(511.376953 0)"/>
    <use xlink:href="#DejaVuSans-Bold-28" transform="translate(546.191406 0)"/>
    <use xlink:href="#DejaVuSans-Bold-72" transform="translate(591.894531 0)"/>
    <use xlink:href="#DejaVuSans-Bold-65" transform="translate(641.210938 0)"/>
    <use xlink:href="#DejaVuSans-Bold-6e" transform="translate(709.033203 0)"/>
    <use xlink:href="#DejaVuSans-Bold-61" transform="translate(780.224609 0)"/>
    <use xlink:href="#DejaVuSans-Bold-6c" transform="translate(847.705078 0)"/>
    <use xlink:href="#DejaVuSans-Bold-20" transform="translate(881.982422 0)"/>
    <use xlink:href="#DejaVuSans-Bold-69" transform="translate(916.796875 0)"/>
    <use xlink:href="#DejaVuSans-Bold-6d" transform="translate(951.074219 0)"/>
    <use xlink:href="#DejaVuSans-Bold-70" transform="translate(1055.273438 0)"/>
    <use xlink:href="#DejaVuSans-Bold-61" transform="translate(1126.855469 0)"/>
    <use xlink:href="#DejaVuSans-Bold-69" transform="translate(1194.335938 0)"/>
    <use xlink:href="#DejaVuSans-Bold-72" transform="translate(1228.613281 0)"/>
    <use xlink:href="#DejaVuSans-Bold-6d" transform="translate(1277.929688 0)"/>
    <use xlink:href="#DejaVuSans-Bold-65" transform="translate(1382.128906 0)"/>
    <use xlink:href="#DejaVuSans-Bold-6e" transform="translate(1449.951172 0)"/>
    <use xlink:href="#DejaVuSans-Bold-74" transform="translate(1521.142578 0)"/>
    <use xlink:href="#DejaVuSans-Bold-29" transform="translate(1568.945312 0)"/>
   </g>
  </g>
 </g>
 <defs>
  <clipPath id="p7b2f3d4031">
   <rect x="73.795625" y="79.2" width="390.6" height="241.043478"/>
  </clipPath>
  <clipPath id="pb6a52a1bce">
   <rect x="73.795625" y="392.556522" width="390.6" height="241.043478"/>
  </clipPath>
 </defs>
</svg>
