<?xml version="1.0" encoding="utf-8" standalone="no"?>
<!DOCTYPE svg PUBLIC "-//W3C//DTD SVG 1.1//EN"
  "http://www.w3.org/Graphics/SVG/1.1/DTD/svg11.dtd">
<svg xmlns:xlink="http://www.w3.org/1999/xlink" width="472.664187pt" height="996.937813pt" viewBox="0 0 472.664187 996.937813" xmlns="http://www.w3.org/2000/svg" version="1.1">
 <metadata>
  <rdf:RDF xmlns:dc="http://purl.org/dc/elements/1.1/" xmlns:cc="http://creativecommons.org/ns#" xmlns:rdf="http://www.w3.org/1999/02/22-rdf-syntax-ns#">
   <cc:Work>
    <dc:type rdf:resource="http://purl.org/dc/dcmitype/StillImage"/>
    <dc:date>2025-12-03T15:38:11.826954</dc:date>
    <dc:format>image/svg+xml</dc:format>
    <dc:creator>
     <cc:Agent>
      <dc:title>Matplotlib v3.10.7, https://matplotlib.org/</dc:title>
     </cc:Agent>
    </dc:creator>
   </cc:Work>
  </rdf:RDF>
 </metadata>
 <defs>
  <style type="text/css">*{stroke-linejoin: round; stroke-linecap: butt}</style>
 </defs>
 <g id="figure_1">
  <g id="patch_1">
   <path d="M 0 996.937813 
L 472.664187 996.937813 
L 472.664187 0 
L 0 0 
z
" style="fill: #ffffff"/>
  </g>
  <g id="axes_1">
   <g id="patch_2">
    <path d="M 74.864187 346.2 
L 465.464187 346.2 
L 465.464187 115.2 
L 74.864187 115.2 
z
" style="fill: #ffffff"/>
   </g>
   <g id="matplotlib.axis_1">
    <g id="xtick_1">
     <g id="line2d_1">
      <defs>
       <path id="m13f79a7bcc" d="M 0 0 
L 0 3.5 
" style="stroke: #000000; stroke-width: 0.8"/>
      </defs>
      <g>
       <use xlink:href="#m13f79a7bcc" x="92.618733" y="346.2" style="stroke: #000000; stroke-width: 0.8"/>
      </g>
     </g>
     <g id="text_1">
      <!-- 0.0 -->
      <g transform="translate(80.691389 364.597656) scale(0.15 -0.15)">
       <defs>
        <path id="DejaVuSans-30" d="M 2034 4250 
Q 1547 4250 1301 3770 
Q 1056 3291 1056 2328 
Q 1056 1369 1301 889 
Q 1547 409 2034 409 
Q 2525 409 2770 889 
Q 3016 1369 3016 2328 
Q 3016 3291 2770 3770 
Q 2525 4250 2034 4250 
z
M 2034 4750 
Q 2819 4750 3233 4129 
Q 3647 3509 3647 2328 
Q 3647 1150 3233 529 
Q 2819 -91 2034 -91 
Q 1250 -91 836 529 
Q 422 1150 422 2328 
Q 422 3509 836 4129 
Q 1250 4750 2034 4750 
z
" transform="scale(0.015625)"/>
        <path id="DejaVuSans-2e" d="M 684 794 
L 1344 794 
L 1344 0 
L 684 0 
L 684 794 
z
" transform="scale(0.015625)"/>
       </defs>
       <use xlink:href="#DejaVuSans-30"/>
       <use xlink:href="#DejaVuSans-2e" transform="translate(63.623047 0)"/>
       <use xlink:href="#DejaVuSans-30" transform="translate(95.410156 0)"/>
      </g>
     </g>
    </g>
    <g id="xtick_2">
     <g id="line2d_2">
      <g>
       <use xlink:href="#m13f79a7bcc" x="151.800551" y="346.2" style="stroke: #000000; stroke-width: 0.8"/>
      </g>
     </g>
     <g id="text_2">
      <!-- 2.5 -->
      <g transform="translate(139.873207 364.597656) scale(0.15 -0.15)">
       <defs>
        <path id="DejaVuSans-32" d="M 1228 531 
L 3431 531 
L 3431 0 
L 469 0 
L 469 531 
Q 828 903 1448 1529 
Q 2069 2156 2228 2338 
Q 2531 2678 2651 2914 
Q 2772 3150 2772 3378 
Q 2772 3750 2511 3984 
Q 2250 4219 1831 4219 
Q 1534 4219 1204 4116 
Q 875 4013 500 3803 
L 500 4441 
Q 881 4594 1212 4672 
Q 1544 4750 1819 4750 
Q 2544 4750 2975 4387 
Q 3406 4025 3406 3419 
Q 3406 3131 3298 2873 
Q 3191 2616 2906 2266 
Q 2828 2175 2409 1742 
Q 1991 1309 1228 531 
z
" transform="scale(0.015625)"/>
        <path id="DejaVuSans-35" d="M 691 4666 
L 3169 4666 
L 3169 4134 
L 1269 4134 
L 1269 2991 
Q 1406 3038 1543 3061 
Q 1681 3084 1819 3084 
Q 2600 3084 3056 2656 
Q 3513 2228 3513 1497 
Q 3513 744 3044 326 
Q 2575 -91 1722 -91 
Q 1428 -91 1123 -41 
Q 819 9 494 109 
L 494 744 
Q 775 591 1075 516 
Q 1375 441 1709 441 
Q 2250 441 2565 725 
Q 2881 1009 2881 1497 
Q 2881 1984 2565 2268 
Q 2250 2553 1709 2553 
Q 1456 2553 1204 2497 
Q 953 2441 691 2322 
L 691 4666 
z
" transform="scale(0.015625)"/>
       </defs>
       <use xlink:href="#DejaVuSans-32"/>
       <use xlink:href="#DejaVuSans-2e" transform="translate(63.623047 0)"/>
       <use xlink:href="#DejaVuSans-35" transform="translate(95.410156 0)"/>
      </g>
     </g>
    </g>
    <g id="xtick_3">
     <g id="line2d_3">
      <g>
       <use xlink:href="#m13f79a7bcc" x="210.982369" y="346.2" style="stroke: #000000; stroke-width: 0.8"/>
      </g>
     </g>
     <g id="text_3">
      <!-- 5.0 -->
      <g transform="translate(199.055026 364.597656) scale(0.15 -0.15)">
       <use xlink:href="#DejaVuSans-35"/>
       <use xlink:href="#DejaVuSans-2e" transform="translate(63.623047 0)"/>
       <use xlink:href="#DejaVuSans-30" transform="translate(95.410156 0)"/>
      </g>
     </g>
    </g>
    <g id="xtick_4">
     <g id="line2d_4">
      <g>
       <use xlink:href="#m13f79a7bcc" x="270.164188" y="346.2" style="stroke: #000000; stroke-width: 0.8"/>
      </g>
     </g>
     <g id="text_4">
      <!-- 7.5 -->
      <g transform="translate(258.236844 364.597656) scale(0.15 -0.15)">
       <defs>
        <path id="DejaVuSans-37" d="M 525 4666 
L 3525 4666 
L 3525 4397 
L 1831 0 
L 1172 0 
L 2766 4134 
L 525 4134 
L 525 4666 
z
" transform="scale(0.015625)"/>
       </defs>
       <use xlink:href="#DejaVuSans-37"/>
       <use xlink:href="#DejaVuSans-2e" transform="translate(63.623047 0)"/>
       <use xlink:href="#DejaVuSans-35" transform="translate(95.410156 0)"/>
      </g>
     </g>
    </g>
    <g id="xtick_5">
     <g id="line2d_5">
      <g>
       <use xlink:href="#m13f79a7bcc" x="329.346006" y="346.2" style="stroke: #000000; stroke-width: 0.8"/>
      </g>
     </g>
     <g id="text_5">
      <!-- 10.0 -->
      <g transform="translate(312.646787 364.597656) scale(0.15 -0.15)">
       <defs>
        <path id="DejaVuSans-31" d="M 794 531 
L 1825 531 
L 1825 4091 
L 703 3866 
L 703 4441 
L 1819 4666 
L 2450 4666 
L 2450 531 
L 3481 531 
L 3481 0 
L 794 0 
L 794 531 
z
" transform="scale(0.015625)"/>
       </defs>
       <use xlink:href="#DejaVuSans-31"/>
       <use xlink:href="#DejaVuSans-30" transform="translate(63.623047 0)"/>
       <use xlink:href="#DejaVuSans-2e" transform="translate(127.246094 0)"/>
       <use xlink:href="#DejaVuSans-30" transform="translate(159.033203 0)"/>
      </g>
     </g>
    </g>
    <g id="xtick_6">
     <g id="line2d_6">
      <g>
       <use xlink:href="#m13f79a7bcc" x="388.527824" y="346.2" style="stroke: #000000; stroke-width: 0.8"/>
      </g>
     </g>
     <g id="text_6">
      <!-- 12.5 -->
      <g transform="translate(371.828605 364.597656) scale(0.15 -0.15)">
       <use xlink:href="#DejaVuSans-31"/>
       <use xlink:href="#DejaVuSans-32" transform="translate(63.623047 0)"/>
       <use xlink:href="#DejaVuSans-2e" transform="translate(127.246094 0)"/>
       <use xlink:href="#DejaVuSans-35" transform="translate(159.033203 0)"/>
      </g>
     </g>
    </g>
    <g id="xtick_7">
     <g id="line2d_7">
      <g>
       <use xlink:href="#m13f79a7bcc" x="447.709642" y="346.2" style="stroke: #000000; stroke-width: 0.8"/>
      </g>
     </g>
     <g id="text_7">
      <!-- 15.0 -->
      <g transform="translate(431.010423 364.597656) scale(0.15 -0.15)">
       <use xlink:href="#DejaVuSans-31"/>
       <use xlink:href="#DejaVuSans-35" transform="translate(63.623047 0)"/>
       <use xlink:href="#DejaVuSans-2e" transform="translate(127.246094 0)"/>
       <use xlink:href="#DejaVuSans-30" transform="translate(159.033203 0)"/>
      </g>
     </g>
    </g>
    <g id="text_8">
     <!-- Time [hr] -->
     <g transform="translate(223.251688 385.394375) scale(0.18 -0.18)">
      <defs>
       <path id="DejaVuSans-Bold-54" d="M 31 4666 
L 4331 4666 
L 4331 3756 
L 2784 3756 
L 2784 0 
L 1581 0 
L 1581 3756 
L 31 3756 
L 31 4666 
z
" transform="scale(0.015625)"/>
       <path id="DejaVuSans-Bold-69" d="M 538 3500 
L 1656 3500 
L 1656 0 
L 538 0 
L 538 3500 
z
M 538 4863 
L 1656 4863 
L 1656 3950 
L 538 3950 
L 538 4863 
z
" transform="scale(0.015625)"/>
       <path id="DejaVuSans-Bold-6d" d="M 3781 2919 
Q 3994 3244 4286 3414 
Q 4578 3584 4928 3584 
Q 5531 3584 5847 3212 
Q 6163 2841 6163 2131 
L 6163 0 
L 5038 0 
L 5038 1825 
Q 5041 1866 5042 1909 
Q 5044 1953 5044 2034 
Q 5044 2406 4934 2573 
Q 4825 2741 4581 2741 
Q 4263 2741 4089 2478 
Q 3916 2216 3909 1719 
L 3909 0 
L 2784 0 
L 2784 1825 
Q 2784 2406 2684 2573 
Q 2584 2741 2328 2741 
Q 2006 2741 1831 2477 
Q 1656 2213 1656 1722 
L 1656 0 
L 531 0 
L 531 3500 
L 1656 3500 
L 1656 2988 
Q 1863 3284 2130 3434 
Q 2397 3584 2719 3584 
Q 3081 3584 3359 3409 
Q 3638 3234 3781 2919 
z
" transform="scale(0.015625)"/>
       <path id="DejaVuSans-Bold-65" d="M 4031 1759 
L 4031 1441 
L 1416 1441 
Q 1456 1047 1700 850 
Q 1944 653 2381 653 
Q 2734 653 3104 758 
Q 3475 863 3866 1075 
L 3866 213 
Q 3469 63 3072 -14 
Q 2675 -91 2278 -91 
Q 1328 -91 801 392 
Q 275 875 275 1747 
Q 275 2603 792 3093 
Q 1309 3584 2216 3584 
Q 3041 3584 3536 3087 
Q 4031 2591 4031 1759 
z
M 2881 2131 
Q 2881 2450 2695 2645 
Q 2509 2841 2209 2841 
Q 1884 2841 1681 2658 
Q 1478 2475 1428 2131 
L 2881 2131 
z
" transform="scale(0.015625)"/>
       <path id="DejaVuSans-Bold-20" transform="scale(0.015625)"/>
       <path id="DejaVuSans-Bold-5b" d="M 550 4863 
L 2491 4863 
L 2491 4159 
L 1613 4159 
L 1613 -141 
L 2491 -141 
L 2491 -844 
L 550 -844 
L 550 4863 
z
" transform="scale(0.015625)"/>
       <path id="DejaVuSans-Bold-68" d="M 4056 2131 
L 4056 0 
L 2931 0 
L 2931 347 
L 2931 1625 
Q 2931 2084 2911 2256 
Q 2891 2428 2841 2509 
Q 2775 2619 2662 2680 
Q 2550 2741 2406 2741 
Q 2056 2741 1856 2470 
Q 1656 2200 1656 1722 
L 1656 0 
L 538 0 
L 538 4863 
L 1656 4863 
L 1656 2988 
Q 1909 3294 2193 3439 
Q 2478 3584 2822 3584 
Q 3428 3584 3742 3212 
Q 4056 2841 4056 2131 
z
" transform="scale(0.015625)"/>
       <path id="DejaVuSans-Bold-72" d="M 3138 2547 
Q 2991 2616 2845 2648 
Q 2700 2681 2553 2681 
Q 2122 2681 1889 2404 
Q 1656 2128 1656 1613 
L 1656 0 
L 538 0 
L 538 3500 
L 1656 3500 
L 1656 2925 
Q 1872 3269 2151 3426 
Q 2431 3584 2822 3584 
Q 2878 3584 2943 3579 
Q 3009 3575 3134 3559 
L 3138 2547 
z
" transform="scale(0.015625)"/>
       <path id="DejaVuSans-Bold-5d" d="M 2375 -844 
L 434 -844 
L 434 -141 
L 1313 -141 
L 1313 4159 
L 434 4159 
L 434 4863 
L 2375 4863 
L 2375 -844 
z
" transform="scale(0.015625)"/>
      </defs>
      <use xlink:href="#DejaVuSans-Bold-54"/>
      <use xlink:href="#DejaVuSans-Bold-69" transform="translate(68.212891 0)"/>
      <use xlink:href="#DejaVuSans-Bold-6d" transform="translate(102.490234 0)"/>
      <use xlink:href="#DejaVuSans-Bold-65" transform="translate(206.689453 0)"/>
      <use xlink:href="#DejaVuSans-Bold-20" transform="translate(274.511719 0)"/>
      <use xlink:href="#DejaVuSans-Bold-5b" transform="translate(309.326172 0)"/>
      <use xlink:href="#DejaVuSans-Bold-68" transform="translate(355.029297 0)"/>
      <use xlink:href="#DejaVuSans-Bold-72" transform="translate(426.220703 0)"/>
      <use xlink:href="#DejaVuSans-Bold-5d" transform="translate(475.537109 0)"/>
     </g>
    </g>
   </g>
   <g id="matplotlib.axis_2">
    <g id="ytick_1">
     <g id="line2d_8">
      <defs>
       <path id="m7f36508408" d="M 0 0 
L -3.5 0 
" style="stroke: #000000; stroke-width: 0.8"/>
      </defs>
      <g>
       <use xlink:href="#m7f36508408" x="74.864187" y="333.800494" style="stroke: #000000; stroke-width: 0.8"/>
      </g>
     </g>
     <g id="text_9">
      <!-- 0.0 -->
      <g transform="translate(44.0095 339.499322) scale(0.15 -0.15)">
       <use xlink:href="#DejaVuSans-30"/>
       <use xlink:href="#DejaVuSans-2e" transform="translate(63.623047 0)"/>
       <use xlink:href="#DejaVuSans-30" transform="translate(95.410156 0)"/>
      </g>
     </g>
    </g>
    <g id="ytick_2">
     <g id="line2d_9">
      <g>
       <use xlink:href="#m7f36508408" x="74.864187" y="295.369019" style="stroke: #000000; stroke-width: 0.8"/>
      </g>
     </g>
     <g id="text_10">
      <!-- 2.5 -->
      <g transform="translate(44.0095 301.067847) scale(0.15 -0.15)">
       <use xlink:href="#DejaVuSans-32"/>
       <use xlink:href="#DejaVuSans-2e" transform="translate(63.623047 0)"/>
       <use xlink:href="#DejaVuSans-35" transform="translate(95.410156 0)"/>
      </g>
     </g>
    </g>
    <g id="ytick_3">
     <g id="line2d_10">
      <g>
       <use xlink:href="#m7f36508408" x="74.864187" y="256.937543" style="stroke: #000000; stroke-width: 0.8"/>
      </g>
     </g>
     <g id="text_11">
      <!-- 5.0 -->
      <g transform="translate(44.0095 262.636371) scale(0.15 -0.15)">
       <use xlink:href="#DejaVuSans-35"/>
       <use xlink:href="#DejaVuSans-2e" transform="translate(63.623047 0)"/>
       <use xlink:href="#DejaVuSans-30" transform="translate(95.410156 0)"/>
      </g>
     </g>
    </g>
    <g id="ytick_4">
     <g id="line2d_11">
      <g>
       <use xlink:href="#m7f36508408" x="74.864187" y="218.506067" style="stroke: #000000; stroke-width: 0.8"/>
      </g>
     </g>
     <g id="text_12">
      <!-- 7.5 -->
      <g transform="translate(44.0095 224.204896) scale(0.15 -0.15)">
       <use xlink:href="#DejaVuSans-37"/>
       <use xlink:href="#DejaVuSans-2e" transform="translate(63.623047 0)"/>
       <use xlink:href="#DejaVuSans-35" transform="translate(95.410156 0)"/>
      </g>
     </g>
    </g>
    <g id="ytick_5">
     <g id="line2d_12">
      <g>
       <use xlink:href="#m7f36508408" x="74.864187" y="180.074592" style="stroke: #000000; stroke-width: 0.8"/>
      </g>
     </g>
     <g id="text_13">
      <!-- 10.0 -->
      <g transform="translate(34.46575 185.77342) scale(0.15 -0.15)">
       <use xlink:href="#DejaVuSans-31"/>
       <use xlink:href="#DejaVuSans-30" transform="translate(63.623047 0)"/>
       <use xlink:href="#DejaVuSans-2e" transform="translate(127.246094 0)"/>
       <use xlink:href="#DejaVuSans-30" transform="translate(159.033203 0)"/>
      </g>
     </g>
    </g>
    <g id="ytick_6">
     <g id="line2d_13">
      <g>
       <use xlink:href="#m7f36508408" x="74.864187" y="141.643116" style="stroke: #000000; stroke-width: 0.8"/>
      </g>
     </g>
     <g id="text_14">
      <!-- 12.5 -->
      <g transform="translate(34.46575 147.341945) scale(0.15 -0.15)">
       <use xlink:href="#DejaVuSans-31"/>
       <use xlink:href="#DejaVuSans-32" transform="translate(63.623047 0)"/>
       <use xlink:href="#DejaVuSans-2e" transform="translate(127.246094 0)"/>
       <use xlink:href="#DejaVuSans-35" transform="translate(159.033203 0)"/>
      </g>
     </g>
    </g>
    <g id="text_15">
     <!-- Losartan [nM] -->
     <g transform="translate(26.722312 301.99125) rotate(-90) scale(0.18 -0.18)">
      <defs>
       <path id="DejaVuSans-Bold-4c" d="M 588 4666 
L 1791 4666 
L 1791 909 
L 3903 909 
L 3903 0 
L 588 0 
L 588 4666 
z
" transform="scale(0.015625)"/>
       <path id="DejaVuSans-Bold-6f" d="M 2203 2784 
Q 1831 2784 1636 2517 
Q 1441 2250 1441 1747 
Q 1441 1244 1636 976 
Q 1831 709 2203 709 
Q 2569 709 2762 976 
Q 2956 1244 2956 1747 
Q 2956 2250 2762 2517 
Q 2569 2784 2203 2784 
z
M 2203 3584 
Q 3106 3584 3614 3096 
Q 4122 2609 4122 1747 
Q 4122 884 3614 396 
Q 3106 -91 2203 -91 
Q 1297 -91 786 396 
Q 275 884 275 1747 
Q 275 2609 786 3096 
Q 1297 3584 2203 3584 
z
" transform="scale(0.015625)"/>
       <path id="DejaVuSans-Bold-73" d="M 3272 3391 
L 3272 2541 
Q 2913 2691 2578 2766 
Q 2244 2841 1947 2841 
Q 1628 2841 1473 2761 
Q 1319 2681 1319 2516 
Q 1319 2381 1436 2309 
Q 1553 2238 1856 2203 
L 2053 2175 
Q 2913 2066 3209 1816 
Q 3506 1566 3506 1031 
Q 3506 472 3093 190 
Q 2681 -91 1863 -91 
Q 1516 -91 1145 -36 
Q 775 19 384 128 
L 384 978 
Q 719 816 1070 734 
Q 1422 653 1784 653 
Q 2113 653 2278 743 
Q 2444 834 2444 1013 
Q 2444 1163 2330 1236 
Q 2216 1309 1875 1350 
L 1678 1375 
Q 931 1469 631 1722 
Q 331 1975 331 2491 
Q 331 3047 712 3315 
Q 1094 3584 1881 3584 
Q 2191 3584 2531 3537 
Q 2872 3491 3272 3391 
z
" transform="scale(0.015625)"/>
       <path id="DejaVuSans-Bold-61" d="M 2106 1575 
Q 1756 1575 1579 1456 
Q 1403 1338 1403 1106 
Q 1403 894 1545 773 
Q 1688 653 1941 653 
Q 2256 653 2472 879 
Q 2688 1106 2688 1447 
L 2688 1575 
L 2106 1575 
z
M 3816 1997 
L 3816 0 
L 2688 0 
L 2688 519 
Q 2463 200 2181 54 
Q 1900 -91 1497 -91 
Q 953 -91 614 226 
Q 275 544 275 1050 
Q 275 1666 698 1953 
Q 1122 2241 2028 2241 
L 2688 2241 
L 2688 2328 
Q 2688 2594 2478 2717 
Q 2269 2841 1825 2841 
Q 1466 2841 1156 2769 
Q 847 2697 581 2553 
L 581 3406 
Q 941 3494 1303 3539 
Q 1666 3584 2028 3584 
Q 2975 3584 3395 3211 
Q 3816 2838 3816 1997 
z
" transform="scale(0.015625)"/>
       <path id="DejaVuSans-Bold-74" d="M 1759 4494 
L 1759 3500 
L 2913 3500 
L 2913 2700 
L 1759 2700 
L 1759 1216 
Q 1759 972 1856 886 
Q 1953 800 2241 800 
L 2816 800 
L 2816 0 
L 1856 0 
Q 1194 0 917 276 
Q 641 553 641 1216 
L 641 2700 
L 84 2700 
L 84 3500 
L 641 3500 
L 641 4494 
L 1759 4494 
z
" transform="scale(0.015625)"/>
       <path id="DejaVuSans-Bold-6e" d="M 4056 2131 
L 4056 0 
L 2931 0 
L 2931 347 
L 2931 1631 
Q 2931 2084 2911 2256 
Q 2891 2428 2841 2509 
Q 2775 2619 2662 2680 
Q 2550 2741 2406 2741 
Q 2056 2741 1856 2470 
Q 1656 2200 1656 1722 
L 1656 0 
L 538 0 
L 538 3500 
L 1656 3500 
L 1656 2988 
Q 1909 3294 2193 3439 
Q 2478 3584 2822 3584 
Q 3428 3584 3742 3212 
Q 4056 2841 4056 2131 
z
" transform="scale(0.015625)"/>
       <path id="DejaVuSans-Bold-4d" d="M 588 4666 
L 2119 4666 
L 3181 2169 
L 4250 4666 
L 5778 4666 
L 5778 0 
L 4641 0 
L 4641 3413 
L 3566 897 
L 2803 897 
L 1728 3413 
L 1728 0 
L 588 0 
L 588 4666 
z
" transform="scale(0.015625)"/>
      </defs>
      <use xlink:href="#DejaVuSans-Bold-4c"/>
      <use xlink:href="#DejaVuSans-Bold-6f" transform="translate(63.720703 0)"/>
      <use xlink:href="#DejaVuSans-Bold-73" transform="translate(132.421875 0)"/>
      <use xlink:href="#DejaVuSans-Bold-61" transform="translate(191.943359 0)"/>
      <use xlink:href="#DejaVuSans-Bold-72" transform="translate(259.423828 0)"/>
      <use xlink:href="#DejaVuSans-Bold-74" transform="translate(308.740234 0)"/>
      <use xlink:href="#DejaVuSans-Bold-61" transform="translate(356.542969 0)"/>
      <use xlink:href="#DejaVuSans-Bold-6e" transform="translate(424.023438 0)"/>
      <use xlink:href="#DejaVuSans-Bold-20" transform="translate(495.214844 0)"/>
      <use xlink:href="#DejaVuSans-Bold-5b" transform="translate(530.029297 0)"/>
      <use xlink:href="#DejaVuSans-Bold-6e" transform="translate(575.732422 0)"/>
      <use xlink:href="#DejaVuSans-Bold-4d" transform="translate(646.923828 0)"/>
      <use xlink:href="#DejaVuSans-Bold-5d" transform="translate(746.435547 0)"/>
     </g>
    </g>
   </g>
   <g id="LineCollection_1">
    <path clip-path="url(#p953ef0a9eb)" style="fill: none; stroke: #000000"/>
    <path d="M 98.536915 335.7 
L 98.536915 317.134889 
" clip-path="url(#p953ef0a9eb)" style="fill: none; stroke: #000000"/>
    <path d="M 104.455097 321.036356 
L 104.455097 235.993561 
" clip-path="url(#p953ef0a9eb)" style="fill: none; stroke: #000000"/>
    <path d="M 110.373278 297.078385 
L 110.373278 217.898708 
" clip-path="url(#p953ef0a9eb)" style="fill: none; stroke: #000000"/>
    <path d="M 116.29146 292.177626 
L 116.29146 208.115663 
" clip-path="url(#p953ef0a9eb)" style="fill: none; stroke: #000000"/>
    <path d="M 128.127824 290.201705 
L 128.127824 217.869316 
" clip-path="url(#p953ef0a9eb)" style="fill: none; stroke: #000000"/>
    <path d="M 139.964187 285.783798 
L 139.964187 235.931418 
" clip-path="url(#p953ef0a9eb)" style="fill: none; stroke: #000000"/>
    <path d="M 163.636915 289.162939 
L 163.636915 263.750539 
" clip-path="url(#p953ef0a9eb)" style="fill: none; stroke: #000000"/>
    <path d="M 187.309642 292.543756 
L 187.309642 263.219818 
" clip-path="url(#p953ef0a9eb)" style="fill: none; stroke: #000000"/>
    <path d="M 210.982369 275.396981 
L 210.982369 248.027961 
" clip-path="url(#p953ef0a9eb)" style="fill: none; stroke: #000000"/>
    <path d="M 234.655097 290.017806 
L 234.655097 269.489364 
" clip-path="url(#p953ef0a9eb)" style="fill: none; stroke: #000000"/>
    <path d="M 282.000551 309.975213 
L 282.000551 294.335774 
" clip-path="url(#p953ef0a9eb)" style="fill: none; stroke: #000000"/>
    <path d="M 329.346006 322.110385 
L 329.346006 311.359953 
" clip-path="url(#p953ef0a9eb)" style="fill: none; stroke: #000000"/>
    <path d="M 376.69146 325.449216 
L 376.69146 319.586109 
" clip-path="url(#p953ef0a9eb)" style="fill: none; stroke: #000000"/>
   </g>
   <g id="line2d_14">
    <path d="M 92.618733 333.800494 
L 93.328915 333.58041 
L 94.039097 332.257168 
L 94.749278 329.283176 
L 95.45946 324.52182 
L 96.169642 318.065371 
L 97.590006 300.952879 
L 99.010369 280.024299 
L 103.981642 202.699602 
L 105.402006 184.154899 
L 106.822369 168.199973 
L 108.242733 154.967655 
L 109.663097 144.433375 
L 111.08346 136.466797 
L 111.793642 133.386773 
L 112.503824 130.871682 
L 113.214006 128.891551 
L 113.924187 127.415523 
L 114.634369 126.41235 
L 115.344551 125.850802 
L 116.054733 125.7 
L 116.764915 125.929679 
L 117.475097 126.510395 
L 118.185278 127.41369 
L 118.89546 128.612203 
L 120.315824 131.791425 
L 121.736187 135.853735 
L 123.156551 140.625251 
L 125.287097 148.781411 
L 128.127824 160.862186 
L 139.490733 210.807335 
L 142.33146 221.960552 
L 145.172188 232.275793 
L 148.012915 241.718662 
L 150.853642 250.292098 
L 153.694369 258.02424 
L 156.535097 264.959424 
L 159.375824 271.151598 
L 162.216551 276.659573 
L 165.057278 281.543668 
L 167.898006 285.863399 
L 170.738733 289.675944 
L 173.57946 293.035177 
L 176.420187 295.991118 
L 179.260915 298.58967 
L 182.101642 300.872579 
L 184.942369 302.877521 
L 187.783097 304.638289 
L 191.334006 306.541488 
L 194.884915 308.161602 
L 198.435824 309.542854 
L 202.696915 310.937785 
L 206.958006 312.097387 
L 211.929278 313.211985 
L 217.610733 314.240204 
L 224.002369 315.16102 
L 231.814369 316.042669 
L 241.046733 316.850002 
L 253.119824 317.667126 
L 269.454006 318.533982 
L 294.310369 319.605804 
L 331.950006 320.988454 
L 380.952551 322.560118 
L 434.926369 324.065539 
L 447.709642 324.391427 
L 447.709642 324.391427 
" clip-path="url(#p953ef0a9eb)" style="fill: none; stroke: #000000; stroke-width: 2; stroke-linecap: square"/>
   </g>
   <g id="line2d_15">
    <path d="M 92.618733 333.800494 
L 98.536915 326.417444 
L 104.455097 278.514959 
L 110.373278 257.488546 
L 116.29146 250.146644 
L 128.127824 254.035511 
L 139.964187 260.857608 
L 163.636915 276.456739 
L 187.309642 277.881787 
L 210.982369 261.712471 
L 234.655097 279.753585 
L 282.000551 302.155494 
L 329.346006 316.735169 
L 376.69146 322.517663 
" clip-path="url(#p953ef0a9eb)" style="fill: none; stroke-dasharray: 3.7,1.6; stroke-dashoffset: 0; stroke: #000000"/>
    <defs>
     <path id="m58f51293cc" d="M -3 3 
L 3 3 
L 3 -3 
L -3 -3 
z
" style="stroke: #000000; stroke-linejoin: miter"/>
    </defs>
    <g clip-path="url(#p953ef0a9eb)">
     <use xlink:href="#m58f51293cc" x="92.618733" y="333.800494" style="stroke: #000000; stroke-linejoin: miter"/>
     <use xlink:href="#m58f51293cc" x="98.536915" y="326.417444" style="stroke: #000000; stroke-linejoin: miter"/>
     <use xlink:href="#m58f51293cc" x="104.455097" y="278.514959" style="stroke: #000000; stroke-linejoin: miter"/>
     <use xlink:href="#m58f51293cc" x="110.373278" y="257.488546" style="stroke: #000000; stroke-linejoin: miter"/>
     <use xlink:href="#m58f51293cc" x="116.29146" y="250.146644" style="stroke: #000000; stroke-linejoin: miter"/>
     <use xlink:href="#m58f51293cc" x="128.127824" y="254.035511" style="stroke: #000000; stroke-linejoin: miter"/>
     <use xlink:href="#m58f51293cc" x="139.964187" y="260.857608" style="stroke: #000000; stroke-linejoin: miter"/>
     <use xlink:href="#m58f51293cc" x="163.636915" y="276.456739" style="stroke: #000000; stroke-linejoin: miter"/>
     <use xlink:href="#m58f51293cc" x="187.309642" y="277.881787" style="stroke: #000000; stroke-linejoin: miter"/>
     <use xlink:href="#m58f51293cc" x="210.982369" y="261.712471" style="stroke: #000000; stroke-linejoin: miter"/>
     <use xlink:href="#m58f51293cc" x="234.655097" y="279.753585" style="stroke: #000000; stroke-linejoin: miter"/>
     <use xlink:href="#m58f51293cc" x="282.000551" y="302.155494" style="stroke: #000000; stroke-linejoin: miter"/>
     <use xlink:href="#m58f51293cc" x="329.346006" y="316.735169" style="stroke: #000000; stroke-linejoin: miter"/>
     <use xlink:href="#m58f51293cc" x="376.69146" y="322.517663" style="stroke: #000000; stroke-linejoin: miter"/>
    </g>
   </g>
   <g id="patch_3">
    <path d="M 74.864187 346.2 
L 74.864187 115.2 
" style="fill: none; stroke: #000000; stroke-width: 0.8; stroke-linejoin: miter; stroke-linecap: square"/>
   </g>
   <g id="patch_4">
    <path d="M 465.464187 346.2 
L 465.464187 115.2 
" style="fill: none; stroke: #000000; stroke-width: 0.8; stroke-linejoin: miter; stroke-linecap: square"/>
   </g>
   <g id="patch_5">
    <path d="M 74.864187 346.2 
L 465.464187 346.2 
" style="fill: none; stroke: #000000; stroke-width: 0.8; stroke-linejoin: miter; stroke-linecap: square"/>
   </g>
   <g id="patch_6">
    <path d="M 74.864187 115.2 
L 465.464187 115.2 
" style="fill: none; stroke: #000000; stroke-width: 0.8; stroke-linejoin: miter; stroke-linecap: square"/>
   </g>
   <g id="legend_1">
    <g id="patch_7">
     <path d="M 339.982938 152.55625 
L 458.464188 152.55625 
Q 460.464188 152.55625 460.464188 150.55625 
L 460.464188 122.2 
Q 460.464188 120.2 458.464188 120.2 
L 339.982938 120.2 
Q 337.982938 120.2 337.982938 122.2 
L 337.982938 150.55625 
Q 337.982938 152.55625 339.982938 152.55625 
z
" style="fill: #ffffff; opacity: 0.8; stroke: #cccccc; stroke-linejoin: miter"/>
    </g>
    <g id="line2d_16">
     <path d="M 341.982938 128.298438 
L 361.982938 128.298438 
" style="fill: none; stroke: #000000; stroke-width: 2; stroke-linecap: square"/>
    </g>
    <g id="line2d_17"/>
    <g id="text_16">
     <!-- Sim 2 mg -->
     <g transform="translate(369.982938 131.798438) scale(0.1 -0.1)">
      <defs>
       <path id="DejaVuSans-53" d="M 3425 4513 
L 3425 3897 
Q 3066 4069 2747 4153 
Q 2428 4238 2131 4238 
Q 1616 4238 1336 4038 
Q 1056 3838 1056 3469 
Q 1056 3159 1242 3001 
Q 1428 2844 1947 2747 
L 2328 2669 
Q 3034 2534 3370 2195 
Q 3706 1856 3706 1288 
Q 3706 609 3251 259 
Q 2797 -91 1919 -91 
Q 1588 -91 1214 -16 
Q 841 59 441 206 
L 441 856 
Q 825 641 1194 531 
Q 1563 422 1919 422 
Q 2459 422 2753 634 
Q 3047 847 3047 1241 
Q 3047 1584 2836 1778 
Q 2625 1972 2144 2069 
L 1759 2144 
Q 1053 2284 737 2584 
Q 422 2884 422 3419 
Q 422 4038 858 4394 
Q 1294 4750 2059 4750 
Q 2388 4750 2728 4690 
Q 3069 4631 3425 4513 
z
" transform="scale(0.015625)"/>
       <path id="DejaVuSans-69" d="M 603 3500 
L 1178 3500 
L 1178 0 
L 603 0 
L 603 3500 
z
M 603 4863 
L 1178 4863 
L 1178 4134 
L 603 4134 
L 603 4863 
z
" transform="scale(0.015625)"/>
       <path id="DejaVuSans-6d" d="M 3328 2828 
Q 3544 3216 3844 3400 
Q 4144 3584 4550 3584 
Q 5097 3584 5394 3201 
Q 5691 2819 5691 2113 
L 5691 0 
L 5113 0 
L 5113 2094 
Q 5113 2597 4934 2840 
Q 4756 3084 4391 3084 
Q 3944 3084 3684 2787 
Q 3425 2491 3425 1978 
L 3425 0 
L 2847 0 
L 2847 2094 
Q 2847 2600 2669 2842 
Q 2491 3084 2119 3084 
Q 1678 3084 1418 2786 
Q 1159 2488 1159 1978 
L 1159 0 
L 581 0 
L 581 3500 
L 1159 3500 
L 1159 2956 
Q 1356 3278 1631 3431 
Q 1906 3584 2284 3584 
Q 2666 3584 2933 3390 
Q 3200 3197 3328 2828 
z
" transform="scale(0.015625)"/>
       <path id="DejaVuSans-20" transform="scale(0.015625)"/>
       <path id="DejaVuSans-67" d="M 2906 1791 
Q 2906 2416 2648 2759 
Q 2391 3103 1925 3103 
Q 1463 3103 1205 2759 
Q 947 2416 947 1791 
Q 947 1169 1205 825 
Q 1463 481 1925 481 
Q 2391 481 2648 825 
Q 2906 1169 2906 1791 
z
M 3481 434 
Q 3481 -459 3084 -895 
Q 2688 -1331 1869 -1331 
Q 1566 -1331 1297 -1286 
Q 1028 -1241 775 -1147 
L 775 -588 
Q 1028 -725 1275 -790 
Q 1522 -856 1778 -856 
Q 2344 -856 2625 -561 
Q 2906 -266 2906 331 
L 2906 616 
Q 2728 306 2450 153 
Q 2172 0 1784 0 
Q 1141 0 747 490 
Q 353 981 353 1791 
Q 353 2603 747 3093 
Q 1141 3584 1784 3584 
Q 2172 3584 2450 3431 
Q 2728 3278 2906 2969 
L 2906 3500 
L 3481 3500 
L 3481 434 
z
" transform="scale(0.015625)"/>
      </defs>
      <use xlink:href="#DejaVuSans-53"/>
      <use xlink:href="#DejaVuSans-69" transform="translate(63.476562 0)"/>
      <use xlink:href="#DejaVuSans-6d" transform="translate(91.259766 0)"/>
      <use xlink:href="#DejaVuSans-20" transform="translate(188.671875 0)"/>
      <use xlink:href="#DejaVuSans-32" transform="translate(220.458984 0)"/>
      <use xlink:href="#DejaVuSans-20" transform="translate(284.082031 0)"/>
      <use xlink:href="#DejaVuSans-6d" transform="translate(315.869141 0)"/>
      <use xlink:href="#DejaVuSans-67" transform="translate(413.28125 0)"/>
     </g>
    </g>
    <g id="LineCollection_2">
     <path d="M 351.982938 147.976563 
L 351.982938 137.976563 
" style="fill: none; stroke: #000000"/>
    </g>
    <g id="line2d_18">
     <path d="M 341.982938 142.976563 
L 361.982938 142.976563 
" style="fill: none; stroke-dasharray: 3.7,1.6; stroke-dashoffset: 0; stroke: #000000"/>
    </g>
    <g id="line2d_19">
     <g>
      <use xlink:href="#m58f51293cc" x="351.982938" y="142.976563" style="stroke: #000000; stroke-linejoin: miter"/>
     </g>
    </g>
    <g id="text_17">
     <!-- 2 mg±SD (n=13) -->
     <g transform="translate(369.982938 146.476563) scale(0.1 -0.1)">
      <defs>
       <path id="DejaVuSans-b1" d="M 2944 4013 
L 2944 2803 
L 4684 2803 
L 4684 2272 
L 2944 2272 
L 2944 1063 
L 2419 1063 
L 2419 2272 
L 678 2272 
L 678 2803 
L 2419 2803 
L 2419 4013 
L 2944 4013 
z
M 678 531 
L 4684 531 
L 4684 0 
L 678 0 
L 678 531 
z
" transform="scale(0.015625)"/>
       <path id="DejaVuSans-44" d="M 1259 4147 
L 1259 519 
L 2022 519 
Q 2988 519 3436 956 
Q 3884 1394 3884 2338 
Q 3884 3275 3436 3711 
Q 2988 4147 2022 4147 
L 1259 4147 
z
M 628 4666 
L 1925 4666 
Q 3281 4666 3915 4102 
Q 4550 3538 4550 2338 
Q 4550 1131 3912 565 
Q 3275 0 1925 0 
L 628 0 
L 628 4666 
z
" transform="scale(0.015625)"/>
       <path id="DejaVuSans-28" d="M 1984 4856 
Q 1566 4138 1362 3434 
Q 1159 2731 1159 2009 
Q 1159 1288 1364 580 
Q 1569 -128 1984 -844 
L 1484 -844 
Q 1016 -109 783 600 
Q 550 1309 550 2009 
Q 550 2706 781 3412 
Q 1013 4119 1484 4856 
L 1984 4856 
z
" transform="scale(0.015625)"/>
       <path id="DejaVuSans-6e" d="M 3513 2113 
L 3513 0 
L 2938 0 
L 2938 2094 
Q 2938 2591 2744 2837 
Q 2550 3084 2163 3084 
Q 1697 3084 1428 2787 
Q 1159 2491 1159 1978 
L 1159 0 
L 581 0 
L 581 3500 
L 1159 3500 
L 1159 2956 
Q 1366 3272 1645 3428 
Q 1925 3584 2291 3584 
Q 2894 3584 3203 3211 
Q 3513 2838 3513 2113 
z
" transform="scale(0.015625)"/>
       <path id="DejaVuSans-3d" d="M 678 2906 
L 4684 2906 
L 4684 2381 
L 678 2381 
L 678 2906 
z
M 678 1631 
L 4684 1631 
L 4684 1100 
L 678 1100 
L 678 1631 
z
" transform="scale(0.015625)"/>
       <path id="DejaVuSans-33" d="M 2597 2516 
Q 3050 2419 3304 2112 
Q 3559 1806 3559 1356 
Q 3559 666 3084 287 
Q 2609 -91 1734 -91 
Q 1441 -91 1130 -33 
Q 819 25 488 141 
L 488 750 
Q 750 597 1062 519 
Q 1375 441 1716 441 
Q 2309 441 2620 675 
Q 2931 909 2931 1356 
Q 2931 1769 2642 2001 
Q 2353 2234 1838 2234 
L 1294 2234 
L 1294 2753 
L 1863 2753 
Q 2328 2753 2575 2939 
Q 2822 3125 2822 3475 
Q 2822 3834 2567 4026 
Q 2313 4219 1838 4219 
Q 1578 4219 1281 4162 
Q 984 4106 628 3988 
L 628 4550 
Q 988 4650 1302 4700 
Q 1616 4750 1894 4750 
Q 2613 4750 3031 4423 
Q 3450 4097 3450 3541 
Q 3450 3153 3228 2886 
Q 3006 2619 2597 2516 
z
" transform="scale(0.015625)"/>
       <path id="DejaVuSans-29" d="M 513 4856 
L 1013 4856 
Q 1481 4119 1714 3412 
Q 1947 2706 1947 2009 
Q 1947 1309 1714 600 
Q 1481 -109 1013 -844 
L 513 -844 
Q 928 -128 1133 580 
Q 1338 1288 1338 2009 
Q 1338 2731 1133 3434 
Q 928 4138 513 4856 
z
" transform="scale(0.015625)"/>
      </defs>
      <use xlink:href="#DejaVuSans-32"/>
      <use xlink:href="#DejaVuSans-20" transform="translate(63.623047 0)"/>
      <use xlink:href="#DejaVuSans-6d" transform="translate(95.410156 0)"/>
      <use xlink:href="#DejaVuSans-67" transform="translate(192.822266 0)"/>
      <use xlink:href="#DejaVuSans-b1" transform="translate(256.298828 0)"/>
      <use xlink:href="#DejaVuSans-53" transform="translate(340.087891 0)"/>
      <use xlink:href="#DejaVuSans-44" transform="translate(403.564453 0)"/>
      <use xlink:href="#DejaVuSans-20" transform="translate(480.566406 0)"/>
      <use xlink:href="#DejaVuSans-28" transform="translate(512.353516 0)"/>
      <use xlink:href="#DejaVuSans-6e" transform="translate(551.367188 0)"/>
      <use xlink:href="#DejaVuSans-3d" transform="translate(614.746094 0)"/>
      <use xlink:href="#DejaVuSans-31" transform="translate(698.535156 0)"/>
      <use xlink:href="#DejaVuSans-33" transform="translate(762.158203 0)"/>
      <use xlink:href="#DejaVuSans-29" transform="translate(825.78125 0)"/>
     </g>
    </g>
   </g>
  </g>
  <g id="axes_2">
   <g id="patch_8">
    <path d="M 74.864187 646.5 
L 465.464187 646.5 
L 465.464187 415.5 
L 74.864187 415.5 
z
" style="fill: #ffffff"/>
   </g>
   <g id="matplotlib.axis_3">
    <g id="xtick_8">
     <g id="line2d_20">
      <g>
       <use xlink:href="#m13f79a7bcc" x="92.618733" y="646.5" style="stroke: #000000; stroke-width: 0.8"/>
      </g>
     </g>
     <g id="text_18">
      <!-- 0.0 -->
      <g transform="translate(80.691389 664.897656) scale(0.15 -0.15)">
       <use xlink:href="#DejaVuSans-30"/>
       <use xlink:href="#DejaVuSans-2e" transform="translate(63.623047 0)"/>
       <use xlink:href="#DejaVuSans-30" transform="translate(95.410156 0)"/>
      </g>
     </g>
    </g>
    <g id="xtick_9">
     <g id="line2d_21">
      <g>
       <use xlink:href="#m13f79a7bcc" x="151.800551" y="646.5" style="stroke: #000000; stroke-width: 0.8"/>
      </g>
     </g>
     <g id="text_19">
      <!-- 2.5 -->
      <g transform="translate(139.873207 664.897656) scale(0.15 -0.15)">
       <use xlink:href="#DejaVuSans-32"/>
       <use xlink:href="#DejaVuSans-2e" transform="translate(63.623047 0)"/>
       <use xlink:href="#DejaVuSans-35" transform="translate(95.410156 0)"/>
      </g>
     </g>
    </g>
    <g id="xtick_10">
     <g id="line2d_22">
      <g>
       <use xlink:href="#m13f79a7bcc" x="210.982369" y="646.5" style="stroke: #000000; stroke-width: 0.8"/>
      </g>
     </g>
     <g id="text_20">
      <!-- 5.0 -->
      <g transform="translate(199.055026 664.897656) scale(0.15 -0.15)">
       <use xlink:href="#DejaVuSans-35"/>
       <use xlink:href="#DejaVuSans-2e" transform="translate(63.623047 0)"/>
       <use xlink:href="#DejaVuSans-30" transform="translate(95.410156 0)"/>
      </g>
     </g>
    </g>
    <g id="xtick_11">
     <g id="line2d_23">
      <g>
       <use xlink:href="#m13f79a7bcc" x="270.164188" y="646.5" style="stroke: #000000; stroke-width: 0.8"/>
      </g>
     </g>
     <g id="text_21">
      <!-- 7.5 -->
      <g transform="translate(258.236844 664.897656) scale(0.15 -0.15)">
       <use xlink:href="#DejaVuSans-37"/>
       <use xlink:href="#DejaVuSans-2e" transform="translate(63.623047 0)"/>
       <use xlink:href="#DejaVuSans-35" transform="translate(95.410156 0)"/>
      </g>
     </g>
    </g>
    <g id="xtick_12">
     <g id="line2d_24">
      <g>
       <use xlink:href="#m13f79a7bcc" x="329.346006" y="646.5" style="stroke: #000000; stroke-width: 0.8"/>
      </g>
     </g>
     <g id="text_22">
      <!-- 10.0 -->
      <g transform="translate(312.646787 664.897656) scale(0.15 -0.15)">
       <use xlink:href="#DejaVuSans-31"/>
       <use xlink:href="#DejaVuSans-30" transform="translate(63.623047 0)"/>
       <use xlink:href="#DejaVuSans-2e" transform="translate(127.246094 0)"/>
       <use xlink:href="#DejaVuSans-30" transform="translate(159.033203 0)"/>
      </g>
     </g>
    </g>
    <g id="xtick_13">
     <g id="line2d_25">
      <g>
       <use xlink:href="#m13f79a7bcc" x="388.527824" y="646.5" style="stroke: #000000; stroke-width: 0.8"/>
      </g>
     </g>
     <g id="text_23">
      <!-- 12.5 -->
      <g transform="translate(371.828605 664.897656) scale(0.15 -0.15)">
       <use xlink:href="#DejaVuSans-31"/>
       <use xlink:href="#DejaVuSans-32" transform="translate(63.623047 0)"/>
       <use xlink:href="#DejaVuSans-2e" transform="translate(127.246094 0)"/>
       <use xlink:href="#DejaVuSans-35" transform="translate(159.033203 0)"/>
      </g>
     </g>
    </g>
    <g id="xtick_14">
     <g id="line2d_26">
      <g>
       <use xlink:href="#m13f79a7bcc" x="447.709642" y="646.5" style="stroke: #000000; stroke-width: 0.8"/>
      </g>
     </g>
     <g id="text_24">
      <!-- 15.0 -->
      <g transform="translate(431.010423 664.897656) scale(0.15 -0.15)">
       <use xlink:href="#DejaVuSans-31"/>
       <use xlink:href="#DejaVuSans-35" transform="translate(63.623047 0)"/>
       <use xlink:href="#DejaVuSans-2e" transform="translate(127.246094 0)"/>
       <use xlink:href="#DejaVuSans-30" transform="translate(159.033203 0)"/>
      </g>
     </g>
    </g>
    <g id="text_25">
     <!-- Time [hr] -->
     <g transform="translate(223.251688 685.694375) scale(0.18 -0.18)">
      <use xlink:href="#DejaVuSans-Bold-54"/>
      <use xlink:href="#DejaVuSans-Bold-69" transform="translate(68.212891 0)"/>
      <use xlink:href="#DejaVuSans-Bold-6d" transform="translate(102.490234 0)"/>
      <use xlink:href="#DejaVuSans-Bold-65" transform="translate(206.689453 0)"/>
      <use xlink:href="#DejaVuSans-Bold-20" transform="translate(274.511719 0)"/>
      <use xlink:href="#DejaVuSans-Bold-5b" transform="translate(309.326172 0)"/>
      <use xlink:href="#DejaVuSans-Bold-68" transform="translate(355.029297 0)"/>
      <use xlink:href="#DejaVuSans-Bold-72" transform="translate(426.220703 0)"/>
      <use xlink:href="#DejaVuSans-Bold-5d" transform="translate(475.537109 0)"/>
     </g>
    </g>
   </g>
   <g id="matplotlib.axis_4">
    <g id="ytick_7">
     <g id="line2d_27">
      <g>
       <use xlink:href="#m7f36508408" x="74.864187" y="632.103749" style="stroke: #000000; stroke-width: 0.8"/>
      </g>
     </g>
     <g id="text_26">
      <!-- 0 -->
      <g transform="translate(58.320437 637.802577) scale(0.15 -0.15)">
       <use xlink:href="#DejaVuSans-30"/>
      </g>
     </g>
    </g>
    <g id="ytick_8">
     <g id="line2d_28">
      <g>
       <use xlink:href="#m7f36508408" x="74.864187" y="578.825394" style="stroke: #000000; stroke-width: 0.8"/>
      </g>
     </g>
     <g id="text_27">
      <!-- 5 -->
      <g transform="translate(58.320437 584.524222) scale(0.15 -0.15)">
       <use xlink:href="#DejaVuSans-35"/>
      </g>
     </g>
    </g>
    <g id="ytick_9">
     <g id="line2d_29">
      <g>
       <use xlink:href="#m7f36508408" x="74.864187" y="525.54704" style="stroke: #000000; stroke-width: 0.8"/>
      </g>
     </g>
     <g id="text_28">
      <!-- 10 -->
      <g transform="translate(48.776687 531.245868) scale(0.15 -0.15)">
       <use xlink:href="#DejaVuSans-31"/>
       <use xlink:href="#DejaVuSans-30" transform="translate(63.623047 0)"/>
      </g>
     </g>
    </g>
    <g id="ytick_10">
     <g id="line2d_30">
      <g>
       <use xlink:href="#m7f36508408" x="74.864187" y="472.268685" style="stroke: #000000; stroke-width: 0.8"/>
      </g>
     </g>
     <g id="text_29">
      <!-- 15 -->
      <g transform="translate(48.776687 477.967513) scale(0.15 -0.15)">
       <use xlink:href="#DejaVuSans-31"/>
       <use xlink:href="#DejaVuSans-35" transform="translate(63.623047 0)"/>
      </g>
     </g>
    </g>
    <g id="ytick_11">
     <g id="line2d_31">
      <g>
       <use xlink:href="#m7f36508408" x="74.864187" y="418.99033" style="stroke: #000000; stroke-width: 0.8"/>
      </g>
     </g>
     <g id="text_30">
      <!-- 20 -->
      <g transform="translate(48.776687 424.689158) scale(0.15 -0.15)">
       <use xlink:href="#DejaVuSans-32"/>
       <use xlink:href="#DejaVuSans-30" transform="translate(63.623047 0)"/>
      </g>
     </g>
    </g>
    <g id="text_31">
     <!-- E3174 [nM] -->
     <g transform="translate(41.03325 588.919219) rotate(-90) scale(0.18 -0.18)">
      <defs>
       <path id="DejaVuSans-Bold-45" d="M 588 4666 
L 3834 4666 
L 3834 3756 
L 1791 3756 
L 1791 2888 
L 3713 2888 
L 3713 1978 
L 1791 1978 
L 1791 909 
L 3903 909 
L 3903 0 
L 588 0 
L 588 4666 
z
" transform="scale(0.015625)"/>
       <path id="DejaVuSans-Bold-33" d="M 2981 2516 
Q 3453 2394 3698 2092 
Q 3944 1791 3944 1325 
Q 3944 631 3412 270 
Q 2881 -91 1863 -91 
Q 1503 -91 1142 -33 
Q 781 25 428 141 
L 428 1069 
Q 766 900 1098 814 
Q 1431 728 1753 728 
Q 2231 728 2486 893 
Q 2741 1059 2741 1369 
Q 2741 1688 2480 1852 
Q 2219 2016 1709 2016 
L 1228 2016 
L 1228 2791 
L 1734 2791 
Q 2188 2791 2409 2933 
Q 2631 3075 2631 3366 
Q 2631 3634 2415 3781 
Q 2200 3928 1806 3928 
Q 1516 3928 1219 3862 
Q 922 3797 628 3669 
L 628 4550 
Q 984 4650 1334 4700 
Q 1684 4750 2022 4750 
Q 2931 4750 3382 4451 
Q 3834 4153 3834 3553 
Q 3834 3144 3618 2883 
Q 3403 2622 2981 2516 
z
" transform="scale(0.015625)"/>
       <path id="DejaVuSans-Bold-31" d="M 750 831 
L 1813 831 
L 1813 3847 
L 722 3622 
L 722 4441 
L 1806 4666 
L 2950 4666 
L 2950 831 
L 4013 831 
L 4013 0 
L 750 0 
L 750 831 
z
" transform="scale(0.015625)"/>
       <path id="DejaVuSans-Bold-37" d="M 428 4666 
L 3944 4666 
L 3944 3988 
L 2125 0 
L 953 0 
L 2675 3781 
L 428 3781 
L 428 4666 
z
" transform="scale(0.015625)"/>
       <path id="DejaVuSans-Bold-34" d="M 2356 3675 
L 1038 1722 
L 2356 1722 
L 2356 3675 
z
M 2156 4666 
L 3494 4666 
L 3494 1722 
L 4159 1722 
L 4159 850 
L 3494 850 
L 3494 0 
L 2356 0 
L 2356 850 
L 288 850 
L 288 1881 
L 2156 4666 
z
" transform="scale(0.015625)"/>
      </defs>
      <use xlink:href="#DejaVuSans-Bold-45"/>
      <use xlink:href="#DejaVuSans-Bold-33" transform="translate(68.310547 0)"/>
      <use xlink:href="#DejaVuSans-Bold-31" transform="translate(137.890625 0)"/>
      <use xlink:href="#DejaVuSans-Bold-37" transform="translate(207.470703 0)"/>
      <use xlink:href="#DejaVuSans-Bold-34" transform="translate(277.050781 0)"/>
      <use xlink:href="#DejaVuSans-Bold-20" transform="translate(346.630859 0)"/>
      <use xlink:href="#DejaVuSans-Bold-5b" transform="translate(381.445312 0)"/>
      <use xlink:href="#DejaVuSans-Bold-6e" transform="translate(427.148438 0)"/>
      <use xlink:href="#DejaVuSans-Bold-4d" transform="translate(498.339844 0)"/>
      <use xlink:href="#DejaVuSans-Bold-5d" transform="translate(597.851562 0)"/>
     </g>
    </g>
   </g>
   <g id="LineCollection_3">
    <path clip-path="url(#p1195b353f4)" style="fill: none; stroke: #000000"/>
    <path d="M 98.536915 634.367688 
L 98.536915 627.808012 
" clip-path="url(#p1195b353f4)" style="fill: none; stroke: #000000"/>
    <path d="M 104.455097 636 
L 104.455097 627.47276 
" clip-path="url(#p1195b353f4)" style="fill: none; stroke: #000000"/>
    <path d="M 110.373278 633.040201 
L 110.373278 627.794489 
" clip-path="url(#p1195b353f4)" style="fill: none; stroke: #000000"/>
    <path d="M 116.29146 632.051348 
L 116.29146 624.834691 
" clip-path="url(#p1195b353f4)" style="fill: none; stroke: #000000"/>
    <path d="M 128.127824 625.806641 
L 128.127824 612.031434 
" clip-path="url(#p1195b353f4)" style="fill: none; stroke: #000000"/>
    <path d="M 139.964187 618.248534 
L 139.964187 594.638885 
" clip-path="url(#p1195b353f4)" style="fill: none; stroke: #000000"/>
    <path d="M 163.636915 596.251475 
L 163.636915 552.308075 
" clip-path="url(#p1195b353f4)" style="fill: none; stroke: #000000"/>
    <path d="M 187.309642 574.580662 
L 187.309642 491.941816 
" clip-path="url(#p1195b353f4)" style="fill: none; stroke: #000000"/>
    <path d="M 210.982369 544.384837 
L 210.982369 453.874632 
" clip-path="url(#p1195b353f4)" style="fill: none; stroke: #000000"/>
    <path d="M 234.655097 543.701403 
L 234.655097 449.913017 
" clip-path="url(#p1195b353f4)" style="fill: none; stroke: #000000"/>
    <path d="M 282.000551 528.560946 
L 282.000551 447.890804 
" clip-path="url(#p1195b353f4)" style="fill: none; stroke: #000000"/>
    <path d="M 329.346006 532.114623 
L 329.346006 478.988118 
" clip-path="url(#p1195b353f4)" style="fill: none; stroke: #000000"/>
    <path d="M 376.69146 562.556668 
L 376.69146 501.561019 
" clip-path="url(#p1195b353f4)" style="fill: none; stroke: #000000"/>
   </g>
   <g id="line2d_32">
    <path d="M 92.618733 632.103749 
L 95.45946 632.044129 
L 96.879824 631.794945 
L 97.590006 631.540605 
L 98.300187 631.167879 
L 99.010369 630.654258 
L 99.720551 629.97938 
L 100.430733 629.125572 
L 101.140915 628.078187 
L 102.561278 625.360052 
L 103.981642 621.771263 
L 105.402006 617.305218 
L 106.822369 611.995269 
L 108.242733 605.906056 
L 110.373278 595.505956 
L 112.503824 583.900157 
L 115.344551 567.194171 
L 123.866733 516.023636 
L 126.70746 500.536654 
L 129.548187 486.423674 
L 131.678733 476.84326 
L 133.809278 468.164049 
L 135.939824 460.396092 
L 138.070369 453.530546 
L 140.200915 447.544028 
L 142.33146 442.402342 
L 144.462006 438.063586 
L 145.882369 435.594064 
L 147.302733 433.445774 
L 148.723097 431.603558 
L 150.14346 430.052069 
L 151.563824 428.77593 
L 152.984187 427.759864 
L 154.404551 426.988807 
L 155.824915 426.447998 
L 157.245278 426.123048 
L 158.665642 426 
L 160.086006 426.065368 
L 161.506369 426.306172 
L 162.926733 426.70996 
L 165.057278 427.595331 
L 167.187824 428.782863 
L 169.318369 430.237443 
L 171.448915 431.926688 
L 174.289642 434.493006 
L 177.130369 437.360356 
L 180.681278 441.28305 
L 184.942369 446.363822 
L 190.623824 453.554908 
L 199.856188 465.691157 
L 210.508915 479.611742 
L 217.610733 488.544201 
L 224.002369 496.243452 
L 230.394006 503.579086 
L 236.07546 509.778603 
L 241.756915 515.671569 
L 247.438369 521.260191 
L 253.119824 526.550959 
L 258.801278 531.553239 
L 264.482733 536.278252 
L 270.164188 540.738323 
L 276.555824 545.455267 
L 282.94746 549.871796 
L 289.339097 554.006306 
L 295.730733 557.876691 
L 302.122369 561.500136 
L 309.224188 565.25644 
L 316.326006 568.749233 
L 323.427824 571.998309 
L 331.239824 575.312756 
L 339.051824 578.377266 
L 346.863824 581.212692 
L 355.386006 584.067051 
L 363.908188 586.694187 
L 373.140551 589.307659 
L 383.083097 591.877991 
L 393.025642 594.220889 
L 403.678369 596.505526 
L 415.041278 598.713542 
L 427.114369 600.830732 
L 439.897642 602.84688 
L 447.709642 603.977373 
L 447.709642 603.977373 
" clip-path="url(#p1195b353f4)" style="fill: none; stroke: #000000; stroke-width: 2; stroke-linecap: square"/>
   </g>
   <g id="line2d_33">
    <path d="M 92.618733 632.103749 
L 98.536915 631.08785 
L 104.455097 631.73638 
L 110.373278 630.417345 
L 116.29146 628.44302 
L 128.127824 618.919038 
L 139.964187 606.443709 
L 163.636915 574.279775 
L 187.309642 533.261239 
L 210.982369 499.129734 
L 234.655097 496.80721 
L 282.000551 488.225875 
L 329.346006 505.55137 
L 376.69146 532.058844 
" clip-path="url(#p1195b353f4)" style="fill: none; stroke-dasharray: 3.7,1.6; stroke-dashoffset: 0; stroke: #000000"/>
    <g clip-path="url(#p1195b353f4)">
     <use xlink:href="#m58f51293cc" x="92.618733" y="632.103749" style="stroke: #000000; stroke-linejoin: miter"/>
     <use xlink:href="#m58f51293cc" x="98.536915" y="631.08785" style="stroke: #000000; stroke-linejoin: miter"/>
     <use xlink:href="#m58f51293cc" x="104.455097" y="631.73638" style="stroke: #000000; stroke-linejoin: miter"/>
     <use xlink:href="#m58f51293cc" x="110.373278" y="630.417345" style="stroke: #000000; stroke-linejoin: miter"/>
     <use xlink:href="#m58f51293cc" x="116.29146" y="628.44302" style="stroke: #000000; stroke-linejoin: miter"/>
     <use xlink:href="#m58f51293cc" x="128.127824" y="618.919038" style="stroke: #000000; stroke-linejoin: miter"/>
     <use xlink:href="#m58f51293cc" x="139.964187" y="606.443709" style="stroke: #000000; stroke-linejoin: miter"/>
     <use xlink:href="#m58f51293cc" x="163.636915" y="574.279775" style="stroke: #000000; stroke-linejoin: miter"/>
     <use xlink:href="#m58f51293cc" x="187.309642" y="533.261239" style="stroke: #000000; stroke-linejoin: miter"/>
     <use xlink:href="#m58f51293cc" x="210.982369" y="499.129734" style="stroke: #000000; stroke-linejoin: miter"/>
     <use xlink:href="#m58f51293cc" x="234.655097" y="496.80721" style="stroke: #000000; stroke-linejoin: miter"/>
     <use xlink:href="#m58f51293cc" x="282.000551" y="488.225875" style="stroke: #000000; stroke-linejoin: miter"/>
     <use xlink:href="#m58f51293cc" x="329.346006" y="505.55137" style="stroke: #000000; stroke-linejoin: miter"/>
     <use xlink:href="#m58f51293cc" x="376.69146" y="532.058844" style="stroke: #000000; stroke-linejoin: miter"/>
    </g>
   </g>
   <g id="patch_9">
    <path d="M 74.864187 646.5 
L 74.864187 415.5 
" style="fill: none; stroke: #000000; stroke-width: 0.8; stroke-linejoin: miter; stroke-linecap: square"/>
   </g>
   <g id="patch_10">
    <path d="M 465.464187 646.5 
L 465.464187 415.5 
" style="fill: none; stroke: #000000; stroke-width: 0.8; stroke-linejoin: miter; stroke-linecap: square"/>
   </g>
   <g id="patch_11">
    <path d="M 74.864187 646.5 
L 465.464187 646.5 
" style="fill: none; stroke: #000000; stroke-width: 0.8; stroke-linejoin: miter; stroke-linecap: square"/>
   </g>
   <g id="patch_12">
    <path d="M 74.864187 415.5 
L 465.464187 415.5 
" style="fill: none; stroke: #000000; stroke-width: 0.8; stroke-linejoin: miter; stroke-linecap: square"/>
   </g>
   <g id="legend_2">
    <g id="patch_13">
     <path d="M 339.982938 452.85625 
L 458.464188 452.85625 
Q 460.464188 452.85625 460.464188 450.85625 
L 460.464188 422.5 
Q 460.464188 420.5 458.464188 420.5 
L 339.982938 420.5 
Q 337.982938 420.5 337.982938 422.5 
L 337.982938 450.85625 
Q 337.982938 452.85625 339.982938 452.85625 
z
" style="fill: #ffffff; opacity: 0.8; stroke: #cccccc; stroke-linejoin: miter"/>
    </g>
    <g id="line2d_34">
     <path d="M 341.982938 428.598438 
L 361.982938 428.598438 
" style="fill: none; stroke: #000000; stroke-width: 2; stroke-linecap: square"/>
    </g>
    <g id="line2d_35"/>
    <g id="text_32">
     <!-- Sim 2 mg -->
     <g transform="translate(369.982938 432.098438) scale(0.1 -0.1)">
      <use xlink:href="#DejaVuSans-53"/>
      <use xlink:href="#DejaVuSans-69" transform="translate(63.476562 0)"/>
      <use xlink:href="#DejaVuSans-6d" transform="translate(91.259766 0)"/>
      <use xlink:href="#DejaVuSans-20" transform="translate(188.671875 0)"/>
      <use xlink:href="#DejaVuSans-32" transform="translate(220.458984 0)"/>
      <use xlink:href="#DejaVuSans-20" transform="translate(284.082031 0)"/>
      <use xlink:href="#DejaVuSans-6d" transform="translate(315.869141 0)"/>
      <use xlink:href="#DejaVuSans-67" transform="translate(413.28125 0)"/>
     </g>
    </g>
    <g id="LineCollection_4">
     <path d="M 351.982938 448.276563 
L 351.982938 438.276563 
" style="fill: none; stroke: #000000"/>
    </g>
    <g id="line2d_36">
     <path d="M 341.982938 443.276563 
L 361.982938 443.276563 
" style="fill: none; stroke-dasharray: 3.7,1.6; stroke-dashoffset: 0; stroke: #000000"/>
    </g>
    <g id="line2d_37">
     <g>
      <use xlink:href="#m58f51293cc" x="351.982938" y="443.276563" style="stroke: #000000; stroke-linejoin: miter"/>
     </g>
    </g>
    <g id="text_33">
     <!-- 2 mg±SD (n=13) -->
     <g transform="translate(369.982938 446.776563) scale(0.1 -0.1)">
      <use xlink:href="#DejaVuSans-32"/>
      <use xlink:href="#DejaVuSans-20" transform="translate(63.623047 0)"/>
      <use xlink:href="#DejaVuSans-6d" transform="translate(95.410156 0)"/>
      <use xlink:href="#DejaVuSans-67" transform="translate(192.822266 0)"/>
      <use xlink:href="#DejaVuSans-b1" transform="translate(256.298828 0)"/>
      <use xlink:href="#DejaVuSans-53" transform="translate(340.087891 0)"/>
      <use xlink:href="#DejaVuSans-44" transform="translate(403.564453 0)"/>
      <use xlink:href="#DejaVuSans-20" transform="translate(480.566406 0)"/>
      <use xlink:href="#DejaVuSans-28" transform="translate(512.353516 0)"/>
      <use xlink:href="#DejaVuSans-6e" transform="translate(551.367188 0)"/>
      <use xlink:href="#DejaVuSans-3d" transform="translate(614.746094 0)"/>
      <use xlink:href="#DejaVuSans-31" transform="translate(698.535156 0)"/>
      <use xlink:href="#DejaVuSans-33" transform="translate(762.158203 0)"/>
      <use xlink:href="#DejaVuSans-29" transform="translate(825.78125 0)"/>
     </g>
    </g>
   </g>
  </g>
  <g id="axes_3">
   <g id="patch_14">
    <path d="M 74.864187 946.8 
L 465.464187 946.8 
L 465.464187 715.8 
L 74.864187 715.8 
z
" style="fill: #ffffff"/>
   </g>
   <g id="matplotlib.axis_5">
    <g id="xtick_15">
     <g id="line2d_38">
      <g>
       <use xlink:href="#m13f79a7bcc" x="92.618733" y="946.8" style="stroke: #000000; stroke-width: 0.8"/>
      </g>
     </g>
     <g id="text_34">
      <!-- 0.0 -->
      <g transform="translate(80.691389 965.197656) scale(0.15 -0.15)">
       <use xlink:href="#DejaVuSans-30"/>
       <use xlink:href="#DejaVuSans-2e" transform="translate(63.623047 0)"/>
       <use xlink:href="#DejaVuSans-30" transform="translate(95.410156 0)"/>
      </g>
     </g>
    </g>
    <g id="xtick_16">
     <g id="line2d_39">
      <g>
       <use xlink:href="#m13f79a7bcc" x="151.800551" y="946.8" style="stroke: #000000; stroke-width: 0.8"/>
      </g>
     </g>
     <g id="text_35">
      <!-- 2.5 -->
      <g transform="translate(139.873207 965.197656) scale(0.15 -0.15)">
       <use xlink:href="#DejaVuSans-32"/>
       <use xlink:href="#DejaVuSans-2e" transform="translate(63.623047 0)"/>
       <use xlink:href="#DejaVuSans-35" transform="translate(95.410156 0)"/>
      </g>
     </g>
    </g>
    <g id="xtick_17">
     <g id="line2d_40">
      <g>
       <use xlink:href="#m13f79a7bcc" x="210.982369" y="946.8" style="stroke: #000000; stroke-width: 0.8"/>
      </g>
     </g>
     <g id="text_36">
      <!-- 5.0 -->
      <g transform="translate(199.055026 965.197656) scale(0.15 -0.15)">
       <use xlink:href="#DejaVuSans-35"/>
       <use xlink:href="#DejaVuSans-2e" transform="translate(63.623047 0)"/>
       <use xlink:href="#DejaVuSans-30" transform="translate(95.410156 0)"/>
      </g>
     </g>
    </g>
    <g id="xtick_18">
     <g id="line2d_41">
      <g>
       <use xlink:href="#m13f79a7bcc" x="270.164188" y="946.8" style="stroke: #000000; stroke-width: 0.8"/>
      </g>
     </g>
     <g id="text_37">
      <!-- 7.5 -->
      <g transform="translate(258.236844 965.197656) scale(0.15 -0.15)">
       <use xlink:href="#DejaVuSans-37"/>
       <use xlink:href="#DejaVuSans-2e" transform="translate(63.623047 0)"/>
       <use xlink:href="#DejaVuSans-35" transform="translate(95.410156 0)"/>
      </g>
     </g>
    </g>
    <g id="xtick_19">
     <g id="line2d_42">
      <g>
       <use xlink:href="#m13f79a7bcc" x="329.346006" y="946.8" style="stroke: #000000; stroke-width: 0.8"/>
      </g>
     </g>
     <g id="text_38">
      <!-- 10.0 -->
      <g transform="translate(312.646787 965.197656) scale(0.15 -0.15)">
       <use xlink:href="#DejaVuSans-31"/>
       <use xlink:href="#DejaVuSans-30" transform="translate(63.623047 0)"/>
       <use xlink:href="#DejaVuSans-2e" transform="translate(127.246094 0)"/>
       <use xlink:href="#DejaVuSans-30" transform="translate(159.033203 0)"/>
      </g>
     </g>
    </g>
    <g id="xtick_20">
     <g id="line2d_43">
      <g>
       <use xlink:href="#m13f79a7bcc" x="388.527824" y="946.8" style="stroke: #000000; stroke-width: 0.8"/>
      </g>
     </g>
     <g id="text_39">
      <!-- 12.5 -->
      <g transform="translate(371.828605 965.197656) scale(0.15 -0.15)">
       <use xlink:href="#DejaVuSans-31"/>
       <use xlink:href="#DejaVuSans-32" transform="translate(63.623047 0)"/>
       <use xlink:href="#DejaVuSans-2e" transform="translate(127.246094 0)"/>
       <use xlink:href="#DejaVuSans-35" transform="translate(159.033203 0)"/>
      </g>
     </g>
    </g>
    <g id="xtick_21">
     <g id="line2d_44">
      <g>
       <use xlink:href="#m13f79a7bcc" x="447.709642" y="946.8" style="stroke: #000000; stroke-width: 0.8"/>
      </g>
     </g>
     <g id="text_40">
      <!-- 15.0 -->
      <g transform="translate(431.010423 965.197656) scale(0.15 -0.15)">
       <use xlink:href="#DejaVuSans-31"/>
       <use xlink:href="#DejaVuSans-35" transform="translate(63.623047 0)"/>
       <use xlink:href="#DejaVuSans-2e" transform="translate(127.246094 0)"/>
       <use xlink:href="#DejaVuSans-30" transform="translate(159.033203 0)"/>
      </g>
     </g>
    </g>
    <g id="text_41">
     <!-- Time [hr] -->
     <g transform="translate(223.251688 985.994375) scale(0.18 -0.18)">
      <use xlink:href="#DejaVuSans-Bold-54"/>
      <use xlink:href="#DejaVuSans-Bold-69" transform="translate(68.212891 0)"/>
      <use xlink:href="#DejaVuSans-Bold-6d" transform="translate(102.490234 0)"/>
      <use xlink:href="#DejaVuSans-Bold-65" transform="translate(206.689453 0)"/>
      <use xlink:href="#DejaVuSans-Bold-20" transform="translate(274.511719 0)"/>
      <use xlink:href="#DejaVuSans-Bold-5b" transform="translate(309.326172 0)"/>
      <use xlink:href="#DejaVuSans-Bold-68" transform="translate(355.029297 0)"/>
      <use xlink:href="#DejaVuSans-Bold-72" transform="translate(426.220703 0)"/>
      <use xlink:href="#DejaVuSans-Bold-5d" transform="translate(475.537109 0)"/>
     </g>
    </g>
   </g>
   <g id="matplotlib.axis_6">
    <g id="ytick_12">
     <g id="line2d_45">
      <g>
       <use xlink:href="#m7f36508408" x="74.864187" y="930.717618" style="stroke: #000000; stroke-width: 0.8"/>
      </g>
     </g>
     <g id="text_42">
      <!-- 0 -->
      <g transform="translate(58.320437 936.416446) scale(0.15 -0.15)">
       <use xlink:href="#DejaVuSans-30"/>
      </g>
     </g>
    </g>
    <g id="ytick_13">
     <g id="line2d_46">
      <g>
       <use xlink:href="#m7f36508408" x="74.864187" y="875.494516" style="stroke: #000000; stroke-width: 0.8"/>
      </g>
     </g>
     <g id="text_43">
      <!-- 5 -->
      <g transform="translate(58.320437 881.193344) scale(0.15 -0.15)">
       <use xlink:href="#DejaVuSans-35"/>
      </g>
     </g>
    </g>
    <g id="ytick_14">
     <g id="line2d_47">
      <g>
       <use xlink:href="#m7f36508408" x="74.864187" y="820.271414" style="stroke: #000000; stroke-width: 0.8"/>
      </g>
     </g>
     <g id="text_44">
      <!-- 10 -->
      <g transform="translate(48.776687 825.970242) scale(0.15 -0.15)">
       <use xlink:href="#DejaVuSans-31"/>
       <use xlink:href="#DejaVuSans-30" transform="translate(63.623047 0)"/>
      </g>
     </g>
    </g>
    <g id="ytick_15">
     <g id="line2d_48">
      <g>
       <use xlink:href="#m7f36508408" x="74.864187" y="765.048312" style="stroke: #000000; stroke-width: 0.8"/>
      </g>
     </g>
     <g id="text_45">
      <!-- 15 -->
      <g transform="translate(48.776687 770.747141) scale(0.15 -0.15)">
       <use xlink:href="#DejaVuSans-31"/>
       <use xlink:href="#DejaVuSans-35" transform="translate(63.623047 0)"/>
      </g>
     </g>
    </g>
    <g id="text_46">
     <!-- E3174/Losartan -->
     <g transform="translate(20.877187 910.352344) rotate(-90) scale(0.18 -0.18)">
      <defs>
       <path id="DejaVuSans-Bold-2f" d="M 1644 4666 
L 2338 4666 
L 691 -594 
L 0 -594 
L 1644 4666 
z
" transform="scale(0.015625)"/>
      </defs>
      <use xlink:href="#DejaVuSans-Bold-45"/>
      <use xlink:href="#DejaVuSans-Bold-33" transform="translate(68.310547 0)"/>
      <use xlink:href="#DejaVuSans-Bold-31" transform="translate(137.890625 0)"/>
      <use xlink:href="#DejaVuSans-Bold-37" transform="translate(207.470703 0)"/>
      <use xlink:href="#DejaVuSans-Bold-34" transform="translate(277.050781 0)"/>
      <use xlink:href="#DejaVuSans-Bold-2f" transform="translate(346.630859 0)"/>
      <use xlink:href="#DejaVuSans-Bold-4c" transform="translate(383.154297 0)"/>
      <use xlink:href="#DejaVuSans-Bold-6f" transform="translate(446.875 0)"/>
      <use xlink:href="#DejaVuSans-Bold-73" transform="translate(515.576172 0)"/>
      <use xlink:href="#DejaVuSans-Bold-61" transform="translate(575.097656 0)"/>
      <use xlink:href="#DejaVuSans-Bold-72" transform="translate(642.578125 0)"/>
      <use xlink:href="#DejaVuSans-Bold-74" transform="translate(691.894531 0)"/>
      <use xlink:href="#DejaVuSans-Bold-61" transform="translate(739.697266 0)"/>
      <use xlink:href="#DejaVuSans-Bold-6e" transform="translate(807.177734 0)"/>
     </g>
     <!--  [-] -->
     <g transform="translate(41.03325 846.394688) rotate(-90) scale(0.18 -0.18)">
      <defs>
       <path id="DejaVuSans-Bold-2d" d="M 347 2297 
L 2309 2297 
L 2309 1388 
L 347 1388 
L 347 2297 
z
" transform="scale(0.015625)"/>
      </defs>
      <use xlink:href="#DejaVuSans-Bold-20"/>
      <use xlink:href="#DejaVuSans-Bold-5b" transform="translate(34.814453 0)"/>
      <use xlink:href="#DejaVuSans-Bold-2d" transform="translate(80.517578 0)"/>
      <use xlink:href="#DejaVuSans-Bold-5d" transform="translate(122.021484 0)"/>
     </g>
    </g>
   </g>
   <g id="LineCollection_5">
    <path clip-path="url(#pa87b2054ec)" style="fill: none; stroke: #000000"/>
    <path d="M 98.536915 936.3 
L 98.536915 920.605333 
" clip-path="url(#pa87b2054ec)" style="fill: none; stroke: #000000"/>
    <path d="M 104.455097 931.88046 
L 104.455097 929.336017 
" clip-path="url(#pa87b2054ec)" style="fill: none; stroke: #000000"/>
    <path d="M 110.373278 930.950255 
L 110.373278 929.757463 
" clip-path="url(#pa87b2054ec)" style="fill: none; stroke: #000000"/>
    <path d="M 116.29146 930.794228 
L 116.29146 929.200367 
" clip-path="url(#pa87b2054ec)" style="fill: none; stroke: #000000"/>
    <path d="M 128.127824 929.878835 
L 128.127824 926.114728 
" clip-path="url(#pa87b2054ec)" style="fill: none; stroke: #000000"/>
    <path d="M 139.964187 928.245506 
L 139.964187 921.608664 
" clip-path="url(#pa87b2054ec)" style="fill: none; stroke: #000000"/>
    <path d="M 163.636915 921.420236 
L 163.636915 906.818221 
" clip-path="url(#pa87b2054ec)" style="fill: none; stroke: #000000"/>
    <path d="M 187.309642 915.979367 
L 187.309642 887.264204 
" clip-path="url(#pa87b2054ec)" style="fill: none; stroke: #000000"/>
    <path d="M 210.982369 912.186725 
L 210.982369 888.522073 
" clip-path="url(#pa87b2054ec)" style="fill: none; stroke: #000000"/>
    <path d="M 234.655097 905.797178 
L 234.655097 873.226152 
" clip-path="url(#pa87b2054ec)" style="fill: none; stroke: #000000"/>
    <path d="M 282.000551 883.845639 
L 282.000551 827.90985 
" clip-path="url(#pa87b2054ec)" style="fill: none; stroke: #000000"/>
    <path d="M 329.346006 854.853841 
L 329.346006 762.446485 
" clip-path="url(#pa87b2054ec)" style="fill: none; stroke: #000000"/>
    <path d="M 376.69146 843.223866 
L 376.69146 726.3 
" clip-path="url(#pa87b2054ec)" style="fill: none; stroke: #000000"/>
   </g>
   <g id="line2d_49">
    <path d="M 92.618733 930.717618 
L 96.169642 930.566737 
L 99.720551 930.197022 
L 103.27146 929.607422 
L 106.822369 928.782825 
L 110.373278 927.706475 
L 113.924187 926.361296 
L 117.475097 924.729782 
L 120.315824 923.206102 
L 123.156551 921.477537 
L 125.997278 919.533803 
L 128.838006 917.364437 
L 131.678733 914.959134 
L 134.51946 912.308241 
L 137.360187 909.403367 
L 140.200915 906.238125 
L 143.751824 901.91039 
L 147.302733 897.172205 
L 150.853642 892.037277 
L 154.404551 886.534107 
L 158.665642 879.509533 
L 164.347097 869.62285 
L 176.420187 848.3358 
L 180.681278 841.376737 
L 184.232188 836.024129 
L 187.072915 832.099157 
L 189.913642 828.530746 
L 192.754369 825.344861 
L 195.595097 822.557553 
L 197.725642 820.732824 
L 199.856188 819.135416 
L 201.986733 817.762091 
L 204.117278 816.607336 
L 206.247824 815.663683 
L 208.378369 814.922066 
L 210.508915 814.372152 
L 212.63946 814.002676 
L 215.480187 813.770107 
L 218.320915 813.808061 
L 221.161642 814.087315 
L 224.002369 814.579283 
L 227.553278 815.451846 
L 231.104187 816.56441 
L 235.365278 818.153318 
L 240.336551 820.272129 
L 246.728188 823.279985 
L 255.960551 827.918596 
L 275.13546 837.607401 
L 284.367824 842.006228 
L 292.890006 845.839716 
L 301.412188 849.439369 
L 309.934369 852.802953 
L 318.456551 855.935797 
L 327.688915 859.080472 
L 336.921278 861.980559 
L 346.153642 864.652202 
L 356.096188 867.292531 
L 366.038733 869.706501 
L 376.69146 872.062902 
L 388.054369 874.337676 
L 399.417278 876.389345 
L 411.490369 878.349023 
L 424.273642 880.202233 
L 437.767097 881.938029 
L 447.709642 883.087291 
L 447.709642 883.087291 
" clip-path="url(#pa87b2054ec)" style="fill: none; stroke: #000000; stroke-width: 2; stroke-linecap: square"/>
   </g>
   <g id="line2d_50">
    <path d="M 98.536915 928.452667 
L 104.455097 930.608239 
L 110.373278 930.353859 
L 116.29146 929.997297 
L 128.127824 927.996781 
L 139.964187 924.927085 
L 163.636915 914.119228 
L 187.309642 901.621786 
L 210.982369 900.354399 
L 234.655097 889.511665 
L 282.000551 855.877744 
L 329.346006 808.650163 
L 376.69146 784.761933 
" clip-path="url(#pa87b2054ec)" style="fill: none; stroke-dasharray: 3.7,1.6; stroke-dashoffset: 0; stroke: #000000"/>
    <g clip-path="url(#pa87b2054ec)">
     <use xlink:href="#m58f51293cc" x="98.536915" y="928.452667" style="stroke: #000000; stroke-linejoin: miter"/>
     <use xlink:href="#m58f51293cc" x="104.455097" y="930.608239" style="stroke: #000000; stroke-linejoin: miter"/>
     <use xlink:href="#m58f51293cc" x="110.373278" y="930.353859" style="stroke: #000000; stroke-linejoin: miter"/>
     <use xlink:href="#m58f51293cc" x="116.29146" y="929.997297" style="stroke: #000000; stroke-linejoin: miter"/>
     <use xlink:href="#m58f51293cc" x="128.127824" y="927.996781" style="stroke: #000000; stroke-linejoin: miter"/>
     <use xlink:href="#m58f51293cc" x="139.964187" y="924.927085" style="stroke: #000000; stroke-linejoin: miter"/>
     <use xlink:href="#m58f51293cc" x="163.636915" y="914.119228" style="stroke: #000000; stroke-linejoin: miter"/>
     <use xlink:href="#m58f51293cc" x="187.309642" y="901.621786" style="stroke: #000000; stroke-linejoin: miter"/>
     <use xlink:href="#m58f51293cc" x="210.982369" y="900.354399" style="stroke: #000000; stroke-linejoin: miter"/>
     <use xlink:href="#m58f51293cc" x="234.655097" y="889.511665" style="stroke: #000000; stroke-linejoin: miter"/>
     <use xlink:href="#m58f51293cc" x="282.000551" y="855.877744" style="stroke: #000000; stroke-linejoin: miter"/>
     <use xlink:href="#m58f51293cc" x="329.346006" y="808.650163" style="stroke: #000000; stroke-linejoin: miter"/>
     <use xlink:href="#m58f51293cc" x="376.69146" y="784.761933" style="stroke: #000000; stroke-linejoin: miter"/>
    </g>
   </g>
   <g id="patch_15">
    <path d="M 74.864187 946.8 
L 74.864187 715.8 
" style="fill: none; stroke: #000000; stroke-width: 0.8; stroke-linejoin: miter; stroke-linecap: square"/>
   </g>
   <g id="patch_16">
    <path d="M 465.464187 946.8 
L 465.464187 715.8 
" style="fill: none; stroke: #000000; stroke-width: 0.8; stroke-linejoin: miter; stroke-linecap: square"/>
   </g>
   <g id="patch_17">
    <path d="M 74.864187 946.8 
L 465.464187 946.8 
" style="fill: none; stroke: #000000; stroke-width: 0.8; stroke-linejoin: miter; stroke-linecap: square"/>
   </g>
   <g id="patch_18">
    <path d="M 74.864187 715.8 
L 465.464187 715.8 
" style="fill: none; stroke: #000000; stroke-width: 0.8; stroke-linejoin: miter; stroke-linecap: square"/>
   </g>
   <g id="legend_3">
    <g id="patch_19">
     <path d="M 339.982938 753.15625 
L 458.464188 753.15625 
Q 460.464188 753.15625 460.464188 751.15625 
L 460.464188 722.8 
Q 460.464188 720.8 458.464188 720.8 
L 339.982938 720.8 
Q 337.982938 720.8 337.982938 722.8 
L 337.982938 751.15625 
Q 337.982938 753.15625 339.982938 753.15625 
z
" style="fill: #ffffff; opacity: 0.8; stroke: #cccccc; stroke-linejoin: miter"/>
    </g>
    <g id="line2d_51">
     <path d="M 341.982938 728.898438 
L 361.982938 728.898438 
" style="fill: none; stroke: #000000; stroke-width: 2; stroke-linecap: square"/>
    </g>
    <g id="line2d_52"/>
    <g id="text_47">
     <!-- Sim 2 mg -->
     <g transform="translate(369.982938 732.398438) scale(0.1 -0.1)">
      <use xlink:href="#DejaVuSans-53"/>
      <use xlink:href="#DejaVuSans-69" transform="translate(63.476562 0)"/>
      <use xlink:href="#DejaVuSans-6d" transform="translate(91.259766 0)"/>
      <use xlink:href="#DejaVuSans-20" transform="translate(188.671875 0)"/>
      <use xlink:href="#DejaVuSans-32" transform="translate(220.458984 0)"/>
      <use xlink:href="#DejaVuSans-20" transform="translate(284.082031 0)"/>
      <use xlink:href="#DejaVuSans-6d" transform="translate(315.869141 0)"/>
      <use xlink:href="#DejaVuSans-67" transform="translate(413.28125 0)"/>
     </g>
    </g>
    <g id="LineCollection_6">
     <path d="M 351.982938 748.576563 
L 351.982938 738.576563 
" style="fill: none; stroke: #000000"/>
    </g>
    <g id="line2d_53">
     <path d="M 341.982938 743.576563 
L 361.982938 743.576563 
" style="fill: none; stroke-dasharray: 3.7,1.6; stroke-dashoffset: 0; stroke: #000000"/>
    </g>
    <g id="line2d_54">
     <g>
      <use xlink:href="#m58f51293cc" x="351.982938" y="743.576563" style="stroke: #000000; stroke-linejoin: miter"/>
     </g>
    </g>
    <g id="text_48">
     <!-- 2 mg±SD (n=13) -->
     <g transform="translate(369.982938 747.076563) scale(0.1 -0.1)">
      <use xlink:href="#DejaVuSans-32"/>
      <use xlink:href="#DejaVuSans-20" transform="translate(63.623047 0)"/>
      <use xlink:href="#DejaVuSans-6d" transform="translate(95.410156 0)"/>
      <use xlink:href="#DejaVuSans-67" transform="translate(192.822266 0)"/>
      <use xlink:href="#DejaVuSans-b1" transform="translate(256.298828 0)"/>
      <use xlink:href="#DejaVuSans-53" transform="translate(340.087891 0)"/>
      <use xlink:href="#DejaVuSans-44" transform="translate(403.564453 0)"/>
      <use xlink:href="#DejaVuSans-20" transform="translate(480.566406 0)"/>
      <use xlink:href="#DejaVuSans-28" transform="translate(512.353516 0)"/>
      <use xlink:href="#DejaVuSans-6e" transform="translate(551.367188 0)"/>
      <use xlink:href="#DejaVuSans-3d" transform="translate(614.746094 0)"/>
      <use xlink:href="#DejaVuSans-31" transform="translate(698.535156 0)"/>
      <use xlink:href="#DejaVuSans-33" transform="translate(762.158203 0)"/>
      <use xlink:href="#DejaVuSans-29" transform="translate(825.78125 0)"/>
     </g>
    </g>
   </g>
  </g>
  <g id="text_49">
   <!-- Oh2012 (healthy) -->
   <g transform="translate(140.65325 26.196094) scale(0.25 -0.25)">
    <defs>
     <path id="DejaVuSans-Bold-4f" d="M 2719 3878 
Q 2169 3878 1866 3472 
Q 1563 3066 1563 2328 
Q 1563 1594 1866 1187 
Q 2169 781 2719 781 
Q 3272 781 3575 1187 
Q 3878 1594 3878 2328 
Q 3878 3066 3575 3472 
Q 3272 3878 2719 3878 
z
M 2719 4750 
Q 3844 4750 4481 4106 
Q 5119 3463 5119 2328 
Q 5119 1197 4481 553 
Q 3844 -91 2719 -91 
Q 1597 -91 958 553 
Q 319 1197 319 2328 
Q 319 3463 958 4106 
Q 1597 4750 2719 4750 
z
" transform="scale(0.015625)"/>
     <path id="DejaVuSans-Bold-32" d="M 1844 884 
L 3897 884 
L 3897 0 
L 506 0 
L 506 884 
L 2209 2388 
Q 2438 2594 2547 2791 
Q 2656 2988 2656 3200 
Q 2656 3528 2436 3728 
Q 2216 3928 1850 3928 
Q 1569 3928 1234 3808 
Q 900 3688 519 3450 
L 519 4475 
Q 925 4609 1322 4679 
Q 1719 4750 2100 4750 
Q 2938 4750 3402 4381 
Q 3866 4013 3866 3353 
Q 3866 2972 3669 2642 
Q 3472 2313 2841 1759 
L 1844 884 
z
" transform="scale(0.015625)"/>
     <path id="DejaVuSans-Bold-30" d="M 2944 2338 
Q 2944 3213 2780 3570 
Q 2616 3928 2228 3928 
Q 1841 3928 1675 3570 
Q 1509 3213 1509 2338 
Q 1509 1453 1675 1090 
Q 1841 728 2228 728 
Q 2613 728 2778 1090 
Q 2944 1453 2944 2338 
z
M 4147 2328 
Q 4147 1169 3647 539 
Q 3147 -91 2228 -91 
Q 1306 -91 806 539 
Q 306 1169 306 2328 
Q 306 3491 806 4120 
Q 1306 4750 2228 4750 
Q 3147 4750 3647 4120 
Q 4147 3491 4147 2328 
z
" transform="scale(0.015625)"/>
     <path id="DejaVuSans-Bold-28" d="M 2413 -844 
L 1484 -844 
Q 1006 -72 778 623 
Q 550 1319 550 2003 
Q 550 2688 779 3389 
Q 1009 4091 1484 4856 
L 2413 4856 
Q 2013 4116 1813 3408 
Q 1613 2700 1613 2009 
Q 1613 1319 1811 609 
Q 2009 -100 2413 -844 
z
" transform="scale(0.015625)"/>
     <path id="DejaVuSans-Bold-6c" d="M 538 4863 
L 1656 4863 
L 1656 0 
L 538 0 
L 538 4863 
z
" transform="scale(0.015625)"/>
     <path id="DejaVuSans-Bold-79" d="M 78 3500 
L 1197 3500 
L 2138 1125 
L 2938 3500 
L 4056 3500 
L 2584 -331 
Q 2363 -916 2067 -1148 
Q 1772 -1381 1288 -1381 
L 641 -1381 
L 641 -647 
L 991 -647 
Q 1275 -647 1404 -556 
Q 1534 -466 1606 -231 
L 1638 -134 
L 78 3500 
z
" transform="scale(0.015625)"/>
     <path id="DejaVuSans-Bold-29" d="M 513 -844 
Q 913 -100 1113 609 
Q 1313 1319 1313 2009 
Q 1313 2700 1113 3408 
Q 913 4116 513 4856 
L 1441 4856 
Q 1916 4091 2145 3389 
Q 2375 2688 2375 2003 
Q 2375 1319 2147 623 
Q 1919 -72 1441 -844 
L 513 -844 
z
" transform="scale(0.015625)"/>
    </defs>
    <use xlink:href="#DejaVuSans-Bold-4f"/>
    <use xlink:href="#DejaVuSans-Bold-68" transform="translate(85.009766 0)"/>
    <use xlink:href="#DejaVuSans-Bold-32" transform="translate(156.201172 0)"/>
    <use xlink:href="#DejaVuSans-Bold-30" transform="translate(225.78125 0)"/>
    <use xlink:href="#DejaVuSans-Bold-31" transform="translate(295.361328 0)"/>
    <use xlink:href="#DejaVuSans-Bold-32" transform="translate(364.941406 0)"/>
    <use xlink:href="#DejaVuSans-Bold-20" transform="translate(434.521484 0)"/>
    <use xlink:href="#DejaVuSans-Bold-28" transform="translate(469.335938 0)"/>
    <use xlink:href="#DejaVuSans-Bold-68" transform="translate(515.039062 0)"/>
    <use xlink:href="#DejaVuSans-Bold-65" transform="translate(586.230469 0)"/>
    <use xlink:href="#DejaVuSans-Bold-61" transform="translate(654.052734 0)"/>
    <use xlink:href="#DejaVuSans-Bold-6c" transform="translate(721.533203 0)"/>
    <use xlink:href="#DejaVuSans-Bold-74" transform="translate(755.810547 0)"/>
    <use xlink:href="#DejaVuSans-Bold-68" transform="translate(803.613281 0)"/>
    <use xlink:href="#DejaVuSans-Bold-79" transform="translate(874.804688 0)"/>
    <use xlink:href="#DejaVuSans-Bold-29" transform="translate(939.990234 0)"/>
   </g>
  </g>
 </g>
 <defs>
  <clipPath id="p953ef0a9eb">
   <rect x="74.864187" y="115.2" width="390.6" height="231"/>
  </clipPath>
  <clipPath id="p1195b353f4">
   <rect x="74.864187" y="415.5" width="390.6" height="231"/>
  </clipPath>
  <clipPath id="pa87b2054ec">
   <rect x="74.864187" y="715.8" width="390.6" height="231"/>
  </clipPath>
 </defs>
</svg>
